<svg width="401" height="20" viewBox="0 0 401 20" fill="none" xmlns="http://www.w3.org/2000/svg">
<mask id="mask0_147_993" style="mask-type:alpha" maskUnits="userSpaceOnUse" x="0" y="0" width="401" height="20">
<path d="M377.411 3H190.411V4H377.411V3Z" fill="url(#paint0_linear_147_993)"/>
<path d="M190.013 3H20.4111V4H190.013V3Z" fill="url(#paint1_linear_147_993)"/>
<path d="M6.91173 0C10.2436 1.43301 14.9495 1.80833 15.5677 1.87657C15.6021 1.87657 15.6364 1.91069 15.6364 1.94481L17.2509 3.37781C17.457 3.58252 17.457 3.88961 17.2509 4.09432L15.6364 5.52734C15.6364 5.56146 15.6021 5.56144 15.5677 5.59556C14.9495 5.62968 10.6215 6.005 6.94608 7.54037C6.91173 7.54037 1.58759 4.64023 0.488419 3.95784C0.385371 3.8896 0.385371 3.75313 0.488419 3.68489C1.62194 2.96838 6.91173 0 6.91173 0Z" fill="url(#paint2_linear_147_993)"/>
<path d="M19.9989 4.77703C20.6629 4.77703 21.2012 4.24238 21.2012 3.58285C21.2012 2.92332 20.6629 2.38867 19.9989 2.38867C19.3349 2.38867 18.7966 2.92332 18.7966 3.58285C18.7966 4.24238 19.3349 4.77703 19.9989 4.77703Z" fill="url(#paint3_linear_147_993)"/>
<path d="M17.0103 13.102C17.0103 13.102 17.0446 13.0679 17.079 13.0338C17.1477 12.9997 17.2164 12.9314 17.3538 12.8632C17.4911 12.795 17.6629 12.7267 17.869 12.7267C18.0751 12.7267 18.3499 12.7608 18.6247 12.8632C18.7621 12.9314 18.8995 12.9997 19.0025 13.1361C19.1399 13.2385 19.243 13.375 19.3117 13.5456C19.4147 13.7162 19.4834 13.8868 19.5178 14.0574C19.5521 14.2621 19.5865 14.4668 19.5865 14.6715C19.5521 15.1151 19.3804 15.5586 19.0369 15.9339C18.8651 16.1045 18.659 16.2751 18.4186 16.3775C18.1781 16.514 17.9377 16.5822 17.6629 16.6163C17.1133 16.7187 16.495 16.6163 15.9454 16.3092C15.6706 16.1386 15.4302 15.9339 15.2241 15.6951C15.018 15.4563 14.8463 15.1833 14.7432 14.8762C14.5028 14.2621 14.4341 13.5456 14.6058 12.8291C14.7089 12.4879 14.8463 12.1467 15.0524 11.8396C15.2584 11.5325 15.5332 11.2596 15.8424 11.0207C15.9798 10.8843 16.1515 10.816 16.3233 10.7137C16.495 10.6454 16.6668 10.5431 16.8385 10.4748C17.182 10.3384 17.5942 10.236 17.972 10.236C18.3499 10.2019 18.7621 10.236 19.1743 10.3384C19.3804 10.3725 19.5521 10.4407 19.7582 10.509C19.9299 10.5772 20.136 10.6795 20.3078 10.7819C20.6513 10.9866 20.9948 11.2596 21.2696 11.5666C21.407 11.7031 21.5444 11.8737 21.6474 12.0443C21.7505 12.2149 21.8535 12.3855 21.9566 12.5561C22.3344 13.3067 22.5405 14.1256 22.5061 14.9786C22.4718 16.1386 22.0253 17.2646 21.2696 18.0835C21.1665 18.1858 21.0978 18.2882 20.9948 18.3905L20.6856 18.6635C20.5826 18.7317 20.4795 18.8341 20.3765 18.9023C20.2734 18.9705 20.1704 19.0729 20.033 19.107C19.9299 19.1753 19.7926 19.2435 19.6895 19.3117C19.5865 19.38 19.4491 19.4141 19.346 19.4823C19.1056 19.5847 18.8651 19.6871 18.6247 19.7553C17.6285 20.0624 16.5981 20.0624 15.6706 19.8577C14.7432 19.653 13.8845 19.2094 13.1975 18.6635C13.0944 18.5952 13.0257 18.527 12.957 18.4588C12.8883 18.3905 12.7853 18.3223 12.7166 18.2199C12.5792 18.0834 12.4418 17.9129 12.3044 17.7423C12.064 17.4011 11.8235 17.094 11.6518 16.7528C11.2739 16.0704 11.0335 15.388 10.9304 14.7056C10.9304 14.6374 10.8961 14.535 10.8961 14.4668C10.8961 14.3986 10.8961 14.2962 10.8617 14.228C10.8617 14.0574 10.8274 13.9209 10.8274 13.7503C10.8274 13.4432 10.8274 13.1362 10.8617 12.8632C10.8617 12.7267 10.8961 12.5902 10.8961 12.4538C10.9304 12.3173 10.9648 12.1808 10.9648 12.0443C10.9648 11.9761 10.9991 11.9079 10.9991 11.8396C10.9991 11.7714 11.0335 11.7031 11.0678 11.669C11.1022 11.5667 11.1365 11.4302 11.1709 11.3278C11.2052 11.2255 11.2396 11.089 11.2739 10.9866C11.3083 10.8843 11.3426 10.7478 11.377 10.6113C11.4113 10.4748 11.48 10.3725 11.5144 10.236C11.5831 10.0995 11.6174 9.96303 11.6861 9.86067C11.8235 9.62184 11.9609 9.31477 12.1327 9.07593C12.2357 8.93946 12.3044 8.80297 12.4075 8.6665C12.5105 8.53002 12.6136 8.42767 12.7166 8.29119C13.1631 7.7794 13.7127 7.30174 14.3654 6.89231C15.018 6.44875 15.7393 6.14168 16.5637 5.86872C16.7698 5.80049 16.9759 5.76637 17.182 5.69813C17.3881 5.66401 17.6285 5.62987 17.8346 5.59575C18.0407 5.56163 18.2812 5.56165 18.5216 5.52753C18.6247 5.52753 18.7621 5.52752 18.8651 5.4934C18.9682 5.4934 19.1056 5.4934 19.2086 5.4934C19.4491 5.4934 19.6895 5.49341 19.8956 5.52753C20.136 5.56165 20.3765 5.59577 20.6169 5.62988C20.8574 5.664 21.0978 5.73224 21.3383 5.80048L21.51 5.83459L21.6818 5.90284C21.7848 5.93695 21.9222 5.97107 22.0253 6.00519C22.9527 6.31226 23.8801 6.82406 24.7045 7.43821C24.9106 7.6088 25.1167 7.7794 25.2884 7.95C25.4945 8.12059 25.6663 8.32531 25.838 8.53003L25.9754 8.6665L26.1128 8.80298L26.3533 9.07593C26.525 9.24653 26.6624 9.41713 26.8685 9.58772C27.8646 10.5431 29.0325 11.2254 30.2691 11.396C31.5056 11.5666 32.7422 11.2596 33.8757 10.7478C35.0093 10.236 36.0054 9.58773 36.9672 8.97358C37.8946 8.32531 38.7877 7.71116 39.6121 7.19937C40.4365 6.65346 41.1921 6.20991 41.9478 5.90284C42.6692 5.59576 43.3561 5.42516 43.9057 5.39104C44.4553 5.35693 44.9019 5.49341 45.1767 5.62988C45.314 5.69812 45.4171 5.73223 45.4858 5.76635C45.5545 5.80047 45.5888 5.83459 45.5888 5.83459C45.5888 5.83459 45.5545 5.8346 45.4858 5.80048C45.4171 5.76636 45.314 5.73225 45.1767 5.69813C44.9019 5.62989 44.4897 5.52753 43.9744 5.62988C43.4592 5.69812 42.8409 5.93696 42.1883 6.31227C41.5356 6.68758 40.8143 7.19937 40.0586 7.7794C39.3029 8.35943 38.4785 9.04181 37.5855 9.75832C36.658 10.4748 35.6619 11.1913 34.4597 11.8055C33.8414 12.1126 33.1888 12.3514 32.5018 12.5561C32.1583 12.6244 31.7804 12.6926 31.4026 12.7267C31.0248 12.7608 30.6469 12.7608 30.2347 12.6926C29.8569 12.6585 29.4447 12.5561 29.0668 12.4538C28.689 12.3173 28.3112 12.1808 27.9677 11.9761C27.2463 11.6008 26.6281 11.1231 26.0785 10.5772C25.8724 10.4066 25.7006 10.2019 25.5289 9.99716L25.2541 9.69008L25.1167 9.55361L25.0136 9.41713C24.8419 9.24653 24.7045 9.07593 24.5327 8.90534C24.361 8.76886 24.1893 8.59827 24.0175 8.46179C23.3305 7.91588 22.5405 7.47233 21.7505 7.16526C21.6474 7.13114 21.5444 7.09702 21.4413 7.0629L21.3039 6.99466L21.1665 6.96053C20.9604 6.89229 20.7543 6.85817 20.5482 6.78993C20.3421 6.75581 20.136 6.7217 19.9299 6.68758C19.7239 6.65346 19.5178 6.65345 19.3117 6.61933C19.2086 6.61933 19.1056 6.58522 19.0025 6.58522C18.8995 6.58522 18.7964 6.58522 18.6934 6.58522C18.4873 6.58522 18.2812 6.58521 18.1094 6.61933C17.9033 6.65345 17.7316 6.65346 17.5255 6.68758C17.3194 6.7217 17.1477 6.75581 16.9759 6.78993C16.2546 6.96053 15.5332 7.2335 14.9493 7.57469C14.331 7.91589 13.7814 8.29119 13.3349 8.73474C13.2318 8.8371 13.1288 8.93946 13.0257 9.07593C12.9227 9.17829 12.8196 9.31477 12.7509 9.41713C12.5449 9.62184 12.4075 9.8948 12.2701 10.0995C12.2014 10.2019 12.1327 10.3383 12.064 10.4407C11.9953 10.5431 11.9266 10.6795 11.8922 10.7819C11.8579 10.8843 11.7892 11.0207 11.7548 11.1231C11.7205 11.2255 11.6518 11.3278 11.6174 11.4302C11.5831 11.5325 11.5831 11.669 11.5487 11.7714C11.5487 11.8396 11.5144 11.8737 11.5144 11.942C11.5144 12.0102 11.5144 12.0784 11.5144 12.1126C11.5144 12.249 11.48 12.3514 11.48 12.4879C11.48 12.6243 11.48 12.7608 11.48 12.8973C11.48 13.1703 11.5144 13.4432 11.5487 13.7503C11.5487 13.8868 11.6174 14.0232 11.6174 14.1938C11.6174 14.2621 11.6518 14.3303 11.6518 14.4327C11.6518 14.5009 11.6861 14.5691 11.7205 14.6374C11.8579 15.2515 12.167 15.8316 12.5105 16.4116C12.6823 16.7187 12.9227 16.9916 13.1631 17.2646C13.3005 17.4011 13.4036 17.5375 13.541 17.6399C13.6097 17.7081 13.6784 17.7423 13.7471 17.8105C13.8158 17.8787 13.8845 17.9129 13.9532 17.9811C14.5371 18.3905 15.2584 18.6976 16.0485 18.8341C16.8385 18.9364 17.6629 18.9023 18.4186 18.6635C18.6247 18.5952 18.7964 18.527 19.0025 18.4246C19.1056 18.3905 19.2086 18.3223 19.2773 18.2882L19.5521 18.1176C19.6552 18.0834 19.7239 18.0152 19.8269 17.947C19.8956 17.8787 19.9986 17.8105 20.0673 17.7423L20.3078 17.5375C20.3765 17.4693 20.4452 17.4011 20.5139 17.2987C21.0635 16.6846 21.3726 15.8657 21.407 15.0127C21.4413 14.3986 21.2696 13.7844 20.9948 13.2044C20.9261 13.0679 20.8574 12.9314 20.7543 12.795C20.6513 12.6926 20.5826 12.5561 20.4795 12.4538C20.3078 12.249 20.0673 12.0443 19.8269 11.9078C19.7239 11.8396 19.5865 11.7714 19.4491 11.7031C19.3117 11.669 19.1743 11.6008 19.0369 11.5666C18.7621 11.4984 18.4873 11.4643 18.2125 11.4643C17.9377 11.4643 17.6629 11.5325 17.3881 11.6008C17.2507 11.6349 17.1477 11.7031 17.0103 11.7372C16.9072 11.8055 16.7698 11.8737 16.6668 11.942C16.2202 12.2149 15.9111 12.6585 15.7393 13.1361C15.6019 13.6138 15.5676 14.1256 15.7393 14.5692C15.808 14.808 15.9111 15.0127 16.0485 15.1833C16.1859 15.388 16.3233 15.5245 16.5294 15.661C16.8729 15.8998 17.3194 16.0022 17.7316 16.0022C17.9377 16.0022 18.1438 15.9339 18.3155 15.8657C18.4873 15.7975 18.659 15.6951 18.8308 15.5586C19.1056 15.3198 19.2773 14.9786 19.346 14.6374C19.4834 13.955 19.1056 13.3409 18.6934 13.0679C18.4873 12.9314 18.2468 12.8632 18.0407 12.8632C17.8346 12.8632 17.6629 12.8973 17.5255 12.9314C17.3881 12.9655 17.2851 13.0338 17.2164 13.0679C17.0446 13.102 17.0103 13.102 17.0103 13.102Z" fill="url(#paint4_linear_147_993)"/>
<path d="M31.0934 8.49509C31.0591 8.66569 31.0934 8.8363 31.2308 8.93866C31.3339 9.07514 31.54 9.14337 31.7461 9.14337C31.9522 9.14337 32.124 9.041 32.227 8.90453C32.3301 8.76805 32.3644 8.59746 32.3301 8.42687C32.2957 8.25627 32.1927 8.11979 32.0896 8.01743C31.9866 7.91507 31.8492 7.84683 31.7118 7.88095C31.5744 7.88095 31.437 7.94918 31.3339 8.05154C31.1965 8.18802 31.1278 8.32449 31.0934 8.49509Z" fill="url(#paint5_linear_147_993)"/>
<path d="M29.8225 8.05159C29.7538 8.18806 29.7538 8.32455 29.7882 8.46102C29.8569 8.5975 29.9599 8.69987 30.0973 8.76811C30.2348 8.83634 30.4065 8.80223 30.5439 8.76811C30.6813 8.69987 30.75 8.5975 30.7844 8.46102C30.8187 8.32455 30.7844 8.18808 30.75 8.08572C30.6813 7.98336 30.6126 7.881 30.4752 7.84688C30.3722 7.81276 30.2348 7.81276 30.0973 7.84688C29.9943 7.84688 29.8912 7.91511 29.8225 8.05159Z" fill="url(#paint6_linear_147_993)"/>
<path d="M28.7922 7.47151C28.6548 7.67622 28.7235 7.94919 28.9296 8.08567C29.1357 8.22215 29.4449 8.1539 29.5479 7.94919C29.651 7.74447 29.5823 7.47151 29.4105 7.36915C29.2044 7.19855 28.9296 7.26679 28.7922 7.47151Z" fill="url(#paint7_linear_147_993)"/>
<path d="M28.0021 6.89241C27.899 7.02888 27.9334 7.26771 28.0708 7.37006C28.2082 7.47242 28.4486 7.4383 28.5517 7.30182C28.6547 7.16534 28.6204 6.92652 28.483 6.82416C28.3456 6.7218 28.1051 6.75593 28.0021 6.89241Z" fill="url(#paint8_linear_147_993)"/>
<path d="M27.3496 6.41429C27.2809 6.51665 27.2809 6.68724 27.4183 6.7896C27.5213 6.85783 27.6931 6.85785 27.7961 6.72137C27.8648 6.61901 27.8648 6.44841 27.7274 6.34605C27.59 6.27781 27.4183 6.31193 27.3496 6.41429Z" fill="url(#paint9_linear_147_993)"/>
<path d="M33.5667 7.94999C33.6354 8.08647 33.6697 8.22295 33.6354 8.35943C33.601 8.4959 33.498 8.59825 33.3262 8.66649C33.0171 8.83708 32.7079 8.66649 32.6392 8.39354C32.5705 8.12058 32.7079 7.84764 32.914 7.74528C33.1201 7.64292 33.3949 7.71115 33.5667 7.94999Z" fill="url(#paint10_linear_147_993)"/>
<path d="M34.4943 7.23351C34.6661 7.40411 34.6317 7.67706 34.4599 7.84765C34.2538 8.01825 33.979 7.98413 33.8416 7.77941C33.7042 7.57469 33.7386 7.30174 33.9103 7.16527C34.0477 7.02879 34.3225 7.06291 34.4943 7.23351Z" fill="url(#paint11_linear_147_993)"/>
<path d="M35.1814 6.5506C35.3188 6.68708 35.3188 6.89178 35.1814 7.02826C35.044 7.16474 34.8379 7.16474 34.7005 7.02826C34.5631 6.89178 34.5631 6.68708 34.7005 6.5506C34.8379 6.41412 35.0783 6.41412 35.1814 6.5506Z" fill="url(#paint12_linear_147_993)"/>
<path d="M35.8336 6.03929C35.9024 6.14165 35.9023 6.31224 35.7993 6.41459C35.6962 6.48283 35.5245 6.48284 35.4558 6.38048C35.3527 6.27813 35.3527 6.10752 35.4901 6.00516C35.5588 5.9028 35.7306 5.93693 35.8336 6.03929Z" fill="url(#paint13_linear_147_993)"/>
<path d="M394.088 0C390.756 1.43301 386.05 1.80833 385.432 1.87657C385.398 1.87657 385.363 1.91069 385.363 1.94481L383.749 3.37781C383.543 3.58252 383.543 3.88961 383.749 4.09432L385.363 5.52734C385.363 5.56146 385.398 5.56144 385.432 5.59556C386.05 5.62968 390.378 6.005 394.054 7.54037C394.088 7.54037 399.412 4.64023 400.511 3.95784C400.615 3.8896 400.615 3.75313 400.511 3.68489C399.378 2.96838 394.088 0 394.088 0Z" fill="url(#paint14_linear_147_993)"/>
<path d="M381.001 4.77703C381.665 4.77703 382.203 4.24238 382.203 3.58285C382.203 2.92332 381.665 2.38867 381.001 2.38867C380.337 2.38867 379.799 2.92332 379.799 3.58285C379.799 4.24238 380.337 4.77703 381.001 4.77703Z" fill="url(#paint15_linear_147_993)"/>
<path d="M383.99 13.102C383.99 13.102 383.955 13.0679 383.921 13.0338C383.852 12.9997 383.784 12.9314 383.646 12.8632C383.509 12.795 383.337 12.7267 383.131 12.7267C382.925 12.7267 382.65 12.7608 382.375 12.8632C382.238 12.9314 382.101 12.9997 381.997 13.1361C381.86 13.2385 381.757 13.375 381.688 13.5456C381.585 13.7162 381.517 13.8868 381.482 14.0574C381.448 14.2621 381.414 14.4668 381.414 14.6715C381.448 15.1151 381.62 15.5586 381.963 15.9339C382.135 16.1045 382.341 16.2751 382.581 16.3775C382.822 16.514 383.062 16.5822 383.337 16.6163C383.887 16.7187 384.505 16.6163 385.055 16.3092C385.329 16.1386 385.57 15.9339 385.776 15.6951C385.982 15.4563 386.154 15.1833 386.257 14.8762C386.497 14.2621 386.566 13.5456 386.394 12.8291C386.291 12.4879 386.154 12.1467 385.948 11.8396C385.742 11.5325 385.467 11.2596 385.158 11.0207C385.02 10.8843 384.848 10.816 384.677 10.7137C384.505 10.6454 384.333 10.5431 384.161 10.4748C383.818 10.3384 383.406 10.236 383.028 10.236C382.65 10.2019 382.238 10.236 381.826 10.3384C381.62 10.3725 381.448 10.4407 381.242 10.509C381.07 10.5772 380.864 10.6795 380.692 10.7819C380.349 10.9866 380.005 11.2596 379.73 11.5666C379.593 11.7031 379.456 11.8737 379.353 12.0443C379.25 12.2149 379.146 12.3855 379.043 12.5561C378.666 13.3067 378.459 14.1256 378.494 14.9786C378.528 16.1386 378.975 17.2646 379.73 18.0835C379.833 18.1858 379.902 18.2882 380.005 18.3905L380.314 18.6635C380.417 18.7317 380.52 18.8341 380.624 18.9023C380.727 18.9705 380.83 19.0729 380.967 19.107C381.07 19.1753 381.207 19.2435 381.31 19.3117C381.414 19.38 381.551 19.4141 381.654 19.4823C381.894 19.5847 382.135 19.6871 382.375 19.7553C383.371 20.0624 384.402 20.0624 385.329 19.8577C386.257 19.653 387.115 19.2094 387.802 18.6635C387.906 18.5952 387.974 18.527 388.043 18.4588C388.112 18.3905 388.215 18.3223 388.283 18.2199C388.421 18.0834 388.558 17.9129 388.696 17.7423C388.936 17.4011 389.176 17.094 389.348 16.7528C389.726 16.0704 389.966 15.388 390.07 14.7056C390.07 14.6374 390.104 14.535 390.104 14.4668C390.104 14.3986 390.104 14.2962 390.138 14.228C390.138 14.0574 390.173 13.9209 390.173 13.7503C390.173 13.4432 390.173 13.1362 390.138 12.8632C390.138 12.7267 390.104 12.5902 390.104 12.4538C390.07 12.3173 390.035 12.1808 390.035 12.0443C390.035 11.9761 390.001 11.9079 390.001 11.8396C390.001 11.7714 389.966 11.7031 389.932 11.669C389.898 11.5667 389.863 11.4302 389.829 11.3278C389.795 11.2255 389.76 11.089 389.726 10.9866C389.692 10.8843 389.657 10.7478 389.623 10.6113C389.589 10.4748 389.52 10.3725 389.486 10.236C389.417 10.0995 389.383 9.96303 389.314 9.86067C389.176 9.62184 389.039 9.31477 388.867 9.07593C388.764 8.93946 388.696 8.80297 388.593 8.6665C388.489 8.53002 388.386 8.42767 388.283 8.29119C387.837 7.7794 387.287 7.30174 386.635 6.89231C385.982 6.44875 385.261 6.14168 384.436 5.86872C384.23 5.80049 384.024 5.76637 383.818 5.69813C383.612 5.66401 383.371 5.62987 383.165 5.59575C382.959 5.56163 382.719 5.56165 382.478 5.52753C382.375 5.52753 382.238 5.52752 382.135 5.4934C382.032 5.4934 381.894 5.4934 381.791 5.4934C381.551 5.4934 381.31 5.49341 381.104 5.52753C380.864 5.56165 380.623 5.59577 380.383 5.62988C380.143 5.664 379.902 5.73224 379.662 5.80048L379.49 5.83459L379.318 5.90284C379.215 5.93695 379.078 5.97107 378.975 6.00519C378.047 6.31226 377.12 6.82406 376.295 7.43821C376.089 7.6088 375.883 7.7794 375.712 7.95C375.505 8.12059 375.334 8.32531 375.162 8.53003L375.025 8.6665L374.887 8.80298L374.647 9.07593C374.475 9.24653 374.338 9.41713 374.131 9.58772C373.135 10.5431 371.967 11.2254 370.731 11.396C369.494 11.5666 368.258 11.2596 367.124 10.7478C365.991 10.236 364.995 9.58773 364.033 8.97358C363.105 8.32531 362.212 7.71116 361.388 7.19937C360.564 6.65346 359.808 6.20991 359.052 5.90284C358.331 5.59576 357.644 5.42516 357.094 5.39104C356.545 5.35693 356.098 5.49341 355.823 5.62988C355.686 5.69812 355.583 5.73223 355.514 5.76635C355.445 5.80047 355.411 5.83459 355.411 5.83459C355.411 5.83459 355.445 5.8346 355.514 5.80048C355.583 5.76636 355.686 5.73225 355.823 5.69813C356.098 5.62989 356.51 5.52753 357.026 5.62988C357.541 5.69812 358.159 5.93696 358.812 6.31227C359.464 6.68758 360.186 7.19937 360.941 7.7794C361.697 8.35943 362.521 9.04181 363.415 9.75832C364.342 10.4748 365.338 11.1913 366.54 11.8055C367.159 12.1126 367.811 12.3514 368.498 12.5561C368.842 12.6244 369.22 12.6926 369.597 12.7267C369.975 12.7608 370.353 12.7608 370.765 12.6926C371.143 12.6585 371.555 12.5561 371.933 12.4538C372.311 12.3173 372.689 12.1808 373.032 11.9761C373.754 11.6008 374.372 11.1231 374.922 10.5772C375.128 10.4066 375.299 10.2019 375.471 9.99716L375.746 9.69008L375.883 9.55361L375.986 9.41713C376.158 9.24653 376.295 9.07593 376.467 8.90534C376.639 8.76886 376.811 8.59827 376.982 8.46179C377.669 7.91588 378.459 7.47233 379.25 7.16526C379.353 7.13114 379.456 7.09702 379.559 7.0629L379.696 6.99466L379.833 6.96053C380.04 6.89229 380.246 6.85817 380.452 6.78993C380.658 6.75581 380.864 6.7217 381.07 6.68758C381.276 6.65346 381.482 6.65345 381.688 6.61933C381.791 6.61933 381.894 6.58522 381.997 6.58522C382.101 6.58522 382.204 6.58522 382.307 6.58522C382.513 6.58522 382.719 6.58521 382.891 6.61933C383.097 6.65345 383.268 6.65346 383.474 6.68758C383.681 6.7217 383.852 6.75581 384.024 6.78993C384.745 6.96053 385.467 7.2335 386.051 7.57469C386.669 7.91589 387.219 8.29119 387.665 8.73474C387.768 8.8371 387.871 8.93946 387.974 9.07593C388.077 9.17829 388.18 9.31477 388.249 9.41713C388.455 9.62184 388.593 9.8948 388.73 10.0995C388.799 10.2019 388.867 10.3383 388.936 10.4407C389.005 10.5431 389.073 10.6795 389.108 10.7819C389.142 10.8843 389.211 11.0207 389.245 11.1231C389.28 11.2255 389.348 11.3278 389.383 11.4302C389.417 11.5325 389.417 11.669 389.451 11.7714C389.451 11.8396 389.486 11.8737 389.486 11.942C389.486 12.0102 389.486 12.0784 389.486 12.1126C389.486 12.249 389.52 12.3514 389.52 12.4879C389.52 12.6243 389.52 12.7608 389.52 12.8973C389.52 13.1703 389.486 13.4432 389.451 13.7503C389.451 13.8868 389.383 14.0232 389.383 14.1938C389.383 14.2621 389.348 14.3303 389.348 14.4327C389.348 14.5009 389.314 14.5691 389.279 14.6374C389.142 15.2515 388.833 15.8316 388.489 16.4116C388.318 16.7187 388.077 16.9916 387.837 17.2646C387.699 17.4011 387.596 17.5375 387.459 17.6399C387.39 17.7081 387.322 17.7423 387.253 17.8105C387.184 17.8787 387.115 17.9129 387.047 17.9811C386.463 18.3905 385.742 18.6976 384.951 18.8341C384.161 18.9364 383.337 18.9023 382.581 18.6635C382.375 18.5952 382.204 18.527 381.997 18.4246C381.894 18.3905 381.791 18.3223 381.723 18.2882L381.448 18.1176C381.345 18.0834 381.276 18.0152 381.173 17.947C381.104 17.8787 381.001 17.8105 380.933 17.7423L380.692 17.5375C380.623 17.4693 380.555 17.4011 380.486 17.2987C379.937 16.6846 379.627 15.8657 379.593 15.0127C379.559 14.3986 379.73 13.7844 380.005 13.2044C380.074 13.0679 380.143 12.9314 380.246 12.795C380.349 12.6926 380.417 12.5561 380.52 12.4538C380.692 12.249 380.933 12.0443 381.173 11.9078C381.276 11.8396 381.414 11.7714 381.551 11.7031C381.688 11.669 381.826 11.6008 381.963 11.5666C382.238 11.4984 382.513 11.4643 382.787 11.4643C383.062 11.4643 383.337 11.5325 383.612 11.6008C383.749 11.6349 383.852 11.7031 383.99 11.7372C384.093 11.8055 384.23 11.8737 384.333 11.942C384.78 12.2149 385.089 12.6585 385.261 13.1361C385.398 13.6138 385.432 14.1256 385.261 14.5692C385.192 14.808 385.089 15.0127 384.951 15.1833C384.814 15.388 384.677 15.5245 384.471 15.661C384.127 15.8998 383.681 16.0022 383.268 16.0022C383.062 16.0022 382.856 15.9339 382.684 15.8657C382.513 15.7975 382.341 15.6951 382.169 15.5586C381.894 15.3198 381.688 14.9786 381.654 14.6374C381.517 13.955 381.894 13.3409 382.307 13.0679C382.513 12.9314 382.753 12.8632 382.959 12.8632C383.165 12.8632 383.337 12.8973 383.474 12.9314C383.612 12.9655 383.715 13.0338 383.784 13.0679C383.955 13.102 383.99 13.102 383.99 13.102Z" fill="url(#paint16_linear_147_993)"/>
<path d="M369.907 8.49509C369.941 8.66569 369.907 8.8363 369.769 8.93866C369.666 9.07514 369.46 9.14337 369.254 9.14337C369.048 9.14337 368.876 9.041 368.773 8.90453C368.67 8.76805 368.636 8.59746 368.67 8.42687C368.704 8.25627 368.807 8.11979 368.91 8.01743C369.013 7.91507 369.151 7.84683 369.288 7.88095C369.426 7.88095 369.563 7.94918 369.666 8.05154C369.803 8.18802 369.872 8.32449 369.907 8.49509Z" fill="url(#paint17_linear_147_993)"/>
<path d="M371.177 8.05159C371.246 8.18806 371.246 8.32455 371.212 8.46102C371.143 8.5975 371.04 8.69987 370.903 8.76811C370.765 8.83634 370.594 8.80223 370.456 8.76811C370.319 8.69987 370.25 8.5975 370.216 8.46102C370.181 8.32455 370.216 8.18808 370.25 8.08572C370.319 7.98336 370.387 7.881 370.525 7.84688C370.628 7.81276 370.765 7.81276 370.903 7.84688C371.006 7.84688 371.109 7.91511 371.177 8.05159Z" fill="url(#paint18_linear_147_993)"/>
<path d="M372.208 7.47151C372.345 7.67622 372.276 7.94919 372.07 8.08567C371.864 8.22215 371.555 8.1539 371.452 7.94919C371.349 7.74447 371.418 7.47151 371.589 7.36915C371.795 7.19855 372.07 7.26679 372.208 7.47151Z" fill="url(#paint19_linear_147_993)"/>
<path d="M372.998 6.89241C373.101 7.02888 373.067 7.26771 372.929 7.37006C372.792 7.47242 372.551 7.4383 372.448 7.30182C372.345 7.16534 372.38 6.92652 372.517 6.82416C372.654 6.7218 372.895 6.75593 372.998 6.89241Z" fill="url(#paint20_linear_147_993)"/>
<path d="M373.651 6.41429C373.719 6.51665 373.719 6.68724 373.582 6.7896C373.479 6.85783 373.307 6.85785 373.204 6.72137C373.135 6.61901 373.135 6.44841 373.273 6.34605C373.41 6.27781 373.582 6.31193 373.651 6.41429Z" fill="url(#paint21_linear_147_993)"/>
<path d="M367.433 7.94999C367.365 8.08647 367.33 8.22295 367.365 8.35943C367.399 8.4959 367.502 8.59825 367.674 8.66649C367.983 8.83708 368.292 8.66649 368.361 8.39354C368.429 8.12058 368.292 7.84764 368.086 7.74528C367.88 7.64292 367.605 7.71115 367.433 7.94999Z" fill="url(#paint22_linear_147_993)"/>
<path d="M366.506 7.23351C366.334 7.40411 366.369 7.67706 366.54 7.84765C366.746 8.01825 367.021 7.98413 367.159 7.77941C367.296 7.57469 367.262 7.30174 367.09 7.16527C366.953 7.02879 366.678 7.06291 366.506 7.23351Z" fill="url(#paint23_linear_147_993)"/>
<path d="M365.819 6.5506C365.681 6.68708 365.681 6.89178 365.819 7.02826C365.956 7.16474 366.162 7.16474 366.3 7.02826C366.437 6.89178 366.437 6.68708 366.3 6.5506C366.162 6.41412 365.922 6.41412 365.819 6.5506Z" fill="url(#paint24_linear_147_993)"/>
<path d="M365.166 6.03929C365.098 6.14165 365.098 6.31224 365.201 6.41459C365.304 6.48283 365.475 6.48284 365.544 6.38048C365.647 6.27813 365.647 6.10752 365.51 6.00516C365.441 5.9028 365.269 5.93693 365.166 6.03929Z" fill="url(#paint25_linear_147_993)"/>
</mask>
<g mask="url(#mask0_147_993)">
<rect x="0.411133" y="-13" width="407" height="33" fill="#BF930F"/>
</g>
<defs>
<linearGradient id="paint0_linear_147_993" x1="190.413" y1="3.47959" x2="377.403" y2="3.47959" gradientUnits="userSpaceOnUse">
<stop stop-color="#EEEEEE"/>
<stop offset="0.1507" stop-color="#EEEEEE"/>
<stop offset="0.316" stop-color="#E0DDDB"/>
<stop offset="0.6129" stop-color="#C9C3BD"/>
<stop offset="0.7204" stop-color="#9A938E"/>
<stop offset="0.8387" stop-color="#C9C3BD"/>
<stop offset="1" stop-color="#EEEEEE"/>
</linearGradient>
<linearGradient id="paint1_linear_147_993" x1="20.391" y1="3.47959" x2="189.984" y2="3.47959" gradientUnits="userSpaceOnUse">
<stop stop-color="#EEEEEE"/>
<stop offset="0.1507" stop-color="#EEEEEE"/>
<stop offset="0.316" stop-color="#E0DDDB"/>
<stop offset="0.6129" stop-color="#C9C3BD"/>
<stop offset="0.7204" stop-color="#9A938E"/>
<stop offset="0.8387" stop-color="#C9C3BD"/>
<stop offset="1" stop-color="#EEEEEE"/>
</linearGradient>
<linearGradient id="paint2_linear_147_993" x1="0.41972" y1="3.73409" x2="17.4343" y2="3.73409" gradientUnits="userSpaceOnUse">
<stop stop-color="#EEEEEE"/>
<stop offset="0.1507" stop-color="#EEEEEE"/>
<stop offset="0.316" stop-color="#E0DDDB"/>
<stop offset="0.6129" stop-color="#C9C3BD"/>
<stop offset="0.7204" stop-color="#9A938E"/>
<stop offset="0.8387" stop-color="#C9C3BD"/>
<stop offset="1" stop-color="#EEEEEE"/>
</linearGradient>
<linearGradient id="paint3_linear_147_993" x1="18.7834" y1="3.58108" x2="21.1854" y2="3.58108" gradientUnits="userSpaceOnUse">
<stop stop-color="#EEEEEE"/>
<stop offset="0.1507" stop-color="#EEEEEE"/>
<stop offset="0.316" stop-color="#E0DDDB"/>
<stop offset="0.6129" stop-color="#C9C3BD"/>
<stop offset="0.7204" stop-color="#9A938E"/>
<stop offset="0.8387" stop-color="#C9C3BD"/>
<stop offset="1" stop-color="#EEEEEE"/>
</linearGradient>
<linearGradient id="paint4_linear_147_993" x1="10.8651" y1="12.6429" x2="45.5803" y2="12.6429" gradientUnits="userSpaceOnUse">
<stop stop-color="#EEEEEE"/>
<stop offset="0.1507" stop-color="#EEEEEE"/>
<stop offset="0.316" stop-color="#E0DDDB"/>
<stop offset="0.6129" stop-color="#C9C3BD"/>
<stop offset="0.7204" stop-color="#9A938E"/>
<stop offset="0.8387" stop-color="#C9C3BD"/>
<stop offset="1" stop-color="#EEEEEE"/>
</linearGradient>
<linearGradient id="paint5_linear_147_993" x1="31.0784" y1="8.53583" x2="32.3347" y2="8.53583" gradientUnits="userSpaceOnUse">
<stop stop-color="#EEEEEE"/>
<stop offset="0.1507" stop-color="#EEEEEE"/>
<stop offset="0.316" stop-color="#E0DDDB"/>
<stop offset="0.6129" stop-color="#C9C3BD"/>
<stop offset="0.7204" stop-color="#9A938E"/>
<stop offset="0.8387" stop-color="#C9C3BD"/>
<stop offset="1" stop-color="#EEEEEE"/>
</linearGradient>
<linearGradient id="paint6_linear_147_993" x1="29.759" y1="8.26696" x2="30.7964" y2="8.26696" gradientUnits="userSpaceOnUse">
<stop stop-color="#EEEEEE"/>
<stop offset="0.1507" stop-color="#EEEEEE"/>
<stop offset="0.316" stop-color="#E0DDDB"/>
<stop offset="0.6129" stop-color="#C9C3BD"/>
<stop offset="0.7204" stop-color="#9A938E"/>
<stop offset="0.8387" stop-color="#C9C3BD"/>
<stop offset="1" stop-color="#EEEEEE"/>
</linearGradient>
<linearGradient id="paint7_linear_147_993" x1="28.7229" y1="7.69653" x2="29.6048" y2="7.69653" gradientUnits="userSpaceOnUse">
<stop stop-color="#EEEEEE"/>
<stop offset="0.1507" stop-color="#EEEEEE"/>
<stop offset="0.316" stop-color="#E0DDDB"/>
<stop offset="0.6129" stop-color="#C9C3BD"/>
<stop offset="0.7204" stop-color="#9A938E"/>
<stop offset="0.8387" stop-color="#C9C3BD"/>
<stop offset="1" stop-color="#EEEEEE"/>
</linearGradient>
<linearGradient id="paint8_linear_147_993" x1="27.9463" y1="7.0995" x2="28.6222" y2="7.0995" gradientUnits="userSpaceOnUse">
<stop stop-color="#EEEEEE"/>
<stop offset="0.1507" stop-color="#EEEEEE"/>
<stop offset="0.316" stop-color="#E0DDDB"/>
<stop offset="0.6129" stop-color="#C9C3BD"/>
<stop offset="0.7204" stop-color="#9A938E"/>
<stop offset="0.8387" stop-color="#C9C3BD"/>
<stop offset="1" stop-color="#EEEEEE"/>
</linearGradient>
<linearGradient id="paint9_linear_147_993" x1="27.2998" y1="6.57219" x2="27.8193" y2="6.57219" gradientUnits="userSpaceOnUse">
<stop stop-color="#EEEEEE"/>
<stop offset="0.1507" stop-color="#EEEEEE"/>
<stop offset="0.316" stop-color="#E0DDDB"/>
<stop offset="0.6129" stop-color="#C9C3BD"/>
<stop offset="0.7204" stop-color="#9A938E"/>
<stop offset="0.8387" stop-color="#C9C3BD"/>
<stop offset="1" stop-color="#EEEEEE"/>
</linearGradient>
<linearGradient id="paint10_linear_147_993" x1="32.6089" y1="8.21564" x2="33.6453" y2="8.21564" gradientUnits="userSpaceOnUse">
<stop stop-color="#EEEEEE"/>
<stop offset="0.1507" stop-color="#EEEEEE"/>
<stop offset="0.316" stop-color="#E0DDDB"/>
<stop offset="0.6129" stop-color="#C9C3BD"/>
<stop offset="0.7204" stop-color="#9A938E"/>
<stop offset="0.8387" stop-color="#C9C3BD"/>
<stop offset="1" stop-color="#EEEEEE"/>
</linearGradient>
<linearGradient id="paint11_linear_147_993" x1="33.7254" y1="7.52103" x2="34.6062" y2="7.52103" gradientUnits="userSpaceOnUse">
<stop stop-color="#EEEEEE"/>
<stop offset="0.1507" stop-color="#EEEEEE"/>
<stop offset="0.316" stop-color="#E0DDDB"/>
<stop offset="0.6129" stop-color="#C9C3BD"/>
<stop offset="0.7204" stop-color="#9A938E"/>
<stop offset="0.8387" stop-color="#C9C3BD"/>
<stop offset="1" stop-color="#EEEEEE"/>
</linearGradient>
<linearGradient id="paint12_linear_147_993" x1="34.6069" y1="6.79735" x2="35.2823" y2="6.79735" gradientUnits="userSpaceOnUse">
<stop stop-color="#EEEEEE"/>
<stop offset="0.1507" stop-color="#EEEEEE"/>
<stop offset="0.316" stop-color="#E0DDDB"/>
<stop offset="0.6129" stop-color="#C9C3BD"/>
<stop offset="0.7204" stop-color="#9A938E"/>
<stop offset="0.8387" stop-color="#C9C3BD"/>
<stop offset="1" stop-color="#EEEEEE"/>
</linearGradient>
<linearGradient id="paint13_linear_147_993" x1="35.3488" y1="6.1979" x2="35.8669" y2="6.1979" gradientUnits="userSpaceOnUse">
<stop stop-color="#EEEEEE"/>
<stop offset="0.1507" stop-color="#EEEEEE"/>
<stop offset="0.316" stop-color="#E0DDDB"/>
<stop offset="0.6129" stop-color="#C9C3BD"/>
<stop offset="0.7204" stop-color="#9A938E"/>
<stop offset="0.8387" stop-color="#C9C3BD"/>
<stop offset="1" stop-color="#EEEEEE"/>
</linearGradient>
<linearGradient id="paint14_linear_147_993" x1="383.566" y1="3.73409" x2="400.58" y2="3.73409" gradientUnits="userSpaceOnUse">
<stop stop-color="#EEEEEE"/>
<stop offset="0.1507" stop-color="#EEEEEE"/>
<stop offset="0.316" stop-color="#E0DDDB"/>
<stop offset="0.6129" stop-color="#C9C3BD"/>
<stop offset="0.7204" stop-color="#9A938E"/>
<stop offset="0.8387" stop-color="#C9C3BD"/>
<stop offset="1" stop-color="#EEEEEE"/>
</linearGradient>
<linearGradient id="paint15_linear_147_993" x1="379.815" y1="3.58108" x2="382.217" y2="3.58108" gradientUnits="userSpaceOnUse">
<stop stop-color="#EEEEEE"/>
<stop offset="0.1507" stop-color="#EEEEEE"/>
<stop offset="0.316" stop-color="#E0DDDB"/>
<stop offset="0.6129" stop-color="#C9C3BD"/>
<stop offset="0.7204" stop-color="#9A938E"/>
<stop offset="0.8387" stop-color="#C9C3BD"/>
<stop offset="1" stop-color="#EEEEEE"/>
</linearGradient>
<linearGradient id="paint16_linear_147_993" x1="355.42" y1="12.6429" x2="390.135" y2="12.6429" gradientUnits="userSpaceOnUse">
<stop stop-color="#EEEEEE"/>
<stop offset="0.1507" stop-color="#EEEEEE"/>
<stop offset="0.316" stop-color="#E0DDDB"/>
<stop offset="0.6129" stop-color="#C9C3BD"/>
<stop offset="0.7204" stop-color="#9A938E"/>
<stop offset="0.8387" stop-color="#C9C3BD"/>
<stop offset="1" stop-color="#EEEEEE"/>
</linearGradient>
<linearGradient id="paint17_linear_147_993" x1="368.665" y1="8.53583" x2="369.922" y2="8.53583" gradientUnits="userSpaceOnUse">
<stop stop-color="#EEEEEE"/>
<stop offset="0.1507" stop-color="#EEEEEE"/>
<stop offset="0.316" stop-color="#E0DDDB"/>
<stop offset="0.6129" stop-color="#C9C3BD"/>
<stop offset="0.7204" stop-color="#9A938E"/>
<stop offset="0.8387" stop-color="#C9C3BD"/>
<stop offset="1" stop-color="#EEEEEE"/>
</linearGradient>
<linearGradient id="paint18_linear_147_993" x1="370.204" y1="8.26696" x2="371.241" y2="8.26696" gradientUnits="userSpaceOnUse">
<stop stop-color="#EEEEEE"/>
<stop offset="0.1507" stop-color="#EEEEEE"/>
<stop offset="0.316" stop-color="#E0DDDB"/>
<stop offset="0.6129" stop-color="#C9C3BD"/>
<stop offset="0.7204" stop-color="#9A938E"/>
<stop offset="0.8387" stop-color="#C9C3BD"/>
<stop offset="1" stop-color="#EEEEEE"/>
</linearGradient>
<linearGradient id="paint19_linear_147_993" x1="371.395" y1="7.69653" x2="372.277" y2="7.69653" gradientUnits="userSpaceOnUse">
<stop stop-color="#EEEEEE"/>
<stop offset="0.1507" stop-color="#EEEEEE"/>
<stop offset="0.316" stop-color="#E0DDDB"/>
<stop offset="0.6129" stop-color="#C9C3BD"/>
<stop offset="0.7204" stop-color="#9A938E"/>
<stop offset="0.8387" stop-color="#C9C3BD"/>
<stop offset="1" stop-color="#EEEEEE"/>
</linearGradient>
<linearGradient id="paint20_linear_147_993" x1="372.378" y1="7.0995" x2="373.054" y2="7.0995" gradientUnits="userSpaceOnUse">
<stop stop-color="#EEEEEE"/>
<stop offset="0.1507" stop-color="#EEEEEE"/>
<stop offset="0.316" stop-color="#E0DDDB"/>
<stop offset="0.6129" stop-color="#C9C3BD"/>
<stop offset="0.7204" stop-color="#9A938E"/>
<stop offset="0.8387" stop-color="#C9C3BD"/>
<stop offset="1" stop-color="#EEEEEE"/>
</linearGradient>
<linearGradient id="paint21_linear_147_993" x1="373.181" y1="6.57219" x2="373.7" y2="6.57219" gradientUnits="userSpaceOnUse">
<stop stop-color="#EEEEEE"/>
<stop offset="0.1507" stop-color="#EEEEEE"/>
<stop offset="0.316" stop-color="#E0DDDB"/>
<stop offset="0.6129" stop-color="#C9C3BD"/>
<stop offset="0.7204" stop-color="#9A938E"/>
<stop offset="0.8387" stop-color="#C9C3BD"/>
<stop offset="1" stop-color="#EEEEEE"/>
</linearGradient>
<linearGradient id="paint22_linear_147_993" x1="367.355" y1="8.21564" x2="368.391" y2="8.21564" gradientUnits="userSpaceOnUse">
<stop stop-color="#EEEEEE"/>
<stop offset="0.1507" stop-color="#EEEEEE"/>
<stop offset="0.316" stop-color="#E0DDDB"/>
<stop offset="0.6129" stop-color="#C9C3BD"/>
<stop offset="0.7204" stop-color="#9A938E"/>
<stop offset="0.8387" stop-color="#C9C3BD"/>
<stop offset="1" stop-color="#EEEEEE"/>
</linearGradient>
<linearGradient id="paint23_linear_147_993" x1="366.394" y1="7.52103" x2="367.275" y2="7.52103" gradientUnits="userSpaceOnUse">
<stop stop-color="#EEEEEE"/>
<stop offset="0.1507" stop-color="#EEEEEE"/>
<stop offset="0.316" stop-color="#E0DDDB"/>
<stop offset="0.6129" stop-color="#C9C3BD"/>
<stop offset="0.7204" stop-color="#9A938E"/>
<stop offset="0.8387" stop-color="#C9C3BD"/>
<stop offset="1" stop-color="#EEEEEE"/>
</linearGradient>
<linearGradient id="paint24_linear_147_993" x1="365.718" y1="6.79735" x2="366.393" y2="6.79735" gradientUnits="userSpaceOnUse">
<stop stop-color="#EEEEEE"/>
<stop offset="0.1507" stop-color="#EEEEEE"/>
<stop offset="0.316" stop-color="#E0DDDB"/>
<stop offset="0.6129" stop-color="#C9C3BD"/>
<stop offset="0.7204" stop-color="#9A938E"/>
<stop offset="0.8387" stop-color="#C9C3BD"/>
<stop offset="1" stop-color="#EEEEEE"/>
</linearGradient>
<linearGradient id="paint25_linear_147_993" x1="365.133" y1="6.1979" x2="365.651" y2="6.1979" gradientUnits="userSpaceOnUse">
<stop stop-color="#EEEEEE"/>
<stop offset="0.1507" stop-color="#EEEEEE"/>
<stop offset="0.316" stop-color="#E0DDDB"/>
<stop offset="0.6129" stop-color="#C9C3BD"/>
<stop offset="0.7204" stop-color="#9A938E"/>
<stop offset="0.8387" stop-color="#C9C3BD"/>
<stop offset="1" stop-color="#EEEEEE"/>
</linearGradient>
</defs>
</svg>
