<svg width="242" height="94" viewBox="0 0 242 94" fill="none" xmlns="http://www.w3.org/2000/svg">
<path d="M151.684 54.3471C151.684 54.6063 151.945 54.8655 152.206 54.8655C152.466 54.8655 152.727 54.6063 152.727 54.3471C152.727 54.0879 152.466 53.8287 152.206 53.9151C151.858 53.8287 151.597 54.0879 151.684 54.3471Z" fill="white"/>
<path d="M152.206 55.7299C151.946 55.7299 151.685 55.9891 151.685 56.2483C151.685 56.5075 151.946 56.7667 152.206 56.7667C152.467 56.7667 152.728 56.5075 152.728 56.2483C152.728 55.9891 152.467 55.7299 152.206 55.7299Z" fill="white"/>
<path d="M151.424 52.36C151.424 52.6193 151.685 52.7921 151.945 52.7921C151.945 52.7921 151.945 52.7921 152.032 52.7921C152.293 52.7921 152.554 52.5329 152.467 52.1872C152.467 51.928 152.206 51.6688 151.858 51.7552C151.598 51.7552 151.424 52.0144 151.424 52.36Z" fill="white"/>
<path d="M151.163 50.2862C151.25 50.5454 151.424 50.7182 151.685 50.7182H151.772C152.033 50.6318 152.206 50.3726 152.206 50.1134C152.119 49.8542 151.859 49.6814 151.598 49.6814C151.25 49.7678 151.076 50.027 151.163 50.2862Z" fill="white"/>
<path d="M150.641 48.3855C150.728 48.6447 150.902 48.7311 151.163 48.7311C151.163 48.7311 151.25 48.7311 151.337 48.7311C151.598 48.6447 151.771 48.3855 151.684 48.1263C151.598 47.8671 151.337 47.6943 151.076 47.7807C150.728 47.7807 150.641 48.1263 150.641 48.3855Z" fill="white"/>
<path d="M150.033 67.7396C149.772 67.6532 149.424 67.7396 149.338 67.9988C149.251 68.258 149.338 68.6036 149.598 68.69C149.685 68.69 149.772 68.69 149.772 68.69C149.946 68.69 150.207 68.6036 150.294 68.3444C150.381 68.1716 150.294 67.9124 150.033 67.7396Z" fill="white"/>
<path d="M150.728 65.8388C150.467 65.7524 150.12 65.9252 150.033 66.1844C149.946 66.4436 150.12 66.7892 150.38 66.8756C150.467 66.8756 150.467 66.8756 150.554 66.8756C150.728 66.8756 150.989 66.7028 151.076 66.53C151.076 66.2708 150.989 65.9252 150.728 65.8388Z" fill="white"/>
<path d="M152.033 59.7906C151.772 59.7906 151.511 59.9635 151.424 60.2227C151.337 60.4819 151.598 60.7411 151.859 60.8275H151.946C152.207 60.8275 152.38 60.6547 152.467 60.3955C152.467 60.1363 152.294 59.8771 152.033 59.7906Z" fill="white"/>
<path d="M151.25 63.8515C150.989 63.7651 150.729 63.9379 150.642 64.1971C150.555 64.4563 150.729 64.7155 150.989 64.8019C151.076 64.8019 151.076 64.8019 151.163 64.8019C151.424 64.8019 151.598 64.6291 151.685 64.4563C151.685 64.1971 151.511 63.9379 151.25 63.8515Z" fill="white"/>
<path d="M151.684 61.8641C151.424 61.7777 151.163 61.9505 151.076 62.2961C150.989 62.5553 151.163 62.8145 151.51 62.9009H151.597C151.858 62.9009 152.032 62.7281 152.119 62.4689C152.206 62.2097 152.032 61.9505 151.684 61.8641Z" fill="white"/>
<path d="M152.206 57.8032C151.946 57.8032 151.685 57.976 151.685 58.2352C151.685 58.4944 151.859 58.7536 152.206 58.7536C152.467 58.7536 152.728 58.5808 152.728 58.2352C152.728 58.0624 152.467 57.8032 152.206 57.8032Z" fill="white"/>
<path d="M150.12 46.398C150.207 46.5708 150.381 46.7437 150.642 46.7437C150.728 46.7437 150.728 46.7437 150.815 46.7437C151.076 46.6573 151.25 46.3981 151.163 46.1388C151.076 45.8796 150.728 45.7068 150.468 45.7932C150.12 45.8796 150.033 46.1388 150.12 46.398Z" fill="white"/>
<path d="M145.599 75.8615C145.773 75.8615 145.86 75.7751 146.034 75.6887C146.208 75.4295 146.208 75.1703 145.947 74.9974C145.686 74.8246 145.426 74.8246 145.252 75.0839C145.078 75.3431 145.078 75.6023 145.339 75.7751C145.426 75.8615 145.513 75.8615 145.599 75.8615Z" fill="white"/>
<path d="M146.817 74.22C146.99 74.22 147.164 74.1336 147.251 73.9608C147.425 73.7015 147.338 73.4423 147.077 73.2695C146.817 73.0967 146.556 73.1831 146.382 73.4423C146.208 73.7015 146.295 73.9608 146.556 74.1336C146.643 74.1336 146.73 74.22 146.817 74.22Z" fill="white"/>
<path d="M144.296 77.4168C144.47 77.4168 144.557 77.3304 144.731 77.244C144.904 77.0712 144.904 76.7256 144.731 76.5528C144.557 76.38 144.209 76.38 144.035 76.5528C143.861 76.7256 143.861 77.0712 144.035 77.244C144.035 77.4168 144.209 77.4168 144.296 77.4168Z" fill="white"/>
<path d="M144.035 36.0298C144.122 36.1162 144.296 36.2026 144.383 36.2026C144.47 36.2026 144.644 36.2026 144.731 36.1162C144.905 35.9434 144.992 35.5978 144.731 35.4249C144.557 35.2521 144.209 35.1657 144.035 35.4249C143.862 35.4249 143.775 35.7706 144.035 36.0298Z" fill="white"/>
<path d="M145.686 37.758C145.773 37.758 145.86 37.758 146.034 37.6716C146.295 37.4988 146.295 37.1531 146.121 36.9803C145.947 36.7211 145.599 36.7211 145.426 36.8939C145.165 37.0667 145.165 37.4123 145.339 37.5852C145.426 37.6716 145.513 37.758 145.686 37.758Z" fill="white"/>
<path d="M149.338 44.4971C149.425 44.6699 149.598 44.8427 149.772 44.8427C149.859 44.8427 149.946 44.8427 149.946 44.8427C150.207 44.7563 150.381 44.4107 150.207 44.1515C150.12 43.8923 149.772 43.7195 149.512 43.8923C149.425 43.9787 149.251 44.2379 149.338 44.4971Z" fill="white"/>
<path d="M148.555 42.6828C148.642 42.8556 148.816 42.942 148.99 42.942C149.077 42.942 149.164 42.942 149.251 42.8556C149.512 42.7692 149.598 42.4236 149.512 42.1644C149.425 41.9051 149.077 41.8187 148.816 41.9051C148.555 42.1644 148.381 42.4236 148.555 42.6828Z" fill="white"/>
<path d="M148.034 41.2142C148.121 41.2142 148.208 41.2142 148.295 41.1278C148.555 40.955 148.642 40.6957 148.468 40.4365C148.295 40.1773 148.034 40.0909 147.773 40.2637C147.512 40.4365 147.425 40.6957 147.599 40.955C147.686 41.0414 147.86 41.2142 148.034 41.2142Z" fill="white"/>
<path d="M146.904 39.3993C146.991 39.3993 147.078 39.3993 147.165 39.3129C147.425 39.1401 147.425 38.7945 147.338 38.6217C147.165 38.3625 146.904 38.3625 146.643 38.4489C146.382 38.6217 146.382 38.8809 146.469 39.1401C146.556 39.3129 146.73 39.3993 146.904 39.3993Z" fill="white"/>
<path d="M147.685 72.4053C147.772 72.4917 147.859 72.4917 147.946 72.4917C148.12 72.4917 148.294 72.4053 148.381 72.2325C148.555 71.9733 148.468 71.6277 148.207 71.5413C147.946 71.3685 147.599 71.4549 147.512 71.7141C147.338 71.8869 147.425 72.2325 147.685 72.4053Z" fill="white"/>
<path d="M93.7923 40.9549C93.5315 40.7821 93.1838 40.9549 93.0969 41.1277C92.9231 41.387 93.0969 41.6462 93.2708 41.819C93.3577 41.819 93.4446 41.9054 93.5315 41.9054C93.7054 41.9054 93.8792 41.819 93.9662 41.6462C94.14 41.3869 93.9662 41.0413 93.7923 40.9549Z" fill="white"/>
<path d="M89.7068 55.6434C89.9676 55.6434 90.2284 55.4706 90.2284 55.125C90.2284 54.8658 89.9676 54.6066 89.7068 54.6066C89.4461 54.6066 89.1853 54.7794 89.1853 55.125C89.1853 55.3842 89.4461 55.6434 89.7068 55.6434Z" fill="white"/>
<path d="M89.7937 53.6562C89.8806 53.6562 89.8806 53.6562 89.7937 53.6562C90.1414 53.6562 90.3152 53.4834 90.4021 53.2242C90.4021 52.965 90.2283 52.7058 89.9675 52.6194C89.7067 52.6194 89.446 52.7922 89.446 53.0514C89.359 53.3106 89.5329 53.5698 89.7937 53.6562Z" fill="white"/>
<path d="M89.7068 57.7171C89.9676 57.7171 90.2284 57.4579 90.2284 57.1987C90.2284 56.9395 89.9676 56.6803 89.7068 56.6803C89.4461 56.6803 89.1853 56.9395 89.1853 57.1987C89.1853 57.5443 89.4461 57.7171 89.7068 57.7171Z" fill="white"/>
<path d="M90.2283 61.7779C90.4891 61.7779 90.663 61.4322 90.663 61.173C90.663 60.9138 90.3153 60.741 90.0545 60.741C89.7937 60.741 89.6199 61.0866 89.6199 61.3458C89.6199 61.6051 89.8806 61.7779 90.2283 61.7779C90.1414 61.7779 90.1414 61.7779 90.2283 61.7779Z" fill="white"/>
<path d="M89.8804 59.7905C90.1412 59.7905 90.4019 59.5313 90.315 59.2721C90.315 59.0129 90.0542 58.7537 89.7935 58.8401C89.5327 58.8401 89.2719 59.0993 89.3588 59.4449C89.3588 59.5313 89.6196 59.7905 89.8804 59.7905Z" fill="white"/>
<path d="M97.9644 77.2439C97.7905 77.4167 97.7905 77.7623 97.9644 77.9351C98.0513 78.0215 98.2252 78.1079 98.3121 78.1079C98.399 78.1079 98.5729 78.0215 98.6598 77.9351C98.8336 77.7623 98.8336 77.4167 98.6598 77.2439C98.4859 77.0711 98.1382 77.0711 97.9644 77.2439Z" fill="white"/>
<path d="M91.6188 45.6206C91.7058 45.6206 91.7058 45.6206 91.7927 45.6206C91.9665 45.6206 92.2273 45.5342 92.3142 45.275C92.4012 45.0157 92.3142 44.6701 92.0535 44.5837C91.7927 44.4973 91.5319 44.5837 91.3581 44.8429C91.1842 45.1886 91.3581 45.5342 91.6188 45.6206Z" fill="white"/>
<path d="M92.4011 43.7197C92.488 43.7197 92.5749 43.7197 92.6618 43.7197C92.8357 43.7197 93.0096 43.6333 93.0965 43.4605C93.1834 43.2013 93.0965 42.9421 92.8357 42.7693C92.5749 42.6829 92.3141 42.7693 92.1403 43.0285C91.9664 43.2877 92.1403 43.5469 92.4011 43.7197Z" fill="white"/>
<path d="M90.0545 51.5825C90.4022 51.5825 90.576 51.4097 90.663 51.1505C90.7499 50.8912 90.4891 50.632 90.2283 50.5456C89.9676 50.4592 89.7068 50.7184 89.6199 50.9776C89.6199 51.2369 89.7937 51.4961 90.0545 51.5825Z" fill="white"/>
<path d="M90.402 49.595H90.489C90.7498 49.595 90.9236 49.4222 91.0105 49.1629C91.0974 48.9037 90.9236 48.6445 90.6628 48.5581C90.402 48.4717 90.1413 48.6445 90.0544 48.9037C89.9674 49.1629 90.1413 49.5086 90.402 49.595Z" fill="white"/>
<path d="M90.9235 47.5212C91.0105 47.5212 91.0105 47.5212 91.0974 47.5212C91.2712 47.5212 91.532 47.3484 91.6189 47.1756C91.7058 46.9164 91.532 46.5708 91.2712 46.5708C91.0105 46.4844 90.6628 46.6572 90.6628 46.9164C90.4889 47.1756 90.6628 47.4348 90.9235 47.5212Z" fill="white"/>
<path d="M91.0105 63.1602C90.9236 62.901 90.6628 62.7282 90.402 62.7282C90.1413 62.8146 89.9674 63.0738 90.0544 63.333C90.1413 63.5922 90.3151 63.765 90.5759 63.765H90.6628C90.9236 63.765 91.0974 63.5058 91.0105 63.1602Z" fill="white"/>
<path d="M95.2698 37.5851C95.096 37.8443 95.1829 38.1035 95.3567 38.2763C95.4437 38.3627 95.5306 38.3627 95.6175 38.3627C95.7914 38.3627 95.9652 38.2763 96.0521 38.1899C96.226 37.9307 96.1391 37.6715 95.9652 37.4987C95.7914 37.3259 95.4437 37.4123 95.2698 37.5851Z" fill="white"/>
<path d="M95.3573 74.0471C95.0965 74.2199 95.0965 74.5655 95.2703 74.7383C95.3573 74.9111 95.5311 74.9111 95.705 74.9111C95.7919 74.9111 95.8788 74.9111 95.9657 74.8247C96.2265 74.6519 96.2265 74.3063 96.0527 74.1335C95.8788 73.9607 95.618 73.8743 95.3573 74.0471Z" fill="white"/>
<path d="M96.5741 75.6885C96.3133 75.8613 96.3133 76.2069 96.4871 76.3797C96.5741 76.4661 96.7479 76.5525 96.9218 76.5525C97.0087 76.5525 97.1825 76.5525 97.2694 76.4661C97.4433 76.2933 97.5302 75.9477 97.3564 75.7749C97.0956 75.5157 96.8348 75.5157 96.5741 75.6885Z" fill="white"/>
<path d="M96.5736 35.9433C96.3997 36.1161 96.3997 36.4617 96.6605 36.6345C96.7474 36.7209 96.8343 36.7209 97.0082 36.7209C97.182 36.7209 97.269 36.6345 97.4428 36.5481C97.6167 36.3753 97.6167 36.0297 97.3559 35.8569C97.0951 35.6841 96.8343 35.7705 96.5736 35.9433Z" fill="white"/>
<path d="M91.532 65.1476C91.4451 64.8884 91.1843 64.7156 90.9235 64.802C90.6628 64.8884 90.4889 65.1476 90.5758 65.4068C90.6628 65.5796 90.8366 65.7524 91.0974 65.7524C91.1843 65.7524 91.1843 65.7524 91.2712 65.7524C91.532 65.7524 91.6189 65.4068 91.532 65.1476Z" fill="white"/>
<path d="M94.8352 39.1404C94.5744 38.9676 94.3136 39.054 94.1398 39.3132C93.9659 39.5725 94.0528 39.9181 94.3136 40.0045C94.4005 40.0909 94.4875 40.0909 94.5744 40.0909C94.7482 40.0909 94.9221 40.0045 95.009 39.8317C95.1829 39.6589 95.0959 39.3132 94.8352 39.1404Z" fill="white"/>
<path d="M92.2281 67.0486C92.1411 66.7893 91.7934 66.6165 91.5327 66.7893C91.2719 66.8757 91.098 67.2214 91.2719 67.4806C91.3588 67.6534 91.5327 67.8262 91.7934 67.8262C91.8804 67.8262 91.8804 67.8262 91.9673 67.8262C92.2281 67.6534 92.315 67.3078 92.2281 67.0486Z" fill="white"/>
<path d="M93.01 68.9494C92.9231 68.6902 92.5754 68.6038 92.3146 68.6902C92.0538 68.7766 91.9669 69.1223 92.0538 69.3815C92.1408 69.5543 92.3146 69.6407 92.4885 69.6407C92.5754 69.6407 92.6623 69.6407 92.6623 69.6407C93.01 69.4679 93.0969 69.2087 93.01 68.9494Z" fill="white"/>
<path d="M142.992 34.6475C143.166 34.6475 143.253 34.5611 143.34 34.4747C143.514 34.3019 143.514 33.9563 143.34 33.7835C143.166 33.6107 142.818 33.6107 142.644 33.7835C142.47 33.9563 142.47 34.3019 142.644 34.4747C142.731 34.6475 142.818 34.6475 142.992 34.6475Z" fill="white"/>
<path d="M93.184 70.5045C92.9232 70.6773 92.8363 70.9365 93.0101 71.1957C93.0971 71.3685 93.2709 71.4549 93.4448 71.4549C93.5317 71.4549 93.6186 71.4549 93.7055 71.3685C93.9663 71.1957 94.0532 70.9365 93.8794 70.6773C93.7925 70.5045 93.4447 70.4181 93.184 70.5045Z" fill="white"/>
<path d="M94.2269 72.3192C93.9662 72.492 93.8792 72.7512 94.0531 73.0104C94.14 73.1832 94.3139 73.2696 94.4877 73.2696C94.5746 73.2696 94.6616 73.2696 94.7485 73.1832C95.0093 73.0104 95.0962 72.7512 94.9223 72.492C94.7485 72.2328 94.4877 72.1464 94.2269 72.3192Z" fill="white"/>
<path d="M149.164 69.6404C148.903 69.4676 148.555 69.6404 148.468 69.8996C148.381 70.1588 148.468 70.5044 148.729 70.5908C148.816 70.5908 148.903 70.6772 148.99 70.6772C149.164 70.6772 149.337 70.5908 149.424 70.418C149.511 70.0724 149.424 69.8132 149.164 69.6404Z" fill="white"/>
<path d="M112.133 86.5754C112.133 86.5754 112.22 86.5754 112.307 86.5754C112.568 86.5754 112.742 86.4026 112.829 86.2298C112.916 85.9706 112.742 85.7114 112.481 85.625C112.22 85.5386 111.96 85.7114 111.873 85.9706C111.699 86.2298 111.873 86.489 112.133 86.5754Z" fill="white"/>
<path d="M108.135 85.1065C108.222 85.1065 108.309 85.1929 108.309 85.1929C108.483 85.1929 108.657 85.1065 108.744 84.8473C108.83 84.5881 108.744 84.2425 108.483 84.1561C108.222 84.0697 107.874 84.156 107.787 84.4153C107.787 84.7609 107.874 85.0201 108.135 85.1065Z" fill="white"/>
<path d="M114.132 87.0936H114.219C114.48 87.0936 114.654 86.9208 114.741 86.6616C114.828 86.4024 114.654 86.1432 114.306 86.0568C114.045 85.9704 113.785 86.1432 113.698 86.4888C113.698 86.748 113.872 87.0072 114.132 87.0936Z" fill="white"/>
<path d="M112.394 26.8713C112.394 26.8713 112.481 26.8713 112.568 26.8713C112.829 26.7849 113.002 26.5257 112.916 26.2665C112.829 26.0073 112.568 25.8344 112.307 25.9209C112.046 26.0073 111.872 26.2665 111.959 26.5257C111.959 26.6985 112.133 26.8713 112.394 26.8713Z" fill="white"/>
<path d="M110.134 85.9706C110.221 85.9706 110.221 85.9706 110.308 85.9706C110.482 85.9706 110.743 85.7978 110.743 85.625C110.83 85.3658 110.743 85.1066 110.482 84.9338C110.221 84.8474 109.96 84.9338 109.787 85.2794C109.7 85.5386 109.873 85.7978 110.134 85.9706Z" fill="white"/>
<path d="M108.482 28.2536C108.569 28.2536 108.656 28.2536 108.656 28.2536C108.917 28.1672 109.004 27.8216 108.917 27.5624C108.83 27.3032 108.482 27.2167 108.222 27.3032C107.961 27.3896 107.874 27.7352 107.961 27.9944C108.135 28.1672 108.309 28.2536 108.482 28.2536Z" fill="white"/>
<path d="M110.395 27.4759C110.482 27.4759 110.482 27.4759 110.569 27.4759C110.83 27.3895 111.003 27.0439 110.917 26.7846C110.83 26.5254 110.482 26.3526 110.221 26.439C109.96 26.5254 109.787 26.8711 109.873 27.1303C110.047 27.3895 110.221 27.4759 110.395 27.4759Z" fill="white"/>
<path d="M114.393 26.3529H114.48C114.741 26.2665 114.915 26.0073 114.915 25.7481C114.828 25.4889 114.567 25.3161 114.306 25.3161C114.046 25.4025 113.872 25.6617 113.872 25.9209C113.959 26.1801 114.133 26.3529 114.393 26.3529Z" fill="white"/>
<path d="M118.479 25.748C118.827 25.748 119.001 25.4888 119.001 25.2296C119.001 24.9704 118.74 24.7112 118.479 24.7976C118.218 24.7976 117.957 25.0568 118.044 25.316C117.957 25.5752 118.218 25.748 118.479 25.748Z" fill="white"/>
<path d="M118.305 87.6985C118.653 87.6985 118.826 87.5257 118.826 87.2665C118.826 87.0073 118.653 86.7481 118.392 86.7481C118.131 86.7481 117.87 86.9209 117.87 87.1801C117.783 87.4393 118.044 87.6985 118.305 87.6985Z" fill="white"/>
<path d="M116.219 87.4396C116.567 87.4396 116.74 87.2668 116.827 87.0076C116.827 86.7484 116.653 86.4892 116.393 86.4028C116.132 86.4028 115.871 86.5756 115.784 86.8348C115.784 87.1804 115.958 87.4396 116.219 87.4396Z" fill="white"/>
<path d="M116.393 26.0072C116.48 26.0072 116.48 26.0072 116.393 26.0072C116.74 25.9208 116.914 25.6616 116.914 25.4024C116.914 25.1432 116.566 24.884 116.306 24.9704C116.045 24.9704 115.871 25.316 115.871 25.5752C115.958 25.8344 116.132 26.0072 116.393 26.0072Z" fill="white"/>
<path d="M106.309 84.2423C106.396 84.2423 106.483 84.3287 106.57 84.3287C106.744 84.3287 106.917 84.2423 107.004 84.0694C107.091 83.8102 107.004 83.4646 106.83 83.3782C106.57 83.2918 106.222 83.3782 106.135 83.6374C105.874 83.8102 106.048 84.0694 106.309 84.2423Z" fill="white"/>
<path d="M101.355 80.9591C101.529 80.9591 101.616 80.8727 101.789 80.7863C101.963 80.6135 101.963 80.2679 101.703 80.0951C101.442 79.9223 101.181 79.9223 101.007 80.1815C100.833 80.4407 100.833 80.6999 101.094 80.8727C101.094 80.8727 101.181 80.9591 101.355 80.9591Z" fill="white"/>
<path d="M99.8768 33.8699C99.9637 33.8699 100.138 33.7835 100.224 33.6971C100.398 33.5243 100.485 33.1787 100.224 33.0059C100.051 32.8331 99.7029 32.7467 99.5291 33.0059C99.3552 33.1787 99.2683 33.5243 99.5291 33.6971C99.616 33.7835 99.7029 33.8699 99.8768 33.8699Z" fill="white"/>
<path d="M101.441 32.4874C101.528 32.4874 101.702 32.4874 101.789 32.401C102.05 32.2282 102.05 31.8826 101.876 31.7098C101.702 31.4506 101.355 31.4506 101.181 31.6234C101.007 31.7962 100.92 32.1418 101.094 32.3146C101.094 32.401 101.268 32.4874 101.441 32.4874Z" fill="white"/>
<path d="M99.7904 79.5768C99.9642 79.5768 100.051 79.4904 100.138 79.404C100.312 79.2312 100.312 78.8856 100.138 78.7128C99.9642 78.54 99.6165 78.54 99.4426 78.7128C99.2688 78.8856 99.2688 79.2312 99.4426 79.404C99.5296 79.4904 99.6165 79.5768 99.7904 79.5768Z" fill="white"/>
<path d="M98.3992 35.2523C98.5731 35.2523 98.66 35.1659 98.7469 35.0795C98.9208 34.9067 98.9208 34.5611 98.7469 34.3883C98.5731 34.2155 98.2254 34.2155 98.0515 34.3883C97.8777 34.5611 97.8777 34.9067 98.0515 35.0795C98.1385 35.2523 98.2254 35.2523 98.3992 35.2523Z" fill="white"/>
<path d="M104.832 30.1548C104.919 30.1548 105.006 30.1548 105.093 30.0684C105.354 29.8956 105.441 29.6364 105.267 29.3771C105.093 29.1179 104.832 29.0315 104.571 29.2043C104.311 29.3772 104.224 29.6364 104.398 29.8956C104.485 30.0684 104.658 30.1548 104.832 30.1548Z" fill="white"/>
<path d="M106.657 29.1178C106.744 29.1178 106.831 29.1178 106.918 29.0314C107.179 28.8586 107.266 28.5994 107.092 28.3402C106.918 28.081 106.657 27.9946 106.397 28.1674C106.136 28.3402 106.049 28.5994 106.136 28.8586C106.223 29.0314 106.397 29.1178 106.657 29.1178Z" fill="white"/>
<path d="M120.392 87.7849C120.652 87.7849 120.913 87.5257 120.913 87.2665C120.913 87.0073 120.652 86.7481 120.392 86.7481C120.131 86.7481 119.87 87.0073 119.87 87.2665C119.87 87.6121 120.131 87.7849 120.392 87.7849Z" fill="white"/>
<path d="M103.093 31.2775C103.18 31.2775 103.267 31.2775 103.354 31.1911C103.615 31.0183 103.615 30.6727 103.528 30.4999C103.354 30.2407 103.006 30.2407 102.832 30.4135C102.572 30.5863 102.572 30.9319 102.745 31.1047C102.745 31.1911 102.919 31.2775 103.093 31.2775Z" fill="white"/>
<path d="M104.397 83.2059C104.484 83.2923 104.571 83.2923 104.658 83.2923C104.832 83.2923 105.006 83.2059 105.093 83.0331C105.267 82.7739 105.18 82.5147 104.919 82.3419C104.658 82.1691 104.397 82.2555 104.224 82.5147C104.137 82.7739 104.224 83.0331 104.397 83.2059Z" fill="white"/>
<path d="M103.007 82.1689C103.181 82.1689 103.354 82.0825 103.441 81.9097C103.615 81.6505 103.528 81.3913 103.354 81.2185C103.094 81.0457 102.833 81.1321 102.659 81.3049C102.485 81.5641 102.572 81.8233 102.746 81.9961C102.746 82.0825 102.833 82.1689 103.007 82.1689Z" fill="white"/>
<path d="M138.037 82.7737C138.124 82.7737 138.211 82.7737 138.298 82.6873C138.559 82.5145 138.646 82.1689 138.472 81.9961C138.298 81.7369 138.037 81.7369 137.777 81.8233C137.516 81.9961 137.429 82.2553 137.603 82.5145C137.69 82.6873 137.863 82.7737 138.037 82.7737Z" fill="white"/>
<path d="M142.905 78.8857C142.992 78.8857 143.166 78.7993 143.253 78.7129C143.426 78.5401 143.426 78.1944 143.253 78.0216C143.079 77.8488 142.731 77.8488 142.557 78.0216C142.383 78.1944 142.383 78.5401 142.557 78.7129C142.644 78.8857 142.731 78.8857 142.905 78.8857Z" fill="white"/>
<path d="M136.125 29.636C136.212 29.7224 136.299 29.7224 136.386 29.7224C136.56 29.7224 136.734 29.636 136.821 29.4632C136.994 29.204 136.907 28.8584 136.647 28.772C136.386 28.5992 136.125 28.6856 135.951 28.9448C135.777 29.204 135.864 29.5496 136.125 29.636Z" fill="white"/>
<path d="M136.299 83.8105C136.386 83.8105 136.473 83.8105 136.56 83.7241C136.821 83.5513 136.907 83.2921 136.734 83.0328C136.56 82.7736 136.299 82.6872 136.038 82.86C135.777 83.0329 135.691 83.292 135.864 83.5513C135.951 83.7241 136.125 83.8105 136.299 83.8105Z" fill="white"/>
<path d="M134.473 84.7609C134.56 84.7609 134.647 84.7609 134.734 84.6745C134.995 84.5881 135.082 84.2425 134.995 83.9833C134.908 83.724 134.56 83.6377 134.299 83.7241C134.038 83.8105 133.952 84.1561 134.038 84.4153C134.038 84.6745 134.212 84.7609 134.473 84.7609Z" fill="white"/>
<path d="M134.299 28.6857C134.386 28.6857 134.473 28.7721 134.56 28.7721C134.734 28.7721 134.908 28.6857 134.995 28.5129C135.082 28.2537 134.995 27.9945 134.734 27.8216C134.473 27.7352 134.125 27.8216 134.038 28.0809C133.952 28.2537 134.038 28.5993 134.299 28.6857Z" fill="white"/>
<path d="M139.775 81.5642C139.862 81.5642 139.949 81.5642 140.123 81.4778C140.384 81.305 140.384 80.9593 140.21 80.7865C140.036 80.5273 139.688 80.5273 139.514 80.7001C139.254 80.873 139.254 81.2186 139.428 81.3914C139.428 81.5642 139.601 81.5642 139.775 81.5642Z" fill="white"/>
<path d="M141.428 33.2652C141.601 33.2652 141.688 33.1788 141.862 33.0924C142.036 32.9196 142.036 32.5739 141.775 32.4011C141.601 32.2283 141.254 32.2283 141.08 32.4875C140.906 32.6603 140.906 33.006 141.167 33.1788C141.167 33.2652 141.341 33.2652 141.428 33.2652Z" fill="white"/>
<path d="M137.864 30.673C137.95 30.7594 138.037 30.7595 138.124 30.7595C138.298 30.7595 138.472 30.673 138.559 30.5002C138.733 30.241 138.646 29.9818 138.385 29.809C138.124 29.6362 137.777 29.7226 137.69 29.9818C137.603 30.241 137.603 30.5866 137.864 30.673Z" fill="white"/>
<path d="M141.341 80.3545C141.428 80.3545 141.601 80.3545 141.688 80.1817C141.862 80.0089 141.949 79.6633 141.775 79.4905C141.601 79.3177 141.254 79.2313 141.08 79.4041C140.906 79.5769 140.819 79.9225 140.993 80.0953C141.08 80.2681 141.167 80.3545 141.341 80.3545Z" fill="white"/>
<path d="M139.863 31.9689C140.036 31.9689 140.21 31.8825 140.297 31.7961C140.471 31.5369 140.384 31.2777 140.21 31.1049C139.95 30.9321 139.689 31.0185 139.515 31.1913C139.341 31.4505 139.428 31.7097 139.602 31.8825C139.602 31.9689 139.776 31.9689 139.863 31.9689Z" fill="white"/>
<path d="M132.474 27.9082C132.561 27.9082 132.561 27.9082 132.648 27.9082C132.821 27.9082 133.082 27.8218 133.169 27.5626C133.256 27.3033 133.169 27.0441 132.908 26.8713C132.648 26.7849 132.3 26.8713 132.213 27.1305C132.126 27.4761 132.213 27.8218 132.474 27.9082Z" fill="white"/>
<path d="M130.562 27.217C130.649 27.217 130.649 27.217 130.736 27.217C130.909 27.217 131.17 27.0442 131.257 26.8714C131.344 26.6122 131.17 26.2666 130.909 26.2666C130.649 26.1802 130.301 26.353 130.301 26.6122C130.127 26.785 130.301 27.1306 130.562 27.217Z" fill="white"/>
<path d="M124.651 25.9207C124.999 25.9207 125.172 25.7479 125.259 25.4887C125.259 25.2295 125.086 24.9703 124.825 24.8839C124.564 24.8839 124.303 25.0567 124.216 25.3159C124.129 25.5751 124.303 25.8343 124.651 25.9207Z" fill="white"/>
<path d="M124.564 87.6121C124.911 87.6121 125.085 87.3529 125.085 87.0073C125.085 86.7481 124.825 86.4889 124.477 86.5753C124.216 86.5753 123.955 86.8345 124.042 87.1801C124.042 87.4393 124.303 87.6121 124.564 87.6121Z" fill="white"/>
<path d="M126.563 87.3531H126.65C126.911 87.2667 127.085 87.0075 127.085 86.7483C126.998 86.4891 126.737 86.3163 126.476 86.3163C126.216 86.4027 126.042 86.6619 126.042 86.9211C126.129 87.1803 126.389 87.3531 126.563 87.3531Z" fill="white"/>
<path d="M122.478 87.7849C122.826 87.7849 122.999 87.5257 122.999 87.2665C122.999 87.0073 122.739 86.7481 122.478 86.7481C122.217 86.7481 121.956 87.0073 121.956 87.2665C121.956 87.5257 122.217 87.7849 122.478 87.7849Z" fill="white"/>
<path d="M122.564 25.748C122.825 25.748 123.086 25.5752 123.086 25.2296C123.086 24.9704 122.912 24.7112 122.564 24.7112C122.303 24.7112 122.042 24.884 122.042 25.2296C122.042 25.4888 122.303 25.748 122.564 25.748Z" fill="white"/>
<path d="M130.562 86.3162C130.649 86.3162 130.649 86.3162 130.736 86.3162C130.996 86.2298 131.17 85.9706 131.083 85.7113C130.996 85.4521 130.736 85.2793 130.475 85.3657C130.214 85.4521 130.04 85.7113 130.127 85.9706C130.214 86.1434 130.388 86.3162 130.562 86.3162Z" fill="white"/>
<path d="M126.65 26.1801H126.737C126.998 26.1801 127.171 26.0073 127.258 25.748C127.345 25.4888 127.171 25.2296 126.824 25.1432C126.563 25.0568 126.302 25.316 126.215 25.5752C126.128 25.9209 126.302 26.1801 126.65 26.1801Z" fill="white"/>
<path d="M132.561 85.625C132.648 85.625 132.735 85.625 132.735 85.625C132.995 85.5386 133.169 85.193 132.995 84.9337C132.908 84.6745 132.561 84.5017 132.3 84.6745C132.039 84.7609 131.865 85.1066 132.039 85.3658C132.126 85.5386 132.3 85.625 132.561 85.625Z" fill="white"/>
<path d="M120.565 25.6614C120.826 25.6614 121.087 25.4022 121.087 25.143C121.087 24.8838 120.826 24.6246 120.565 24.6246C120.304 24.6246 120.044 24.8838 120.044 25.143C120.044 25.4886 120.218 25.6614 120.565 25.6614Z" fill="white"/>
<path d="M128.649 86.9208H128.736C128.997 86.8344 129.171 86.5752 129.084 86.316C128.997 86.0568 128.736 85.8839 128.476 85.9704C128.215 86.0568 128.041 86.316 128.128 86.5752C128.215 86.748 128.389 86.9208 128.649 86.9208Z" fill="white"/>
<path d="M128.65 26.6119H128.736C128.997 26.6119 129.171 26.4391 129.258 26.1799C129.345 25.9207 129.171 25.6615 128.91 25.5751C128.65 25.4887 128.389 25.6615 128.302 25.9207C128.128 26.2663 128.302 26.6119 128.65 26.6119Z" fill="white"/>
<path d="M114.828 14.0837H127.084L130.909 4.83865L126.389 8.81316L121 2.67859L115.523 8.81316L111.003 4.83865L114.828 14.0837Z" fill="#BF930F"/>
<path d="M121 2.07366C121.576 2.07366 122.043 1.60946 122.043 1.03683C122.043 0.464209 121.576 0 121 0C120.424 0 119.957 0.464209 119.957 1.03683C119.957 1.60946 120.424 2.07366 121 2.07366Z" fill="#BF930F"/>
<path d="M110.743 4.66581C111.079 4.66581 111.351 4.39503 111.351 4.061C111.351 3.72697 111.079 3.45618 110.743 3.45618C110.407 3.45618 110.134 3.72697 110.134 4.061C110.134 4.39503 110.407 4.66581 110.743 4.66581Z" fill="#BF930F"/>
<path d="M131.17 4.66581C131.507 4.66581 131.779 4.39503 131.779 4.061C131.779 3.72697 131.507 3.45618 131.17 3.45618C130.834 3.45618 130.562 3.72697 130.562 4.061C130.562 4.39503 130.834 4.66581 131.17 4.66581Z" fill="#BF930F"/>
<path d="M123.521 19.6997C123.809 19.6997 124.043 19.4676 124.043 19.1813C124.043 18.895 123.809 18.6629 123.521 18.6629C123.233 18.6629 123 18.895 123 19.1813C123 19.4676 123.233 19.6997 123.521 19.6997Z" fill="#BF930F"/>
<path d="M121 19.6997C121.288 19.6997 121.521 19.4676 121.521 19.1813C121.521 18.895 121.288 18.6629 121 18.6629C120.712 18.6629 120.478 18.895 120.478 19.1813C120.478 19.4676 120.712 19.6997 121 19.6997Z" fill="#BF930F"/>
<path d="M118.479 19.6997C118.767 19.6997 119 19.4676 119 19.1813C119 18.895 118.767 18.6629 118.479 18.6629C118.191 18.6629 117.957 18.895 117.957 19.1813C117.957 19.4676 118.191 19.6997 118.479 19.6997Z" fill="#BF930F"/>
<path d="M101.528 18.4038C102.249 18.4038 102.832 17.8236 102.832 17.1078C102.832 16.392 102.249 15.8118 101.528 15.8118C100.808 15.8118 100.225 16.392 100.225 17.1078C100.225 17.8236 100.808 18.4038 101.528 18.4038Z" fill="#BF930F"/>
<path d="M140.384 18.4038C141.105 18.4038 141.688 17.8236 141.688 17.1078C141.688 16.392 141.105 15.8118 140.384 15.8118C139.664 15.8118 139.081 16.392 139.081 17.1078C139.081 17.8236 139.664 18.4038 140.384 18.4038Z" fill="#BF930F"/>
<path d="M128.563 92.8826C131.953 92.1914 135.082 91.0682 138.037 89.513H232.612V88.7353H176.284C177.501 87.9577 178.284 86.5753 178.284 85.02C178.284 81.9959 175.85 79.5767 172.807 79.5767C172.721 79.5767 172.547 79.5767 172.46 79.5767C171.504 75.6885 168.809 72.4916 165.158 70.9364C166.462 68.6899 166.027 65.7522 163.941 64.0242C162.29 62.6418 160.029 62.1233 157.943 62.6417C158.291 60.5681 158.552 58.408 158.552 56.1616C158.552 45.0156 153.597 34.5609 144.991 27.4759C145.426 26.7847 145.687 25.9207 145.687 25.0566C145.687 21.9461 143.079 19.3541 139.95 19.3541C138.994 19.3541 138.124 19.5269 137.342 19.8725C138.385 17.626 137.603 14.9475 135.43 13.6515C134.039 12.8739 132.474 12.6147 130.91 13.0467C129.432 13.3923 128.215 14.3427 127.346 15.6388L126.998 14.6883H114.654L114.307 15.6388C113.524 14.3427 112.221 13.4787 110.743 13.0467C109.178 12.6147 107.614 12.8739 106.223 13.6515C104.05 14.9475 103.267 17.626 104.31 19.8725C103.528 19.5269 102.659 19.3541 101.703 19.3541C98.4864 19.3541 95.9655 21.9461 95.9655 25.0566C95.9655 25.9207 96.2263 26.7847 96.6609 27.4759C88.0553 34.6473 83.1006 45.0156 83.1006 56.1616C83.1006 58.408 83.2744 60.5681 83.7091 62.6417C81.6228 62.1233 79.4497 62.6418 77.7112 64.0242C75.625 65.7522 75.1904 68.6899 76.4943 70.9364C72.7565 72.4916 70.0618 75.6885 69.1925 79.5767C69.1056 79.5767 68.9317 79.5767 68.8448 79.5767C65.8024 79.5767 63.3685 81.9959 63.3685 85.02C63.3685 86.5753 64.1509 87.8713 65.3678 88.7353H9.04023V89.513H103.876C106.831 91.0682 110.047 92.1914 113.351 92.8826H0V93.6603H242V92.8826H128.563ZM139.515 88.7353C144.296 86.0568 148.381 82.3415 151.511 78.0214C153.51 75.0837 156.9 73.3557 160.464 73.3557C165.245 73.3557 169.07 77.2438 169.07 81.9095C169.07 85.6248 166.027 88.7353 162.203 88.7353C159.247 88.7353 156.813 86.316 156.813 83.3784C156.813 81.0455 158.726 79.1446 161.073 79.1446C162.898 79.1446 164.376 80.6135 164.376 82.4279C164.376 83.8104 163.246 85.02 161.768 85.02C161.594 85.02 161.42 85.1928 161.42 85.3656C161.42 85.5384 161.594 85.7112 161.768 85.7112C163.593 85.7112 165.158 84.2424 165.158 82.3415C165.158 80.0951 163.333 78.2806 161.073 78.2806C158.291 78.2806 156.031 80.5271 156.031 83.292C156.031 85.6248 157.335 87.6121 159.247 88.6489H139.515V88.7353ZM177.588 85.1064C177.588 87.0937 175.937 88.8217 173.851 88.8217C172.286 88.8217 170.982 87.5257 170.982 85.9704C170.982 84.7608 171.938 83.724 173.242 83.724C174.198 83.724 174.981 84.5016 174.981 85.452C174.981 86.1433 174.372 86.7481 173.677 86.7481C173.503 86.7481 173.329 86.9209 173.329 87.0937C173.329 87.2665 173.503 87.4393 173.677 87.4393C174.807 87.4393 175.763 86.4889 175.763 85.3656C175.763 83.9832 174.633 82.86 173.242 82.86C171.591 82.86 170.2 84.2424 170.2 85.884C170.2 87.0937 170.808 88.0441 171.591 88.7353H165.506C168.027 87.5257 169.765 84.9336 169.765 81.9095C169.765 81.6503 169.765 81.3911 169.765 81.1319C170.634 80.6135 171.677 80.3543 172.807 80.3543C175.502 80.3543 177.588 82.5143 177.588 85.1064ZM171.764 79.7495C171.069 79.8359 170.374 80.0951 169.765 80.4407C169.157 76.8982 166.549 73.9605 163.072 73.0101C163.68 72.7508 164.202 72.3188 164.637 71.8004C164.637 71.714 164.723 71.714 164.723 71.6276C168.287 73.0965 170.808 76.0341 171.764 79.7495ZM163.506 64.7154C165.506 66.3571 165.767 69.3812 164.115 71.3684C162.811 72.9237 160.464 73.0965 158.899 71.8004C158.291 71.282 157.943 70.5908 157.856 69.8132C157.769 69.0355 158.03 68.3443 158.552 67.7395C158.899 67.3075 159.508 67.0483 160.116 66.9619C160.725 66.8755 161.246 67.1347 161.768 67.4803C162.116 67.7395 162.376 68.1715 162.376 68.6035C162.376 69.0355 162.29 69.4676 161.942 69.8132C161.681 70.0724 161.42 70.2452 161.073 70.2452C160.725 70.2452 160.377 70.1588 160.116 69.986C159.943 69.8132 159.682 69.8996 159.595 70.0724C159.421 70.2452 159.508 70.5044 159.595 70.5908C160.029 70.9364 160.551 71.1092 161.073 71.1092C161.594 71.0228 162.116 70.7636 162.463 70.418C162.898 69.8996 163.072 69.2948 163.072 68.6035C162.985 67.9123 162.724 67.3075 162.203 66.9619C161.594 66.4435 160.812 66.1842 160.029 66.2707C159.247 66.3571 158.465 66.7027 157.943 67.3075C157.335 68.0851 156.987 68.9491 157.074 69.986C157.161 70.9364 157.596 71.8004 158.378 72.4916C158.552 72.6645 158.726 72.7509 158.899 72.9237C156.987 73.1829 155.162 73.9605 153.597 75.0837C155.596 71.6276 157.074 67.8259 157.856 63.765C159.856 62.9874 161.942 63.333 163.506 64.7154ZM144.991 25.0566C144.991 27.2167 143.253 28.9447 141.08 28.9447C140.645 28.9447 140.124 28.8583 139.689 28.5991H139.602C139.428 28.5127 139.341 28.4263 139.254 28.3399C139.167 28.2535 139.167 28.2535 139.167 28.2535C138.472 27.6487 138.037 26.7847 138.037 25.9207C138.037 24.6246 139.08 23.5878 140.384 23.5878C141.341 23.5878 142.21 24.3654 142.21 25.4022C142.21 25.5751 142.384 25.7479 142.557 25.7479C142.731 25.7479 142.905 25.5751 142.905 25.4022C142.905 24.0198 141.775 22.8102 140.297 22.8102C138.559 22.8102 137.168 24.1926 137.168 25.9207C137.168 26.4391 137.255 26.8711 137.429 27.3031C136.212 26.6119 134.995 26.0071 133.691 25.4886C134.126 22.4646 136.733 20.1317 139.95 20.1317C142.818 20.1317 144.991 22.3781 144.991 25.0566ZM121 23.6742C139.08 23.6742 153.684 38.2762 153.684 56.1616C153.684 74.1333 138.994 88.6489 121 88.6489C102.92 88.6489 88.3161 74.0469 88.3161 56.1616C88.2292 38.2762 102.92 23.6742 121 23.6742ZM126.389 18.8356C126.302 18.7492 126.216 18.6628 126.042 18.6628C125.781 18.6628 125.52 18.922 125.52 19.1813C125.52 19.4405 125.781 19.6997 126.042 19.6997C126.129 19.6997 126.302 19.6133 126.389 19.6133C126.389 20.0453 126.476 20.4773 126.563 20.9957H115.524C115.611 20.5637 115.698 20.1317 115.698 19.6133C115.785 19.6997 115.871 19.6997 116.045 19.6997C116.306 19.6997 116.567 19.4405 116.567 19.1813C116.567 18.922 116.306 18.6628 116.045 18.6628C115.871 18.6628 115.785 18.7492 115.698 18.8356C115.698 18.4036 115.524 17.8852 115.437 17.4532H126.737C126.476 17.9716 126.389 18.4036 126.389 18.8356ZM115.263 21.6869H126.65C126.824 22.3782 127.172 22.983 127.519 23.5878C125.346 23.1558 123.173 22.8966 120.913 22.8966C118.653 22.8966 116.48 23.1558 114.307 23.5878C114.741 22.983 115.089 22.3782 115.263 21.6869ZM131.17 13.8243C132.474 13.4787 133.865 13.6515 135.082 14.3427C136.994 15.4659 137.69 17.9716 136.56 19.8725C136.125 20.5637 135.43 21.0821 134.647 21.3413C133.865 21.5141 132.996 21.4277 132.213 20.9957C131.605 20.6501 131.257 20.1317 131.083 19.5269C130.909 18.9221 130.996 18.2308 131.344 17.626C131.605 17.194 132.04 16.8484 132.474 16.762C132.996 16.6756 133.43 16.6756 133.865 16.9348C134.213 17.1076 134.386 17.4532 134.56 17.7988C134.647 18.1444 134.56 18.5764 134.387 18.9221C134.3 19.0949 134.3 19.3541 134.56 19.4405C134.734 19.5269 134.995 19.5269 135.082 19.2677C135.343 18.7492 135.43 18.1444 135.343 17.626C135.169 17.0212 134.821 16.5892 134.3 16.2436C133.691 15.898 132.996 15.8116 132.3 15.9844C131.605 16.1572 130.996 16.5892 130.649 17.194C130.214 17.9716 130.04 18.8356 130.301 19.6133C130.475 20.4773 131.083 21.1685 131.779 21.6005C132.561 22.0325 133.43 22.2053 134.387 22.1189C133.691 22.983 133.256 24.0198 133.083 25.143C131.692 24.6246 130.301 24.1926 128.823 23.847C126.911 21.7733 126.563 18.5764 128.041 16.1572C128.736 14.9475 129.866 14.1699 131.17 13.8243ZM127.172 16.0708C127.085 16.33 126.911 16.5028 126.824 16.762H115.002C114.915 16.5028 114.828 16.33 114.654 16.0708H127.172ZM106.831 14.3427C108.048 13.6515 109.439 13.4787 110.743 13.8243C112.047 14.1699 113.264 15.0339 113.959 16.2436C115.437 18.6628 115.089 21.8597 113.177 23.9334C111.699 24.279 110.308 24.711 108.917 25.2294C108.744 24.1062 108.222 23.0694 107.614 22.2053C108.483 22.2917 109.352 22.2053 110.221 21.6869C111.004 21.2549 111.525 20.5637 111.699 19.6997C111.96 18.8356 111.786 17.9716 111.351 17.2804C111.004 16.6756 110.395 16.2436 109.7 16.0708C109.004 15.898 108.309 15.9844 107.7 16.33C107.179 16.5892 106.831 17.1076 106.657 17.7124C106.483 18.3172 106.57 18.9221 106.918 19.3541C107.005 19.5269 107.266 19.6133 107.44 19.5269C107.614 19.4405 107.7 19.1813 107.614 19.0085C107.44 18.6628 107.353 18.3172 107.44 17.8852C107.527 17.5396 107.787 17.194 108.135 17.0212C108.57 16.762 109.091 16.6756 109.526 16.8484C110.047 16.9348 110.395 17.2804 110.656 17.7124C111.004 18.3172 111.091 18.922 110.917 19.6133C110.743 20.2181 110.308 20.7365 109.787 21.0821C108.309 21.9461 106.31 21.5141 105.44 19.9589C104.223 17.9716 104.919 15.4659 106.831 14.3427ZM101.876 20.1317C105.006 20.1317 107.614 22.3781 108.135 25.4886C106.831 26.0071 105.614 26.6119 104.397 27.3031C104.571 26.8711 104.658 26.3527 104.658 25.9207C104.658 24.1926 103.267 22.8102 101.529 22.8102C100.138 22.8102 98.921 23.9334 98.921 25.4022C98.921 25.5751 99.0948 25.7479 99.2687 25.7479C99.4425 25.7479 99.6164 25.5751 99.6164 25.4022C99.6164 24.4518 100.399 23.5878 101.442 23.5878C102.746 23.5878 103.789 24.6246 103.789 25.9207C103.789 26.7847 103.354 27.6487 102.746 28.2535C102.659 28.2535 102.659 28.3399 102.659 28.3399C102.572 28.4263 102.398 28.5127 102.224 28.5991H102.137C101.703 28.7719 101.268 28.9447 100.746 28.9447C98.5733 28.9447 96.8348 27.2167 96.8348 25.0566C96.9217 22.3781 99.1818 20.1317 101.876 20.1317ZM78.4066 64.7154C79.9713 63.4194 82.0575 62.9874 84.0567 63.5922C84.8391 67.6531 86.3168 71.4548 88.3161 74.9109C86.7514 73.7877 84.926 73.0101 83.0136 72.7508C83.1875 72.6644 83.3614 72.4916 83.5352 72.3188C84.3175 71.714 84.7522 70.85 84.8391 69.8132C84.926 68.8627 84.6652 67.9123 83.9698 67.1347C83.4483 66.5299 82.7529 66.1842 81.8836 66.0978C81.1013 66.0114 80.319 66.2707 79.7105 66.7891C79.1889 67.2211 78.9282 67.8259 78.8412 68.4307C78.7543 69.1219 79.0151 69.7268 79.4497 70.2452C79.7974 70.6772 80.319 70.9364 80.8405 70.9364C81.3621 71.0228 81.8836 70.85 82.3183 70.418C82.4921 70.2452 82.4921 70.0724 82.4052 69.8996C82.2313 69.7268 82.0575 69.7268 81.8836 69.8996C81.6228 70.1588 81.2752 70.2452 80.9275 70.1588C80.5798 70.1588 80.232 69.986 80.0582 69.7268C79.7974 69.3811 79.6236 68.9491 79.6236 68.5171C79.6236 68.0851 79.8843 67.6531 80.232 67.3939C80.6667 67.0483 81.2751 66.8755 81.8836 66.8755C82.4921 66.9619 83.0136 67.2211 83.4483 67.6531C83.9698 68.2579 84.1437 68.9491 84.1437 69.7268C84.0568 70.5044 83.7091 71.1956 83.1006 71.714C81.5359 73.0101 79.1889 72.8372 77.8851 71.282C76.2335 69.2947 76.4943 66.3571 78.4066 64.7154ZM77.1897 71.6276C77.1897 71.714 77.2766 71.714 77.2766 71.8004C77.7112 72.3188 78.2328 72.6644 78.8412 73.0101C75.3642 73.9605 72.7565 76.8982 72.148 80.4407C71.5395 80.0951 70.8441 79.9223 70.1487 79.7495C71.1049 76.0341 73.6257 73.0965 77.1897 71.6276ZM70.2356 88.7353C71.1049 88.0441 71.6264 87.0073 71.6264 85.884C71.6264 84.2424 70.2356 82.86 68.5841 82.86C67.1932 82.86 66.0632 83.9832 66.0632 85.3656C66.0632 86.4889 67.0194 87.4393 68.1494 87.4393C68.3233 87.4393 68.4971 87.2665 68.4971 87.0937C68.4971 86.9209 68.3233 86.7481 68.1494 86.7481C67.454 86.7481 66.8455 86.1433 66.8455 85.452C66.8455 84.5016 67.6279 83.724 68.5841 83.724C69.801 83.724 70.8441 84.6744 70.8441 85.9704C70.8441 87.5257 69.5402 88.8217 67.9756 88.8217C65.9763 88.8217 64.2378 87.1801 64.2378 85.1064C64.2378 82.5143 66.324 80.4407 68.9318 80.4407C69.9749 80.4407 71.018 80.6999 71.9741 81.2183C71.9741 81.4775 71.9741 81.7367 71.9741 81.9959C71.9741 85.02 73.7126 87.5257 76.2335 88.8217H70.2356V88.7353ZM82.666 88.7353C84.5783 87.6985 85.8822 85.7112 85.8822 83.3784C85.8822 80.6135 83.6221 78.367 80.8405 78.367C78.5805 78.367 76.755 80.1815 76.755 82.4279C76.755 84.2424 78.2328 85.7976 80.1451 85.7976C80.319 85.7976 80.4928 85.6248 80.4928 85.452C80.4928 85.2792 80.319 85.1064 80.1451 85.1064C78.7543 85.1064 77.5374 83.9832 77.5374 82.5143C77.5374 80.6999 79.0151 79.231 80.8405 79.231C83.1875 79.231 85.0999 81.1319 85.0999 83.4648C85.0999 86.4025 82.666 88.8217 79.7105 88.8217C75.9727 88.8217 72.8434 85.7976 72.8434 81.9959C72.8434 77.2438 76.755 73.4421 81.449 73.4421C85.0129 73.4421 88.3161 75.1701 90.4023 78.1078C93.5316 82.5143 97.704 86.1432 102.398 88.8217H82.666V88.7353ZM84.1437 56.248C84.1437 45.3612 88.9246 35.1657 97.3563 28.1671C98.2256 29.1176 99.3556 29.7224 100.746 29.7224C92.6624 35.7706 87.4469 45.4476 87.4469 56.248C87.4469 74.5653 102.485 89.513 120.913 89.513C139.341 89.513 154.379 74.5653 154.379 56.248C154.379 45.4476 149.164 35.857 141.08 29.7224C142.471 29.7224 143.601 29.1176 144.47 28.1671C152.902 35.1657 157.682 45.3612 157.682 56.248C157.682 76.4662 141.167 92.8826 120.826 92.8826C100.486 92.8826 84.1437 76.4662 84.1437 56.248Z" fill="#BF930F"/>
<path d="M185.151 86.3163C185.871 86.3163 186.455 85.736 186.455 85.0202C186.455 84.3044 185.871 83.7242 185.151 83.7242C184.431 83.7242 183.847 84.3044 183.847 85.0202C183.847 85.736 184.431 86.3163 185.151 86.3163Z" fill="#BF930F"/>
<path d="M181.065 86.3163C181.785 86.3163 182.369 85.736 182.369 85.0202C182.369 84.3044 181.785 83.7242 181.065 83.7242C180.345 83.7242 179.761 84.3044 179.761 85.0202C179.761 85.736 180.345 86.3163 181.065 86.3163Z" fill="#BF930F"/>
<path d="M218.095 86.4026L222.615 85.0202L218.095 83.6378V84.6746H187.845V85.4522H218.095V86.4026Z" fill="#BF930F"/>
<path d="M56.849 86.3163C57.5692 86.3163 58.1529 85.736 58.1529 85.0202C58.1529 84.3044 57.5692 83.7242 56.849 83.7242C56.1289 83.7242 55.5452 84.3044 55.5452 85.0202C55.5452 85.736 56.1289 86.3163 56.849 86.3163Z" fill="#BF930F"/>
<path d="M60.8476 86.3163C61.5677 86.3163 62.1515 85.736 62.1515 85.0202C62.1515 84.3044 61.5677 83.7242 60.8476 83.7242C60.1275 83.7242 59.5437 84.3044 59.5437 85.0202C59.5437 85.736 60.1275 86.3163 60.8476 86.3163Z" fill="#BF930F"/>
<path d="M23.8175 85.4522H54.0675V84.6746H23.8175V83.6378L19.2974 85.0202L23.8175 86.4026V85.4522Z" fill="#BF930F"/>
<path d="M110.377 68.5535V67.3135L115.137 66.7935H116.417L121.137 67.3135V68.5535H110.377ZM113.657 68.5535C113.71 67.3535 113.737 66.0601 113.737 64.6735C113.764 63.2601 113.777 61.8201 113.777 60.3535C113.777 58.8868 113.777 57.4601 113.777 56.0735V54.2735C113.777 52.8868 113.777 51.4735 113.777 50.0335C113.777 48.5935 113.764 47.1801 113.737 45.7935C113.737 44.3801 113.71 43.0735 113.657 41.8735H117.897C117.87 43.1001 117.844 44.4068 117.817 45.7935C117.79 47.1535 117.764 48.5668 117.737 50.0335C117.737 51.4735 117.737 52.9268 117.737 54.3935V55.8735C117.737 57.3135 117.737 58.7801 117.737 60.2735C117.764 61.7668 117.79 63.2201 117.817 64.6335C117.844 66.0201 117.87 67.3268 117.897 68.5535H113.657ZM130.737 68.9535C129.43 68.9535 128.444 68.7401 127.777 68.3135C127.11 67.8868 126.617 67.1401 126.297 66.0735L124.297 60.0735C123.977 59.0335 123.617 58.2335 123.217 57.6735C122.817 57.1135 122.297 56.7268 121.657 56.5135C121.044 56.3001 120.244 56.1935 119.257 56.1935H115.657V54.7535H120.417C121.777 54.7535 122.897 54.4868 123.777 53.9535C124.657 53.4201 125.297 52.7135 125.697 51.8335C126.124 50.9268 126.337 49.9268 126.337 48.8335C126.337 47.0735 125.884 45.7268 124.977 44.7935C124.097 43.8335 122.697 43.3535 120.777 43.3535H115.617V41.8735H121.137C124.044 41.8735 126.31 42.4735 127.937 43.6735C129.564 44.8468 130.377 46.5268 130.377 48.7135C130.377 49.8601 130.057 50.9668 129.417 52.0335C128.777 53.0735 127.777 53.9401 126.417 54.6335C125.084 55.3001 123.364 55.6735 121.257 55.7535V55.4735C122.324 55.5001 123.244 55.6201 124.017 55.8335C124.817 56.0201 125.497 56.3268 126.057 56.7535C126.617 57.1801 127.097 57.7268 127.497 58.3935C127.924 59.0335 128.31 59.8335 128.657 60.7935L131.177 67.6735L129.457 66.8335L133.857 67.3135V68.5535C133.564 68.6335 133.244 68.7001 132.897 68.7535C132.577 68.8068 132.244 68.8468 131.897 68.8735C131.55 68.9268 131.164 68.9535 130.737 68.9535ZM110.377 43.1135V41.8735H116.177V43.6335H115.137L110.377 43.1135Z" fill="white"/>
</svg>
