<svg width="64" height="40" viewBox="0 0 64 40" fill="none" xmlns="http://www.w3.org/2000/svg">
<path d="M45.0814 23.21C45.0814 23.3206 45.1919 23.4311 45.3025 23.4311C45.413 23.4311 45.5236 23.3206 45.5236 23.21C45.5236 23.0995 45.413 22.9889 45.3025 23.0258C45.1551 22.9889 45.0445 23.0995 45.0814 23.21Z" fill="white"/>
<path d="M45.3031 23.8008C45.1926 23.8008 45.082 23.9113 45.082 24.0219C45.082 24.1324 45.1926 24.243 45.3031 24.243C45.4137 24.243 45.5242 24.1324 45.5242 24.0219C45.5242 23.9113 45.4137 23.8008 45.3031 23.8008Z" fill="white"/>
<path d="M44.9707 22.3613C44.9707 22.4718 45.0812 22.5455 45.1918 22.5455C45.1918 22.5455 45.1918 22.5455 45.2287 22.5455C45.3392 22.5455 45.4498 22.435 45.4129 22.2876C45.4129 22.177 45.3024 22.0664 45.155 22.1033C45.0444 22.1033 44.9707 22.2138 44.9707 22.3613Z" fill="white"/>
<path d="M44.861 21.4757C44.8978 21.5862 44.9715 21.6599 45.0821 21.6599H45.1189C45.2295 21.6231 45.3032 21.5125 45.3032 21.402C45.2663 21.2914 45.1558 21.2177 45.0452 21.2177C44.8978 21.2546 44.8241 21.3651 44.861 21.4757Z" fill="white"/>
<path d="M44.6406 20.6639C44.6775 20.7745 44.7512 20.8113 44.8617 20.8113C44.8617 20.8113 44.8986 20.8113 44.9354 20.8113C45.046 20.7745 45.1197 20.6639 45.0828 20.5533C45.046 20.4428 44.9354 20.3691 44.8249 20.4059C44.6775 20.4059 44.6406 20.5533 44.6406 20.6639Z" fill="white"/>
<path d="M44.3809 28.9299C44.2703 28.893 44.1229 28.9299 44.0861 29.0404C44.0492 29.151 44.0861 29.2984 44.1966 29.3352C44.2335 29.3352 44.2703 29.3352 44.2703 29.3352C44.344 29.3352 44.4546 29.2984 44.4914 29.1878C44.5283 29.1141 44.4914 29.0036 44.3809 28.9299Z" fill="white"/>
<path d="M44.6765 28.1181C44.5659 28.0813 44.4185 28.155 44.3817 28.2655C44.3448 28.3761 44.4185 28.5235 44.5291 28.5603C44.5659 28.5603 44.5659 28.5603 44.6028 28.5603C44.6765 28.5603 44.787 28.4866 44.8239 28.4129C44.8239 28.3024 44.787 28.155 44.6765 28.1181Z" fill="white"/>
<path d="M45.229 25.5352C45.1185 25.5352 45.0079 25.6089 44.9711 25.7194C44.9342 25.83 45.0448 25.9405 45.1553 25.9774H45.1922C45.3027 25.9774 45.3764 25.9037 45.4133 25.7931C45.4133 25.6826 45.3396 25.572 45.229 25.5352Z" fill="white"/>
<path d="M44.8984 27.2694C44.7879 27.2326 44.6773 27.3063 44.6404 27.4168C44.6036 27.5274 44.6773 27.6379 44.7879 27.6748C44.8247 27.6748 44.8247 27.6748 44.8615 27.6748C44.9721 27.6748 45.0458 27.6011 45.0827 27.5274C45.0827 27.4168 45.009 27.3063 44.8984 27.2694Z" fill="white"/>
<path d="M45.0808 26.4206C44.9703 26.3838 44.8597 26.4575 44.8229 26.6049C44.786 26.7154 44.8597 26.826 45.0071 26.8629H45.044C45.1545 26.8629 45.2282 26.7891 45.2651 26.6786C45.3019 26.568 45.2282 26.4575 45.0808 26.4206Z" fill="white"/>
<path d="M45.3031 24.6863C45.1926 24.6863 45.082 24.76 45.082 24.8705C45.082 24.9811 45.1557 25.0916 45.3031 25.0916C45.4137 25.0916 45.5242 25.0179 45.5242 24.8705C45.5242 24.7968 45.4137 24.6863 45.3031 24.6863Z" fill="white"/>
<path d="M44.4195 19.8151C44.4564 19.8888 44.5301 19.9626 44.6406 19.9626C44.6775 19.9626 44.6775 19.9626 44.7143 19.9626C44.8249 19.9257 44.8986 19.8152 44.8617 19.7046C44.8249 19.594 44.6775 19.5203 44.5669 19.5572C44.4195 19.594 44.3827 19.7046 44.4195 19.8151Z" fill="white"/>
<path d="M42.5025 32.398C42.5762 32.398 42.613 32.3612 42.6867 32.3243C42.7604 32.2138 42.7604 32.1032 42.6499 32.0295C42.5393 31.9558 42.4288 31.9558 42.3551 32.0664C42.2814 32.1769 42.2814 32.2875 42.3919 32.3612C42.4288 32.398 42.4656 32.398 42.5025 32.398Z" fill="white"/>
<path d="M43.0185 31.6969C43.0922 31.6969 43.1659 31.66 43.2027 31.5863C43.2764 31.4758 43.2396 31.3652 43.1291 31.2915C43.0185 31.2178 42.9079 31.2547 42.8342 31.3652C42.7605 31.4758 42.7974 31.5863 42.9079 31.66C42.9448 31.66 42.9816 31.6969 43.0185 31.6969Z" fill="white"/>
<path d="M41.95 33.0623C42.0237 33.0623 42.0606 33.0254 42.1343 32.9886C42.208 32.9149 42.208 32.7675 42.1343 32.6938C42.0606 32.6201 41.9132 32.6201 41.8395 32.6938C41.7658 32.7675 41.7658 32.9149 41.8395 32.9886C41.8395 33.0623 41.9132 33.0623 41.95 33.0623Z" fill="white"/>
<path d="M41.8374 15.387C41.8742 15.4238 41.9479 15.4607 41.9848 15.4607C42.0216 15.4607 42.0953 15.4607 42.1322 15.4238C42.2059 15.3501 42.2427 15.2027 42.1322 15.129C42.0584 15.0553 41.9111 15.0185 41.8374 15.129C41.7636 15.129 41.7268 15.2764 41.8374 15.387Z" fill="white"/>
<path d="M42.5386 16.1249C42.5755 16.1249 42.6123 16.1249 42.686 16.088C42.7966 16.0143 42.7966 15.8669 42.7229 15.7932C42.6492 15.6827 42.5018 15.6827 42.4281 15.7564C42.3175 15.8301 42.3175 15.9775 42.3912 16.0512C42.4281 16.088 42.4649 16.1249 42.5386 16.1249Z" fill="white"/>
<path d="M44.0862 19.0032C44.1231 19.0769 44.1968 19.1506 44.2705 19.1506C44.3073 19.1506 44.3442 19.1506 44.3442 19.1506C44.4547 19.1138 44.5284 18.9663 44.4547 18.8558C44.4179 18.7452 44.2705 18.6715 44.1599 18.7452C44.1231 18.7821 44.0494 18.8926 44.0862 19.0032Z" fill="white"/>
<path d="M43.7543 18.2284C43.7911 18.3021 43.8648 18.339 43.9385 18.339C43.9754 18.339 44.0122 18.339 44.0491 18.3021C44.1596 18.2653 44.1965 18.1179 44.1596 18.0073C44.1228 17.8968 43.9754 17.8599 43.8648 17.8968C43.7543 18.0073 43.6806 18.1179 43.7543 18.2284Z" fill="white"/>
<path d="M43.5351 17.601C43.5719 17.601 43.6088 17.601 43.6457 17.5641C43.7562 17.4904 43.793 17.3799 43.7193 17.2693C43.6456 17.1588 43.5351 17.1219 43.4245 17.1956C43.314 17.2693 43.2771 17.3799 43.3508 17.4904C43.3877 17.5273 43.4614 17.601 43.5351 17.601Z" fill="white"/>
<path d="M43.0559 16.8258C43.0928 16.8258 43.1296 16.8258 43.1664 16.789C43.277 16.7153 43.277 16.5679 43.2402 16.4942C43.1665 16.3836 43.0559 16.3836 42.9454 16.4205C42.8348 16.4942 42.8348 16.6047 42.8716 16.7153C42.9085 16.789 42.9822 16.8258 43.0559 16.8258Z" fill="white"/>
<path d="M43.3865 30.922C43.4233 30.9588 43.4602 30.9588 43.497 30.9588C43.5707 30.9588 43.6444 30.922 43.6813 30.8483C43.755 30.7377 43.7181 30.5903 43.6076 30.5535C43.497 30.4798 43.3496 30.5166 43.3128 30.6272C43.2391 30.7009 43.2759 30.8483 43.3865 30.922Z" fill="white"/>
<path d="M20.5392 17.4908C20.4286 17.4171 20.2812 17.4908 20.2444 17.5645C20.1707 17.675 20.2444 17.7856 20.3181 17.8593C20.3549 17.8593 20.3918 17.8961 20.4286 17.8961C20.5023 17.8961 20.5761 17.8593 20.6129 17.7856C20.6866 17.675 20.6129 17.5276 20.5392 17.4908Z" fill="white"/>
<path d="M18.807 23.7633C18.9176 23.7633 19.0281 23.6896 19.0281 23.5422C19.0281 23.4316 18.9176 23.321 18.807 23.321C18.6965 23.321 18.5859 23.3947 18.5859 23.5422C18.5859 23.6527 18.6965 23.7633 18.807 23.7633Z" fill="white"/>
<path d="M18.8455 22.9147C18.8823 22.9147 18.8823 22.9147 18.8455 22.9147C18.9929 22.9147 19.0666 22.841 19.1034 22.7304C19.1034 22.6199 19.0297 22.5093 18.9192 22.4725C18.8086 22.4725 18.6981 22.5462 18.6981 22.6567C18.6612 22.7673 18.7349 22.8778 18.8455 22.9147Z" fill="white"/>
<path d="M18.807 24.649C18.9176 24.649 19.0281 24.5384 19.0281 24.4279C19.0281 24.3173 18.9176 24.2068 18.807 24.2068C18.6965 24.2068 18.5859 24.3173 18.5859 24.4279C18.5859 24.5753 18.6965 24.649 18.807 24.649Z" fill="white"/>
<path d="M19.0275 26.3831C19.138 26.3831 19.2117 26.2357 19.2117 26.1252C19.2117 26.0146 19.0643 25.9409 18.9538 25.9409C18.8432 25.9409 18.7695 26.0883 18.7695 26.1989C18.7695 26.3094 18.8801 26.3831 19.0275 26.3831C18.9906 26.3831 18.9906 26.3831 19.0275 26.3831Z" fill="white"/>
<path d="M18.8807 25.5345C18.9912 25.5345 19.1018 25.424 19.0649 25.3134C19.0649 25.2029 18.9544 25.0923 18.8438 25.1292C18.7333 25.1292 18.6227 25.2397 18.6596 25.3871C18.6596 25.424 18.7701 25.5345 18.8807 25.5345Z" fill="white"/>
<path d="M22.3072 32.9889C22.2335 33.0626 22.2335 33.21 22.3072 33.2837C22.3441 33.3205 22.4178 33.3574 22.4546 33.3574C22.4915 33.3574 22.5652 33.3205 22.602 33.2837C22.6757 33.21 22.6757 33.0626 22.602 32.9889C22.5283 32.9152 22.3809 32.9152 22.3072 32.9889Z" fill="white"/>
<path d="M19.6168 19.4828C19.6536 19.4828 19.6536 19.4828 19.6905 19.4828C19.7642 19.4828 19.8747 19.446 19.9116 19.3354C19.9484 19.2249 19.9116 19.0775 19.801 19.0406C19.6905 19.0038 19.5799 19.0406 19.5062 19.1512C19.4325 19.2986 19.5062 19.446 19.6168 19.4828Z" fill="white"/>
<path d="M19.9488 18.6711C19.9857 18.6711 20.0225 18.6711 20.0594 18.6711C20.1331 18.6711 20.2068 18.6342 20.2436 18.5605C20.2805 18.45 20.2436 18.3394 20.1331 18.2657C20.0225 18.2289 19.912 18.2657 19.8383 18.3763C19.7646 18.4868 19.8383 18.5974 19.9488 18.6711Z" fill="white"/>
<path d="M18.9538 22.029C19.1012 22.029 19.1749 21.9553 19.2117 21.8447C19.2486 21.7342 19.138 21.6236 19.0275 21.5868C18.9169 21.5499 18.8064 21.6605 18.7695 21.771C18.7695 21.8816 18.8432 21.9921 18.9538 22.029Z" fill="white"/>
<path d="M19.1013 21.1802H19.1382C19.2487 21.1802 19.3224 21.1065 19.3593 20.9959C19.3961 20.8854 19.3224 20.7748 19.2119 20.738C19.1013 20.7011 18.9908 20.7748 18.9539 20.8854C18.9171 20.9959 18.9908 21.1433 19.1013 21.1802Z" fill="white"/>
<path d="M19.3238 20.2946C19.3607 20.2946 19.3607 20.2946 19.3975 20.2946C19.4712 20.2946 19.5818 20.2209 19.6186 20.1472C19.6555 20.0367 19.5818 19.8893 19.4712 19.8893C19.3607 19.8524 19.2133 19.9261 19.2133 20.0367C19.1396 20.1472 19.2133 20.2578 19.3238 20.2946Z" fill="white"/>
<path d="M19.3593 26.9739C19.3224 26.8633 19.2119 26.7896 19.1013 26.7896C18.9908 26.8265 18.9171 26.937 18.9539 27.0476C18.9908 27.1581 19.0645 27.2318 19.175 27.2318H19.2119C19.3224 27.2318 19.3961 27.1213 19.3593 26.9739Z" fill="white"/>
<path d="M21.1652 16.0515C21.0915 16.1621 21.1283 16.2726 21.202 16.3463C21.2389 16.3832 21.2757 16.3832 21.3126 16.3832C21.3863 16.3832 21.46 16.3463 21.4968 16.3095C21.5705 16.1989 21.5337 16.0884 21.46 16.0147C21.3863 15.941 21.2389 15.9778 21.1652 16.0515Z" fill="white"/>
<path d="M21.2015 31.6237C21.0909 31.6974 21.0909 31.8448 21.1646 31.9185C21.2015 31.9922 21.2752 31.9922 21.3489 31.9922C21.3858 31.9922 21.4226 31.9922 21.4594 31.9553C21.57 31.8816 21.57 31.7342 21.4963 31.6605C21.4226 31.5868 21.312 31.55 21.2015 31.6237Z" fill="white"/>
<path d="M21.7181 32.3246C21.6075 32.3983 21.6075 32.5457 21.6812 32.6194C21.7181 32.6563 21.7918 32.6931 21.8655 32.6931C21.9024 32.6931 21.976 32.6931 22.0129 32.6563C22.0866 32.5826 22.1235 32.4352 22.0498 32.3615C21.9392 32.2509 21.8287 32.2509 21.7181 32.3246Z" fill="white"/>
<path d="M21.7193 15.3504C21.6456 15.4241 21.6456 15.5715 21.7562 15.6452C21.793 15.6821 21.8299 15.6821 21.9036 15.6821C21.9773 15.6821 22.0141 15.6452 22.0878 15.6084C22.1615 15.5347 22.1615 15.3873 22.051 15.3135C21.9404 15.2398 21.8299 15.2767 21.7193 15.3504Z" fill="white"/>
<path d="M19.5819 27.8227C19.5451 27.7121 19.4345 27.6384 19.324 27.6753C19.2134 27.7121 19.1397 27.8227 19.1766 27.9332C19.2134 28.0069 19.2871 28.0807 19.3977 28.0807C19.4345 28.0807 19.4345 28.0807 19.4714 28.0807C19.5819 28.0807 19.6188 27.9333 19.5819 27.8227Z" fill="white"/>
<path d="M20.9816 16.7158C20.871 16.6421 20.7605 16.679 20.6868 16.7895C20.6131 16.9001 20.6499 17.0475 20.7605 17.0843C20.7973 17.1212 20.8342 17.1212 20.871 17.1212C20.9447 17.1212 21.0184 17.0843 21.0553 17.0106C21.129 16.9369 21.0921 16.7895 20.9816 16.7158Z" fill="white"/>
<path d="M19.8755 28.6345C19.8386 28.524 19.6912 28.4503 19.5806 28.524C19.4701 28.5608 19.3964 28.7082 19.4701 28.8188C19.5069 28.8925 19.5807 28.9662 19.6912 28.9662C19.7281 28.9662 19.7281 28.9662 19.7649 28.9662C19.8755 28.8925 19.9123 28.7451 19.8755 28.6345Z" fill="white"/>
<path d="M20.2073 29.4464C20.1704 29.3358 20.023 29.299 19.9125 29.3358C19.8019 29.3727 19.7651 29.5201 19.8019 29.6306C19.8388 29.7043 19.9125 29.7412 19.9862 29.7412C20.023 29.7412 20.0599 29.7412 20.0599 29.7412C20.2073 29.6675 20.2441 29.5569 20.2073 29.4464Z" fill="white"/>
<path d="M41.397 14.7965C41.4707 14.7965 41.5076 14.7596 41.5444 14.7228C41.6181 14.6491 41.6181 14.5017 41.5444 14.428C41.4707 14.3543 41.3233 14.3543 41.2496 14.428C41.1759 14.5017 41.1759 14.6491 41.2496 14.7228C41.2865 14.7965 41.3233 14.7965 41.397 14.7965Z" fill="white"/>
<path d="M20.281 30.1108C20.1704 30.1845 20.1336 30.295 20.2073 30.4056C20.2441 30.4793 20.3178 30.5161 20.3915 30.5161C20.4284 30.5161 20.4652 30.5161 20.5021 30.4793C20.6126 30.4056 20.6495 30.295 20.5758 30.1845C20.5389 30.1108 20.3915 30.0739 20.281 30.1108Z" fill="white"/>
<path d="M20.7243 30.8856C20.6138 30.9593 20.5769 31.0699 20.6506 31.1804C20.6875 31.2541 20.7612 31.291 20.8349 31.291C20.8718 31.291 20.9086 31.291 20.9455 31.2541C21.056 31.1804 21.0929 31.0699 21.0192 30.9593C20.9455 30.8488 20.8349 30.8119 20.7243 30.8856Z" fill="white"/>
<path d="M44.0127 29.7416C43.9022 29.6679 43.7548 29.7416 43.7179 29.8521C43.6811 29.9627 43.7179 30.1101 43.8285 30.1469C43.8653 30.1469 43.9022 30.1838 43.939 30.1838C44.0127 30.1838 44.0864 30.1469 44.1233 30.0732C44.1601 29.9258 44.1233 29.8153 44.0127 29.7416Z" fill="white"/>
<path d="M28.314 36.9737C28.314 36.9737 28.3509 36.9737 28.3877 36.9737C28.4983 36.9737 28.572 36.9 28.6089 36.8263C28.6457 36.7157 28.572 36.6052 28.4614 36.5683C28.3509 36.5315 28.2403 36.6052 28.2035 36.7157C28.1298 36.8263 28.2035 36.9368 28.314 36.9737Z" fill="white"/>
<path d="M26.6201 36.3463C26.6569 36.3463 26.6938 36.3831 26.6938 36.3831C26.7675 36.3831 26.8412 36.3463 26.878 36.2357C26.9149 36.1252 26.878 35.9778 26.7675 35.9409C26.6569 35.9041 26.5095 35.9409 26.4727 36.0515C26.4727 36.1989 26.5095 36.3094 26.6201 36.3463Z" fill="white"/>
<path d="M29.1628 37.195H29.1996C29.3102 37.195 29.3839 37.1213 29.4207 37.0108C29.4576 36.9002 29.3839 36.7896 29.2365 36.7528C29.1259 36.7159 29.0154 36.7896 28.9785 36.9371C28.9785 37.0476 29.0522 37.1582 29.1628 37.195Z" fill="white"/>
<path d="M28.4253 11.4755C28.4253 11.4755 28.4621 11.4755 28.499 11.4755C28.6095 11.4386 28.6832 11.3281 28.6464 11.2175C28.6095 11.107 28.499 11.0333 28.3884 11.0701C28.2779 11.107 28.2042 11.2175 28.241 11.3281C28.241 11.4018 28.3147 11.4755 28.4253 11.4755Z" fill="white"/>
<path d="M27.4675 36.7153C27.5044 36.7153 27.5044 36.7153 27.5412 36.7153C27.6149 36.7153 27.7255 36.6416 27.7255 36.5679C27.7623 36.4573 27.7255 36.3468 27.6149 36.2731C27.5044 36.2362 27.3938 36.2731 27.3201 36.4205C27.2833 36.531 27.357 36.6416 27.4675 36.7153Z" fill="white"/>
<path d="M26.7662 12.0658C26.803 12.0658 26.8399 12.0658 26.8399 12.0658C26.9504 12.029 26.9873 11.8816 26.9504 11.771C26.9136 11.6605 26.7662 11.6236 26.6556 11.6605C26.5451 11.6973 26.5082 11.8447 26.5451 11.9553C26.6188 12.029 26.6925 12.0658 26.7662 12.0658Z" fill="white"/>
<path d="M27.5774 11.7337C27.6142 11.7337 27.6142 11.7337 27.6511 11.7337C27.7616 11.6968 27.8353 11.5494 27.7985 11.4388C27.7616 11.3283 27.6142 11.2546 27.5037 11.2914C27.3931 11.3283 27.3194 11.4757 27.3563 11.5863C27.43 11.6968 27.5037 11.7337 27.5774 11.7337Z" fill="white"/>
<path d="M29.2719 11.254H29.3087C29.4193 11.2172 29.493 11.1066 29.493 10.9961C29.4561 10.8855 29.3456 10.8118 29.235 10.8118C29.1245 10.8487 29.0508 10.9592 29.0508 11.0698C29.0876 11.1803 29.1613 11.254 29.2719 11.254Z" fill="white"/>
<path d="M31.005 10.9958C31.1524 10.9958 31.2261 10.8852 31.2261 10.7747C31.2261 10.6641 31.1155 10.5536 31.005 10.5904C30.8944 10.5904 30.7839 10.701 30.8207 10.8115C30.7839 10.9221 30.8944 10.9958 31.005 10.9958Z" fill="white"/>
<path d="M30.9307 37.4533C31.0781 37.4533 31.1518 37.3796 31.1518 37.2691C31.1518 37.1585 31.0781 37.048 30.9676 37.048C30.857 37.048 30.7465 37.1217 30.7465 37.2322C30.7096 37.3428 30.8202 37.4533 30.9307 37.4533Z" fill="white"/>
<path d="M30.0466 37.3426C30.194 37.3426 30.2677 37.2689 30.3045 37.1583C30.3045 37.0478 30.2308 36.9372 30.1203 36.9004C30.0097 36.9004 29.8992 36.9741 29.8623 37.0846C29.8623 37.232 29.936 37.3426 30.0466 37.3426Z" fill="white"/>
<path d="M30.1205 11.1065C30.1574 11.1065 30.1574 11.1065 30.1205 11.1065C30.2679 11.0696 30.3416 10.9591 30.3416 10.8485C30.3416 10.738 30.1942 10.6274 30.0837 10.6643C29.9731 10.6643 29.8994 10.8117 29.8994 10.9222C29.9363 11.0328 30.01 11.1065 30.1205 11.1065Z" fill="white"/>
<path d="M25.8452 35.9773C25.882 35.9773 25.9189 36.0141 25.9557 36.0141C26.0294 36.0141 26.1031 35.9773 26.14 35.9036C26.1768 35.793 26.14 35.6456 26.0663 35.6088C25.9557 35.5719 25.8083 35.6088 25.7715 35.7193C25.6609 35.793 25.7346 35.9036 25.8452 35.9773Z" fill="white"/>
<path d="M23.7456 34.5751C23.8193 34.5751 23.8562 34.5382 23.9299 34.5014C24.0036 34.4277 24.0036 34.2803 23.893 34.2066C23.7825 34.1329 23.6719 34.1329 23.5982 34.2434C23.5245 34.354 23.5245 34.4645 23.6351 34.5382C23.6351 34.5382 23.6719 34.5751 23.7456 34.5751Z" fill="white"/>
<path d="M23.1176 14.4644C23.1544 14.4644 23.2281 14.4276 23.265 14.3907C23.3387 14.317 23.3755 14.1696 23.265 14.0959C23.1913 14.0222 23.0439 13.9853 22.9702 14.0959C22.8965 14.1696 22.8596 14.317 22.9702 14.3907C23.007 14.4276 23.0439 14.4644 23.1176 14.4644Z" fill="white"/>
<path d="M23.7813 13.874C23.8182 13.874 23.8919 13.874 23.9287 13.8371C24.0393 13.7634 24.0393 13.616 23.9656 13.5423C23.8919 13.4318 23.7445 13.4318 23.6708 13.5055C23.5971 13.5792 23.5602 13.7266 23.6339 13.8003C23.6339 13.8371 23.7076 13.874 23.7813 13.874Z" fill="white"/>
<path d="M23.0816 33.9847C23.1553 33.9847 23.1921 33.9478 23.229 33.911C23.3027 33.8373 23.3027 33.6899 23.229 33.6162C23.1553 33.5425 23.0079 33.5425 22.9342 33.6162C22.8605 33.6899 22.8605 33.8373 22.9342 33.911C22.971 33.9478 23.0079 33.9847 23.0816 33.9847Z" fill="white"/>
<path d="M22.4917 15.0548C22.5654 15.0548 22.6023 15.018 22.6391 14.9811C22.7128 14.9074 22.7128 14.76 22.6391 14.6863C22.5654 14.6126 22.418 14.6126 22.3443 14.6863C22.2706 14.76 22.2706 14.9074 22.3443 14.9811C22.3812 15.0548 22.418 15.0548 22.4917 15.0548Z" fill="white"/>
<path d="M25.2197 12.8778C25.2565 12.8778 25.2934 12.8778 25.3302 12.8409C25.4408 12.7672 25.4776 12.6567 25.4039 12.5461C25.3302 12.4356 25.2197 12.3987 25.1091 12.4724C24.9986 12.5461 24.9617 12.6567 25.0354 12.7672C25.0723 12.8409 25.146 12.8778 25.2197 12.8778Z" fill="white"/>
<path d="M25.9937 12.4349C26.0306 12.4349 26.0674 12.4349 26.1043 12.3981C26.2148 12.3244 26.2517 12.2138 26.178 12.1033C26.1043 11.9927 25.9937 11.9559 25.8832 12.0296C25.7726 12.1033 25.7358 12.2138 25.7726 12.3244C25.8095 12.3981 25.8832 12.4349 25.9937 12.4349Z" fill="white"/>
<path d="M31.8149 37.4902C31.9254 37.4902 32.036 37.3796 32.036 37.2691C32.036 37.1585 31.9254 37.048 31.8149 37.048C31.7043 37.048 31.5938 37.1585 31.5938 37.2691C31.5938 37.4165 31.7043 37.4902 31.8149 37.4902Z" fill="white"/>
<path d="M24.482 13.3572C24.5188 13.3572 24.5557 13.3573 24.5925 13.3204C24.7031 13.2467 24.7031 13.0993 24.6662 13.0256C24.5925 12.915 24.4451 12.915 24.3714 12.9887C24.2609 13.0624 24.2609 13.2098 24.3346 13.2835C24.3346 13.3204 24.4083 13.3572 24.482 13.3572Z" fill="white"/>
<path d="M25.0354 35.5345C25.0723 35.5714 25.1091 35.5714 25.146 35.5714C25.2197 35.5714 25.2934 35.5345 25.3302 35.4608C25.4039 35.3503 25.3671 35.2397 25.2565 35.166C25.146 35.0923 25.0354 35.1292 24.9617 35.2397C24.9249 35.3503 24.9617 35.4608 25.0354 35.5345Z" fill="white"/>
<path d="M24.4454 35.0916C24.5191 35.0916 24.5928 35.0548 24.6296 34.9811C24.7033 34.8705 24.6665 34.76 24.5928 34.6863C24.4822 34.6126 24.3717 34.6494 24.298 34.7231C24.2243 34.8337 24.2611 34.9442 24.3348 35.0179C24.3348 35.0548 24.3717 35.0916 24.4454 35.0916Z" fill="white"/>
<path d="M39.2968 35.35C39.3337 35.35 39.3705 35.35 39.4074 35.3132C39.5179 35.2394 39.5548 35.0921 39.4811 35.0184C39.4074 34.9078 39.2968 34.9078 39.1863 34.9446C39.0757 35.0183 39.0389 35.1289 39.1126 35.2395C39.1494 35.3132 39.2231 35.35 39.2968 35.35Z" fill="white"/>
<path d="M41.3609 33.6895C41.3977 33.6895 41.4714 33.6527 41.5083 33.6158C41.582 33.5421 41.582 33.3947 41.5083 33.321C41.4346 33.2473 41.2872 33.2473 41.2135 33.321C41.1398 33.3947 41.1398 33.5421 41.2135 33.6158C41.2503 33.6895 41.2872 33.6895 41.3609 33.6895Z" fill="white"/>
<path d="M38.4851 12.6563C38.5219 12.6932 38.5588 12.6932 38.5956 12.6932C38.6693 12.6932 38.743 12.6563 38.7799 12.5826C38.8536 12.472 38.8168 12.3246 38.7062 12.2878C38.5956 12.2141 38.4851 12.2509 38.4114 12.3615C38.3377 12.472 38.3745 12.6194 38.4851 12.6563Z" fill="white"/>
<path d="M38.5605 35.7928C38.5973 35.7928 38.6342 35.7928 38.671 35.756C38.7816 35.6823 38.8184 35.5717 38.7447 35.4612C38.671 35.3506 38.5605 35.3138 38.4499 35.3875C38.3394 35.4612 38.3025 35.5717 38.3762 35.6823C38.4131 35.756 38.4868 35.7928 38.5605 35.7928Z" fill="white"/>
<path d="M37.785 36.1987C37.8218 36.1987 37.8587 36.1987 37.8955 36.1618C38.0061 36.125 38.0429 35.9776 38.0061 35.867C37.9692 35.7565 37.8218 35.7196 37.7113 35.7565C37.6007 35.7933 37.5639 35.9407 37.6007 36.0513C37.6007 36.1618 37.6744 36.1987 37.785 36.1987Z" fill="white"/>
<path d="M37.7113 12.2504C37.7481 12.2504 37.785 12.2872 37.8218 12.2872C37.8955 12.2872 37.9692 12.2504 38.0061 12.1767C38.0429 12.0661 38.0061 11.9556 37.8955 11.8819C37.785 11.845 37.6376 11.8819 37.6007 11.9924C37.5639 12.0661 37.6007 12.2135 37.7113 12.2504Z" fill="white"/>
<path d="M40.0327 34.8334C40.0696 34.8334 40.1065 34.8334 40.1802 34.7966C40.2907 34.7229 40.2907 34.5755 40.217 34.5018C40.1433 34.3912 39.9959 34.3912 39.9222 34.4649C39.8116 34.5386 39.8116 34.686 39.8853 34.7597C39.8853 34.8334 39.959 34.8334 40.0327 34.8334Z" fill="white"/>
<path d="M40.7339 14.2061C40.8076 14.2061 40.8445 14.1693 40.9182 14.1324C40.9919 14.0587 40.9919 13.9113 40.8813 13.8376C40.8076 13.7639 40.6602 13.7639 40.5865 13.8745C40.5128 13.9482 40.5128 14.0956 40.6234 14.1693C40.6234 14.2061 40.6971 14.2061 40.7339 14.2061Z" fill="white"/>
<path d="M39.2237 13.0992C39.2605 13.136 39.2974 13.136 39.3342 13.136C39.4079 13.136 39.4816 13.0992 39.5185 13.0255C39.5922 12.9149 39.5553 12.8044 39.4448 12.7307C39.3342 12.657 39.1868 12.6938 39.15 12.8044C39.1131 12.9149 39.1131 13.0623 39.2237 13.0992Z" fill="white"/>
<path d="M40.6954 34.3167C40.7322 34.3167 40.8059 34.3167 40.8428 34.243C40.9165 34.1693 40.9533 34.0219 40.8796 33.9482C40.8059 33.8745 40.6585 33.8377 40.5848 33.9114C40.5111 33.9851 40.4743 34.1325 40.548 34.2062C40.5848 34.2799 40.6217 34.3167 40.6954 34.3167Z" fill="white"/>
<path d="M40.0704 13.6526C40.1441 13.6526 40.2178 13.6158 40.2546 13.5789C40.3283 13.4684 40.2915 13.3578 40.2178 13.2841C40.1072 13.2104 39.9967 13.2473 39.923 13.321C39.8493 13.4315 39.8861 13.5421 39.9598 13.6158C39.9598 13.6526 40.0335 13.6526 40.0704 13.6526Z" fill="white"/>
<path d="M36.9378 11.9183C36.9747 11.9183 36.9747 11.9183 37.0115 11.9183C37.0852 11.9183 37.1958 11.8815 37.2327 11.7709C37.2695 11.6604 37.2326 11.5498 37.1221 11.4761C37.0115 11.4392 36.8641 11.4761 36.8273 11.5867C36.7904 11.7341 36.8273 11.8815 36.9378 11.9183Z" fill="white"/>
<path d="M36.1266 11.6231C36.1634 11.6231 36.1634 11.6231 36.2002 11.6231C36.2739 11.6231 36.3845 11.5494 36.4214 11.4757C36.4582 11.3652 36.3845 11.2178 36.274 11.2178C36.1634 11.1809 36.016 11.2546 36.016 11.3652C35.9423 11.4389 36.016 11.5863 36.1266 11.6231Z" fill="white"/>
<path d="M33.6204 11.0695C33.7678 11.0695 33.8415 10.9958 33.8784 10.8853C33.8784 10.7747 33.8047 10.6642 33.6941 10.6273C33.5836 10.6273 33.473 10.701 33.4361 10.8116C33.3993 10.9221 33.473 11.0327 33.6204 11.0695Z" fill="white"/>
<path d="M33.5848 37.4164C33.7322 37.4164 33.8059 37.3058 33.8059 37.1584C33.8059 37.0478 33.6953 36.9373 33.5479 36.9741C33.4374 36.9741 33.3268 37.0847 33.3637 37.2321C33.3637 37.3427 33.4742 37.4164 33.5848 37.4164Z" fill="white"/>
<path d="M34.432 37.3057H34.4689C34.5794 37.2689 34.6531 37.1583 34.6531 37.0478C34.6163 36.9372 34.5057 36.8635 34.3952 36.8635C34.2846 36.9004 34.2109 37.0109 34.2109 37.1215C34.2478 37.232 34.3583 37.3057 34.432 37.3057Z" fill="white"/>
<path d="M32.6996 37.4902C32.847 37.4902 32.9207 37.3796 32.9207 37.2691C32.9207 37.1585 32.8102 37.048 32.6996 37.048C32.5891 37.048 32.4785 37.1585 32.4785 37.2691C32.4785 37.3796 32.5891 37.4902 32.6996 37.4902Z" fill="white"/>
<path d="M32.7367 10.9958C32.8473 10.9958 32.9578 10.9221 32.9578 10.7747C32.9578 10.6641 32.8841 10.5536 32.7367 10.5536C32.6262 10.5536 32.5156 10.6273 32.5156 10.7747C32.5156 10.8852 32.6262 10.9958 32.7367 10.9958Z" fill="white"/>
<path d="M36.1274 36.8628C36.1643 36.8628 36.1643 36.8628 36.2011 36.8628C36.3117 36.826 36.3854 36.7154 36.3485 36.6049C36.3117 36.4943 36.2011 36.4206 36.0906 36.4575C35.98 36.4943 35.9063 36.6049 35.9432 36.7154C35.98 36.7891 36.0537 36.8628 36.1274 36.8628Z" fill="white"/>
<path d="M34.4681 11.1803H34.5049C34.6155 11.1803 34.6892 11.1066 34.726 10.996C34.7629 10.8855 34.6892 10.7749 34.5418 10.7381C34.4312 10.7012 34.3207 10.8118 34.2838 10.9223C34.247 11.0697 34.3207 11.1803 34.4681 11.1803Z" fill="white"/>
<path d="M36.9754 36.5677C37.0122 36.5677 37.0491 36.5677 37.0491 36.5677C37.1596 36.5309 37.2333 36.3835 37.1596 36.2729C37.1228 36.1624 36.9754 36.0887 36.8648 36.1624C36.7543 36.1992 36.6806 36.3466 36.7543 36.4572C36.7911 36.5309 36.8648 36.5677 36.9754 36.5677Z" fill="white"/>
<path d="M31.8891 10.9587C31.9996 10.9587 32.1102 10.8481 32.1102 10.7376C32.1102 10.627 31.9996 10.5165 31.8891 10.5165C31.7785 10.5165 31.668 10.627 31.668 10.7376C31.668 10.885 31.7417 10.9587 31.8891 10.9587Z" fill="white"/>
<path d="M35.3166 37.1212H35.3535C35.464 37.0843 35.5377 36.9738 35.5009 36.8632C35.464 36.7527 35.3535 36.679 35.2429 36.7158C35.1324 36.7527 35.0587 36.8632 35.0955 36.9738C35.1324 37.0475 35.2061 37.1212 35.3166 37.1212Z" fill="white"/>
<path d="M35.316 11.3646H35.3528C35.4634 11.3646 35.5371 11.2909 35.5739 11.1804C35.6108 11.0698 35.5371 10.9593 35.4265 10.9224C35.316 10.8856 35.2054 10.9593 35.1686 11.0698C35.0949 11.2172 35.1686 11.3646 35.316 11.3646Z" fill="white"/>
<path d="M29.4574 6.01477H34.6533L36.2747 2.06643L34.3585 3.76384L32.0737 1.14392L29.7522 3.76384L27.8359 2.06643L29.4574 6.01477Z" fill="#BF930F"/>
<path d="M32.0721 0.884413C32.3163 0.884413 32.5143 0.686432 32.5143 0.442208C32.5143 0.197984 32.3163 0 32.0721 0C31.8279 0 31.6299 0.197984 31.6299 0.442208C31.6299 0.686432 31.8279 0.884413 32.0721 0.884413Z" fill="#BF930F"/>
<path d="M27.7257 1.99186C27.8682 1.99186 27.9837 1.87637 27.9837 1.73391C27.9837 1.59144 27.8682 1.47595 27.7257 1.47595C27.5833 1.47595 27.4678 1.59144 27.4678 1.73391C27.4678 1.87637 27.5833 1.99186 27.7257 1.99186Z" fill="#BF930F"/>
<path d="M36.3849 1.99186C36.5274 1.99186 36.6429 1.87637 36.6429 1.73391C36.6429 1.59144 36.5274 1.47595 36.3849 1.47595C36.2424 1.47595 36.127 1.59144 36.127 1.73391C36.127 1.87637 36.2424 1.99186 36.3849 1.99186Z" fill="#BF930F"/>
<path d="M33.141 8.41266C33.2631 8.41266 33.3621 8.31367 33.3621 8.19156C33.3621 8.06945 33.2631 7.97046 33.141 7.97046C33.0189 7.97046 32.9199 8.06945 32.9199 8.19156C32.9199 8.31367 33.0189 8.41266 33.141 8.41266Z" fill="#BF930F"/>
<path d="M32.0746 8.41266C32.1967 8.41266 32.2957 8.31367 32.2957 8.19156C32.2957 8.06945 32.1967 7.97046 32.0746 7.97046C31.9525 7.97046 31.8535 8.06945 31.8535 8.19156C31.8535 8.31367 31.9525 8.41266 32.0746 8.41266Z" fill="#BF930F"/>
<path d="M31.0043 8.41266C31.1264 8.41266 31.2254 8.31367 31.2254 8.19156C31.2254 8.06945 31.1264 7.97046 31.0043 7.97046C30.8822 7.97046 30.7832 8.06945 30.7832 8.19156C30.7832 8.31367 30.8822 8.41266 31.0043 8.41266Z" fill="#BF930F"/>
<path d="M23.8203 7.85988C24.1256 7.85988 24.3731 7.61207 24.3731 7.30637C24.3731 7.00068 24.1256 6.75287 23.8203 6.75287C23.5151 6.75287 23.2676 7.00068 23.2676 7.30637C23.2676 7.61207 23.5151 7.85988 23.8203 7.85988Z" fill="#BF930F"/>
<path d="M40.292 7.85988C40.5973 7.85988 40.8448 7.61207 40.8448 7.30637C40.8448 7.00068 40.5973 6.75287 40.292 6.75287C39.9867 6.75287 39.7393 7.00068 39.7393 7.30637C39.7393 7.61207 39.9867 7.85988 40.292 7.85988Z" fill="#BF930F"/>
<path d="M35.2789 39.6679C36.7161 39.3727 38.0427 38.893 39.2956 38.2288H63.2485V37.8967H55.5099C56.0258 37.5646 56.3574 36.9742 56.3574 36.31C56.3574 35.0185 55.3256 33.9853 54.0359 33.9853C53.999 33.9853 53.9253 33.9853 53.8885 33.9853C53.4831 32.3247 52.3407 30.9594 50.793 30.2952C51.3458 29.3358 51.1615 28.0812 50.2771 27.3432C49.5769 26.7528 48.6188 26.5314 47.7344 26.7528C47.8818 25.8672 47.9924 24.9447 47.9924 23.9853C47.9924 19.2251 45.8919 14.7602 42.2437 11.7343C42.4279 11.4391 42.5385 11.0701 42.5385 10.7011C42.5385 9.37271 41.433 8.2657 40.1064 8.2657C39.701 8.2657 39.3325 8.3395 39.0008 8.4871C39.4431 7.52769 39.1114 6.38378 38.1901 5.83028C37.6005 5.49817 36.9372 5.38747 36.2739 5.57197C35.6474 5.71958 35.1315 6.12548 34.763 6.67899L34.6156 6.27308H29.3829L29.2355 6.67899C28.9038 6.12548 28.351 5.75648 27.7246 5.57197C27.0613 5.38747 26.398 5.49817 25.8084 5.83028C24.8871 6.38378 24.5554 7.52769 24.9976 8.4871C24.666 8.3395 24.2975 8.2657 23.8921 8.2657C22.5287 8.2657 21.46 9.37271 21.46 10.7011C21.46 11.0701 21.5705 11.4391 21.7548 11.7343C18.1066 14.7971 16.0061 19.2251 16.0061 23.9853C16.0061 24.9447 16.0798 25.8672 16.2641 26.7528C15.3797 26.5314 14.4584 26.7528 13.7214 27.3432C12.837 28.0812 12.6527 29.3358 13.2055 30.2952C11.6209 30.9594 10.4785 32.3247 10.11 33.9853C10.0732 33.9853 9.99948 33.9853 9.96263 33.9853C8.67286 33.9853 7.64104 35.0185 7.64104 36.31C7.64104 36.9742 7.9727 37.5277 8.48861 37.8967H0.75V38.2288H24.8134C26.0663 38.893 27.4298 39.3727 28.8301 39.6679H1.96146V40H62.1844V39.6679H35.2789ZM39.9221 37.8967C41.9489 36.7528 43.6809 35.1661 45.0075 33.3211C45.855 32.0664 47.2922 31.3284 48.8031 31.3284C50.8299 31.3284 52.4513 32.989 52.4513 34.9816C52.4513 36.5683 51.1615 37.8967 49.5401 37.8967C48.2872 37.8967 47.2554 36.8635 47.2554 35.6089C47.2554 34.6126 48.0661 33.8008 49.061 33.8008C49.8349 33.8008 50.4614 34.4281 50.4614 35.203C50.4614 35.7934 49.9823 36.31 49.3558 36.31C49.2821 36.31 49.2084 36.3838 49.2084 36.4576C49.2084 36.5314 49.2821 36.6052 49.3558 36.6052C50.1297 36.6052 50.793 35.9779 50.793 35.1661C50.793 34.2067 50.0191 33.4318 49.061 33.4318C47.8818 33.4318 46.9237 34.3912 46.9237 35.572C46.9237 36.5683 47.4765 37.417 48.2872 37.8598H39.9221V37.8967ZM56.0626 36.3469C56.0626 37.1956 55.3625 37.9336 54.4781 37.9336C53.8148 37.9336 53.262 37.3801 53.262 36.7159C53.262 36.1993 53.6673 35.7565 54.2201 35.7565C54.6255 35.7565 54.9571 36.0886 54.9571 36.4945C54.9571 36.7897 54.6992 37.048 54.4044 37.048C54.3307 37.048 54.257 37.1218 54.257 37.1956C54.257 37.2694 54.3307 37.3432 54.4044 37.3432C54.8834 37.3432 55.2888 36.9373 55.2888 36.4576C55.2888 35.8672 54.8097 35.3875 54.2201 35.3875C53.5199 35.3875 52.9303 35.9779 52.9303 36.679C52.9303 37.1956 53.1883 37.6015 53.5199 37.8967H50.9404C52.0091 37.3801 52.7461 36.2731 52.7461 34.9816C52.7461 34.8709 52.7461 34.7602 52.7461 34.6495C53.1146 34.4281 53.5568 34.3174 54.0359 34.3174C55.1782 34.3174 56.0626 35.2399 56.0626 36.3469ZM53.5937 34.0591C53.2989 34.096 53.004 34.2067 52.7461 34.3543C52.4881 32.8414 51.3826 31.5867 49.9086 31.1808C50.1666 31.0701 50.3877 30.8856 50.5719 30.6642C50.5719 30.6273 50.6088 30.6273 50.6088 30.5904C52.1196 31.2177 53.1883 32.4723 53.5937 34.0591ZM50.0929 27.6384C50.9404 28.3395 51.051 29.631 50.3508 30.4797C49.798 31.1439 48.8031 31.2177 48.1398 30.6642C47.8818 30.4428 47.7344 30.1476 47.6976 29.8155C47.6607 29.4834 47.7713 29.1882 47.9924 28.9299C48.1398 28.7454 48.3977 28.6347 48.6557 28.5978C48.9136 28.5609 49.1347 28.6716 49.3558 28.8192C49.5032 28.9299 49.6138 29.1144 49.6138 29.2989C49.6138 29.4834 49.5769 29.6679 49.4295 29.8155C49.319 29.9262 49.2084 30 49.061 30C48.9136 30 48.7662 29.9631 48.6557 29.8893C48.582 29.8155 48.4714 29.8524 48.4346 29.9262C48.3609 30 48.3977 30.1107 48.4346 30.1476C48.6188 30.2952 48.8399 30.369 49.061 30.369C49.2821 30.3321 49.5032 30.2214 49.6506 30.0738C49.8349 29.8524 49.9086 29.5941 49.9086 29.2989C49.8717 29.0037 49.7612 28.7454 49.5401 28.5978C49.2821 28.3764 48.9505 28.2657 48.6188 28.3026C48.2872 28.3395 47.9555 28.4871 47.7344 28.7454C47.4765 29.0775 47.3291 29.4465 47.3659 29.8893C47.4028 30.2952 47.587 30.6642 47.9187 30.9594C47.9924 31.0332 48.0661 31.0701 48.1398 31.1439C47.3291 31.2546 46.5552 31.5867 45.8919 32.0664C46.7395 30.5904 47.3659 28.9668 47.6976 27.2325C48.5451 26.9004 49.4295 27.048 50.0929 27.6384ZM42.2437 10.7011C42.2437 11.6236 41.5067 12.3616 40.5854 12.3616C40.4012 12.3616 40.1801 12.3247 39.9958 12.214H39.959C39.8853 12.1771 39.8484 12.1402 39.8116 12.1033C39.7747 12.0664 39.7747 12.0664 39.7747 12.0664C39.4799 11.8081 39.2956 11.4391 39.2956 11.0701C39.2956 10.5166 39.7379 10.0738 40.2906 10.0738C40.696 10.0738 41.0645 10.4059 41.0645 10.8487C41.0645 10.9225 41.1382 10.9963 41.2119 10.9963C41.2856 10.9963 41.3593 10.9225 41.3593 10.8487C41.3593 10.2583 40.8802 9.74172 40.2538 9.74172C39.5168 9.74172 38.9271 10.3321 38.9271 11.0701C38.9271 11.2915 38.964 11.476 39.0377 11.6605C38.5218 11.3653 38.0059 11.107 37.4531 10.8856C37.6374 9.59411 38.7429 8.5978 40.1064 8.5978C41.3224 8.5978 42.2437 9.55721 42.2437 10.7011ZM32.0729 10.1107C39.7379 10.1107 45.9287 16.3469 45.9287 23.9853C45.9287 31.6605 39.701 37.8598 32.0729 37.8598C24.408 37.8598 18.2171 31.6236 18.2171 23.9853C18.1803 16.3469 24.408 10.1107 32.0729 10.1107ZM34.3577 8.0443C34.3208 8.0074 34.284 7.9705 34.2103 7.9705C34.0997 7.9705 33.9892 8.0812 33.9892 8.1919C33.9892 8.3026 34.0997 8.4133 34.2103 8.4133C34.2471 8.4133 34.3208 8.3764 34.3577 8.3764C34.3577 8.5609 34.3945 8.74541 34.4314 8.96681H29.7514C29.7882 8.78231 29.8251 8.5978 29.8251 8.3764C29.8619 8.4133 29.8988 8.4133 29.9725 8.4133C30.083 8.4133 30.1936 8.3026 30.1936 8.1919C30.1936 8.0812 30.083 7.9705 29.9725 7.9705C29.8988 7.9705 29.8619 8.0074 29.8251 8.0443C29.8251 7.8598 29.7514 7.63839 29.7145 7.45389H34.5051C34.3945 7.67529 34.3577 7.8598 34.3577 8.0443ZM29.6408 9.26201H34.4682C34.5419 9.55721 34.6893 9.81552 34.8367 10.0738C33.9155 9.88932 32.9942 9.77861 32.0361 9.77861C31.078 9.77861 30.1567 9.88932 29.2355 10.0738C29.4197 9.81552 29.5671 9.55721 29.6408 9.26201ZM36.3845 5.90408C36.9372 5.75647 37.5268 5.83028 38.0427 6.12548C38.8534 6.60518 39.1483 7.67529 38.6692 8.4871C38.4849 8.7823 38.1901 9.00371 37.8585 9.11441C37.5268 9.18821 37.1583 9.15131 36.8267 8.96681C36.5687 8.81921 36.4213 8.59781 36.3476 8.3395C36.2739 8.0812 36.3108 7.786 36.4582 7.5277C36.5687 7.34319 36.753 7.19559 36.9372 7.15869C37.1583 7.12179 37.3426 7.12179 37.5268 7.23249C37.6742 7.30629 37.7479 7.45389 37.8216 7.6015C37.8585 7.7491 37.8216 7.9336 37.7479 8.0812C37.7111 8.155 37.7111 8.2657 37.8216 8.3026C37.8953 8.3395 38.0059 8.3395 38.0427 8.2288C38.1533 8.0074 38.1901 7.7491 38.1533 7.5277C38.0796 7.26939 37.9322 7.08489 37.7111 6.93729C37.4531 6.78969 37.1583 6.75278 36.8635 6.82658C36.5687 6.90039 36.3108 7.08489 36.1633 7.34319C35.9791 7.6753 35.9054 8.0443 36.0159 8.3764C36.0896 8.7454 36.3476 9.04061 36.6424 9.22511C36.9741 9.40961 37.3426 9.48341 37.7479 9.44651C37.4531 9.81552 37.2689 10.2583 37.1952 10.738C36.6056 10.5166 36.0159 10.3321 35.3895 10.1845C34.5788 9.29891 34.4314 7.93359 35.0578 6.90038C35.3526 6.38378 35.8317 6.05168 36.3845 5.90408ZM34.6893 6.86349C34.6525 6.97419 34.5788 7.04799 34.5419 7.15869H29.5303C29.4934 7.04799 29.4566 6.97419 29.3829 6.86349H34.6893ZM26.0663 6.12548C26.5822 5.83028 27.1718 5.75647 27.7246 5.90408C28.2773 6.05168 28.7932 6.42068 29.0881 6.93729C29.7145 7.9705 29.5671 9.33581 28.7564 10.2214C28.1299 10.369 27.5403 10.5535 26.9507 10.7749C26.877 10.2952 26.6559 9.85241 26.398 9.48341C26.7665 9.52031 27.135 9.48341 27.5035 9.26201C27.8351 9.07751 28.0562 8.78231 28.1299 8.4133C28.2405 8.0443 28.1668 7.67529 27.9825 7.38009C27.8351 7.12179 27.5772 6.93729 27.2824 6.86349C26.9876 6.78969 26.6928 6.82659 26.4348 6.97419C26.2137 7.08489 26.0663 7.30629 25.9926 7.56459C25.9189 7.8229 25.9558 8.0812 26.1032 8.2657C26.14 8.3395 26.2506 8.3764 26.3243 8.3395C26.398 8.3026 26.4348 8.1919 26.398 8.1181C26.3243 7.9705 26.2874 7.82289 26.3243 7.63839C26.3611 7.49079 26.4717 7.34319 26.6191 7.26939C26.8033 7.15869 27.0244 7.12179 27.2087 7.19559C27.4298 7.23249 27.5772 7.38009 27.6877 7.56459C27.8351 7.8229 27.872 8.0812 27.7983 8.3764C27.7246 8.6347 27.5403 8.85611 27.3192 9.00371C26.6928 9.37271 25.8452 9.18821 25.4767 8.524C24.9608 7.6753 25.2556 6.60518 26.0663 6.12548ZM23.9658 8.5978C25.2924 8.5978 26.398 9.55721 26.6191 10.8856C26.0663 11.107 25.5504 11.3653 25.0345 11.6605C25.1082 11.476 25.145 11.2546 25.145 11.0701C25.145 10.3321 24.5554 9.74172 23.8184 9.74172C23.2288 9.74172 22.7129 10.2214 22.7129 10.8487C22.7129 10.9225 22.7866 10.9963 22.8603 10.9963C22.934 10.9963 23.0077 10.9225 23.0077 10.8487C23.0077 10.4428 23.3394 10.0738 23.7816 10.0738C24.3343 10.0738 24.7765 10.5166 24.7765 11.0701C24.7765 11.4391 24.5923 11.8081 24.3343 12.0664C24.2975 12.0664 24.2975 12.1033 24.2975 12.1033C24.2606 12.1402 24.1869 12.1771 24.1132 12.214H24.0764C23.8921 12.2878 23.7079 12.3616 23.4868 12.3616C22.5655 12.3616 21.8285 11.6236 21.8285 10.7011C21.8653 9.55721 22.8235 8.5978 23.9658 8.5978ZM14.0162 27.6384C14.6795 27.0849 15.5639 26.9004 16.4115 27.1587C16.7431 28.893 17.3696 30.5166 18.2171 31.9926C17.5538 31.5129 16.78 31.1808 15.9693 31.0701C16.043 31.0332 16.1167 30.9594 16.1904 30.8856C16.522 30.6273 16.7063 30.2583 16.7431 29.8155C16.78 29.4096 16.6694 29.0037 16.3746 28.6716C16.1535 28.4133 15.8587 28.2657 15.4902 28.2288C15.1586 28.1919 14.8269 28.3026 14.5689 28.524C14.3478 28.7085 14.2373 28.9668 14.2004 29.2251C14.1636 29.5203 14.2741 29.7786 14.4584 30C14.6058 30.1845 14.8269 30.2952 15.048 30.2952C15.2691 30.3321 15.4902 30.2583 15.6745 30.0738C15.7482 30 15.7482 29.9262 15.7113 29.8524C15.6376 29.7786 15.5639 29.7786 15.4902 29.8524C15.3797 29.9631 15.2323 30 15.0849 29.9631C14.9375 29.9631 14.79 29.8893 14.7163 29.7786C14.6058 29.631 14.5321 29.4465 14.5321 29.262C14.5321 29.0775 14.6426 28.893 14.79 28.7823C14.9743 28.6347 15.2323 28.5609 15.4902 28.5609C15.7482 28.5978 15.9693 28.7085 16.1535 28.893C16.3746 29.1513 16.4483 29.4465 16.4483 29.7786C16.4115 30.1107 16.2641 30.4059 16.0061 30.6273C15.3428 31.1808 14.3478 31.107 13.7951 30.4428C13.0949 29.5941 13.2055 28.3395 14.0162 27.6384ZM13.5003 30.5904C13.5003 30.6273 13.5371 30.6273 13.5371 30.6642C13.7214 30.8856 13.9425 31.0332 14.2004 31.1808C12.7264 31.5867 11.6209 32.8414 11.3629 34.3543C11.105 34.2067 10.8102 34.1329 10.5154 34.0591C10.9207 32.4723 11.9894 31.2177 13.5003 30.5904ZM10.5522 37.8967C10.9207 37.6015 11.1418 37.1587 11.1418 36.679C11.1418 35.9779 10.5522 35.3875 9.85207 35.3875C9.26247 35.3875 8.78341 35.8672 8.78341 36.4576C8.78341 36.9373 9.18877 37.3432 9.66782 37.3432C9.74152 37.3432 9.81523 37.2694 9.81523 37.1956C9.81523 37.1218 9.74152 37.048 9.66782 37.048C9.37302 37.048 9.11506 36.7897 9.11506 36.4945C9.11506 36.0886 9.44672 35.7565 9.85207 35.7565C10.368 35.7565 10.8102 36.1624 10.8102 36.7159C10.8102 37.3801 10.2574 37.9336 9.59412 37.9336C8.74656 37.9336 8.00955 37.2325 8.00955 36.3469C8.00955 35.2399 8.89396 34.3543 9.99948 34.3543C10.4417 34.3543 10.8839 34.465 11.2892 34.6864C11.2892 34.7971 11.2892 34.9078 11.2892 35.0185C11.2892 36.31 12.0263 37.3801 13.0949 37.9336H10.5522V37.8967ZM15.8219 37.8967C16.6326 37.4539 17.1853 36.6052 17.1853 35.6089C17.1853 34.4281 16.2272 33.4687 15.048 33.4687C14.0899 33.4687 13.316 34.2436 13.316 35.203C13.316 35.9779 13.9425 36.6421 14.7532 36.6421C14.8269 36.6421 14.9006 36.5683 14.9006 36.4945C14.9006 36.4207 14.8269 36.3469 14.7532 36.3469C14.1636 36.3469 13.6477 35.8672 13.6477 35.2399C13.6477 34.465 14.2741 33.8377 15.048 33.8377C16.043 33.8377 16.8537 34.6495 16.8537 35.6458C16.8537 36.9004 15.8219 37.9336 14.5689 37.9336C12.9844 37.9336 11.6578 36.6421 11.6578 35.0185C11.6578 32.989 13.316 31.3653 15.306 31.3653C16.8168 31.3653 18.2171 32.1033 19.1016 33.358C20.4282 35.2399 22.197 36.7897 24.1869 37.9336H15.8219V37.8967ZM16.4483 24.0222C16.4483 19.3727 18.4751 15.0185 22.0496 12.0295C22.4181 12.4354 22.8972 12.6937 23.4868 12.6937C20.0597 15.2768 17.8486 19.4096 17.8486 24.0222C17.8486 31.845 24.2238 38.2288 32.0361 38.2288C39.8484 38.2288 46.2235 31.845 46.2235 24.0222C46.2235 19.4096 44.0125 15.3137 40.5854 12.6937C41.175 12.6937 41.6541 12.4354 42.0226 12.0295C45.5971 15.0185 47.6239 19.3727 47.6239 24.0222C47.6239 32.6568 40.6223 39.6679 31.9992 39.6679C23.3762 39.6679 16.4483 32.6568 16.4483 24.0222Z" fill="#BF930F"/>
<path d="M59.2696 36.8635C59.5748 36.8635 59.8223 36.6157 59.8223 36.31C59.8223 36.0043 59.5748 35.7565 59.2696 35.7565C58.9643 35.7565 58.7168 36.0043 58.7168 36.31C58.7168 36.6157 58.9643 36.8635 59.2696 36.8635Z" fill="#BF930F"/>
<path d="M57.5381 36.8635C57.8434 36.8635 58.0909 36.6157 58.0909 36.31C58.0909 36.0043 57.8434 35.7565 57.5381 35.7565C57.2328 35.7565 56.9854 36.0043 56.9854 36.31C56.9854 36.6157 57.2328 36.8635 57.5381 36.8635Z" fill="#BF930F"/>
<path d="M4.87698 36.8635C5.18226 36.8635 5.42973 36.6157 5.42973 36.31C5.42973 36.0043 5.18226 35.7565 4.87698 35.7565C4.5717 35.7565 4.32422 36.0043 4.32422 36.31C4.32422 36.6157 4.5717 36.8635 4.87698 36.8635Z" fill="#BF930F"/>
<path d="M6.57229 36.8635C6.87757 36.8635 7.12505 36.6157 7.12505 36.31C7.12505 36.0043 6.87757 35.7565 6.57229 35.7565C6.26701 35.7565 6.01953 36.0043 6.01953 36.31C6.01953 36.6157 6.26701 36.8635 6.57229 36.8635Z" fill="#BF930F"/>
<path d="M26.8262 30V29.082L29.2922 28.866H29.8862L32.3342 29.082V30H26.8262ZM28.3562 30C28.3802 29.388 28.3922 28.776 28.3922 28.164C28.4042 27.552 28.4102 26.934 28.4102 26.31C28.4102 25.686 28.4102 25.062 28.4102 24.438V23.61C28.4102 22.998 28.4102 22.38 28.4102 21.756C28.4102 21.132 28.4042 20.514 28.3922 19.902C28.3922 19.278 28.3802 18.66 28.3562 18.048H30.8042C30.7922 18.66 30.7802 19.278 30.7682 19.902C30.7562 20.526 30.7502 21.156 30.7502 21.792C30.7502 22.416 30.7502 23.064 30.7502 23.736V24.312C30.7502 24.972 30.7502 25.62 30.7502 26.256C30.7502 26.892 30.7562 27.522 30.7682 28.146C30.7802 28.758 30.7922 29.376 30.8042 30H28.3562ZM36.5282 30.216C35.8562 30.216 35.3342 30.102 34.9622 29.874C34.5902 29.646 34.3502 29.244 34.2422 28.668L33.7202 26.238C33.6242 25.794 33.4922 25.446 33.3242 25.194C33.1562 24.942 32.9342 24.768 32.6582 24.672C32.3942 24.564 32.0522 24.51 31.6322 24.51H29.6162V23.574H31.8662C32.4902 23.574 32.9942 23.472 33.3782 23.268C33.7622 23.052 34.0382 22.77 34.2062 22.422C34.3862 22.062 34.4762 21.666 34.4762 21.234C34.4762 20.502 34.2722 19.95 33.8642 19.578C33.4562 19.206 32.8322 19.02 31.9922 19.02H29.6882V18.048H32.3522C33.7802 18.048 34.8842 18.318 35.6642 18.858C36.4442 19.398 36.8342 20.148 36.8342 21.108C36.8342 21.612 36.6902 22.08 36.4022 22.512C36.1262 22.944 35.7002 23.304 35.1242 23.592C34.5482 23.868 33.8102 24.036 32.9102 24.096V24.024C33.4382 24.036 33.8882 24.096 34.2602 24.204C34.6322 24.312 34.9382 24.468 35.1782 24.672C35.4302 24.876 35.6342 25.14 35.7902 25.464C35.9462 25.776 36.0782 26.154 36.1862 26.598L36.8882 29.532L35.8622 28.866L38.1842 29.1V30C38.0042 30.048 37.8302 30.084 37.6622 30.108C37.4942 30.144 37.3202 30.168 37.1402 30.18C36.9602 30.204 36.7562 30.216 36.5282 30.216ZM26.8262 18.966V18.048H29.4902V19.182H29.2382L26.8262 18.966Z" fill="white"/>
</svg>
