<svg width="243" height="25" viewBox="0 0 243 25" fill="none" xmlns="http://www.w3.org/2000/svg">
<mask id="mask0_103_709" style="mask-type:alpha" maskUnits="userSpaceOnUse" x="0" y="0" width="243" height="25">
<path d="M218 4.66028H121V5.66028H218V4.66028Z" fill="url(#paint0_linear_103_709)"/>
<path d="M121 4.66028H24V5.66028H121V4.66028Z" fill="url(#paint1_linear_103_709)"/>
<path d="M7.80072 0.660278C11.799 2.37989 17.446 2.83027 18.1879 2.91216C18.2292 2.91216 18.2704 2.9531 18.2704 2.99405L20.2077 4.71364C20.455 4.9593 20.455 5.32781 20.2077 5.57347L18.2704 7.29309C18.2704 7.33403 18.2292 7.33401 18.1879 7.37496C17.446 7.4159 12.2524 7.86628 7.84194 9.70872C7.80072 9.70872 1.41175 6.22855 0.092743 5.40968C-0.0309143 5.3278 -0.0309143 5.16403 0.092743 5.08214C1.45297 4.22234 7.80072 0.660278 7.80072 0.660278Z" fill="url(#paint2_linear_103_709)"/>
<path d="M23.5053 6.39215C24.3021 6.39215 24.948 5.75057 24.948 4.95914C24.948 4.16771 24.3021 3.52612 23.5053 3.52612C22.7084 3.52612 22.0625 4.16771 22.0625 4.95914C22.0625 5.75057 22.7084 6.39215 23.5053 6.39215Z" fill="url(#paint3_linear_103_709)"/>
<path d="M19.919 16.3823C19.919 16.3823 19.9602 16.3414 20.0014 16.3005C20.0838 16.2595 20.1663 16.1776 20.3311 16.0957C20.496 16.0139 20.7021 15.932 20.9494 15.932C21.1967 15.932 21.5265 15.9729 21.8563 16.0957C22.0211 16.1776 22.186 16.2595 22.3097 16.4233C22.4745 16.5461 22.5982 16.7099 22.6806 16.9146C22.8043 17.1193 22.8867 17.324 22.928 17.5288C22.9692 17.7744 23.0104 18.0201 23.0104 18.2657C22.9692 18.798 22.7631 19.3303 22.3509 19.7806C22.1448 19.9854 21.8975 20.1901 21.6089 20.3129C21.3204 20.4767 21.0319 20.5586 20.7021 20.5995C20.0426 20.7223 19.3007 20.5995 18.6412 20.231C18.3114 20.0263 18.0229 19.7806 17.7756 19.494C17.5282 19.2074 17.3221 18.8799 17.1985 18.5114C16.91 17.7744 16.8275 16.9146 17.0336 16.0548C17.1573 15.6454 17.3222 15.2359 17.5695 14.8674C17.8168 14.499 18.1465 14.1714 18.5175 13.8848C18.6824 13.721 18.8885 13.6391 19.0946 13.5163C19.3007 13.4344 19.5068 13.3116 19.7129 13.2297C20.125 13.0659 20.6197 12.9431 21.0731 12.9431C21.5265 12.9022 22.0211 12.9431 22.5158 13.0659C22.7631 13.1069 22.9692 13.1888 23.2165 13.2707C23.4226 13.3525 23.6699 13.4754 23.876 13.5982C24.2882 13.8439 24.7004 14.1714 25.0301 14.5399C25.195 14.7037 25.3599 14.9084 25.4835 15.1131C25.6072 15.3178 25.7308 15.5225 25.8545 15.7272C26.3079 16.628 26.5552 17.6106 26.514 18.6342C26.4728 20.0263 25.9369 21.3774 25.0301 22.3601C24.9065 22.4829 24.824 22.6057 24.7004 22.7285L24.3294 23.0561C24.2057 23.138 24.0821 23.2608 23.9584 23.3427C23.8348 23.4246 23.7111 23.5474 23.5462 23.5884C23.4226 23.6702 23.2577 23.7521 23.134 23.834C23.0104 23.9159 22.8455 23.9568 22.7219 24.0387C22.4333 24.1616 22.1448 24.2844 21.8563 24.3663C20.6609 24.7348 19.4243 24.7348 18.3114 24.4891C17.1985 24.2435 16.168 23.7112 15.3436 23.0561C15.22 22.9742 15.1375 22.8923 15.0551 22.8104C14.9727 22.7285 14.849 22.6466 14.7666 22.5238C14.6017 22.36 14.4368 22.1553 14.2719 21.9506C13.9834 21.5412 13.6949 21.1727 13.4888 20.7633C13.0354 19.9444 12.7468 19.1255 12.6232 18.3067C12.6232 18.2248 12.5819 18.1019 12.5819 18.0201C12.5819 17.9382 12.5819 17.8154 12.5407 17.7335C12.5407 17.5288 12.4995 17.365 12.4995 17.1603C12.4995 16.7918 12.4995 16.4233 12.5407 16.0957C12.5407 15.932 12.5819 15.7682 12.5819 15.6044C12.6232 15.4406 12.6644 15.2769 12.6644 15.1131C12.6644 15.0312 12.7056 14.9493 12.7056 14.8674C12.7056 14.7856 12.7468 14.7037 12.788 14.6627C12.8293 14.5399 12.8705 14.3761 12.9117 14.2533C12.9529 14.1305 12.9941 13.9667 13.0354 13.8439C13.0766 13.721 13.1178 13.5573 13.159 13.3935C13.2002 13.2297 13.2827 13.1069 13.3239 12.9431C13.4063 12.7793 13.4476 12.6156 13.53 12.4927C13.6949 12.2061 13.8597 11.8376 14.0658 11.551C14.1895 11.3873 14.2719 11.2235 14.3956 11.0597C14.5192 10.8959 14.6429 10.7731 14.7666 10.6093C15.3024 9.99519 15.9619 9.422 16.7451 8.93068C17.5282 8.39842 18.3938 8.02993 19.3831 7.70238C19.6304 7.62049 19.8777 7.57955 20.125 7.49767C20.3724 7.45672 20.6609 7.41576 20.9082 7.37482C21.1555 7.33387 21.4441 7.33389 21.7326 7.29295C21.8562 7.29295 22.0211 7.29293 22.1448 7.25199C22.2684 7.25199 22.4333 7.25199 22.557 7.25199C22.8455 7.25199 23.134 7.25201 23.3814 7.29295C23.6699 7.33389 23.9584 7.37483 24.247 7.41577C24.5355 7.45672 24.824 7.5386 25.1126 7.62049L25.3187 7.66142L25.5248 7.74331C25.6484 7.78426 25.8133 7.8252 25.9369 7.86614C27.0499 8.23463 28.1628 8.84878 29.152 9.58576C29.3993 9.79048 29.6467 9.99519 29.8528 10.1999C30.1001 10.4046 30.3062 10.6503 30.5123 10.8959L30.6771 11.0597L30.842 11.2235L31.1306 11.551C31.3366 11.7557 31.5015 11.9605 31.7488 12.1652C32.9442 13.3116 34.3456 14.1305 35.8295 14.3352C37.3134 14.5399 38.7973 14.1714 40.1575 13.5573C41.5178 12.9431 42.7131 12.1652 43.8673 11.4282C44.9802 10.6503 46.0519 9.9133 47.0411 9.29915C48.0304 8.64406 48.9372 8.1118 49.844 7.74331C50.7096 7.37483 51.534 7.17011 52.1935 7.12917C52.853 7.08822 53.3889 7.252 53.7186 7.41577C53.8835 7.49766 54.0072 7.53859 54.0896 7.57953C54.172 7.62047 54.2133 7.66142 54.2133 7.66142C54.2133 7.66142 54.172 7.66143 54.0896 7.62049C54.0072 7.57955 53.8835 7.53861 53.7186 7.49767C53.3889 7.41578 52.8942 7.29294 52.276 7.41577C51.6577 7.49766 50.9157 7.78426 50.1326 8.23464C49.3494 8.68501 48.4838 9.29916 47.577 9.99519C46.6702 10.6912 45.6809 11.5101 44.6092 12.3699C43.4963 13.2297 42.3009 14.0895 40.8583 14.8265C40.1163 15.195 39.3332 15.4816 38.5088 15.7272C38.0966 15.8091 37.6432 15.891 37.1898 15.932C36.7364 15.9729 36.2829 15.9729 35.7883 15.891C35.3349 15.8501 34.8403 15.7273 34.3869 15.6044C33.9335 15.4406 33.48 15.2769 33.0679 15.0312C32.2022 14.5808 31.4603 14.0076 30.8008 13.3525C30.5535 13.1478 30.3474 12.9022 30.1413 12.6565L29.8115 12.288L29.6467 12.1242L29.523 11.9605C29.3169 11.7557 29.152 11.551 28.9459 11.3463C28.7398 11.1825 28.5337 10.9778 28.3277 10.8141C27.5033 10.159 26.5552 9.62671 25.6072 9.25822C25.4835 9.21728 25.3599 9.17634 25.2362 9.13539L25.0713 9.0535L24.9065 9.01255C24.6591 8.93066 24.4118 8.88972 24.1645 8.80783C23.9172 8.76689 23.6699 8.72595 23.4226 8.685C23.1753 8.64406 22.9279 8.64406 22.6806 8.60311C22.557 8.60311 22.4333 8.56218 22.3097 8.56218C22.186 8.56218 22.0623 8.56218 21.9387 8.56218C21.6914 8.56218 21.4441 8.56217 21.238 8.60311C20.9906 8.64406 20.7846 8.64406 20.5372 8.685C20.2899 8.72595 20.0838 8.76689 19.8777 8.80783C19.0121 9.01255 18.1465 9.34011 17.4458 9.74954C16.7039 10.159 16.0444 10.6093 15.5085 11.1416C15.3849 11.2644 15.2612 11.3873 15.1375 11.551C15.0139 11.6739 14.8902 11.8376 14.8078 11.9605C14.5605 12.2061 14.3956 12.5337 14.2307 12.7793C14.1483 12.9022 14.0658 13.0659 13.9834 13.1888C13.901 13.3116 13.8185 13.4754 13.7773 13.5982C13.7361 13.721 13.6536 13.8848 13.6124 14.0076C13.5712 14.1305 13.4888 14.2533 13.4476 14.3761C13.4063 14.499 13.4063 14.6627 13.3651 14.7856C13.3651 14.8674 13.3239 14.9084 13.3239 14.9903C13.3239 15.0722 13.3239 15.154 13.3239 15.195C13.3239 15.3588 13.2827 15.4816 13.2827 15.6454C13.2827 15.8091 13.2827 15.9729 13.2827 16.1367C13.2827 16.4642 13.3239 16.7918 13.3651 17.1603C13.3651 17.324 13.4476 17.4878 13.4476 17.6925C13.4476 17.7744 13.4888 17.8563 13.4888 17.9791C13.4888 18.061 13.53 18.1429 13.5712 18.2248C13.7361 18.9618 14.1071 19.6578 14.5192 20.3538C14.7253 20.7223 15.0139 21.0499 15.3024 21.3774C15.4673 21.5412 15.5909 21.705 15.7558 21.8278C15.8383 21.9097 15.9207 21.9506 16.0031 22.0325C16.0856 22.1144 16.168 22.1553 16.2504 22.2372C16.9512 22.7286 17.8168 23.097 18.7648 23.2608C19.7129 23.3836 20.7021 23.3427 21.6089 23.0561C21.8562 22.9742 22.0623 22.8923 22.3097 22.7695C22.4333 22.7285 22.557 22.6467 22.6394 22.6057L22.9692 22.401C23.0928 22.36 23.1753 22.2782 23.2989 22.1963C23.3814 22.1144 23.505 22.0325 23.5875 21.9506L23.876 21.705C23.9584 21.6231 24.0409 21.5412 24.1233 21.4184C24.7828 20.6814 25.1538 19.6987 25.195 18.6752C25.2362 17.9382 25.0301 17.2012 24.7004 16.5052C24.6179 16.3414 24.5355 16.1776 24.4118 16.0139C24.2882 15.891 24.2057 15.7273 24.0821 15.6044C23.876 15.3588 23.5875 15.1131 23.2989 14.9493C23.1753 14.8674 23.0104 14.7856 22.8455 14.7037C22.6806 14.6627 22.5158 14.5808 22.3509 14.5399C22.0211 14.458 21.6914 14.4171 21.3616 14.4171C21.0319 14.4171 20.7021 14.499 20.3724 14.5808C20.2075 14.6218 20.0838 14.7037 19.919 14.7446C19.7953 14.8265 19.6304 14.9084 19.5068 14.9903C18.9709 15.3178 18.5999 15.8501 18.3938 16.4233C18.229 16.9965 18.1878 17.6106 18.3938 18.1429C18.4763 18.4295 18.5999 18.6752 18.7648 18.8799C18.9297 19.1255 19.0946 19.2893 19.3419 19.4531C19.7541 19.7397 20.2899 19.8625 20.7846 19.8625C21.0319 19.8625 21.2792 19.7806 21.4853 19.6987C21.6914 19.6169 21.8975 19.494 22.1036 19.3302C22.4333 19.0436 22.6394 18.6342 22.7219 18.2248C22.8867 17.4059 22.4333 16.6689 21.9387 16.3414C21.6914 16.1776 21.4028 16.0957 21.1555 16.0957C20.9082 16.0957 20.7021 16.1367 20.5372 16.1776C20.3724 16.2186 20.2487 16.3005 20.1663 16.3414C19.9602 16.3823 19.919 16.3823 19.919 16.3823Z" fill="url(#paint4_linear_103_709)"/>
<path d="M36.8188 10.8548C36.7776 11.0595 36.8188 11.2643 36.9837 11.3871C37.1074 11.5509 37.3547 11.6327 37.602 11.6327C37.8494 11.6327 38.0555 11.5099 38.1791 11.3461C38.3028 11.1824 38.344 10.9777 38.3028 10.7729C38.2616 10.5682 38.1379 10.4044 38.0142 10.2816C37.8906 10.1588 37.7257 10.0769 37.5608 10.1178C37.3959 10.1178 37.231 10.1997 37.1074 10.3225C36.9425 10.4863 36.86 10.6501 36.8188 10.8548Z" fill="url(#paint5_linear_103_709)"/>
<path d="M35.2936 10.3225C35.2112 10.4863 35.2112 10.6501 35.2524 10.8138C35.3349 10.9776 35.4585 11.1004 35.6234 11.1823C35.7883 11.2642 35.9944 11.2233 36.1593 11.1823C36.3242 11.1004 36.4066 10.9776 36.4478 10.8138C36.4891 10.6501 36.4478 10.4863 36.4066 10.3635C36.3242 10.2406 36.2417 10.1178 36.0768 10.0769C35.9532 10.0359 35.7883 10.0359 35.6234 10.0769C35.4997 10.0769 35.3761 10.1587 35.2936 10.3225Z" fill="url(#paint6_linear_103_709)"/>
<path d="M34.0572 9.62655C33.8923 9.87221 33.9748 10.1998 34.2221 10.3635C34.4694 10.5273 34.8404 10.4454 34.9641 10.1998C35.0878 9.95411 35.0053 9.62655 34.7992 9.50372C34.5519 9.29901 34.2221 9.38089 34.0572 9.62655Z" fill="url(#paint7_linear_103_709)"/>
<path d="M33.109 8.93065C32.9853 9.09443 33.0266 9.38101 33.1915 9.50384C33.3563 9.62667 33.6449 9.58572 33.7686 9.42195C33.8922 9.25818 33.851 8.97159 33.6861 8.84876C33.5212 8.72593 33.2327 8.76688 33.109 8.93065Z" fill="url(#paint8_linear_103_709)"/>
<path d="M32.3261 8.3574C32.2437 8.48023 32.2437 8.68494 32.4086 8.80777C32.5322 8.88965 32.7383 8.88967 32.862 8.7259C32.9444 8.60307 32.9445 8.39834 32.7796 8.27551C32.6147 8.19362 32.4086 8.23457 32.3261 8.3574Z" fill="url(#paint9_linear_103_709)"/>
<path d="M39.7868 10.1999C39.8692 10.3636 39.9104 10.5274 39.8692 10.6912C39.828 10.8549 39.7043 10.9778 39.4982 11.0596C39.1272 11.2644 38.7562 11.0597 38.6738 10.7321C38.5913 10.4046 38.7562 10.077 39.0036 9.9542C39.2509 9.83137 39.5807 9.91325 39.7868 10.1999Z" fill="url(#paint10_linear_103_709)"/>
<path d="M40.8998 9.33981C41.106 9.54452 41.0647 9.87206 40.8586 10.0768C40.6113 10.2815 40.2815 10.2405 40.1166 9.99489C39.9517 9.74923 39.993 9.42169 40.1991 9.25791C40.364 9.09414 40.6937 9.13509 40.8998 9.33981Z" fill="url(#paint11_linear_103_709)"/>
<path d="M41.7242 8.52115C41.8891 8.68492 41.8891 8.93056 41.7242 9.09434C41.5593 9.25811 41.312 9.25811 41.1471 9.09434C40.9822 8.93056 40.9822 8.68492 41.1471 8.52115C41.312 8.35737 41.6005 8.35737 41.7242 8.52115Z" fill="url(#paint12_linear_103_709)"/>
<path d="M42.5072 7.90699C42.5896 8.02982 42.5896 8.23452 42.4659 8.35735C42.3423 8.43924 42.1362 8.43925 42.0537 8.31642C41.9301 8.19359 41.9301 7.98886 42.0949 7.86603C42.1774 7.7432 42.3835 7.78416 42.5072 7.90699Z" fill="url(#paint13_linear_103_709)"/>
<path d="M234.987 0.660278C230.989 2.37989 225.342 2.83027 224.6 2.91216C224.559 2.91216 224.518 2.9531 224.518 2.99405L222.58 4.71364C222.333 4.9593 222.333 5.32781 222.58 5.57347L224.518 7.29309C224.518 7.33403 224.559 7.33401 224.6 7.37496C225.342 7.4159 230.536 7.86628 234.946 9.70872C234.987 9.70872 241.376 6.22855 242.695 5.40968C242.819 5.3278 242.819 5.16403 242.695 5.08214C241.335 4.22234 234.987 0.660278 234.987 0.660278Z" fill="url(#paint14_linear_103_709)"/>
<path d="M219.283 6.39215C220.08 6.39215 220.726 5.75057 220.726 4.95914C220.726 4.16771 220.08 3.52612 219.283 3.52612C218.486 3.52612 217.84 4.16771 217.84 4.95914C217.84 5.75057 218.486 6.39215 219.283 6.39215Z" fill="url(#paint15_linear_103_709)"/>
<path d="M222.869 16.3823C222.869 16.3823 222.828 16.3414 222.787 16.3005C222.704 16.2595 222.622 16.1776 222.457 16.0957C222.292 16.0139 222.086 15.932 221.839 15.932C221.591 15.932 221.261 15.9729 220.932 16.0957C220.767 16.1776 220.602 16.2595 220.478 16.4233C220.313 16.5461 220.19 16.7099 220.107 16.9146C219.984 17.1193 219.901 17.324 219.86 17.5288C219.819 17.7744 219.778 18.0201 219.778 18.2657C219.819 18.798 220.025 19.3303 220.437 19.7806C220.643 19.9854 220.89 20.1901 221.179 20.3129C221.468 20.4767 221.756 20.5586 222.086 20.5995C222.745 20.7223 223.487 20.5995 224.147 20.231C224.477 20.0263 224.765 19.7806 225.012 19.494C225.26 19.2074 225.466 18.8799 225.589 18.5114C225.878 17.7744 225.96 16.9146 225.754 16.0548C225.631 15.6454 225.466 15.2359 225.219 14.8674C224.971 14.499 224.641 14.1714 224.27 13.8848C224.106 13.721 223.899 13.6391 223.693 13.5163C223.487 13.4344 223.281 13.3116 223.075 13.2297C222.663 13.0659 222.168 12.9431 221.715 12.9431C221.261 12.9022 220.767 12.9431 220.272 13.0659C220.025 13.1069 219.819 13.1888 219.571 13.2707C219.365 13.3525 219.118 13.4754 218.912 13.5982C218.5 13.8439 218.088 14.1714 217.758 14.5399C217.593 14.7037 217.428 14.9084 217.304 15.1131C217.181 15.3178 217.057 15.5225 216.933 15.7272C216.48 16.628 216.233 17.6106 216.274 18.6342C216.315 20.0263 216.851 21.3774 217.758 22.3601C217.881 22.4829 217.964 22.6057 218.088 22.7285L218.459 23.0561C218.582 23.138 218.706 23.2608 218.83 23.3427C218.953 23.4246 219.077 23.5474 219.242 23.5884C219.365 23.6702 219.53 23.7521 219.654 23.834C219.778 23.9159 219.942 23.9568 220.066 24.0387C220.355 24.1616 220.643 24.2844 220.932 24.3663C222.127 24.7348 223.364 24.7348 224.477 24.4891C225.589 24.2435 226.62 23.7112 227.444 23.0561C227.568 22.9742 227.65 22.8923 227.733 22.8104C227.815 22.7285 227.939 22.6466 228.021 22.5238C228.186 22.36 228.351 22.1553 228.516 21.9506C228.805 21.5412 229.093 21.1727 229.299 20.7633C229.753 19.9444 230.041 19.1255 230.165 18.3067C230.165 18.2248 230.206 18.1019 230.206 18.0201C230.206 17.9382 230.206 17.8154 230.247 17.7335C230.247 17.5288 230.288 17.365 230.288 17.1603C230.288 16.7918 230.288 16.4233 230.247 16.0957C230.247 15.932 230.206 15.7682 230.206 15.6044C230.165 15.4406 230.124 15.2769 230.124 15.1131C230.124 15.0312 230.082 14.9493 230.082 14.8674C230.082 14.7856 230.041 14.7037 230 14.6627C229.959 14.5399 229.917 14.3761 229.876 14.2533C229.835 14.1305 229.794 13.9667 229.753 13.8439C229.711 13.721 229.67 13.5573 229.629 13.3935C229.588 13.2297 229.505 13.1069 229.464 12.9431C229.382 12.7793 229.34 12.6156 229.258 12.4927C229.093 12.2061 228.928 11.8376 228.722 11.551C228.598 11.3873 228.516 11.2235 228.392 11.0597C228.269 10.8959 228.145 10.7731 228.021 10.6093C227.486 9.99519 226.826 9.422 226.043 8.93068C225.26 8.39842 224.394 8.02993 223.405 7.70238C223.158 7.62049 222.91 7.57955 222.663 7.49767C222.416 7.45672 222.127 7.41576 221.88 7.37482C221.632 7.33387 221.344 7.33389 221.055 7.29295C220.932 7.29295 220.767 7.29293 220.643 7.25199C220.52 7.25199 220.355 7.25199 220.231 7.25199C219.942 7.25199 219.654 7.25201 219.407 7.29295C219.118 7.33389 218.83 7.37483 218.541 7.41577C218.252 7.45672 217.964 7.5386 217.675 7.62049L217.469 7.66142L217.263 7.74331C217.14 7.78426 216.975 7.8252 216.851 7.86614C215.738 8.23463 214.625 8.84878 213.636 9.58576C213.389 9.79048 213.141 9.99519 212.935 10.1999C212.688 10.4046 212.482 10.6503 212.276 10.8959L212.111 11.0597L211.946 11.2235L211.657 11.551C211.451 11.7557 211.286 11.9605 211.039 12.1652C209.844 13.3116 208.442 14.1305 206.958 14.3352C205.475 14.5399 203.991 14.1714 202.63 13.5573C201.27 12.9431 200.075 12.1652 198.921 11.4282C197.808 10.6503 196.736 9.9133 195.747 9.29915C194.758 8.64406 193.851 8.1118 192.944 7.74331C192.078 7.37483 191.254 7.17011 190.594 7.12917C189.935 7.08822 189.399 7.252 189.069 7.41577C188.904 7.49766 188.781 7.53859 188.698 7.57953C188.616 7.62047 188.575 7.66142 188.575 7.66142C188.575 7.66142 188.616 7.66143 188.698 7.62049C188.781 7.57955 188.904 7.53861 189.069 7.49767C189.399 7.41578 189.894 7.29294 190.512 7.41577C191.13 7.49766 191.872 7.78426 192.655 8.23464C193.439 8.68501 194.304 9.29916 195.211 9.99519C196.118 10.6912 197.107 11.5101 198.179 12.3699C199.292 13.2297 200.487 14.0895 201.93 14.8265C202.672 15.195 203.455 15.4816 204.279 15.7272C204.691 15.8091 205.145 15.891 205.598 15.932C206.052 15.9729 206.505 15.9729 207 15.891C207.453 15.8501 207.948 15.7273 208.401 15.6044C208.855 15.4406 209.308 15.2769 209.72 15.0312C210.586 14.5808 211.328 14.0076 211.987 13.3525C212.234 13.1478 212.441 12.9022 212.647 12.6565L212.976 12.288L213.141 12.1242L213.265 11.9605C213.471 11.7557 213.636 11.551 213.842 11.3463C214.048 11.1825 214.254 10.9778 214.46 10.8141C215.285 10.159 216.233 9.62671 217.181 9.25822C217.304 9.21728 217.428 9.17634 217.552 9.13539L217.717 9.0535L217.881 9.01255C218.129 8.93066 218.376 8.88972 218.623 8.80783C218.871 8.76689 219.118 8.72595 219.365 8.685C219.613 8.64406 219.86 8.64406 220.107 8.60311C220.231 8.60311 220.355 8.56218 220.478 8.56218C220.602 8.56218 220.726 8.56218 220.849 8.56218C221.097 8.56218 221.344 8.56217 221.55 8.60311C221.797 8.64406 222.003 8.64406 222.251 8.685C222.498 8.72595 222.704 8.76689 222.91 8.80783C223.776 9.01255 224.641 9.34011 225.342 9.74954C226.084 10.159 226.744 10.6093 227.279 11.1416C227.403 11.2644 227.527 11.3873 227.65 11.551C227.774 11.6739 227.898 11.8376 227.98 11.9605C228.227 12.2061 228.392 12.5337 228.557 12.7793C228.64 12.9022 228.722 13.0659 228.805 13.1888C228.887 13.3116 228.969 13.4754 229.011 13.5982C229.052 13.721 229.134 13.8848 229.176 14.0076C229.217 14.1305 229.299 14.2533 229.34 14.3761C229.382 14.499 229.382 14.6627 229.423 14.7856C229.423 14.8674 229.464 14.9084 229.464 14.9903C229.464 15.0722 229.464 15.154 229.464 15.195C229.464 15.3588 229.505 15.4816 229.505 15.6454C229.505 15.8091 229.505 15.9729 229.505 16.1367C229.505 16.4642 229.464 16.7918 229.423 17.1603C229.423 17.324 229.34 17.4878 229.34 17.6925C229.34 17.7744 229.299 17.8563 229.299 17.9791C229.299 18.061 229.258 18.1429 229.217 18.2248C229.052 18.9618 228.681 19.6578 228.269 20.3538C228.063 20.7223 227.774 21.0499 227.486 21.3774C227.321 21.5412 227.197 21.705 227.032 21.8278C226.95 21.9097 226.867 21.9506 226.785 22.0325C226.702 22.1144 226.62 22.1553 226.538 22.2372C225.837 22.7286 224.971 23.097 224.023 23.2608C223.075 23.3836 222.086 23.3427 221.179 23.0561C220.932 22.9742 220.726 22.8923 220.478 22.7695C220.355 22.7285 220.231 22.6467 220.149 22.6057L219.819 22.401C219.695 22.36 219.613 22.2782 219.489 22.1963C219.407 22.1144 219.283 22.0325 219.201 21.9506L218.912 21.705C218.83 21.6231 218.747 21.5412 218.665 21.4184C218.005 20.6814 217.634 19.6987 217.593 18.6752C217.552 17.9382 217.758 17.2012 218.088 16.5052C218.17 16.3414 218.252 16.1776 218.376 16.0139C218.5 15.891 218.582 15.7273 218.706 15.6044C218.912 15.3588 219.201 15.1131 219.489 14.9493C219.613 14.8674 219.778 14.7856 219.942 14.7037C220.107 14.6627 220.272 14.5808 220.437 14.5399C220.767 14.458 221.097 14.4171 221.426 14.4171C221.756 14.4171 222.086 14.499 222.416 14.5808C222.58 14.6218 222.704 14.7037 222.869 14.7446C222.993 14.8265 223.158 14.9084 223.281 14.9903C223.817 15.3178 224.188 15.8501 224.394 16.4233C224.559 16.9965 224.6 17.6106 224.394 18.1429C224.312 18.4295 224.188 18.6752 224.023 18.8799C223.858 19.1255 223.693 19.2893 223.446 19.4531C223.034 19.7397 222.498 19.8625 222.003 19.8625C221.756 19.8625 221.509 19.7806 221.303 19.6987C221.097 19.6169 220.891 19.494 220.684 19.3302C220.355 19.0436 220.107 18.6342 220.066 18.2248C219.901 17.4059 220.355 16.6689 220.849 16.3414C221.097 16.1776 221.385 16.0957 221.632 16.0957C221.88 16.0957 222.086 16.1367 222.251 16.1776C222.416 16.2186 222.539 16.3005 222.622 16.3414C222.828 16.3823 222.869 16.3823 222.869 16.3823Z" fill="url(#paint16_linear_103_709)"/>
<path d="M205.969 10.8548C206.01 11.0595 205.969 11.2643 205.804 11.3871C205.681 11.5509 205.433 11.6327 205.186 11.6327C204.939 11.6327 204.733 11.5099 204.609 11.3461C204.485 11.1824 204.444 10.9777 204.485 10.7729C204.526 10.5682 204.65 10.4044 204.774 10.2816C204.897 10.1588 205.062 10.0769 205.227 10.1178C205.392 10.1178 205.557 10.1997 205.681 10.3225C205.846 10.4863 205.928 10.6501 205.969 10.8548Z" fill="url(#paint17_linear_103_709)"/>
<path d="M207.494 10.3225C207.577 10.4863 207.577 10.6501 207.536 10.8138C207.453 10.9776 207.329 11.1004 207.165 11.1823C207 11.2642 206.794 11.2233 206.629 11.1823C206.464 11.1004 206.381 10.9776 206.34 10.8138C206.299 10.6501 206.34 10.4863 206.381 10.3635C206.464 10.2406 206.546 10.1178 206.711 10.0769C206.835 10.0359 207 10.0359 207.165 10.0769C207.288 10.0769 207.412 10.1587 207.494 10.3225Z" fill="url(#paint18_linear_103_709)"/>
<path d="M208.731 9.62655C208.895 9.87221 208.813 10.1998 208.566 10.3635C208.318 10.5273 207.947 10.4454 207.824 10.1998C207.7 9.95411 207.782 9.62655 207.989 9.50372C208.236 9.29901 208.566 9.38089 208.731 9.62655Z" fill="url(#paint19_linear_103_709)"/>
<path d="M209.679 8.93065C209.803 9.09443 209.761 9.38101 209.597 9.50384C209.432 9.62667 209.143 9.58572 209.019 9.42195C208.896 9.25818 208.937 8.97159 209.102 8.84876C209.267 8.72593 209.555 8.76688 209.679 8.93065Z" fill="url(#paint20_linear_103_709)"/>
<path d="M210.462 8.35728C210.545 8.48011 210.545 8.68482 210.38 8.80765C210.256 8.88953 210.05 8.88955 209.926 8.72578C209.844 8.60295 209.844 8.39822 210.009 8.27539C210.174 8.1935 210.38 8.23445 210.462 8.35728Z" fill="url(#paint21_linear_103_709)"/>
<path d="M203.001 10.1999C202.919 10.3636 202.878 10.5274 202.919 10.6912C202.96 10.8549 203.084 10.9778 203.29 11.0596C203.661 11.2644 204.032 11.0597 204.114 10.7321C204.197 10.4046 204.032 10.077 203.784 9.9542C203.537 9.83137 203.207 9.91325 203.001 10.1999Z" fill="url(#paint22_linear_103_709)"/>
<path d="M201.888 9.33993C201.682 9.54464 201.724 9.87218 201.93 10.0769C202.177 10.2816 202.507 10.2407 202.672 9.99501C202.837 9.74935 202.795 9.42181 202.589 9.25804C202.424 9.09426 202.095 9.13521 201.888 9.33993Z" fill="url(#paint23_linear_103_709)"/>
<path d="M201.064 8.52115C200.899 8.68492 200.899 8.93056 201.064 9.09434C201.229 9.25811 201.476 9.25811 201.641 9.09434C201.806 8.93056 201.806 8.68492 201.641 8.52115C201.476 8.35737 201.188 8.35737 201.064 8.52115Z" fill="url(#paint24_linear_103_709)"/>
<path d="M200.281 7.90711C200.198 8.02994 200.198 8.23464 200.322 8.35747C200.446 8.43936 200.652 8.43937 200.734 8.31654C200.858 8.19371 200.858 7.98898 200.693 7.86615C200.611 7.74332 200.405 7.78428 200.281 7.90711Z" fill="url(#paint25_linear_103_709)"/>
</mask>
<g mask="url(#mask0_103_709)">
<rect y="-14.5002" width="343.788" height="39.1605" fill="#BF930F"/>
</g>
<defs>
<linearGradient id="paint0_linear_103_709" x1="121.001" y1="5.13987" x2="217.996" y2="5.13987" gradientUnits="userSpaceOnUse">
<stop stop-color="#EEEEEE"/>
<stop offset="0.1507" stop-color="#EEEEEE"/>
<stop offset="0.316" stop-color="#E0DDDB"/>
<stop offset="0.6129" stop-color="#C9C3BD"/>
<stop offset="0.7204" stop-color="#9A938E"/>
<stop offset="0.8387" stop-color="#C9C3BD"/>
<stop offset="1" stop-color="#EEEEEE"/>
</linearGradient>
<linearGradient id="paint1_linear_103_709" x1="23.9885" y1="5.13987" x2="120.983" y2="5.13987" gradientUnits="userSpaceOnUse">
<stop stop-color="#EEEEEE"/>
<stop offset="0.1507" stop-color="#EEEEEE"/>
<stop offset="0.316" stop-color="#E0DDDB"/>
<stop offset="0.6129" stop-color="#C9C3BD"/>
<stop offset="0.7204" stop-color="#9A938E"/>
<stop offset="0.8387" stop-color="#C9C3BD"/>
<stop offset="1" stop-color="#EEEEEE"/>
</linearGradient>
<linearGradient id="paint2_linear_103_709" x1="0.0103048" y1="5.14118" x2="20.4278" y2="5.14118" gradientUnits="userSpaceOnUse">
<stop stop-color="#EEEEEE"/>
<stop offset="0.1507" stop-color="#EEEEEE"/>
<stop offset="0.316" stop-color="#E0DDDB"/>
<stop offset="0.6129" stop-color="#C9C3BD"/>
<stop offset="0.7204" stop-color="#9A938E"/>
<stop offset="0.8387" stop-color="#C9C3BD"/>
<stop offset="1" stop-color="#EEEEEE"/>
</linearGradient>
<linearGradient id="paint3_linear_103_709" x1="22.0466" y1="4.95701" x2="24.929" y2="4.95701" gradientUnits="userSpaceOnUse">
<stop stop-color="#EEEEEE"/>
<stop offset="0.1507" stop-color="#EEEEEE"/>
<stop offset="0.316" stop-color="#E0DDDB"/>
<stop offset="0.6129" stop-color="#C9C3BD"/>
<stop offset="0.7204" stop-color="#9A938E"/>
<stop offset="0.8387" stop-color="#C9C3BD"/>
<stop offset="1" stop-color="#EEEEEE"/>
</linearGradient>
<linearGradient id="paint4_linear_103_709" x1="12.5448" y1="15.8314" x2="54.203" y2="15.8314" gradientUnits="userSpaceOnUse">
<stop stop-color="#EEEEEE"/>
<stop offset="0.1507" stop-color="#EEEEEE"/>
<stop offset="0.316" stop-color="#E0DDDB"/>
<stop offset="0.6129" stop-color="#C9C3BD"/>
<stop offset="0.7204" stop-color="#9A938E"/>
<stop offset="0.8387" stop-color="#C9C3BD"/>
<stop offset="1" stop-color="#EEEEEE"/>
</linearGradient>
<linearGradient id="paint5_linear_103_709" x1="36.8008" y1="10.9037" x2="38.3084" y2="10.9037" gradientUnits="userSpaceOnUse">
<stop stop-color="#EEEEEE"/>
<stop offset="0.1507" stop-color="#EEEEEE"/>
<stop offset="0.316" stop-color="#E0DDDB"/>
<stop offset="0.6129" stop-color="#C9C3BD"/>
<stop offset="0.7204" stop-color="#9A938E"/>
<stop offset="0.8387" stop-color="#C9C3BD"/>
<stop offset="1" stop-color="#EEEEEE"/>
</linearGradient>
<linearGradient id="paint6_linear_103_709" x1="35.2174" y1="10.5809" x2="36.4622" y2="10.5809" gradientUnits="userSpaceOnUse">
<stop stop-color="#EEEEEE"/>
<stop offset="0.1507" stop-color="#EEEEEE"/>
<stop offset="0.316" stop-color="#E0DDDB"/>
<stop offset="0.6129" stop-color="#C9C3BD"/>
<stop offset="0.7204" stop-color="#9A938E"/>
<stop offset="0.8387" stop-color="#C9C3BD"/>
<stop offset="1" stop-color="#EEEEEE"/>
</linearGradient>
<linearGradient id="paint7_linear_103_709" x1="33.9741" y1="9.89658" x2="35.0323" y2="9.89658" gradientUnits="userSpaceOnUse">
<stop stop-color="#EEEEEE"/>
<stop offset="0.1507" stop-color="#EEEEEE"/>
<stop offset="0.316" stop-color="#E0DDDB"/>
<stop offset="0.6129" stop-color="#C9C3BD"/>
<stop offset="0.7204" stop-color="#9A938E"/>
<stop offset="0.8387" stop-color="#C9C3BD"/>
<stop offset="1" stop-color="#EEEEEE"/>
</linearGradient>
<linearGradient id="paint8_linear_103_709" x1="33.0421" y1="9.17917" x2="33.8531" y2="9.17917" gradientUnits="userSpaceOnUse">
<stop stop-color="#EEEEEE"/>
<stop offset="0.1507" stop-color="#EEEEEE"/>
<stop offset="0.316" stop-color="#E0DDDB"/>
<stop offset="0.6129" stop-color="#C9C3BD"/>
<stop offset="0.7204" stop-color="#9A938E"/>
<stop offset="0.8387" stop-color="#C9C3BD"/>
<stop offset="1" stop-color="#EEEEEE"/>
</linearGradient>
<linearGradient id="paint9_linear_103_709" x1="32.2664" y1="8.54688" x2="32.8898" y2="8.54688" gradientUnits="userSpaceOnUse">
<stop stop-color="#EEEEEE"/>
<stop offset="0.1507" stop-color="#EEEEEE"/>
<stop offset="0.316" stop-color="#E0DDDB"/>
<stop offset="0.6129" stop-color="#C9C3BD"/>
<stop offset="0.7204" stop-color="#9A938E"/>
<stop offset="0.8387" stop-color="#C9C3BD"/>
<stop offset="1" stop-color="#EEEEEE"/>
</linearGradient>
<linearGradient id="paint10_linear_103_709" x1="38.6375" y1="10.5186" x2="39.8811" y2="10.5186" gradientUnits="userSpaceOnUse">
<stop stop-color="#EEEEEE"/>
<stop offset="0.1507" stop-color="#EEEEEE"/>
<stop offset="0.316" stop-color="#E0DDDB"/>
<stop offset="0.6129" stop-color="#C9C3BD"/>
<stop offset="0.7204" stop-color="#9A938E"/>
<stop offset="0.8387" stop-color="#C9C3BD"/>
<stop offset="1" stop-color="#EEEEEE"/>
</linearGradient>
<linearGradient id="paint11_linear_103_709" x1="39.9771" y1="9.68483" x2="41.0341" y2="9.68483" gradientUnits="userSpaceOnUse">
<stop stop-color="#EEEEEE"/>
<stop offset="0.1507" stop-color="#EEEEEE"/>
<stop offset="0.316" stop-color="#E0DDDB"/>
<stop offset="0.6129" stop-color="#C9C3BD"/>
<stop offset="0.7204" stop-color="#9A938E"/>
<stop offset="0.8387" stop-color="#C9C3BD"/>
<stop offset="1" stop-color="#EEEEEE"/>
</linearGradient>
<linearGradient id="paint12_linear_103_709" x1="41.0348" y1="8.81724" x2="41.8453" y2="8.81724" gradientUnits="userSpaceOnUse">
<stop stop-color="#EEEEEE"/>
<stop offset="0.1507" stop-color="#EEEEEE"/>
<stop offset="0.316" stop-color="#E0DDDB"/>
<stop offset="0.6129" stop-color="#C9C3BD"/>
<stop offset="0.7204" stop-color="#9A938E"/>
<stop offset="0.8387" stop-color="#C9C3BD"/>
<stop offset="1" stop-color="#EEEEEE"/>
</linearGradient>
<linearGradient id="paint13_linear_103_709" x1="41.9254" y1="8.09732" x2="42.5471" y2="8.09732" gradientUnits="userSpaceOnUse">
<stop stop-color="#EEEEEE"/>
<stop offset="0.1507" stop-color="#EEEEEE"/>
<stop offset="0.316" stop-color="#E0DDDB"/>
<stop offset="0.6129" stop-color="#C9C3BD"/>
<stop offset="0.7204" stop-color="#9A938E"/>
<stop offset="0.8387" stop-color="#C9C3BD"/>
<stop offset="1" stop-color="#EEEEEE"/>
</linearGradient>
<linearGradient id="paint14_linear_103_709" x1="222.36" y1="5.14118" x2="242.778" y2="5.14118" gradientUnits="userSpaceOnUse">
<stop stop-color="#EEEEEE"/>
<stop offset="0.1507" stop-color="#EEEEEE"/>
<stop offset="0.316" stop-color="#E0DDDB"/>
<stop offset="0.6129" stop-color="#C9C3BD"/>
<stop offset="0.7204" stop-color="#9A938E"/>
<stop offset="0.8387" stop-color="#C9C3BD"/>
<stop offset="1" stop-color="#EEEEEE"/>
</linearGradient>
<linearGradient id="paint15_linear_103_709" x1="217.859" y1="4.95701" x2="220.742" y2="4.95701" gradientUnits="userSpaceOnUse">
<stop stop-color="#EEEEEE"/>
<stop offset="0.1507" stop-color="#EEEEEE"/>
<stop offset="0.316" stop-color="#E0DDDB"/>
<stop offset="0.6129" stop-color="#C9C3BD"/>
<stop offset="0.7204" stop-color="#9A938E"/>
<stop offset="0.8387" stop-color="#C9C3BD"/>
<stop offset="1" stop-color="#EEEEEE"/>
</linearGradient>
<linearGradient id="paint16_linear_103_709" x1="188.585" y1="15.8314" x2="230.243" y2="15.8314" gradientUnits="userSpaceOnUse">
<stop stop-color="#EEEEEE"/>
<stop offset="0.1507" stop-color="#EEEEEE"/>
<stop offset="0.316" stop-color="#E0DDDB"/>
<stop offset="0.6129" stop-color="#C9C3BD"/>
<stop offset="0.7204" stop-color="#9A938E"/>
<stop offset="0.8387" stop-color="#C9C3BD"/>
<stop offset="1" stop-color="#EEEEEE"/>
</linearGradient>
<linearGradient id="paint17_linear_103_709" x1="204.48" y1="10.9037" x2="205.987" y2="10.9037" gradientUnits="userSpaceOnUse">
<stop stop-color="#EEEEEE"/>
<stop offset="0.1507" stop-color="#EEEEEE"/>
<stop offset="0.316" stop-color="#E0DDDB"/>
<stop offset="0.6129" stop-color="#C9C3BD"/>
<stop offset="0.7204" stop-color="#9A938E"/>
<stop offset="0.8387" stop-color="#C9C3BD"/>
<stop offset="1" stop-color="#EEEEEE"/>
</linearGradient>
<linearGradient id="paint18_linear_103_709" x1="206.326" y1="10.5809" x2="207.571" y2="10.5809" gradientUnits="userSpaceOnUse">
<stop stop-color="#EEEEEE"/>
<stop offset="0.1507" stop-color="#EEEEEE"/>
<stop offset="0.316" stop-color="#E0DDDB"/>
<stop offset="0.6129" stop-color="#C9C3BD"/>
<stop offset="0.7204" stop-color="#9A938E"/>
<stop offset="0.8387" stop-color="#C9C3BD"/>
<stop offset="1" stop-color="#EEEEEE"/>
</linearGradient>
<linearGradient id="paint19_linear_103_709" x1="207.756" y1="9.89658" x2="208.814" y2="9.89658" gradientUnits="userSpaceOnUse">
<stop stop-color="#EEEEEE"/>
<stop offset="0.1507" stop-color="#EEEEEE"/>
<stop offset="0.316" stop-color="#E0DDDB"/>
<stop offset="0.6129" stop-color="#C9C3BD"/>
<stop offset="0.7204" stop-color="#9A938E"/>
<stop offset="0.8387" stop-color="#C9C3BD"/>
<stop offset="1" stop-color="#EEEEEE"/>
</linearGradient>
<linearGradient id="paint20_linear_103_709" x1="208.935" y1="9.17917" x2="209.746" y2="9.17917" gradientUnits="userSpaceOnUse">
<stop stop-color="#EEEEEE"/>
<stop offset="0.1507" stop-color="#EEEEEE"/>
<stop offset="0.316" stop-color="#E0DDDB"/>
<stop offset="0.6129" stop-color="#C9C3BD"/>
<stop offset="0.7204" stop-color="#9A938E"/>
<stop offset="0.8387" stop-color="#C9C3BD"/>
<stop offset="1" stop-color="#EEEEEE"/>
</linearGradient>
<linearGradient id="paint21_linear_103_709" x1="209.898" y1="8.54676" x2="210.522" y2="8.54676" gradientUnits="userSpaceOnUse">
<stop stop-color="#EEEEEE"/>
<stop offset="0.1507" stop-color="#EEEEEE"/>
<stop offset="0.316" stop-color="#E0DDDB"/>
<stop offset="0.6129" stop-color="#C9C3BD"/>
<stop offset="0.7204" stop-color="#9A938E"/>
<stop offset="0.8387" stop-color="#C9C3BD"/>
<stop offset="1" stop-color="#EEEEEE"/>
</linearGradient>
<linearGradient id="paint22_linear_103_709" x1="202.907" y1="10.5186" x2="204.151" y2="10.5186" gradientUnits="userSpaceOnUse">
<stop stop-color="#EEEEEE"/>
<stop offset="0.1507" stop-color="#EEEEEE"/>
<stop offset="0.316" stop-color="#E0DDDB"/>
<stop offset="0.6129" stop-color="#C9C3BD"/>
<stop offset="0.7204" stop-color="#9A938E"/>
<stop offset="0.8387" stop-color="#C9C3BD"/>
<stop offset="1" stop-color="#EEEEEE"/>
</linearGradient>
<linearGradient id="paint23_linear_103_709" x1="201.754" y1="9.68495" x2="202.811" y2="9.68495" gradientUnits="userSpaceOnUse">
<stop stop-color="#EEEEEE"/>
<stop offset="0.1507" stop-color="#EEEEEE"/>
<stop offset="0.316" stop-color="#E0DDDB"/>
<stop offset="0.6129" stop-color="#C9C3BD"/>
<stop offset="0.7204" stop-color="#9A938E"/>
<stop offset="0.8387" stop-color="#C9C3BD"/>
<stop offset="1" stop-color="#EEEEEE"/>
</linearGradient>
<linearGradient id="paint24_linear_103_709" x1="200.943" y1="8.81724" x2="201.753" y2="8.81724" gradientUnits="userSpaceOnUse">
<stop stop-color="#EEEEEE"/>
<stop offset="0.1507" stop-color="#EEEEEE"/>
<stop offset="0.316" stop-color="#E0DDDB"/>
<stop offset="0.6129" stop-color="#C9C3BD"/>
<stop offset="0.7204" stop-color="#9A938E"/>
<stop offset="0.8387" stop-color="#C9C3BD"/>
<stop offset="1" stop-color="#EEEEEE"/>
</linearGradient>
<linearGradient id="paint25_linear_103_709" x1="200.241" y1="8.09745" x2="200.863" y2="8.09745" gradientUnits="userSpaceOnUse">
<stop stop-color="#EEEEEE"/>
<stop offset="0.1507" stop-color="#EEEEEE"/>
<stop offset="0.316" stop-color="#E0DDDB"/>
<stop offset="0.6129" stop-color="#C9C3BD"/>
<stop offset="0.7204" stop-color="#9A938E"/>
<stop offset="0.8387" stop-color="#C9C3BD"/>
<stop offset="1" stop-color="#EEEEEE"/>
</linearGradient>
</defs>
</svg>
