<svg width="48" height="48" viewBox="0 0 48 48" fill="none" xmlns="http://www.w3.org/2000/svg">
<path d="M44.8213 33.7049H36.3158V15.33C36.3158 14.9417 36.0011 14.6269 35.6127 14.6269C35.2243 14.6269 34.9096 14.9417 34.9096 15.33V33.7049H29.3478C28.1497 31.8416 26.0785 30.7004 23.8453 30.7004C20.2386 30.7004 17.3043 33.6342 17.3043 37.2404C17.3043 40.8471 20.2386 43.7813 23.8453 43.7813C26.0777 43.7813 28.1489 42.64 29.3477 40.7767H34.9096V46.172C34.9096 46.4046 34.7203 46.5938 34.4877 46.5938H13.2027C12.9701 46.5938 12.7808 46.4046 12.7808 46.172V25.4991H15.5933V27.0103C15.5933 27.8116 16.2452 28.4634 17.0465 28.4634H30.644C31.4452 28.4634 32.0971 27.8116 32.0971 27.0103V5.67188C32.0971 4.87059 31.4452 4.21875 30.644 4.21875H17.0465C16.2452 4.21875 15.5933 4.87059 15.5933 5.67188V7.01906H12.7808V1.82812C12.7808 1.59553 12.9701 1.40625 13.2027 1.40625H34.4877C34.7203 1.40625 34.9096 1.59553 34.9096 1.82812V12.0487C34.9096 12.4371 35.2243 12.7519 35.6127 12.7519C36.0011 12.7519 36.3158 12.4371 36.3158 12.0487V1.82812C36.3158 0.820125 35.4957 0 34.4877 0H13.2027C12.1947 0 11.3746 0.820125 11.3746 1.82812V7.01906H1.45312C0.651844 7.01906 0 7.67091 0 8.47219V24.0459C0 24.8472 0.651844 25.4991 1.45312 25.4991H5.14125C5.52966 25.4991 5.84438 25.1842 5.84438 24.7959C5.84438 24.4076 5.52966 24.0928 5.14125 24.0928H1.45312C1.42687 24.0928 1.40625 24.0722 1.40625 24.0459V22.4456H23.4806V24.0459C23.4806 24.0718 23.4595 24.0928 23.4338 24.0928H8.4225C8.03409 24.0928 7.71937 24.4076 7.71937 24.7959C7.71937 25.1842 8.03409 25.4991 8.4225 25.4991H11.3746V46.1719C11.3746 47.1799 12.1947 48 13.2027 48H34.4877C35.4957 48 36.3158 47.1799 36.3158 46.1719V40.7766H44.8213C46.5014 40.7766 47.8682 39.4097 47.8682 37.7297V36.7518C47.8682 35.0717 46.5014 33.7049 44.8213 33.7049ZM1.45312 8.42531H23.4338C23.4592 8.42531 23.4806 8.44678 23.4806 8.47219V17.9859H1.40625V8.47219C1.40625 8.44631 1.42734 8.42531 1.45312 8.42531ZM1.40625 21.0394V19.3922H23.4806V21.0394H1.40625ZM24.8869 24.0459V8.47219C24.8869 7.67091 24.235 7.01906 23.4338 7.01906H16.9996V5.67188C16.9996 5.646 17.0207 5.625 17.0465 5.625H30.644C30.6697 5.625 30.6908 5.646 30.6908 5.67188V27.0103C30.6908 27.0357 30.6694 27.0572 30.644 27.0572H17.0465C17.0211 27.0572 16.9996 27.0357 16.9996 27.0103V25.4991H23.4338C24.235 25.4991 24.8869 24.8472 24.8869 24.0459ZM23.8453 42.375C21.0141 42.375 18.7105 40.0716 18.7105 37.2403C18.7105 34.4095 21.014 32.1066 23.8453 32.1066C25.2697 32.1066 26.6099 32.6984 27.567 33.7048H24.6891C23.8361 33.7048 23.1422 34.3988 23.1422 35.2517V39.2296C23.1422 40.0825 23.8361 40.7765 24.6891 40.7765H27.5667C26.6091 41.7831 25.2691 42.375 23.8453 42.375ZM46.4619 37.7297C46.4619 38.6343 45.7259 39.3703 44.8213 39.3703H28.9588C28.9577 39.3703 28.9565 39.3703 28.9553 39.3703H24.689C24.6114 39.3703 24.5483 39.3072 24.5483 39.2297V35.2518C24.5483 35.1743 24.6114 35.1112 24.689 35.1112H28.951C28.9545 35.1112 28.9579 35.1113 28.9613 35.1112H35.6099C35.6108 35.1112 35.6117 35.1112 35.6126 35.1112C35.6136 35.1112 35.6144 35.1112 35.6153 35.1112H44.8212C45.7258 35.1112 46.4618 35.8472 46.4618 36.7518V37.7297H46.4619Z" fill="#BF930F"/>
<path d="M7.60465 16.844C9.37043 16.844 10.8459 15.5794 11.1743 13.9084H15.8291V15.6503C15.8291 16.0386 16.1438 16.3534 16.5322 16.3534C16.9206 16.3534 17.2353 16.0386 17.2353 15.6503V13.9084H19.5144V15.6503C19.5144 16.0386 19.8291 16.3534 20.2175 16.3534C20.6059 16.3534 20.9206 16.0386 20.9206 15.6503V13.5803C20.9206 12.9858 20.437 12.5022 19.8425 12.5022H11.1743C10.8456 10.8315 9.37034 9.56714 7.60475 9.56714C5.59859 9.56714 3.96631 11.1993 3.96631 13.2056C3.96631 15.2118 5.5984 16.844 7.60465 16.844ZM7.60465 10.9734C8.83418 10.9734 9.83459 11.9727 9.83675 13.2017C9.83675 13.203 9.83656 13.2041 9.83656 13.2053C9.83656 13.2065 9.83675 13.2077 9.83675 13.209C9.83487 14.4383 8.83437 15.4378 7.60465 15.4378C6.37381 15.4378 5.37246 14.4364 5.37246 13.2056C5.37246 11.9747 6.37381 10.9734 7.60465 10.9734Z" fill="#BF930F"/>
</svg>
