<svg width="47" height="48" viewBox="0 0 47 48" fill="none" xmlns="http://www.w3.org/2000/svg">
<path d="M45.5189 18.9234C45.9073 18.9234 46.222 18.6086 46.222 18.2203V13.7775C46.222 12.1327 44.8834 10.7944 43.238 10.7944H39.0895V6.95728C39.786 6.67744 40.2796 5.99644 40.2796 5.20116V4.07297C40.2796 1.82709 38.4525 0 36.2066 0H32.4563C30.2105 0 28.3835 1.82709 28.3835 4.07297V5.20116C28.3835 5.99634 28.8769 6.67744 29.5731 6.95728V10.7944H25.4255C23.7801 10.7944 22.4414 12.1326 22.4414 13.7775V20.0662H17.9264V18.8988C17.9264 17.1452 16.4997 15.7186 14.7461 15.7186C12.9926 15.7186 11.5659 17.1452 11.5659 18.8988V20.0662H6.06037C4.57256 20.0662 3.36216 21.2766 3.36216 22.7643V31.6251C3.36216 32.0134 3.67687 32.3282 4.06528 32.3282C4.45369 32.3282 4.76841 32.0134 4.76841 31.6251V29.3014C5.15241 29.5117 5.59266 29.6315 6.06047 29.6315H7.02047V30.3831C6.35391 30.4449 5.83012 31.0069 5.83012 31.6894V32.4078C5.83012 33.1315 6.41887 33.7203 7.14262 33.7203H10.712C11.4357 33.7203 12.0245 33.1315 12.0245 32.4078V31.6894C12.0245 31.0069 11.5007 30.4449 10.8341 30.3831V29.6315H18.6581V30.3831C17.9916 30.4449 17.4678 31.0069 17.4678 31.6894V32.4078C17.4678 33.1315 18.0565 33.7203 18.7803 33.7203H22.3495C23.0733 33.7203 23.662 33.1315 23.662 32.4078V31.6894C23.662 31.0069 23.1383 30.445 22.4718 30.3831V29.6315H23.4323C23.9 29.6315 24.3401 29.5118 24.7239 29.3015V45.3018C24.7239 46.0142 24.1443 46.5937 23.432 46.5937H6.06028C5.34787 46.5937 4.76841 46.0141 4.76841 45.3018V34.9233C4.76841 34.535 4.45369 34.2202 4.06528 34.2202C3.67687 34.2202 3.36216 34.535 3.36216 34.9233V35.6323H2.69813C1.21041 35.6323 0 36.8427 0 38.3304V42.437C0 43.9248 1.21041 45.1351 2.69813 45.1351H3.36216V45.3019C3.36216 46.7897 4.57256 48 6.06028 48H23.432C24.9198 48 26.1302 46.7896 26.1302 45.3019V45.1351H26.7079V46.0041C26.7079 47.0663 27.5722 47.9306 28.6345 47.9306C29.6968 47.9306 30.5611 47.0663 30.5611 46.0041V44.7422H38.1019V46.0037C38.1019 47.0662 38.9662 47.9304 40.0286 47.9304C41.0911 47.9304 41.9555 47.0661 41.9555 46.0037V44.7422H43.2381C44.8835 44.7422 46.2221 43.404 46.2221 41.7591V21.5419C46.2221 21.1536 45.9074 20.8387 45.519 20.8387C45.1306 20.8387 44.8159 21.1536 44.8159 21.5419V41.7591C44.8159 42.6285 44.1081 43.3359 43.2381 43.3359H29.3377C29.4374 43.0546 29.4922 42.7521 29.4922 42.437V38.3304C29.4922 37.5361 29.147 36.821 28.5989 36.3267V14.7384C28.5989 14.3501 28.2842 14.0353 27.8958 14.0353C27.5074 14.0353 27.1927 14.3501 27.1927 14.7384V35.6619C27.0625 35.6426 26.9295 35.6323 26.7941 35.6323H26.1302V22.7643C26.1302 21.4177 25.1388 20.2987 23.8476 20.0982V13.7775C23.8476 12.9081 24.5554 12.2006 25.4254 12.2006H43.2379C44.1079 12.2006 44.8157 12.908 44.8157 13.7775V18.2203C44.8158 18.6086 45.1305 18.9234 45.5189 18.9234ZM2.69813 43.7288C1.98572 43.7288 1.40625 43.1493 1.40625 42.437V38.3304C1.40625 37.618 1.98581 37.0386 2.69813 37.0386H3.36216V43.7288H2.69813ZM21.0655 28.9211C21.0655 28.9236 21.0652 28.9259 21.0652 28.9283C21.0652 28.9308 21.0655 28.9331 21.0655 28.9356V30.3768H20.0644V21.4723H21.0655V28.9211ZM12.9722 18.8988C12.9722 17.9206 13.7679 17.1248 14.7461 17.1248C15.7244 17.1248 16.5202 17.9207 16.5202 18.8988V20.0662H12.9722V18.8988ZM9.42787 30.377H8.42672V21.4725H9.42787V30.377ZM6.06047 28.2253C5.34797 28.2253 4.76841 27.6458 4.76841 26.9334V22.7643C4.76841 22.0519 5.34806 21.4724 6.06037 21.4724H7.02047V28.2253H6.06047ZM10.6182 32.3141H7.23637V31.7832H10.6182V32.3141ZM10.8341 28.2253V21.4724H18.6581V28.2253H10.8341ZM22.2558 32.3141H18.874V31.7832H22.2558V32.3141ZM29.1548 46.0041C29.1548 46.2909 28.9215 46.5244 28.6345 46.5244C28.3476 46.5244 28.1141 46.2909 28.1141 46.0041V44.7889C28.1412 44.7736 28.1683 44.7584 28.1948 44.7422H29.1548V46.0041ZM40.5491 46.0037C40.5491 46.2907 40.3156 46.5242 40.0285 46.5242C39.7415 46.5242 39.508 46.2907 39.508 46.0037V44.7422H40.549L40.5491 46.0037ZM26.7941 37.0386C27.5065 37.0386 28.086 37.6181 28.086 38.3304V42.437C28.086 43.1494 27.5064 43.7288 26.7941 43.7288H26.1302V37.0386H26.7941ZM24.7239 22.7643V26.9334C24.7239 27.6458 24.1445 28.2253 23.4323 28.2253H22.4718V21.4724H23.4322C24.1444 21.4724 24.7239 22.052 24.7239 22.7643ZM29.7896 4.07297C29.7896 2.6025 30.9859 1.40625 32.4562 1.40625H36.2065C37.677 1.40625 38.8733 2.60259 38.8733 4.07297V5.20116C38.8733 5.46956 38.6548 5.68791 38.3863 5.68791C38.1179 5.68791 37.8995 5.46956 37.8995 5.20116V4.07297C37.8995 3.1395 37.14 2.38003 36.2065 2.38003H32.4562C31.5228 2.38003 30.7634 3.1395 30.7634 4.07297V5.20116C30.7634 5.46956 30.5448 5.68791 30.2761 5.68791C30.0079 5.68791 29.7896 5.46956 29.7896 5.20116V4.07297ZM30.9793 6.95737C31.676 6.67753 32.1698 5.99653 32.1698 5.20116V4.07297C32.1698 3.91491 32.2983 3.78628 32.4563 3.78628H36.2066C36.3647 3.78628 36.4933 3.91491 36.4933 4.07297V5.20116C36.4933 5.99644 36.9869 6.67753 37.6833 6.95728V10.7944H30.9793V6.95737Z" fill="#BF930F"/>
<path d="M31.4832 14.7385V39.4426C31.4832 39.8309 31.7979 40.1457 32.1863 40.1457C32.5747 40.1457 32.8894 39.8309 32.8894 39.4426V14.7385C32.8894 14.3502 32.5747 14.0354 32.1863 14.0354C31.7979 14.0354 31.4832 14.3502 31.4832 14.7385Z" fill="#BF930F"/>
<path d="M35.7734 14.7385V39.4426C35.7734 39.8309 36.0882 40.1457 36.4766 40.1457C36.865 40.1457 37.1797 39.8309 37.1797 39.4426V14.7385C37.1797 14.3502 36.865 14.0354 36.4766 14.0354C36.0882 14.0354 35.7734 14.3502 35.7734 14.7385Z" fill="#BF930F"/>
<path d="M40.064 14.7385V39.4426C40.064 39.8309 40.3787 40.1457 40.7671 40.1457C41.1555 40.1457 41.4702 39.8309 41.4702 39.4426V14.7385C41.4702 14.3502 41.1555 14.0354 40.7671 14.0354C40.3787 14.0354 40.064 14.3502 40.064 14.7385Z" fill="#BF930F"/>
<path d="M20.5681 44.0645C21.5059 44.0645 22.2688 43.3016 22.2688 42.3639V37.2116C22.2688 36.2739 21.5059 35.511 20.5681 35.511H8.92426C7.98657 35.511 7.22363 36.2739 7.22363 37.2116V42.3639C7.22363 43.3016 7.98657 44.0645 8.92426 44.0645H20.5681ZM8.62988 42.3639V37.2116C8.62988 37.0493 8.76188 36.9172 8.92426 36.9172H20.5681C20.7304 36.9172 20.8626 37.0493 20.8626 37.2116V42.3639C20.8626 42.5262 20.7305 42.6583 20.5681 42.6583H8.92426C8.76188 42.6583 8.62988 42.5262 8.62988 42.3639Z" fill="#BF930F"/>
</svg>
