<svg width="49" height="48" viewBox="0 0 49 48" fill="none" xmlns="http://www.w3.org/2000/svg">
<path d="M12.0018 14.4283C5.51245 14.4283 0.23291 19.7079 0.23291 26.1973C0.23291 30.2264 2.14954 34.5584 5.92964 39.073C6.4913 39.7438 7.05099 40.3654 7.58808 40.9325C5.14739 41.5986 3.68198 42.7956 3.68198 44.1925C3.68198 46.6656 7.96843 48 12.0015 48C16.0346 48 20.3209 46.6655 20.3209 44.1925C20.3209 42.7967 18.856 41.5995 16.4169 40.933C17.3913 39.9043 18.4399 38.694 19.4347 37.344C19.6654 37.031 19.5986 36.5904 19.2857 36.3598C18.9729 36.1295 18.5321 36.196 18.3015 36.509C17.1003 38.139 15.8002 39.5715 14.6658 40.7093C14.5357 40.7757 14.427 40.8811 14.3588 41.0139C13.3426 42.0126 12.4874 42.7536 12.0021 43.1584C11.5222 42.7575 10.6801 42.0266 9.67684 41.0409C9.60484 40.8831 9.47837 40.7594 9.32405 40.6904C6.13589 37.4837 1.64057 31.9434 1.64057 26.1975C1.64057 20.4843 6.28861 15.8363 12.0017 15.8363C17.7149 15.8363 22.3629 20.4843 22.3629 26.1975C22.3629 28.6924 21.5128 31.3868 19.8362 34.2058C19.6375 34.54 19.7472 34.9719 20.0813 35.1706C20.4155 35.3692 20.8475 35.2595 21.0461 34.9254C22.854 31.8857 23.7707 28.9492 23.7707 26.1975C23.7708 19.7079 18.4912 14.4283 12.0018 14.4283ZM11.5711 44.6224C11.6978 44.7205 11.8499 44.7696 12.0018 44.7696C12.1538 44.7696 12.3058 44.7205 12.4326 44.6224C12.519 44.5555 13.6952 43.6383 15.2629 42.1054C17.6369 42.5895 18.9134 43.5217 18.9134 44.1926C18.9134 44.6937 18.2266 45.2849 17.121 45.7354C15.765 46.288 13.9469 46.5924 12.0016 46.5924C7.78224 46.5924 5.08973 45.171 5.08973 44.1926C5.08973 43.5207 6.36661 42.589 8.74186 42.1049C10.3184 43.6469 11.4962 44.5644 11.5711 44.6224Z" fill="#BF930F"/>
<path d="M12.0017 21.0801C10.8885 21.0801 9.82983 21.4315 8.94033 22.0965C8.62908 22.3293 8.56533 22.7704 8.79802 23.0817C9.0309 23.393 9.47199 23.4566 9.78324 23.2241C10.4274 22.7425 11.1946 22.4878 12.0017 22.4878C14.047 22.4878 15.711 24.1518 15.711 26.1972C15.711 28.2426 14.047 29.9066 12.0017 29.9066C9.9563 29.9066 8.29233 28.2425 8.29233 26.1972C8.29233 25.8482 8.34061 25.5031 8.43577 25.1718C8.54302 24.7982 8.32711 24.4084 7.95352 24.3011C7.58002 24.1942 7.19011 24.4098 7.08277 24.7834C6.95142 25.2412 6.88477 25.7168 6.88477 26.1972C6.88477 29.0188 9.18024 31.3143 12.0018 31.3143C14.8233 31.3143 17.1189 29.0188 17.1189 26.1972C17.1188 23.3756 14.8233 21.0801 12.0017 21.0801Z" fill="#BF930F"/>
<path d="M42.6759 20.4489C43.034 20.0646 43.4029 19.6506 43.7729 19.2087C46.7033 15.7087 48.1891 12.3441 48.1891 9.20805C48.1891 4.13082 44.0584 0 38.9811 0C35.2721 0 31.9418 2.20744 30.497 5.6237C30.3455 5.98173 30.513 6.39479 30.871 6.54611C31.2289 6.69742 31.642 6.53008 31.7934 6.17214C33.0175 3.27788 35.8389 1.40766 38.9811 1.40766C43.2823 1.40766 46.7815 4.90698 46.7815 9.20814C46.7815 15.0247 40.6748 20.5973 38.9808 22.0308C38.6075 21.7154 38.0199 21.199 37.3309 20.5236C37.2622 20.3874 37.1512 20.2794 37.0179 20.2125C34.5876 17.7656 31.1807 13.5593 31.1807 9.20814C31.1807 8.81936 30.8657 8.50427 30.4768 8.50427C30.0881 8.50427 29.7729 8.81936 29.7729 9.20814C29.7729 12.3441 31.2588 15.7087 34.1893 19.2088C34.5592 19.6504 34.9278 20.0642 35.2857 20.4484C33.4713 20.9936 32.4238 21.9215 32.4238 23.0389C32.4238 23.9813 33.1883 24.8118 34.5765 25.3774C35.7643 25.8615 37.3286 26.1281 38.981 26.1281C40.6333 26.1281 42.1976 25.8615 43.3855 25.3774C44.7734 24.8117 45.5379 23.9812 45.5379 23.0388C45.5378 21.9235 44.4896 20.9947 42.6759 20.4489ZM38.9809 24.7202C35.6491 24.7202 33.8316 23.6095 33.8316 23.0387C33.8316 22.6669 34.6584 21.9865 36.4239 21.6111C37.6118 22.767 38.4935 23.4538 38.5504 23.4979C38.6772 23.5961 38.8292 23.6451 38.9812 23.6451C39.1332 23.6451 39.285 23.5961 39.412 23.4979C39.4689 23.454 40.3504 22.767 41.5383 21.6113C42.3249 21.779 43.0063 22.0247 43.4831 22.315C43.8884 22.5619 44.1303 22.8325 44.1303 23.0387C44.1301 23.6095 42.3126 24.7202 38.9809 24.7202Z" fill="#BF930F"/>
<path d="M38.9813 5.11243C36.7229 5.11243 34.8855 6.94974 34.8855 9.20828C34.8855 11.4666 36.7228 13.3039 38.9813 13.3039C41.2397 13.3039 43.077 11.4667 43.077 9.20828C43.077 6.94984 41.2397 5.11243 38.9813 5.11243ZM38.9813 11.8962C37.499 11.8962 36.2932 10.6904 36.2932 9.20818C36.2932 7.72599 37.4991 6.52009 38.9813 6.52009C40.4635 6.52009 41.6694 7.7259 41.6694 9.20818C41.6694 10.6904 40.4635 11.8962 38.9813 11.8962Z" fill="#BF930F"/>
<path d="M29.8509 22.335H29.5295C29.2955 22.335 29.0604 22.3504 28.8303 22.3811C28.4451 22.4324 28.1743 22.7862 28.2254 23.1717C28.2726 23.5256 28.5749 23.7828 28.9223 23.7828C28.9532 23.7828 28.9845 23.7809 29.016 23.7767C29.1847 23.7542 29.3575 23.7429 29.5296 23.7429H29.8509V23.7428C30.2397 23.7428 30.5548 23.4278 30.5548 23.0389C30.5548 22.6501 30.2397 22.335 29.8509 22.335Z" fill="#BF930F"/>
<path d="M27.524 43.4529C27.5229 43.4529 27.5218 43.4529 27.5207 43.4529L26.5911 43.4571C26.2024 43.4589 25.8887 43.7755 25.8904 44.1642C25.8921 44.5518 26.207 44.8649 26.5942 44.8649C26.5953 44.8649 26.5963 44.8649 26.5975 44.8649L27.5271 44.8606C27.9158 44.8589 28.2295 44.5423 28.2278 44.1536C28.2261 43.7658 27.9113 43.4529 27.524 43.4529Z" fill="#BF930F"/>
<path d="M30.686 31.4521H29.7564C29.3676 31.4521 29.0525 31.7673 29.0525 32.156C29.0525 32.5448 29.3675 32.8599 29.7564 32.8599H30.686C31.0748 32.8599 31.3899 32.5449 31.3899 32.156C31.3899 31.7673 31.0749 31.4521 30.686 31.4521Z" fill="#BF930F"/>
<path d="M26.9566 23.769C26.693 23.4834 26.2479 23.4654 25.962 23.7289C25.6996 23.9708 25.4609 24.2406 25.2526 24.5306C25.0258 24.8465 25.098 25.2862 25.4137 25.513C25.5379 25.6023 25.6816 25.6452 25.8238 25.6452C26.0427 25.6452 26.2585 25.5433 26.396 25.3519C26.5489 25.1392 26.724 24.9412 26.9165 24.7636C27.2022 24.5001 27.2201 24.0547 26.9566 23.769Z" fill="#BF930F"/>
<path d="M31.2426 43.4358C31.2415 43.4358 31.2405 43.4358 31.2394 43.4358L30.3098 43.44C29.9211 43.4417 29.6075 43.7584 29.6091 44.1471C29.6108 44.5347 29.9257 44.8478 30.3129 44.8478C30.314 44.8478 30.3151 44.8478 30.3162 44.8478L31.2457 44.8435C31.6344 44.8419 31.9481 44.5252 31.9464 44.1365C31.9446 43.7488 31.6298 43.4358 31.2426 43.4358Z" fill="#BF930F"/>
<path d="M23.8052 43.4696C23.8041 43.4696 23.8031 43.4696 23.802 43.4696L22.8723 43.4738C22.4836 43.4756 22.17 43.7922 22.1716 44.1809C22.1734 44.5685 22.488 44.8816 22.8754 44.8816C22.8765 44.8816 22.8776 44.8816 22.8787 44.8816L23.8083 44.8774C24.197 44.8756 24.5107 44.559 24.509 44.1703C24.5073 43.7825 24.1925 43.4696 23.8052 43.4696Z" fill="#BF930F"/>
<path d="M27.4765 30.8605C27.2553 30.721 27.0473 30.5581 26.8584 30.3765C26.5781 30.1069 26.1324 30.1158 25.8631 30.3958C25.5936 30.6759 25.6023 31.1215 25.8824 31.3909C26.14 31.6387 26.4236 31.8608 26.7253 32.0511C26.8419 32.1247 26.9718 32.1598 27.1002 32.1598C27.3339 32.1598 27.5623 32.0436 27.6963 31.8313C27.9038 31.5026 27.8052 31.0679 27.4765 30.8605Z" fill="#BF930F"/>
<path d="M25.7461 28.3395C25.6988 28.0969 25.6748 27.8473 25.6748 27.5976L25.675 27.5585C25.6796 27.1698 25.3682 26.851 24.9794 26.8465C24.9767 26.8464 24.9739 26.8464 24.9711 26.8464C24.5861 26.8464 24.2719 27.1562 24.2674 27.5422L24.2671 27.5977C24.2671 27.9376 24.2998 28.2778 24.3643 28.6088C24.4297 28.9449 24.7243 29.1781 25.0544 29.1781C25.0989 29.1781 25.1443 29.1739 25.1897 29.165C25.5713 29.0906 25.8203 28.7211 25.7461 28.3395Z" fill="#BF930F"/>
<path d="M34.405 31.4521H33.4754C33.0866 31.4521 32.7715 31.7673 32.7715 32.156C32.7715 32.5448 33.0866 32.8599 33.4754 32.8599H34.405C34.7938 32.8599 35.1089 32.5449 35.1089 32.156C35.1089 31.7673 34.7938 31.4521 34.405 31.4521Z" fill="#BF930F"/>
<path d="M45.7056 32.8853C45.4344 32.6712 45.1445 32.4768 44.8439 32.3076C44.5055 32.1167 44.0761 32.2366 43.8852 32.5753C43.6944 32.914 43.8142 33.3433 44.1529 33.534C44.3901 33.6678 44.6191 33.8212 44.8331 33.9902C44.9625 34.0923 45.116 34.1417 45.2688 34.1417C45.4768 34.1417 45.6828 34.0498 45.8218 33.874C46.0627 33.5688 46.0108 33.1261 45.7056 32.8853Z" fill="#BF930F"/>
<path d="M43.093 43.9401C43.0395 43.5551 42.6836 43.2856 42.2994 43.3392C42.0688 43.3711 41.8328 43.3879 41.5974 43.3888L41.4656 43.3894C41.0769 43.3914 40.7633 43.7081 40.7651 44.0967C40.7671 44.4843 41.0818 44.7972 41.4689 44.7972C41.4701 44.7972 41.4713 44.7972 41.4724 44.7972L41.6038 44.7965C41.9011 44.7952 42.2 44.7741 42.492 44.7337C42.8772 44.6805 43.1462 44.3251 43.093 43.9401Z" fill="#BF930F"/>
<path d="M46.1992 41.9608C45.931 41.6792 45.4854 41.6684 45.2042 41.9366C45.0066 42.1248 44.7929 42.299 44.5687 42.4544C44.2493 42.6758 44.1699 43.1144 44.3913 43.434C44.528 43.6312 44.7473 43.7369 44.9704 43.7369C45.1087 43.7369 45.2484 43.6962 45.3708 43.6115C45.6544 43.4147 45.9251 43.1942 46.1751 42.956C46.4567 42.6877 46.4674 42.2421 46.1992 41.9608Z" fill="#BF930F"/>
<path d="M47.5691 38.5424C47.1877 38.4705 46.8192 38.7218 46.7472 39.1038C46.6967 39.3716 46.6249 39.6374 46.5335 39.8939C46.403 40.26 46.5939 40.6627 46.9601 40.7933C47.0382 40.8211 47.1181 40.8343 47.1966 40.8343C47.4857 40.8343 47.7568 40.6547 47.8596 40.3667C47.9755 40.0414 48.0668 39.7042 48.1308 39.3643C48.2025 38.9823 47.9511 38.6142 47.5691 38.5424Z" fill="#BF930F"/>
<path d="M47.9872 36.2798C47.8918 35.9475 47.7694 35.6201 47.6229 35.3063C47.4585 34.954 47.04 34.8018 46.6874 34.966C46.3352 35.1305 46.1828 35.5492 46.3472 35.9016C46.4625 36.1486 46.559 36.4066 46.6341 36.6682C46.7227 36.9769 47.0044 37.1781 47.3104 37.1781C47.3748 37.1781 47.44 37.1692 47.5049 37.1506C47.8785 37.0433 48.0944 36.6534 47.9872 36.2798Z" fill="#BF930F"/>
<path d="M38.1235 31.4521H37.1939C36.8051 31.4521 36.49 31.7673 36.49 32.156C36.49 32.5448 36.805 32.8599 37.1939 32.8599H38.1235C38.5123 32.8599 38.8274 32.5449 38.8274 32.156C38.8274 31.7673 38.5123 31.4521 38.1235 31.4521Z" fill="#BF930F"/>
<path d="M34.9612 43.4189C34.9601 43.4189 34.9591 43.4189 34.958 43.4189L34.0283 43.4232C33.6396 43.4248 33.326 43.7415 33.3276 44.1302C33.3294 44.5179 33.6442 44.8309 34.0314 44.8309C34.0326 44.8309 34.0336 44.8309 34.0347 44.8309L34.9643 44.8267C35.353 44.8249 35.6667 44.5083 35.665 44.1196C35.6633 43.732 35.3484 43.4189 34.9612 43.4189Z" fill="#BF930F"/>
<path d="M41.8733 31.4589C41.7737 31.4544 41.6728 31.4523 41.5736 31.4523H40.9126C40.5238 31.4523 40.2087 31.7675 40.2087 32.1561C40.2087 32.5449 40.5237 32.86 40.9126 32.86H41.5736V32.8599C41.6532 32.8599 41.7324 32.8617 41.811 32.8652C41.8216 32.8657 41.8322 32.8659 41.8427 32.8659C42.2171 32.8659 42.5287 32.571 42.5453 32.1933C42.5624 31.8048 42.2616 31.4761 41.8733 31.4589Z" fill="#BF930F"/>
<path d="M38.68 43.4021C38.6789 43.4021 38.6778 43.4021 38.6767 43.4021L37.7471 43.4063C37.3584 43.408 37.0447 43.7247 37.0464 44.1134C37.0482 44.501 37.363 44.8141 37.7502 44.8141C37.7513 44.8141 37.7524 44.8141 37.7535 44.8141L38.6831 44.8099C39.0718 44.8081 39.3855 44.4915 39.3838 44.1028C39.3821 43.715 39.0673 43.4021 38.68 43.4021Z" fill="#BF930F"/>
</svg>
