<svg width="55" height="48" viewBox="0 0 55 48" fill="none" xmlns="http://www.w3.org/2000/svg">
<path d="M54.4155 40.3764V34.9689C54.4155 33.8299 53.6148 32.875 52.5469 32.6359V31.1026C52.5469 28.8716 51.1142 26.9698 49.1209 26.2665V14.1691C49.1209 11.6331 47.0577 9.56985 44.5217 9.56985H20.9482C21.0972 9.37078 21.1828 9.12655 21.1828 8.86903C21.1828 8.44083 20.9495 8.04728 20.5738 7.84184L18.5808 6.75172L17.4907 4.75864C17.2851 4.38305 16.8916 4.14966 16.4633 4.14966C16.0352 4.14966 15.6417 4.38305 15.4361 4.75864L14.346 6.75172L12.3529 7.84184C11.9773 8.04728 11.744 8.44094 11.744 8.86903C11.744 9.12655 11.8297 9.37078 11.9787 9.56985H9.89395C7.35789 9.56985 5.29467 11.6331 5.29467 14.1691V17.0386C5.29467 17.4788 5.65145 17.8357 6.09177 17.8357C6.53209 17.8357 6.88888 17.4788 6.88888 17.0386V14.1691C6.88888 12.5121 8.23704 11.1641 9.89395 11.1641H14.4433L15.4361 12.9795C15.6417 13.3551 16.0352 13.5885 16.4633 13.5885C16.8916 13.5885 17.2851 13.3551 17.4907 12.9795L18.4835 11.1641H44.5216C46.1786 11.1641 47.5266 12.5121 47.5266 14.1691V25.9777C47.4908 25.977 47.4552 25.975 47.4192 25.975H45.5647C45.567 25.9247 45.5703 25.8745 45.5703 25.8238V20.2564C45.5703 18.4698 44.1167 17.0162 42.3302 17.0162H31.7151C29.9283 17.0162 28.4748 18.4698 28.4748 20.2564V25.8238C28.4748 25.8744 28.4781 25.9247 28.4805 25.975H25.9352C25.9375 25.9247 25.9408 25.8745 25.9408 25.8238V20.2564C25.9408 18.4698 24.4872 17.0162 22.7005 17.0162H12.0854C10.2988 17.0162 8.84528 18.4698 8.84528 20.2564V25.8238C8.84528 25.8744 8.84858 25.9247 8.85092 25.975H6.99622C6.96019 25.975 6.92469 25.977 6.88877 25.9777V20.7584C6.88877 20.3182 6.53199 19.9613 6.09167 19.9613C5.65135 19.9613 5.29456 20.3182 5.29456 20.7584V26.2664C3.30128 26.9698 1.86862 28.8715 1.86862 31.1024V32.6358C0.800716 32.875 0 33.8299 0 34.9689V40.3764C0 41.5154 0.800716 42.4703 1.86862 42.7094V46.4057H0.797102C0.356783 46.4057 0 46.7626 0 47.2028C0 47.6431 0.356783 47.9999 0.797102 47.9999H53.6184C54.0587 47.9999 54.4155 47.6431 54.4155 47.2028C54.4155 46.7626 54.0587 46.4057 53.6184 46.4057H52.5469V42.7094C53.6148 42.4703 54.4155 41.5155 54.4155 40.3764ZM17.7074 9.6469C17.5106 9.75435 17.3497 9.91515 17.2415 10.1125L16.4635 11.5353L15.6855 10.1127C15.5778 9.91579 15.417 9.75477 15.2199 9.64701L13.7971 8.86882L15.2201 8.09064C15.417 7.98287 15.5778 7.82185 15.6853 7.62524L16.4635 6.20246L17.2418 7.62587C17.3497 7.8226 17.5106 7.9834 17.707 8.09074L19.1297 8.86882L17.7074 9.6469ZM10.4394 20.2564C10.4394 19.3488 11.1777 18.6104 12.0853 18.6104H22.7004C23.608 18.6104 24.3465 19.3488 24.3465 20.2564V25.8238C24.3465 25.8745 24.3442 25.9249 24.3396 25.975H10.4463C10.4416 25.9249 10.4394 25.8745 10.4394 25.8238V20.2564ZM3.46282 31.1026C3.46282 29.1542 5.04789 27.5692 6.99622 27.5692H35.7102C36.1505 27.5692 36.5073 27.2123 36.5073 26.7721C36.5073 26.3318 36.1505 25.975 35.7102 25.975H30.0766C30.072 25.9249 30.069 25.8745 30.069 25.8238V20.2564C30.069 19.3488 30.8075 18.6104 31.7151 18.6104H42.3302C43.2378 18.6104 43.9761 19.3488 43.9761 20.2564V25.8238C43.9761 25.8745 43.9733 25.9249 43.9686 25.975H39.43C38.9897 25.975 38.6329 26.3318 38.6329 26.7721C38.6329 27.2123 38.9897 27.5692 39.43 27.5692H47.4193C49.3676 27.5692 50.9527 29.1542 50.9527 31.1026V32.5776H3.46282V31.1026ZM1.5942 34.9689C1.5942 34.5293 1.95173 34.1718 2.39131 34.1718H52.0242C52.4638 34.1718 52.8213 34.5293 52.8213 34.9689V37.1199H1.5942V34.9689ZM6.81724 46.4058H3.46282V42.7678H6.81724V46.4058ZM50.9527 46.4058H47.5983V42.7678H50.9527V46.4058ZM52.0242 41.1735H18.2802C17.8399 41.1735 17.4831 41.5303 17.4831 41.9706C17.4831 42.4108 17.8399 42.7677 18.2802 42.7677H46.0041V46.4057H8.41145V42.7677H14.5604C15.0007 42.7677 15.3575 42.4108 15.3575 41.9706C15.3575 41.5303 15.0007 41.1735 14.5604 41.1735H2.39131C1.95173 41.1735 1.5942 40.8158 1.5942 40.3764V38.7141H52.8213V40.3764C52.8213 40.8159 52.4638 41.1735 52.0242 41.1735Z" fill="#BF930F"/>
<path d="M21.7339 3.73476H22.6109V4.61179C22.6109 5.052 22.9677 5.40889 23.408 5.40889C23.8483 5.40889 24.2051 5.052 24.2051 4.61179V3.73476H25.0821C25.5224 3.73476 25.8792 3.37787 25.8792 2.93766C25.8792 2.49745 25.5224 2.14056 25.0821 2.14056H24.2051V1.26353C24.2051 0.82332 23.8483 0.466431 23.408 0.466431C22.9677 0.466431 22.6109 0.82332 22.6109 1.26353V2.14056H21.7339C21.2936 2.14056 20.9368 2.49745 20.9368 2.93766C20.9368 3.37787 21.2937 3.73476 21.7339 3.73476Z" fill="#BF930F"/>
<path d="M29.0671 7.34838H29.4127V7.694C29.4127 8.13422 29.7695 8.49111 30.2098 8.49111C30.6502 8.49111 31.0069 8.13422 31.0069 7.694V7.34838H31.3526C31.7929 7.34838 32.1497 6.99149 32.1497 6.55128C32.1497 6.11106 31.7929 5.75418 31.3526 5.75418H31.0069V5.40855C31.0069 4.96834 30.6502 4.61145 30.2098 4.61145C29.7695 4.61145 29.4127 4.96834 29.4127 5.40855V5.75418H29.0671C28.6268 5.75418 28.27 6.11106 28.27 6.55128C28.27 6.99149 28.6269 7.34838 29.0671 7.34838Z" fill="#BF930F"/>
<path d="M34.7782 5.02068L36.302 5.85413L37.1354 7.37766C37.3407 7.75347 37.7343 7.98686 38.1625 7.98686H38.1627C38.5908 7.98686 38.9843 7.75347 39.1899 7.37787L40.0233 5.85413L41.5473 5.02068C41.9229 4.81524 42.1562 4.42158 42.1562 3.99338C42.156 3.56528 41.9228 3.17172 41.5472 2.96628L40.0232 2.13273L39.1899 0.608986C38.9843 0.233391 38.5908 0 38.1627 0C38.1626 0 38.1625 0 38.1625 0C37.7344 0.00010628 37.3408 0.233498 37.1355 0.608986L36.3021 2.13273L34.7782 2.96618C34.4026 3.17162 34.1693 3.56517 34.1692 3.99338C34.1692 4.42147 34.4025 4.81513 34.7782 5.02068ZM37.176 3.47186C37.3725 3.3643 37.5333 3.20361 37.6413 3.00656L38.1627 2.05312L38.6844 3.0072C38.7923 3.20393 38.9532 3.36473 39.1496 3.47196L40.103 3.99348L39.1499 4.51479C38.9531 4.62234 38.7921 4.78325 38.6841 4.9804L38.1627 5.93373L37.641 4.97998C37.5334 4.78336 37.3726 4.62255 37.1758 4.51489L36.2223 3.99338L37.176 3.47186Z" fill="#BF930F"/>
</svg>
