<svg width="36" height="36" viewBox="0 0 36 36" fill="none" xmlns="http://www.w3.org/2000/svg">
<path d="M25.3057 0.788475V11.0034H35.5206V0.788475H25.3057ZM33.4776 8.96044H27.3487V2.83147H33.4776V8.96044Z" fill="white"/>
<path d="M29.3916 4.87447H31.4346V6.91746H29.3916V4.87447Z" fill="white"/>
<path d="M25.3057 35.5193H35.5206V25.3044H25.3057V35.5193ZM27.3487 27.3474H33.4776V33.4763H27.3487V27.3474Z" fill="white"/>
<path d="M29.3916 29.3904H31.4346V31.4334H29.3916V29.3904Z" fill="white"/>
<path d="M0.789062 35.5193H11.004V25.3044H0.789062V35.5193ZM2.83205 27.3474H8.96103V33.4763H2.83205V27.3474Z" fill="white"/>
<path d="M4.875 29.3904H6.91799V31.4334H4.875V29.3904Z" fill="white"/>
<path d="M13.0469 33.4763H18.1544V35.5193H13.0469V33.4763Z" fill="white"/>
<path d="M13.0469 29.3904H16.1114V31.4334H13.0469V29.3904Z" fill="white"/>
<path d="M6.91699 21.2184H8.95998V23.2614H6.91699V21.2184Z" fill="white"/>
<path d="M4.87505 21.2184H2.83205V17.1324H0.789062V23.2614H4.87505V21.2184Z" fill="white"/>
<path d="M33.4766 21.2184H31.4336V23.2614H35.5196V17.1324H33.4766V21.2184Z" fill="white"/>
<path d="M25.3057 21.2184H29.3916V23.2614H25.3057V21.2184Z" fill="white"/>
<path d="M18.1543 21.2184H23.2618V23.2614H18.1543V21.2184Z" fill="white"/>
<path d="M20.1973 33.4763H23.2618V35.5193H20.1973V33.4763Z" fill="white"/>
<path d="M21.2188 29.3904H18.1543V31.4333H23.2618V25.3044H21.2188V29.3904Z" fill="white"/>
<path d="M13.0478 27.3474H18.1553V25.3044H15.0908V21.2184H11.0049V23.2614H13.0478V27.3474Z" fill="white"/>
<path d="M20.1973 4.87447H23.2618V6.91746H20.1973V4.87447Z" fill="white"/>
<path d="M25.3057 13.0464H27.3487V15.0894H25.3057V13.0464Z" fill="white"/>
<path d="M25.3057 17.1324H27.3487V19.1754H25.3057V17.1324Z" fill="white"/>
<path d="M29.3916 19.1754H31.4346V15.0894H35.5206V13.0464H29.3916V19.1754Z" fill="white"/>
<path d="M18.1543 11.0034H21.2188V19.1754H23.2618V8.96043H18.1543V11.0034Z" fill="white"/>
<path d="M8.96094 19.1754H18.1544V17.1324H11.0039V15.0894H8.96094V19.1754Z" fill="white"/>
<path d="M4.87505 19.1754H6.91804V13.0464H0.789062V15.0894H4.87505V19.1754Z" fill="white"/>
<path d="M8.96094 8.96043H11.0039V13.0464H8.96094V8.96043Z" fill="white"/>
<path d="M13.0469 13.0464H18.1544V15.0894H13.0469V13.0464Z" fill="white"/>
<path d="M15.0899 6.91746H18.1544V4.87447H13.0469V11.0034H15.0899V6.91746Z" fill="white"/>
<path d="M18.1543 0.788475H23.2618V2.83147H18.1543V0.788475Z" fill="white"/>
<path d="M2.83205 2.83147H6.91804V0.788475H0.789062V6.91745H2.83205V2.83147Z" fill="white"/>
<path d="M13.0469 0.788475H16.1114V2.83147H13.0469V0.788475Z" fill="white"/>
<path d="M4.875 6.91745H11.004V0.788475H8.96098V4.87446H4.875V6.91745Z" fill="white"/>
<path d="M0.789062 8.96043H6.91804V11.0034H0.789062V8.96043Z" fill="white"/>
</svg>
