<svg width="16" height="16" viewBox="0 0 16 16" fill="none" xmlns="http://www.w3.org/2000/svg">
<path d="M14.5637 8.82133L14.0476 8.22222V4.12622H14.5637V8.82133ZM15.9792 2.91911L15.1392 0.215111C15.1191 0.151369 15.0859 0.0970855 15.0437 0.0588867C15.0016 0.020688 14.9523 0.000226571 14.9018 0H13.7096C13.6592 2.66539e-05 13.61 0.0204303 13.568 0.0586748C13.5261 0.0969193 13.4932 0.151318 13.4734 0.215111L12.6334 2.91911C12.6167 2.97324 12.6099 3.03226 12.6137 3.09089C12.6175 3.14952 12.6318 3.20593 12.6553 3.25507C12.6789 3.30421 12.7109 3.34455 12.7485 3.37248C12.7861 3.40041 12.8281 3.41505 12.8709 3.41511H15.7418C15.7845 3.41505 15.8266 3.40041 15.8642 3.37248C15.9018 3.34455 15.9338 3.30421 15.9573 3.25507C15.9808 3.20593 15.9951 3.14952 15.999 3.09089C16.0028 3.03226 15.996 2.97324 15.9792 2.91911ZM3.90964 7.04V6.65956C3.91009 6.40702 3.98309 6.165 4.1127 5.98644C4.2423 5.80787 4.41796 5.70728 4.60125 5.70667H6.23865C6.42201 5.707 6.59778 5.8075 6.72743 5.98613C6.85708 6.16476 6.93002 6.40693 6.93026 6.65956V7.04H8.03735V6.65956C8.03759 6.40693 8.11053 6.16476 8.24018 5.98613C8.36983 5.8075 8.5456 5.707 8.72896 5.70667H10.3664C10.5496 5.70728 10.7253 5.80787 10.8549 5.98644C10.9845 6.165 11.0575 6.40702 11.058 6.65956V7.04H12.387V5.18044C12.3865 4.6606 12.2364 4.16225 11.9696 3.79467C11.7028 3.42708 11.3411 3.22026 10.9638 3.21956H4.00384C3.62653 3.22026 3.26483 3.42708 2.99804 3.79467C2.73124 4.16225 2.58113 4.6606 2.58062 5.18044V7.04H3.90964ZM14.0012 10.0267H14.8037L14.5637 9.74933L14.0476 9.152L12.8373 7.75111H2.1303L0.16387 10.0267H14.0012ZM1.16128 14.8071H0.645156V15.6444C0.64536 15.7387 0.672614 15.8289 0.720966 15.8956C0.769318 15.9622 0.834838 15.9997 0.903218 16H2.15998C2.22836 15.9997 2.29388 15.9622 2.34223 15.8956C2.39058 15.8289 2.41784 15.7387 2.41804 15.6444V14.8071H1.16128ZM13.0657 14.8071H12.5496V15.6444C12.5498 15.7387 12.577 15.8289 12.6254 15.8956C12.6737 15.9622 12.7392 15.9997 12.8076 16H14.0644C14.1328 15.9997 14.1983 15.9622 14.2466 15.8956C14.295 15.8289 14.3223 15.7387 14.3225 15.6444V14.8071H13.0657ZM0.516124 10.7378H0V13.7404C0.000204221 13.8347 0.0274584 13.9249 0.0758103 13.9916C0.124162 14.0582 0.189683 14.0957 0.258062 14.096H14.7095C14.7779 14.0957 14.8434 14.0582 14.8918 13.9916C14.9402 13.9249 14.9674 13.8347 14.9676 13.7404V10.7378H0.516124Z" fill="white"/>
</svg>
