<svg width="16" height="16" viewBox="0 0 16 16" fill="none" xmlns="http://www.w3.org/2000/svg">
<path d="M4.40078 0.761905C4.40078 0.341116 4.04261 0 3.60078 0C3.15895 0 2.80078 0.341116 2.80078 0.761905V1.52381C2.80078 1.9446 3.15895 2.28571 3.60078 2.28571C4.04261 2.28571 4.40078 1.9446 4.40078 1.52381V0.761905Z" fill="#BF930F"/>
<path d="M13.1996 0.761905C13.1996 0.341116 12.8414 0 12.3996 0C11.9578 0 11.5996 0.341116 11.5996 0.761905V1.52381C11.5996 1.9446 11.9578 2.28571 12.3996 2.28571C12.8414 2.28571 13.1996 1.9446 13.1996 1.52381V0.761905Z" fill="#BF930F"/>
<path d="M0 5.71428V14.4762C0 15.3177 0.7164 16 1.6 16H14.4C15.2836 16 16 15.3177 16 14.4762V5.71428H0ZM4.8 13.3333C4.8 13.7543 4.442 14.0952 4 14.0952H3.2C2.758 14.0952 2.4 13.7543 2.4 13.3333V12.5714C2.4 12.1505 2.758 11.8095 3.2 11.8095H4C4.442 11.8095 4.8 12.1505 4.8 12.5714V13.3333ZM4.8 9.14285C4.8 9.5638 4.442 9.90476 4 9.90476H3.2C2.758 9.90476 2.4 9.5638 2.4 9.14285V8.38095C2.4 7.95999 2.758 7.61904 3.2 7.61904H4C4.442 7.61904 4.8 7.95999 4.8 8.38095V9.14285ZM9.2 13.3333C9.2 13.7543 8.842 14.0952 8.4 14.0952H7.6C7.158 14.0952 6.8 13.7543 6.8 13.3333V12.5714C6.8 12.1505 7.158 11.8095 7.6 11.8095H8.4C8.842 11.8095 9.2 12.1505 9.2 12.5714V13.3333ZM9.2 9.14285C9.2 9.5638 8.842 9.90476 8.4 9.90476H7.6C7.158 9.90476 6.8 9.5638 6.8 9.14285V8.38095C6.8 7.95999 7.158 7.61904 7.6 7.61904H8.4C8.842 7.61904 9.2 7.95999 9.2 8.38095V9.14285ZM13.6 13.3333C13.6 13.7543 13.242 14.0952 12.8 14.0952H12C11.558 14.0952 11.2 13.7543 11.2 13.3333V12.5714C11.2 12.1505 11.558 11.8095 12 11.8095H12.8C13.242 11.8095 13.6 12.1505 13.6 12.5714V13.3333ZM13.6 9.14285C13.6 9.5638 13.242 9.90476 12.8 9.90476H12C11.558 9.90476 11.2 9.5638 11.2 9.14285V8.38095C11.2 7.95999 11.558 7.61904 12 7.61904H12.8C13.242 7.61904 13.6 7.95999 13.6 8.38095V9.14285Z" fill="#BF930F"/>
<path d="M16 4.95238V2.66666C16 1.82514 15.2836 1.14285 14.4 1.14285H14V1.52381C14 2.36419 13.2824 3.04761 12.4 3.04761C11.5176 3.04761 10.8 2.36419 10.8 1.52381V1.14285H5.2V1.52381C5.2 2.36419 4.4824 3.04761 3.6 3.04761C2.7176 3.04761 2 2.36419 2 1.52381V1.14285H1.6C0.7164 1.14285 0 1.82514 0 2.66666V4.95238H16Z" fill="#BF930F"/>
</svg>
