<svg width="60" height="60" viewBox="0 0 60 60" fill="none" xmlns="http://www.w3.org/2000/svg">
<path d="M60 57.3578C59.9995 55.2402 58.7402 53.3359 56.7915 52.5068L41.8445 46.1475V42.4209C43.427 40.4341 44.4277 38.0679 44.7628 35.5273H47.8184C50.7261 35.5273 53.0918 33.1616 53.0918 30.2539V22.6938C53.0918 20.0351 51.1134 17.831 48.5517 17.4725C48.1718 6.03523 41.7772 0.000488281 30.0002 0.000488281C18.2233 0.000488281 11.8287 6.03523 11.4488 17.4725C8.88709 17.831 6.90862 20.0351 6.90862 22.6938V30.2539C6.90862 33.1616 9.27436 35.5273 12.1821 35.5273H15.2377C15.5728 38.0684 16.5735 40.4346 18.156 42.4209V46.1475L3.20941 52.5068C1.26023 53.3359 0.000915534 55.2402 0 57.3583V58.2422C0 58.7087 0.184938 59.1559 0.514988 59.4855C0.84458 59.8151 1.29182 60.0005 1.75783 60.0005H58.2426C58.7091 60.0005 59.1563 59.8151 59.4859 59.4855C59.8155 59.1554 60.0005 58.7082 60.0005 58.2422L60 57.3578ZM38.3307 47.3808C38.3321 47.4229 38.4305 51.6893 35.9105 54.3136C34.5266 55.7542 32.5381 56.4844 30.0002 56.4844C27.4715 56.4844 25.488 55.7593 24.1051 54.3292C21.5549 51.6911 21.6689 47.4178 21.6698 47.3808C21.6712 47.357 21.6716 47.3336 21.6716 47.3098V45.5694C24.0786 47.0924 26.9497 47.9104 30.0002 47.9104C33.0508 47.9104 35.9219 47.0924 38.3288 45.5694V47.3098C38.3288 47.3336 38.3293 47.357 38.3307 47.3808ZM41.373 32.8288L38.029 35.0586C36.967 35.7668 35.7306 36.1412 34.4534 36.1412H31.4802C30.5097 36.1412 29.7224 36.9281 29.7224 37.899C29.7224 38.87 30.5097 39.6569 31.4802 39.6569H34.4534C36.4268 39.6569 38.338 39.0782 39.9796 37.9833L40.6525 37.5346C39.0663 41.6275 35.0096 44.3947 30.0002 44.3947C23.5169 44.3947 18.6275 39.7599 18.6275 33.6134V19.3627C19.3205 16.1409 20.3244 14.0933 21.5347 13.4369C22.74 12.7823 24.4915 13.463 26.1852 14.1208C27.5049 14.633 28.7514 15.1173 30.0002 15.1173C31.2605 15.1173 32.4919 14.628 33.796 14.1102C35.4916 13.4364 37.0933 12.8001 38.2799 13.419C39.1446 13.8699 40.3774 15.2739 41.373 19.3851V32.8288ZM49.5762 22.6938V30.2539C49.5762 31.223 48.7875 32.0117 47.8184 32.0117H44.8886V20.936H47.8184C48.7875 20.936 49.5762 21.7247 49.5762 22.6938ZM18.0983 7.82236C20.5327 4.96497 24.5368 3.51614 30.0002 3.51614C35.4637 3.51614 39.4678 4.96497 41.9022 7.82236C43.8188 10.0723 44.869 13.2982 45.0315 17.4204H44.4922C43.4307 13.6502 41.9576 11.3719 39.9054 10.3016C37.2911 8.93839 34.6333 9.994 32.4978 10.8427C31.5585 11.2158 30.5871 11.6017 29.9998 11.6017C29.4097 11.6017 28.4173 11.2162 27.4578 10.8436C25.2468 9.98439 22.4947 8.9155 19.8575 10.3465C17.8689 11.4259 16.4293 13.7472 15.4757 17.4204H14.969C15.131 13.2982 16.1816 10.0723 18.0983 7.82236ZM10.4243 30.2539V22.6938C10.4243 21.7247 11.213 20.936 12.1821 20.936H15.1118V32.0117H12.1821C11.213 32.0117 10.4243 31.223 10.4243 30.2539ZM4.58545 55.7419L18.3574 49.8825C18.6659 51.79 19.4322 54.3855 21.3109 56.4848H3.7482C3.93451 56.1594 4.22473 55.8952 4.58545 55.7419ZM38.6896 56.4848C40.5682 54.3855 41.3345 51.79 41.6431 49.8825L55.415 55.7419C55.7757 55.8952 56.0655 56.1594 56.2523 56.4848H38.6896Z" fill="white"/>
</svg>
