<svg width="48" height="48" viewBox="0 0 48 48" fill="none" xmlns="http://www.w3.org/2000/svg">
<path d="M48 45.8868C47.9996 44.1927 46.9922 42.6693 45.4332 42.0061L33.4756 36.9186V33.9373C34.7416 32.3479 35.5421 30.4549 35.8102 28.4225H38.2547C40.5809 28.4225 42.4735 26.5299 42.4735 24.2037V18.1557C42.4735 16.0287 40.8907 14.2654 38.8414 13.9786C38.5374 4.82877 33.4218 0.000976562 24.0002 0.000976562C14.5786 0.000976562 9.46296 4.82877 9.15901 13.9786C7.10967 14.2654 5.5269 16.0287 5.5269 18.1557V24.2037C5.5269 26.5299 7.41949 28.4225 9.74568 28.4225H12.1902C12.4582 30.4553 13.2588 32.3483 14.5248 33.9373V36.9186L2.56752 42.0061C1.00819 42.6693 0.000732427 44.1927 0 45.8872V46.5943C0 46.9675 0.14795 47.3253 0.41199 47.589C0.675664 47.8527 1.03346 48.001 1.40626 48.001H46.5941C46.9673 48.001 47.3251 47.8527 47.5887 47.589C47.8524 47.3249 48.0004 46.9672 48.0004 46.5943L48 45.8868ZM30.6645 37.9052C30.6656 37.9389 30.7444 41.352 28.7284 43.4515C27.6213 44.604 26.0305 45.1881 24.0002 45.1881C21.9772 45.1881 20.3904 44.608 19.2841 43.464C17.2439 41.3535 17.3351 37.9349 17.3358 37.9052C17.3369 37.8862 17.3373 37.8675 17.3373 37.8484V36.4561C19.2628 37.6745 21.5597 38.3289 24.0002 38.3289C26.4406 38.3289 28.7375 37.6745 30.6631 36.4561V37.8484C30.6631 37.8675 30.6634 37.8862 30.6645 37.9052ZM33.0984 26.2636L30.4232 28.0475C29.5736 28.614 28.5844 28.9136 27.5627 28.9136H25.1842C24.4078 28.9136 23.7779 29.5431 23.7779 30.3198C23.7779 31.0965 24.4078 31.7261 25.1842 31.7261H27.5627C29.1415 31.7261 30.6704 31.2632 31.9836 30.3872L32.522 30.0283C31.253 33.3026 28.0077 35.5164 24.0002 35.5164C18.8135 35.5164 14.902 31.8085 14.902 26.8913V15.4907C15.4564 12.9133 16.2595 11.2752 17.2278 10.7501C18.192 10.2264 19.5932 10.771 20.9482 11.2972C22.004 11.707 23.0012 12.0945 24.0002 12.0945C25.0084 12.0945 25.9935 11.703 27.0368 11.2888C28.3933 10.7497 29.6747 10.2407 30.6239 10.7358C31.3157 11.0965 32.3019 12.2197 33.0984 15.5087V26.2636ZM39.6609 18.1557V24.2037C39.6609 24.979 39.03 25.6099 38.2547 25.6099H35.9109V16.7494H38.2547C39.03 16.7494 39.6609 17.3804 39.6609 18.1557ZM14.4786 6.25847C16.4262 3.97256 19.6294 2.8135 24.0002 2.8135C28.3709 2.8135 31.5742 3.97256 33.5217 6.25847C35.0551 8.05841 35.8952 10.6391 36.0252 13.9369H35.5938C34.7445 10.9207 33.5661 9.09809 31.9243 8.24188C29.8329 7.1513 27.7066 7.99579 25.9982 8.67475C25.2468 8.97321 24.4697 9.28193 23.9998 9.28193C23.5278 9.28193 22.7338 8.97358 21.9662 8.67548C20.1974 7.9881 17.9957 7.13299 15.886 8.27777C14.2952 9.1413 13.1434 10.9984 12.3806 13.9369H11.9752C12.1048 10.6391 12.9453 8.05841 14.4786 6.25847ZM8.33942 24.2037V18.1557C8.33942 17.3804 8.97041 16.7494 9.74568 16.7494H12.0894V25.6099H9.74568C8.97041 25.6099 8.33942 24.979 8.33942 24.2037ZM3.66836 44.5941L14.6859 39.9066C14.9327 41.4326 15.5458 43.509 17.0487 45.1885H2.99856C3.14761 44.9281 3.37979 44.7168 3.66836 44.5941ZM30.9517 45.1885C32.4546 43.509 33.0676 41.4326 33.3145 39.9066L44.332 44.5941C44.6206 44.7168 44.8524 44.9281 45.0018 45.1885H30.9517Z" fill="#BF930F"/>
</svg>
