<svg width="18" height="18" viewBox="0 0 18 18" fill="none" xmlns="http://www.w3.org/2000/svg">
<path d="M12.802 12.802C13.2861 12.3179 13.2056 10.2616 13.2056 10.2616M12.802 12.802C12.318 13.286 10.2616 13.2054 10.2616 13.2054M12.802 12.802L9.84218 9.84206M5.19802 5.19795C5.68207 4.7139 7.73843 4.79445 7.73843 4.79445M5.19802 5.19795C4.71397 5.682 4.79458 7.73832 4.79458 7.73832M5.19802 5.19795L8.15797 8.15785" stroke="#BF930F" stroke-linecap="round" stroke-linejoin="round"/>
<path d="M1 9C1 5.22877 1 3.34315 2.17157 2.17157C3.34315 1 5.22877 1 9 1C12.7712 1 14.6568 1 15.8285 2.17157C17 3.34315 17 5.22877 17 9C17 12.7712 17 14.6568 15.8285 15.8285C14.6568 17 12.7712 17 9 17C5.22877 17 3.34315 17 2.17157 15.8285C1 14.6568 1 12.7712 1 9Z" stroke="#BF930F"/>
</svg>
