<svg width="23" height="16" viewBox="0 0 23 16" fill="none" xmlns="http://www.w3.org/2000/svg">
<path d="M19.0173 5.47588C19.6241 4.88167 19.9773 4.06996 19.9773 3.2C19.9773 1.43558 18.5419 0 16.7773 0C16.1943 0 15.6208 0.16025 15.118 0.463542C14.9499 0.565125 14.8958 0.7835 14.9971 0.95175C15.0985 1.12 15.3173 1.17362 15.4853 1.07258C15.8773 0.836125 16.3239 0.711125 16.7773 0.711125C18.1496 0.711125 19.2662 1.82763 19.2662 3.2C19.2662 4.04513 18.843 4.82413 18.1326 5.28488C17.536 5.67621 16.7798 5.78904 16.0891 5.59233C15.9023 5.5385 15.7037 5.64754 15.6496 5.83642C15.5957 6.02529 15.7051 6.222 15.894 6.276C16.1815 6.35829 16.4787 6.39996 16.7773 6.39996C17.3364 6.39996 17.8768 6.24746 18.3566 5.97204C20.1819 6.63342 21.3996 8.35671 21.3996 10.3111V12.0889H18.1574C17.9056 9.71404 16.4115 7.63588 14.2322 6.64908C14.9257 5.943 15.3551 4.97667 15.3551 3.91113C15.3551 1.7545 13.6006 0 11.444 0C9.28743 0 7.53289 1.7545 7.53289 3.91113C7.53289 4.977 7.96255 5.94363 8.65643 6.64979C7.92301 6.983 7.2428 7.44917 6.66589 8.02279C5.55993 9.13192 4.88693 10.5555 4.72718 12.089H1.48847V10.3112C1.48847 9.07992 1.96939 7.919 2.84126 7.04346C3.32122 6.56654 3.90555 6.20271 4.53472 5.97404C5.01459 6.24833 5.55339 6.4 6.11068 6.4C6.4093 6.4 6.70651 6.35833 6.99401 6.27604C7.18289 6.22204 7.29226 6.02533 7.23847 5.83646C7.1843 5.64758 6.98568 5.53871 6.79889 5.59237C6.10859 5.78942 5.35272 5.67675 4.75376 5.28404C4.04509 4.82413 3.6218 4.04517 3.6218 3.2C3.6218 1.82763 4.73847 0.711125 6.11068 0.711125C6.56414 0.711125 7.01068 0.836125 7.40268 1.07258C7.57143 1.17362 7.78914 1.11946 7.89089 0.95175C7.99226 0.783542 7.93809 0.565125 7.77005 0.463542C7.26726 0.16025 6.69368 0 6.11068 0C4.34609 0 2.91068 1.43558 2.91068 3.2C2.91068 4.06929 3.26339 4.88037 3.86834 5.47404C3.30447 5.73617 2.78368 6.09804 2.33847 6.54029C1.33184 7.55137 0.777344 8.89046 0.777344 10.3111V12.4445C0.777344 12.6408 0.936385 12.8 1.13289 12.8H4.68843V15.6445C4.68843 15.8408 4.84747 16 5.04397 16H17.844C18.0405 16 18.1995 15.8408 18.1995 15.6445V12.8H21.7551C21.9516 12.8 22.1106 12.6408 22.1106 12.4445V10.3111C22.1107 8.20883 20.8889 6.33867 19.0173 5.47588ZM8.24401 3.91113C8.24401 2.14671 9.67943 0.711125 11.444 0.711125C13.2086 0.711125 14.644 2.14671 14.644 3.91113C14.644 5.67554 13.2086 7.11113 11.444 7.11113C9.67943 7.11113 8.24401 5.6755 8.24401 3.91113ZM17.4885 15.2889H5.39955V12.8C5.39955 11.1878 6.02801 9.66963 7.1683 8.52588C7.76901 7.92838 8.49726 7.46492 9.27805 7.16508C9.89868 7.57954 10.6433 7.82221 11.444 7.82221C12.246 7.82221 12.992 7.57883 13.6132 7.16313C15.9373 8.05608 17.4885 10.2967 17.4885 12.8V15.2889Z" fill="#BF930F"/>
</svg>
