<svg width="18" height="18" viewBox="0 0 18 18" fill="none" xmlns="http://www.w3.org/2000/svg">
<path d="M16.3842 9.924L15.8036 9.25V4.642H16.3842V9.924ZM17.9766 3.284L17.0316 0.242C17.009 0.17029 16.9716 0.109221 16.9242 0.0662476C16.8768 0.023274 16.8213 0.000254893 16.7645 0H15.4233C15.3666 2.99856e-05 15.3113 0.0229841 15.264 0.0660091C15.2168 0.109034 15.1798 0.170233 15.1576 0.242L14.2126 3.284C14.1937 3.3449 14.1861 3.41129 14.1904 3.47725C14.1947 3.54321 14.2108 3.60667 14.2373 3.66195C14.2637 3.71723 14.2997 3.76262 14.342 3.79404C14.3843 3.82546 14.4316 3.84194 14.4797 3.842H17.7095C17.7576 3.84194 17.8049 3.82546 17.8472 3.79404C17.8895 3.76262 17.9255 3.71723 17.952 3.66195C17.9784 3.60667 17.9945 3.54321 17.9988 3.47725C18.0031 3.41129 17.9955 3.3449 17.9766 3.284ZM4.39835 7.92V7.492C4.39885 7.2079 4.48098 6.93563 4.62679 6.73474C4.77259 6.53385 4.97021 6.42069 5.17641 6.42H7.01849C7.22476 6.42037 7.4225 6.53343 7.56836 6.73439C7.71422 6.93535 7.79628 7.2078 7.79654 7.492V7.92H9.04202V7.492C9.04229 7.2078 9.12435 6.93535 9.2702 6.73439C9.41606 6.53343 9.6138 6.42037 9.82008 6.42H11.6622C11.8684 6.42069 12.066 6.53385 12.2118 6.73474C12.3576 6.93563 12.4397 7.2079 12.4402 7.492V7.92H13.9354V5.828C13.9348 5.24318 13.7659 4.68253 13.4658 4.269C13.1656 3.85547 12.7587 3.62279 12.3342 3.622H4.50432C4.07985 3.62279 3.67293 3.85547 3.37279 4.269C3.07265 4.68253 2.90378 5.24318 2.9032 5.828V7.92H4.39835ZM15.7513 11.28H16.6542L16.3842 10.968L15.8036 10.296L14.442 8.72H2.39659L0.184353 11.28H15.7513ZM1.30644 16.658H0.7258V17.6C0.72603 17.706 0.756691 17.8075 0.811087 17.8825C0.865483 17.9574 0.939193 17.9997 1.01612 18H2.42998C2.50691 17.9997 2.58062 17.9574 2.63501 17.8825C2.68941 17.8075 2.72007 17.706 2.7203 17.6V16.658H1.30644ZM14.6989 16.658H14.1183V17.6C14.1185 17.706 14.1492 17.8075 14.2036 17.8825C14.2579 17.9574 14.3317 17.9997 14.4086 18H15.8224C15.8994 17.9997 15.9731 17.9574 16.0275 17.8825C16.0819 17.8075 16.1125 17.706 16.1128 17.6V16.658H14.6989ZM0.58064 12.08H0V15.458C0.000229749 15.564 0.0308907 15.6655 0.0852866 15.7405C0.139682 15.8154 0.213393 15.8577 0.29032 15.858H16.5482C16.6252 15.8577 16.6989 15.8154 16.7533 15.7405C16.8077 15.6655 16.8383 15.564 16.8386 15.458V12.08H0.58064Z" fill="#BF930F"/>
</svg>
