<svg width="20" height="18" viewBox="0 0 20 18" fill="none" xmlns="http://www.w3.org/2000/svg">
<path d="M18.7778 13.8889H1" stroke="#BF930F" stroke-linecap="round" stroke-linejoin="round"/>
<path d="M18.7778 17V12.5556C18.7778 10.8795 18.7778 10.0414 18.2571 9.52071C17.7364 9 16.8983 9 15.2222 9H4.55556C2.87945 9 2.0414 9 1.5207 9.52071C1 10.0414 1 10.8795 1 12.5556V17" stroke="#BF930F" stroke-linecap="round" stroke-linejoin="round"/>
<path d="M8.99986 9.00004V7.41195C8.99986 7.07357 8.94902 6.96041 8.68849 6.82705C8.14609 6.5493 7.48755 6.33337 6.77764 6.33337C6.06773 6.33337 5.40924 6.5493 4.86675 6.82705C4.60627 6.96041 4.55542 7.07357 4.55542 7.41195V9.00004" stroke="#BF930F" stroke-linecap="round"/>
<path d="M15.222 9.00004V7.41195C15.222 7.07357 15.1712 6.96041 14.9107 6.82705C14.3683 6.5493 13.7098 6.33337 12.9998 6.33337C12.2899 6.33337 11.6314 6.5493 11.089 6.82705C10.8284 6.96041 10.7776 7.07357 10.7776 7.41195V9.00004" stroke="#BF930F" stroke-linecap="round"/>
<path d="M17.8889 9V4.87606C17.8889 4.26127 17.8889 3.95388 17.7182 3.66358C17.5473 3.37329 17.304 3.22303 16.8173 2.92252C14.855 1.71092 12.4661 1 9.88892 1C7.31173 1 4.92282 1.71092 2.96054 2.92252C2.47384 3.22303 2.23049 3.37329 2.0597 3.66358C1.88892 3.95388 1.88892 4.26127 1.88892 4.87606V9" stroke="#BF930F" stroke-linecap="round"/>
</svg>
