<svg width="219" height="40" viewBox="0 0 219 40" fill="none" xmlns="http://www.w3.org/2000/svg">
<path d="M39.9373 19.0565C39.8802 18.6288 39.487 18.3284 39.0596 18.3855C38.6319 18.4425 38.3315 18.8355 38.3885 19.2632C38.421 19.5068 38.4375 19.7547 38.4375 20C38.4375 22.6286 36.5786 25.1341 33.2033 27.055C29.6892 29.0548 25.0002 30.1562 20 30.1562C16.8404 30.1562 13.8055 29.716 11.1123 28.8877C10.284 26.1945 9.84375 23.1596 9.84375 20C9.84375 14.9998 10.9452 10.3108 12.945 6.79672C14.8659 3.42133 17.3714 1.5625 20 1.5625C22.2058 1.5625 23.9622 2.83453 25.2269 4.23305H24.4267C23.9953 4.23305 23.6455 4.58281 23.6455 5.0143C23.6455 5.44578 23.9953 5.79555 24.4267 5.79555H26.8505C27.282 5.79555 27.6318 5.44578 27.6318 5.0143V2.59039C27.6318 2.15891 27.282 1.80914 26.8505 1.80914C26.4191 1.80914 26.0693 2.15891 26.0693 2.59039V2.85359C24.2574 0.999844 22.1551 0 20 0C16.7855 0 13.7977 2.1393 11.587 6.02383C9.45523 9.76969 8.28125 14.7331 8.28125 20C8.28125 22.8939 8.63641 25.6956 9.30938 28.2546C8.42 27.9006 7.57906 27.5002 6.79672 27.0549C3.42141 25.1341 1.5625 22.6286 1.5625 20C1.5625 17.7812 2.84953 16.0168 4.25781 14.7504V15.5465C4.25781 15.978 4.60766 16.3277 5.03906 16.3277C5.47047 16.3277 5.82031 15.978 5.82031 15.5465V13.1226C5.82031 12.6911 5.47047 12.3413 5.03906 12.3413H2.61523C2.18383 12.3413 1.83398 12.6911 1.83398 13.1226C1.83398 13.5541 2.18383 13.9038 2.61523 13.9038H2.88148C1.01 15.7219 0 17.8342 0 20C0 23.2145 2.1393 26.2023 6.02383 28.413C7.1968 29.0805 8.48914 29.6541 9.87281 30.1271C10.3459 31.5108 10.9195 32.8032 11.587 33.9761C13.7977 37.8607 16.7855 40 20 40C21.8429 40 23.673 39.2673 25.2923 37.8809C25.62 37.6003 25.6584 37.1072 25.3777 36.7794C25.0972 36.4516 24.604 36.4134 24.2762 36.6939C22.9248 37.8509 21.486 38.4375 20 38.4375C17.3714 38.4375 14.8659 36.5787 12.945 33.2033C12.4998 32.4209 12.0993 31.5799 11.7454 30.6906C14.3044 31.3636 17.1061 31.7188 20 31.7188C25.2669 31.7188 30.2303 30.5448 33.9762 28.413C37.8607 26.2023 40 23.2145 40 20C40 19.6858 39.9788 19.3684 39.9373 19.0565Z" fill="#BF930F"/>
<path d="M38.9778 16.2602C38.977 16.2589 38.9758 16.2564 38.9745 16.2543C38.7672 15.8798 38.2963 15.7418 37.9191 15.946C37.5397 16.1514 37.3987 16.6256 37.6042 17.005C37.6053 17.007 37.6095 17.0145 37.6106 17.0165C37.7531 17.2743 38.0199 17.4197 38.2949 17.4197C38.4229 17.4197 38.5526 17.3882 38.6724 17.322C39.0499 17.1132 39.1867 16.6378 38.9778 16.2602Z" fill="#BF930F"/>
<path d="M27.296 34.3599C26.9455 34.1089 26.4547 34.194 26.2032 34.5436C26.2018 34.5455 26.2005 34.5473 26.1992 34.5492C25.9506 34.901 26.03 35.3928 26.3814 35.6422C26.5172 35.7386 26.6739 35.7848 26.8294 35.7848C27.0761 35.7848 27.3199 35.6688 27.4733 35.4537C27.7235 35.103 27.6462 34.6108 27.296 34.3599Z" fill="#BF930F"/>
<path d="M25.5098 17.7494C25.4965 16.6507 24.5948 15.7569 23.4997 15.7569H20.7441V13.6963C20.7441 13.4539 20.9412 13.2568 21.1836 13.2568H23.4488C23.8802 13.2568 24.2301 12.9071 24.2301 12.4756C24.2301 12.0441 23.8802 11.6943 23.4488 11.6943H21.1836C20.0797 11.6943 19.1816 12.5924 19.1816 13.6963V20.0032C19.1816 21.1071 20.0797 22.0052 21.1836 22.0052H23.4997C24.5948 22.0052 25.4965 21.1114 25.5098 20.0127C25.5098 20.0095 25.5098 20.0064 25.5098 20.0032V17.7589C25.5098 17.7557 25.5098 17.7525 25.5098 17.7494ZM23.9472 19.9973C23.9423 20.2432 23.7423 20.4426 23.4996 20.4426H21.1835C20.9412 20.4426 20.7441 20.2455 20.7441 20.0032V17.3193H23.4996C23.7423 17.3193 23.9423 17.5189 23.9472 17.7647V19.9973Z" fill="#BF930F"/>
<path d="M30.6953 11.6943H28.3711C27.2672 11.6943 26.3691 12.5924 26.3691 13.6963V20.0032C26.3691 21.1071 27.2672 22.0052 28.3711 22.0052H30.6953C31.7992 22.0052 32.6973 21.1071 32.6973 20.0032V13.6963C32.6973 12.5924 31.7992 11.6943 30.6953 11.6943ZM31.1348 20.0032C31.1348 20.2456 30.9377 20.4427 30.6953 20.4427H28.3711C28.1287 20.4427 27.9316 20.2456 27.9316 20.0032V13.6963C27.9316 13.4539 28.1287 13.2568 28.3711 13.2568H30.6953C30.9377 13.2568 31.1348 13.4539 31.1348 13.6963V20.0032Z" fill="#BF930F"/>
<path d="M16.3169 11.6943H14.3223C13.2184 11.6943 12.3203 12.5924 12.3203 13.6963V13.7239C12.3203 14.1554 12.6702 14.5051 13.1016 14.5051C13.533 14.5051 13.8828 14.1554 13.8828 13.7239V13.6963C13.8828 13.4539 14.0799 13.2568 14.3223 13.2568H16.3169C16.5592 13.2568 16.7563 13.4539 16.7563 13.6963V16.0686H14.7524C14.321 16.0686 13.9712 16.4183 13.9712 16.8498C13.9712 17.2813 14.321 17.6311 14.7524 17.6311H16.7563V20.0032C16.7563 20.2456 16.5592 20.4427 16.3169 20.4427H14.3223C14.0799 20.4427 13.8828 20.2456 13.8828 20.0032V19.8951C13.8828 19.4636 13.533 19.1139 13.1016 19.1139C12.6702 19.1139 12.3203 19.4636 12.3203 19.8951V20.0032C12.3203 21.1071 13.2184 22.0052 14.3223 22.0052H16.3169C17.4208 22.0052 18.3188 21.1071 18.3188 20.0032V13.6963C18.3188 12.5924 17.4208 11.6943 16.3169 11.6943Z" fill="#BF930F"/>
<path d="M35.8555 10.4038C34.7128 10.4038 33.7832 11.3334 33.7832 12.4761C33.7832 13.6187 34.7128 14.5483 35.8555 14.5483C36.9981 14.5483 37.9277 13.6187 37.9277 12.4761C37.9277 11.3334 36.9981 10.4038 35.8555 10.4038ZM35.8555 12.9858C35.5745 12.9858 35.3457 12.7571 35.3457 12.476C35.3457 12.1949 35.5745 11.9662 35.8555 11.9662C36.1366 11.9662 36.3652 12.1949 36.3652 12.476C36.3652 12.7571 36.1365 12.9858 35.8555 12.9858Z" fill="#BF930F"/>
<path d="M60.704 27.692C60.0747 27.692 59.488 27.58 58.944 27.356C58.4 27.132 57.9307 26.8173 57.536 26.412C57.1413 25.996 56.848 25.5053 56.656 24.94L57.984 24.396C58.208 24.9933 58.56 25.4573 59.04 25.788C59.52 26.1187 60.0747 26.284 60.704 26.284C61.1947 26.284 61.632 26.188 62.016 25.996C62.4 25.804 62.6987 25.5267 62.912 25.164C63.136 24.8013 63.248 24.364 63.248 23.852C63.248 23.3293 63.136 22.892 62.912 22.54C62.6987 22.1773 62.4 21.9 62.016 21.708C61.632 21.516 61.1893 21.42 60.688 21.42C60.528 21.42 60.352 21.4307 60.16 21.452C59.9787 21.4733 59.824 21.5053 59.696 21.548L59.36 20.828L62.544 16.94H57.264V15.58H64.32V16.892L61.28 20.636L61.184 20.22C61.8987 20.2413 62.528 20.4067 63.072 20.716C63.616 21.0253 64.0427 21.4467 64.352 21.98C64.6613 22.5027 64.816 23.116 64.816 23.82C64.816 24.5453 64.64 25.2013 64.288 25.788C63.936 26.3747 63.4507 26.8387 62.832 27.18C62.2133 27.5213 61.504 27.692 60.704 27.692ZM70.5816 27.692C69.8136 27.692 69.131 27.5213 68.5336 27.18C67.947 26.8387 67.483 26.3747 67.1416 25.788C66.8003 25.1907 66.6296 24.5133 66.6296 23.756C66.6296 23.34 66.6776 22.9293 66.7736 22.524C66.8696 22.1187 67.0243 21.708 67.2376 21.292C67.451 20.876 67.723 20.444 68.0536 19.996L71.4136 15.58H73.3016L69.1896 20.924L68.9016 20.892C69.0616 20.6787 69.2376 20.5133 69.4296 20.396C69.6323 20.2787 69.8456 20.1933 70.0696 20.14C70.3043 20.0867 70.5496 20.06 70.8056 20.06C71.5096 20.06 72.139 20.2253 72.6936 20.556C73.259 20.876 73.7016 21.3187 74.0216 21.884C74.3523 22.4493 74.5176 23.1 74.5176 23.836C74.5176 24.572 74.347 25.2333 74.0056 25.82C73.6643 26.396 73.195 26.8547 72.5976 27.196C72.011 27.5267 71.339 27.692 70.5816 27.692ZM70.5816 26.284C71.0296 26.284 71.4296 26.1827 71.7816 25.98C72.1336 25.7667 72.411 25.4733 72.6136 25.1C72.827 24.7267 72.9336 24.3107 72.9336 23.852C72.9336 23.372 72.8323 22.956 72.6296 22.604C72.427 22.2413 72.1496 21.9533 71.7976 21.74C71.4456 21.5267 71.0403 21.42 70.5816 21.42C70.1336 21.42 69.7283 21.5267 69.3656 21.74C69.003 21.9533 68.7203 22.2413 68.5176 22.604C68.315 22.956 68.2136 23.372 68.2136 23.852C68.2136 24.3107 68.315 24.7267 68.5176 25.1C68.731 25.4733 69.0136 25.7667 69.3656 25.98C69.7283 26.1827 70.1336 26.284 70.5816 26.284ZM81.1518 27.692C80.2024 27.692 79.3704 27.436 78.6558 26.924C77.9518 26.4013 77.4024 25.6813 77.0078 24.764C76.6131 23.836 76.4158 22.7587 76.4158 21.532C76.4158 20.3053 76.6131 19.2333 77.0078 18.316C77.4024 17.388 77.9518 16.668 78.6558 16.156C79.3598 15.644 80.1864 15.388 81.1358 15.388C82.0851 15.388 82.9118 15.644 83.6158 16.156C84.3198 16.668 84.8691 17.388 85.2638 18.316C85.6691 19.2333 85.8718 20.3053 85.8718 21.532C85.8718 22.7587 85.6744 23.836 85.2798 24.764C84.8851 25.692 84.3304 26.412 83.6158 26.924C82.9118 27.436 82.0904 27.692 81.1518 27.692ZM81.1518 26.236C81.7918 26.236 82.3464 26.044 82.8158 25.66C83.2851 25.2653 83.6478 24.716 83.9038 24.012C84.1704 23.308 84.3038 22.4813 84.3038 21.532C84.3038 20.5827 84.1704 19.756 83.9038 19.052C83.6478 18.348 83.2798 17.804 82.7998 17.42C82.3304 17.036 81.7758 16.844 81.1358 16.844C80.4958 16.844 79.9411 17.036 79.4718 17.42C79.0024 17.804 78.6344 18.348 78.3678 19.052C78.1118 19.756 77.9838 20.5827 77.9838 21.532C77.9838 22.4707 78.1118 23.292 78.3678 23.996C78.6344 24.7 79.0024 25.2493 79.4718 25.644C79.9518 26.0387 80.5118 26.236 81.1518 26.236Z" fill="white"/>
<path d="M90.512 18.596C90.0907 18.596 89.696 18.5213 89.328 18.372C88.96 18.2173 88.6373 18.0013 88.36 17.724C88.088 17.4467 87.8747 17.1213 87.72 16.748C87.5653 16.3693 87.488 15.9587 87.488 15.516C87.488 15.068 87.5653 14.6573 87.72 14.284C87.8747 13.9107 88.088 13.5853 88.36 13.308C88.6373 13.0307 88.9573 12.8173 89.32 12.668C89.688 12.5187 90.0853 12.444 90.512 12.444C90.9387 12.444 91.3333 12.5213 91.696 12.676C92.064 12.8253 92.384 13.0387 92.656 13.316C92.9333 13.588 93.1493 13.9107 93.304 14.284C93.464 14.6573 93.544 15.068 93.544 15.516C93.544 15.9587 93.464 16.3693 93.304 16.748C93.1493 17.1213 92.9333 17.4467 92.656 17.724C92.384 18.0013 92.064 18.2173 91.696 18.372C91.3333 18.5213 90.9387 18.596 90.512 18.596ZM90.512 17.868C90.8427 17.868 91.144 17.8093 91.416 17.692C91.688 17.5693 91.9227 17.4013 92.12 17.188C92.3227 16.9693 92.4773 16.7187 92.584 16.436C92.696 16.148 92.752 15.8413 92.752 15.516C92.752 15.1907 92.696 14.8867 92.584 14.604C92.4773 14.3213 92.3227 14.0733 92.12 13.86C91.9227 13.6413 91.688 13.4733 91.416 13.356C91.144 13.2333 90.8427 13.172 90.512 13.172C90.1867 13.172 89.888 13.2333 89.616 13.356C89.344 13.4733 89.1067 13.6413 88.904 13.86C88.7067 14.0733 88.552 14.3213 88.44 14.604C88.328 14.8867 88.272 15.1907 88.272 15.516C88.272 15.8413 88.328 16.148 88.44 16.436C88.552 16.7187 88.7067 16.9693 88.904 17.188C89.1067 17.4013 89.344 17.5693 89.616 17.692C89.888 17.8093 90.1867 17.868 90.512 17.868Z" fill="white"/>
<path d="M107.48 26L103.176 14.08H104.856L108.504 24.56H108.168L111.816 14.08H113.496L109.208 26H107.48ZM114.824 26V17.376H116.312V26H114.824ZM114.824 16V14.08H116.312V16H114.824ZM122.589 26.192C121.757 26.192 121.015 25.9947 120.365 25.6C119.714 25.2053 119.202 24.6667 118.829 23.984C118.455 23.2907 118.269 22.5173 118.269 21.664C118.269 20.8 118.45 20.032 118.813 19.36C119.186 18.688 119.687 18.16 120.317 17.776C120.957 17.3813 121.671 17.184 122.461 17.184C123.101 17.184 123.666 17.3013 124.157 17.536C124.658 17.76 125.079 18.0693 125.421 18.464C125.773 18.848 126.039 19.2907 126.221 19.792C126.413 20.2827 126.509 20.7947 126.509 21.328C126.509 21.4453 126.498 21.5787 126.477 21.728C126.466 21.8667 126.45 22 126.429 22.128H119.357V20.848H125.565L124.861 21.424C124.957 20.8693 124.903 20.3733 124.701 19.936C124.498 19.4987 124.199 19.152 123.805 18.896C123.41 18.64 122.962 18.512 122.461 18.512C121.959 18.512 121.501 18.64 121.085 18.896C120.669 19.152 120.343 19.52 120.109 20C119.885 20.4693 119.794 21.0293 119.837 21.68C119.794 22.3093 119.89 22.864 120.125 23.344C120.37 23.8133 120.711 24.1813 121.149 24.448C121.597 24.704 122.082 24.832 122.605 24.832C123.181 24.832 123.666 24.6987 124.061 24.432C124.455 24.1653 124.775 23.824 125.021 23.408L126.269 24.048C126.098 24.4427 125.831 24.8053 125.469 25.136C125.117 25.456 124.695 25.712 124.205 25.904C123.725 26.096 123.186 26.192 122.589 26.192ZM130.433 26L127.473 17.376H129.121L131.473 24.592L130.897 24.576L133.201 17.376H134.609L136.913 24.576L136.337 24.592L138.705 17.376H140.337L137.377 26H135.953L133.681 18.8H134.129L131.857 26H130.433ZM149.455 26V15.52H146.223V14.08H154.223V15.52H151.039V26H149.455ZM155.558 26V13.888H157.046V19.056L156.774 18.912C156.988 18.368 157.329 17.9467 157.798 17.648C158.278 17.3387 158.838 17.184 159.478 17.184C160.097 17.184 160.646 17.3227 161.126 17.6C161.617 17.8773 162.001 18.2613 162.278 18.752C162.566 19.2427 162.71 19.7973 162.71 20.416V26H161.206V20.896C161.206 20.416 161.116 20.0107 160.934 19.68C160.764 19.3493 160.524 19.0933 160.214 18.912C159.905 18.72 159.548 18.624 159.142 18.624C158.748 18.624 158.39 18.72 158.07 18.912C157.75 19.0933 157.5 19.3547 157.318 19.696C157.137 20.0267 157.046 20.4267 157.046 20.896V26H155.558ZM168.808 26.192C167.976 26.192 167.234 25.9947 166.584 25.6C165.933 25.2053 165.421 24.6667 165.048 23.984C164.674 23.2907 164.488 22.5173 164.488 21.664C164.488 20.8 164.669 20.032 165.032 19.36C165.405 18.688 165.906 18.16 166.536 17.776C167.176 17.3813 167.89 17.184 168.68 17.184C169.32 17.184 169.885 17.3013 170.376 17.536C170.877 17.76 171.298 18.0693 171.64 18.464C171.992 18.848 172.258 19.2907 172.44 19.792C172.632 20.2827 172.727 20.7947 172.727 21.328C172.727 21.4453 172.717 21.5787 172.696 21.728C172.685 21.8667 172.669 22 172.648 22.128H165.576V20.848H171.784L171.08 21.424C171.176 20.8693 171.122 20.3733 170.92 19.936C170.717 19.4987 170.418 19.152 170.024 18.896C169.629 18.64 169.181 18.512 168.68 18.512C168.178 18.512 167.72 18.64 167.304 18.896C166.888 19.152 166.562 19.52 166.328 20C166.104 20.4693 166.013 21.0293 166.056 21.68C166.013 22.3093 166.109 22.864 166.344 23.344C166.589 23.8133 166.93 24.1813 167.368 24.448C167.816 24.704 168.301 24.832 168.824 24.832C169.4 24.832 169.885 24.6987 170.28 24.432C170.674 24.1653 170.994 23.824 171.24 23.408L172.488 24.048C172.317 24.4427 172.05 24.8053 171.688 25.136C171.336 25.456 170.914 25.712 170.424 25.904C169.944 26.096 169.405 26.192 168.808 26.192ZM177.609 26V14.08H179.177V19.392H185.145V14.08H186.729V26H185.145V20.832H179.177V26H177.609ZM193.295 26.192C192.463 26.192 191.711 26 191.039 25.616C190.367 25.2213 189.834 24.6827 189.439 24C189.044 23.3173 188.847 22.544 188.847 21.68C188.847 20.816 189.039 20.048 189.423 19.376C189.818 18.704 190.351 18.1707 191.023 17.776C191.695 17.3813 192.452 17.184 193.295 17.184C194.127 17.184 194.879 17.3813 195.551 17.776C196.223 18.16 196.751 18.688 197.135 19.36C197.53 20.032 197.727 20.8053 197.727 21.68C197.727 22.5547 197.524 23.3333 197.119 24.016C196.714 24.688 196.175 25.2213 195.503 25.616C194.842 26 194.106 26.192 193.295 26.192ZM193.295 24.752C193.828 24.752 194.308 24.6187 194.735 24.352C195.172 24.0853 195.514 23.7173 195.759 23.248C196.015 22.7787 196.143 22.256 196.143 21.68C196.143 21.0933 196.015 20.576 195.759 20.128C195.514 19.6693 195.172 19.3067 194.735 19.04C194.308 18.7627 193.828 18.624 193.295 18.624C192.751 18.624 192.26 18.7627 191.823 19.04C191.396 19.3067 191.055 19.6693 190.799 20.128C190.543 20.576 190.415 21.0933 190.415 21.68C190.415 22.256 190.543 22.7787 190.799 23.248C191.055 23.7173 191.396 24.0853 191.823 24.352C192.26 24.6187 192.751 24.752 193.295 24.752ZM203.015 26.096C202.173 26.096 201.522 25.856 201.063 25.376C200.615 24.896 200.391 24.2187 200.391 23.344V18.8H198.823V17.376H199.143C199.527 17.376 199.831 17.2587 200.055 17.024C200.279 16.7893 200.391 16.48 200.391 16.096V15.392H201.879V17.376H203.815V18.8H201.879V23.296C201.879 23.584 201.922 23.8347 202.007 24.048C202.103 24.2613 202.258 24.432 202.471 24.56C202.685 24.6773 202.967 24.736 203.319 24.736C203.394 24.736 203.485 24.7307 203.591 24.72C203.709 24.7093 203.815 24.6987 203.911 24.688V26C203.773 26.032 203.618 26.0533 203.447 26.064C203.277 26.0853 203.133 26.096 203.015 26.096ZM209.589 26.192C208.757 26.192 208.015 25.9947 207.365 25.6C206.714 25.2053 206.202 24.6667 205.829 23.984C205.455 23.2907 205.269 22.5173 205.269 21.664C205.269 20.8 205.45 20.032 205.813 19.36C206.186 18.688 206.687 18.16 207.317 17.776C207.957 17.3813 208.671 17.184 209.461 17.184C210.101 17.184 210.666 17.3013 211.157 17.536C211.658 17.76 212.079 18.0693 212.421 18.464C212.773 18.848 213.039 19.2907 213.221 19.792C213.413 20.2827 213.509 20.7947 213.509 21.328C213.509 21.4453 213.498 21.5787 213.477 21.728C213.466 21.8667 213.45 22 213.429 22.128H206.357V20.848H212.565L211.861 21.424C211.957 20.8693 211.903 20.3733 211.701 19.936C211.498 19.4987 211.199 19.152 210.805 18.896C210.41 18.64 209.962 18.512 209.461 18.512C208.959 18.512 208.501 18.64 208.085 18.896C207.669 19.152 207.343 19.52 207.109 20C206.885 20.4693 206.794 21.0293 206.837 21.68C206.794 22.3093 206.89 22.864 207.125 23.344C207.37 23.8133 207.711 24.1813 208.149 24.448C208.597 24.704 209.082 24.832 209.605 24.832C210.181 24.832 210.666 24.6987 211.061 24.432C211.455 24.1653 211.775 23.824 212.021 23.408L213.269 24.048C213.098 24.4427 212.831 24.8053 212.469 25.136C212.117 25.456 211.695 25.712 211.205 25.904C210.725 26.096 210.186 26.192 209.589 26.192ZM215.449 26V13.888H216.937V26H215.449Z" fill="#D8DBDC"/>
</svg>
