<svg width="56" height="56" viewBox="0 0 56 56" fill="none" xmlns="http://www.w3.org/2000/svg">
<g clip-path="url(#clip0_147_11050)">
<path d="M35.4667 35.5609V27.0666C35.4667 25.5229 34.2104 24.2666 32.6667 24.2666H6.53333C4.9896 24.2666 3.73333 25.5229 3.73333 27.0666V35.5609C1.60627 35.9949 0 37.8802 0 40.1333V45.7333V55.0666C0 55.5818 0.418133 55.9999 0.933333 55.9999H4.66667C5.18187 55.9999 5.6 55.5818 5.6 55.0666V52.2666H33.6V55.0666C33.6 55.5818 34.0181 55.9999 34.5333 55.9999H38.2667C38.7819 55.9999 39.2 55.5818 39.2 55.0666V45.7333V40.1333C39.2 37.8802 37.5937 35.9949 35.4667 35.5609ZM5.6 27.0666C5.6 26.5523 6.01907 26.1333 6.53333 26.1333H32.6667C33.1809 26.1333 33.6 26.5523 33.6 27.0666V35.4666H31.7333V31.7333C31.7333 30.1895 30.4771 28.9333 28.9333 28.9333H23.3333C21.7896 28.9333 20.5333 30.1895 20.5333 31.7333V35.4666H18.6667V31.7333C18.6667 30.1895 17.4104 28.9333 15.8667 28.9333H10.2667C8.72293 28.9333 7.46667 30.1895 7.46667 31.7333V35.4666H5.6V27.0666ZM29.8667 31.7333V35.4666H22.4V31.7333C22.4 31.219 22.8191 30.7999 23.3333 30.7999H28.9333C29.4476 30.7999 29.8667 31.219 29.8667 31.7333ZM16.8 31.7333V35.4666H9.33333V31.7333C9.33333 31.219 9.7524 30.7999 10.2667 30.7999H15.8667C16.3809 30.7999 16.8 31.219 16.8 31.7333ZM37.3333 54.1333H35.4667V51.3333C35.4667 50.8181 35.0485 50.3999 34.5333 50.3999H4.66667C4.15147 50.3999 3.73333 50.8181 3.73333 51.3333V54.1333H1.86667V46.6666H37.3333V54.1333ZM37.3333 44.7999H1.86667V40.1333C1.86667 38.5895 3.12293 37.3333 4.66667 37.3333H8.4H17.7333H21.4667H30.8H34.5333C36.0771 37.3333 37.3333 38.5895 37.3333 40.1333V44.7999Z" fill="#BF930F"/>
<path d="M55.0667 35.4668H42C41.4848 35.4668 41.0667 35.8849 41.0667 36.4001V43.8668V50.4001H42.9333V44.8001H54.1333V50.4001H56V43.8668V36.4001C56 35.8849 55.5819 35.4668 55.0667 35.4668ZM54.1333 42.9335H42.9333V37.3335H54.1333V42.9335Z" fill="#BF930F"/>
<path d="M50.4001 39.2002H46.6667V41.0669H50.4001V39.2002Z" fill="#BF930F"/>
<path d="M53.1525 27.7043L51.2858 22.1043C51.158 21.7235 50.8024 21.4668 50.4001 21.4668H46.6668C46.2645 21.4668 45.9089 21.7235 45.781 22.1052L43.9144 27.7052C43.8192 27.9899 43.8677 28.3025 44.0432 28.5461C44.2186 28.7897 44.5005 28.9335 44.8001 28.9335H47.6001V31.7335H45.7334V33.6001H51.3334V31.7335H49.4668V28.9335H52.2668C52.5664 28.9335 52.8482 28.7897 53.0237 28.5452C53.1992 28.3016 53.2468 27.9889 53.1525 27.7043ZM46.0946 27.0668L47.3397 23.3335H49.7281L50.9722 27.0668H46.0946Z" fill="#BF930F"/>
<path d="M55.4484 12.2145L28.3817 0.0812C28.1381 -0.0270667 27.8609 -0.0270667 27.6183 0.0812L0.5516 12.2145C0.2156 12.3657 0 12.6989 0 13.0667V24.2667H1.86667V13.6705L28 1.95627L54.1333 13.6715V24.2667H56V13.0667C56 12.6989 55.7844 12.3657 55.4484 12.2145Z" fill="#BF930F"/>
<path d="M34.4427 12.9119L32.6012 13.2217C32.6451 13.4765 32.6666 13.7379 32.6666 14.0001C32.6666 16.5733 30.5731 18.6668 27.9999 18.6668C25.4267 18.6668 23.3332 16.5733 23.3332 14.0001C23.3332 11.4269 25.4267 9.33346 27.9999 9.33346C28.5338 9.33346 29.0583 9.42306 29.5567 9.59946L30.1783 7.8392C29.4792 7.59186 28.7466 7.4668 27.9999 7.4668C24.3972 7.4668 21.4666 10.3975 21.4666 14.0001C21.4666 17.6028 24.3972 20.5335 27.9999 20.5335C31.6026 20.5335 34.5332 17.6028 34.5332 14.0001C34.5332 13.6343 34.5024 13.2684 34.4427 12.9119Z" fill="#BF930F"/>
<path d="M33.8734 7.74023L27.9999 13.6137L26.7931 12.4069L25.4734 13.7266L27.3401 15.5933C27.5221 15.7753 27.761 15.8668 27.9999 15.8668C28.2389 15.8668 28.4778 15.7753 28.6598 15.5933L35.1931 9.05997L33.8734 7.74023Z" fill="#BF930F"/>
</g>
<defs>
<clipPath id="clip0_147_11050">
<rect width="56" height="56" fill="white"/>
</clipPath>
</defs>
</svg>
