<svg width="49" height="56" viewBox="0 0 49 56" fill="none" xmlns="http://www.w3.org/2000/svg">
<path d="M21.8711 29.4008L31.2431 20.0289C31.6702 19.6017 32.3627 19.6019 32.79 20.0289C33.2171 20.456 33.2171 21.1485 32.79 21.5758L22.5485 31.8171C22.3428 32.0227 22.0643 32.1374 21.7752 32.1374C21.754 32.1374 21.7326 32.1369 21.7113 32.1356C21.3995 32.1173 21.1105 31.9668 20.9169 31.7217L16.0751 25.5927C15.7006 25.1187 15.7813 24.4309 16.2552 24.0564C16.7295 23.6819 17.4171 23.7627 17.7915 24.2366L21.8711 29.4008ZM24.4748 10.9629C32.7238 10.9629 39.4348 17.6739 39.4348 25.9229C39.4348 34.1718 32.7238 40.8828 24.4748 40.8828C16.2259 40.8828 9.51486 34.1719 9.51486 25.923C9.51486 17.6739 16.2259 10.9629 24.4748 10.9629ZM24.4748 13.1504C17.432 13.1504 11.7024 18.8801 11.7024 25.9229C11.7024 32.9656 17.432 38.6954 24.4748 38.6954C31.5177 38.6954 37.2473 32.9657 37.2473 25.923C37.2473 18.8802 31.5177 13.1504 24.4748 13.1504ZM48.9497 7.54163V27.9698C48.9497 31.267 48.1573 34.5867 46.5945 37.8365C45.1943 40.7485 43.2115 43.541 40.7014 46.1365C36.1615 50.8307 30.2013 54.5041 24.7579 55.9626C24.6652 55.9875 24.57 56 24.4748 56C24.3797 56 24.2845 55.9875 24.1918 55.9627C18.7484 54.5042 12.7882 50.8309 8.2483 46.1366C5.73814 43.5411 3.75539 40.7486 2.35517 37.8366C0.792422 34.5868 0 31.267 0 27.9699V7.54163C0 6.97123 0.438375 6.49655 1.00702 6.45127C7.73106 5.91642 13.4097 2.75844 16.9897 0.203438C17.175 0.0710937 17.3973 0 17.6251 0H31.3246C31.5524 0 31.7745 0.0710937 31.96 0.203438C35.5399 2.75844 41.2186 5.91642 47.9427 6.45127C48.5113 6.49655 48.9497 6.97123 48.9497 7.54163ZM46.7622 8.53311C41.4615 7.91405 36.0323 5.73377 30.9767 2.1875H17.9729C12.9174 5.73377 7.48825 7.91405 2.18761 8.53311V27.9699C2.18761 40.6096 15.2627 51.161 24.475 53.7717C33.6872 51.1609 46.7623 40.6095 46.7623 27.9699V8.53311H46.7622Z" fill="#BF930F"/>
</svg>
