<svg width="45" height="64" viewBox="0 0 45 64" fill="none" xmlns="http://www.w3.org/2000/svg">
<path d="M44.3102 54.16L36.2163 15.1996C35.9879 14.1007 35.3549 13.2215 34.3856 12.6565L22.8267 5.91948C21.3875 5.08065 19.6264 4.28312 17.4729 4.73021C17.3163 4.76272 17.162 4.80233 17.0095 4.84685C16.6477 4.35795 16.2447 3.88532 15.7969 3.43732C13.9195 1.5602 11.5713 0.364476 9.18448 0.0704165C6.70246 -0.235127 4.47205 0.460216 2.90356 2.0287C1.33494 3.59719 0.639472 5.82786 0.945273 8.30963C1.21482 10.4972 2.24357 12.6512 3.85838 14.441L1.29069 16.7506C0.446444 17.5101 0.000128959 18.5118 0.000128959 19.6476L0 60.1033C0 62.2519 1.74797 63.9999 3.89658 63.9999L29.0541 64C31.084 64 32.7554 62.4395 32.9339 60.4553L41.324 58.7122C43.4023 58.2805 44.7418 56.2385 44.3102 54.16ZM2.99427 8.05724C2.76795 6.22024 3.25427 4.59769 4.36341 3.48842C5.47255 2.37941 7.09433 1.89309 8.9321 2.11941C10.8642 2.35747 12.7836 3.34391 14.3368 4.89717C14.5516 5.11201 14.7537 5.33368 14.9449 5.56C13.4876 5.93457 12.3519 6.80101 11.4037 7.65403L5.39294 13.0608C4.05928 11.5843 3.2122 9.82663 2.99427 8.05724ZM30.886 60.1036C30.886 61.1137 30.0642 61.9356 29.0541 61.9356L3.89658 61.9355C2.8864 61.9355 2.06448 61.1136 2.06448 60.1034L2.06461 19.6477C2.06461 19.0983 2.26306 18.6528 2.67144 18.2856L12.7842 9.18897C14.0711 8.03157 15.0845 7.51067 16.2095 7.441C16.9016 8.77852 17.2285 10.1819 17.1659 11.4732C15.8769 11.2594 14.5066 11.6474 13.5143 12.6397C11.8819 14.2724 11.8819 16.9288 13.5145 18.5617C14.3308 19.3781 15.4032 19.7862 16.4755 19.7862C17.548 19.7862 18.6201 19.3779 19.4363 18.5617C20.2273 17.7709 20.6629 16.7193 20.6629 15.6007C20.6629 14.4823 20.2273 13.4307 19.4364 12.6397C19.3398 12.5431 19.2393 12.4527 19.1359 12.3675C19.3335 10.9987 19.1837 9.52535 18.7023 8.07776C19.1624 8.35079 19.6417 8.71684 20.1667 9.18909L30.2795 18.2858C30.6878 18.6532 30.8863 19.0987 30.8863 19.648L30.886 60.1036ZM18.5983 15.6006C18.5983 16.1678 18.3775 16.7007 17.9765 17.1019C17.5756 17.5028 17.0424 17.7237 16.4753 17.7237C16.1601 17.7237 15.8564 17.6531 15.579 17.5235C16.1796 17.2092 16.7243 16.8114 17.2052 16.3305C17.6918 15.8439 18.0878 15.2952 18.3967 14.7011C18.5273 14.9794 18.5983 15.2842 18.5983 15.6006ZM14.9739 14.0996C15.388 13.6857 15.9316 13.4787 16.4753 13.4787C16.5485 13.4787 16.6215 13.4831 16.6943 13.4906C16.4631 14.0005 16.149 14.4671 15.7454 14.8708C15.3481 15.2682 14.885 15.5847 14.365 15.8188C14.3022 15.205 14.5048 14.5689 14.9739 14.0996ZM40.9042 56.6908L32.9504 58.3433L32.9505 19.6477C32.9505 18.512 32.5042 17.5104 31.66 16.7509L21.5471 7.65415C21.4638 7.57919 21.3788 7.50422 21.2927 7.42951C21.4529 7.5139 21.6168 7.60409 21.787 7.70319L33.3459 14.4404C33.8083 14.7098 34.0859 15.0954 34.1948 15.6196L42.2887 54.58C42.4889 55.5438 41.8679 56.4907 40.9042 56.6908ZM18.4402 26.5987C15.3133 26.5987 12.7693 29.1427 12.7693 32.2696C12.7693 35.0439 14.7724 37.3578 17.408 37.8446V45.5451H9.87157C9.30151 45.5451 8.83933 46.0073 8.83933 46.5773C8.83933 47.1474 9.30151 47.6096 9.87157 47.6096H17.408V51.626H9.87157C9.30151 51.626 8.83933 52.0882 8.83933 52.6583C8.83933 53.2283 9.30151 53.6905 9.87157 53.6905H18.4402C19.0102 53.6905 19.4724 53.2283 19.4724 52.6583V37.8446C22.108 37.3576 24.1111 35.0439 24.1111 32.2696C24.1112 29.1425 21.5672 26.5987 18.4402 26.5987ZM18.4402 35.876C16.4516 35.876 14.8338 34.2582 14.8338 32.2696C14.8338 30.281 16.4516 28.6632 18.4402 28.6632C20.4288 28.6632 22.0466 30.281 22.0466 32.2696C22.0466 34.2582 20.4289 35.876 18.4402 35.876Z" fill="#BF930F"/>
</svg>
