<svg width="56" height="56" viewBox="0 0 56 56" fill="none" xmlns="http://www.w3.org/2000/svg">
<path d="M54.9062 16.7352H38.7909C38.9232 16.3779 38.9957 15.9918 38.9957 15.5891V14.7141H39.9618C41.7189 14.7141 43.1484 13.2846 43.1484 11.5275C43.1484 9.77036 41.719 8.34083 39.9618 8.34083H31.4716C30.8676 8.34083 30.3778 8.8305 30.3778 9.43458V15.5892C30.3778 15.9919 30.4503 16.378 30.5826 16.7354H25.8817C25.9575 16.4619 25.9988 16.1726 25.9988 15.873V10.0905C25.9988 9.26527 25.7305 8.46202 25.2434 7.82884L24.6376 7.04123C24.4787 6.83462 24.3779 6.57759 24.3462 6.29781L23.9229 2.55828C24.2359 2.36578 24.4452 2.02125 24.4452 1.62695C24.4452 1.02288 23.9555 0.533203 23.3515 0.533203H18.8853C18.2813 0.533203 17.7916 1.02288 17.7916 1.62695C17.7916 2.02125 18.0009 2.36578 18.3139 2.55828L17.8907 6.29781C17.859 6.57759 17.7583 6.83462 17.5993 7.04123L16.9934 7.82884C16.5063 8.46213 16.2381 9.26527 16.2381 10.0905V15.8729C16.2381 16.1725 16.2795 16.4618 16.3552 16.7352H1.09375C0.489672 16.7352 0 17.2249 0 17.829V22.4291C0 23.0332 0.489672 23.5228 1.09375 23.5228H3.28245V48.2946C3.28245 48.8987 3.77213 49.3884 4.3762 49.3884H15.1162C13.3707 52.0029 10.1811 53.3419 10.1381 53.3596C9.65333 53.5564 9.37595 54.0691 9.47625 54.5826C9.57655 55.0961 10.0265 55.4667 10.5497 55.4667H24.0909C24.6134 55.4667 25.062 55.0969 25.1631 54.5843C25.2642 54.0716 24.9878 53.5589 24.5045 53.3605C24.4603 53.3423 21.2727 52.0032 19.5284 49.3885H36.4756C34.7301 52.003 31.5405 53.342 31.4974 53.3597C31.0126 53.5566 30.7352 54.0692 30.8355 54.5827C30.9358 55.0962 31.3858 55.4668 31.909 55.4668H45.4501C45.9733 55.4668 46.4231 55.0963 46.5235 54.5828C46.6238 54.0694 46.3467 53.5568 45.8619 53.3598C45.8176 53.3417 42.6228 52.0121 40.8804 49.3885H51.6237C52.2277 49.3885 52.7174 48.8988 52.7174 48.2948V23.5227H54.9062C55.5102 23.5227 56 23.0331 56 22.429V17.8289C56 17.2249 55.5102 16.7352 54.9062 16.7352ZM40.9609 11.5274C40.9609 12.0783 40.5127 12.5265 39.9618 12.5265H38.9957V10.5281H39.9618C40.5127 10.5281 40.9609 10.9763 40.9609 11.5274ZM32.5653 10.5281H36.8082V15.589C36.8082 16.2084 36.3043 16.7124 35.6848 16.7124H33.6886C33.0692 16.7124 32.5652 16.2085 32.5652 15.589L32.5653 10.5281ZM21.7401 2.7207L22.1728 6.5438C22.2493 7.21941 22.502 7.85269 22.9039 8.37495L23.5097 9.16256C23.7043 9.41544 23.8114 9.74498 23.8114 10.0905V15.8729C23.8114 16.3279 23.5235 16.7124 23.1826 16.7124H19.0548C18.714 16.7124 18.426 16.3279 18.426 15.8729V10.0905C18.426 9.74509 18.533 9.41555 18.7276 9.16256L19.3336 8.37495C19.7353 7.85247 19.9882 7.2193 20.0646 6.5438L20.4973 2.7207H21.7401ZM20.2013 53.2791H14.4415C14.5058 53.2276 14.5703 53.1751 14.6347 53.1217C15.7895 52.1635 16.6902 51.1071 17.3224 49.9804C17.9541 51.1071 18.8542 52.1632 20.0081 53.1215C20.0725 53.1748 20.137 53.2275 20.2013 53.2791ZM41.5606 53.2791H35.8008C35.8652 53.2276 35.9297 53.1751 35.9941 53.1217C37.1489 52.1635 38.0496 51.1071 38.6818 49.9804C39.3134 51.1071 40.2135 52.1632 41.3675 53.1215C41.4319 53.1748 41.4964 53.2275 41.5606 53.2791ZM53.8125 21.3352H32.8502C32.2463 21.3352 31.7565 21.8249 31.7565 22.429C31.7565 23.0331 32.2463 23.5227 32.8502 23.5227H50.5302V47.2008H39.923C39.8309 46.7943 39.7794 46.3677 39.7766 45.9213L39.7775 44.9439H43.1793C43.7833 44.9439 44.273 44.4543 44.273 43.8502C44.273 43.2461 43.7833 42.7564 43.1793 42.7564H39.7795L39.7846 36.8967H43.2128C44.976 36.8967 46.4104 35.4622 46.4104 33.699C46.4104 31.9357 44.976 30.5013 43.2128 30.5013H34.1709C32.4077 30.5013 30.9732 31.9357 30.9732 33.699C30.9732 35.4622 32.4077 36.8967 34.1709 36.8967H37.5971L37.592 42.7564H34.1564C33.5524 42.7564 33.0626 43.2461 33.0626 43.8502C33.0626 44.4543 33.5524 44.9439 34.1564 44.9439H37.59L37.5892 45.8686C37.5891 45.8736 37.5885 45.8785 37.5885 45.8836C37.5885 46.3435 37.5357 46.7826 37.44 47.2007H18.5647C18.4718 46.794 18.42 46.3675 18.4171 45.9212L18.418 44.9438H21.8198C22.4238 44.9438 22.9135 44.4542 22.9135 43.8501C22.9135 43.246 22.4238 42.7563 21.8198 42.7563H18.4198L18.425 36.8966H21.8531C23.6164 36.8966 25.0508 35.4621 25.0508 33.6989C25.0508 31.9356 23.6164 30.5012 21.8531 30.5012H12.8113C11.0481 30.5012 9.61363 31.9356 9.61363 33.6989C9.61363 35.4621 11.0481 36.8966 12.8113 36.8966H16.2375L16.2323 42.7563H12.7969C12.1928 42.7563 11.7031 43.246 11.7031 43.8501C11.7031 44.4542 12.1928 44.9438 12.7969 44.9438H16.2305L16.2297 45.8684C16.2296 45.8735 16.229 45.8784 16.229 45.8835C16.229 46.3434 16.1762 46.7825 16.0805 47.2006H5.46995V23.5227H23.2252C23.8293 23.5227 24.319 23.0331 24.319 22.429C24.319 21.8249 23.8293 21.3352 23.2252 21.3352H2.1875V18.9226H53.8125V21.3352ZM34.1707 34.7093C33.6137 34.7093 33.1605 34.256 33.1605 33.6991C33.1605 33.1422 33.6138 32.6889 34.1707 32.6889H43.2125C43.7696 32.6889 44.2227 33.1422 44.2227 33.6991C44.2227 34.256 43.7695 34.7093 43.2125 34.7093H34.1707ZM12.8113 34.7093C12.2543 34.7093 11.8011 34.256 11.8011 33.6991C11.8011 33.1422 12.2544 32.6889 12.8113 32.6889H21.8531C22.4102 32.6889 22.8633 33.1422 22.8633 33.6991C22.8633 34.256 22.4101 34.7093 21.8531 34.7093H12.8113Z" fill="white"/>
<path d="M27.3929 23.3383C27.7973 23.6078 28.3458 23.5741 28.7142 23.2571C29.0414 22.9754 29.1731 22.5116 29.0425 22.1001C28.9029 21.6602 28.4894 21.3473 28.0273 21.3358C27.5627 21.3242 27.1323 21.6193 26.9731 22.055C26.8032 22.5197 26.9769 23.066 27.3929 23.3383Z" fill="white"/>
</svg>
