<svg width="56" height="56" viewBox="0 0 56 56" fill="none" xmlns="http://www.w3.org/2000/svg">
<path d="M17.3176 36.2168C16.7024 36.9596 16.8072 38.0648 17.5501 38.68C18.2929 39.293 19.3912 39.1973 20.0156 38.4499C24.3268 33.2454 31.6731 33.2454 35.9843 38.4499C36.3307 38.8669 36.832 39.0833 37.3333 39.0833C37.7298 39.0833 38.1217 38.9512 38.4498 38.68C39.1926 38.0648 39.2975 36.9596 38.6822 36.2168C33.013 29.3809 22.9869 29.3809 17.3176 36.2168Z" fill="white"/>
<path d="M28 19.25C20.8861 19.25 14.2051 22.3581 9.19206 28.0046C8.54948 28.7269 8.61328 29.8343 9.33789 30.4746C10.0579 31.1149 11.1608 31.0511 11.8079 30.3288C16.151 25.4411 21.8978 22.75 28 22.75C34.1022 22.75 39.849 25.4411 44.1921 30.3288C44.5384 30.7184 45.0169 30.9167 45.5 30.9167C45.9147 30.9167 46.3294 30.7708 46.6621 30.4746C47.3867 29.8343 47.4505 28.7269 46.8079 28.0046C41.7949 22.3581 35.1139 19.25 28 19.25Z" fill="white"/>
<path d="M54.9609 19.8196C47.7603 11.9286 38.19 7.58325 27.9999 7.58325C17.8098 7.58325 8.2395 11.9286 1.03898 19.8196C0.38729 20.5351 0.441977 21.6425 1.15292 22.2919C1.87752 22.9504 2.97583 22.8935 3.62752 22.1803C10.1536 15.023 18.8079 11.0833 27.9999 11.0833C37.192 11.0833 45.8463 15.023 52.3723 22.1803C52.7187 22.5585 53.1926 22.7499 53.6666 22.7499C54.0859 22.7499 54.5097 22.5995 54.8469 22.2919C55.5579 21.6425 55.6126 20.5351 54.9609 19.8196Z" fill="white"/>
<path d="M28 48.4165C28.9665 48.4165 29.75 47.633 29.75 46.6665C29.75 45.7 28.9665 44.9165 28 44.9165C27.0335 44.9165 26.25 45.7 26.25 46.6665C26.25 47.633 27.0335 48.4165 28 48.4165Z" fill="white"/>
</svg>
