<svg width="25" height="24" viewBox="0 0 25 24" fill="none" xmlns="http://www.w3.org/2000/svg">
<path fill-rule="evenodd" clip-rule="evenodd" d="M21.11 24H1.90076C0.910062 24 0.097918 23.1936 0.097918 22.1972V20.9761C0.0403192 20.9185 0 20.8321 0 20.7341C0 20.5498 0.155517 20.3943 0.339833 20.3943H3.91096V8.83998C3.91096 8.1776 4.36023 7.61889 5.02838 7.45185L8.69167 6.54755V5.56261C7.66641 5.40133 6.88306 4.51431 6.88306 3.44297C6.88306 2.44651 8.08112 1.10446 8.74926 0.142557C8.88174 -0.047519 9.1755 -0.047519 9.30797 0.142557C9.98188 1.10446 11.1799 2.44075 11.1799 3.44297C11.1799 4.51431 10.3966 5.40133 9.37133 5.56261V6.38051L12.4126 5.62597C13.2823 5.41285 14.1463 6.12708 14.1463 7.01986V9.73852C14.3767 9.7846 14.5955 9.84796 14.8087 9.93436C15.1658 9.48509 15.6208 9.1107 16.1334 8.85726C16.2314 8.81118 16.3408 8.81118 16.4387 8.85726C16.9513 9.1107 17.4064 9.48509 17.7635 9.94012C18.2876 9.72701 18.8636 9.62909 19.4511 9.66365C19.5548 9.67517 19.6527 9.72701 19.7103 9.81916C20.0271 10.2972 20.2402 10.8444 20.3209 11.4089C20.8853 11.4895 21.4325 11.6969 21.9164 12.0194C22.0028 12.0828 22.0604 12.175 22.0661 12.2844C22.1352 13.3039 21.7839 14.3061 21.1215 15.0664C23.293 16.011 23.6674 18.9313 21.8242 20.3943H24.6235C25.067 20.3943 25.067 21.0797 24.6235 21.0797H22.9128V22.1972C22.9128 23.1936 22.1007 24 21.11 24ZM20.4303 15.5502L19.8774 15.4869H13.5818C12.8561 15.4869 12.2686 16.0802 12.2686 16.8059C12.2686 17.5316 12.8561 18.1192 13.5818 18.1192H19.4511C19.8946 18.1192 19.8946 18.8046 19.4511 18.8046H13.5818C11.8423 18.8046 10.9841 16.7425 12.0785 15.4869C10.5118 15.4869 9.49805 16.6965 9.51533 17.9752C9.52685 19.3057 10.6385 20.3943 11.969 20.3943H19.8774C21.2309 20.3943 22.3311 19.2942 22.3311 17.9406C22.3311 16.7771 21.5189 15.8037 20.4303 15.5502ZM0.783344 21.0797V22.1972C0.783344 22.8135 1.28445 23.3146 1.90076 23.3146H21.11C21.7263 23.3146 22.2274 22.8135 22.2274 22.1972V21.0797H0.783344ZM8.98542 16.9845C9.31949 15.9362 10.218 15.1183 11.2951 14.8821C10.7364 14.1448 10.4427 13.2175 10.506 12.2844C10.5118 12.175 10.5694 12.0828 10.6558 12.0194C11.1396 11.6969 11.681 11.4895 12.2513 11.4089C12.3262 10.8963 12.5335 10.2166 12.8906 9.77884C13.0173 9.62333 13.2823 9.65213 13.4666 9.65789V7.01986C13.4666 6.56483 13.0173 6.17892 12.5738 6.28835L5.18966 8.11424C4.8383 8.20064 4.59639 8.49439 4.59639 8.83998V20.3943H10.0222C9.01998 19.5937 8.58223 18.2113 8.98542 16.9845ZM12.1418 14.8072H15.9261C15.7014 13.1311 14.1463 11.8985 12.4701 12.0713C12.0151 12.1231 11.5716 12.2671 11.1799 12.4975C11.1684 13.3557 11.5255 14.2082 12.1418 14.8072ZM16.6461 14.8072C17.6771 14.8072 18.9846 14.7784 19.981 14.8072L20.3842 14.8475C21.0351 14.2428 21.398 13.3845 21.3922 12.4975C19.4511 11.3455 16.9398 12.5724 16.6461 14.8072ZM9.0315 0.914382C8.48431 1.64013 7.56273 2.79786 7.56273 3.44297C7.56273 4.25511 8.22511 4.91174 9.0315 4.91174C9.83788 4.91174 10.4945 4.25511 10.4945 3.44297C10.4945 2.79786 9.57293 1.64013 9.0315 0.914382ZM15.8742 11.5702C15.2752 10.7983 14.3421 10.3376 13.3399 10.3376C13.1498 10.6601 13.0173 11.0115 12.9482 11.3743C13.8986 11.4147 14.8144 11.8121 15.4883 12.4802C15.5805 12.1634 15.7072 11.8582 15.8742 11.5702ZM16.0528 13.1829C16.1392 13.3212 16.2141 13.4652 16.2832 13.6149C16.8822 12.3017 18.1897 11.4377 19.6239 11.3743C19.5548 11.0115 19.4223 10.6601 19.2323 10.3376C17.5792 10.326 16.2083 11.5874 16.0528 13.1829ZM16.2832 10.9942C16.5309 10.7062 16.8189 10.4585 17.1414 10.2512C16.8995 9.96892 16.6115 9.73277 16.2832 9.54845C15.9606 9.73277 15.6726 9.96892 15.4307 10.2512C15.759 10.4816 16.0182 10.6774 16.2832 10.9942Z" fill="#BF930F"/>
</svg>
