<svg width="56" height="56" viewBox="0 0 56 56" fill="none" xmlns="http://www.w3.org/2000/svg">
<path d="M51.3334 49V22.4248C51.3334 19.338 51.3334 17.7946 50.531 16.5992C49.7288 15.4039 48.308 14.8307 45.4665 13.6843L31.4665 8.03591C29.7547 7.34531 28.8989 7 28.0001 7C27.1013 7 26.2454 7.34531 24.5337 8.03591L10.5338 13.6843C7.69222 14.8307 6.27145 15.4039 5.46911 16.5992C4.66675 17.7946 4.66675 19.338 4.66675 22.4248V49" stroke="white" stroke-width="1.5" stroke-linecap="round" stroke-linejoin="round"/>
<path d="M37.3334 44.3333V48.9999M18.6667 44.3333V48.9999" stroke="white" stroke-width="1.5" stroke-linecap="round" stroke-linejoin="round"/>
<path d="M17.5 32.6666L18.0659 30.403C18.9147 27.0076 19.3392 25.3101 20.605 24.3217C21.8709 23.3333 23.6208 23.3333 27.1206 23.3333H28.8794C32.3792 23.3333 34.129 23.3333 35.395 24.3217C36.6609 25.3101 37.0853 27.0076 37.9342 30.403L38.5 32.6666" stroke="white" stroke-width="1.5" stroke-linecap="round" stroke-linejoin="round"/>
<path d="M39.6667 32.6667H16.3333C15.0447 32.6667 14 33.7114 14 35.0001V42.0001C14 43.2888 15.0447 44.3334 16.3333 44.3334H39.6667C40.9554 44.3334 42 43.2888 42 42.0001V35.0001C42 33.7114 40.9554 32.6667 39.6667 32.6667Z" stroke="white" stroke-width="1.5" stroke-linecap="round" stroke-linejoin="round"/>
<path d="M19.8333 38.4766V38.4999" stroke="white" stroke-width="1.5" stroke-linecap="round" stroke-linejoin="round"/>
<path d="M36.1667 38.4766V38.4999" stroke="white" stroke-width="1.5" stroke-linecap="round" stroke-linejoin="round"/>
</svg>
