<svg width="24" height="24" viewBox="0 0 24 24" fill="none" xmlns="http://www.w3.org/2000/svg">
<g clip-path="url(#clip0_540_5372)">
<path d="M15.2 15.2403V11.5999C15.2 10.9383 14.6616 10.3999 14 10.3999H2.8C2.1384 10.3999 1.6 10.9383 1.6 11.5999V15.2403C0.6884 15.4263 0 16.2343 0 17.1999V19.5999V23.5999C0 23.8207 0.1792 23.9999 0.4 23.9999H2C2.2208 23.9999 2.4 23.8207 2.4 23.5999V22.3999H14.4V23.5999C14.4 23.8207 14.5792 23.9999 14.8 23.9999H16.4C16.6208 23.9999 16.8 23.8207 16.8 23.5999V19.5999V17.1999C16.8 16.2343 16.1116 15.4263 15.2 15.2403ZM2.4 11.5999C2.4 11.3795 2.5796 11.1999 2.8 11.1999H14C14.2204 11.1999 14.4 11.3795 14.4 11.5999V15.1999H13.6V13.5999C13.6 12.9383 13.0616 12.3999 12.4 12.3999H10C9.3384 12.3999 8.8 12.9383 8.8 13.5999V15.1999H8V13.5999C8 12.9383 7.4616 12.3999 6.8 12.3999H4.4C3.7384 12.3999 3.2 12.9383 3.2 13.5999V15.1999H2.4V11.5999ZM12.8 13.5999V15.1999H9.6V13.5999C9.6 13.3795 9.7796 13.1999 10 13.1999H12.4C12.6204 13.1999 12.8 13.3795 12.8 13.5999ZM7.2 13.5999V15.1999H4V13.5999C4 13.3795 4.1796 13.1999 4.4 13.1999H6.8C7.0204 13.1999 7.2 13.3795 7.2 13.5999ZM16 23.1999H15.2V21.9999C15.2 21.7791 15.0208 21.5999 14.8 21.5999H2C1.7792 21.5999 1.6 21.7791 1.6 21.9999V23.1999H0.8V19.9999H16V23.1999ZM16 19.1999H0.8V17.1999C0.8 16.5383 1.3384 15.9999 2 15.9999H3.6H7.6H9.2H13.2H14.8C15.4616 15.9999 16 16.5383 16 17.1999V19.1999Z" fill="#BF930F"/>
<path d="M23.5996 15.2H17.9996C17.7788 15.2 17.5996 15.3792 17.5996 15.6V18.8V21.6H18.3996V19.2H23.1996V21.6H23.9996V18.8V15.6C23.9996 15.3792 23.8204 15.2 23.5996 15.2ZM23.1996 18.4H18.3996V16H23.1996V18.4Z" fill="#BF930F"/>
<path d="M21.6 16.8H20V17.6H21.6V16.8Z" fill="#BF930F"/>
<path d="M22.7805 11.8732L21.9805 9.47315C21.9257 9.30995 21.7733 9.19995 21.6009 9.19995H20.0009C19.8285 9.19995 19.6761 9.30995 19.6213 9.47355L18.8213 11.8736C18.7805 11.9956 18.8013 12.1296 18.8765 12.234C18.9517 12.3384 19.0725 12.4 19.2009 12.4H20.4009V13.6H19.6009V14.4H22.0009V13.6H21.2009V12.4H22.4009C22.5293 12.4 22.6501 12.3384 22.7253 12.2336C22.8005 12.1292 22.8209 11.9952 22.7805 11.8732ZM19.7557 11.6L20.2893 9.99995H21.3129L21.8461 11.6H19.7557Z" fill="#BF930F"/>
<path d="M23.7636 5.2348L12.1636 0.0348C12.0592 -0.0116 11.9404 -0.0116 11.8364 0.0348L0.2364 5.2348C0.0924 5.2996 0 5.4424 0 5.6V10.4H0.8V5.8588L12 0.8384L23.2 5.8592V10.4H24V5.6C24 5.4424 23.9076 5.2996 23.7636 5.2348Z" fill="#BF930F"/>
<path d="M14.7604 5.53355L13.9712 5.66635C13.99 5.77555 13.9992 5.88755 13.9992 5.99995C13.9992 7.10275 13.102 7.99995 11.9992 7.99995C10.8964 7.99995 9.99922 7.10275 9.99922 5.99995C9.99922 4.89715 10.8964 3.99995 11.9992 3.99995C12.228 3.99995 12.4528 4.03835 12.6664 4.11395L12.9328 3.35955C12.6332 3.25355 12.3192 3.19995 11.9992 3.19995C10.4552 3.19995 9.19922 4.45595 9.19922 5.99995C9.19922 7.54395 10.4552 8.79995 11.9992 8.79995C13.5432 8.79995 14.7992 7.54395 14.7992 5.99995C14.7992 5.84315 14.786 5.68635 14.7604 5.53355Z" fill="#BF930F"/>
<path d="M14.518 3.31714L12.0008 5.83434L11.4836 5.31714L10.918 5.88274L11.718 6.68274C11.796 6.76074 11.8984 6.79994 12.0008 6.79994C12.1032 6.79994 12.2056 6.76074 12.2836 6.68274L15.0836 3.88274L14.518 3.31714Z" fill="#BF930F"/>
</g>
<defs>
<clipPath id="clip0_540_5372">
<rect width="24" height="24" fill="white"/>
</clipPath>
</defs>
</svg>
