<svg width="40" height="40" viewBox="0 0 40 40" fill="none" xmlns="http://www.w3.org/2000/svg">
<path d="M36.6668 35V16.0177C36.6668 13.8128 36.6668 12.7104 36.0937 11.8566C35.5207 11.0028 34.5058 10.5933 32.4762 9.77447L22.4762 5.73993C21.2535 5.24665 20.6422 5 20.0002 5C19.3582 5 18.7468 5.24665 17.5242 5.73993L7.52423 9.77447C5.49455 10.5933 4.47971 11.0028 3.90661 11.8566C3.3335 12.7104 3.3335 13.8128 3.3335 16.0177V35" stroke="white" stroke-width="1.5" stroke-linecap="round" stroke-linejoin="round"/>
<path d="M26.6668 31.6667V35.0001M13.3335 31.6667V35.0001" stroke="white" stroke-width="1.5" stroke-linecap="round" stroke-linejoin="round"/>
<path d="M12.5 23.3334L12.9042 21.7166C13.5105 19.2912 13.8137 18.0787 14.7179 17.3727C15.6221 16.6667 16.872 16.6667 19.3718 16.6667H20.6282C23.128 16.6667 24.3778 16.6667 25.2822 17.3727C26.1863 18.0787 26.4895 19.2912 27.0958 21.7166L27.5 23.3334" stroke="white" stroke-width="1.5" stroke-linecap="round" stroke-linejoin="round"/>
<path d="M28.3333 23.3333H11.6667C10.7462 23.3333 10 24.0794 10 24.9999V29.9999C10 30.9204 10.7462 31.6666 11.6667 31.6666H28.3333C29.2538 31.6666 30 30.9204 30 29.9999V24.9999C30 24.0794 29.2538 23.3333 28.3333 23.3333Z" stroke="white" stroke-width="1.5" stroke-linecap="round" stroke-linejoin="round"/>
<path d="M14.1665 27.4834V27.5001" stroke="white" stroke-width="1.5" stroke-linecap="round" stroke-linejoin="round"/>
<path d="M25.8335 27.4834V27.5001" stroke="white" stroke-width="1.5" stroke-linecap="round" stroke-linejoin="round"/>
</svg>
