<svg width="40" height="40" viewBox="0 0 40 40" fill="none" xmlns="http://www.w3.org/2000/svg">
<g clip-path="url(#clip0_318_3712)">
<path d="M39.2188 11.9537H27.7078C27.8023 11.6985 27.8541 11.4227 27.8541 11.1351V10.5101H28.5441C29.7992 10.5101 30.8203 9.48898 30.8203 8.23391C30.8203 6.97883 29.7993 5.95773 28.5441 5.95773H22.4797C22.0483 5.95773 21.6984 6.3075 21.6984 6.73898V11.1352C21.6984 11.4228 21.7502 11.6986 21.8447 11.9538H18.487C18.5411 11.7585 18.5705 11.5519 18.5705 11.3379V7.2075C18.5705 6.61805 18.3789 6.0443 18.031 5.59203L17.5983 5.02945C17.4848 4.88188 17.4128 4.69828 17.3902 4.49844L17.0878 1.82734C17.3113 1.68984 17.4609 1.44375 17.4609 1.16211C17.4609 0.730625 17.1111 0.380859 16.6796 0.380859H13.4895C13.058 0.380859 12.7083 0.730625 12.7083 1.16211C12.7083 1.44375 12.8578 1.68984 13.0813 1.82734L12.7791 4.49844C12.7564 4.69828 12.6845 4.88188 12.5709 5.02945L12.1381 5.59203C11.7902 6.04438 11.5987 6.61805 11.5987 7.2075V11.3378C11.5987 11.5518 11.6282 11.7584 11.6823 11.9537H0.78125C0.349766 11.9537 0 12.3035 0 12.735V16.0208C0 16.4523 0.349766 16.802 0.78125 16.802H2.34461V34.4962C2.34461 34.9277 2.69438 35.2774 3.12586 35.2774H10.7973C9.55047 37.1449 7.27219 38.1013 7.24148 38.114C6.89523 38.2546 6.69711 38.6208 6.76875 38.9876C6.84039 39.3544 7.1618 39.6191 7.53547 39.6191H17.2078C17.581 39.6191 17.9014 39.3549 17.9737 38.9888C18.0459 38.6226 17.8484 38.2563 17.5032 38.1146C17.4716 38.1016 15.1948 37.1452 13.9488 35.2775H26.054C24.8072 37.145 22.5289 38.1014 22.4981 38.1141C22.1519 38.2547 21.9537 38.6209 22.0254 38.9877C22.097 39.3545 22.4184 39.6191 22.7921 39.6191H32.4644C32.838 39.6191 33.1594 39.3545 33.2311 38.9877C33.3027 38.621 33.1048 38.2548 32.7585 38.1141C32.7269 38.1012 30.4448 37.1515 29.2003 35.2775H36.8741C37.3055 35.2775 37.6553 34.9277 37.6553 34.4963V16.802H39.2188C39.6502 16.802 40 16.4522 40 16.0207V12.7349C40 12.3035 39.6502 11.9537 39.2188 11.9537ZM29.2578 8.23383C29.2578 8.62734 28.9377 8.9475 28.5441 8.9475H27.8541V7.52008H28.5441C28.9377 7.52008 29.2578 7.84023 29.2578 8.23383ZM23.2609 7.52008H26.2916V11.135C26.2916 11.5774 25.9316 11.9374 25.4891 11.9374H24.0633C23.6209 11.9374 23.2609 11.5775 23.2609 11.135L23.2609 7.52008ZM15.5287 1.94336L15.8377 4.67414C15.8923 5.15672 16.0729 5.60906 16.3599 5.98211L16.7927 6.54469C16.9316 6.72531 17.0081 6.9607 17.0081 7.2075V11.3378C17.0081 11.6628 16.8025 11.9374 16.559 11.9374H13.6105C13.3671 11.9374 13.1614 11.6628 13.1614 11.3378V7.2075C13.1614 6.96078 13.2379 6.72539 13.3769 6.54469L13.8097 5.98211C14.0966 5.60891 14.2773 5.15664 14.3319 4.67414L14.6409 1.94336H15.5287ZM14.4295 38.0565H10.3154C10.3612 38.0197 10.4073 37.9822 10.4534 37.9441C11.2782 37.2596 11.9216 36.5051 12.3731 35.7003C12.8244 36.5051 13.4673 37.2595 14.2915 37.9439C14.3375 37.982 14.3836 38.0196 14.4295 38.0565ZM29.6862 38.0565H25.572C25.618 38.0197 25.6641 37.9822 25.7101 37.9441C26.5349 37.2596 27.1783 36.5051 27.6298 35.7003C28.081 36.5051 28.7239 37.2595 29.5482 37.9439C29.5942 37.982 29.6403 38.0196 29.6862 38.0565ZM38.4375 15.2395H23.4645C23.033 15.2395 22.6832 15.5892 22.6832 16.0207C22.6832 16.4522 23.033 16.802 23.4645 16.802H36.093V33.7148H28.5164C28.4506 33.4245 28.4138 33.1198 28.4119 32.8009L28.4125 32.1028H30.8423C31.2738 32.1028 31.6236 31.753 31.6236 31.3216C31.6236 30.8901 31.2738 30.5403 30.8423 30.5403H28.4139L28.4176 26.3548H30.8663C32.1257 26.3548 33.1503 25.3302 33.1503 24.0707C33.1503 22.8112 32.1257 21.7866 30.8663 21.7866H24.4078C23.1484 21.7866 22.1237 22.8112 22.1237 24.0707C22.1237 25.3302 23.1484 26.3548 24.4078 26.3548H26.8551L26.8514 30.5403H24.3974C23.966 30.5403 23.6162 30.8901 23.6162 31.3216C23.6162 31.753 23.966 32.1028 24.3974 32.1028H26.85L26.8495 32.7633C26.8494 32.7669 26.8489 32.7704 26.8489 32.774C26.8489 33.1025 26.8112 33.4162 26.7429 33.7148H13.2605C13.1941 33.4243 13.1571 33.1196 13.1551 32.8009L13.1557 32.1027H15.5855C16.017 32.1027 16.3668 31.753 16.3668 31.3215C16.3668 30.89 16.017 30.5402 15.5855 30.5402H13.157L13.1607 26.3547H15.6094C16.8688 26.3547 17.8934 25.3301 17.8934 24.0706C17.8934 22.8112 16.8688 21.7866 15.6094 21.7866H9.15094C7.89148 21.7866 6.86688 22.8112 6.86688 24.0706C6.86688 25.3301 7.89148 26.3547 9.15094 26.3547H11.5982L11.5945 30.5402H9.14062C8.70914 30.5402 8.35938 30.89 8.35938 31.3215C8.35938 31.753 8.70914 32.1027 9.14062 32.1027H11.5932L11.5927 32.7631C11.5926 32.7668 11.5921 32.7703 11.5921 32.7739C11.5921 33.1024 11.5545 33.4161 11.4861 33.7147H3.90711V16.802H16.5895C17.0209 16.802 17.3707 16.4522 17.3707 16.0207C17.3707 15.5892 17.0209 15.2395 16.5895 15.2395H1.5625V13.5162H38.4375V15.2395ZM24.4077 24.7923C24.0098 24.7923 23.6861 24.4686 23.6861 24.0708C23.6861 23.673 24.0098 23.3492 24.4077 23.3492H30.8661C31.264 23.3492 31.5877 23.673 31.5877 24.0708C31.5877 24.4686 31.2639 24.7923 30.8661 24.7923H24.4077ZM9.15094 24.7923C8.75305 24.7923 8.42938 24.4686 8.42938 24.0708C8.42938 23.673 8.75313 23.3492 9.15094 23.3492H15.6094C16.0073 23.3492 16.3309 23.673 16.3309 24.0708C16.3309 24.4686 16.0072 24.7923 15.6094 24.7923H9.15094Z" fill="white"/>
<path d="M19.5668 16.6704C19.8556 16.8629 20.2474 16.8388 20.5105 16.6123C20.7443 16.4112 20.8383 16.0798 20.7451 15.7859C20.6453 15.4717 20.35 15.2482 20.0199 15.24C19.688 15.2317 19.3806 15.4425 19.2669 15.7537C19.1455 16.0856 19.2696 16.4758 19.5668 16.6704Z" fill="white"/>
</g>
<defs>
<clipPath id="clip0_318_3712">
<rect width="40" height="40" fill="white"/>
</clipPath>
</defs>
</svg>
