<svg width="23" height="24" viewBox="0 0 23 24" fill="none" xmlns="http://www.w3.org/2000/svg">
<path d="M18.7783 0C16.7275 0 15.0647 1.66282 15.0647 3.71363V5.68129H6.25175V3.71363C6.25175 2.21709 7.47115 0.997691 8.96769 0.997691C10.4642 0.997691 11.6836 2.21709 11.6836 3.71363C11.6836 3.99076 11.9053 4.21247 12.1825 4.21247C12.4596 4.21247 12.6813 3.99076 12.6813 3.71363C12.6813 1.66282 11.0185 0 8.96769 0C6.91688 0 5.25406 1.66282 5.25406 3.71363V16.3233C5.22635 16.6005 5.47577 16.8499 5.75291 16.8499C6.03005 16.8499 6.25175 16.6282 6.25175 16.351V15.1039H15.0924V16.351C15.0924 16.6282 15.3141 16.8499 15.5912 16.8499C15.8684 16.8499 16.0901 16.6282 16.0901 16.351V3.71363C16.0901 2.21709 17.3095 0.997691 18.806 0.997691C20.3026 0.997691 21.4942 2.21709 21.4942 3.71363C21.4942 3.99076 21.716 4.21247 21.9931 4.21247C22.2702 4.21247 22.4919 3.99076 22.4919 3.71363C22.4919 1.66282 20.8291 0 18.7783 0ZM15.0924 14.0508H6.25175V12.2771H15.0924V14.0508ZM15.0924 11.2794H6.25175V9.50577H15.0924V11.2794ZM15.0924 8.45266H6.25175V6.67898H15.0924V8.45266Z" fill="#BF930F"/>
<path d="M21.2435 18.7898C21.1327 18.5404 20.8278 18.4018 20.5784 18.5404C18.0842 19.6212 16.8648 19.0947 15.5622 18.5404C14.232 17.9861 12.874 17.4042 10.4629 18.5404C7.9687 19.6212 6.7493 19.0947 5.44676 18.5404C4.1165 17.9861 2.73082 17.4042 0.319737 18.5404C0.0703143 18.6513 -0.0405403 18.9561 0.0703142 19.2055C0.181169 19.455 0.486019 19.5658 0.735441 19.455C2.75854 18.5127 3.81165 18.9561 5.03105 19.4827C5.83475 19.8152 6.69387 20.1755 7.83013 20.1755C8.66154 20.1755 9.63151 19.9815 10.8509 19.455C12.874 18.5127 13.9271 18.9561 15.1465 19.4827C15.9502 19.8152 16.8093 20.1755 17.9456 20.1755C18.777 20.1755 19.747 19.9815 20.9664 19.455C21.2158 19.3441 21.3544 19.0393 21.2435 18.7898Z" fill="#BF930F"/>
<path d="M21.2162 22.6143C21.1053 22.3649 20.8005 22.2263 20.5511 22.3649C18.0568 23.4457 16.8374 22.9192 15.5349 22.3649C14.2046 21.8106 12.8467 21.2286 10.4356 22.3649C7.94135 23.4457 6.72195 22.9192 5.41941 22.3649C4.08916 21.8106 2.73119 21.2286 0.292393 22.3649C0.0429705 22.4757 -0.067884 22.7806 0.0429705 23.03C0.181539 23.2794 0.486389 23.3903 0.735811 23.2794C2.75891 22.3372 3.81202 22.7806 5.03142 23.3071C5.83512 23.6397 6.69424 24 7.8305 24C8.66191 24 9.63189 23.806 10.8513 23.2794C12.8744 22.3372 13.9275 22.7806 15.1469 23.3071C15.9506 23.6397 16.8097 24 17.946 24C18.7774 24 19.7474 23.806 20.9668 23.2794C21.2162 23.1686 21.3547 22.8637 21.2162 22.6143Z" fill="#BF930F"/>
</svg>
