<svg width="40" height="40" viewBox="0 0 40 40" fill="none" xmlns="http://www.w3.org/2000/svg">
<g clip-path="url(#clip0_320_3825)">
<path d="M25.3333 25.4008V19.3335C25.3333 18.2308 24.436 17.3335 23.3333 17.3335H4.66667C3.564 17.3335 2.66667 18.2308 2.66667 19.3335V25.4008C1.14733 25.7108 0 27.0575 0 28.6668V32.6668V39.3335C0 39.7015 0.298667 40.0002 0.666667 40.0002H3.33333C3.70133 40.0002 4 39.7015 4 39.3335V37.3335H24V39.3335C24 39.7015 24.2987 40.0002 24.6667 40.0002H27.3333C27.7013 40.0002 28 39.7015 28 39.3335V32.6668V28.6668C28 27.0575 26.8527 25.7108 25.3333 25.4008ZM4 19.3335C4 18.9662 4.29933 18.6668 4.66667 18.6668H23.3333C23.7007 18.6668 24 18.9662 24 19.3335V25.3335H22.6667V22.6668C22.6667 21.5642 21.7693 20.6668 20.6667 20.6668H16.6667C15.564 20.6668 14.6667 21.5642 14.6667 22.6668V25.3335H13.3333V22.6668C13.3333 21.5642 12.436 20.6668 11.3333 20.6668H7.33333C6.23067 20.6668 5.33333 21.5642 5.33333 22.6668V25.3335H4V19.3335ZM21.3333 22.6668V25.3335H16V22.6668C16 22.2995 16.2993 22.0002 16.6667 22.0002H20.6667C21.034 22.0002 21.3333 22.2995 21.3333 22.6668ZM12 22.6668V25.3335H6.66667V22.6668C6.66667 22.2995 6.966 22.0002 7.33333 22.0002H11.3333C11.7007 22.0002 12 22.2995 12 22.6668ZM26.6667 38.6668H25.3333V36.6668C25.3333 36.2988 25.0347 36.0002 24.6667 36.0002H3.33333C2.96533 36.0002 2.66667 36.2988 2.66667 36.6668V38.6668H1.33333V33.3335H26.6667V38.6668ZM26.6667 32.0002H1.33333V28.6668C1.33333 27.5642 2.23067 26.6668 3.33333 26.6668H6H12.6667H15.3333H22H24.6667C25.7693 26.6668 26.6667 27.5642 26.6667 28.6668V32.0002Z" fill="white"/>
<path d="M39.3335 25.3335H30.0002C29.6322 25.3335 29.3335 25.6322 29.3335 26.0002V31.3335V36.0002H30.6668V32.0002H38.6668V36.0002H40.0002V31.3335V26.0002C40.0002 25.6322 39.7015 25.3335 39.3335 25.3335ZM38.6668 30.6668H30.6668V26.6668H38.6668V30.6668Z" fill="white"/>
<path d="M36.0002 28H33.3335V29.3333H36.0002V28Z" fill="white"/>
<path d="M37.9659 19.7888L36.6326 15.7888C36.5412 15.5168 36.2872 15.3335 35.9999 15.3335H33.3332C33.0459 15.3335 32.7919 15.5168 32.7006 15.7895L31.3672 19.7895C31.2992 19.9928 31.3339 20.2162 31.4592 20.3902C31.5846 20.5642 31.7859 20.6668 31.9999 20.6668H33.9999V22.6668H32.6666V24.0002H36.6666V22.6668H35.3332V20.6668H37.3332C37.5472 20.6668 37.7486 20.5642 37.8739 20.3895C37.9992 20.2155 38.0332 19.9922 37.9659 19.7888ZM32.9246 19.3335L33.8139 16.6668H35.5199L36.4086 19.3335H32.9246Z" fill="white"/>
<path d="M39.606 8.72467L20.2727 0.058C20.0987 -0.0193333 19.9007 -0.0193333 19.7273 0.058L0.394 8.72467C0.154 8.83267 0 9.07067 0 9.33333V17.3333H1.33333V9.76467L20 1.39733L38.6667 9.76533V17.3333H40V9.33333C40 9.07067 39.846 8.83267 39.606 8.72467Z" fill="white"/>
<path d="M24.6022 9.22283L23.2868 9.44416C23.3182 9.62616 23.3335 9.81283 23.3335 10.0002C23.3335 11.8382 21.8382 13.3335 20.0002 13.3335C18.1622 13.3335 16.6668 11.8382 16.6668 10.0002C16.6668 8.16216 18.1622 6.66683 20.0002 6.66683C20.3815 6.66683 20.7562 6.73083 21.1122 6.85683L21.5562 5.5995C21.0568 5.42283 20.5335 5.3335 20.0002 5.3335C17.4268 5.3335 15.3335 7.42683 15.3335 10.0002C15.3335 12.5735 17.4268 14.6668 20.0002 14.6668C22.5735 14.6668 24.6668 12.5735 24.6668 10.0002C24.6668 9.73883 24.6448 9.4775 24.6022 9.22283Z" fill="white"/>
<path d="M24.1953 5.52881L20 9.72414L19.138 8.86214L18.1953 9.80481L19.5286 11.1381C19.6586 11.2681 19.8293 11.3335 20 11.3335C20.1706 11.3335 20.3413 11.2681 20.4713 11.1381L25.138 6.47148L24.1953 5.52881Z" fill="white"/>
</g>
<defs>
<clipPath id="clip0_320_3825">
<rect width="40" height="40" fill="white"/>
</clipPath>
</defs>
</svg>
