<svg width="40" height="40" viewBox="0 0 40 40" fill="none" xmlns="http://www.w3.org/2000/svg">
<path d="M12.3699 25.8691C11.9304 26.3997 12.0053 27.1891 12.5359 27.6286C13.0665 28.0664 13.851 27.998 14.2969 27.4642C17.3764 23.7467 22.6238 23.7467 25.7032 27.4642C25.9506 27.762 26.3087 27.9167 26.6667 27.9167C26.9499 27.9167 27.2299 27.8223 27.4643 27.6286C27.9949 27.1891 28.0697 26.3997 27.6303 25.8691C23.5808 20.9863 16.4193 20.9863 12.3699 25.8691Z" fill="white"/>
<path d="M20 13.75C14.9187 13.75 10.1465 15.9701 6.56579 20.0033C6.10681 20.5192 6.15238 21.3102 6.66996 21.7676C7.18428 22.2249 7.97204 22.1794 8.43428 21.6634C11.5365 18.1722 15.6413 16.25 20 16.25C24.3588 16.25 28.4636 18.1722 31.5658 21.6634C31.8132 21.9417 32.155 22.0833 32.5 22.0833C32.7963 22.0833 33.0925 21.9792 33.3301 21.7676C33.8477 21.3102 33.8933 20.5192 33.4343 20.0033C29.8536 15.9701 25.0814 13.75 20 13.75Z" fill="white"/>
<path d="M39.2578 14.1567C34.1146 8.52035 27.2787 5.4165 20 5.4165C12.7214 5.4165 5.88543 8.52035 0.7422 14.1567C0.276706 14.6678 0.315768 15.4588 0.823581 15.9227C1.34116 16.3931 2.12566 16.3524 2.59116 15.8429C7.25262 10.7306 13.4343 7.9165 20 7.9165C26.5658 7.9165 32.7474 10.7306 37.4089 15.8429C37.6563 16.1131 37.9948 16.2498 38.3333 16.2498C38.6328 16.2498 38.9356 16.1424 39.1764 15.9227C39.6843 15.4588 39.7233 14.6678 39.2578 14.1567Z" fill="white"/>
<path d="M20 34.583C20.6904 34.583 21.25 34.0234 21.25 33.333C21.25 32.6427 20.6904 32.083 20 32.083C19.3096 32.083 18.75 32.6427 18.75 33.333C18.75 34.0234 19.3096 34.583 20 34.583Z" fill="white"/>
</svg>
