<svg width="28" height="24" viewBox="0 0 28 24" fill="none" xmlns="http://www.w3.org/2000/svg">
<path d="M26.3718 6.10239C25.4962 4.62819 24.2661 3.22589 23.4355 2.49022C21.6224 0.88383 20.11 0.922951 19.3696 1.08932C19.0586 1.15924 18.773 1.27451 18.5215 1.42825C17.2297 0.469617 15.6582 0 13.7569 0C11.8557 0 10.2841 0.469617 8.99237 1.4283C8.74087 1.27456 8.45531 1.15924 8.14427 1.08938C7.40414 0.923058 5.89147 0.883884 4.07845 2.49022C3.24782 3.22595 2.01776 4.62824 1.14204 6.10244C-0.0435242 8.09832 -0.307593 9.71288 0.357147 10.9014C1.16881 12.3525 2.39994 12.7238 3.39383 12.8154C3.14954 13.7641 2.99869 14.7791 2.99869 16.0437C2.99869 17.72 3.38023 19.1621 4.13284 20.33C4.7944 21.3568 5.74686 22.1791 6.9637 22.7739C9.21199 23.8729 11.9175 24 13.757 24C15.5964 24 18.3021 23.8729 20.5503 22.7739C21.7671 22.1791 22.7196 21.3568 23.3812 20.33C24.1337 19.162 24.5153 17.7199 24.5153 16.0437C24.5153 14.7791 24.3645 13.7642 24.1202 12.8154C25.114 12.7238 26.3452 12.3524 27.1568 10.9014C27.8215 9.71294 27.5574 8.09832 26.3718 6.10239ZM3.91632 11.1567C3.03674 11.1336 2.32149 10.9633 1.82704 10.0793C1.49161 9.47955 1.7697 8.34353 2.59012 6.96241C3.36873 5.65158 4.48632 4.37874 5.19524 3.7507C6.36597 2.71334 7.24362 2.65622 7.65655 2.71151C6.42772 4.20952 5.67453 6.15634 5.04466 8.04915C4.78382 8.83298 4.53243 9.50218 4.28921 10.1494C4.15917 10.4957 4.03406 10.8288 3.91632 11.1567ZM12.6583 16.6782C12.2226 16.2428 11.9946 15.7857 11.9946 15.5593C11.9946 15.357 12.0293 15.3425 12.1581 15.2883C12.5253 15.1338 13.2464 15.116 13.7569 15.116C14.2675 15.116 14.9886 15.1338 15.3558 15.2883C15.4846 15.3425 15.5193 15.3571 15.5193 15.5593C15.5193 15.7857 15.2913 16.2428 14.8556 16.6782C14.4272 17.1064 13.9698 17.3375 13.7569 17.3375C13.544 17.3375 13.0867 17.1064 12.6583 16.6782ZM19.8107 21.2609C18.5182 21.8926 16.8073 22.2352 14.599 22.3031V18.8535C15.2602 18.5983 15.7987 18.1168 16.0462 17.8695C16.3941 17.5217 17.2034 16.6004 17.2034 15.5593C17.2034 14.7076 16.7792 14.0601 16.0089 13.736C15.4955 13.52 14.843 13.4319 13.757 13.4319C12.671 13.4319 12.0185 13.52 11.505 13.736C10.7348 14.0601 10.3105 14.7076 10.3105 15.5593C10.3105 16.6004 11.1199 17.5217 11.4678 17.8695C11.7153 18.1169 12.2538 18.5984 12.9149 18.8535V22.3031C10.7066 22.2353 8.9957 21.8927 7.70324 21.2609C5.67076 20.2674 4.68274 18.5609 4.68274 16.0437C4.68274 13.8903 5.17895 12.5696 5.86567 10.7417C6.10282 10.1105 6.37151 9.39518 6.64251 8.58089C8.13105 4.10795 9.70568 1.6841 13.7569 1.6841C17.8082 1.6841 19.3828 4.108 20.8713 8.58089C21.1423 9.39524 21.4111 10.1105 21.6482 10.7417C22.3349 12.5696 22.8311 13.8903 22.8311 16.0437C22.8311 18.5609 21.8431 20.2674 19.8107 21.2609ZM25.6869 10.0793C25.1925 10.9634 24.4772 11.1335 23.5976 11.1567C23.4798 10.8288 23.3548 10.4957 23.2248 10.1494C22.9816 9.50223 22.7302 8.83298 22.4693 8.04915C21.8395 6.15634 21.0863 4.20952 19.8574 2.71151C20.2704 2.65633 21.1481 2.71334 22.3189 3.75075C23.0278 4.37868 24.1453 5.65147 24.9239 6.9623C25.7443 8.34353 26.0224 9.47961 25.6869 10.0793Z" fill="#BF930F"/>
<path d="M10.9547 8.95068C10.3455 8.95068 9.84961 9.45158 9.84961 10.07C9.84961 10.6885 10.3454 11.1898 10.9547 11.1898C11.5647 11.1898 12.0604 10.6884 12.0604 10.07C12.0604 9.45158 11.5647 8.95068 10.9547 8.95068Z" fill="#BF930F"/>
<path d="M16.5517 8.94189C15.9365 8.94189 15.4375 9.44698 15.4375 10.07C15.4375 10.6931 15.9365 11.1981 16.5517 11.1981C17.1661 11.1981 17.665 10.6931 17.665 10.07C17.6651 9.44698 17.1661 8.94189 16.5517 8.94189Z" fill="#BF930F"/>
</svg>
