<svg width="42" height="40" viewBox="0 0 42 40" fill="none" xmlns="http://www.w3.org/2000/svg">
<path fill-rule="evenodd" clip-rule="evenodd" d="M35.1833 40H3.16794C1.51677 40 0.163197 38.656 0.163197 36.9953V34.9601C0.0671987 34.8641 0 34.7201 0 34.5569C0 34.2497 0.259195 33.9905 0.566389 33.9905H6.51827V14.7333C6.51827 13.6293 7.26705 12.6981 8.38063 12.4198L14.4861 10.9126V9.27101C12.7773 9.00222 11.4718 7.52385 11.4718 5.73829C11.4718 4.07752 13.4685 1.84076 14.5821 0.237595C14.8029 -0.0791984 15.2925 -0.0791984 15.5133 0.237595C16.6365 1.84076 18.6332 4.06792 18.6332 5.73829C18.6332 7.52385 17.3277 9.00222 15.6189 9.27101V10.6342L20.6876 9.37661C22.1372 9.02142 23.5771 10.2118 23.5771 11.6998V16.2309C23.9611 16.3077 24.3259 16.4133 24.6811 16.5573C25.2763 15.8085 26.0347 15.1845 26.8891 14.7621C27.0523 14.6853 27.2347 14.6853 27.3979 14.7621C28.2522 15.1845 29.0106 15.8085 29.6058 16.5669C30.4794 16.2117 31.4394 16.0485 32.4186 16.1061C32.5913 16.1253 32.7545 16.2117 32.8505 16.3653C33.3785 17.1621 33.7337 18.074 33.8681 19.0148C34.8089 19.1492 35.7209 19.4948 36.5273 20.0324C36.6713 20.138 36.7673 20.2916 36.7769 20.474C36.8921 22.1732 36.3065 23.8435 35.2025 25.1107C38.8216 26.6851 39.4456 31.5522 36.3737 33.9905H41.0392C41.7784 33.9905 41.7784 35.1329 41.0392 35.1329H38.188V36.9953C38.188 38.656 36.8345 40 35.1833 40ZM34.0505 25.9171L33.1289 25.8115H22.6363C21.4268 25.8115 20.4476 26.8003 20.4476 28.0098C20.4476 29.2194 21.4268 30.1986 22.6363 30.1986H32.4186C33.1577 30.1986 33.1577 31.341 32.4186 31.341H22.6363C19.7372 31.341 18.3068 27.9042 20.1308 25.8115C17.5196 25.8115 15.8301 27.8274 15.8589 29.9586C15.8781 32.1762 17.7308 33.9905 19.9484 33.9905H33.1289C35.3849 33.9905 37.2185 32.157 37.2185 29.901C37.2185 27.9618 35.8649 26.3395 34.0505 25.9171ZM1.30557 35.1329V36.9953C1.30557 38.0224 2.14076 38.8576 3.16794 38.8576H35.1833C36.2105 38.8576 37.0457 38.0224 37.0457 36.9953V35.1329H1.30557ZM14.9757 28.3074C15.5325 26.5603 17.0301 25.1971 18.8252 24.8035C17.894 23.5747 17.4045 22.0292 17.51 20.474C17.5196 20.2916 17.6156 20.138 17.7596 20.0324C18.566 19.4948 19.4684 19.1492 20.4188 19.0148C20.5436 18.1604 20.8892 17.0277 21.4844 16.2981C21.6956 16.0389 22.1372 16.0869 22.4444 16.0965V11.6998C22.4444 10.9414 21.6956 10.2982 20.9564 10.4806L8.64943 13.5237C8.06384 13.6677 7.66065 14.1573 7.66065 14.7333V33.9905H16.7037C15.0333 32.6561 14.3037 30.3522 14.9757 28.3074ZM20.2364 24.6787H26.5435C26.1691 21.8852 23.5771 19.8308 20.7836 20.1188C20.0252 20.2052 19.286 20.4452 18.6332 20.8292C18.614 22.2596 19.2092 23.6803 20.2364 24.6787ZM27.7434 24.6787C29.4618 24.6787 31.641 24.6307 33.3017 24.6787L33.9737 24.7459C35.0585 23.7379 35.6633 22.3076 35.6537 20.8292C32.4186 18.9092 28.233 20.954 27.7434 24.6787ZM15.0525 1.52397C14.1405 2.73355 12.6045 4.66311 12.6045 5.73829C12.6045 7.09186 13.7085 8.18624 15.0525 8.18624C16.3965 8.18624 17.4909 7.09186 17.4909 5.73829C17.4909 4.66311 15.9549 2.73355 15.0525 1.52397ZM26.4571 19.2836C25.4587 17.9972 23.9035 17.2293 22.2332 17.2293C21.9164 17.7668 21.6956 18.3524 21.5804 18.9572C23.1643 19.0244 24.6907 19.6868 25.8139 20.8004C25.9675 20.2724 26.1787 19.7636 26.4571 19.2836ZM26.7547 21.9716C26.8987 22.202 27.0235 22.4419 27.1387 22.6915C28.137 20.5028 30.3162 19.0628 32.7065 18.9572C32.5913 18.3524 32.3706 17.7668 32.0538 17.2293C29.2986 17.2101 27.0139 19.3124 26.7547 21.9716ZM27.1387 18.3236C27.5514 17.8436 28.0314 17.4309 28.569 17.0853C28.1658 16.6149 27.6858 16.2213 27.1387 15.9141C26.6011 16.2213 26.1211 16.6149 25.7179 17.0853C26.2651 17.4692 26.6971 17.7956 27.1387 18.3236Z" fill="white"/>
</svg>
