<svg width="40" height="40" viewBox="0 0 40 40" fill="none" xmlns="http://www.w3.org/2000/svg">
<path d="M30 5V13.3333M10 5V13.3333" stroke="white" stroke-width="1.5" stroke-linecap="round" stroke-linejoin="round"/>
<path d="M34.1668 6.6665V9.1665M34.1668 9.1665V11.6665M34.1668 9.1665H36.6668M5.8335 6.6665V9.1665M5.8335 9.1665V11.6665M5.8335 9.1665H3.3335" stroke="white" stroke-width="1.5" stroke-linecap="round" stroke-linejoin="round"/>
<path d="M30 9.1665H10" stroke="white" stroke-width="1.5" stroke-linecap="round" stroke-linejoin="round"/>
<path d="M12.1277 31.6665H27.8727C29.9352 31.6665 30.9663 31.6665 31.3928 31.1622C32.3607 30.0177 30.5065 28.505 29.83 27.7425C29.0677 26.8835 28.51 26.6665 27.3833 26.6665H12.617C11.4903 26.6665 10.9327 26.8835 10.1704 27.7425C9.49377 28.505 7.63974 30.0177 8.60756 31.1622C9.03393 31.6665 10.0652 31.6665 12.1277 31.6665Z" stroke="white" stroke-width="1.5" stroke-linecap="round" stroke-linejoin="round"/>
<path d="M15 13.3335V26.6668M25 13.3335V26.6668" stroke="white" stroke-width="1.5" stroke-linecap="round" stroke-linejoin="round"/>
<path d="M26.6668 31.6665V34.9998M13.3335 31.6665V34.9998" stroke="white" stroke-width="1.5" stroke-linecap="round" stroke-linejoin="round"/>
</svg>
