<svg width="24" height="24" viewBox="0 0 24 24" fill="none" xmlns="http://www.w3.org/2000/svg">
<g clip-path="url(#clip0_540_5409)">
<path d="M23.5312 7.17225H16.6247C16.6814 7.01911 16.7124 6.85364 16.7124 6.68105V6.30605H17.1265C17.8795 6.30605 18.4922 5.69339 18.4922 4.94034C18.4922 4.1873 17.8796 3.57464 17.1265 3.57464H13.4878C13.229 3.57464 13.0191 3.7845 13.0191 4.04339V6.68109C13.0191 6.85369 13.0501 7.01916 13.1068 7.1723H11.0922C11.1247 7.05511 11.1423 6.93113 11.1423 6.80273V4.3245C11.1423 3.97083 11.0273 3.62658 10.8186 3.35522L10.559 3.01767C10.4909 2.92912 10.4477 2.81897 10.4341 2.69906L10.2527 1.09641C10.3868 1.01391 10.4765 0.86625 10.4765 0.697266C10.4765 0.438375 10.2667 0.228516 10.0078 0.228516H8.09372C7.83483 0.228516 7.62497 0.438375 7.62497 0.697266C7.62497 0.86625 7.71469 1.01391 7.8488 1.09641L7.66744 2.69906C7.65384 2.81897 7.61072 2.92912 7.54256 3.01767L7.28288 3.35522C7.07414 3.62663 6.9592 3.97083 6.9592 4.3245V6.80269C6.9592 6.93108 6.97692 7.05506 7.00936 7.17225H0.46875C0.209859 7.17225 0 7.38211 0 7.641V9.61247C0 9.87136 0.209859 10.0812 0.46875 10.0812H1.40677V20.6977C1.40677 20.9566 1.61663 21.1665 1.87552 21.1665H6.47836C5.73028 22.287 4.36331 22.8608 4.34489 22.8684C4.13714 22.9528 4.01827 23.1725 4.06125 23.3925C4.10423 23.6126 4.29708 23.7714 4.52128 23.7714H10.3247C10.5486 23.7714 10.7408 23.613 10.7842 23.3932C10.8275 23.1735 10.7091 22.9538 10.5019 22.8688C10.483 22.861 9.11686 22.2871 8.3693 21.1665H15.6324C14.8843 22.287 13.5173 22.8608 13.4989 22.8684C13.2911 22.9528 13.1722 23.1725 13.2152 23.3926C13.2582 23.6127 13.4511 23.7715 13.6753 23.7715H19.4786C19.7028 23.7715 19.8956 23.6127 19.9387 23.3926C19.9816 23.1726 19.8629 22.9529 19.6551 22.8685C19.6361 22.8608 18.2669 22.2909 17.5202 21.1665H22.1244C22.3833 21.1665 22.5932 20.9566 22.5932 20.6978V10.0812H23.5312C23.7901 10.0812 24 9.87131 24 9.61242V7.64095C24 7.38211 23.7901 7.17225 23.5312 7.17225ZM17.5547 4.9403C17.5547 5.17641 17.3626 5.3685 17.1265 5.3685H16.7124V4.51205H17.1265C17.3626 4.51205 17.5547 4.70414 17.5547 4.9403ZM13.9566 4.51205H15.7749V6.681C15.7749 6.94645 15.559 7.16245 15.2935 7.16245H14.438C14.1725 7.16245 13.9565 6.9465 13.9565 6.681L13.9566 4.51205ZM9.3172 1.16602L9.50264 2.80448C9.53541 3.09403 9.64373 3.36544 9.81595 3.58927L10.0756 3.92681C10.159 4.03519 10.2049 4.17642 10.2049 4.3245V6.80269C10.2049 6.99769 10.0815 7.16245 9.93539 7.16245H8.16633C8.02027 7.16245 7.89684 6.99769 7.89684 6.80269V4.3245C7.89684 4.17647 7.94273 4.03523 8.02612 3.92681L8.28581 3.58927C8.45798 3.36534 8.56636 3.09398 8.59912 2.80448L8.78456 1.16602H9.3172ZM8.65772 22.8339H6.18923C6.21675 22.8118 6.24441 22.7893 6.27202 22.7664C6.76692 22.3558 7.15294 21.903 7.42388 21.4202C7.69463 21.903 8.08036 22.3557 8.57489 22.7663C8.6025 22.7892 8.63016 22.8118 8.65772 22.8339ZM17.8117 22.8339H15.3432C15.3708 22.8118 15.3984 22.7893 15.426 22.7664C15.921 22.3558 16.307 21.903 16.5779 21.4202C16.8486 21.903 17.2343 22.3557 17.7289 22.7663C17.7565 22.7892 17.7842 22.8118 17.8117 22.8339ZM23.0625 9.14367H14.0787C13.8198 9.14367 13.6099 9.35353 13.6099 9.61242C13.6099 9.87131 13.8198 10.0812 14.0787 10.0812H21.6558V20.2289H17.1098C17.0704 20.0547 17.0483 19.8719 17.0471 19.6806L17.0475 19.2617H18.5054C18.7642 19.2617 18.9742 19.0518 18.9742 18.7929C18.9742 18.534 18.7642 18.3242 18.5054 18.3242H17.0483L17.0505 15.8129H18.5198C19.2754 15.8129 19.8902 15.1981 19.8902 14.4424C19.8902 13.6867 19.2754 13.072 18.5198 13.072H14.6447C13.889 13.072 13.2743 13.6867 13.2743 14.4424C13.2743 15.1981 13.889 15.8129 14.6447 15.8129H16.113L16.1108 18.3242H14.6385C14.3796 18.3242 14.1697 18.534 14.1697 18.7929C14.1697 19.0518 14.3796 19.2617 14.6385 19.2617H16.11L16.1097 19.658C16.1096 19.6601 16.1093 19.6622 16.1093 19.6644C16.1093 19.8615 16.0868 20.0497 16.0457 20.2289H7.95628C7.91648 20.0546 7.89427 19.8718 7.89305 19.6805L7.89342 19.2616H9.35133C9.61022 19.2616 9.82008 19.0518 9.82008 18.7929C9.82008 18.534 9.61022 18.3241 9.35133 18.3241H7.89422L7.89642 15.8128H9.36563C10.1213 15.8128 10.7361 15.198 10.7361 14.4424C10.7361 13.6867 10.1213 13.0719 9.36563 13.0719H5.49056C4.73489 13.0719 4.12013 13.6867 4.12013 14.4424C4.12013 15.198 4.73489 15.8128 5.49056 15.8128H6.95892L6.95672 18.3241H5.48438C5.22548 18.3241 5.01562 18.534 5.01562 18.7929C5.01562 19.0518 5.22548 19.2616 5.48438 19.2616H6.95592L6.95559 19.6579C6.95555 19.6601 6.95527 19.6622 6.95527 19.6643C6.95527 19.8615 6.93267 20.0497 6.89166 20.2288H2.34427V10.0812H9.95367C10.2126 10.0812 10.4224 9.87131 10.4224 9.61242C10.4224 9.35353 10.2126 9.14367 9.95367 9.14367H0.9375V8.1097H23.0625V9.14367ZM14.6446 14.8754C14.4059 14.8754 14.2117 14.6812 14.2117 14.4425C14.2117 14.2038 14.4059 14.0095 14.6446 14.0095H18.5197C18.7584 14.0095 18.9526 14.2038 18.9526 14.4425C18.9526 14.6812 18.7583 14.8754 18.5197 14.8754H14.6446ZM5.49056 14.8754C5.25183 14.8754 5.05763 14.6812 5.05763 14.4425C5.05763 14.2038 5.25188 14.0095 5.49056 14.0095H9.36563C9.60436 14.0095 9.79856 14.2038 9.79856 14.4425C9.79856 14.6812 9.60431 14.8754 9.36563 14.8754H5.49056Z" fill="#BF930F"/>
<path d="M11.7389 10.0022C11.9122 10.1177 12.1473 10.1032 12.3051 9.96735C12.4454 9.84664 12.5018 9.64785 12.4459 9.4715C12.386 9.28297 12.2088 9.14886 12.0108 9.14394C11.8116 9.13897 11.6272 9.26544 11.5589 9.45219C11.4861 9.65132 11.5606 9.88546 11.7389 10.0022Z" fill="#BF930F"/>
</g>
<defs>
<clipPath id="clip0_540_5409">
<rect width="24" height="24" fill="white"/>
</clipPath>
</defs>
</svg>
