<svg width="22" height="24" viewBox="0 0 22 24" fill="none" xmlns="http://www.w3.org/2000/svg">
<path d="M10.5197 21.1382C-2.65264 20.1405 -2.23874 1.32697 10.9404 0.850291C13.5158 0.84431 15.9959 1.82373 17.8722 3.58775C17.9129 3.62597 17.9608 3.6558 18.013 3.67553C18.0652 3.69527 18.1208 3.70452 18.1766 3.70277C18.2324 3.70102 18.2873 3.68829 18.3382 3.66531C18.3891 3.64234 18.435 3.60956 18.4732 3.56886C18.5114 3.52816 18.5412 3.48033 18.561 3.42811C18.5807 3.37588 18.59 3.32027 18.5882 3.26447C18.5865 3.20867 18.5737 3.15375 18.5508 3.10287C18.5278 3.05198 18.495 3.00612 18.4543 2.9679C16.4204 1.05556 13.732 -0.00629341 10.9403 2.80635e-05C-3.34737 0.5191 -3.78751 20.9091 10.4854 21.9876C10.5969 21.9903 10.705 21.949 10.7863 21.8727C10.8676 21.7964 10.9158 21.6912 10.9203 21.5798C10.9248 21.4683 10.8853 21.3596 10.8104 21.277C10.7355 21.1944 10.6311 21.1445 10.5197 21.1382Z" fill="#BF930F"/>
<path d="M10.9405 2.6912C0.162883 3.08332 -0.18675 18.4424 10.571 19.2969C10.6811 19.2953 10.7862 19.2512 10.8644 19.1737C10.9426 19.0962 10.9877 18.9914 10.9902 18.8813C10.9927 18.7713 10.9524 18.6645 10.8779 18.5836C10.8034 18.5026 10.7003 18.4536 10.5904 18.447C8.6745 18.3598 6.86612 17.5366 5.54215 16.149C4.21818 14.7613 3.48075 12.9163 3.48355 10.9984C3.46909 4.38805 11.6063 1.03723 16.2375 5.74964C16.3175 5.82702 16.4246 5.86998 16.5359 5.8693C16.6471 5.86863 16.7537 5.82437 16.8327 5.74603C16.9118 5.66769 16.9569 5.56149 16.9586 5.45023C16.9602 5.33896 16.9182 5.23148 16.8415 5.15084C16.071 4.36889 15.1522 3.74856 14.1389 3.32621C13.1256 2.90385 12.0382 2.68797 10.9405 2.6912Z" fill="#BF930F"/>
<path d="M21.284 11.8344C21.2799 11.7229 21.2323 11.6175 21.1512 11.5408C21.0701 11.4642 20.9622 11.4224 20.8507 11.4246C20.7391 11.4268 20.6329 11.4727 20.5549 11.5525C20.4769 11.6323 20.4334 11.7395 20.4337 11.851L20.6293 21.8472C20.6307 21.9623 20.6092 22.0766 20.566 22.1833C20.5227 22.2901 20.4586 22.3871 20.3774 22.4688C20.2962 22.5504 20.1995 22.6151 20.093 22.6589C19.9865 22.7027 19.8723 22.7248 19.7572 22.724C19.642 22.7232 19.5282 22.6993 19.4223 22.654C19.3165 22.6086 19.2207 22.5425 19.1407 22.4597C19.0607 22.3769 18.998 22.2789 18.9564 22.1715C18.9147 22.0642 18.8948 21.9496 18.898 21.8345L19.2721 15.8803C19.3847 14.7397 18.6084 13.6528 18.5829 12.539C18.3625 9.97816 18.8324 7.40506 19.9438 5.08746C19.9654 5.05186 19.9978 5.02408 20.0362 5.00816C20.0747 4.99224 20.1172 4.98902 20.1576 4.99896C20.1981 5.0089 20.2342 5.03148 20.2609 5.06342C20.2876 5.09536 20.3034 5.13499 20.306 5.17653L20.4038 10.1505C20.408 10.2619 20.4557 10.3672 20.5368 10.4438C20.6178 10.5203 20.7257 10.562 20.8371 10.5598C20.9486 10.5576 21.0547 10.5118 21.1327 10.4321C21.2107 10.3525 21.2543 10.2454 21.2541 10.1339L21.1561 5.15742C21.1474 4.8854 21.0336 4.62735 20.8386 4.43748C20.6436 4.2476 20.3826 4.1407 20.1105 4.13921C19.9182 4.13728 19.7292 4.18955 19.5652 4.29003C19.4012 4.39051 19.2688 4.53515 19.1832 4.70737C17.9928 7.16187 17.4924 9.89393 17.7357 12.611C17.7327 13.6863 18.4691 14.7293 18.4237 15.8253L18.0492 21.7845C18.0303 22.1339 18.1187 22.4807 18.3027 22.7784C18.4866 23.076 18.7572 23.3103 19.0782 23.4497C19.3434 23.5575 19.631 23.5983 19.9157 23.5687C20.2004 23.539 20.4734 23.4397 20.7107 23.2796C20.948 23.1195 21.1422 22.9035 21.2763 22.6506C21.4104 22.3977 21.4801 22.1157 21.4795 21.8295L21.284 11.8344Z" fill="#BF930F"/>
<path d="M15.7621 7.93335C15.6493 7.93335 15.5412 7.97814 15.4614 8.05787C15.3817 8.1376 15.3369 8.24573 15.3369 8.35849V12.4415C15.3369 12.4909 15.3228 12.5393 15.2962 12.581L14.2097 14.2886C13.9857 14.6419 13.8846 15.0594 13.9222 15.476L14.5325 22.1317C14.5443 22.2608 14.5291 22.391 14.4878 22.514C14.4465 22.6369 14.38 22.7499 14.2925 22.8457C14.2051 22.9415 14.0987 23.018 13.98 23.0703C13.8613 23.1227 13.7331 23.1497 13.6034 23.1497C13.4737 23.1497 13.3454 23.1227 13.2267 23.0703C13.1081 23.018 13.0016 22.9415 12.9142 22.8457C12.8268 22.7499 12.7603 22.6369 12.7189 22.514C12.6776 22.391 12.6624 22.2608 12.6742 22.1317L13.2845 15.476C13.322 15.0593 13.221 14.6419 12.9972 14.2884L11.9105 12.5812C11.884 12.5395 11.8698 12.491 11.8698 12.4415V8.3585C11.8698 8.24575 11.825 8.13761 11.7453 8.05788C11.6656 7.97815 11.5574 7.93336 11.4447 7.93336C11.3319 7.93336 11.2238 7.97815 11.1441 8.05788C11.0643 8.13761 11.0195 8.24575 11.0195 8.3585V12.4415C11.0195 12.6527 11.0797 12.8595 11.1931 13.0377L12.2796 14.7447C12.4028 14.9393 12.4585 15.169 12.438 15.3984L11.8277 22.054C11.805 22.3009 11.8341 22.5498 11.9131 22.7847C11.992 23.0197 12.1191 23.2357 12.2862 23.4188C12.4533 23.6019 12.6567 23.7482 12.8835 23.8483C13.1103 23.9483 13.3555 24 13.6034 24C13.8513 24 14.0965 23.9483 14.3233 23.8482C14.5501 23.7481 14.7535 23.6019 14.9206 23.4188C15.0877 23.2356 15.2147 23.0197 15.2937 22.7847C15.3726 22.5497 15.4017 22.3008 15.379 22.054L14.7687 15.3984C14.7482 15.1691 14.8039 14.9395 14.9271 14.7451L16.0136 13.0375C16.1271 12.8594 16.1873 12.6526 16.1872 12.4415V8.35849C16.1872 8.24574 16.1424 8.1376 16.0627 8.05788C15.9829 7.97815 15.8748 7.93336 15.7621 7.93335Z" fill="#BF930F"/>
<path d="M13.2858 11.8053V8.35833C13.2842 8.24667 13.2386 8.14014 13.1591 8.06177C13.0795 7.98339 12.9724 7.93945 12.8607 7.93945C12.749 7.93945 12.6418 7.98339 12.5623 8.06177C12.4827 8.14014 12.4372 8.24667 12.4355 8.35833V11.8053C12.4372 11.917 12.4827 12.0235 12.5623 12.1019C12.6418 12.1802 12.749 12.2242 12.8607 12.2242C12.9724 12.2242 13.0795 12.1802 13.1591 12.1019C13.2386 12.0235 13.2842 11.917 13.2858 11.8053Z" fill="#BF930F"/>
<path d="M14.7702 11.8053V8.35833C14.7685 8.24667 14.723 8.14014 14.6435 8.06177C14.5639 7.98339 14.4567 7.93945 14.3451 7.93945C14.2334 7.93945 14.1262 7.98339 14.0466 8.06177C13.9671 8.14014 13.9216 8.24667 13.9199 8.35833V11.8053C13.9216 11.917 13.9671 12.0235 14.0466 12.1019C14.1262 12.1802 14.2334 12.2242 14.3451 12.2242C14.4567 12.2242 14.5639 12.1802 14.6435 12.1019C14.723 12.0235 14.7685 11.917 14.7702 11.8053Z" fill="#BF930F"/>
</svg>
