<svg width="24" height="24" viewBox="0 0 24 24" fill="none" xmlns="http://www.w3.org/2000/svg">
<path d="M7.42181 15.5215C7.15814 15.8398 7.20306 16.3135 7.52142 16.5771C7.83978 16.8398 8.31049 16.7988 8.57806 16.4785C10.4257 14.248 13.5742 14.248 15.4218 16.4785C15.5703 16.6572 15.7851 16.75 15.9999 16.75C16.1699 16.75 16.3378 16.6934 16.4785 16.5771C16.7968 16.3135 16.8417 15.8398 16.5781 15.5215C14.1484 12.5918 9.8515 12.5918 7.42181 15.5215Z" fill="#BF930F"/>
<path d="M12.0003 8.25C8.95149 8.25 6.0882 9.58203 3.93977 12.002C3.66438 12.3115 3.69172 12.7861 4.00227 13.0605C4.31086 13.335 4.78352 13.3076 5.06086 12.998C6.92219 10.9033 9.38508 9.75 12.0003 9.75C14.6155 9.75 17.0784 10.9033 18.9398 12.998C19.0882 13.165 19.2933 13.25 19.5003 13.25C19.6781 13.25 19.8558 13.1875 19.9984 13.0605C20.3089 12.7861 20.3363 12.3115 20.0609 12.002C17.9124 9.58203 15.0491 8.25 12.0003 8.25Z" fill="#BF930F"/>
<path d="M23.5548 8.49414C20.4689 5.1123 16.3673 3.25 12.0001 3.25C7.63292 3.25 3.53136 5.1123 0.445418 8.49414C0.166121 8.80078 0.189558 9.27539 0.494246 9.55371C0.804793 9.83594 1.2755 9.81152 1.55479 9.50586C4.35167 6.43848 8.06065 4.75 12.0001 4.75C15.9396 4.75 19.6485 6.43848 22.4454 9.50586C22.5939 9.66797 22.797 9.75 23.0001 9.75C23.1798 9.75 23.3614 9.68555 23.506 9.55371C23.8107 9.27539 23.8341 8.80078 23.5548 8.49414Z" fill="#BF930F"/>
<path d="M12 20.75C12.4142 20.75 12.75 20.4142 12.75 20C12.75 19.5858 12.4142 19.25 12 19.25C11.5858 19.25 11.25 19.5858 11.25 20C11.25 20.4142 11.5858 20.75 12 20.75Z" fill="#BF930F"/>
</svg>
