<svg width="53" height="56" viewBox="0 0 53 56" fill="none" xmlns="http://www.w3.org/2000/svg">
<path d="M43.8139 0C39.0287 0 35.1488 3.87991 35.1488 8.66513V13.2564H14.5853V8.66513C14.5853 5.17321 17.4306 2.32794 20.9225 2.32794C24.4144 2.32794 27.2597 5.17321 27.2597 8.66513C27.2597 9.31178 27.777 9.8291 28.4236 9.8291C29.0703 9.8291 29.5876 9.31178 29.5876 8.66513C29.5876 3.87991 25.7077 0 20.9225 0C16.1373 0 12.2574 3.87991 12.2574 8.66513V38.0878C12.1927 38.7344 12.7747 39.3164 13.4213 39.3164C14.068 39.3164 14.5853 38.7991 14.5853 38.1524V35.2425H35.2135V38.1524C35.2135 38.7991 35.7308 39.3164 36.3775 39.3164C37.0241 39.3164 37.5414 38.7991 37.5414 38.1524V8.66513C37.5414 5.17321 40.3867 2.32794 43.8786 2.32794C47.3705 2.32794 50.1511 5.17321 50.1511 8.66513C50.1511 9.31178 50.6684 9.8291 51.3151 9.8291C51.9618 9.8291 52.4791 9.31178 52.4791 8.66513C52.4791 3.87991 48.5992 0 43.8139 0ZM35.2135 32.7852H14.5853V28.6467H35.2135V32.7852ZM35.2135 26.3187H14.5853V22.1801H35.2135V26.3187ZM35.2135 19.7229H14.5853V15.5843H35.2135V19.7229Z" fill="white"/>
<path d="M49.5691 43.843C49.3105 43.261 48.5991 42.9376 48.0172 43.261C42.1973 45.7829 39.352 44.5543 36.3128 43.261C33.2088 41.9677 30.0403 40.6097 24.4144 43.261C18.5945 45.7829 15.7493 44.5543 12.71 43.261C9.60607 41.9677 6.37281 40.6097 0.746948 43.261C0.164962 43.5196 -0.0936988 44.231 0.164962 44.8129C0.423622 45.3949 1.13494 45.6536 1.71692 45.3949C6.43748 43.1963 8.89475 44.231 11.74 45.4596C13.6153 46.2356 15.6199 47.0762 18.2712 47.0762C20.2112 47.0762 22.4744 46.6236 25.3197 45.3949C30.0402 43.1963 32.4975 44.231 35.3428 45.4596C37.2181 46.2356 39.2227 47.0762 41.874 47.0762C43.8139 47.0762 46.0772 46.6236 48.9225 45.3949C49.5045 45.1363 49.8278 44.4249 49.5691 43.843Z" fill="white"/>
<path d="M49.5044 52.7668C49.2458 52.1848 48.5344 51.8615 47.9525 52.1848C42.1326 54.7067 39.2873 53.4781 36.2481 52.1848C33.1441 50.8915 29.9755 49.5335 24.3497 52.1848C18.5298 54.7067 15.6846 53.4781 12.6453 52.1848C9.54137 50.8915 6.37278 49.5335 0.68225 52.1848C0.100264 52.4435 -0.158396 53.1548 0.100264 53.7368C0.42359 54.3188 1.13491 54.5774 1.71689 54.3188C6.43745 52.1201 8.89472 53.1548 11.74 54.3834C13.6153 55.1594 15.6199 56 18.2712 56C20.2111 56 22.4744 55.5474 25.3197 54.3188C30.0402 52.1201 32.4975 53.1548 35.3428 54.3834C37.218 55.1594 39.2227 56 41.8739 56C43.8139 56 46.0772 55.5474 48.9224 54.3188C49.5044 54.0601 49.8277 53.3488 49.5044 52.7668Z" fill="white"/>
</svg>
