<svg width="64" height="64" viewBox="0 0 64 64" fill="none" xmlns="http://www.w3.org/2000/svg">
<path d="M31.3453 56.3684C-7.90397 53.7081 -6.6707 3.53858 32.5987 2.26744C40.2725 2.25149 47.6624 4.86328 53.2533 9.56734C53.3746 9.66926 53.5171 9.7488 53.6728 9.80143C53.8284 9.85405 53.9941 9.87873 54.1603 9.87405C54.3266 9.86938 54.4902 9.83543 54.6419 9.77417C54.7935 9.7129 54.9301 9.6255 55.044 9.51697C55.1579 9.40843 55.2468 9.28089 55.3056 9.14162C55.3644 9.00234 55.392 8.85406 55.3867 8.70525C55.3815 8.55644 55.3436 8.41001 55.2751 8.27431C55.2067 8.13862 55.109 8.01632 54.9877 7.9144C48.9274 2.81483 40.9169 -0.0167824 32.5984 7.4836e-05C-9.97405 1.38427 -11.2855 55.7575 31.243 58.6337C31.5752 58.6407 31.8972 58.5307 32.1396 58.3272C32.382 58.1238 32.5253 57.8432 32.5388 57.5461C32.5522 57.2489 32.4346 56.9589 32.2113 56.7387C31.9881 56.5184 31.6771 56.3854 31.3453 56.3684Z" fill="white"/>
<path d="M32.5982 7.17636C0.484604 8.22203 -0.557186 49.1796 31.4974 51.4583C31.8253 51.4541 32.1387 51.3363 32.3716 51.1296C32.6045 50.9229 32.7389 50.6435 32.7464 50.35C32.7538 50.0566 32.6339 49.772 32.4118 49.556C32.1897 49.34 31.8827 49.2095 31.5553 49.1919C25.8464 48.9593 20.458 46.7641 16.513 43.0638C12.568 39.3634 10.3708 34.4433 10.3791 29.3289C10.336 11.7013 34.5821 2.76579 48.3816 15.3322C48.6199 15.5385 48.9391 15.6531 49.2706 15.6513C49.6022 15.6495 49.9198 15.5315 50.1553 15.3226C50.3907 15.1137 50.5253 14.8305 50.5302 14.5338C50.5351 14.2371 50.4099 13.9505 50.1814 13.7354C47.8856 11.6502 45.1478 9.99599 42.1286 8.86972C39.1093 7.74344 35.8692 7.16775 32.5982 7.17636Z" fill="white"/>
<path d="M63.4175 31.5588C63.4055 31.2615 63.2634 30.9803 63.0219 30.7759C62.7803 30.5715 62.4587 30.4602 62.1264 30.466C61.794 30.4718 61.4775 30.5943 61.2451 30.807C61.0127 31.0197 60.883 31.3056 60.884 31.6031L61.4667 58.2594C61.4711 58.5665 61.4069 58.8713 61.2781 59.1559C61.1492 59.4405 60.9582 59.6993 60.7162 59.917C60.4742 60.1348 60.1861 60.3071 59.8688 60.424C59.5514 60.5409 59.2112 60.5999 58.8681 60.5977C58.5249 60.5954 58.1857 60.5319 57.8703 60.4109C57.555 60.2899 57.2697 60.1138 57.0313 59.8929C56.7929 59.672 56.6062 59.4107 56.482 59.1244C56.3578 58.8381 56.2987 58.5325 56.3081 58.2256L57.4226 42.3478C57.7582 39.3062 55.4452 36.4077 55.3692 33.4376C54.7125 26.6087 56.1127 19.7471 59.4242 13.5669C59.4885 13.4719 59.585 13.3979 59.6996 13.3554C59.8142 13.313 59.9409 13.3044 60.0614 13.3309C60.1818 13.3574 60.2896 13.4176 60.3692 13.5028C60.4487 13.588 60.4958 13.6936 60.5035 13.8044L60.7949 27.0683C60.8073 27.3654 60.9495 27.6462 61.191 27.8504C61.4325 28.0545 61.7539 28.1656 62.086 28.1598C62.4181 28.154 62.7344 28.0317 62.9667 27.8193C63.1991 27.6069 63.329 27.3213 63.3284 27.024L63.0365 13.7534C63.0105 13.0281 62.6714 12.3399 62.0904 11.8336C61.5094 11.3273 60.7318 11.0422 59.9209 11.0382C59.3478 11.0331 58.7847 11.1725 58.2961 11.4404C57.8074 11.7084 57.413 12.0941 57.1579 12.5533C53.6108 19.0986 52.1199 26.3842 52.8448 33.6297C52.8358 36.4971 55.0301 39.2786 54.8949 42.201L53.7788 58.0922C53.7225 59.024 53.9861 59.9489 54.5342 60.7427C55.0823 61.5364 55.8886 62.1612 56.8449 62.5329C57.6351 62.8203 58.4921 62.9292 59.3404 62.8501C60.1887 62.771 61.0022 62.5063 61.7093 62.0794C62.4163 61.6524 62.995 61.0764 63.3945 60.402C63.7941 59.7276 64.002 58.9756 64.0001 58.2123L63.4175 31.5588Z" fill="white"/>
<path d="M46.9639 21.1558C46.6279 21.1558 46.3057 21.2752 46.0682 21.4878C45.8306 21.7004 45.6971 21.9888 45.6971 22.2895V33.1775C45.6971 33.3093 45.655 33.4384 45.5759 33.5495L42.3385 38.1031C41.6709 39.0453 41.3697 40.1584 41.4818 41.2696L43.3003 59.018C43.3355 59.3624 43.2901 59.7096 43.167 60.0374C43.0439 60.3652 42.8457 60.6665 42.5852 60.922C42.3247 61.1774 42.0075 61.3815 41.654 61.5211C41.3004 61.6607 40.9182 61.7328 40.5317 61.7328C40.1453 61.7328 39.7631 61.6607 39.4095 61.5211C39.0559 61.3815 38.7388 61.1774 38.4783 60.922C38.2177 60.6665 38.0196 60.3652 37.8965 60.0374C37.7733 59.7096 37.7279 59.3624 37.7631 59.018L39.5817 41.2696C39.6934 40.1584 39.3925 39.0452 38.7256 38.1026L35.4875 33.5501C35.4085 33.4387 35.3664 33.3095 35.3663 33.1776V22.2895C35.3663 21.9888 35.2328 21.7005 34.9953 21.4878C34.7577 21.2752 34.4355 21.1558 34.0995 21.1558C33.7636 21.1558 33.4414 21.2752 33.2038 21.4878C32.9662 21.7005 32.8328 21.9888 32.8328 22.2895V33.1776C32.8326 33.7407 33.012 34.2923 33.3499 34.7674L36.5873 39.3194C36.9545 39.8382 37.1203 40.4508 37.0592 41.0625L35.2408 58.8109C35.1733 59.4692 35.26 60.1328 35.4952 60.7595C35.7304 61.3861 36.1091 61.962 36.607 62.4503C37.1049 62.9386 37.7111 63.3286 38.3868 63.5955C39.0626 63.8624 39.7932 64.0002 40.5318 64.0002C41.2705 64.0002 42.001 63.8623 42.6768 63.5954C43.3525 63.3286 43.9587 62.9385 44.4566 62.4502C44.9545 61.9618 45.3331 61.386 45.5683 60.7593C45.8035 60.1327 45.8901 59.469 45.8226 58.8107L44.0042 41.0625C43.943 40.4511 44.1089 39.8388 44.4761 39.3204L47.7136 34.7668C48.0515 34.2919 48.2309 33.7405 48.2307 33.1775V22.2895C48.2307 21.9888 48.0972 21.7004 47.8596 21.4878C47.6221 21.2752 47.2999 21.1558 46.9639 21.1558Z" fill="white"/>
<path d="M39.5851 31.4808V22.2889C39.5801 21.9911 39.4445 21.707 39.2075 21.498C38.9704 21.289 38.651 21.1719 38.3183 21.1719C37.9855 21.1719 37.6661 21.289 37.4291 21.498C37.1921 21.707 37.0564 21.9911 37.0515 22.2889V31.4808C37.0564 31.7785 37.1921 32.0626 37.4291 32.2716C37.6661 32.4806 37.9855 32.5978 38.3183 32.5978C38.651 32.5978 38.9704 32.4807 39.2074 32.2717C39.4445 32.0627 39.5801 31.7786 39.5851 31.4808Z" fill="white"/>
<path d="M44.0118 31.4808V22.2889C44.0069 21.9911 43.8712 21.707 43.6342 21.498C43.3972 21.289 43.0778 21.1719 42.745 21.1719C42.4123 21.1719 42.0929 21.289 41.8559 21.498C41.6188 21.707 41.4832 21.9911 41.4783 22.2889V31.4808C41.4832 31.7785 41.6188 32.0626 41.8559 32.2716C42.0929 32.4806 42.4123 32.5978 42.745 32.5978C43.0778 32.5978 43.3972 32.4807 43.6342 32.2717C43.8712 32.0627 44.0069 31.7786 44.0118 31.4808Z" fill="white"/>
</svg>
