<svg width="64" height="64" viewBox="0 0 64 64" fill="none" xmlns="http://www.w3.org/2000/svg">
<path d="M62.9326 52.3636H61.7476C64.6939 49.2356 64.7581 44.094 61.8908 40.8798C61.4359 40.3698 60.9215 39.9273 60.3609 39.5635C62.6142 38.0956 63.9956 35.4448 63.9993 32.5817C63.994 28.0855 60.6541 24.442 56.5327 24.4362H46.9328V16.2907C46.9325 15.6481 46.4548 15.1272 45.8658 15.1275C45.8116 15.1275 45.7575 15.132 45.704 15.141L33.0663 17.2612V16.1744C35.5477 15.6177 37.3297 13.2363 37.3329 10.4725C37.3329 5.39438 32.9415 0.544329 32.7538 0.340692C32.3372 -0.113564 31.662 -0.113564 31.2455 0.340692C31.0578 0.544329 26.6664 5.39438 26.6664 10.4725C26.6696 13.2363 28.4516 15.6177 30.933 16.1744V17.6208L17.971 19.7968C17.4511 19.884 17.0671 20.3715 17.0665 20.9453V33.9094C16.2874 32.9927 15.3889 32.2061 14.3998 31.5751C14.0698 31.3673 13.6632 31.3673 13.3332 31.5751C10.1834 33.5718 8.05698 37.0454 7.57325 40.9843C6.83606 40.8194 6.0858 40.7333 5.33327 40.7272C4.86248 40.7295 4.39235 40.7628 3.92529 40.8273C3.54689 40.877 3.2217 41.1432 3.07197 41.5254C0.89839 47.0876 2.59237 53.5504 7.13272 57.0182H0V59.3454H2.54077L4.37862 63.3565C4.55928 63.751 4.92901 64.0001 5.33327 64H45.8662C46.4552 64 46.9328 63.479 46.9328 62.8364V59.3454H53.7402L55.578 63.3565C55.7587 63.751 56.1284 64.0001 56.5327 64H60.7993C61.3884 64 61.866 63.479 61.866 62.8364V59.3454H62.9326C63.5217 59.3454 63.9993 58.8244 63.9993 58.1818V53.5272C63.9993 52.8846 63.5217 52.3636 62.9326 52.3636ZM61.866 46.5454C61.8625 49.757 59.4767 52.3598 56.5327 52.3636H37.3329C34.3875 52.3636 31.9996 49.7586 31.9996 46.5454C31.9996 43.3321 34.3875 40.7272 37.3329 40.7272H51.1994C52.9667 40.7272 54.3994 42.2901 54.3994 44.2181C54.3994 46.1461 52.9667 47.709 51.1994 47.709H40.5329C39.9438 47.709 39.4662 47.188 39.4662 46.5454C39.4662 45.9028 39.9438 45.3817 40.5329 45.3817H47.9995V43.0545H40.5329C38.7656 43.0545 37.3329 44.6174 37.3329 46.5454C37.3329 48.4734 38.7656 50.0363 40.5329 50.0363H51.1994C54.1434 50.0325 56.5292 47.4298 56.5327 44.2181C56.5288 42.955 56.1442 41.7283 55.4383 40.7272H56.5327C59.4767 40.731 61.8625 43.3337 61.866 46.5454ZM53.3327 26.7635C55.1001 26.7635 56.5327 28.3264 56.5327 30.2544C56.5327 32.1824 55.1001 33.7453 53.3327 33.7453H42.6662C42.0771 33.7453 41.5995 33.2243 41.5995 32.5817C41.5995 31.9391 42.0771 31.4181 42.6662 31.4181H50.1328V29.0908H42.6662C40.8989 29.0908 39.4662 30.6537 39.4662 32.5817C39.4662 34.5097 40.8989 36.0726 42.6662 36.0726H53.3327C56.2767 36.0688 58.6625 33.4661 58.666 30.2544C58.6649 29.0541 58.3204 27.8842 57.6804 26.9078C60.5529 27.6188 62.3533 30.7354 61.7016 33.8691C61.1532 36.5064 59.0115 38.3836 56.5327 38.3999H51.1994H41.5995C38.6541 38.3999 36.2663 35.7949 36.2663 32.5817C36.2663 29.3684 38.6541 26.7635 41.5995 26.7635H53.3327ZM28.7997 10.4725C28.7997 7.49708 30.853 4.40296 31.9996 2.90885C33.1474 4.4018 35.1996 7.4901 35.1996 10.4725C35.194 11.9466 34.3403 13.258 33.0663 13.7493V11.6362H30.933V13.7493C29.659 13.258 28.8053 11.9466 28.7997 10.4725ZM13.8665 33.9525C16.2496 35.7021 17.7926 38.5209 18.0745 41.6395C16.4835 42.3326 15.0508 43.3966 13.8761 44.7569C12.6929 43.4018 11.2533 42.3444 9.65749 41.6581C9.93442 38.5324 11.4784 35.7058 13.8665 33.9525ZM19.2171 43.6465C20.2398 43.2546 21.3158 43.0545 22.3998 43.0545C22.5672 43.0545 22.7421 43.0614 22.9245 43.0742C24.6819 48.5313 22.0514 54.5091 17.0491 56.4262C16.0265 56.818 14.9504 57.0182 13.8665 57.0182C13.699 57.0182 13.5241 57.0112 13.3417 56.9984C11.5844 51.5413 14.2149 45.5636 19.2171 43.6465ZM4.26662 46.5454C4.26529 45.3631 4.44848 44.1893 4.80848 43.0742C4.99088 43.0614 5.16581 43.0545 5.33327 43.0545C8.09538 43.0454 10.7243 44.3481 12.5353 46.6233C10.7861 49.5563 10.2336 53.1506 11.01 56.5457C6.99819 55.1816 4.26582 51.1297 4.26662 46.5454ZM21.7406 61.6727H5.99247L4.92581 59.3454H22.8072L21.7406 61.6727ZM31.9996 61.6727H24.1256L25.1923 59.3454H27.733V57.0182H20.5918C25.1372 53.5552 26.8354 47.0904 24.6611 41.5266C24.5113 41.1443 24.1861 40.8782 23.8077 40.8284C22.594 40.6582 21.3628 40.7054 20.163 40.9681C19.9966 39.6738 19.6487 38.4152 19.1315 37.2363H19.1998V21.9437L44.7995 17.6475V24.4362H41.5995C37.4812 24.4302 34.1382 28.0676 34.1327 32.5605C34.13 34.7909 34.9668 36.9247 36.4476 38.4627C32.3587 38.989 29.4353 43.0318 29.9177 47.4924C30.1178 49.3432 30.8946 51.0629 32.118 52.3636H30.933C30.3439 52.3636 29.8663 52.8846 29.8663 53.5272V58.1818C29.8663 58.8244 30.3439 59.3454 30.933 59.3454H31.9996V61.6727ZM36.6737 61.6727H34.133V59.3454H37.7404L36.6737 61.6727ZM44.7995 61.6727H39.0588L40.1254 59.3454H44.7995V61.6727ZM59.7327 61.6727H57.1919L56.1252 59.3454H59.7327V61.6727ZM61.866 57.0182H31.9996V54.6909H61.866V57.0182Z" fill="#F8FAFE"/>
<path d="M23.4663 24.436H21.333V33.7452H23.4663V24.436Z" fill="#F8FAFE"/>
<path d="M23.4663 36.0728H21.333V38.4H23.4663V36.0728Z" fill="#F8FAFE"/>
</svg>
