<svg width="69" height="64" viewBox="0 0 69 64" fill="none" xmlns="http://www.w3.org/2000/svg">
<path fill-rule="evenodd" clip-rule="evenodd" d="M21.9861 9.56054C21.9861 7.21552 20.0818 5.31201 17.7368 5.31201C15.3918 5.31201 13.4883 7.21552 13.4883 9.56054C13.4883 15.5027 15.9737 20.8687 19.9631 24.675C20.3967 25.0883 21.0842 25.0724 21.4975 24.6388C21.9115 24.2053 21.8956 23.5177 21.462 23.1037C17.8873 19.6933 15.6596 14.8853 15.6596 9.56054C15.6596 8.41409 16.5904 7.48332 17.7368 7.48332C18.8833 7.48332 19.8147 8.41409 19.8147 9.56054C19.8147 10.1598 20.3011 10.6462 20.9004 10.6462C21.499 10.6462 21.9861 10.1598 21.9861 9.56054ZM24.8558 17.488C23.9525 16.4052 23.2309 15.1654 22.7366 13.8163C22.5311 13.2539 21.9064 12.9644 21.3441 13.17C20.7817 13.3762 20.4922 14.0001 20.6977 14.5632C21.2782 16.1483 22.1265 17.6052 23.1882 18.8783C23.5718 19.3387 24.2572 19.4009 24.7176 19.0173C25.1772 18.6337 25.2394 17.9483 24.8558 17.488Z" fill="#FFF7F7"/>
<path fill-rule="evenodd" clip-rule="evenodd" d="M48.686 24.7785C52.7384 20.9679 55.2702 15.5577 55.2702 9.56054C55.2702 7.21552 53.3667 5.31201 51.0217 5.31201C48.6766 5.31201 46.7724 7.21552 46.7724 9.56054C46.7724 10.1598 47.2595 10.6462 47.8581 10.6462C48.4573 10.6462 48.9437 10.1598 48.9437 9.56054C48.9437 8.41409 49.8752 7.48332 51.0217 7.48332C52.1681 7.48332 53.0989 8.41409 53.0989 9.56054C53.0989 14.9345 50.8299 19.7816 47.1987 23.1963C46.7623 23.6074 46.7413 24.295 47.1517 24.7315C47.562 25.1679 48.2496 25.1889 48.686 24.7785ZM46.0038 13.8641C45.5109 15.1951 44.7951 16.4175 43.9027 17.488C43.5191 17.9483 43.5813 18.6337 44.0409 19.0173C44.5012 19.4009 45.1866 19.3387 45.5702 18.8783C46.619 17.6204 47.46 16.183 48.0397 14.619C48.2482 14.0573 47.9616 13.432 47.3992 13.2243C46.8375 13.0158 46.2122 13.3024 46.0038 13.8641Z" fill="#FFF7F7"/>
<path fill-rule="evenodd" clip-rule="evenodd" d="M37.8278 48.1214C35.5921 49.0218 33.3556 49.0659 31.1199 48.2198C30.559 48.0078 29.9322 48.2907 29.7201 48.8509C29.5081 49.4111 29.7911 50.0387 30.3513 50.2507C33.1139 51.2958 35.8765 51.2481 38.6391 50.1349C39.195 49.9113 39.4642 49.2787 39.2406 48.7228C39.0169 48.167 38.3836 47.897 37.8278 48.1214ZM39.7494 23.1014C41.5299 22.3936 43.1381 21.3455 44.4937 20.0362L46.508 23.8151C45.3774 24.7777 44.1318 25.6078 42.7921 26.278C41.6862 26.8238 40.9827 27.9557 40.982 29.1941V40.0021C40.982 40.6014 41.4684 41.0878 42.0676 41.0878C42.6669 41.0878 43.1533 40.6014 43.1533 40.0021V29.1955C43.154 28.7823 43.3885 28.4052 43.7584 28.2221C43.7598 28.2214 43.762 28.2206 43.7634 28.2199C45.5388 27.3311 47.1673 26.1919 48.6069 24.8522C48.9673 24.5164 49.0571 23.9808 48.8255 23.5465L45.6937 17.6724C45.5244 17.354 45.2066 17.1404 44.8469 17.1035C44.4879 17.0659 44.1333 17.2107 43.9024 17.4879C42.5866 19.0657 40.8872 20.3127 38.9475 21.0835C38.3909 21.305 38.118 21.9361 38.3395 22.4934C38.561 23.05 39.1928 23.3229 39.7494 23.1014ZM27.7754 39.9956C27.7739 36.0533 27.7725 31.4443 27.7689 29.1934C27.7689 27.9586 27.0668 26.8288 25.9587 26.2809C24.6277 25.61 23.3814 24.7784 22.2501 23.8151L24.2644 20.0362C25.62 21.3455 27.2282 22.3936 29.0087 23.1014C29.5652 23.3229 30.1971 23.05 30.4186 22.4934C30.64 21.9361 30.3672 21.305 29.8106 21.0835C27.8709 20.3127 26.1715 19.0657 24.8557 17.4879C24.6248 17.2107 24.2701 17.0659 23.9112 17.1035C23.5514 17.1404 23.2337 17.354 23.0644 17.6724L19.9326 23.5465C19.701 23.9808 19.7907 24.5164 20.1512 24.8522C21.5893 26.1912 23.2171 27.3297 24.9889 28.2235C24.991 28.225 24.9939 28.2264 24.9968 28.2279C25.3645 28.4095 25.5975 28.7844 25.5975 29.1948V29.1963C25.6012 31.4472 25.6026 36.0547 25.6041 39.9956C25.6041 40.5949 26.0904 41.0813 26.6897 41.0813C27.289 41.0813 27.7754 40.5942 27.7754 39.9956Z" fill="#FFF7F7"/>
<path fill-rule="evenodd" clip-rule="evenodd" d="M38.3844 40.8828H30.3737C29.7752 40.8828 29.2881 41.3692 29.2881 41.9685C29.2881 42.5677 29.7752 43.0541 30.3737 43.0541H38.3844C38.983 43.0541 39.4701 42.5677 39.4701 41.9685C39.4701 41.3692 38.983 40.8828 38.3844 40.8828Z" fill="#FFF7F7"/>
<path fill-rule="evenodd" clip-rule="evenodd" d="M34.379 13.7114C30.8333 13.7114 27.9541 16.5906 27.9541 20.1363C27.9541 23.6828 30.8333 26.5619 34.379 26.5619C37.9247 26.5619 40.8039 23.6828 40.8039 20.1363C40.8039 16.5906 37.9247 13.7114 34.379 13.7114ZM34.379 15.8827C36.7269 15.8827 38.6326 17.7891 38.6326 20.1363C38.6326 22.4842 36.7269 24.3906 34.379 24.3906C32.0311 24.3906 30.1254 22.4842 30.1254 20.1363C30.1254 17.7891 32.0311 15.8827 34.379 15.8827Z" fill="#FFF7F7"/>
<path fill-rule="evenodd" clip-rule="evenodd" d="M23.6877 58.2401V44.0622C23.6877 42.4171 25.0237 41.081 26.6689 41.081C28.314 41.081 29.6501 42.4171 29.6501 44.0622V58.7178C29.6501 59.3171 30.1364 59.8034 30.7357 59.8034C31.335 59.8034 31.8214 59.3171 31.8214 58.7178V44.0622C31.8214 41.2185 29.5126 38.9097 26.6689 38.9097C23.8252 38.9097 21.5164 41.2185 21.5164 44.0622V58.2401C21.5164 58.8394 22.0027 59.3257 22.602 59.3257C23.2013 59.3257 23.6877 58.8394 23.6877 58.2401ZM39.3196 58.7178V44.0622C39.3196 42.4171 40.655 41.081 42.3008 41.081C43.946 41.081 45.282 42.4171 45.282 44.0622V58.2401C45.282 58.8394 45.7684 59.3257 46.3677 59.3257C46.967 59.3257 47.4533 58.8394 47.4533 58.2401V44.0622C47.4533 41.2185 45.1445 38.9097 42.3008 38.9097C39.4571 38.9097 37.1483 41.2185 37.1483 44.0622V58.7178C37.1483 59.3171 37.6347 59.8034 38.234 59.8034C38.8325 59.8034 39.3196 59.3171 39.3196 58.7178Z" fill="#FFF7F7"/>
<path fill-rule="evenodd" clip-rule="evenodd" d="M20.2429 63.9997H28.5641C29.4275 63.9997 30.2563 63.6567 30.8671 63.0458C31.478 62.4349 31.821 61.6062 31.821 60.7428C31.821 59.7186 31.821 58.7177 31.821 58.7177C31.821 58.3095 31.5923 57.936 31.229 57.7507C29.7677 57.0045 28.0075 56.5645 26.1127 56.5645C22.8405 56.5645 19.9766 57.8824 18.3235 59.8135C17.6779 60.5589 17.5266 61.6185 17.9391 62.5196C18.351 63.4214 19.2513 63.9997 20.2429 63.9997ZM28.5641 61.8284H20.2429C20.101 61.8284 19.9722 61.7459 19.9136 61.6171C19.855 61.4883 19.876 61.337 19.9693 61.2299C19.97 61.2284 19.9715 61.227 19.9729 61.2255C21.2707 59.7092 23.544 58.7358 26.1127 58.7358C27.3937 58.7358 28.5988 58.9797 29.6497 59.4118V60.7428C29.6497 61.0308 29.5354 61.3066 29.332 61.51C29.1279 61.7141 28.8521 61.8284 28.5641 61.8284Z" fill="#FFF7F7"/>
<path fill-rule="evenodd" clip-rule="evenodd" d="M48.7256 63.9997C49.7172 63.9997 50.6175 63.4214 51.0301 62.5196C51.4426 61.6185 51.2906 60.5589 50.6421 59.8091C48.9927 57.8824 46.128 56.5645 42.8558 56.5645C40.961 56.5645 39.2008 57.0045 37.7402 57.7507C37.3769 57.936 37.1482 58.3095 37.1482 58.7177V60.7428C37.1482 61.6062 37.4913 62.4349 38.1021 63.0458C38.713 63.6567 39.541 63.9997 40.4052 63.9997H48.7256ZM48.7263 61.8284H40.4052C40.1171 61.8284 39.8406 61.7141 39.6372 61.51C39.4339 61.3066 39.3195 61.0308 39.3195 60.7428V59.4125C40.3697 58.9797 41.5755 58.7358 42.8558 58.7358C45.4252 58.7358 47.6986 59.7092 48.9963 61.2255C48.9977 61.227 48.9985 61.2284 48.9999 61.2299C49.0926 61.337 49.1143 61.4883 49.0556 61.6171C48.9963 61.7459 48.8682 61.8284 48.7263 61.8284Z" fill="#FFF7F7"/>
<path fill-rule="evenodd" clip-rule="evenodd" d="M32.0739 34.3022H36.6843C37.2836 34.3022 37.77 33.8158 37.77 33.2165C37.77 32.618 37.2836 32.1309 36.6843 32.1309H32.0739C31.4747 32.1309 30.9883 32.618 30.9883 33.2165C30.9883 33.8158 31.4747 34.3022 32.0739 34.3022Z" fill="#FFF7F7"/>
<path fill-rule="evenodd" clip-rule="evenodd" d="M10.5903 11.6562H58.168C58.7673 11.6562 59.2536 11.1698 59.2536 10.5705C59.2536 9.97124 58.7673 9.48486 58.168 9.48486H10.5903C9.99101 9.48486 9.50464 9.97124 9.50464 10.5705C9.50464 11.1698 9.99101 11.6562 10.5903 11.6562Z" fill="#FFF7F7"/>
<path fill-rule="evenodd" clip-rule="evenodd" d="M63.4644 6.16594H65.5011C66.1004 6.16594 66.5868 6.65231 66.5868 7.25159V13.8893C66.5868 14.4886 66.1004 14.9749 65.5011 14.9749H63.4644C62.8651 14.9749 62.3788 15.4613 62.3788 16.0606C62.3788 16.6599 62.8651 17.1462 63.4644 17.1462H65.5011C67.2997 17.1462 68.7581 15.6878 68.7581 13.8893C68.7581 11.9662 68.7581 9.17464 68.7581 7.25159C68.7581 5.45302 67.2997 3.99463 65.5011 3.99463H63.4644C62.8651 3.99463 62.3788 4.48173 62.3788 5.08028C62.3788 5.67956 62.8651 6.16594 63.4644 6.16594ZM5.29365 3.99463H3.25696C1.45839 3.99463 0 5.45302 0 7.25159V13.8893C0 15.6878 1.45839 17.1462 3.25696 17.1462H5.29365C5.89293 17.1462 6.3793 16.6599 6.3793 16.0606C6.3793 15.4613 5.89293 14.9749 5.29365 14.9749H3.25696C2.65768 14.9749 2.17131 14.4886 2.17131 13.8893C2.17131 11.9662 2.17131 9.17464 2.17131 7.25159C2.17131 6.65231 2.65768 6.16594 3.25696 6.16594H5.29365C5.89293 6.16594 6.3793 5.67956 6.3793 5.08028C6.3793 4.48173 5.89293 3.99463 5.29365 3.99463Z" fill="#FFF7F7"/>
<path fill-rule="evenodd" clip-rule="evenodd" d="M11.6759 3.25696C11.6759 1.45839 10.2175 0 8.4189 0H7.46497C5.66568 0 4.20801 1.45839 4.20801 3.25696V17.8836C4.20801 19.6822 5.66568 21.1406 7.46497 21.1406H8.4189C10.2175 21.1406 11.6759 19.6822 11.6759 17.8836V3.25696ZM9.50455 3.25696V17.8836C9.50455 18.4829 9.01818 18.9693 8.4189 18.9693H7.46497C6.86496 18.9693 6.37932 18.4829 6.37932 17.8836V3.25696C6.37932 2.65768 6.86496 2.17131 7.46497 2.17131H8.4189C9.01818 2.17131 9.50455 2.65768 9.50455 3.25696Z" fill="#FFF7F7"/>
<path fill-rule="evenodd" clip-rule="evenodd" d="M57.082 3.25696V17.8836C57.082 19.6822 58.5404 21.1406 60.339 21.1406H61.2929C63.0922 21.1406 64.5499 19.6822 64.5499 17.8836C64.5499 14.2329 64.5499 6.90765 64.5499 3.25696C64.5499 1.45839 63.0922 0 61.2929 0H60.339C58.5404 0 57.082 1.45839 57.082 3.25696ZM59.2533 3.25696C59.2533 2.65768 59.7397 2.17131 60.339 2.17131H61.2929C61.8929 2.17131 62.3786 2.65768 62.3786 3.25696V17.8836C62.3786 18.4829 61.8929 18.9693 61.2929 18.9693H60.339C59.7397 18.9693 59.2533 18.4829 59.2533 17.8836V3.25696Z" fill="#FFF7F7"/>
</svg>
