<svg width="64" height="64" viewBox="0 0 64 64" fill="none" xmlns="http://www.w3.org/2000/svg">
<path d="M53.4325 0C47.5968 0 42.8651 4.43418 42.8651 9.903V15.1501H17.7872V9.903C17.7872 5.91224 21.2571 2.66051 25.5156 2.66051C29.7741 2.66051 33.244 5.91224 33.244 9.903C33.244 10.642 33.8749 11.2333 34.6635 11.2333C35.4521 11.2333 36.083 10.642 36.083 9.903C36.083 4.43418 31.3513 0 25.5156 0C19.6798 0 14.9481 4.43418 14.9481 9.903V43.5289C14.8693 44.2679 15.579 44.933 16.3677 44.933C17.1563 44.933 17.7872 44.3418 17.7872 43.6028V40.2771H42.9439V43.6028C42.9439 44.3418 43.5748 44.933 44.3634 44.933C45.152 44.933 45.7829 44.3418 45.7829 43.6028V9.903C45.7829 5.91224 49.2528 2.66051 53.5114 2.66051C57.7699 2.66051 61.1609 5.91224 61.1609 9.903C61.1609 10.642 61.7918 11.2333 62.5804 11.2333C63.369 11.2333 63.9999 10.642 63.9999 9.903C63.9999 4.43418 59.2682 0 53.4325 0ZM42.9439 37.4688H17.7872V32.739H42.9439V37.4688ZM42.9439 30.0785H17.7872V25.3487H42.9439V30.0785ZM42.9439 22.5404H17.7872V17.8106H42.9439V22.5404Z" fill="white"/>
<path d="M60.4512 50.1062C60.1358 49.4411 59.2683 49.0716 58.5586 49.4411C51.461 52.3233 47.9911 50.9192 44.2846 49.4411C40.4993 47.9631 36.6351 46.4111 29.7741 49.4411C22.6766 52.3233 19.2067 50.9192 15.5002 49.4411C11.7149 47.9631 7.77183 46.4111 0.910886 49.4411C0.201134 49.7367 -0.114312 50.5497 0.201133 51.2148C0.516579 51.8799 1.38405 52.1755 2.09381 51.8799C7.85069 49.3672 10.8474 50.5497 14.3173 51.9538C16.6043 52.8407 19.049 53.8014 22.2823 53.8014C24.6482 53.8014 27.4083 53.2841 30.8782 51.8799C36.6351 49.3672 39.6318 50.5497 43.1017 51.9538C45.3887 52.8407 47.8334 53.8014 51.0667 53.8014C53.4326 53.8014 56.1927 53.2841 59.6626 51.8799C60.3724 51.5843 60.7667 50.7714 60.4512 50.1062Z" fill="white"/>
<path d="M60.3724 60.305C60.0569 59.6398 59.1894 59.2703 58.4797 59.6398C51.3822 62.5221 47.9123 61.1179 44.2058 59.6398C40.4204 58.1618 36.5562 56.6098 29.6953 59.6398C22.5978 62.5221 19.1279 61.1179 15.4214 59.6398C11.636 58.1618 7.77183 56.6098 0.832028 59.6398C0.122276 59.9355 -0.193169 60.7484 0.122276 61.4135C0.516583 62.0786 1.38406 62.3743 2.09381 62.0786C7.85069 59.5659 10.8474 60.7484 14.3173 62.1525C16.6043 63.0394 19.049 64.0001 22.2823 64.0001C24.6482 64.0001 27.4083 63.4828 30.8782 62.0786C36.6351 59.5659 39.6318 60.7484 43.1017 62.1525C45.3887 63.0394 47.8334 64.0001 51.0667 64.0001C53.4326 64.0001 56.1927 63.4828 59.6626 62.0786C60.3724 61.783 60.7667 60.9701 60.3724 60.305Z" fill="white"/>
</svg>
