<svg width="64" height="64" viewBox="0 0 64 64" fill="none" xmlns="http://www.w3.org/2000/svg">
<g clip-path="url(#clip0_572_5331)">
<path d="M40.5333 40.6411V30.9333C40.5333 29.1691 39.0976 27.7333 37.3333 27.7333H7.46667C5.7024 27.7333 4.26667 29.1691 4.26667 30.9333V40.6411C1.83573 41.1371 0 43.2917 0 45.8667V52.2667V62.9333C0 63.5221 0.477867 64 1.06667 64H5.33333C5.92213 64 6.4 63.5221 6.4 62.9333V59.7333H38.4V62.9333C38.4 63.5221 38.8779 64 39.4667 64H43.7333C44.3221 64 44.8 63.5221 44.8 62.9333V52.2667V45.8667C44.8 43.2917 42.9643 41.1371 40.5333 40.6411ZM6.4 30.9333C6.4 30.3456 6.87893 29.8667 7.46667 29.8667H37.3333C37.9211 29.8667 38.4 30.3456 38.4 30.9333V40.5333H36.2667V36.2667C36.2667 34.5024 34.8309 33.0667 33.0667 33.0667H26.6667C24.9024 33.0667 23.4667 34.5024 23.4667 36.2667V40.5333H21.3333V36.2667C21.3333 34.5024 19.8976 33.0667 18.1333 33.0667H11.7333C9.96907 33.0667 8.53333 34.5024 8.53333 36.2667V40.5333H6.4V30.9333ZM34.1333 36.2667V40.5333H25.6V36.2667C25.6 35.6789 26.0789 35.2 26.6667 35.2H33.0667C33.6544 35.2 34.1333 35.6789 34.1333 36.2667ZM19.2 36.2667V40.5333H10.6667V36.2667C10.6667 35.6789 11.1456 35.2 11.7333 35.2H18.1333C18.7211 35.2 19.2 35.6789 19.2 36.2667ZM42.6667 61.8667H40.5333V58.6667C40.5333 58.0779 40.0555 57.6 39.4667 57.6H5.33333C4.74453 57.6 4.26667 58.0779 4.26667 58.6667V61.8667H2.13333V53.3333H42.6667V61.8667ZM42.6667 51.2H2.13333V45.8667C2.13333 44.1024 3.56907 42.6667 5.33333 42.6667H9.6H20.2667H24.5333H35.2H39.4667C41.2309 42.6667 42.6667 44.1024 42.6667 45.8667V51.2Z" fill="#BF930F"/>
<path d="M62.9336 40.5333H48.0003C47.4115 40.5333 46.9336 41.0112 46.9336 41.6V50.1333V57.6H49.0669V51.2H61.8669V57.6H64.0003V50.1333V41.6C64.0003 41.0112 63.5224 40.5333 62.9336 40.5333ZM61.8669 49.0667H49.0669V42.6667H61.8669V49.0667Z" fill="#BF930F"/>
<path d="M57.5987 44.8H53.332V46.9333H57.5987V44.8Z" fill="#BF930F"/>
<path d="M60.7454 31.6619L58.6121 25.2619C58.466 24.8267 58.0596 24.5333 57.5998 24.5333H53.3332C52.8734 24.5333 52.467 24.8267 52.3209 25.2629L50.1876 31.6629C50.0788 31.9883 50.1342 32.3456 50.3348 32.624C50.5353 32.9024 50.8574 33.0667 51.1998 33.0667H54.3998V36.2667H52.2665V38.4H58.6665V36.2667H56.5332V33.0667H59.7332C60.0756 33.0667 60.3977 32.9024 60.5982 32.6229C60.7988 32.3445 60.8532 31.9872 60.7454 31.6619ZM52.6793 30.9333L54.1022 26.6667H56.8318L58.2537 30.9333H52.6793Z" fill="#BF930F"/>
<path d="M63.3696 13.9595L32.4363 0.0928C32.1579 -0.0309333 31.8411 -0.0309333 31.5637 0.0928L0.6304 13.9595C0.2464 14.1323 0 14.5131 0 14.9333V27.7333H2.13333V15.6235L32 2.23573L61.8667 15.6245V27.7333H64V14.9333C64 14.5131 63.7536 14.1323 63.3696 13.9595Z" fill="#BF930F"/>
<path d="M39.365 14.7563L37.2605 15.1104C37.3106 15.4016 37.3352 15.7003 37.3352 16C37.3352 18.9408 34.9426 21.3333 32.0018 21.3333C29.061 21.3333 26.6685 18.9408 26.6685 16C26.6685 13.0592 29.061 10.6667 32.0018 10.6667C32.612 10.6667 33.2114 10.7691 33.781 10.9707L34.4914 8.95893C33.6925 8.67626 32.8552 8.53333 32.0018 8.53333C27.8845 8.53333 24.5352 11.8827 24.5352 16C24.5352 20.1173 27.8845 23.4667 32.0018 23.4667C36.1192 23.4667 39.4685 20.1173 39.4685 16C39.4685 15.5819 39.4333 15.1637 39.365 14.7563Z" fill="#BF930F"/>
<path d="M38.7133 8.84589L32.0007 15.5584L30.6215 14.1792L29.1133 15.6875L31.2466 17.8208C31.4546 18.0288 31.7277 18.1334 32.0007 18.1334C32.2738 18.1334 32.5469 18.0288 32.7549 17.8208L40.2216 10.3542L38.7133 8.84589Z" fill="#BF930F"/>
</g>
<defs>
<clipPath id="clip0_572_5331">
<rect width="64" height="64" fill="white"/>
</clipPath>
</defs>
</svg>
