<svg width="40" height="40" viewBox="0 0 40 40" fill="none" xmlns="http://www.w3.org/2000/svg">
<path d="M16.6667 19.9997H8.33341C7.89139 19.9997 7.46746 19.8241 7.1549 19.5115C6.84234 19.199 6.66675 18.775 6.66675 18.333V12.4997C6.66675 12.0576 6.84234 11.6337 7.1549 11.3212C7.46746 11.0086 7.89139 10.833 8.33341 10.833H15.0001C15.4421 10.833 15.866 11.0086 16.1786 11.3212C16.4912 11.6337 16.6667 12.0576 16.6667 12.4997V19.9997ZM16.6667 19.9997C16.6667 24.1663 15.0001 26.6663 10.0001 29.1663M33.3334 19.9997H25.0001C24.5581 19.9997 24.1341 19.8241 23.8216 19.5115C23.509 19.199 23.3334 18.775 23.3334 18.333V12.4997C23.3334 12.0576 23.509 11.6337 23.8216 11.3212C24.1341 11.0086 24.5581 10.833 25.0001 10.833H31.6667C32.1088 10.833 32.5327 11.0086 32.8453 11.3212C33.1578 11.6337 33.3334 12.0576 33.3334 12.4997V19.9997ZM33.3334 19.9997C33.3334 24.1663 31.6667 26.6663 26.6667 29.1663" stroke="#BF930F" stroke-width="2" stroke-linecap="round"/>
</svg>
