<svg width="40" height="40" viewBox="0 0 40 40" fill="none" xmlns="http://www.w3.org/2000/svg">
<path d="M12.3694 25.8691C11.9299 26.3997 12.0048 27.1891 12.5354 27.6286C13.066 28.0664 13.8505 27.998 14.2964 27.4642C17.3759 23.7467 22.6233 23.7467 25.7027 27.4642C25.9501 27.762 26.3082 27.9167 26.6662 27.9167C26.9494 27.9167 27.2294 27.8223 27.4638 27.6286C27.9944 27.1891 28.0692 26.3997 27.6298 25.8691C23.5803 20.9863 16.4188 20.9863 12.3694 25.8691Z" fill="#BF930F"/>
<path d="M19.9995 13.75C14.9182 13.75 10.146 15.9701 6.5653 20.0033C6.10632 20.5192 6.15189 21.3102 6.66947 21.7676C7.18379 22.2249 7.97155 22.1794 8.43379 21.6634C11.536 18.1722 15.6408 16.25 19.9995 16.25C24.3583 16.25 28.4631 18.1722 31.5653 21.6634C31.8127 21.9417 32.1545 22.0833 32.4995 22.0833C32.7958 22.0833 33.092 21.9792 33.3296 21.7676C33.8472 21.3102 33.8928 20.5192 33.4338 20.0033C29.8531 15.9701 25.0809 13.75 19.9995 13.75Z" fill="#BF930F"/>
<path d="M39.2573 14.1569C34.1141 8.52047 27.2782 5.41663 19.9995 5.41663C12.7209 5.41663 5.88494 8.52047 0.741712 14.1569C0.276217 14.6679 0.31528 15.4589 0.823092 15.9228C1.34067 16.3932 2.12518 16.3525 2.59067 15.8431C7.25213 10.7308 13.4338 7.91663 19.9995 7.91663C26.5653 7.91663 32.7469 10.7308 37.4084 15.8431C37.6558 16.1132 37.9943 16.25 38.3329 16.25C38.6323 16.25 38.9351 16.1425 39.176 15.9228C39.6838 15.4589 39.7228 14.6679 39.2573 14.1569Z" fill="#BF930F"/>
<path d="M20 34.5833C20.6904 34.5833 21.25 34.0236 21.25 33.3333C21.25 32.6429 20.6904 32.0833 20 32.0833C19.3096 32.0833 18.75 32.6429 18.75 33.3333C18.75 34.0236 19.3096 34.5833 20 34.5833Z" fill="#BF930F"/>
</svg>
