<svg width="49" height="48" viewBox="0 0 49 48" fill="none" xmlns="http://www.w3.org/2000/svg">
<path d="M32.185 14.4C31.357 14.4013 30.5304 14.4682 29.713 14.6C27.4421 12.291 24.5485 10.6928 21.385 9.99998L25.577 5.33599C25.678 5.22565 25.7459 5.08905 25.7728 4.94187C25.7997 4.7947 25.7845 4.64293 25.729 4.50399L24.129 0.503999C24.0697 0.355147 23.9671 0.227525 23.8344 0.137665C23.7018 0.047804 23.5452 -0.00015473 23.385 3.75036e-07H12.185C12.0248 -0.00015473 11.8682 0.047804 11.7356 0.137665C11.6029 0.227525 11.5003 0.355147 11.441 0.503999L9.84103 4.50399C9.78553 4.64293 9.77036 4.7947 9.79725 4.94187C9.82413 5.08905 9.89199 5.22565 9.99303 5.33599L14.185 9.99998C10.139 10.886 6.5631 13.236 4.1444 16.5983C1.7257 19.9607 0.634803 24.0982 1.08131 28.216C1.52781 32.3338 3.48023 36.1413 6.56342 38.9071C9.64661 41.6728 13.6431 43.2017 17.785 43.1999C18.613 43.1985 19.4396 43.1317 20.257 42.9999C21.8087 44.5901 23.6642 45.8522 25.7133 46.7111C27.7623 47.5701 29.9632 48.0083 32.185 47.9999C36.6406 47.9999 40.9137 46.2299 44.0643 43.0793C47.2149 39.9287 48.9849 35.6555 48.9849 31.1999C48.9849 26.7443 47.2149 22.4712 44.0643 19.3206C40.9137 16.17 36.6406 14.4 32.185 14.4ZM22.329 1.6H22.841L23.801 3.99999H21.369L22.329 1.6ZM23.193 5.59999L19.569 9.62398L20.777 5.59999H23.193ZM20.601 1.6L19.641 3.99999H15.929L14.969 1.6H20.601ZM19.113 5.59999L17.905 9.60798H17.665L16.457 5.59999H19.113ZM12.729 1.6H13.241L14.201 3.99999H11.769L12.729 1.6ZM12.377 5.59999H14.793L16.001 9.62398L12.377 5.59999ZM17.785 41.5999C13.878 41.6109 10.1169 40.1171 7.28211 37.4285C4.44736 34.7399 2.75676 31.0629 2.56119 27.1608C2.36562 23.2588 3.68011 19.4312 6.23183 16.4726C8.78355 13.514 12.3765 11.6516 16.265 11.272C17.2761 11.176 18.2939 11.176 19.305 11.272C22.9531 11.6372 26.3445 13.3144 28.849 15.992C31.5122 18.802 32.993 22.5284 32.985 26.3999C32.9953 29.1445 32.2565 31.8398 30.8481 34.1954C29.4398 36.5511 27.4154 38.4778 24.993 39.7679C24.3515 39.2344 23.7719 38.6306 23.265 37.9679C25.4483 36.9216 27.2928 35.2817 28.5874 33.2358C29.8819 31.19 30.5742 28.8209 30.585 26.3999C30.5812 23.0063 29.2314 19.7528 26.8317 17.3532C24.4321 14.9536 21.1786 13.6038 17.785 13.6C14.4205 13.5952 11.1895 14.916 8.79171 17.2762C6.39392 19.6364 5.02232 22.8461 4.97393 26.2103C4.92554 29.5745 6.20426 32.8223 8.53317 35.2505C10.8621 37.6788 14.0537 39.0919 17.417 39.1839C17.8658 40.0143 18.3822 40.8063 18.961 41.5519C18.577 41.5759 18.185 41.5999 17.785 41.5999ZM33.337 20.056C36.199 20.3431 38.8409 21.7204 40.7151 23.9025C42.5893 26.0845 43.5521 28.904 43.404 31.7767C43.2559 34.6493 42.0082 37.3548 39.9196 39.3325C37.8309 41.3103 35.0614 42.4086 32.185 42.3999C30.1569 42.4065 28.1664 41.8528 26.433 40.7999C29.8725 38.7375 32.4598 35.5116 33.7262 31.7064C34.9927 27.9011 34.8546 23.7682 33.337 20.056ZM22.385 36.6079C21.4638 34.9545 20.9818 33.0926 20.985 31.1999C20.9956 29.0458 21.6227 26.9398 22.7923 25.1308C23.9619 23.3219 25.625 21.8857 27.585 20.9919C28.5061 22.6453 28.9881 24.5073 28.985 26.3999C28.9744 28.554 28.3472 30.6601 27.1777 32.469C26.0081 34.278 24.345 35.7142 22.385 36.6079ZM16.633 37.5439C13.7709 37.2568 11.1291 35.8794 9.25487 33.6974C7.38068 31.5153 6.41788 28.6958 6.56598 25.8232C6.71409 22.9506 7.96175 20.2451 10.0504 18.2673C12.1391 16.2896 14.9086 15.1913 17.785 15.2C19.8131 15.1934 21.8036 15.747 23.537 16.8C20.0975 18.8623 17.5102 22.0883 16.2438 25.8935C14.9773 29.6987 15.1154 33.8317 16.633 37.5439ZM32.185 46.3999C28.8013 46.4018 25.5139 45.2739 22.8441 43.1952C20.1742 41.1165 18.2748 38.206 17.447 34.9251C16.6192 31.6443 16.9104 28.181 18.2745 25.0845C19.6386 21.988 21.9975 19.4356 24.977 17.832C25.6185 18.3655 26.1981 18.9693 26.705 19.632C24.5217 20.6782 22.6772 22.3182 21.3826 24.364C20.088 26.4099 19.3958 28.7789 19.385 31.1999C19.3888 34.5935 20.7386 37.847 23.1382 40.2467C25.5379 42.6463 28.7914 43.9961 32.185 43.9999C35.5495 44.0046 38.7805 42.6839 41.1783 40.3237C43.5761 37.9635 44.9477 34.7537 44.9961 31.3896C45.0444 28.0254 43.7657 24.7775 41.4368 22.3493C39.1079 19.9211 35.9162 18.508 32.553 18.416C32.1042 17.5856 31.5878 16.7935 31.009 16.048C31.393 16.024 31.785 16 32.185 16C36.2163 16 40.0824 17.6014 42.933 20.4519C45.7835 23.3025 47.3849 27.1686 47.3849 31.1999C47.3849 35.2312 45.7835 39.0974 42.933 41.9479C40.0824 44.7985 36.2163 46.3999 32.185 46.3999Z" fill="#BF930F"/>
</svg>
