<svg width="46" height="40" viewBox="0 0 46 40" fill="none" xmlns="http://www.w3.org/2000/svg">
<path d="M45.3463 33.6469V29.1407C45.3463 28.1916 44.679 27.3958 43.7891 27.1965V25.9188C43.7891 24.0596 42.5952 22.4748 40.9341 21.8887V11.8076C40.9341 9.69418 39.2148 7.97483 37.1014 7.97483H17.4568C17.581 7.80895 17.6524 7.60542 17.6524 7.39082C17.6524 7.03399 17.458 6.70602 17.1449 6.53482L15.484 5.62639L14.5755 3.9655C14.4043 3.6525 14.0763 3.45801 13.7195 3.45801C13.3627 3.45801 13.0347 3.6525 12.8635 3.9655L11.955 5.62639L10.294 6.53482C9.98105 6.70602 9.78664 7.03407 9.78664 7.39082C9.78664 7.60542 9.85812 7.80895 9.98229 7.97483H8.24496C6.13158 7.97483 4.41223 9.69418 4.41223 11.8076V14.1988C4.41223 14.5656 4.70955 14.863 5.07648 14.863C5.44341 14.863 5.74073 14.5656 5.74073 14.1988V11.8076C5.74073 10.4267 6.8642 9.30334 8.24496 9.30334H12.0361L12.8635 10.8162C13.0347 11.1292 13.3627 11.3237 13.7195 11.3237C14.0763 11.3237 14.4043 11.1292 14.5755 10.8162L15.4029 9.30334H37.1013C38.4821 9.30334 39.6055 10.4267 39.6055 11.8076V21.6481C39.5757 21.6474 39.546 21.6458 39.516 21.6458H37.9706C37.9725 21.6039 37.9753 21.5621 37.9753 21.5198V16.8803C37.9753 15.3914 36.7639 14.1801 35.2751 14.1801H26.4292C24.9403 14.1801 23.729 15.3914 23.729 16.8803V21.5198C23.729 21.562 23.7318 21.6039 23.7337 21.6458H21.6126C21.6146 21.6039 21.6173 21.5621 21.6173 21.5198V16.8803C21.6173 15.3914 20.406 14.1801 18.9171 14.1801H10.0712C8.58231 14.1801 7.37107 15.3914 7.37107 16.8803V21.5198C7.37107 21.562 7.37381 21.6039 7.37576 21.6458H5.83018C5.80016 21.6458 5.77058 21.6474 5.74064 21.6481V17.2986C5.74064 16.9318 5.44332 16.6344 5.07639 16.6344C4.70946 16.6344 4.41214 16.9318 4.41214 17.2986V21.8886C2.75107 22.4748 1.55718 24.0596 1.55718 25.9187V27.1964C0.667263 27.3958 0 28.1916 0 29.1407V33.6469C0 34.5961 0.667263 35.3919 1.55718 35.5911V38.6714H0.664252C0.297319 38.6714 0 38.9688 0 39.3357C0 39.7025 0.297319 39.9999 0.664252 39.9999H44.682C45.0489 39.9999 45.3463 39.7025 45.3463 39.3357C45.3463 38.9688 45.0489 38.6714 44.682 38.6714H43.7891V35.5911C44.679 35.3919 45.3463 34.5962 45.3463 33.6469ZM14.7561 8.03904C14.5922 8.12858 14.4581 8.26259 14.3679 8.42705L13.7195 9.6127L13.0712 8.42723C12.9815 8.26312 12.8475 8.12894 12.6832 8.03913L11.4976 7.39064L12.6834 6.74216C12.8475 6.65235 12.9815 6.51817 13.0711 6.35432L13.7195 5.16868L14.3682 6.35485C14.4581 6.51879 14.5922 6.65279 14.7559 6.74225L15.9414 7.39064L14.7561 8.03904ZM8.69948 16.8803C8.69948 16.124 9.31476 15.5086 10.0711 15.5086H18.917C19.6734 15.5086 20.2887 16.124 20.2887 16.8803V21.5198C20.2887 21.5621 20.2869 21.604 20.283 21.6458H8.70524C8.70134 21.604 8.69948 21.5621 8.69948 21.5198V16.8803ZM2.88569 25.9188C2.88569 24.2951 4.20657 22.9743 5.83018 22.9743H29.7585C30.1254 22.9743 30.4227 22.6769 30.4227 22.31C30.4227 21.9432 30.1254 21.6458 29.7585 21.6458H25.0638C25.06 21.604 25.0575 21.5621 25.0575 21.5198V16.8803C25.0575 16.124 25.6729 15.5086 26.4292 15.5086H35.2751C36.0315 15.5086 36.6468 16.124 36.6468 16.8803V21.5198C36.6468 21.5621 36.6444 21.604 36.6405 21.6458H32.8583C32.4914 21.6458 32.1941 21.9432 32.1941 22.31C32.1941 22.6769 32.4914 22.9743 32.8583 22.9743H39.5161C41.1397 22.9743 42.4606 24.2951 42.4606 25.9188V27.148H2.88569V25.9188ZM1.3285 29.1407C1.3285 28.7744 1.62644 28.4765 1.99276 28.4765H43.3535C43.7198 28.4765 44.0177 28.7744 44.0177 29.1407V30.9332H1.3285V29.1407ZM5.68104 38.6715H2.88569V35.6398H5.68104V38.6715ZM42.4606 38.6715H39.6652V35.6398H42.4606V38.6715ZM43.3535 34.3112H15.2335C14.8666 34.3112 14.5693 34.6086 14.5693 34.9754C14.5693 35.3423 14.8666 35.6397 15.2335 35.6397H38.3367V38.6714H7.00954V35.6397H12.1337C12.5006 35.6397 12.7979 35.3423 12.7979 34.9754C12.7979 34.6086 12.5006 34.3112 12.1337 34.3112H1.99276C1.62644 34.3112 1.3285 34.0131 1.3285 33.6469V32.2617H44.0177V33.6469C44.0177 34.0132 43.7198 34.3112 43.3535 34.3112Z" fill="#BF930F"/>
<path d="M18.1115 3.11228H18.8424V3.84314C18.8424 4.20998 19.1397 4.50739 19.5066 4.50739C19.8736 4.50739 20.1709 4.20998 20.1709 3.84314V3.11228H20.9017C21.2687 3.11228 21.566 2.81487 21.566 2.44803C21.566 2.08119 21.2687 1.78378 20.9017 1.78378H20.1709V1.05292C20.1709 0.68608 19.8736 0.388672 19.5066 0.388672C19.1397 0.388672 18.8424 0.68608 18.8424 1.05292V1.78378H18.1115C17.7446 1.78378 17.4473 2.08119 17.4473 2.44803C17.4473 2.81487 17.7447 3.11228 18.1115 3.11228Z" fill="#BF930F"/>
<path d="M24.2228 6.12367H24.5109V6.41169C24.5109 6.77853 24.8082 7.07594 25.1751 7.07594C25.542 7.07594 25.8394 6.77853 25.8394 6.41169V6.12367H26.1274C26.4943 6.12367 26.7916 5.82626 26.7916 5.45942C26.7916 5.09257 26.4943 4.79517 26.1274 4.79517H25.8394V4.50715C25.8394 4.1403 25.542 3.8429 25.1751 3.8429C24.8082 3.8429 24.5109 4.1403 24.5109 4.50715V4.79517H24.2228C23.8559 4.79517 23.5586 5.09257 23.5586 5.45942C23.5586 5.82626 23.856 6.12367 24.2228 6.12367Z" fill="#BF930F"/>
<path d="M28.9821 4.1839L30.252 4.87844L30.9464 6.14805C31.1175 6.46122 31.4455 6.65571 31.8023 6.65571H31.8025C32.1593 6.65571 32.4872 6.46122 32.6585 6.14823L33.3531 4.87844L34.623 4.1839C34.936 4.0127 35.1304 3.68465 35.1304 3.32781C35.1303 2.97107 34.9359 2.6431 34.6229 2.4719L33.353 1.77727L32.6585 0.507488C32.4872 0.194493 32.1593 0 31.8025 0C31.8024 0 31.8023 0 31.8023 0C31.4456 8.85669e-05 31.1176 0.194581 30.9465 0.507488L30.2521 1.77727L28.9821 2.47181C28.6691 2.64301 28.4747 2.97098 28.4746 3.32781C28.4746 3.68456 28.669 4.01261 28.9821 4.1839ZM30.9803 2.89321C31.144 2.80359 31.278 2.66967 31.368 2.50547L31.8025 1.71094L32.2373 2.506C32.3272 2.66994 32.4613 2.80394 32.6249 2.8933L33.4195 3.3279L32.6252 3.76232C32.4612 3.85195 32.327 3.98604 32.237 4.15033L31.8025 4.94478L31.3678 4.14998C31.2781 3.98613 31.1441 3.85213 30.9801 3.76241L30.1855 3.32781L30.9803 2.89321Z" fill="#BF930F"/>
</svg>
