<svg width="48" height="48" viewBox="0 0 48 48" fill="none" xmlns="http://www.w3.org/2000/svg">
<path d="M47.2258 23.2258H46.4516V18.4475C46.4516 16.8279 45.8214 15.3058 44.6764 14.1623C43.5314 13.0173 42.0093 12.3871 40.3905 12.3871H39.4839V11.5494C41.3319 10.4764 42.5806 8.48052 42.5806 6.19355C42.5806 2.77858 39.8021 0 36.3871 0C32.9721 0 30.1935 2.77858 30.1935 6.19355C30.1935 8.47974 31.4423 10.4764 33.2903 11.5494V12.3871H32.3837C30.7649 12.3871 29.2428 13.0173 28.0978 14.1623C26.9528 15.3066 26.3226 16.8279 26.3226 18.4475V23.2258H24.7742V20.9032C24.7742 20.4751 24.4274 20.129 24 20.129H21.6774V19.8635C21.6774 17.6059 22.4392 15.4668 23.8351 13.7334C24.1231 13.8612 24.4397 13.9355 24.7742 13.9355C26.0547 13.9355 27.0968 12.8934 27.0968 11.6129C27.0968 10.3324 26.0547 9.29032 24.7742 9.29032C23.4937 9.29032 22.4516 10.3324 22.4516 11.6129C22.4516 11.9907 22.5507 12.3414 22.711 12.6573C21.0395 14.6834 20.129 17.2034 20.129 19.8635V20.129H17.8065C17.3791 20.129 17.0323 20.4751 17.0323 20.9032V23.2258H16.2581C15.8307 23.2258 15.4839 23.5719 15.4839 24V27.0968C15.4839 27.5249 15.8307 27.871 16.2581 27.871H17.0323V32.5161C14.8978 32.5161 13.1613 34.2526 13.1613 36.3871C13.1613 37.5368 13.6754 38.5595 14.4735 39.2694C13.2612 39.8222 12.2555 40.7512 11.6129 41.9117C10.9703 40.752 9.96465 39.823 8.75226 39.2694C9.55045 38.5595 10.0645 37.5368 10.0645 36.3871C10.0645 34.2526 8.328 32.5161 6.19355 32.5161C4.0591 32.5161 2.32258 34.2526 2.32258 36.3871C2.32258 37.5368 2.83665 38.5595 3.63484 39.2694C1.49419 40.2457 0 42.401 0 44.9032V47.2258C0 47.6539 0.346839 48 0.774194 48H33.2903C33.7177 48 34.0645 47.6539 34.0645 47.2258V46.4516H45.6774C46.1048 46.4516 46.4516 46.1055 46.4516 45.6774V27.871H47.2258C47.6532 27.871 48 27.5249 48 27.0968V24C48 23.5719 47.6532 23.2258 47.2258 23.2258ZM24.7742 10.8387C25.2008 10.8387 25.5484 11.1855 25.5484 11.6129C25.5484 12.0403 25.2008 12.3871 24.7742 12.3871C24.3476 12.3871 24 12.0403 24 11.6129C24 11.1855 24.3476 10.8387 24.7742 10.8387ZM44.9032 18.4475V23.2258H43.3548V20.129H41.8064V23.2258H37.1613V17.5107L39.1378 18.4986C39.2462 18.5535 39.3654 18.5806 39.4839 18.5806C39.5845 18.5806 39.6852 18.5613 39.7804 18.5218C39.9879 18.4359 40.1474 18.264 40.2186 18.0519L41.5401 14.088C42.305 14.2885 43.008 14.6834 43.5825 15.2578C44.4341 16.1094 44.9032 17.2421 44.9032 18.4475ZM33.6774 13.9355L35.2111 15.9801L33.7425 16.7148L32.8165 13.9355H33.6774ZM39.0968 13.9355H39.9585L39.0325 16.7148L37.5639 15.9801L39.0968 13.9355ZM36.3871 1.54839C38.6632 1.54839 40.5584 3.1951 40.9533 5.35897C39.487 5.17316 38.1298 4.51819 37.0684 3.45677L36.936 3.32361C36.6457 3.03174 36.1301 3.03174 35.8397 3.32361L35.7081 3.456C34.6459 4.51819 33.2888 5.17316 31.8225 5.35819C32.2157 3.1951 34.111 1.54839 36.3871 1.54839ZM31.8 6.92671C33.5017 6.75794 35.0934 6.06968 36.3871 4.93935C37.6808 6.0689 39.2717 6.75794 40.9742 6.92671C40.6219 9.1409 38.6988 10.8387 36.3871 10.8387C34.0754 10.8387 32.1523 9.1409 31.8 6.92671ZM36.3871 12.3871C36.9228 12.3871 37.4392 12.312 37.9355 12.1835V12.9035L36.3871 14.9675L34.8387 12.9035V12.1835C35.335 12.312 35.8514 12.3871 36.3871 12.3871ZM27.871 18.4475C27.871 17.2421 28.3401 16.1086 29.1925 15.257C29.767 14.6834 30.4699 14.2877 31.2348 14.0872L32.5564 18.0511C32.6276 18.2632 32.7871 18.4351 32.9946 18.521C33.089 18.5613 33.1897 18.5806 33.2903 18.5806C33.4088 18.5806 33.528 18.5535 33.6364 18.4994L35.6129 17.5107V23.2258H30.9677V20.129H29.4194V23.2258H27.871V18.4475ZM18.5806 21.6774H23.2258V23.2258H18.5806V21.6774ZM14.7097 36.3871C14.7097 35.1066 15.7517 34.0645 17.0323 34.0645C18.3128 34.0645 19.3548 35.1066 19.3548 36.3871C19.3548 37.6676 18.3128 38.7097 17.0323 38.7097C15.7517 38.7097 14.7097 37.6676 14.7097 36.3871ZM3.87097 36.3871C3.87097 35.1066 4.91303 34.0645 6.19355 34.0645C7.47406 34.0645 8.51613 35.1066 8.51613 36.3871C8.51613 37.6676 7.47406 38.7097 6.19355 38.7097C4.91303 38.7097 3.87097 37.6676 3.87097 36.3871ZM1.54839 44.9032C1.54839 42.3414 3.63174 40.2581 6.19355 40.2581C8.75535 40.2581 10.8387 42.3414 10.8387 44.9032V46.4516H1.54839V44.9032ZM12.3871 44.9032C12.3871 42.3414 14.4705 40.2581 17.0323 40.2581C19.5941 40.2581 21.6774 42.3414 21.6774 44.9032V46.4516H12.3871V44.9032ZM32.5161 46.4516H23.2258V44.9032C23.2258 42.3414 25.3092 40.2581 27.871 40.2581C30.4328 40.2581 32.5161 42.3414 32.5161 44.9032V46.4516ZM25.5484 36.3871C25.5484 35.1066 26.5905 34.0645 27.871 34.0645C29.1515 34.0645 30.1935 35.1066 30.1935 36.3871C30.1935 37.6676 29.1515 38.7097 27.871 38.7097C26.5905 38.7097 25.5484 37.6676 25.5484 36.3871ZM44.9032 44.9032H34.0645C34.0645 42.401 32.5703 40.2457 30.4297 39.2694C31.2279 38.5595 31.7419 37.5368 31.7419 36.3871C31.7419 34.2526 30.0054 32.5161 27.871 32.5161C25.7365 32.5161 24 34.2526 24 36.3871C24 37.5368 24.5141 38.5595 25.3123 39.2694C24.0999 39.8222 23.0942 40.7512 22.4516 41.9117C21.809 40.752 20.8034 39.823 19.591 39.2694C20.3892 38.5595 20.9032 37.5368 20.9032 36.3871C20.9032 34.8039 19.9455 33.4436 18.5806 32.8444V27.871H44.9032V44.9032ZM46.4516 26.3226H17.0323V24.7742H46.4516V26.3226Z" fill="#BF930F"/>
</svg>
