<svg width="52" height="48" viewBox="0 0 52 48" fill="none" xmlns="http://www.w3.org/2000/svg">
<path fill-rule="evenodd" clip-rule="evenodd" d="M16.4895 7.17028C16.4895 5.41152 15.0614 3.98389 13.3026 3.98389C11.5438 3.98389 10.1162 5.41152 10.1162 7.17028C10.1162 11.6269 11.9803 15.6514 14.9723 18.5061C15.2975 18.8161 15.8132 18.8041 16.1231 18.479C16.4336 18.1538 16.4217 17.6382 16.0965 17.3277C13.4155 14.7699 11.7447 11.1639 11.7447 7.17028C11.7447 6.31044 12.4428 5.61237 13.3026 5.61237C14.1624 5.61237 14.8611 6.31044 14.8611 7.17028C14.8611 7.61974 15.2258 7.98452 15.6753 7.98452C16.1242 7.98452 16.4895 7.61974 16.4895 7.17028ZM18.6418 13.1159C17.9644 12.3038 17.4232 11.3739 17.0525 10.3621C16.8983 9.94032 16.4298 9.72319 16.0081 9.87736C15.5863 10.0321 15.3691 10.5 15.5233 10.9223C15.9587 12.1111 16.5948 13.2038 17.3912 14.1586C17.6789 14.5039 18.1929 14.5506 18.5382 14.2629C18.8829 13.9752 18.9295 13.4611 18.6418 13.1159Z" fill="#BF930F"/>
<path fill-rule="evenodd" clip-rule="evenodd" d="M36.5145 18.5838C39.5538 15.7258 41.4526 11.6681 41.4526 7.17028C41.4526 5.41152 40.0249 3.98389 38.2662 3.98389C36.5074 3.98389 35.0792 5.41152 35.0792 7.17028C35.0792 7.61974 35.4446 7.98452 35.8935 7.98452C36.3429 7.98452 36.7077 7.61974 36.7077 7.17028C36.7077 6.31044 37.4063 5.61237 38.2662 5.61237C39.126 5.61237 39.8241 6.31044 39.8241 7.17028C39.8241 11.2008 38.1223 14.8361 35.399 17.3971C35.0716 17.7055 35.0559 18.2211 35.3637 18.5485C35.6715 18.8758 36.1871 18.8915 36.5145 18.5838ZM34.5028 10.3979C34.1331 11.3962 33.5962 12.313 32.9269 13.1159C32.6392 13.4611 32.6859 13.9752 33.0306 14.2629C33.3759 14.5506 33.8899 14.5039 34.1776 14.1586C34.9642 13.2152 35.5949 12.1371 36.0297 10.9641C36.1861 10.5429 35.9711 10.0739 35.5493 9.91807C35.1281 9.76173 34.6591 9.97669 34.5028 10.3979Z" fill="#BF930F"/>
<path fill-rule="evenodd" clip-rule="evenodd" d="M28.3709 36.091C26.6941 36.7663 25.0168 36.7994 23.34 36.1649C22.9193 36.0058 22.4492 36.2181 22.2902 36.6382C22.1311 37.0584 22.3434 37.529 22.7635 37.688C24.8355 38.4719 26.9074 38.4361 28.9794 37.6012C29.3963 37.4335 29.5982 36.959 29.4305 36.5421C29.2628 36.1252 28.7878 35.9228 28.3709 36.091ZM29.8121 17.3261C31.1475 16.7952 32.3536 16.0092 33.3703 15.0272L34.881 17.8613C34.0331 18.5832 33.0989 19.2059 32.0942 19.7085C31.2647 20.1178 30.7371 20.9668 30.7365 21.8956V30.0016C30.7365 30.4511 31.1013 30.8158 31.5508 30.8158C32.0002 30.8158 32.365 30.4511 32.365 30.0016V21.8967C32.3656 21.5867 32.5414 21.3039 32.8188 21.1666C32.8199 21.166 32.8215 21.1655 32.8226 21.1649C34.1542 20.4983 35.3755 19.6439 36.4552 18.6392C36.7256 18.3873 36.7929 17.9856 36.6192 17.6599L34.2703 13.2543C34.1433 13.0155 33.905 12.8553 33.6352 12.8277C33.366 12.7994 33.1 12.908 32.9269 13.1159C31.94 14.2993 30.6654 15.2345 29.2107 15.8127C28.7932 15.9788 28.5886 16.4521 28.7547 16.8701C28.9208 17.2875 29.3947 17.4922 29.8121 17.3261ZM20.8316 29.9967C20.8305 27.0399 20.8294 23.5832 20.8267 21.895C20.8267 20.969 20.3002 20.1216 19.4691 19.7107C18.4708 19.2075 17.5361 18.5838 16.6876 17.8613L18.1983 15.0272C19.215 16.0092 20.4212 16.7952 21.7566 17.3261C22.174 17.4922 22.6479 17.2875 22.814 16.8701C22.9801 16.4521 22.7754 15.9788 22.358 15.8127C20.9032 15.2345 19.6287 14.2993 18.6418 13.1159C18.4687 12.908 18.2027 12.7994 17.9334 12.8277C17.6636 12.8553 17.4253 13.0155 17.2983 13.2543L14.9495 17.6599C14.7758 17.9856 14.8431 18.3873 15.1134 18.6392C16.192 19.6434 17.4129 20.4973 18.7417 21.1676C18.7433 21.1687 18.7455 21.1698 18.7477 21.1709C19.0234 21.3071 19.1982 21.5883 19.1982 21.8961V21.8972C19.2009 23.5854 19.202 27.041 19.2031 29.9967C19.2031 30.4462 19.5679 30.811 20.0173 30.811C20.4668 30.811 20.8316 30.4456 20.8316 29.9967Z" fill="#BF930F"/>
<path fill-rule="evenodd" clip-rule="evenodd" d="M28.7883 30.6621H22.7803C22.3314 30.6621 21.9661 31.0269 21.9661 31.4763C21.9661 31.9258 22.3314 32.2906 22.7803 32.2906H28.7883C29.2372 32.2906 29.6026 31.9258 29.6026 31.4763C29.6026 31.0269 29.2372 30.6621 28.7883 30.6621Z" fill="#BF930F"/>
<path fill-rule="evenodd" clip-rule="evenodd" d="M25.7842 10.2837C23.1249 10.2837 20.9656 12.4431 20.9656 15.1024C20.9656 17.7622 23.1249 19.9216 25.7842 19.9216C28.4436 19.9216 30.6029 17.7622 30.6029 15.1024C30.6029 12.4431 28.4436 10.2837 25.7842 10.2837ZM25.7842 11.9122C27.5452 11.9122 28.9744 13.342 28.9744 15.1024C28.9744 16.8633 27.5452 18.2931 25.7842 18.2931C24.0233 18.2931 22.5941 16.8633 22.5941 15.1024C22.5941 13.342 24.0233 11.9122 25.7842 11.9122Z" fill="#BF930F"/>
<path fill-rule="evenodd" clip-rule="evenodd" d="M17.7657 43.6799V33.0465C17.7657 31.8127 18.7677 30.8106 20.0016 30.8106C21.2354 30.8106 22.2375 31.8127 22.2375 33.0465V44.0382C22.2375 44.4877 22.6023 44.8525 23.0517 44.8525C23.5012 44.8525 23.866 44.4877 23.866 44.0382V33.0465C23.866 30.9137 22.1344 29.1821 20.0016 29.1821C17.8688 29.1821 16.1372 30.9137 16.1372 33.0465V43.6799C16.1372 44.1294 16.502 44.4942 16.9514 44.4942C17.4009 44.4942 17.7657 44.1294 17.7657 43.6799ZM29.4897 44.0382V33.0465C29.4897 31.8127 30.4912 30.8106 31.7256 30.8106C32.9594 30.8106 33.9615 31.8127 33.9615 33.0465V43.6799C33.9615 44.1294 34.3263 44.4942 34.7757 44.4942C35.2252 44.4942 35.59 44.1294 35.59 43.6799V33.0465C35.59 30.9137 33.8583 29.1821 31.7256 29.1821C29.5928 29.1821 27.8612 30.9137 27.8612 33.0465V44.0382C27.8612 44.4877 28.226 44.8525 28.6754 44.8525C29.1243 44.8525 29.4897 44.4877 29.4897 44.0382Z" fill="#BF930F"/>
<path fill-rule="evenodd" clip-rule="evenodd" d="M15.1822 47.9998H21.4231C22.0707 47.9998 22.6922 47.7425 23.1504 47.2844C23.6085 46.8262 23.8658 46.2047 23.8658 45.5571C23.8658 44.789 23.8658 44.0382 23.8658 44.0382C23.8658 43.7321 23.6943 43.452 23.4218 43.313C22.3258 42.7534 21.0057 42.4233 19.5846 42.4233C17.1304 42.4233 14.9825 43.4118 13.7427 44.8601C13.2585 45.4192 13.145 46.2139 13.4544 46.8897C13.7633 47.5661 14.4386 47.9998 15.1822 47.9998ZM21.4231 46.3713H15.1822C15.0758 46.3713 14.9792 46.3094 14.9353 46.2128C14.8913 46.1162 14.907 46.0027 14.9771 45.9224C14.9776 45.9213 14.9787 45.9202 14.9798 45.9191C15.9531 44.7819 17.6581 44.0518 19.5846 44.0518C20.5454 44.0518 21.4492 44.2348 22.2374 44.5588V45.5571C22.2374 45.7731 22.1516 45.9799 21.9991 46.1325C21.846 46.2856 21.6392 46.3713 21.4231 46.3713Z" fill="#BF930F"/>
<path fill-rule="evenodd" clip-rule="evenodd" d="M36.5441 47.9998C37.2878 47.9998 37.9631 47.5661 38.2725 46.8897C38.5819 46.2139 38.4679 45.4192 37.9815 44.8568C36.7444 43.4118 34.5959 42.4233 32.1418 42.4233C30.7207 42.4233 29.4005 42.7534 28.3051 43.313C28.0326 43.452 27.8611 43.7321 27.8611 44.0382V45.5571C27.8611 46.2047 28.1184 46.8262 28.5765 47.2844C29.0347 47.7425 29.6557 47.9998 30.3038 47.9998H36.5441ZM36.5447 46.3713H30.3038C30.0878 46.3713 29.8804 46.2856 29.7279 46.1325C29.5753 45.9799 29.4896 45.7731 29.4896 45.5571V44.5594C30.2772 44.2348 31.1816 44.0518 32.1418 44.0518C34.0689 44.0518 35.7739 44.7819 36.7472 45.9191C36.7482 45.9202 36.7488 45.9213 36.7499 45.9224C36.8194 46.0027 36.8356 46.1162 36.7917 46.2128C36.7472 46.3094 36.6511 46.3713 36.5447 46.3713Z" fill="#BF930F"/>
<path fill-rule="evenodd" clip-rule="evenodd" d="M24.0555 25.7266H27.5133C27.9627 25.7266 28.3275 25.3618 28.3275 24.9124C28.3275 24.4635 27.9627 24.0981 27.5133 24.0981H24.0555C23.606 24.0981 23.2412 24.4635 23.2412 24.9124C23.2412 25.3618 23.606 25.7266 24.0555 25.7266Z" fill="#BF930F"/>
<path fill-rule="evenodd" clip-rule="evenodd" d="M7.94266 8.74225H43.6259C44.0754 8.74225 44.4402 8.37747 44.4402 7.92801C44.4402 7.47855 44.0754 7.11377 43.6259 7.11377H7.94266C7.4932 7.11377 7.12842 7.47855 7.12842 7.92801C7.12842 8.37747 7.4932 8.74225 7.94266 8.74225Z" fill="#BF930F"/>
<path fill-rule="evenodd" clip-rule="evenodd" d="M47.5983 4.62457H49.1258C49.5753 4.62457 49.9401 4.98935 49.9401 5.43881V10.4171C49.9401 10.8665 49.5753 11.2313 49.1258 11.2313H47.5983C47.1488 11.2313 46.7841 11.5961 46.7841 12.0456C46.7841 12.495 47.1488 12.8598 47.5983 12.8598H49.1258C50.4748 12.8598 51.5686 11.766 51.5686 10.4171C51.5686 8.97479 51.5686 6.88111 51.5686 5.43881C51.5686 4.08989 50.4748 2.99609 49.1258 2.99609H47.5983C47.1488 2.99609 46.7841 3.36142 46.7841 3.81033C46.7841 4.25979 47.1488 4.62457 47.5983 4.62457ZM3.97024 2.99609H2.44272C1.0938 2.99609 0 4.08989 0 5.43881V10.4171C0 11.766 1.0938 12.8598 2.44272 12.8598H3.97024C4.4197 12.8598 4.78448 12.495 4.78448 12.0456C4.78448 11.5961 4.4197 11.2313 3.97024 11.2313H2.44272C1.99326 11.2313 1.62848 10.8665 1.62848 10.4171C1.62848 8.97479 1.62848 6.88111 1.62848 5.43881C1.62848 4.98935 1.99326 4.62457 2.44272 4.62457H3.97024C4.4197 4.62457 4.78448 4.25979 4.78448 3.81033C4.78448 3.36142 4.4197 2.99609 3.97024 2.99609Z" fill="#BF930F"/>
<path fill-rule="evenodd" clip-rule="evenodd" d="M8.75689 2.44272C8.75689 1.0938 7.6631 0 6.31417 0H5.59873C4.24926 0 3.15601 1.0938 3.15601 2.44272V13.4127C3.15601 14.7616 4.24926 15.8554 5.59873 15.8554H6.31417C7.6631 15.8554 8.75689 14.7616 8.75689 13.4127V2.44272ZM7.12841 2.44272V13.4127C7.12841 13.8622 6.76363 14.2269 6.31417 14.2269H5.59873C5.14872 14.2269 4.78449 13.8622 4.78449 13.4127V2.44272C4.78449 1.99326 5.14872 1.62848 5.59873 1.62848H6.31417C6.76363 1.62848 7.12841 1.99326 7.12841 2.44272Z" fill="#BF930F"/>
<path fill-rule="evenodd" clip-rule="evenodd" d="M42.8115 2.44272V13.4127C42.8115 14.7616 43.9053 15.8554 45.2542 15.8554H45.9697C47.3192 15.8554 48.4124 14.7616 48.4124 13.4127C48.4124 10.6747 48.4124 5.18074 48.4124 2.44272C48.4124 1.0938 47.3192 0 45.9697 0H45.2542C43.9053 0 42.8115 1.0938 42.8115 2.44272ZM44.44 2.44272C44.44 1.99326 44.8048 1.62848 45.2542 1.62848H45.9697C46.4197 1.62848 46.7839 1.99326 46.7839 2.44272V13.4127C46.7839 13.8622 46.4197 14.2269 45.9697 14.2269H45.2542C44.8048 14.2269 44.44 13.8622 44.44 13.4127V2.44272Z" fill="#BF930F"/>
</svg>
