<svg width="38" height="40" viewBox="0 0 38 40" fill="none" xmlns="http://www.w3.org/2000/svg">
<path d="M31.2959 0C27.8779 0 25.1065 2.77136 25.1065 6.18938V9.46882H10.4183V6.18938C10.4183 3.69515 12.4506 1.66282 14.9448 1.66282C17.4391 1.66282 19.4714 3.69515 19.4714 6.18938C19.4714 6.65127 19.8409 7.02078 20.3028 7.02078C20.7647 7.02078 21.1342 6.65127 21.1342 6.18938C21.1342 2.77136 18.3629 0 14.9448 0C11.5268 0 8.75547 2.77136 8.75547 6.18938V27.2055C8.70928 27.6674 9.12499 28.0831 9.58688 28.0831C10.0488 28.0831 10.4183 27.7136 10.4183 27.2517V25.1732H25.1527V27.2517C25.1527 27.7136 25.5222 28.0831 25.9841 28.0831C26.446 28.0831 26.8155 27.7136 26.8155 27.2517V6.18938C26.8155 3.69515 28.8478 1.66282 31.3421 1.66282C33.8363 1.66282 35.8224 3.69515 35.8224 6.18938C35.8224 6.65127 36.192 7.02078 36.6539 7.02078C37.1157 7.02078 37.4853 6.65127 37.4853 6.18938C37.4853 2.77136 34.7139 0 31.2959 0ZM25.1527 23.418H10.4183V20.4619H25.1527V23.418ZM25.1527 18.7991H10.4183V15.843H25.1527V18.7991ZM25.1527 14.0878H10.4183V11.1316H25.1527V14.0878Z" fill="#BF930F"/>
<path d="M35.4062 31.3164C35.2214 30.9007 34.7134 30.6697 34.2977 30.9007C30.1406 32.7021 28.1083 31.8245 25.9374 30.9007C23.7203 29.9769 21.457 29.0069 17.4385 30.9007C13.2815 32.7021 11.2492 31.8245 9.07826 30.9007C6.86117 29.9769 4.5517 29.0069 0.53322 30.9007C0.117516 31.0855 -0.0672416 31.5935 0.117516 32.0092C0.302273 32.4249 0.810357 32.6097 1.22606 32.4249C4.59789 30.8545 6.35308 31.5935 8.38542 32.4711C9.72491 33.0254 11.1568 33.6259 13.0505 33.6259C14.4362 33.6259 16.0529 33.3025 18.0852 32.4249C21.457 30.8545 23.2122 31.5935 25.2445 32.4711C26.584 33.0254 28.0159 33.6259 29.9097 33.6259C31.2953 33.6259 32.912 33.3025 34.9443 32.4249C35.36 32.2402 35.591 31.7321 35.4062 31.3164Z" fill="#BF930F"/>
<path d="M35.3603 37.6905C35.1755 37.2748 34.6675 37.0439 34.2518 37.2748C30.0947 39.0762 28.0624 38.1986 25.8915 37.2748C23.6744 36.3511 21.4111 35.3811 17.3926 37.2748C13.2356 39.0762 11.2033 38.1986 9.03236 37.2748C6.81527 36.3511 4.55199 35.3811 0.487322 37.2748C0.0716174 37.4596 -0.11314 37.9677 0.0716175 38.3834C0.302564 38.7991 0.810648 38.9838 1.22635 38.7991C4.59818 37.2287 6.35337 37.9677 8.3857 38.8453C9.7252 39.3996 11.1571 40 13.0508 40C14.4365 40 16.0531 39.6767 18.0855 38.7991C21.4573 37.2287 23.2125 37.9677 25.2448 38.8453C26.5843 39.3996 28.0162 40 29.91 40C31.2956 40 32.9123 39.6767 34.9446 38.7991C35.3603 38.6143 35.5912 38.1063 35.3603 37.6905Z" fill="#BF930F"/>
</svg>
