<svg width="32" height="32" viewBox="0 0 32 32" fill="none" xmlns="http://www.w3.org/2000/svg">
<path d="M3.90758 30.5425C3.62033 30.9733 3.73677 31.5553 4.16758 31.8425C4.32745 31.9491 4.50808 32.0001 4.68677 32.0001C4.9897 32.0001 5.28702 31.8535 5.46764 31.5825L6.18214 30.5107C5.60377 30.2569 5.0527 29.952 4.53533 29.6008L3.90758 30.5425Z" fill="white"/>
<path d="M27.3382 29.6008C26.8208 29.952 26.2698 30.2569 25.6914 30.5107L26.4059 31.5825C26.5866 31.8535 26.8838 32.0001 27.1868 32.0001C27.3655 32.0001 27.5462 31.9491 27.706 31.8425C28.1368 31.5553 28.2532 30.9733 27.966 30.5425L27.3382 29.6008Z" fill="white"/>
<path d="M1.875 18.1336V21.0622C1.875 25.7147 5.66006 29.4997 10.3125 29.4997H21.5625C26.2149 29.4997 30 25.7147 30 21.0622V20.5164H14.5089C10.1506 20.5164 5.90819 19.715 1.875 18.1336Z" fill="white"/>
<path d="M5 11.0493V3.4375C5 2.57594 5.70094 1.875 6.5625 1.875H7.8125C8.67406 1.875 9.375 2.57594 9.375 3.4375V3.88231C7.92575 4.29988 6.875 5.66 6.875 7.23969V7.5C6.875 8.01775 7.29475 8.4375 7.8125 8.4375H12.8125C13.3302 8.4375 13.75 8.01775 13.75 7.5V7.1875C13.75 5.61706 12.6911 4.29 11.25 3.88081V3.4375C11.25 1.54206 9.70794 0 7.8125 0H6.5625C4.66706 0 3.125 1.54206 3.125 3.4375V10.2965C3.27262 10.3419 3.41837 10.3952 3.56144 10.4586C4.037 10.67 4.51669 10.8666 5 11.0493Z" fill="white"/>
<path d="M29.8828 14.6571H14.509C10.4488 14.6571 6.51052 13.8211 2.80184 12.1727C1.79471 11.7266 0.619023 12.1786 0.172211 13.1837C-0.274602 14.1889 0.178023 15.3665 1.18321 15.8133C5.4049 17.6901 9.8879 18.6414 14.5091 18.6414H29.8829C30.9834 18.6414 31.8751 17.7497 31.8751 16.6492C31.875 15.5487 30.9833 14.6571 29.8828 14.6571Z" fill="white"/>
</svg>
