<svg width="45" height="32" viewBox="0 0 45 32" fill="none" xmlns="http://www.w3.org/2000/svg">
<path d="M40.1316 17.6427L38.7093 16.4444V8.25244H40.1316V17.6427ZM44.032 5.83822L41.7173 0.430222C41.6618 0.302738 41.5704 0.194171 41.4542 0.117773C41.3381 0.041376 41.2022 0.000453143 41.0631 0H37.7778C37.6391 5.33078e-05 37.5035 0.0408605 37.3878 0.11735C37.2721 0.193839 37.1815 0.302636 37.1271 0.430222L34.8124 5.83822C34.7662 5.94648 34.7475 6.06452 34.758 6.18178C34.7686 6.29904 34.808 6.41185 34.8728 6.51013C34.9376 6.60842 35.0258 6.6891 35.1294 6.74495C35.2331 6.80081 35.3489 6.83011 35.4667 6.83022H43.3778C43.4955 6.83011 43.6114 6.80081 43.715 6.74495C43.8186 6.6891 43.9068 6.60842 43.9716 6.51013C44.0364 6.41185 44.0759 6.29904 44.0864 6.18178C44.097 6.06452 44.0783 5.94648 44.032 5.83822ZM10.7733 14.08V13.3191C10.7746 12.814 10.9757 12.33 11.3329 11.9729C11.69 11.6157 12.174 11.4146 12.6791 11.4133H17.1911C17.6964 11.414 18.1807 11.615 18.538 11.9723C18.8952 12.3295 19.0962 12.8139 19.0969 13.3191V14.08H22.1476V13.3191C22.1482 12.8139 22.3492 12.3295 22.7065 11.9723C23.0637 11.615 23.5481 11.414 24.0533 11.4133H28.5653C29.0704 11.4146 29.5544 11.6157 29.9116 11.9729C30.2687 12.33 30.4699 12.814 30.4711 13.3191V14.08H34.1333V10.3609C34.1319 9.3212 33.7183 8.3245 32.9831 7.58933C32.2479 6.85416 31.2512 6.44052 30.2116 6.43911H11.0329C9.9932 6.44052 8.9965 6.85416 8.26133 7.58933C7.52616 8.3245 7.11252 9.3212 7.11111 10.3609V14.08H10.7733ZM38.5813 20.0533H40.7929L40.1316 19.4987L38.7093 18.304L35.3742 15.5022H5.87022L0.451556 20.0533H38.5813ZM3.2 29.6142H1.77778V31.2889C1.77834 31.4773 1.85344 31.6579 1.98668 31.7911C2.11992 31.9243 2.30046 31.9994 2.48889 32H5.952C6.14042 31.9994 6.32097 31.9243 6.45421 31.7911C6.58745 31.6579 6.66255 31.4773 6.66311 31.2889V29.6142H3.2ZM36.0036 29.6142H34.5813V31.2889C34.5819 31.4773 34.657 31.6579 34.7902 31.7911C34.9235 31.9243 35.104 31.9994 35.2924 32H38.7556C38.944 31.9994 39.1245 31.9243 39.2578 31.7911C39.391 31.6579 39.4661 31.4773 39.4667 31.2889V29.6142H36.0036ZM1.42222 21.4756H0V27.4809C0.000562747 27.6693 0.0756639 27.8499 0.208901 27.9831C0.342139 28.1163 0.522686 28.1914 0.711111 28.192H40.5333C40.7218 28.1914 40.9023 28.1163 41.0355 27.9831C41.1688 27.8499 41.2439 27.6693 41.2444 27.4809V21.4756H1.42222Z" fill="white"/>
</svg>
