<svg width="32" height="32" viewBox="0 0 32 32" fill="none" xmlns="http://www.w3.org/2000/svg">
<path d="M30.1811 16.8253C29.7095 16.8253 29.3389 17.1958 29.3389 17.6674V27.7726C29.3389 29.1705 28.2105 30.2989 26.8126 30.2989H25.1284C23.9832 30.2989 23.0232 29.5242 22.72 28.48C23.8821 28.1263 24.7242 27.0821 24.7579 25.8021L25.1621 13.2379C25.7179 13.1705 26.2737 13.12 26.8126 13.0189C29.8105 12.48 31.9832 9.81895 31.9832 6.73684C31.9832 3.65474 29.7263 0.943158 26.6105 0.404211C25.0611 0.134737 23.4611 0 21.8779 0C17.7179 0 14.4337 0.926316 12.3789 1.71789L4.31158 3.33474L2.42526 2.39158C1.90316 2.12211 1.28 2.15579 0.791579 2.45895C0.286316 2.76211 0 3.30105 0 3.89053V9.58316C0 10.1726 0.303158 10.7116 0.791579 11.0147C1.06105 11.1832 1.36421 11.2674 1.68421 11.2674C1.93684 11.2674 2.18947 11.2 2.44211 11.0821L4.32842 10.1389L12.4126 11.7558C14.6189 12.5979 16.7411 13.0526 18.6105 13.2716L18.7789 18.7453C18.3074 18.8632 17.9537 19.2674 17.9537 19.7558C17.9537 20.2442 18.3411 20.6989 18.8463 20.7832L18.9979 25.8021C19.0316 27.0821 19.8737 28.1263 21.0189 28.48C21.3558 30.4674 23.0737 32 25.1621 32H26.8463C29.1705 32 31.0568 30.1137 31.0568 27.7895V17.6842C31.0568 17.2126 30.6863 16.8421 30.2147 16.8421L30.1811 16.8253ZM24 3.89053C24.6905 3.89053 25.2632 4.46316 25.2632 5.15368C25.2632 5.84421 24.6905 6.41684 24 6.41684C23.3095 6.41684 22.7368 5.84421 22.7368 5.15368C22.7368 4.46316 23.3095 3.89053 24 3.89053ZM11.7558 9.90316L5.01895 8.55579V4.88421L11.7558 3.53684V9.90316Z" fill="white"/>
</svg>
