<svg width="43" height="48" viewBox="0 0 43 48" fill="none" xmlns="http://www.w3.org/2000/svg">
<path d="M21.0395 42.2763C-5.30527 40.2811 -4.47748 2.65394 21.8808 1.70058C27.0315 1.68862 31.9917 3.64746 35.7445 7.1755C35.8259 7.25194 35.9215 7.3116 36.026 7.35107C36.1304 7.39054 36.2417 7.40905 36.3533 7.40554C36.4649 7.40203 36.5747 7.37658 36.6765 7.33062C36.7782 7.28467 36.87 7.21913 36.9464 7.13773C37.0228 7.05633 37.0825 6.96067 37.122 6.85621C37.1614 6.75176 37.1799 6.64055 37.1764 6.52894C37.1729 6.41733 37.1475 6.30751 37.1015 6.20573C37.0556 6.10396 36.99 6.01224 36.9086 5.9358C32.8408 2.11112 27.464 -0.0125868 21.8806 5.6127e-05C-6.69474 1.0382 -7.57503 41.8181 20.9708 43.9753C21.1938 43.9805 21.4099 43.898 21.5726 43.7454C21.7353 43.5928 21.8315 43.3824 21.8405 43.1596C21.8495 42.9367 21.7706 42.7192 21.6208 42.554C21.4709 42.3888 21.2621 42.2891 21.0395 42.2763Z" fill="#BF930F"/>
<path d="M21.8804 5.3824C0.325277 6.16665 -0.373988 36.8848 21.1415 38.5938C21.3617 38.5907 21.572 38.5023 21.7283 38.3473C21.8847 38.1923 21.9748 37.9827 21.9799 37.7627C21.9849 37.5426 21.9044 37.3291 21.7553 37.1671C21.6062 37.0051 21.4001 36.9073 21.1804 36.8941C17.3485 36.7196 13.7317 35.0732 11.0838 32.2979C8.43587 29.5227 6.96102 25.8326 6.96661 21.9968C6.9377 8.77609 23.212 2.07447 32.4745 11.4993C32.6345 11.654 32.8487 11.74 33.0712 11.7386C33.2938 11.7373 33.5069 11.6487 33.665 11.4921C33.823 11.3354 33.9134 11.123 33.9167 10.9005C33.92 10.6779 33.8359 10.463 33.6826 10.3017C32.1415 8.73777 30.3039 7.49712 28.2773 6.65241C26.2508 5.8077 24.076 5.37593 21.8804 5.3824Z" fill="#BF930F"/>
<path d="M42.5668 23.6688C42.5587 23.4459 42.4633 23.235 42.3012 23.0817C42.1391 22.9284 41.9232 22.8449 41.7001 22.8492C41.477 22.8536 41.2646 22.9455 41.1086 23.105C40.9526 23.2645 40.8656 23.479 40.8662 23.7021L41.2573 43.6943C41.2603 43.9246 41.2172 44.1532 41.1307 44.3667C41.0442 44.5802 40.916 44.7742 40.7536 44.9375C40.5911 45.1008 40.3978 45.2301 40.1848 45.3178C39.9718 45.4054 39.7434 45.4497 39.5131 45.448C39.2828 45.4463 39.0551 45.3987 38.8434 45.3079C38.6317 45.2172 38.4403 45.0851 38.2802 44.9194C38.1202 44.7537 37.9949 44.5578 37.9115 44.3431C37.8282 44.1284 37.7885 43.8992 37.7948 43.6689L38.5429 31.7606C38.7681 29.4794 37.2156 27.3056 37.1646 25.078C36.7238 19.9563 37.6637 14.8101 39.8864 10.1749C39.9295 10.1037 39.9943 10.0482 40.0712 10.0163C40.1481 9.98448 40.2332 9.97803 40.314 9.99791C40.3949 10.0178 40.4673 10.063 40.5206 10.1268C40.574 10.1907 40.6056 10.27 40.6108 10.3531L40.8064 20.301C40.8147 20.5238 40.9102 20.7344 41.0723 20.8875C41.2344 21.0406 41.4501 21.124 41.673 21.1196C41.8959 21.1153 42.1082 21.0236 42.2642 20.8642C42.4201 20.7049 42.5073 20.4907 42.5069 20.2677L42.311 10.3148C42.2936 9.7708 42.066 9.25469 41.676 8.87495C41.286 8.49521 40.7641 8.28139 40.2198 8.27842C39.8351 8.27456 39.4572 8.37909 39.1292 8.58006C38.8012 8.78102 38.5364 9.0703 38.3652 9.41475C35.9844 14.3237 34.9836 19.7879 35.4702 25.222C35.4642 27.3726 36.937 29.4587 36.8463 31.6505L36.0971 43.5689C36.0593 44.2677 36.2362 44.9614 36.6041 45.5567C36.972 46.1521 37.5132 46.6206 38.1551 46.8995C38.6855 47.115 39.2607 47.1966 39.8301 47.1373C40.3995 47.078 40.9456 46.8795 41.4201 46.5593C41.8947 46.2391 42.2832 45.807 42.5513 45.3012C42.8195 44.7954 42.9591 44.2314 42.9578 43.659L42.5668 23.6688Z" fill="#BF930F"/>
<path d="M31.5229 15.8667C31.2974 15.8667 31.0811 15.9563 30.9216 16.1157C30.7622 16.2752 30.6726 16.4915 30.6726 16.717V24.883C30.6726 24.9819 30.6444 25.0787 30.5912 25.162L28.4182 28.5772C27.9701 29.2839 27.768 30.1187 27.8432 30.9521L29.0638 44.2633C29.0875 44.5217 29.057 44.7821 28.9743 45.0279C28.8917 45.2738 28.7587 45.4998 28.5838 45.6913C28.409 45.8829 28.1961 46.036 27.9588 46.1407C27.7214 46.2454 27.4649 46.2995 27.2055 46.2995C26.9461 46.2995 26.6896 46.2454 26.4523 46.1407C26.2149 46.036 26.002 45.8829 25.8272 45.6913C25.6523 45.4998 25.5193 45.2738 25.4367 45.0279C25.354 44.7821 25.3236 44.5217 25.3472 44.2633L26.5678 30.9521C26.6428 30.1187 26.4408 29.2838 25.9932 28.5768L23.8198 25.1625C23.7667 25.0789 23.7385 24.982 23.7384 24.883V16.717C23.7384 16.4915 23.6488 16.2752 23.4894 16.1158C23.3299 15.9563 23.1136 15.8667 22.8881 15.8667C22.6626 15.8667 22.4463 15.9563 22.2869 16.1158C22.1274 16.2752 22.0378 16.4915 22.0378 16.717V24.883C22.0378 25.3054 22.1582 25.7191 22.3849 26.0754L24.5579 29.4894C24.8044 29.8785 24.9157 30.338 24.8747 30.7968L23.6541 44.108C23.6089 44.6018 23.667 45.0995 23.8249 45.5695C23.9828 46.0395 24.237 46.4714 24.5712 46.8376C24.9053 47.2038 25.3122 47.4964 25.7658 47.6965C26.2194 47.8967 26.7098 48 27.2056 48C27.7014 48 28.1917 47.8966 28.6453 47.6965C29.0989 47.4963 29.5058 47.2037 29.8399 46.8375C30.1741 46.4713 30.4282 46.0394 30.5861 45.5694C30.744 45.0994 30.8021 44.6016 30.7569 44.1079L29.5363 30.7967C29.4952 30.3382 29.6065 29.879 29.8531 29.4902L32.0261 26.075C32.2529 25.7188 32.3733 25.3053 32.3732 24.883V16.717C32.3731 16.4915 32.2836 16.2752 32.1241 16.1158C31.9647 15.9563 31.7484 15.8667 31.5229 15.8667Z" fill="#BF930F"/>
<path d="M26.5702 23.6106V16.7167C26.5669 16.4933 26.4758 16.2803 26.3167 16.1235C26.1576 15.9668 25.9433 15.8789 25.7199 15.8789C25.4966 15.8789 25.2822 15.9668 25.1231 16.1235C24.964 16.2803 24.8729 16.4933 24.8696 16.7167V23.6106C24.8729 23.8339 24.964 24.047 25.1231 24.2037C25.2822 24.3605 25.4965 24.4484 25.7199 24.4484C25.9432 24.4484 26.1576 24.3605 26.3167 24.2037C26.4758 24.047 26.5669 23.8339 26.5702 23.6106Z" fill="#BF930F"/>
<path d="M29.5414 23.6106V16.7167C29.5381 16.4933 29.447 16.2803 29.2879 16.1235C29.1288 15.9668 28.9144 15.8789 28.6911 15.8789C28.4677 15.8789 28.2534 15.9668 28.0943 16.1235C27.9352 16.2803 27.8441 16.4933 27.8408 16.7167V23.6106C27.8441 23.8339 27.9352 24.047 28.0943 24.2037C28.2534 24.3605 28.4677 24.4484 28.6911 24.4484C28.9144 24.4484 29.1288 24.3605 29.2879 24.2037C29.447 24.047 29.5381 23.8339 29.5414 23.6106Z" fill="#BF930F"/>
</svg>
