<svg width="40" height="40" viewBox="0 0 40 40" fill="none" xmlns="http://www.w3.org/2000/svg">
<path d="M9.80744 12.0237C4.39962 12.0237 0 16.4233 0 21.8311C0 25.1887 1.59719 28.7987 4.74727 32.5609C5.21532 33.1199 5.68173 33.6379 6.12931 34.1104C4.0954 34.6656 2.87422 35.663 2.87422 36.8272C2.87422 38.888 6.44626 40.0001 9.80713 40.0001C13.1681 40.0001 16.74 38.888 16.74 36.8272C16.74 35.664 15.5192 34.6663 13.4867 34.1109C14.2987 33.2536 15.1725 32.2451 16.0015 31.12C16.1937 30.8592 16.1381 30.4921 15.8773 30.2999C15.6167 30.1079 15.2493 30.1634 15.0571 30.4242C14.0562 31.7826 12.9728 32.9763 12.0274 33.9245C11.919 33.9798 11.8284 34.0676 11.7716 34.1783C10.9247 35.0106 10.2121 35.628 9.80768 35.9654C9.40775 35.6313 8.70595 35.0222 7.86994 34.2008C7.80994 34.0694 7.70455 33.9662 7.57595 33.9087C4.91915 31.2365 1.17305 26.6196 1.17305 21.8313C1.17305 17.0703 5.04642 13.197 9.80736 13.197C14.5683 13.197 18.4417 17.0703 18.4417 21.8313C18.4417 23.9104 17.7332 26.1557 16.336 28.5049C16.1705 28.7834 16.2619 29.1433 16.5403 29.3089C16.8188 29.4744 17.1788 29.383 17.3443 29.1046C18.8509 26.5714 19.6148 24.1244 19.6148 21.8313C19.6149 16.4233 15.2153 12.0237 9.80744 12.0237ZM9.44846 37.1854C9.55408 37.2672 9.6808 37.308 9.80744 37.308C9.93408 37.308 10.0607 37.2672 10.1664 37.1854C10.2384 37.1297 11.2185 36.3653 12.525 35.0879C14.5033 35.4913 15.5671 36.2681 15.5671 36.8272C15.5671 37.2448 14.9947 37.7375 14.0734 38.1129C12.9434 38.5734 11.4283 38.8271 9.80721 38.8271C6.29111 38.8271 4.04735 37.6426 4.04735 36.8272C4.04735 36.2673 5.11142 35.4909 7.0908 35.0875C8.40455 36.3725 9.38611 37.1371 9.44846 37.1854Z" fill="#BF930F"/>
<path d="M9.80712 17.5667C8.87938 17.5667 7.99719 17.8595 7.25594 18.4137C6.99657 18.6077 6.94344 18.9752 7.13735 19.2347C7.33141 19.4941 7.69899 19.5471 7.95836 19.3533C8.49516 18.952 9.13446 18.7398 9.80704 18.7398C11.5115 18.7398 12.8981 20.1264 12.8981 21.831C12.8981 23.5354 11.5115 24.9221 9.80704 24.9221C8.10258 24.9221 6.71594 23.5353 6.71594 21.831C6.71594 21.5401 6.75617 21.2525 6.83547 20.9764C6.92485 20.6651 6.74492 20.3402 6.4336 20.2508C6.12235 20.1617 5.79742 20.3414 5.70797 20.6527C5.59852 21.0342 5.54297 21.4306 5.54297 21.831C5.54297 24.1822 7.45586 26.0952 9.8072 26.0952C12.1585 26.0952 14.0714 24.1823 14.0714 21.831C14.0713 19.4796 12.1584 17.5667 9.80712 17.5667Z" fill="#BF930F"/>
<path d="M35.3687 17.0407C35.6671 16.7205 35.9745 16.3755 36.2828 16.0072C38.7248 13.0906 39.963 10.2867 39.963 7.67337C39.963 3.44235 36.5208 0 32.2897 0C29.1988 0 26.4236 1.83953 25.2196 4.68642C25.0933 4.98478 25.2329 5.32899 25.5312 5.45509C25.8295 5.58118 26.1738 5.44173 26.2999 5.14345C27.32 2.73157 29.6711 1.17305 32.2897 1.17305C35.874 1.17305 38.79 4.08915 38.79 7.67345C38.79 12.5206 33.7011 17.1644 32.2894 18.359C31.9783 18.0961 31.4886 17.6658 30.9145 17.103C30.8572 16.9895 30.7647 16.8995 30.6536 16.8438C28.6284 14.8046 25.7893 11.2994 25.7893 7.67345C25.7893 7.34947 25.5268 7.08689 25.2028 7.08689C24.8789 7.08689 24.6162 7.34947 24.6162 7.67345C24.6162 10.2867 25.8544 13.0906 28.2965 16.0073C28.6047 16.3753 28.9119 16.7202 29.2102 17.0403C27.6982 17.4946 26.8253 18.2679 26.8253 19.1991C26.8253 19.9844 27.4623 20.6765 28.6192 21.1479C29.609 21.5512 30.9126 21.7734 32.2896 21.7734C33.6665 21.7734 34.9701 21.5512 35.96 21.1479C37.1166 20.6764 37.7537 19.9843 37.7537 19.199C37.7536 18.2696 36.8801 17.4956 35.3687 17.0407ZM32.2895 20.6002C29.513 20.6002 27.9984 19.6746 27.9984 19.1989C27.9984 18.8891 28.6874 18.3221 30.1586 18.0093C31.1486 18.9725 31.8833 19.5448 31.9308 19.5816C32.0365 19.6634 32.1631 19.7043 32.2897 19.7043C32.4164 19.7043 32.5429 19.6634 32.6487 19.5816C32.6962 19.545 33.4308 18.9725 34.4207 18.0094C35.0762 18.1492 35.644 18.3539 36.0413 18.5958C36.379 18.8016 36.5807 19.0271 36.5807 19.1989C36.5805 19.6746 35.0659 20.6002 32.2895 20.6002Z" fill="#BF930F"/>
<path d="M32.2901 4.26038C30.4081 4.26038 28.877 5.79147 28.877 7.67359C28.877 9.55554 30.408 11.0866 32.2901 11.0866C34.1721 11.0866 35.7032 9.55562 35.7032 7.67359C35.7032 5.79155 34.1721 4.26038 32.2901 4.26038ZM32.2902 9.91351C31.0548 9.91351 30.0501 8.90867 30.0501 7.67351C30.0501 6.43835 31.0549 5.43342 32.2902 5.43342C33.5253 5.43342 34.5302 6.43827 34.5302 7.67351C34.5302 8.90867 33.5253 9.91351 32.2902 9.91351Z" fill="#BF930F"/>
<path d="M24.681 18.6125H24.4132C24.2182 18.6125 24.0222 18.6254 23.8305 18.651C23.5095 18.6937 23.2838 18.9886 23.3265 19.3098C23.3658 19.6047 23.6176 19.8191 23.9072 19.8191C23.933 19.8191 23.959 19.8175 23.9853 19.814C24.1258 19.7953 24.2698 19.7858 24.4133 19.7858H24.681V19.7858C25.005 19.7858 25.2676 19.5233 25.2676 19.1992C25.2676 18.8751 25.005 18.6125 24.681 18.6125Z" fill="#BF930F"/>
<path d="M22.7422 36.2107C22.7413 36.2107 22.7404 36.2107 22.7395 36.2107L21.9648 36.2142C21.6409 36.2157 21.3795 36.4795 21.3809 36.8034C21.3823 37.1265 21.6447 37.3873 21.9673 37.3873C21.9683 37.3873 21.9691 37.3873 21.9701 37.3873L22.7448 37.3838C23.0687 37.3823 23.3301 37.1185 23.3287 36.7946C23.3273 36.4715 23.0649 36.2107 22.7422 36.2107Z" fill="#BF930F"/>
<path d="M25.3769 26.2102H24.6022C24.2782 26.2102 24.0156 26.4729 24.0156 26.7968C24.0156 27.1208 24.2781 27.3833 24.6022 27.3833H25.3769C25.7009 27.3833 25.9634 27.1208 25.9634 26.7968C25.9634 26.4729 25.7009 26.2102 25.3769 26.2102Z" fill="#BF930F"/>
<path d="M22.2694 19.8074C22.0498 19.5694 21.6789 19.5544 21.4406 19.774C21.2219 19.9756 21.023 20.2004 20.8494 20.4421C20.6605 20.7053 20.7206 21.0718 20.9837 21.2608C21.0872 21.3352 21.2069 21.3709 21.3255 21.3709C21.5079 21.3709 21.6877 21.286 21.8023 21.1265C21.9297 20.9492 22.0756 20.7842 22.236 20.6362C22.4741 20.4166 22.489 20.0455 22.2694 19.8074Z" fill="#BF930F"/>
<path d="M25.8408 36.1964C25.8398 36.1964 25.839 36.1964 25.838 36.1964L25.0634 36.1999C24.7395 36.2013 24.4781 36.4652 24.4795 36.7891C24.4809 37.1122 24.7433 37.3731 25.066 37.3731C25.0669 37.3731 25.0678 37.3731 25.0687 37.3731L25.8433 37.3695C26.1672 37.3681 26.4286 37.1042 26.4272 36.7803C26.4258 36.4573 26.1634 36.1964 25.8408 36.1964Z" fill="#BF930F"/>
<path d="M19.6436 36.2246C19.6426 36.2246 19.6418 36.2246 19.6408 36.2246L18.8661 36.2281C18.5422 36.2296 18.2808 36.4934 18.2822 36.8173C18.2837 37.1404 18.5459 37.4013 18.8687 37.4013C18.8697 37.4013 18.8705 37.4013 18.8715 37.4013L19.6461 37.3977C19.97 37.3963 20.2315 37.1324 20.23 36.8085C20.2286 36.4854 19.9663 36.2246 19.6436 36.2246Z" fill="#BF930F"/>
<path d="M22.7036 25.7172C22.5193 25.6009 22.3459 25.4651 22.1885 25.3138C21.955 25.0892 21.5836 25.0966 21.3591 25.3299C21.1345 25.5633 21.1418 25.9347 21.3752 26.1592C21.5899 26.3657 21.8263 26.5508 22.0777 26.7093C22.1748 26.7707 22.2831 26.7999 22.3901 26.7999C22.5848 26.7999 22.7752 26.7031 22.8868 26.5261C23.0597 26.2522 22.9776 25.89 22.7036 25.7172Z" fill="#BF930F"/>
<path d="M21.2608 23.6163C21.2214 23.4141 21.2014 23.2061 21.2014 22.998L21.2016 22.9654C21.2054 22.6415 20.9459 22.3759 20.6219 22.3721C20.6197 22.3721 20.6173 22.3721 20.615 22.3721C20.2942 22.3721 20.0323 22.6302 20.0286 22.9518L20.0283 22.9981C20.0283 23.2814 20.0556 23.5649 20.1093 23.8407C20.1639 24.1208 20.4093 24.3151 20.6844 24.3151C20.7215 24.3151 20.7593 24.3116 20.7972 24.3042C21.1152 24.2422 21.3227 23.9343 21.2608 23.6163Z" fill="#BF930F"/>
<path d="M28.4765 26.2101H27.7018C27.3778 26.2101 27.1152 26.4727 27.1152 26.7966C27.1152 27.1206 27.3778 27.3832 27.7018 27.3832H28.4765C28.8005 27.3832 29.0631 27.1207 29.0631 26.7966C29.0631 26.4727 28.8005 26.2101 28.4765 26.2101Z" fill="#BF930F"/>
<path d="M37.8934 27.4045C37.6674 27.2261 37.4259 27.0641 37.1753 26.9231C36.8934 26.764 36.5355 26.8639 36.3764 27.1462C36.2174 27.4284 36.3173 27.7862 36.5995 27.9451C36.7972 28.0566 36.988 28.1844 37.1663 28.3253C37.2741 28.4103 37.4021 28.4515 37.5295 28.4515C37.7027 28.4515 37.8745 28.3749 37.9902 28.2284C38.191 27.9741 38.1477 27.6052 37.8934 27.4045Z" fill="#BF930F"/>
<path d="M35.7162 36.6168C35.6717 36.2959 35.3751 36.0713 35.0549 36.116C34.8628 36.1426 34.6661 36.1566 34.4699 36.1573L34.3601 36.1579C34.0361 36.1595 33.7748 36.4234 33.7764 36.7473C33.778 37.0702 34.0403 37.331 34.3629 37.331C34.3639 37.331 34.3648 37.331 34.3657 37.331L34.4753 37.3305C34.723 37.3294 34.9721 37.3118 35.2154 37.2781C35.5365 37.2338 35.7606 36.9376 35.7162 36.6168Z" fill="#BF930F"/>
<path d="M38.3055 34.9674C38.082 34.7327 37.7106 34.7237 37.4762 34.9472C37.3116 35.104 37.1335 35.2492 36.9467 35.3787C36.6805 35.5632 36.6144 35.9287 36.7988 36.195C36.9128 36.3593 37.0955 36.4474 37.2814 36.4474C37.3967 36.4474 37.5131 36.4135 37.6151 36.3429C37.8515 36.1789 38.077 35.9952 38.2854 35.7967C38.52 35.5731 38.5289 35.2018 38.3055 34.9674Z" fill="#BF930F"/>
<path d="M39.4471 32.1186C39.1292 32.0587 38.8221 32.2681 38.7621 32.5864C38.72 32.8096 38.6602 33.0311 38.584 33.2449C38.4753 33.55 38.6344 33.8855 38.9396 33.9943C39.0046 34.0175 39.0712 34.0286 39.1366 34.0286C39.3775 34.0286 39.6035 33.8789 39.6891 33.6389C39.7857 33.3678 39.8617 33.0868 39.9151 32.8036C39.9749 32.4852 39.7653 32.1785 39.4471 32.1186Z" fill="#BF930F"/>
<path d="M39.7949 30.2332C39.7154 29.9562 39.6133 29.6834 39.4913 29.422C39.3543 29.1284 39.0055 29.0015 38.7117 29.1384C38.4182 29.2754 38.2912 29.6244 38.4282 29.918C38.5243 30.1238 38.6047 30.3388 38.6673 30.5568C38.7412 30.8141 38.9758 30.9817 39.2308 30.9817C39.2845 30.9817 39.3389 30.9743 39.393 30.9588C39.7043 30.8694 39.8842 30.5445 39.7949 30.2332Z" fill="#BF930F"/>
<path d="M31.5751 26.2101H30.8004C30.4764 26.2101 30.2139 26.4727 30.2139 26.7966C30.2139 27.1206 30.4764 27.3832 30.8004 27.3832H31.5751C31.8991 27.3832 32.1617 27.1207 32.1617 26.7966C32.1617 26.4727 31.8991 26.2101 31.5751 26.2101Z" fill="#BF930F"/>
<path d="M28.9404 36.1825C28.9395 36.1825 28.9386 36.1825 28.9377 36.1825L28.163 36.186C27.8391 36.1874 27.5777 36.4513 27.5791 36.7752C27.5806 37.0983 27.8429 37.3591 28.1656 37.3591C28.1665 37.3591 28.1674 37.3591 28.1683 37.3591L28.943 37.3556C29.2669 37.3541 29.5283 37.0903 29.5269 36.7664C29.5255 36.4434 29.2631 36.1825 28.9404 36.1825Z" fill="#BF930F"/>
<path d="M34.6996 26.2158C34.6166 26.212 34.5326 26.2102 34.4499 26.2102H33.8991C33.5751 26.2102 33.3125 26.4729 33.3125 26.7968C33.3125 27.1208 33.575 27.3833 33.8991 27.3833H34.4499V27.3833C34.5163 27.3833 34.5822 27.3847 34.6477 27.3876C34.6566 27.3881 34.6654 27.3883 34.6741 27.3883C34.9861 27.3883 35.2458 27.1425 35.2596 26.8277C35.2739 26.504 35.0232 26.23 34.6996 26.2158Z" fill="#BF930F"/>
<path d="M32.0391 36.1685C32.0381 36.1685 32.0373 36.1685 32.0363 36.1685L31.2616 36.172C30.9377 36.1734 30.6763 36.4373 30.6777 36.7612C30.6792 37.0842 30.9416 37.3451 31.2642 37.3451C31.2652 37.3451 31.2661 37.3451 31.267 37.3451L32.0416 37.3416C32.3656 37.3401 32.627 37.0763 32.6256 36.7524C32.6242 36.4292 32.3618 36.1685 32.0391 36.1685Z" fill="#BF930F"/>
</svg>
