<svg width="47" height="42" viewBox="0 0 47 42" fill="none" xmlns="http://www.w3.org/2000/svg">
<path d="M36.5564 1V12.1111M9.88965 1V12.1111" stroke="#BF930F" stroke-width="1.5" stroke-linecap="round" stroke-linejoin="round"/>
<path d="M42.1112 3.22217V6.55551M42.1112 6.55551V9.88884M42.1112 6.55551H45.4445M4.33334 3.22217V6.55551M4.33334 6.55551V9.88884M4.33334 6.55551H1" stroke="#BF930F" stroke-width="1.5" stroke-linecap="round" stroke-linejoin="round"/>
<path d="M36.5564 6.55554H9.88965" stroke="#BF930F" stroke-width="1.5" stroke-linecap="round" stroke-linejoin="round"/>
<path d="M12.7259 36.5556H33.7192C36.4692 36.5556 37.8441 36.5556 38.4128 35.8831C39.7033 34.3571 37.231 32.3403 36.329 31.3236C35.3126 30.1782 34.569 29.8889 33.0668 29.8889H13.3784C11.8761 29.8889 11.1326 30.1782 10.1162 31.3236C9.21403 32.3403 6.74199 34.3571 8.03241 35.8831C8.6009 36.5556 9.97592 36.5556 12.7259 36.5556Z" stroke="#BF930F" stroke-width="1.5" stroke-linecap="round" stroke-linejoin="round"/>
<path d="M16.5557 12.1112V29.889M29.889 12.1112V29.889" stroke="#BF930F" stroke-width="1.5" stroke-linecap="round" stroke-linejoin="round"/>
<path d="M32.1108 36.5555V41M14.333 36.5555V41" stroke="#BF930F" stroke-width="1.5" stroke-linecap="round" stroke-linejoin="round"/>
</svg>
