<svg width="39" height="32" viewBox="0 0 39 32" fill="none" xmlns="http://www.w3.org/2000/svg">
<path d="M35.5809 0H3.42857C1.53798 0 0 1.53798 0 3.42857V14.8571C0 16.7477 1.53798 18.2857 3.42857 18.2857H35.5809C37.4715 18.2857 39.0095 16.7477 39.0095 14.8571V3.42857C39.0095 1.53798 37.4715 0 35.5809 0ZM28.7238 6.85714C29.355 6.85714 29.8667 7.36884 29.8667 8C29.8667 8.63116 29.355 9.14285 28.7238 9.14285C28.0926 9.14285 27.5809 8.63116 27.5809 8C27.5809 7.36884 28.0926 6.85714 28.7238 6.85714ZM33.2952 13.7143H5.71428C5.08259 13.7143 4.57143 13.2031 4.57143 12.5714C4.57143 11.9397 5.08259 11.4286 5.71428 11.4286H33.2952C33.9269 11.4286 34.4381 11.9397 34.4381 12.5714C34.4381 13.2031 33.9269 13.7143 33.2952 13.7143ZM33.2952 9.14285C32.6641 9.14285 32.1524 8.63116 32.1524 8C32.1524 7.36884 32.6641 6.85714 33.2952 6.85714C33.9264 6.85714 34.4381 7.36884 34.4381 8C34.4381 8.63116 33.9264 9.14285 33.2952 9.14285Z" fill="white"/>
<path d="M10.3632 20.5714C9.73146 20.5714 9.22029 21.0826 9.22029 21.7143V23.4609C9.22029 26.1774 7.71028 28.6194 5.28056 29.8348C4.71584 30.1172 4.48704 30.8036 4.7694 31.3683C5.05039 31.9286 5.73245 32.1626 6.30289 31.8794C9.51271 30.2746 11.506 27.0491 11.506 23.4609V21.7143C11.506 21.0826 10.9948 20.5714 10.3632 20.5714Z" fill="white"/>
<path d="M28.6468 20.5714C28.0151 20.5714 27.5039 21.0826 27.5039 21.7143V23.4609C27.5039 27.0491 29.4972 30.2746 32.707 31.8794C33.2769 32.1623 33.9593 31.9291 34.2405 31.3683C34.5229 30.8036 34.2941 30.1172 33.7294 29.8348C31.2996 28.6194 29.7896 26.1774 29.7896 23.4609V21.7143C29.7896 21.0826 29.2785 20.5714 28.6468 20.5714Z" fill="white"/>
<path d="M20.649 30.8571V21.7143C20.649 21.0826 20.1378 20.5714 19.5061 20.5714C18.8744 20.5714 18.3633 21.0826 18.3633 21.7143V30.8571C18.3633 31.4888 18.8744 32 19.5061 32C20.1378 32 20.649 31.4888 20.649 30.8571Z" fill="white"/>
<path d="M25.2193 30.8571V21.7143C25.2193 21.0826 24.7081 20.5714 24.0765 20.5714C23.4448 20.5714 22.9336 21.0826 22.9336 21.7143V30.8571C22.9336 31.4888 23.4448 32 24.0765 32C24.7081 32 25.2193 31.4888 25.2193 30.8571Z" fill="white"/>
<path d="M16.0748 30.8571V21.7143C16.0748 21.0826 15.5636 20.5714 14.9319 20.5714C14.3002 20.5714 13.7891 21.0826 13.7891 21.7143V30.8571C13.7891 31.4888 14.3002 32 14.9319 32C15.5636 32 16.0748 31.4888 16.0748 30.8571Z" fill="white"/>
</svg>
