<svg width="32" height="32" viewBox="0 0 32 32" fill="none" xmlns="http://www.w3.org/2000/svg">
<path d="M7.42805 30.8571H2.28516V31.4285C2.28516 31.5801 2.34536 31.7254 2.45253 31.8326C2.55969 31.9398 2.70504 32 2.85659 32H6.85662C7.00817 32 7.15351 31.9398 7.26068 31.8326C7.36784 31.7254 7.42805 31.5801 7.42805 31.4285V30.8571Z" fill="white"/>
<path d="M2.28516 14.2863H4.4246C4.40631 14.2348 4.38517 14.1851 4.37146 14.1314L4.09888 13.0383C3.89936 12.9478 3.73005 12.8019 3.61111 12.6179C3.49217 12.4339 3.42862 12.2196 3.42802 12.0005V6.62908C3.42945 6.08313 3.62697 5.55586 3.9846 5.14336C3.83304 5.14139 3.68848 5.07929 3.58271 4.97073C3.47694 4.86218 3.41862 4.71605 3.42059 4.56449C3.42256 4.41294 3.48466 4.26838 3.59321 4.16261C3.70177 4.05684 3.8479 3.99852 3.99945 4.00049H10.8566C10.9317 3.99952 11.0062 4.01333 11.0759 4.04115C11.1456 4.06896 11.2091 4.11023 11.2629 4.16261C11.3166 4.21498 11.3595 4.27743 11.3892 4.34638C11.4188 4.41534 11.4345 4.48945 11.4355 4.56449C11.4365 4.63954 11.4227 4.71404 11.3948 4.78374C11.367 4.85344 11.3258 4.91698 11.2734 4.97073C11.221 5.02449 11.1586 5.0674 11.0896 5.09701C11.0207 5.12663 10.9465 5.14238 10.8715 5.14336C11.2291 5.55586 11.4266 6.08313 11.4281 6.62908V12.0005C11.4275 12.2196 11.3639 12.4339 11.245 12.6179C11.126 12.8019 10.9567 12.9478 10.7572 13.0383L10.4846 14.1308C10.4709 14.1846 10.4498 14.2348 10.4315 14.2863H13.5675C13.5492 14.2348 13.5281 14.1851 13.5144 14.1314L13.2418 13.0383C13.0423 12.9478 12.873 12.8019 12.754 12.6179C12.6351 12.4339 12.5715 12.2196 12.5709 12.0005V6.62908C12.5724 6.08313 12.7699 5.55586 13.1275 5.14336C12.976 5.14139 12.8314 5.07929 12.7256 4.97073C12.6199 4.86218 12.5615 4.71605 12.5635 4.56449C12.5655 4.41294 12.6276 4.26838 12.7361 4.16261C12.8447 4.05684 12.9908 3.99852 13.1424 4.00049H19.9996C20.0746 3.99952 20.1491 4.01333 20.2188 4.04115C20.2885 4.06896 20.352 4.11023 20.4058 4.16261C20.4596 4.21498 20.5025 4.27743 20.5321 4.34638C20.5617 4.41534 20.5774 4.48945 20.5784 4.56449C20.5794 4.63954 20.5656 4.71404 20.5378 4.78374C20.5099 4.85344 20.4687 4.91698 20.4163 4.97073C20.3639 5.02449 20.3015 5.0674 20.2325 5.09701C20.1636 5.12663 20.0895 5.14238 20.0144 5.14336C20.372 5.55586 20.5696 6.08313 20.571 6.62908V12.0005C20.5704 12.2196 20.5068 12.4339 20.3879 12.6179C20.269 12.8019 20.0997 12.9478 19.9001 13.0383L19.6276 14.1308C19.6138 14.1846 19.5927 14.2348 19.5744 14.2863H21.7139V2.28619H2.28516V14.2863Z" fill="white"/>
<path d="M31.9989 8.57162C31.9989 8.42006 31.9387 8.27472 31.8315 8.16755C31.7244 8.06039 31.579 8.00018 31.4275 8.00018H28.5703V9.71448H31.9989V8.57162Z" fill="white"/>
<path d="M24.0002 28.0002V1.7143C24.0002 1.25964 23.8195 0.823599 23.4981 0.502106C23.1766 0.180613 22.7405 0 22.2859 0H1.7143C1.25964 0 0.823599 0.180613 0.502106 0.502106C0.180613 0.823599 0 1.25964 0 1.7143V28.0002C0 28.4548 0.180613 28.8909 0.502106 29.2124C0.823599 29.5339 1.25964 29.7145 1.7143 29.7145H22.2859C22.7405 29.7145 23.1766 29.5339 23.4981 29.2124C23.8195 28.8909 24.0002 28.4548 24.0002 28.0002ZM2.28573 28.5716C1.98262 28.5716 1.69193 28.4512 1.4776 28.2369C1.26327 28.0226 1.14286 27.7319 1.14286 27.4288V2.28573C1.14286 1.98262 1.26327 1.69193 1.4776 1.4776C1.69193 1.26327 1.98262 1.14286 2.28573 1.14286H21.7144C22.0175 1.14286 22.3082 1.26327 22.5226 1.4776C22.7369 1.69193 22.8573 1.98262 22.8573 2.28573V27.4288C22.8573 27.7319 22.7369 28.0226 22.5226 28.2369C22.3082 28.4512 22.0175 28.5716 21.7144 28.5716H2.28573Z" fill="white"/>
<path d="M31.4269 18.2863C31.5785 18.2863 31.7238 18.2261 31.831 18.119C31.9381 18.0118 31.9983 17.8665 31.9983 17.7149V10.8577H30.8555V17.7149C30.8555 17.8665 30.9157 18.0118 31.0228 18.119C31.13 18.2261 31.2753 18.2863 31.4269 18.2863Z" fill="white"/>
<path d="M21.7132 30.8571H16.5703V31.4285C16.5703 31.5801 16.6305 31.7254 16.7377 31.8326C16.8448 31.9398 16.9902 32 17.1417 32H21.1418C21.2933 32 21.4387 31.9398 21.5458 31.8326C21.653 31.7254 21.7132 31.5801 21.7132 31.4285V30.8571Z" fill="white"/>
<path d="M19.4292 6.62842C19.4294 6.4405 19.3832 6.25543 19.2945 6.08972C19.2059 5.924 19.0776 5.7828 18.9212 5.6787L18.1149 5.1427H15.0291L14.2211 5.68099C14.0653 5.78507 13.9376 5.92599 13.8493 6.09126C13.7609 6.25653 13.7148 6.44104 13.7148 6.62842V11.9999H19.4292V6.62842Z" fill="white"/>
<path d="M8.53203 20.428L8.44403 18.6394C8.43097 18.3907 8.50026 18.1447 8.64118 17.9394L8.59603 17.7142H7.4086L7.36517 17.9314C7.51023 18.1389 7.5787 18.3904 7.55888 18.6428L7.46746 20.424C7.43333 21.0621 7.1628 21.6647 6.70859 22.1143C6.57406 22.246 6.46728 22.4034 6.39456 22.5771C6.32183 22.7509 6.28464 22.9374 6.28516 23.1257V26.8572C6.28516 27.0087 6.34537 27.1541 6.45253 27.2612C6.55969 27.3684 6.70504 27.4286 6.85659 27.4286H9.14232C9.29388 27.4286 9.43922 27.3684 9.54639 27.2612C9.65355 27.1541 9.71376 27.0087 9.71376 26.8572V23.1257C9.71402 22.9375 9.67665 22.7512 9.60383 22.5777C9.53101 22.4042 9.42423 22.247 9.28975 22.1154C8.83634 21.6666 8.56623 21.065 8.53203 20.428Z" fill="white"/>
<path d="M26.2874 0H25.1445V29.7145H26.2874C26.5905 29.7145 26.8812 29.5941 27.0955 29.3797C27.3099 29.1654 27.4303 28.8747 27.4303 28.5716V1.14286C27.4303 0.839758 27.3099 0.549066 27.0955 0.334737C26.8812 0.120409 26.5905 0 26.2874 0Z" fill="white"/>
<path d="M16.532 20.428L16.444 18.6394C16.431 18.3907 16.5003 18.1447 16.6412 17.9394L16.596 17.7142H15.4086L15.3652 17.9314C15.5102 18.1389 15.5787 18.3904 15.5589 18.6428L15.4675 20.424C15.4333 21.0621 15.1628 21.6647 14.7086 22.1143C14.5741 22.246 14.4673 22.4034 14.3946 22.5771C14.3218 22.7509 14.2846 22.9374 14.2852 23.1257V26.8572C14.2852 27.0087 14.3454 27.1541 14.4525 27.2612C14.5597 27.3684 14.705 27.4286 14.8566 27.4286H17.1423C17.2939 27.4286 17.4392 27.3684 17.5464 27.2612C17.6536 27.1541 17.7138 27.0087 17.7138 26.8572V23.1257C17.714 22.9375 17.6766 22.7512 17.6038 22.5777C17.531 22.4042 17.4242 22.247 17.2898 22.1154C16.8363 21.6666 16.5662 21.065 16.532 20.428Z" fill="white"/>
<path d="M6.03726 14.2857H8.82357C8.95113 14.2858 9.07506 14.2432 9.17561 14.1648C9.27616 14.0863 9.34756 13.9764 9.37843 13.8526L9.55614 13.1429H5.30469L5.4824 13.8532C5.51338 13.9768 5.58483 14.0866 5.68537 14.165C5.78591 14.2434 5.90978 14.2859 6.03726 14.2857Z" fill="white"/>
<path d="M10.2846 6.62842C10.2849 6.4405 10.2386 6.25543 10.15 6.08972C10.0614 5.924 9.93309 5.7828 9.77663 5.6787L8.97034 5.1427H5.88461L5.0766 5.68099C4.92078 5.78507 4.79305 5.92599 4.70473 6.09126C4.61642 6.25653 4.57025 6.44104 4.57031 6.62842V11.9999H10.2846V6.62842Z" fill="white"/>
<path d="M2.28516 15.4291V27.4292H5.24803C5.18003 27.2462 5.14426 27.0529 5.14232 26.8577V23.1263C5.14157 22.7866 5.20883 22.4502 5.34014 22.1369C5.47146 21.8237 5.66416 21.5399 5.90689 21.3023C6.15855 21.0516 6.30805 20.7164 6.32633 20.3617L6.41718 18.584C6.27909 18.4212 6.2037 18.2145 6.20461 18.0011C6.2034 17.9325 6.21069 17.8639 6.22633 17.7971L6.33604 17.2491C6.36637 17.0632 6.4607 16.8938 6.60272 16.7702C6.74474 16.6465 6.92551 16.5764 7.11376 16.5719H8.89091C9.08055 16.5769 9.26244 16.6483 9.40487 16.7736C9.5473 16.8989 9.64125 17.0702 9.67035 17.2577L9.78463 17.8205C9.81221 17.9564 9.8081 18.0969 9.77262 18.231C9.73714 18.3651 9.67125 18.4892 9.58006 18.5937L9.67549 20.3651C9.69473 20.7175 9.84373 21.0503 10.0938 21.2994C10.3365 21.5375 10.5291 21.8218 10.6601 22.1356C10.7911 22.4494 10.858 22.7862 10.8566 23.1263V26.8577C10.8548 27.0529 10.819 27.2462 10.7509 27.4292H13.2481C13.18 27.2462 13.1442 27.0529 13.1424 26.8577V23.1263C13.1416 22.7866 13.2089 22.4502 13.3402 22.1369C13.4715 21.8237 13.6642 21.5399 13.9069 21.3023C14.1586 21.0516 14.3081 20.7164 14.3264 20.3617L14.4172 18.584C14.2791 18.4212 14.2037 18.2145 14.2047 18.0011C14.2035 17.9325 14.2107 17.8639 14.2264 17.7971L14.3361 17.2491C14.3664 17.0632 14.4608 16.8938 14.6028 16.7702C14.7448 16.6465 14.9256 16.5764 15.1138 16.5719H16.891C17.0806 16.5769 17.2625 16.6483 17.4049 16.7736C17.5474 16.8989 17.6413 17.0702 17.6704 17.2577L17.7847 17.8205C17.8123 17.9564 17.8082 18.0969 17.7727 18.231C17.7372 18.3651 17.6713 18.4892 17.5801 18.5937L17.6755 20.3651C17.6948 20.7175 17.8438 21.0503 18.0938 21.2994C18.3366 21.5375 18.5291 21.8218 18.6602 22.1356C18.7912 22.4494 18.858 22.7862 18.8567 23.1263V26.8577C18.8548 27.0528 18.8192 27.2462 18.7516 27.4292H21.7139V15.4291H2.28516Z" fill="white"/>
<path d="M15.1779 14.2857H17.9642C18.0918 14.2858 18.2157 14.2432 18.3162 14.1648C18.4168 14.0863 18.4882 13.9764 18.5191 13.8526L18.6968 13.1429H14.4453L14.623 13.8532C14.654 13.9768 14.7254 14.0866 14.826 14.165C14.9265 14.2434 15.0504 14.2859 15.1779 14.2857Z" fill="white"/>
</svg>
