<svg width="45" height="48" viewBox="0 0 45 48" fill="none" xmlns="http://www.w3.org/2000/svg">
<path d="M37.5547 0C33.4531 0 30.1274 3.32563 30.1274 7.42725V11.3626H12.5016V7.42725C12.5016 4.43418 14.9404 1.99538 17.9334 1.99538C20.9265 1.99538 23.3653 4.43418 23.3653 7.42725C23.3653 7.98152 23.8087 8.42494 24.363 8.42494C24.9173 8.42494 25.3607 7.98152 25.3607 7.42725C25.3607 3.32563 22.035 0 17.9334 0C13.8318 0 10.5062 3.32563 10.5062 7.42725V32.6467C10.4507 33.2009 10.9496 33.6998 11.5039 33.6998C12.0581 33.6998 12.5016 33.2564 12.5016 32.7021V30.2079H30.1828V32.7021C30.1828 33.2564 30.6263 33.6998 31.1805 33.6998C31.7348 33.6998 32.1782 33.2564 32.1782 32.7021V7.42725C32.1782 4.43418 34.617 1.99538 37.6101 1.99538C40.6032 1.99538 42.9865 4.43418 42.9865 7.42725C42.9865 7.98152 43.43 8.42494 43.9842 8.42494C44.5385 8.42494 44.9819 7.98152 44.9819 7.42725C44.9819 3.32563 41.6563 0 37.5547 0ZM30.1828 28.1016H12.5016V24.5543H30.1828V28.1016ZM30.1828 22.5589H12.5016V19.0115H30.1828V22.5589ZM30.1828 16.9053H12.5016V13.358H30.1828V16.9053Z" fill="#BF930F"/>
<path d="M42.4878 37.5797C42.2661 37.0808 41.6564 36.8037 41.1575 37.0808C36.1691 39.2425 33.7303 38.1894 31.1252 37.0808C28.4647 35.9723 25.7487 34.8083 20.9266 37.0808C15.9381 39.2425 13.4993 38.1894 10.8942 37.0808C8.23374 35.9723 5.46238 34.8083 0.640206 37.0808C0.141361 37.3025 -0.0803481 37.9122 0.141361 38.4111C0.36307 38.9099 0.97277 39.1316 1.47161 38.9099C5.5178 37.0254 7.62404 37.9122 10.0628 38.9654C11.6702 39.6305 13.3885 40.351 15.661 40.351C17.3238 40.351 19.2638 39.963 21.7026 38.9099C25.7487 37.0254 27.855 37.9122 30.2938 38.9654C31.9012 39.6305 33.6194 40.351 35.8919 40.351C37.5548 40.351 39.4947 39.963 41.9335 38.9099C42.4324 38.6882 42.7095 38.0785 42.4878 37.5797Z" fill="#BF930F"/>
<path d="M42.4324 45.2286C42.2106 44.7298 41.6009 44.4526 41.1021 44.7298C36.1137 46.8914 33.6749 45.8383 31.0698 44.7298C28.4093 43.6212 25.6933 42.4572 20.8712 44.7298C15.8827 46.8914 13.4439 45.8383 10.8388 44.7298C8.17832 43.6212 5.46238 42.4572 0.584786 44.7298C0.0859409 44.9515 -0.135768 45.5612 0.085941 46.06C0.363077 46.5589 0.972777 46.7806 1.47162 46.5589C5.51781 44.6743 7.62405 45.5612 10.0628 46.6143C11.6702 47.2794 13.3885 48 15.661 48C17.3238 48 19.2638 47.612 21.7026 46.5589C25.7488 44.6743 27.855 45.5612 30.2938 46.6143C31.9012 47.2794 33.6194 48 35.8919 48C37.5548 48 39.4947 47.612 41.9335 46.5589C42.4324 46.3372 42.7095 45.7275 42.4324 45.2286Z" fill="#BF930F"/>
</svg>
