<svg width="30" height="27" viewBox="0 0 30 27" fill="none" xmlns="http://www.w3.org/2000/svg">
<path fill-rule="evenodd" clip-rule="evenodd" d="M16.0467 21.4068V22.308L21.2376 23.6989V24.7328L15 23.0614L3.74694 26.0767C3.4805 26.1479 3.20681 25.9896 3.13562 25.7232C3.06444 25.4568 3.22269 25.1831 3.48912 25.1119L13.9532 22.308V21.4068H16.0467ZM22.8209 13.9871H26.223C26.5438 13.9871 26.8062 14.2496 26.8062 14.5704V25.0111C26.8062 25.3318 26.5438 25.5943 26.223 25.5943H22.8209C22.5001 25.5943 22.2376 25.3319 22.2376 25.0111V14.5703C22.2376 14.2496 22.5001 13.9871 22.8209 13.9871ZM24.5219 21.5872C23.9566 21.5872 23.4984 22.0455 23.4984 22.6108C23.4984 23.1761 23.9566 23.6344 24.5219 23.6344C25.0873 23.6344 25.5455 23.1761 25.5455 22.6108C25.5455 22.0455 25.0873 21.5872 24.5219 21.5872ZM25.3674 16.3849C25.6435 16.3849 25.8674 16.161 25.8674 15.8849C25.8674 15.6087 25.6435 15.3849 25.3674 15.3849C25.0912 15.3849 24.8674 15.6087 24.8674 15.8849C24.8674 16.161 25.0912 16.3849 25.3674 16.3849ZM23.6766 16.3849C23.9527 16.3849 24.1766 16.161 24.1766 15.8849C24.1766 15.6087 23.9527 15.3849 23.6766 15.3849C23.4004 15.3849 23.1766 15.6087 23.1766 15.8849C23.1766 16.161 23.4004 16.3849 23.6766 16.3849ZM23.6766 18.1416C23.9527 18.1416 24.1766 17.9177 24.1766 17.6416C24.1766 17.3655 23.9527 17.1416 23.6766 17.1416C23.4004 17.1416 23.1766 17.3655 23.1766 17.6416C23.1766 17.9177 23.4004 18.1416 23.6766 18.1416ZM25.3674 18.1416C25.6435 18.1416 25.8674 17.9177 25.8674 17.6416C25.8674 17.3655 25.6435 17.1416 25.3674 17.1416C25.0912 17.1416 24.8674 17.3655 24.8674 17.6416C24.8674 17.9177 25.0912 18.1416 25.3674 18.1416ZM25.3674 19.8967C25.6435 19.8967 25.8674 19.6729 25.8674 19.3967C25.8674 19.1206 25.6435 18.8967 25.3674 18.8967C25.0912 18.8967 24.8674 19.1206 24.8674 19.3967C24.8674 19.6729 25.0912 19.8967 25.3674 19.8967ZM23.6766 19.8967C23.9527 19.8967 24.1766 19.6729 24.1766 19.3967C24.1766 19.1206 23.9527 18.8967 23.6766 18.8967C23.4004 18.8967 23.1766 19.1206 23.1766 19.3967C23.1766 19.6729 23.4004 19.8967 23.6766 19.8967ZM29.9095 17.9938V18.1081C29.9095 19.3065 28.9799 20.2983 27.8062 20.3983V17.9938H29.9095ZM21.2376 20.4068H2.30675C1.0425 20.4068 0.00806248 19.3724 0.00806248 18.1081V17.9939H21.2376V20.4068ZM2.30625 0C1.03781 0 0 1.03788 0 2.30631V16.9938H21.2376V14.5703C21.2376 13.6995 21.9501 12.9871 22.8209 12.9871H26.223C27.0938 12.9871 27.8062 13.6996 27.8062 14.5703V16.9938H30V2.30631C30 1.03788 28.9622 0 27.6937 0H2.30625Z" fill="white"/>
</svg>
