<svg width="39" height="40" viewBox="0 0 39 40" fill="none" xmlns="http://www.w3.org/2000/svg">
<path d="M37.9324 15.7695C38.2561 15.7695 38.5184 15.5072 38.5184 15.1836V11.4813C38.5184 10.1105 37.4028 8.99531 36.0316 8.99531H32.5746V5.79773C33.155 5.56453 33.5663 4.99703 33.5663 4.3343V3.39414C33.5663 1.52258 32.0438 0 30.1722 0H27.0469C25.1754 0 23.6529 1.52258 23.6529 3.39414V4.3343C23.6529 4.99695 24.0641 5.56453 24.6442 5.79773V8.99531H21.1879C19.8167 8.99531 18.7012 10.1105 18.7012 11.4813V16.7218H14.9387V15.749C14.9387 14.2877 13.7498 13.0988 12.2884 13.0988C10.8272 13.0988 9.63828 14.2877 9.63828 15.749V16.7218H5.05031C3.81047 16.7218 2.8018 17.7305 2.8018 18.9702V26.3542C2.8018 26.6778 3.06406 26.9402 3.38773 26.9402C3.71141 26.9402 3.97367 26.6778 3.97367 26.3542V24.4178C4.29367 24.593 4.66055 24.6929 5.05039 24.6929H5.85039V25.3192C5.29492 25.3708 4.85844 25.8391 4.85844 26.4078V27.0065C4.85844 27.6096 5.34906 28.1002 5.95219 28.1002H8.92664C9.52977 28.1002 10.0204 27.6096 10.0204 27.0065V26.4078C10.0204 25.8391 9.58391 25.3708 9.02844 25.3192V24.6929H15.5484V25.3192C14.993 25.3708 14.5565 25.8391 14.5565 26.4078V27.0065C14.5565 27.6096 15.0471 28.1002 15.6502 28.1002H18.6246C19.2277 28.1002 19.7184 27.6096 19.7184 27.0065V26.4078C19.7184 25.8391 19.282 25.3709 18.7265 25.3192V24.6929H19.527C19.9166 24.6929 20.2834 24.5931 20.6033 24.4179V37.7515C20.6033 38.3452 20.1202 38.828 19.5266 38.828H5.05023C4.45656 38.828 3.97367 38.3451 3.97367 37.7515V29.1027C3.97367 28.7791 3.71141 28.5168 3.38773 28.5168C3.06406 28.5168 2.8018 28.7791 2.8018 29.1027V29.6936H2.24844C1.00867 29.6936 0 30.7023 0 31.942V35.3641C0 36.604 1.00867 37.6126 2.24844 37.6126H2.8018V37.7516C2.8018 38.9914 3.81047 40 5.05023 40H19.5266C20.7665 40 21.7752 38.9913 21.7752 37.7516V37.6126H22.2566V38.3367C22.2566 39.222 22.9768 39.9422 23.8621 39.9422C24.7473 39.9422 25.4676 39.222 25.4676 38.3367V37.2852H31.7516V38.3364C31.7516 39.2218 32.4719 39.942 33.3572 39.942C34.2426 39.942 34.9629 39.2217 34.9629 38.3364V37.2852H36.0317C37.4029 37.2852 38.5184 36.17 38.5184 34.7992V17.9516C38.5184 17.628 38.2562 17.3656 37.9325 17.3656C37.6088 17.3656 37.3466 17.628 37.3466 17.9516V34.7992C37.3466 35.5238 36.7567 36.1133 36.0317 36.1133H24.448C24.5312 35.8788 24.5769 35.6267 24.5769 35.3641V31.942C24.5769 31.2801 24.2891 30.6841 23.8324 30.2723V12.282C23.8324 11.9584 23.5702 11.6961 23.2465 11.6961C22.9228 11.6961 22.6605 11.9584 22.6605 12.282V29.7183C22.5521 29.7022 22.4413 29.6936 22.3284 29.6936H21.7752V18.9702C21.7752 17.8481 20.949 16.9155 19.873 16.7485V11.4813C19.873 10.7567 20.4628 10.1672 21.1878 10.1672H36.0316C36.7566 10.1672 37.3464 10.7566 37.3464 11.4813V15.1836C37.3465 15.5072 37.6088 15.7695 37.9324 15.7695ZM2.24844 36.4407C1.65477 36.4407 1.17188 35.9577 1.17188 35.3641V31.942C1.17188 31.3484 1.65484 30.8655 2.24844 30.8655H2.8018V36.4407H2.24844ZM17.5546 24.1009C17.5546 24.103 17.5543 24.1049 17.5543 24.107C17.5543 24.109 17.5546 24.1109 17.5546 24.113V25.314H16.7203V17.8936H17.5546V24.1009ZM10.8102 15.749C10.8102 14.9338 11.4733 14.2707 12.2884 14.2707C13.1037 14.2707 13.7668 14.9339 13.7668 15.749V16.7218H10.8102V15.749ZM7.85656 25.3141H7.02227V17.8937H7.85656V25.3141ZM5.05039 23.5211C4.45664 23.5211 3.97367 23.0381 3.97367 22.4445V18.9702C3.97367 18.3766 4.45672 17.8937 5.05031 17.8937H5.85039V23.5211H5.05039ZM8.84852 26.9284H6.03031V26.486H8.84852V26.9284ZM9.02844 23.5211V17.8937H15.5484V23.5211H9.02844ZM18.5465 26.9284H15.7284V26.486H18.5465V26.9284ZM24.2957 38.3367C24.2957 38.5758 24.1013 38.7703 23.8621 38.7703C23.623 38.7703 23.4284 38.5758 23.4284 38.3367V37.3241C23.451 37.3113 23.4736 37.2987 23.4957 37.2852H24.2957V38.3367ZM33.7909 38.3364C33.7909 38.5756 33.5963 38.7702 33.3571 38.7702C33.1179 38.7702 32.9234 38.5755 32.9234 38.3364V37.2852H33.7909L33.7909 38.3364ZM22.3284 30.8655C22.9221 30.8655 23.405 31.3484 23.405 31.942V35.3641C23.405 35.9578 22.922 36.4407 22.3284 36.4407H21.7752V30.8655H22.3284ZM20.6033 18.9702V22.4445C20.6033 23.0381 20.1204 23.5211 19.527 23.5211H18.7265V17.8937H19.5268C20.1203 17.8937 20.6033 18.3766 20.6033 18.9702ZM24.8247 3.39414C24.8247 2.16875 25.8216 1.17188 27.0468 1.17188H30.1721C31.3975 1.17188 32.3944 2.16883 32.3944 3.39414V4.3343C32.3944 4.55797 32.2123 4.73992 31.9886 4.73992C31.7649 4.73992 31.5829 4.55797 31.5829 4.3343V3.39414C31.5829 2.61625 30.95 1.98336 30.1721 1.98336H27.0468C26.269 1.98336 25.6362 2.61625 25.6362 3.39414V4.3343C25.6362 4.55797 25.454 4.73992 25.2301 4.73992C25.0066 4.73992 24.8247 4.55797 24.8247 4.3343V3.39414ZM25.8161 5.79781C26.3966 5.56461 26.8081 4.99711 26.8081 4.3343V3.39414C26.8081 3.26242 26.9152 3.15523 27.0469 3.15523H30.1722C30.3039 3.15523 30.4111 3.26242 30.4111 3.39414V4.3343C30.4111 4.99703 30.8224 5.56461 31.4027 5.79773V8.99531H25.8161V5.79781Z" fill="#BF930F"/>
<path d="M26.2363 12.2821V32.8688C26.2363 33.1924 26.4986 33.4548 26.8223 33.4548C27.1459 33.4548 27.4082 33.1924 27.4082 32.8688V12.2821C27.4082 11.9585 27.1459 11.6962 26.8223 11.6962C26.4986 11.6962 26.2363 11.9585 26.2363 12.2821Z" fill="#BF930F"/>
<path d="M29.8115 12.2821V32.8688C29.8115 33.1924 30.0738 33.4548 30.3975 33.4548C30.7211 33.4548 30.9834 33.1924 30.9834 32.8688V12.2821C30.9834 11.9585 30.7211 11.6962 30.3975 11.6962C30.0738 11.6962 29.8115 11.9585 29.8115 12.2821Z" fill="#BF930F"/>
<path d="M33.3867 12.2821V32.8688C33.3867 33.1924 33.649 33.4548 33.9727 33.4548C34.2963 33.4548 34.5586 33.1924 34.5586 32.8688V12.2821C34.5586 11.9585 34.2963 11.6962 33.9727 11.6962C33.649 11.6962 33.3867 11.9585 33.3867 12.2821Z" fill="#BF930F"/>
<path d="M17.1399 36.7205C17.9214 36.7205 18.5572 36.0847 18.5572 35.3033V31.0097C18.5572 30.2283 17.9214 29.5925 17.1399 29.5925H7.43672C6.65531 29.5925 6.01953 30.2283 6.01953 31.0097V35.3033C6.01953 36.0847 6.65531 36.7205 7.43672 36.7205H17.1399ZM7.19141 35.3033V31.0097C7.19141 30.8745 7.30141 30.7644 7.43672 30.7644H17.1399C17.2752 30.7644 17.3853 30.8745 17.3853 31.0097V35.3033C17.3853 35.4385 17.2752 35.5486 17.1399 35.5486H7.43672C7.30141 35.5486 7.19141 35.4385 7.19141 35.3033Z" fill="#BF930F"/>
</svg>
