<svg width="40" height="40" viewBox="0 0 40 40" fill="none" xmlns="http://www.w3.org/2000/svg">
<path d="M36.6663 35V16.0177C36.6663 13.8128 36.6663 12.7104 36.0932 11.8566C35.5202 11.0028 34.5053 10.5933 32.4757 9.77447L22.4757 5.73993C21.253 5.24665 20.6417 5 19.9997 5C19.3577 5 18.7463 5.24665 17.5237 5.73993L7.52374 9.77447C5.49406 10.5933 4.47922 11.0028 3.90612 11.8566C3.33301 12.7104 3.33301 13.8128 3.33301 16.0177V35" stroke="#BF930F" stroke-width="1.5" stroke-linecap="round" stroke-linejoin="round"/>
<path d="M26.6663 31.6666V35M13.333 31.6666V35" stroke="#BF930F" stroke-width="1.5" stroke-linecap="round" stroke-linejoin="round"/>
<path d="M12.5 23.3333L12.9042 21.7165C13.5105 19.2911 13.8137 18.0786 14.7179 17.3726C15.6221 16.6666 16.872 16.6666 19.3718 16.6666H20.6282C23.128 16.6666 24.3778 16.6666 25.2822 17.3726C26.1863 18.0786 26.4895 19.2911 27.0958 21.7165L27.5 23.3333" stroke="#BF930F" stroke-width="1.5" stroke-linecap="round" stroke-linejoin="round"/>
<path d="M28.3333 23.3334H11.6667C10.7462 23.3334 10 24.0795 10 25V30C10 30.9205 10.7462 31.6667 11.6667 31.6667H28.3333C29.2538 31.6667 30 30.9205 30 30V25C30 24.0795 29.2538 23.3334 28.3333 23.3334Z" stroke="#BF930F" stroke-width="1.5" stroke-linecap="round" stroke-linejoin="round"/>
<path d="M14.167 27.4833V27.4999" stroke="#BF930F" stroke-width="1.5" stroke-linecap="round" stroke-linejoin="round"/>
<path d="M25.833 27.4833V27.4999" stroke="#BF930F" stroke-width="1.5" stroke-linecap="round" stroke-linejoin="round"/>
</svg>
