<svg width="36" height="40" viewBox="0 0 36 40" fill="none" xmlns="http://www.w3.org/2000/svg">
<path d="M17.5329 35.2303C-4.42106 33.5675 -3.73123 2.21161 18.234 1.41715C22.5263 1.40718 26.6598 3.03955 29.7871 5.97959C29.8549 6.04329 29.9346 6.093 30.0217 6.12589C30.1087 6.15878 30.2014 6.17421 30.2944 6.17128C30.3874 6.16836 30.4789 6.14715 30.5637 6.10885C30.6485 6.07056 30.725 6.01594 30.7887 5.9481C30.8524 5.88027 30.9021 5.80056 30.935 5.71351C30.9679 5.62646 30.9833 5.53379 30.9804 5.44078C30.9774 5.34778 30.9562 5.25625 30.9179 5.17145C30.8796 5.08664 30.825 5.0102 30.7572 4.9465C27.3674 1.75927 22.8867 -0.010489 18.2338 4.67725e-05C-5.57895 0.865166 -6.31252 34.8485 17.4757 36.646C17.6615 36.6505 17.8416 36.5817 17.9772 36.4545C18.1127 36.3274 18.1929 36.152 18.2004 35.9663C18.2079 35.7806 18.1422 35.5993 18.0173 35.4617C17.8924 35.324 17.7184 35.2409 17.5329 35.2303Z" fill="#BF930F"/>
<path d="M18.2341 4.48529C0.271472 5.13883 -0.31125 30.7373 17.6184 32.1615C17.8018 32.1589 17.9771 32.0852 18.1074 31.9561C18.2376 31.8269 18.3128 31.6522 18.317 31.4688C18.3212 31.2854 18.2541 31.1075 18.1298 30.9726C18.0056 30.8376 17.8339 30.756 17.6507 30.745C14.4575 30.5996 11.4435 29.2276 9.23691 26.9149C7.0303 24.6022 5.80126 21.5271 5.80591 18.3306C5.78182 7.31337 19.3438 1.72868 27.0625 9.58269C27.1958 9.71165 27.3743 9.78325 27.5598 9.78213C27.7452 9.781 27.9229 9.70725 28.0546 9.57667C28.1863 9.4461 28.2616 9.26912 28.2643 9.08367C28.267 8.89823 28.197 8.7191 28.0692 8.5847C26.785 7.28144 25.2537 6.24756 23.5649 5.54363C21.8761 4.83971 20.0637 4.4799 18.2341 4.48529Z" fill="#BF930F"/>
<path d="M35.4736 19.724C35.4669 19.5382 35.3874 19.3624 35.2523 19.2347C35.1172 19.1069 34.9373 19.0374 34.7514 19.041C34.5655 19.0446 34.3885 19.1212 34.2585 19.2541C34.1285 19.3871 34.056 19.5658 34.0565 19.7517L34.3824 36.4119C34.3849 36.6038 34.349 36.7943 34.2769 36.9722C34.2049 37.1501 34.098 37.3118 33.9627 37.4479C33.8273 37.584 33.6662 37.6917 33.4886 37.7648C33.3111 37.8378 33.1209 37.8747 32.9289 37.8733C32.737 37.8719 32.5473 37.8322 32.3708 37.7566C32.1944 37.6809 32.0349 37.5709 31.9015 37.4328C31.7682 37.2947 31.6637 37.1315 31.5943 36.9525C31.5248 36.7736 31.4917 36.5826 31.497 36.3907L32.1204 26.4671C32.3081 24.5661 31.0144 22.7546 30.9718 20.8983C30.6045 16.6302 31.3877 12.3417 33.24 8.47905C33.276 8.41972 33.3299 8.37342 33.394 8.34689C33.4581 8.32036 33.529 8.31499 33.5964 8.33155C33.6637 8.34812 33.7241 8.38576 33.7685 8.43899C33.813 8.49223 33.8394 8.55827 33.8437 8.62751L34.0067 16.9175C34.0136 17.1031 34.0932 17.2786 34.2282 17.4062C34.3633 17.5338 34.5431 17.6033 34.7288 17.5996C34.9146 17.596 35.0915 17.5196 35.2215 17.3868C35.3515 17.254 35.4241 17.0755 35.4238 16.8897L35.2605 8.59565C35.246 8.14229 35.0563 7.7122 34.7313 7.39575C34.4064 7.0793 33.9714 6.90112 33.5178 6.89865C33.1973 6.89542 32.8823 6.98254 32.609 7.15001C32.3357 7.31748 32.115 7.55854 31.9723 7.84558C29.9883 11.9364 29.1544 16.4899 29.5598 21.0183C29.5548 22.8105 30.7822 24.5489 30.7066 26.3754L30.0823 36.3074C30.0508 36.8897 30.1982 37.4678 30.5048 37.9639C30.8113 38.46 31.2624 38.8505 31.7973 39.0828C32.2392 39.2624 32.7186 39.3305 33.1931 39.2811C33.6676 39.2316 34.1227 39.0662 34.5181 38.7994C34.9136 38.5325 35.2373 38.1725 35.4608 37.751C35.6843 37.3295 35.8006 36.8595 35.7995 36.3824L35.4736 19.724Z" fill="#BF930F"/>
<path d="M26.2704 13.2223C26.0825 13.2223 25.9023 13.2969 25.7694 13.4298C25.6365 13.5627 25.5619 13.7429 25.5619 13.9309V20.7359C25.5618 20.8183 25.5383 20.8989 25.494 20.9684L23.6832 23.8144C23.3098 24.4033 23.1413 25.099 23.204 25.7934L24.2212 36.8862C24.2409 37.1014 24.2155 37.3184 24.1466 37.5233C24.0778 37.7282 23.9669 37.9165 23.8212 38.0762C23.6755 38.2358 23.4981 38.3633 23.3003 38.4506C23.1025 38.5379 22.8888 38.5829 22.6726 38.5829C22.4564 38.5829 22.2427 38.5379 22.0449 38.4506C21.8471 38.3633 21.6697 38.2358 21.524 38.0762C21.3783 37.9165 21.2674 37.7282 21.1986 37.5233C21.1297 37.3184 21.1043 37.1014 21.124 36.8862L22.1412 25.7934C22.2037 25.0989 22.0354 24.4032 21.6623 23.8141L19.8512 20.9688C19.8069 20.8991 19.7834 20.8184 19.7833 20.7359V13.9309C19.7833 13.743 19.7087 13.5627 19.5758 13.4298C19.4429 13.297 19.2627 13.2223 19.0748 13.2223C18.8869 13.2223 18.7066 13.297 18.5737 13.4298C18.4409 13.5627 18.3662 13.743 18.3662 13.9309V20.7359C18.3661 21.0879 18.4665 21.4326 18.6555 21.7296L20.4663 24.5745C20.6717 24.8988 20.7644 25.2817 20.7303 25.664L19.7131 36.7567C19.6754 37.1682 19.7239 37.583 19.8554 37.9746C19.987 38.3663 20.1988 38.7262 20.4773 39.0314C20.7558 39.3366 21.0949 39.5803 21.4729 39.7471C21.8509 39.9139 22.2595 40.0001 22.6726 40.0001C23.0858 40 23.4944 39.9139 23.8724 39.7471C24.2504 39.5803 24.5895 39.3365 24.868 39.0313C25.1464 38.7261 25.3582 38.3662 25.4898 37.9745C25.6213 37.5829 25.6698 37.1681 25.6321 36.7566L24.6149 25.664C24.5807 25.2819 24.6735 24.8992 24.8789 24.5752L26.6897 21.7292C26.8787 21.4324 26.9791 21.0878 26.979 20.7359V13.9309C26.979 13.7429 26.9043 13.5627 26.7714 13.4298C26.6386 13.297 26.4583 13.2223 26.2704 13.2223Z" fill="#BF930F"/>
<path d="M22.1427 19.6755V13.9306C22.14 13.7445 22.0641 13.5669 21.9315 13.4363C21.7989 13.3056 21.6203 13.2324 21.4341 13.2324C21.248 13.2324 21.0694 13.3056 20.9368 13.4363C20.8042 13.5669 20.7283 13.7445 20.7256 13.9306V19.6755C20.7283 19.8616 20.8042 20.0391 20.9368 20.1698C21.0694 20.3004 21.248 20.3736 21.4341 20.3736C21.6203 20.3736 21.7989 20.3004 21.9315 20.1698C22.0641 20.0392 22.1399 19.8616 22.1427 19.6755Z" fill="#BF930F"/>
<path d="M24.6173 19.6755V13.9306C24.6146 13.7445 24.5387 13.5669 24.4061 13.4363C24.2735 13.3056 24.0949 13.2324 23.9088 13.2324C23.7226 13.2324 23.544 13.3056 23.4114 13.4363C23.2788 13.5669 23.203 13.7445 23.2002 13.9306V19.6755C23.203 19.8616 23.2788 20.0391 23.4114 20.1698C23.544 20.3004 23.7226 20.3736 23.9087 20.3736C24.0949 20.3736 24.2735 20.3004 24.4061 20.1698C24.5387 20.0392 24.6146 19.8616 24.6173 19.6755Z" fill="#BF930F"/>
</svg>
