<svg width="53" height="48" viewBox="0 0 53 48" fill="none" xmlns="http://www.w3.org/2000/svg">
<path d="M51.4911 39.2727H50.5215C52.9322 36.9267 52.9847 33.0705 50.6387 30.6598C50.2665 30.2773 49.8456 29.9455 49.387 29.6727C51.2306 28.5717 52.3608 26.5836 52.3638 24.4363C52.3595 21.0641 49.6269 18.3315 46.2547 18.3272H38.4002V12.218C38.3999 11.7361 38.0091 11.3454 37.5271 11.3456C37.4828 11.3456 37.4385 11.349 37.3948 11.3558L27.0547 12.9459V12.1308C29.085 11.7133 30.543 9.92723 30.5456 7.85439C30.5456 4.04579 26.9525 0.408247 26.7989 0.255519C26.4581 -0.0851731 25.9057 -0.0851731 25.5649 0.255519C25.4113 0.408247 21.8183 4.04579 21.8183 7.85439C21.8209 9.92723 23.2789 11.7133 25.3092 12.1308V13.2156L14.7038 14.8476C14.2784 14.913 13.9642 15.2786 13.9637 15.709V25.4321C13.3263 24.7446 12.5911 24.1546 11.7819 23.6814C11.5119 23.5255 11.1791 23.5255 10.9091 23.6814C8.33196 25.1789 6.59217 27.7841 6.19639 30.7383C5.59322 30.6145 4.97937 30.55 4.36365 30.5454C3.97845 30.5471 3.5938 30.5721 3.21165 30.6204C2.90205 30.6577 2.63597 30.8574 2.51346 31.1441C0.735058 35.3157 2.12106 40.1628 5.83595 42.7636H0V44.5091H2.07884L3.58256 47.5174C3.73038 47.8132 4.03289 48.0001 4.36365 48H37.5274C38.0094 48 38.4002 47.6092 38.4002 47.1273V44.5091H43.9699L45.4736 47.5174C45.6215 47.8132 45.924 48.0001 46.2547 48H49.7457C50.2276 48 50.6184 47.6092 50.6184 47.1273V44.5091H51.4911C51.9731 44.5091 52.3638 44.1183 52.3638 43.6363V40.1454C52.3638 39.6635 51.9731 39.2727 51.4911 39.2727ZM50.6184 34.909C50.6155 37.3178 48.6635 39.2699 46.2547 39.2727H30.5456C28.1356 39.2727 26.1819 37.319 26.1819 34.909C26.1819 32.4991 28.1356 30.5454 30.5456 30.5454H41.8911C43.3371 30.5454 44.5093 31.7176 44.5093 33.1636C44.5093 34.6096 43.3371 35.7818 41.8911 35.7818H33.1638C32.6818 35.7818 32.291 35.391 32.291 34.909C32.291 34.4271 32.6818 34.0363 33.1638 34.0363H39.2729V32.2908H33.1638C31.7178 32.2908 30.5456 33.463 30.5456 34.909C30.5456 36.355 31.7178 37.5272 33.1638 37.5272H41.8911C44.2998 37.5244 46.2519 35.5723 46.2547 33.1636C46.2516 32.2162 45.9368 31.2963 45.3593 30.5454H46.2547C48.6635 30.5482 50.6155 32.5003 50.6184 34.909ZM43.6365 20.0726C45.0825 20.0726 46.2547 21.2448 46.2547 22.6908C46.2547 24.1368 45.0825 25.309 43.6365 25.309H34.9092C34.4273 25.309 34.0365 24.9182 34.0365 24.4363C34.0365 23.9543 34.4273 23.5635 34.9092 23.5635H41.0183V21.8181H34.9092C33.4632 21.8181 32.291 22.9903 32.291 24.4363C32.291 25.8823 33.4632 27.0545 34.9092 27.0545H43.6365C46.0453 27.0516 47.9974 25.0995 48.0002 22.6908C47.9993 21.7906 47.7174 20.9132 47.1938 20.1808C49.5441 20.7141 51.0171 23.0516 50.4839 25.4018C50.0352 27.3798 48.2828 28.7877 46.2547 28.7999H41.8911H34.0365C31.6266 28.7999 29.6728 26.8462 29.6728 24.4363C29.6728 22.0263 31.6266 20.0726 34.0365 20.0726H43.6365ZM23.5637 7.85439C23.5637 5.62281 25.2437 3.30222 26.1819 2.18164C27.121 3.30135 28.8001 5.61758 28.8001 7.85439C28.7955 8.95992 28.097 9.94348 27.0547 10.312V8.72712H25.3092V10.312C24.2668 9.94348 23.5683 8.95992 23.5637 7.85439ZM11.3455 25.4643C13.2953 26.7766 14.5578 28.8907 14.7884 31.2296C13.4867 31.7494 12.3144 32.5474 11.3534 33.5676C10.3853 32.5514 9.20742 31.7583 7.9017 31.2436C8.12829 28.8993 9.39156 26.7793 11.3455 25.4643ZM15.7233 32.7348C16.5601 32.441 17.4404 32.2908 18.3273 32.2908C18.4644 32.2908 18.6075 32.2961 18.7567 32.3057C20.1946 36.3985 18.0423 40.8818 13.9495 42.3196C13.1128 42.6135 12.2323 42.7636 11.3455 42.7636C11.2085 42.7636 11.0654 42.7584 10.9161 42.7488C9.47829 38.656 11.6306 34.1727 15.7233 32.7348ZM3.49092 34.909C3.48983 34.0223 3.63972 33.142 3.93427 32.3057C4.08351 32.2961 4.22663 32.2908 4.36365 32.2908C6.62359 32.2841 8.77454 33.2611 10.2563 34.9675C8.82516 37.1672 8.37309 39.863 9.00833 42.4093C5.72588 41.3862 3.49027 38.3473 3.49092 34.909ZM17.788 46.2545H4.903L4.03027 44.5091H18.6607L17.788 46.2545ZM26.1819 46.2545H19.7394L20.6122 44.5091H22.691V42.7636H16.8481C20.5671 40.1664 21.9566 35.3178 20.1775 31.1449C20.055 30.8583 19.7889 30.6586 19.4793 30.6213C18.4863 30.4937 17.4789 30.529 16.4972 30.726C16.3611 29.7553 16.0765 28.8114 15.6533 27.9272H15.7092V16.4578L36.6547 13.2356V18.3272H34.0365C30.6669 18.3227 27.9316 21.0507 27.9272 24.4203C27.925 26.0931 28.6096 27.6935 29.8212 28.847C26.4757 29.2417 24.0838 32.2738 24.4785 35.6193C24.6422 37.0074 25.2778 38.2972 26.2788 39.2727H25.3092C24.8272 39.2727 24.4365 39.6635 24.4365 40.1454V43.6363C24.4365 44.1183 24.8272 44.5091 25.3092 44.5091H26.1819V46.2545ZM30.0062 46.2545H27.9274V44.5091H30.879L30.0062 46.2545ZM36.6547 46.2545H31.9577L32.8304 44.5091H36.6547V46.2545ZM48.8729 46.2545H46.7941L45.9213 44.5091H48.8729V46.2545ZM50.6184 42.7636H26.1819V41.0182H50.6184V42.7636Z" fill="#BF930F"/>
<path d="M19.2001 18.3271H17.4546V25.309H19.2001V18.3271Z" fill="#BF930F"/>
<path d="M19.2001 27.0547H17.4546V28.8001H19.2001V27.0547Z" fill="#BF930F"/>
</svg>
