<svg width="53" height="56" viewBox="0 0 53 56" fill="none" xmlns="http://www.w3.org/2000/svg">
<path d="M40.3231 27.9235C40.3423 27.432 40.0358 26.9213 39.4038 26.9149C34.8074 26.9021 29.8472 26.0658 26.4701 22.6824C23.6548 19.8607 22.4994 15.8389 22.0014 11.983C21.6631 9.37204 21.5928 6.72912 21.612 4.09897C21.6184 3.46059 21.1077 3.15416 20.6097 3.1797C20.1182 3.16054 19.6075 3.46059 19.6075 4.09897C19.6522 11.9958 18.9499 22.0695 10.4594 25.4849C7.72072 26.5893 4.74584 26.9021 1.81565 26.9149C1.17726 26.9149 0.877218 27.4256 0.896369 27.9235C0.877218 28.4151 1.18364 28.9258 1.81565 28.9322C6.41203 28.945 11.3723 29.7812 14.7493 33.1647C17.5646 35.9864 18.7201 40.0082 19.2181 43.864C19.5564 46.475 19.6266 49.118 19.6075 51.7481C19.6011 52.3865 20.1118 52.6929 20.6097 52.6674C21.1013 52.6865 21.612 52.3865 21.612 51.7481C21.5673 43.8513 22.2695 33.7775 30.7601 30.3622C33.4987 29.2578 36.4736 28.945 39.4038 28.9322C40.0358 28.9322 40.3423 28.4215 40.3231 27.9235ZM25.2827 31.6453C22.7547 34.0904 21.3694 37.3589 20.6161 40.7423C20.3799 39.7018 20.0926 38.674 19.7224 37.6717C18.1775 33.5094 15.2792 30.2664 11.1361 28.5747C10.4977 28.313 9.84016 28.0959 9.17624 27.9108C11.6787 27.2149 14.0216 26.0531 15.9367 24.1954C18.4648 21.7503 19.8501 18.4818 20.6033 15.0984C20.8396 16.1389 21.1268 17.1667 21.4971 18.169C23.042 22.3313 25.9403 25.5743 30.0834 27.266C30.7218 27.5277 31.3793 27.7448 32.0432 27.9299C29.5408 28.6322 27.1979 29.794 25.2827 31.6453Z" fill="#7D7763"/>
<path d="M51.8654 11.3764C50.3971 11.37 48.8522 11.2168 47.518 10.5529C46.4966 10.0486 45.7177 9.32082 45.156 8.36963C43.892 6.21827 43.8154 3.42213 43.8281 0.926043C43.8345 0.300425 43.3366 -0.00600088 42.8514 0.00038298C42.3662 -0.0123847 41.8683 0.294041 41.8747 0.926043C41.8874 3.42213 41.8108 6.21188 40.5468 8.36963C39.9914 9.32082 39.2062 10.0422 38.1848 10.5529C36.8506 11.2168 35.3057 11.37 33.8374 11.3764C33.2118 11.3764 32.9053 11.8744 32.9117 12.3595C32.9053 12.8447 33.2118 13.3363 33.8374 13.3427C35.3057 13.349 36.8506 13.5023 38.1848 14.1662C39.2062 14.6769 39.985 15.3983 40.5468 16.3495C41.8108 18.5008 41.8874 21.2969 41.8747 23.793C41.8683 24.4187 42.3662 24.7251 42.8514 24.7187C43.3366 24.7315 43.8345 24.425 43.8281 23.793C43.8154 21.2969 43.892 18.5072 45.156 16.3495C45.7114 15.3983 46.4966 14.6769 47.518 14.1662C48.8522 13.5023 50.3971 13.349 51.8654 13.3427C52.491 13.3427 52.7974 12.8447 52.7911 12.3595C52.7974 11.8744 52.491 11.3828 51.8654 11.3764ZM44.7666 13.7704C43.8856 14.613 43.2791 15.6536 42.8578 16.7772C42.0853 14.7918 40.7256 13.2469 38.7976 12.3595C39.5765 12.0148 40.3042 11.5616 40.9426 10.9487C41.8236 10.106 42.4301 9.06547 42.8514 7.94191C43.6238 9.92729 44.9836 11.4722 46.9115 12.3595C46.1327 12.7043 45.4049 13.1575 44.7666 13.7704Z" fill="#7D7763"/>
<path d="M51.8654 42.6577C50.3971 42.6513 48.8522 42.4981 47.518 41.8342C46.4966 41.3298 45.7177 40.6021 45.156 39.6509C43.892 37.4995 43.8154 34.7034 43.8281 32.2073C43.8345 31.5817 43.3366 31.2752 42.8514 31.2816C42.3662 31.2689 41.8683 31.5753 41.8747 32.2073C41.8874 34.7034 41.8108 37.4931 40.5468 39.6509C39.9914 40.6021 39.2062 41.3234 38.1848 41.8342C36.8506 42.4981 35.3057 42.6513 33.8374 42.6577C33.2118 42.6577 32.9053 43.1556 32.9117 43.6408C32.9053 44.126 33.2118 44.6175 33.8374 44.6239C35.3057 44.6303 36.8506 44.7835 38.1848 45.4474C39.2062 45.9581 39.985 46.6795 40.5468 47.6307C41.8108 49.7821 41.8874 52.5782 41.8747 55.0743C41.8683 55.6999 42.3662 56.0063 42.8514 55.9999C43.3366 56.0127 43.8345 55.7063 43.8281 55.0743C43.8154 52.5782 43.892 49.7884 45.156 47.6307C45.7114 46.6795 46.4966 45.9581 47.518 45.4474C48.8522 44.7835 50.3971 44.6303 51.8654 44.6239C52.491 44.6239 52.7974 44.126 52.7911 43.6408C52.7974 43.1556 52.491 42.6641 51.8654 42.6577ZM44.7666 45.0516C43.8856 45.8943 43.2791 46.9349 42.8578 48.0584C42.0853 46.073 40.7256 44.5281 38.7976 43.6408C39.5765 43.2961 40.3042 42.8428 40.9426 42.23C41.8236 41.3873 42.4301 40.3467 42.8514 39.2232C43.6238 41.2085 44.9836 42.7534 46.9115 43.6408C46.1327 43.9855 45.4049 44.4388 44.7666 45.0516Z" fill="#7D7763"/>
</svg>
