<svg width="41" height="24" viewBox="0 0 41 24" fill="none" xmlns="http://www.w3.org/2000/svg">
<path d="M39.0154 7.83264C39.4901 5.79567 41.0004 3.75744 41.0004 3.75744H34.2287C30.4244 1.29763 25.8137 0 20.6979 0C15.3972 0 10.6105 1.31789 6.83154 3.79795H0.490234C0.490234 3.79795 1.97903 5.802 2.4601 7.82504C1.2283 9.52652 0.490234 11.5774 0.490234 13.8321C0.490234 19.4227 5.04651 23.9739 10.6371 23.9739C13.8362 23.9739 16.6695 22.4763 18.5431 20.1696L20.6915 23.4004L22.8741 20.1291C23.8579 21.3955 25.1336 22.4049 26.5923 23.0713C29.0521 24.1853 31.8144 24.3107 34.3464 23.3738C39.5888 21.4293 42.2715 15.5741 40.3472 10.333C40.0157 9.43565 39.5555 8.59128 38.9812 7.82631L39.0154 7.83264ZM33.6602 21.4609C32.6638 21.8342 31.603 22.0049 30.5398 21.9632C29.4766 21.9214 28.4324 21.6681 27.4683 21.2179C26.097 20.582 24.9336 19.5712 24.1122 18.3023C23.7679 17.7959 23.4792 17.2477 23.2615 16.6616C23.0095 15.9944 22.8918 15.3095 22.826 14.6107C22.7006 13.2067 22.8981 11.7888 23.5045 10.4697C23.9506 9.50186 24.5832 8.63155 25.3661 7.90858C26.1491 7.18561 27.0669 6.6242 28.0671 6.25649C32.2689 4.71325 36.929 6.86922 38.4722 11.0558C40.0218 15.2437 37.8658 19.9063 33.6856 21.4559H33.6602V21.4609ZM17.3417 18.3643C16.6005 19.4615 15.6016 20.3602 14.4325 20.9819C13.2635 21.6036 11.9599 21.9294 10.6358 21.9306C6.17323 21.9306 2.53226 18.2909 2.53226 13.8334C2.53226 9.37587 6.17323 5.72984 10.6358 5.72984C15.1009 5.72984 18.733 9.37587 18.733 13.8334C18.733 14.1106 18.6875 14.36 18.6533 14.6436C18.5153 16.0096 18.0798 17.3022 17.3417 18.3897V18.3643ZM5.48454 13.7271C5.48454 16.497 7.73925 18.7391 10.5029 18.7391C13.2665 18.7391 15.5149 16.497 15.5149 13.7271C15.5149 12.3978 14.9869 11.123 14.0469 10.183C13.107 9.24308 11.8322 8.71502 10.5029 8.71502C9.17362 8.71502 7.89879 9.24308 6.95885 10.183C6.01892 11.123 5.49087 12.3978 5.49087 13.7271H5.48454ZM25.8263 13.7271C25.8253 14.718 26.1183 15.6869 26.6682 16.5112C27.2181 17.3356 28.0001 17.9783 28.9154 18.358C29.8306 18.7377 30.838 18.8374 31.8099 18.6444C32.7819 18.4515 33.6747 17.9745 34.3755 17.2739C35.0762 16.5733 35.5534 15.6806 35.7467 14.7087C35.9399 13.7368 35.8405 12.7294 35.461 11.8141C35.0815 10.8987 34.439 10.1165 33.6148 9.56643C32.7906 9.01635 31.8217 8.72314 30.8308 8.72389C29.5034 8.72522 28.2307 9.25249 27.2913 10.1902C26.3519 11.128 25.8224 12.3997 25.8188 13.7271H25.8263ZM7.2202 13.7271C7.22053 12.8587 7.56475 12.0259 8.17757 11.4107C8.79038 10.7955 9.62191 10.448 10.4902 10.4444C12.2841 10.4444 13.7805 11.9218 13.7805 13.7271C13.7805 14.6005 13.4335 15.4382 12.8159 16.0559C12.1982 16.6735 11.3605 17.0205 10.4871 17.0205C9.61359 17.0205 8.77589 16.6735 8.15824 16.0559C7.5406 15.4382 7.19361 14.6005 7.19361 13.7271H7.2202ZM27.5354 13.7271C27.5354 12.8564 27.8813 12.0215 28.4969 11.4058C29.1125 10.7902 29.9475 10.4444 30.8181 10.4444C31.6788 10.4636 32.4977 10.8196 33.0987 11.436C33.6997 12.0523 34.035 12.8799 34.0326 13.7408C34.0301 14.6017 33.69 15.4273 33.0854 16.0402C32.4808 16.6531 31.6599 17.0044 30.7991 17.0186C30.3667 17.0191 29.9385 16.9343 29.5389 16.7691C29.1393 16.6038 28.7763 16.3614 28.4705 16.0556C28.1648 15.7499 27.9223 15.3868 27.7571 14.9873C27.5919 14.5877 27.5071 14.1594 27.5076 13.7271H27.5354ZM20.6903 1.77238C24.3363 1.77238 27.6278 2.42562 30.5155 3.73212C29.4169 3.76042 28.3299 3.96517 27.2962 4.33852C26.0429 4.79368 24.8932 5.49485 23.9149 6.4008C22.9365 7.30675 22.1492 8.39919 21.5992 9.61387C21.0726 10.7279 20.7953 11.9078 20.689 13.1017C20.5026 10.5778 19.3816 8.21427 17.5451 6.47308C15.7087 4.73189 13.2888 3.73829 10.7586 3.68654C13.6463 2.44714 16.9974 1.77364 20.6168 1.77364L20.6903 1.77238Z" fill="white"/>
</svg>
