<svg width="155" height="41" viewBox="0 0 155 41" fill="none" xmlns="http://www.w3.org/2000/svg">
<g clip-path="url(#clip0_147_11013)">
<path fill-rule="evenodd" clip-rule="evenodd" d="M25.5856 36.9648L23.4568 33.9296H24.3334L26.0031 36.3173L27.631 33.9296H28.5076L26.3787 36.9648V39.7167H25.5856V36.9648ZM32.8905 33.8486C33.7253 33.8486 34.3932 34.1184 34.8941 34.658C35.395 35.1976 35.6454 35.9261 35.6454 36.8434C35.6454 37.7337 35.395 38.4622 34.8941 39.0287C34.3932 39.5683 33.7253 39.8381 32.8905 39.8381C32.0556 39.8381 31.3878 39.5683 30.8869 39.0287C30.386 38.4891 30.1355 37.7607 30.1355 36.8434C30.1355 35.9261 30.386 35.1976 30.8869 34.658C31.3878 34.1184 32.0556 33.8486 32.8905 33.8486ZM32.8905 34.4557C32.3061 34.4557 31.833 34.6715 31.4713 35.1032C31.1373 35.5349 30.9704 36.1149 30.9704 36.8434C30.9704 37.5718 31.1373 38.1384 31.4713 38.5431C31.833 38.9748 32.3061 39.1906 32.8905 39.1906C33.4749 39.1906 33.934 38.9748 34.268 38.5431C34.6019 38.1384 34.7689 37.5718 34.7689 36.8434C34.7689 36.1149 34.6019 35.5349 34.268 35.1032C33.934 34.6715 33.4749 34.4557 32.8905 34.4557ZM38.4422 37.5314V33.9296H39.2353V37.4504C39.2353 38.071 39.3605 38.5161 39.6109 38.7859C39.8336 39.0557 40.2092 39.1906 40.738 39.1906C41.2389 39.1906 41.6006 39.0557 41.8232 38.7859C42.0737 38.5161 42.1989 38.071 42.1989 37.4504V33.9296H42.992V37.5314C42.992 38.2868 42.7972 38.8534 42.4076 39.2311C42.0459 39.6358 41.4893 39.8381 40.738 39.8381C39.9866 39.8381 39.4161 39.6358 39.0265 39.2311C38.637 38.8534 38.4422 38.2868 38.4422 37.5314ZM48.9611 37.0053C49.1281 37.0592 49.2951 37.1806 49.462 37.3695C49.629 37.5583 49.796 37.8147 49.9629 38.1384L50.7978 39.7167H49.9212L49.1698 38.2193C48.975 37.8416 48.7802 37.5853 48.5854 37.4504C48.3906 37.3425 48.1402 37.2885 47.8341 37.2885H46.9575V39.7167H46.1227V33.9296H47.9593C48.655 33.9296 49.1698 34.078 49.5038 34.3747C49.8377 34.6445 50.0047 35.0492 50.0047 35.5888C50.0047 35.9665 49.9073 36.2768 49.7125 36.5196C49.5455 36.7624 49.2951 36.9243 48.9611 37.0053ZM47.9593 34.5771H46.9575V36.641H47.9593C48.3489 36.641 48.6411 36.5466 48.8359 36.3577C49.0307 36.1959 49.1281 35.9396 49.1281 35.5888C49.1281 35.2651 49.0307 35.0223 48.8359 34.8604C48.6411 34.6715 48.3489 34.5771 47.9593 34.5771ZM61.2332 34.1319V34.9008C60.9271 34.7659 60.6488 34.658 60.3984 34.5771C60.1201 34.4961 59.8558 34.4557 59.6053 34.4557C59.1601 34.4557 58.8261 34.5366 58.6035 34.6985C58.353 34.8874 58.2278 35.1302 58.2278 35.4269C58.2278 35.6698 58.3113 35.8586 58.4783 35.9935C58.6174 36.1284 58.9096 36.2363 59.3548 36.3173L59.8558 36.3982C60.468 36.5061 60.9132 36.7085 61.1915 37.0053C61.4698 37.2751 61.6089 37.6528 61.6089 38.1384C61.6089 38.678 61.4141 39.0962 61.0245 39.393C60.6349 39.6897 60.0645 39.8381 59.3131 39.8381C59.0348 39.8381 58.7426 39.7977 58.4365 39.7167C58.1026 39.6628 57.7687 39.5818 57.4347 39.4739V38.6645C57.7687 38.8264 58.0887 38.9613 58.3948 39.0692C58.7287 39.1501 59.0348 39.1906 59.3131 39.1906C59.7862 39.1906 60.1479 39.1097 60.3984 38.9478C60.6488 38.7589 60.7741 38.5026 60.7741 38.1789C60.7741 37.8821 60.6767 37.6663 60.4819 37.5314C60.3149 37.3695 60.0227 37.2481 59.6053 37.1671L59.1461 37.0457C58.5339 36.9378 58.0887 36.7624 57.8104 36.5196C57.5599 36.2768 57.4347 35.9261 57.4347 35.4674C57.4347 34.9548 57.6156 34.5636 57.9774 34.2938C58.3391 33.997 58.8539 33.8486 59.5218 33.8486C59.8001 33.8486 60.0784 33.8756 60.3567 33.9296C60.6628 33.9566 60.955 34.024 61.2332 34.1319ZM64.4891 39.7167V33.9296H65.3239V39.0692H68.2041V39.7167H64.4891ZM72.7957 33.8486C73.6306 33.8486 74.2985 34.1184 74.7994 34.658C75.3003 35.1976 75.5507 35.9261 75.5507 36.8434C75.5507 37.7337 75.3003 38.4622 74.7994 39.0287C74.2985 39.5683 73.6306 39.8381 72.7957 39.8381C71.9609 39.8381 71.293 39.5683 70.7921 39.0287C70.2912 38.4891 70.0408 37.7607 70.0408 36.8434C70.0408 35.9261 70.2912 35.1976 70.7921 34.658C71.293 34.1184 71.9609 33.8486 72.7957 33.8486ZM72.7957 34.4557C72.2114 34.4557 71.7522 34.6715 71.4183 35.1032C71.0565 35.5349 70.8756 36.1149 70.8756 36.8434C70.8756 37.5718 71.0565 38.1384 71.4183 38.5431C71.7522 38.9748 72.2114 39.1906 72.7957 39.1906C73.3801 39.1906 73.8393 38.9748 74.1732 38.5431C74.535 38.1384 74.7159 37.5718 74.7159 36.8434C74.7159 36.1149 74.535 35.5349 74.1732 35.1032C73.8393 34.6715 73.3801 34.4557 72.7957 34.4557ZM82.5216 38.9073V37.329H81.1859V36.6815H83.3147V39.1906C83.0086 39.4065 82.6608 39.5683 82.2712 39.6763C81.9094 39.7842 81.5059 39.8381 81.0606 39.8381C80.1423 39.8381 79.4188 39.5683 78.8901 39.0287C78.3613 38.5161 78.097 37.7877 78.097 36.8434C78.097 35.8991 78.3613 35.1571 78.8901 34.6176C79.4188 34.1049 80.1423 33.8486 81.0606 33.8486C81.4502 33.8486 81.8259 33.8891 82.1877 33.97C82.5216 34.078 82.8416 34.2129 83.1477 34.3747V35.2246C82.8416 34.9818 82.5216 34.7929 82.1877 34.658C81.8537 34.5501 81.5059 34.4961 81.1441 34.4961C80.4206 34.4961 79.878 34.685 79.5162 35.0627C79.1544 35.4674 78.9735 36.061 78.9735 36.8434C78.9735 37.6258 79.1544 38.2059 79.5162 38.5836C79.878 38.9883 80.4206 39.1906 81.1441 39.1906C81.4224 39.1906 81.6729 39.1636 81.8955 39.1097C82.1181 39.0557 82.3268 38.9883 82.5216 38.9073ZM85.6523 39.7167L87.9481 33.9296H88.8664L91.1204 39.7167H90.2856L89.743 38.2193H87.0715L86.5288 39.7167H85.6523ZM89.4508 37.5718L88.3655 34.6985L87.2802 37.5718H89.4508ZM93.5832 39.7167V33.9296H94.6685L97.2982 38.7859V33.9296H98.0913V39.7167H97.006L94.3763 34.9008V39.7167H93.5832ZM105.563 39.7167V33.9296H106.356V36.3173H109.278V33.9296H110.071V39.7167H109.278V36.9648H106.356V39.7167H105.563ZM113.327 39.7167V33.9296H117.084V34.6176H114.12V36.3173H116.959V36.9648H114.12V39.0692H117.167V39.7167H113.327ZM122.97 37.0053C123.137 37.0592 123.304 37.1806 123.471 37.3695C123.61 37.5583 123.763 37.8147 123.93 38.1384L124.765 39.7167H123.888L123.137 38.2193C122.942 37.8416 122.747 37.5853 122.552 37.4504C122.385 37.3425 122.135 37.2885 121.801 37.2885H120.924V39.7167H120.131V33.9296H121.926C122.622 33.9296 123.137 34.078 123.471 34.3747C123.804 34.6445 123.971 35.0492 123.971 35.5888C123.971 35.9665 123.888 36.2768 123.721 36.5196C123.526 36.7624 123.276 36.9243 122.97 37.0053ZM121.926 34.5771H120.924V36.641H121.926C122.316 36.641 122.608 36.5466 122.803 36.3577C123.025 36.1959 123.137 35.9396 123.137 35.5888C123.137 35.2651 123.025 35.0223 122.803 34.8604C122.608 34.6715 122.316 34.5771 121.926 34.5771ZM127.436 39.7167V33.9296H131.193V34.6176H128.229V36.3173H131.068V36.9648H128.229V39.0692H131.276V39.7167H127.436Z" fill="#BF930F"/>
<path fill-rule="evenodd" clip-rule="evenodd" d="M16.3609 18.1708H10.0161V0.242817H12.8128V15.8641H16.3609V18.1708ZM28.2991 18.3732C27.3529 18.3732 26.5737 18.1978 25.9615 17.8471C25.3493 17.4964 24.9041 16.9703 24.6258 16.2688C24.3475 15.5403 24.2084 14.6365 24.2084 13.5573V0.202348H27.0468V13.5168C27.0468 14.0025 27.0607 14.4342 27.0886 14.8119C27.1442 15.1896 27.2555 15.4864 27.4225 15.7022C27.6173 15.918 27.9095 16.026 28.2991 16.026C28.6887 16.026 28.9809 15.918 29.1757 15.7022C29.3426 15.5133 29.4539 15.2301 29.5096 14.8523C29.5374 14.4476 29.5513 14.0025 29.5513 13.5168V0.202348H32.3898V13.5573C32.3898 14.6365 32.2506 15.5403 31.9724 16.2688C31.6941 16.9703 31.2488 17.4964 30.6366 17.8471C30.0522 18.1978 29.273 18.3732 28.2991 18.3732ZM43.2427 18.1708H40.4877L43.3679 8.53908L40.5294 0.202348H42.9087L44.7454 5.54434L46.2063 0.202348H48.8361L46.0394 9.38895L49.0865 18.1708H46.6238L44.7454 12.6265L43.2427 18.1708ZM61.3169 18.3732C60.3708 18.3732 59.5916 18.2113 58.9794 17.8876C58.3672 17.5098 57.9219 16.9703 57.6436 16.2688C57.3654 15.5673 57.2262 14.677 57.2262 13.5978V0.242817H60.0647V13.5168C60.0647 14.0295 60.0786 14.4746 60.1064 14.8523C60.1621 15.2301 60.2734 15.5268 60.4403 15.7427C60.6351 15.9585 60.9273 16.0664 61.3169 16.0664C61.7065 16.0664 61.9987 15.9585 62.1935 15.7427C62.3605 15.5268 62.4718 15.2301 62.5274 14.8523C62.5553 14.4746 62.5692 14.0295 62.5692 13.5168V0.242817H65.4076V13.5978C65.4076 14.677 65.2546 15.5673 64.9485 16.2688C64.698 16.9703 64.2667 17.5098 63.6545 17.8876C63.0701 18.2113 62.2909 18.3732 61.3169 18.3732ZM77.3041 18.1708H74.4656V0.242817H79.1407C80.1147 0.242817 80.8382 0.431676 81.3113 0.809392C81.7844 1.16013 82.0905 1.69972 82.2296 2.42818C82.3966 3.12965 82.4801 3.993 82.4801 5.01823C82.4801 6.07044 82.3688 6.89332 82.1461 7.48687C81.9235 8.08043 81.4643 8.48512 80.7687 8.70096C81.1026 8.75492 81.3809 8.87633 81.6035 9.06519C81.8261 9.28103 81.9931 9.5778 82.1044 9.95552C82.2435 10.3332 82.3409 10.8189 82.3966 11.4124C82.4522 12.033 82.4801 12.7749 82.4801 13.6383C82.4801 13.6922 82.4801 13.8811 82.4801 14.2048C82.4801 14.5016 82.4801 14.8658 82.4801 15.2975C82.5079 15.7292 82.5218 16.1609 82.5218 16.5925C82.5218 16.9972 82.5357 17.348 82.5636 17.6447C82.5636 17.9415 82.5775 18.1169 82.6053 18.1708H79.7668C79.7668 18.1439 79.7529 17.982 79.7251 17.6852C79.7251 17.3615 79.7112 16.9568 79.6834 16.4711C79.6834 15.9585 79.6834 15.4324 79.6834 14.8928C79.6834 14.3262 79.6834 13.7597 79.6834 13.1931C79.6834 12.6535 79.6834 12.1679 79.6834 11.7362C79.6834 11.2236 79.6416 10.8324 79.5581 10.5626C79.4747 10.2658 79.3216 10.0634 79.099 9.95552C78.9042 9.8476 78.5981 9.78015 78.1807 9.75317L77.3041 9.7127V18.1708ZM77.3041 2.34724V7.56782H78.4311C78.765 7.56782 79.0294 7.50037 79.2242 7.36547C79.3912 7.20359 79.5025 6.93379 79.5581 6.55608C79.6416 6.15138 79.6834 5.57131 79.6834 4.81588V4.69447C79.6834 4.07394 79.6555 3.5883 79.5999 3.23757C79.5164 2.88683 79.3773 2.6575 79.1825 2.54959C78.9877 2.41469 78.6816 2.34724 78.2641 2.34724H77.3041ZM94.2095 18.1708H91.4128V0.242817H94.2095V18.1708ZM107.4 18.3732C106.426 18.3732 105.647 18.1708 105.062 17.7662C104.45 17.3884 104.005 16.8084 103.727 16.026C103.421 15.2435 103.268 14.2858 103.268 13.1526V4.93729C103.268 3.91206 103.407 3.03522 103.685 2.30677C103.963 1.57832 104.408 1.01174 105.021 0.607044C105.633 0.202348 106.44 0 107.442 0C108.165 0 108.791 0.121409 109.32 0.364227C109.821 0.580065 110.238 0.903822 110.572 1.3355C110.878 1.76717 111.101 2.27979 111.24 2.87334C111.379 3.49387 111.449 4.18186 111.449 4.93729V13.1526C111.449 14.2858 111.31 15.2435 111.032 16.026C110.753 16.8084 110.322 17.3884 109.738 17.7662C109.125 18.1708 108.346 18.3732 107.4 18.3732ZM107.4 16.026C107.762 16.026 108.026 15.918 108.193 15.7022C108.36 15.4864 108.471 15.1761 108.527 14.7714C108.583 14.3397 108.611 13.8136 108.611 13.1931V4.81588C108.611 4.03347 108.541 3.43992 108.402 3.03522C108.263 2.60354 107.943 2.38771 107.442 2.38771C106.913 2.38771 106.565 2.59005 106.398 2.99475C106.203 3.39945 106.106 4.00649 106.106 4.81588V13.1931C106.106 13.8406 106.134 14.3802 106.189 14.8119C106.273 15.2166 106.398 15.5133 106.565 15.7022C106.76 15.918 107.038 16.026 107.4 16.026ZM124.431 18.3732C123.457 18.3732 122.678 18.1978 122.093 17.8471C121.481 17.4964 121.036 16.9703 120.757 16.2688C120.479 15.5403 120.34 14.6365 120.34 13.5573V0.242817H123.137V13.5168C123.137 14.0295 123.165 14.4746 123.22 14.8523C123.276 15.2301 123.387 15.5268 123.554 15.7427C123.721 15.9315 124.013 16.026 124.431 16.026C124.82 16.026 125.099 15.9315 125.266 15.7427C125.46 15.5268 125.572 15.2301 125.599 14.8523C125.655 14.4746 125.683 14.0295 125.683 13.5168V0.242817H128.48V13.5573C128.48 14.6365 128.341 15.5403 128.062 16.2688C127.784 16.9703 127.353 17.4964 126.768 17.8471C126.156 18.1978 125.377 18.3732 124.431 18.3732ZM140.96 18.3732C140.181 18.3732 139.527 18.2518 138.999 18.009C138.498 17.7931 138.094 17.4559 137.788 16.9972C137.51 16.5386 137.301 15.9855 137.162 15.338C137.051 14.6905 136.995 13.9485 136.995 13.1121V11.5338H139.625V13.3145C139.625 14.2858 139.722 14.9872 139.917 15.4189C140.084 15.8236 140.404 16.026 140.877 16.026C141.239 16.026 141.503 15.9585 141.67 15.8236C141.837 15.6617 141.948 15.4189 142.004 15.0952C142.06 14.7444 142.088 14.2993 142.088 13.7597C142.088 13.0852 141.948 12.4646 141.67 11.8981C141.364 11.3585 140.919 10.7919 140.334 10.1983L138.957 8.82237C138.595 8.44466 138.261 8.03996 137.955 7.60828C137.649 7.17661 137.399 6.70446 137.204 6.19185C137.037 5.65225 136.953 5.0587 136.953 4.41119C136.953 3.4669 137.078 2.67099 137.329 2.02348C137.552 1.34899 137.955 0.849863 138.539 0.526106C139.096 0.175369 139.861 0 140.835 0C141.587 0 142.199 0.121409 142.672 0.364227C143.173 0.580065 143.548 0.903822 143.799 1.3355C144.077 1.74019 144.272 2.25281 144.383 2.87334C144.495 3.46689 144.55 4.15488 144.55 4.93729V6.07044H141.962V4.77541C141.962 4.23582 141.934 3.79065 141.879 3.43992C141.823 3.0622 141.712 2.7924 141.545 2.63052C141.378 2.44167 141.141 2.34724 140.835 2.34724C140.529 2.34724 140.293 2.41469 140.126 2.54959C139.931 2.6575 139.792 2.84636 139.708 3.11616C139.625 3.38596 139.583 3.7232 139.583 4.1279C139.583 4.50562 139.639 4.82937 139.75 5.09917C139.861 5.36897 140.014 5.62527 140.209 5.86809C140.404 6.13789 140.654 6.42118 140.96 6.71795L142.463 8.33674C143.215 9.09217 143.785 9.87458 144.175 10.684C144.592 11.5203 144.801 12.4377 144.801 13.4359C144.801 14.5151 144.676 15.4189 144.425 16.1474C144.202 16.8758 143.813 17.4289 143.256 17.8066C142.672 18.1843 141.907 18.3732 140.96 18.3732Z" fill="#BF930F"/>
<path d="M15.5263 30.3682C12.4791 30.3682 9.97461 32.7559 9.97461 35.7102C9.97461 38.0979 11.9782 40 14.3992 40C16.3611 40 17.9473 38.4621 17.9473 36.5601C17.9473 35.0627 16.695 33.8486 15.1088 33.8486C13.8566 33.8486 12.8548 34.8199 12.8548 36.034" stroke="#BF930F" stroke-miterlimit="10" stroke-linecap="round"/>
<path d="M138.164 30.3682C141.211 30.3682 143.674 32.7559 143.674 35.7102C143.674 38.0979 141.712 40 139.291 40C137.329 40 135.743 38.4621 135.743 36.5601C135.743 35.0627 136.995 33.8486 138.581 33.8486C139.834 33.8486 140.835 34.8199 140.835 36.034" stroke="#BF930F" stroke-miterlimit="10" stroke-linecap="round"/>
<path d="M1 29.4619C2.08529 30.3522 154.485 29.4619 154.485 29.4619H1Z" fill="#BF930F"/>
<path d="M1 29.4619C2.08529 30.3522 154.485 29.4619 154.485 29.4619" stroke="#BF930F" stroke-miterlimit="10" stroke-linecap="round"/>
</g>
<defs>
<clipPath id="clip0_147_11013">
<rect width="155" height="41" fill="white"/>
</clipPath>
</defs>
</svg>
