<svg width="236" height="41" viewBox="0 0 236 41" fill="none" xmlns="http://www.w3.org/2000/svg">
<g clip-path="url(#clip0_147_11038)">
<path fill-rule="evenodd" clip-rule="evenodd" d="M53.2079 19.6611C53.3625 20.1248 53.6331 20.5886 54.0195 21.0524C54.406 21.4775 54.9664 21.864 55.7007 22.2118C56.435 22.521 57.4205 22.6755 58.6572 22.6755C60.2031 22.6755 61.4398 22.3857 62.3674 21.806C63.2949 21.2263 63.7587 20.2987 63.7587 19.0234C63.7587 18.0185 63.4688 17.2069 62.8891 16.5886C62.3094 15.9702 61.5558 15.4678 60.6282 15.0813C59.778 14.6562 58.8311 14.2698 57.7877 13.9219C56.7442 13.5741 55.778 13.1683 54.8891 12.7045C54.0002 12.2408 53.2659 11.6611 52.6862 10.9654C52.1065 10.2697 51.8166 9.34222 51.8166 8.1828C51.8166 7.29391 51.9906 6.52097 52.3384 5.86396C52.7249 5.16831 53.2079 4.60792 53.7877 4.1828C54.406 3.71903 55.121 3.37121 55.9326 3.13932C56.7442 2.90744 57.6137 2.7915 58.5413 2.7915C59.3915 2.7915 60.2031 2.88812 60.9761 3.08135C61.7877 3.27459 62.5026 3.58377 63.121 4.00889C63.7394 4.39536 64.2418 4.87845 64.6282 5.45816C65.0534 6.03787 65.3239 6.69488 65.4398 7.42918H63.4688C63.3142 6.26976 62.7925 5.41952 61.9036 4.87845C61.0147 4.33739 59.9326 4.06686 58.6572 4.06686C57.8843 4.06686 57.208 4.16348 56.6282 4.35672C56.0485 4.54995 55.5461 4.80116 55.121 5.11034C54.7345 5.38087 54.4447 5.7287 54.2514 6.15382C54.0582 6.54029 53.9616 6.98473 53.9616 7.48715C53.9616 8.29874 54.2514 8.95575 54.8311 9.45817C55.4495 9.96058 56.2031 10.4243 57.092 10.8495C58.0195 11.2359 59.0051 11.6031 60.0485 11.9509C61.1307 12.2987 62.1162 12.7239 63.0051 13.2263C63.9326 13.7673 64.7055 14.4243 65.3239 15.1973C65.9036 15.9316 66.1935 16.9171 66.1935 18.1538C66.1935 19.0041 66.0195 19.7963 65.6717 20.5306C65.3239 21.2649 64.8215 21.8833 64.1645 22.3857C63.5461 22.8881 62.7732 23.2746 61.8456 23.5451C60.9567 23.8156 59.9519 23.9509 58.8311 23.9509C57.7104 23.9509 56.6862 23.8156 55.7587 23.5451C54.7925 23.2746 53.9616 22.9074 53.2659 22.4437C52.6089 21.9799 52.0679 21.4002 51.6427 20.7045C51.2563 20.0089 51.0437 19.2553 51.0051 18.4437H52.9761C53.0147 18.7528 53.092 19.1586 53.2079 19.6611ZM70.4253 23.6031H69.092L77.7297 3.13932H79.179L88.7442 23.6031H85.9036L83.063 17.5741H72.9761L70.4253 23.6031ZM77.7877 6.3857L73.5558 16.2408H82.4833L77.9036 6.3857H77.7877ZM110.947 23.9509H110.831L94.5993 7.95092H94.4833V23.6031H93.15V2.7915H93.2659L109.498 18.7915H109.614V3.13932H110.947V23.9509ZM135.005 21.6321C134.503 22.0185 133.884 22.3857 133.15 22.7335C132.416 23.0813 131.565 23.3712 130.599 23.6031C129.594 23.835 128.474 23.9509 127.237 23.9509C125.266 23.9509 123.565 23.6417 122.135 23.0234C120.706 22.405 119.546 21.5934 118.657 20.5886C117.73 19.5838 117.034 18.4437 116.57 17.1683C116.145 15.8543 115.933 14.521 115.933 13.1683C115.933 11.5838 116.203 10.1538 116.744 8.87846C117.324 7.6031 118.097 6.52097 119.063 5.63208C120.068 4.70454 121.266 3.98957 122.657 3.48715C124.049 3.02338 125.594 2.7915 127.295 2.7915C128.454 2.7915 129.498 2.90744 130.425 3.13932C131.353 3.37121 132.145 3.68039 132.802 4.06686C133.498 4.49198 134.078 4.9944 134.541 5.57411C135.005 6.11517 135.372 6.7142 135.643 7.37121H133.498C133.343 6.98473 133.092 6.59826 132.744 6.21179C132.435 5.78667 132.01 5.41952 131.469 5.11034C130.928 4.80116 130.309 4.54995 129.614 4.35672C128.918 4.16348 128.164 4.06686 127.353 4.06686C126.116 4.06686 124.957 4.27942 123.875 4.70454C122.87 5.16831 121.981 5.80599 121.208 6.61758C120.435 7.39053 119.836 8.3374 119.411 9.45817C119.024 10.5403 118.831 11.7577 118.831 13.1103C118.831 14.347 119.024 15.5451 119.411 16.7045C119.797 17.864 120.396 18.8688 121.208 19.719C121.981 20.6079 122.947 21.3229 124.107 21.864C125.266 22.3664 126.619 22.6176 128.164 22.6176C130.87 22.6176 133.227 21.69 135.237 19.835L136.107 20.5886C135.836 20.8978 135.469 21.2456 135.005 21.6321ZM145.092 4.70454H137.266V3.13932H155.585V4.70454H147.759V23.6031H145.092V4.70454ZM161.208 16.4726C161.208 16.8591 161.208 17.2456 161.208 17.6321C161.247 18.0185 161.324 18.405 161.44 18.7915C161.556 19.178 161.73 19.5644 161.962 19.9509C162.193 20.3374 162.541 20.7239 163.005 21.1103C163.546 21.6127 164.126 21.9992 164.744 22.2697C165.401 22.5016 166.135 22.6176 166.947 22.6176C167.913 22.6176 168.841 22.4823 169.73 22.2118C170.58 21.9413 171.353 21.4195 172.049 20.6466C172.435 20.2214 172.744 19.7963 172.976 19.3712C173.169 18.9461 173.324 18.521 173.44 18.0958C173.517 17.6321 173.575 17.1876 173.614 16.7625C173.614 16.3374 173.614 15.9123 173.614 15.4871V3.08135H174.889V16.4147C174.889 17.4582 174.735 18.4437 174.425 19.3712C174.078 20.2601 173.575 21.033 172.918 21.69C172.261 22.3857 171.45 22.9268 170.483 23.3132C169.517 23.6997 168.416 23.8929 167.179 23.8929C165.208 23.8929 163.643 23.6224 162.483 23.0813C161.324 22.5403 160.454 21.8446 159.875 20.9944C159.295 20.1828 158.928 19.2939 158.773 18.3277C158.619 17.3615 158.541 16.4726 158.541 15.6611V3.08135H161.208V16.4726ZM179.469 23.6031H178.135L186.773 3.13932H188.222L197.788 23.6031H194.947L192.107 17.5741H182.02L179.469 23.6031ZM186.831 6.3857L182.599 16.2408H191.527L186.947 6.3857H186.831ZM212.049 3.66106C212.937 4.00889 213.614 4.45333 214.078 4.9944C214.58 5.53546 214.928 6.11517 215.121 6.73352C215.353 7.35188 215.469 7.93159 215.469 8.47265C215.469 9.05236 215.372 9.6514 215.179 10.2697C214.986 10.8881 214.677 11.4485 214.251 11.9509C213.826 12.492 213.266 12.9364 212.57 13.2842C211.913 13.6321 211.121 13.8446 210.193 13.9219V14.0379L210.483 14.1538C210.715 14.2697 210.908 14.4243 211.063 14.6176C211.218 14.7722 211.43 15.062 211.701 15.4871C211.971 15.8736 212.338 16.4147 212.802 17.1103C213.227 17.806 213.846 18.7528 214.657 19.9509C214.928 20.376 215.198 20.7432 215.469 21.0524C215.739 21.3615 216.01 21.6514 216.28 21.9219C216.551 22.1152 216.841 22.2697 217.15 22.3857C217.459 22.5016 217.807 22.5596 218.193 22.5596C218.309 22.5596 218.406 22.5596 218.483 22.5596C218.599 22.5596 218.715 22.5403 218.831 22.5016V23.6031C218.522 23.7577 218.232 23.8543 217.962 23.8929C217.691 23.9316 217.343 23.9509 216.918 23.9509C216.338 23.9509 215.836 23.8736 215.411 23.719C214.986 23.5644 214.619 23.3519 214.309 23.0813C213.962 22.8108 213.652 22.5016 213.382 22.1538C213.111 21.7673 212.821 21.3422 212.512 20.8784L210.193 17.4582C209.846 16.9171 209.556 16.4727 209.324 16.1248C209.053 15.7384 208.764 15.4292 208.454 15.1973C208.184 14.9654 207.855 14.7915 207.469 14.6755C207.121 14.5983 206.677 14.5596 206.135 14.5596H204.86V23.6031H202.193V3.13932H208.802C210.116 3.13932 211.198 3.31324 212.049 3.66106ZM207.875 13.2263C208.648 13.2263 209.324 13.091 209.904 12.8205C210.522 12.5499 211.024 12.2021 211.411 11.777C211.836 11.3132 212.145 10.8301 212.338 10.3277C212.57 9.78667 212.686 9.24561 212.686 8.70454C212.686 8.08619 212.57 7.50648 212.338 6.96541C212.107 6.463 211.778 6.01855 211.353 5.63208C210.928 5.2456 210.406 4.93643 209.788 4.70454C209.208 4.51131 208.551 4.41469 207.817 4.41469H204.86V13.2263H207.875ZM227.179 13.9219H227.295L233.556 3.13932H235.179L227.933 15.6031V23.6031H225.324V15.835L218.193 3.13932H221.208L227.179 13.9219Z" fill="#BF930F"/>
<path fill-rule="evenodd" clip-rule="evenodd" d="M53.8457 37.9221V39.8351H53.266V37.9221L51.0051 34.2699H51.6428L53.5558 37.4003L55.4689 34.2699H56.0486L53.8457 37.9221ZM56.9181 37.0525C56.9181 35.4293 58.1355 34.2119 59.8167 34.2119C61.4979 34.2119 62.7732 35.4293 62.7732 37.0525C62.7732 38.6757 61.4979 39.8931 59.8167 39.8931C58.1355 39.8931 56.9181 38.6757 56.9181 37.0525ZM62.1935 37.0525C62.1935 35.7192 61.15 34.7337 59.8167 34.7337C58.4834 34.7337 57.4979 35.7192 57.4979 37.0525C57.4979 38.3858 58.4834 39.3714 59.8167 39.3714C61.15 39.3714 62.1935 38.3858 62.1935 37.0525ZM64.6863 37.4583V34.2699H65.266V37.4003C65.266 38.7337 65.9037 39.3714 66.9471 39.3714C68.0486 39.3714 68.6863 38.7337 68.6863 37.4003V34.2699H69.266V37.4583C69.266 39.0815 68.3964 39.8931 66.9471 39.8931C65.5558 39.8931 64.6863 39.0815 64.6863 37.4583ZM75.4689 39.8351L74.1935 38.038C74.0776 38.038 73.9423 38.038 73.7877 38.038H72.2805V39.8351H71.7008V34.2699H73.7877C75.179 34.2699 76.0486 34.9656 76.0486 36.1829C76.0486 37.0525 75.5848 37.6322 74.7732 37.9221L76.1066 39.8351H75.4689ZM75.4689 36.1829C75.4689 35.2554 74.8892 34.7916 73.7297 34.7916H72.2805V37.5743H73.7297C74.8892 37.5743 75.4689 37.0525 75.4689 36.1829ZM81.9037 34.7916H79.9326V34.2699H84.4544V34.7916H82.4834V39.8351H81.9037V34.7916ZM89.266 38.3858H86.1355L85.4399 39.8351H84.8602L87.4109 34.2699H87.9906L90.5413 39.8351H89.9037L89.266 38.3858ZM89.0921 37.9221L87.7008 34.9656L86.3674 37.9221H89.0921ZM96.0486 37.1105H96.5703V39.2554C96.0486 39.7192 95.295 39.9511 94.5413 39.9511C92.8602 39.9511 91.5848 38.7337 91.5848 37.1105C91.5848 35.4873 92.8602 34.2699 94.5413 34.2699C95.4109 34.2699 96.1066 34.5598 96.6283 35.0815L96.2805 35.4293C95.8167 34.9656 95.237 34.7916 94.5993 34.7916C93.208 34.7916 92.1645 35.7772 92.1645 37.1105C92.1645 38.4438 93.208 39.4293 94.5993 39.4293C95.121 39.4293 95.5848 39.3134 96.0486 39.0235V37.1105ZM98.8892 34.2699H99.4689V39.3714H102.599V39.8931H98.8892V34.2699ZM104.222 34.2699H104.802V39.8351H104.222V34.2699ZM111.933 34.2699V39.8351H111.469L107.875 35.3134V39.8351H107.295V34.2699H107.759L111.353 38.7916V34.2699H111.933ZM118.367 39.3134V39.8351H114.367V34.2699H118.194V34.7916H115.005V36.7627H117.846V37.2844H115.005V39.3134H118.367ZM127.759 34.2699V39.8351H127.179V37.2844H123.701V39.8351H123.121V34.2699H123.701V36.7627H127.179V34.2699H127.759ZM134.136 39.3134V39.8351H130.194V34.2699H134.02V34.7916H130.831V36.7627H133.672V37.2844H130.831V39.3134H134.136ZM139.933 39.8351L138.657 38.038C138.541 38.0767 138.406 38.096 138.251 38.096H136.744V39.8351H136.107V34.2699H138.251C139.643 34.2699 140.512 34.9656 140.512 36.1829C140.512 37.0525 140.049 37.6902 139.237 37.9221L140.57 39.8351H139.933ZM139.933 36.1829C139.933 35.3134 139.353 34.7916 138.194 34.7916H136.744V37.5743H138.194C139.353 37.5743 139.933 37.0525 139.933 36.1829ZM146.483 39.3134V39.8351H142.541V34.2699H146.367V34.7916H143.121V36.7627H146.02V37.2844H143.121V39.3134H146.483Z" fill="#BF930F"/>
<path d="M33.5226 8.53831L21.2601 1.53266C19.3998 0.478045 17.1219 0.478045 15.2617 1.53266L2.99919 8.53831C1.13893 9.63059 0 11.5892 0 13.6984V27.7474C0 29.8943 1.13893 31.8528 2.99919 32.9074L10.3643 37.1259C10.4402 36.5986 10.5541 36.0336 10.668 35.4686C10.6933 35.2929 10.7313 35.1171 10.7819 34.9413C10.7819 34.9162 10.7819 34.9037 10.7819 34.9037C11.1615 32.9828 11.8069 31.1372 12.4144 29.2916C12.5156 29.0154 12.6168 28.7267 12.7181 28.4253C12.7181 28.4253 12.7181 28.4128 12.7181 28.3877C13.2496 26.9941 13.857 25.5628 14.5783 24.2822C14.8061 23.8804 15.0339 23.4912 15.2617 23.1146C15.5148 22.7631 15.7679 22.399 16.021 22.0223C16.0716 21.947 16.1222 21.8717 16.1728 21.7963C15.9071 21.834 15.6793 21.7963 15.4895 21.6833C15.4895 21.6582 15.4768 21.6457 15.4515 21.6457C15.4009 21.6206 15.3629 21.5829 15.3376 21.5327C15.3123 21.5327 15.287 21.5201 15.2617 21.495C15.2364 21.4699 15.2111 21.4322 15.1858 21.382C15.1604 21.3569 15.1351 21.3318 15.1098 21.3067C15.0845 21.2565 15.0592 21.2063 15.0339 21.156C15.0339 21.1309 15.0339 21.1058 15.0339 21.0807C14.9833 21.0054 14.958 20.93 14.958 20.8547C14.958 20.8296 14.958 20.8045 14.958 20.7794C14.7555 20.7292 14.5783 20.6915 14.4265 20.6664C14.2746 20.6287 14.1987 20.4781 14.1987 20.3651C14.2746 20.0638 14.1607 19.7248 14.0468 19.4611C14.1227 19.6494 14.0089 19.9508 14.0089 20.1391C14.0089 20.2521 13.9329 20.2897 13.819 20.3274C13.6292 20.3274 13.4394 20.2521 13.2496 20.2144C12.9079 20.1014 12.5662 20.2144 12.2245 20.1391C11.769 20.0261 11.6551 19.4611 11.3514 19.1221C11.4273 19.3481 11.5032 19.6118 11.5412 19.8754C11.5412 19.9884 11.5032 20.0638 11.4273 20.1014C11.1236 20.1767 10.8198 20.1014 10.4782 20.1767C10.2124 20.2144 9.94667 20.3274 9.64295 20.2897C9.33924 20.2521 9.14941 19.9508 8.92163 19.6494C8.99756 19.9884 8.95959 20.2521 8.39013 20.1767C7.59288 20.1391 6.79563 20.1767 6.03634 20.3651C5.42891 20.5534 4.8974 20.8547 4.28997 21.0054C4.26466 21.0054 4.25201 21.0054 4.25201 21.0054C4.17608 21.156 3.87237 21.043 3.87237 20.8547C3.75847 19.2728 4.74555 17.9545 6.03634 17.0506C6.13758 16.9752 6.25147 16.8999 6.37802 16.8246C6.40332 16.8246 6.44129 16.812 6.49191 16.7869C6.56784 16.7367 6.65642 16.6865 6.75766 16.6363C6.78297 16.6363 6.80828 16.6237 6.83359 16.5986C7.11199 16.4982 7.40305 16.4103 7.70677 16.3349C8.92163 16.0713 10.2883 16.1089 11.3893 16.2596C13.1357 16.4856 15.2617 17.4649 16.4006 19.0091C16.4512 19.0845 16.5019 19.1598 16.5525 19.2351C16.6031 19.3105 16.6537 19.3983 16.7043 19.4988C16.6284 18.7078 16.3626 17.9169 16.0589 17.2012C16.0336 17.1761 16.0083 17.151 15.983 17.1259C15.8691 16.9376 15.4895 16.6363 15.6034 16.4479C15.6413 16.2973 15.7552 16.1843 15.8312 16.1466C15.7552 16.1215 15.6793 16.0964 15.6034 16.0713C15.2617 15.8453 15.0719 15.318 14.6922 15.205C14.5783 15.1673 14.4644 15.092 14.4644 14.979C14.4265 14.7907 14.4644 14.6777 14.5783 14.4894C14.6922 14.3764 14.8061 14.2634 14.92 14.1504C14.6163 14.1253 14.3379 14.2006 14.0848 14.3764C13.9835 14.4266 13.8697 14.4517 13.7431 14.4517C13.5153 14.527 13.2875 14.2634 13.1357 14.1504C12.794 13.8867 12.4523 13.8491 12.1106 13.6231C12.0347 13.5854 11.9967 13.4724 11.9967 13.3971C12.0347 13.0958 12.2625 12.9451 12.4903 12.7944C12.0347 13.1334 11.3134 13.2088 10.8578 12.8698C10.4782 12.6061 9.83278 12.2671 9.64295 11.8528C9.52906 11.6268 9.60499 11.4762 9.71888 11.3255C9.3772 11.4385 8.95959 11.6268 8.65588 11.4762C8.42809 11.3632 7.63084 10.8359 7.74474 10.4969C7.79535 10.4216 7.84597 10.3337 7.89659 10.2332C7.89659 10.2081 7.90925 10.183 7.93456 10.1579C7.95987 10.1077 7.99783 10.0575 8.04845 10.0073C8.07376 9.98212 8.09907 9.95701 8.12438 9.9319C8.175 9.90679 8.21296 9.86913 8.23827 9.81891C8.26358 9.7938 8.30154 9.76869 8.35216 9.74358C8.40278 9.71847 8.4534 9.68081 8.50402 9.63059C8.52933 9.63059 8.55464 9.61803 8.57995 9.59292C8.65588 9.5427 8.73181 9.50504 8.80774 9.47993C8.83305 9.47993 8.87101 9.46737 8.92163 9.44226C8.97225 9.41715 9.03552 9.39204 9.11145 9.36693C9.13676 9.36693 9.17472 9.36693 9.22534 9.36693C9.25065 9.34182 9.28862 9.32927 9.33924 9.32927C10.3643 9.10328 11.6171 9.25394 12.3764 9.44226C15.2617 10.1579 17.3118 12.8698 17.8053 15.77C17.8053 15.7951 17.8179 15.8202 17.8433 15.8453C17.8433 15.8955 17.8433 15.9457 17.8433 15.996C17.8686 16.0462 17.8812 16.0838 17.8812 16.1089C18.109 15.4561 18.3874 14.8158 18.7164 14.188C19.21 12.9451 19.8174 11.7398 20.7665 10.7229C20.9184 10.5722 21.0576 10.4341 21.1841 10.3086C21.2347 10.2584 21.2854 10.2081 21.336 10.1579C21.4372 10.0575 21.5385 9.96957 21.6397 9.89424C21.6397 9.86913 21.6524 9.85657 21.6777 9.85657C21.6777 9.85657 21.665 9.85657 21.6397 9.85657C22.5129 9.10328 23.462 8.50064 24.6768 8.34998C25.3222 8.23699 26.0815 8.16166 26.7649 8.31232C27.4482 8.46298 27.8279 8.83963 28.3594 9.17861C28.4606 9.25394 28.5619 9.32927 28.6631 9.4046C28.815 9.47993 28.777 9.63059 28.6631 9.63059C28.6631 9.63059 28.6631 9.64314 28.6631 9.66825C28.2455 9.74358 27.8659 9.96957 27.5242 10.2332C27.4103 10.3462 27.2584 10.5346 27.0686 10.4969C26.9547 10.4969 26.8408 10.4969 26.7649 10.4216C26.3473 10.1202 25.8537 9.78124 25.3222 9.74358C25.6639 10.0073 26.1195 10.1579 26.2714 10.6476C26.2714 10.7605 26.2334 10.8359 26.1575 10.8735C25.588 10.9865 25.3982 11.6645 24.9046 11.7775C24.6389 11.8528 24.3731 11.7398 24.1074 11.6268C24.2213 11.7398 24.2972 11.8905 24.2592 12.0412C24.1453 12.6061 23.3101 13.0204 22.9685 13.4347C22.6647 13.7737 22.6268 13.9997 22.1332 13.8867C21.8675 13.8491 20.5767 13.2088 21.3739 13.7737C21.6777 13.9997 21.9434 14.3387 22.0193 14.6777C22.0953 15.0167 21.298 15.4686 21.1462 15.7323C20.9563 15.996 20.8045 16.2973 20.6147 16.5986C20.7665 16.473 20.9184 16.36 21.0702 16.2596C21.3486 16.0838 21.6397 15.9332 21.9434 15.8076C24.3731 14.7907 27.1825 14.979 29.4983 16.1089C30.5234 16.6363 31.3965 17.3896 32.004 18.3688C32.0546 18.4693 32.1052 18.5697 32.1558 18.6702C32.2065 18.7455 32.2444 18.8208 32.2697 18.8961C32.2697 18.9213 32.2824 18.9589 32.3077 19.0091C32.333 19.0594 32.3583 19.1221 32.3836 19.1975C32.4089 19.2477 32.4216 19.3105 32.4216 19.3858C32.4469 19.436 32.4595 19.4862 32.4595 19.5364C32.5102 19.6369 32.5355 19.7499 32.5355 19.8754C32.5734 20.0638 32.7633 20.8547 32.6114 21.0054C32.2697 21.3444 31.1688 20.8924 30.8271 20.7041C30.6752 20.6287 30.6373 20.4404 30.6373 20.2897C30.6373 19.8378 30.5613 19.1598 30.2576 18.6325C30.3082 19.0091 30.3209 19.3858 30.2956 19.7624C30.2956 19.8001 30.2956 19.8754 30.2197 19.8754C30.0298 19.9884 29.9159 19.9508 29.6882 19.8378C29.2705 19.6494 28.6251 19.5741 28.2455 19.3481C28.0177 19.1975 27.9797 19.1598 27.9038 18.8585C27.7899 18.1805 27.6001 17.5402 27.1445 17.0506C27.4103 17.7662 27.8659 19.0091 27.0306 18.7831C26.7649 18.7078 26.5371 18.6325 26.3093 18.5572C25.9676 18.4442 25.55 18.5572 25.2084 18.3688C25.1324 18.3312 24.9806 18.2182 24.9046 18.1052C24.8287 17.8792 24.7275 17.6783 24.6009 17.5025C24.6768 17.6532 24.6769 17.8415 24.6389 17.9922C24.487 18.4065 23.6518 18.0299 23.3861 17.9922C21.5638 17.8415 19.9313 18.5195 18.6785 19.6871C18.5772 19.8127 18.4633 19.9256 18.3368 20.0261C18.3874 20.1014 18.438 20.1642 18.4887 20.2144C18.4887 20.2395 18.4887 20.2521 18.4887 20.2521C18.5646 20.227 18.6279 20.2019 18.6785 20.1767C18.6785 20.1516 18.6911 20.1391 18.7164 20.1391C18.843 20.0638 18.9695 20.001 19.0961 19.9508C19.1214 19.9508 19.1467 19.9382 19.172 19.9131C19.2733 19.8629 19.3745 19.8252 19.4757 19.8001C19.5263 19.8001 19.5643 19.7875 19.5896 19.7624C19.7162 19.7122 19.8427 19.6745 19.9693 19.6494C19.9946 19.6494 20.0199 19.6494 20.0452 19.6494C20.1211 19.6243 20.1844 19.5992 20.235 19.5741C20.6147 19.4988 20.969 19.4486 21.298 19.4235C23.0823 19.2728 24.7148 20.0261 26.0436 21.1937C28.1696 23.1523 29.2705 26.7304 28.4733 29.5929C28.448 29.6181 28.4353 29.6557 28.4353 29.7059C28.41 29.7562 28.3974 29.8064 28.3974 29.8566C28.3467 30.0073 28.2835 30.1705 28.2075 30.3462C28.1822 30.3713 28.1696 30.409 28.1696 30.4592C28.0936 30.635 28.0051 30.7982 27.9038 30.9489C27.8279 31.0995 27.6381 30.9865 27.5621 30.9112C27.2584 30.4592 26.8029 30.1956 26.4612 29.8189C26.4359 29.7687 26.4232 29.7185 26.4232 29.6683C26.3852 29.6683 26.3473 29.5929 26.3473 29.5553C26.5751 28.9903 26.7649 28.124 26.7269 27.2577C26.7269 27.3331 26.7269 27.4084 26.7269 27.4837C26.651 28.011 26.613 28.6513 26.1575 28.9526C26.0056 29.0656 25.7778 28.915 25.7778 28.7643C25.2463 28.463 24.6389 27.8227 24.7528 27.2201C24.9426 26.3538 24.9046 25.5251 24.7148 24.6965C24.7148 25.0355 24.6389 25.3745 24.4111 25.6005C24.3352 25.7135 24.1453 25.6758 24.0694 25.6005C23.6518 25.2238 22.9685 25.0732 22.8166 24.5082C22.7407 24.2445 22.8166 23.7926 22.7786 23.4912C22.7533 23.3908 22.728 23.2904 22.7027 23.1899C22.7027 23.3908 22.6647 23.5666 22.5888 23.7172C22.4749 23.8679 22.2092 23.7549 22.1332 23.6796C22.0193 23.4912 21.8295 23.3406 21.6397 23.1899C21.298 22.9639 20.9184 22.7756 20.5387 22.625C20.4628 22.5747 20.3742 22.5245 20.273 22.4743C19.7415 22.2483 19.172 22.0976 18.5646 22.06C18.7924 22.6626 18.4887 23.3406 17.8053 23.4536C17.4636 23.5289 17.1599 23.4536 16.8941 23.3029C16.8941 23.3029 16.8941 23.3155 16.8941 23.3406C16.8435 23.3155 16.8056 23.2778 16.7803 23.2276C16.755 23.2276 16.7296 23.215 16.7043 23.1899C16.6284 23.4661 16.5525 23.7298 16.4765 23.9809C16.4512 24.006 16.4386 24.0437 16.4386 24.0939C16.388 24.2194 16.3373 24.345 16.2867 24.4705C16.1602 24.9225 16.0336 25.3619 15.9071 25.7888C15.8818 25.8641 15.8565 25.9269 15.8312 25.9771C15.7805 26.1529 15.7299 26.3287 15.6793 26.5044C15.5527 26.9815 15.4389 27.4712 15.3376 27.9734C15.2364 28.35 15.1478 28.7392 15.0719 29.141C15.0466 29.1661 15.0339 29.1912 15.0339 29.2163C14.8314 30.0951 14.6543 30.974 14.5024 31.8528C14.4771 32.0035 14.4518 32.1667 14.4265 32.3425C14.2366 33.3971 14.0848 34.4517 14.0468 35.544C14.0215 35.7449 14.0089 35.9583 14.0089 36.1843C14.0089 36.2596 14.0089 36.3475 14.0089 36.4479C13.9835 37.0255 13.9835 37.5904 14.0089 38.1429C14.0089 38.1429 14.0215 38.1429 14.0468 38.1429C14.0468 38.1931 14.0468 38.2433 14.0468 38.2935C14.0721 38.5697 14.0974 38.8334 14.1228 39.0845C14.1228 39.1598 14.1354 39.2351 14.1607 39.3105L15.2617 39.9508C17.1219 41.0054 19.3998 41.0054 21.2601 39.9508L33.5226 32.9074C35.3828 31.8528 36.5217 29.8943 36.5217 27.7474V13.6984C36.5217 11.5892 35.3828 9.63059 33.5226 8.53831Z" fill="#BF930F"/>
</g>
<defs>
<clipPath id="clip0_147_11038">
<rect width="236" height="41" fill="white"/>
</clipPath>
</defs>
</svg>
