<svg width="195" height="40" viewBox="0 0 195 40" fill="none" xmlns="http://www.w3.org/2000/svg">
<g clip-path="url(#clip0_147_11030)">
<path fill-rule="evenodd" clip-rule="evenodd" d="M54.7532 5.35052H47.7922V3.94792H64.1039V5.35052H57.1429V22.1298H54.7532V5.35052ZM67.7403 22.1298V3.89597H70.0779V11.896H80.987V3.89597H83.3247V22.1298H80.987V13.0908H70.0779V22.1298H67.7403ZM101.351 5.35052H91.948V11.896H100.052V13.0908H91.948V20.6752H101.351V22.1298H89.6104V3.89597H101.351V5.35052ZM113.091 9.92195C113.472 8.81372 114.061 7.79208 114.857 6.85702C115.654 5.92195 116.658 5.14273 117.87 4.51936C119.117 3.93061 120.589 3.63623 122.286 3.63623C124.017 3.63623 125.524 3.94792 126.805 4.5713C128.087 5.16004 129.143 5.93926 129.974 6.90896C130.805 7.84403 131.411 8.86568 131.792 9.9739C132.208 11.0475 132.416 12.0692 132.416 13.0389C132.416 13.6969 132.312 14.3722 132.104 15.0648C131.931 15.7921 131.671 16.5021 131.325 17.1947C130.978 17.8873 130.528 18.5627 129.974 19.2207C129.42 19.844 128.762 20.3982 128 20.883C127.238 21.3679 126.39 21.7488 125.455 22.0259C124.519 22.3029 123.463 22.4415 122.286 22.4415C120.589 22.4415 119.117 22.1471 117.87 21.5583C116.658 20.935 115.654 20.1557 114.857 19.2207C114.061 18.2856 113.472 17.264 113.091 16.1557C112.71 15.0475 112.519 14.0085 112.519 13.0389C112.519 12.0692 112.71 11.0302 113.091 9.92195ZM115.636 16.4155C116.017 17.4198 116.519 18.2856 117.143 19.0129C117.801 19.7402 118.58 20.3116 119.481 20.7272C120.346 21.1081 121.299 21.2986 122.338 21.2986C123.377 21.2986 124.346 21.1081 125.247 20.7272C126.147 20.3116 126.944 19.7402 127.636 19.0129C128.329 18.2856 128.866 17.4198 129.247 16.4155C129.662 15.3765 129.87 14.251 129.87 13.0389C129.87 11.8267 129.662 10.7185 129.247 9.71416C128.866 8.70983 128.329 7.84403 127.636 7.11676C126.944 6.35485 126.147 5.78342 125.247 5.40247C124.346 4.98689 123.377 4.7791 122.338 4.7791C121.299 4.7791 120.346 4.98689 119.481 5.40247C118.58 5.78342 117.801 6.35485 117.143 7.11676C116.519 7.84403 116.017 8.70983 115.636 9.71416C115.255 10.7185 115.065 11.8267 115.065 13.0389C115.065 14.251 115.255 15.3765 115.636 16.4155ZM135.688 22.1298H134.493L142.182 3.94792H143.481L151.948 22.1298H149.403L146.909 16.7791H137.974L135.688 22.1298ZM142.182 6.85702L138.442 15.6363H146.39L142.286 6.85702H142.182ZM155.636 18.6492C155.775 19.0648 156.017 19.4631 156.364 19.8441C156.71 20.2596 157.212 20.606 157.87 20.883C158.528 21.1601 159.394 21.2986 160.468 21.2986C161.853 21.2986 162.944 21.0388 163.74 20.5194C164.571 19.9999 164.987 19.186 164.987 18.0778C164.987 17.1774 164.727 16.4501 164.208 15.896C163.688 15.3765 163.03 14.9263 162.234 14.5453C161.472 14.1644 160.623 13.8354 159.688 13.5583C158.788 13.2466 157.939 12.883 157.143 12.4674C156.346 12.0518 155.688 11.5324 155.169 10.909C154.649 10.2856 154.39 9.45442 154.39 8.41546C154.39 7.65356 154.545 6.96091 154.857 6.33754C155.203 5.74879 155.636 5.24662 156.156 4.83104C156.71 4.45009 157.351 4.15572 158.078 3.94792C158.805 3.74013 159.567 3.63623 160.364 3.63623C161.126 3.63623 161.853 3.72281 162.545 3.89597C163.238 4.06913 163.861 4.34619 164.416 4.72714C164.97 5.07347 165.437 5.50637 165.818 6.02585C166.164 6.51069 166.39 7.08212 166.493 7.74013H164.727C164.589 6.70117 164.121 5.95658 163.325 5.50637C162.563 5.02152 161.61 4.7791 160.468 4.7791C159.81 4.7791 159.221 4.86568 158.701 5.03884C158.182 5.17736 157.732 5.38516 157.351 5.66221C157.004 5.93927 156.745 6.25096 156.571 6.59728C156.398 6.97823 156.312 7.37649 156.312 7.79208C156.312 8.51935 156.571 9.1081 157.091 9.55832C157.645 10.0086 158.32 10.4068 159.117 10.7531C159.913 11.0995 160.779 11.4285 161.714 11.7402C162.684 12.0518 163.567 12.4501 164.364 12.935C165.16 13.3852 165.835 13.9566 166.39 14.6492C166.909 15.3419 167.169 16.225 167.169 17.2986C167.169 18.0605 167.013 18.7705 166.701 19.4285C166.39 20.0518 165.957 20.5886 165.403 21.0388C164.814 21.4891 164.121 21.8354 163.325 22.0778C162.528 22.3202 161.628 22.4415 160.623 22.4415C159.619 22.4415 158.701 22.3376 157.87 22.1298C157.039 21.8873 156.312 21.5583 155.688 21.1428C155.1 20.6925 154.615 20.1731 154.234 19.5843C153.887 18.9609 153.697 18.2856 153.662 17.5583H155.429C155.463 17.8354 155.532 18.199 155.636 18.6492ZM175.481 22.1298H173.091V3.94792H175.481V22.1298ZM182.597 18.5973C182.701 19.0129 182.926 19.4285 183.273 19.8441C183.619 20.225 184.121 20.5713 184.779 20.883C185.437 21.1601 186.32 21.2986 187.429 21.2986C188.779 21.2986 189.87 21.0388 190.701 20.5194C191.532 19.9999 191.948 19.1687 191.948 18.0259C191.948 17.1254 191.688 16.4155 191.169 15.896C190.649 15.3419 189.991 14.8917 189.195 14.5453C188.398 14.1644 187.55 13.8181 186.649 13.5064C185.714 13.2293 184.848 12.883 184.052 12.4674C183.29 12.0518 182.649 11.5324 182.13 10.909C181.61 10.2856 181.351 9.45442 181.351 8.41546C181.351 7.65356 181.506 6.96091 181.818 6.33754C182.13 5.74879 182.563 5.24662 183.117 4.83104C183.671 4.45009 184.294 4.15572 184.987 3.94792C185.714 3.74013 186.476 3.63623 187.273 3.63623C188.035 3.63623 188.762 3.72281 189.455 3.89597C190.182 4.06913 190.822 4.34619 191.377 4.72714C191.931 5.07347 192.381 5.50637 192.727 6.02585C193.108 6.51069 193.351 7.08212 193.455 7.74013H191.688C191.55 6.70117 191.082 5.95658 190.286 5.50637C189.489 5.02152 188.537 4.7791 187.429 4.7791C186.736 4.7791 186.13 4.86568 185.61 5.03884C185.091 5.17736 184.658 5.38516 184.312 5.66221C183.965 5.93927 183.688 6.25096 183.481 6.59728C183.307 6.97823 183.221 7.37649 183.221 7.79208C183.221 8.51935 183.498 9.1081 184.052 9.55832C184.571 10.0086 185.229 10.4068 186.026 10.7531C186.857 11.0995 187.74 11.4285 188.675 11.7402C189.61 12.0518 190.476 12.4501 191.273 12.935C192.104 13.3852 192.779 13.9566 193.299 14.6492C193.853 15.3073 194.13 16.1731 194.13 17.2466C194.13 18.0432 193.974 18.7531 193.662 19.3765C193.351 20.0345 192.9 20.5886 192.312 21.0388C191.758 21.4891 191.065 21.8354 190.234 22.0778C189.437 22.3202 188.537 22.4415 187.532 22.4415C186.563 22.4415 185.662 22.3202 184.831 22.0778C184 21.8354 183.273 21.5064 182.649 21.0908C182.026 20.6752 181.541 20.1557 181.195 19.5324C180.848 18.9436 180.658 18.2683 180.623 17.5064H182.39C182.39 17.8181 182.459 18.1817 182.597 18.5973Z" fill="#BF930F"/>
<path fill-rule="evenodd" clip-rule="evenodd" d="M81.4544 34.9608V36.6751H80.9349V34.9608L78.9609 31.74H79.5323L81.2466 34.4933L82.9609 31.74H83.4804L81.4544 34.9608ZM84.1557 34.1816C84.1557 32.7271 85.2466 31.6362 86.7531 31.6362C88.2596 31.6362 89.3505 32.7271 89.3505 34.1816C89.3505 35.6361 88.2596 36.6751 86.7531 36.6751C85.2466 36.6751 84.1557 35.6361 84.1557 34.1816ZM88.831 34.1816C88.831 32.9868 87.9479 32.1037 86.7531 32.1037C85.5583 32.1037 84.6752 32.9868 84.6752 34.1816C84.6752 35.3764 85.5583 36.2076 86.7531 36.2076C87.9479 36.2076 88.831 35.3764 88.831 34.1816ZM91.0648 34.5452V31.6881H91.5843V34.4933C91.5843 35.6881 92.1038 36.2076 93.0908 36.2076C94.0778 36.2076 94.5973 35.6881 94.5973 34.4933V31.6881H95.1167V34.5452C95.1167 35.9478 94.3375 36.6751 93.0908 36.6751C91.844 36.6751 91.0648 35.9478 91.0648 34.5452ZM100.675 36.6751L99.5323 35.0647C99.3938 35.0647 99.2553 35.0647 99.1167 35.0647H97.818V36.6751H97.2466V31.6881H99.1167C100.364 31.6881 101.143 32.3115 101.143 33.4024C101.143 34.1816 100.727 34.7011 99.9999 34.9608L101.247 36.6751H100.675ZM100.623 33.4024C100.623 32.6232 100.104 32.1556 99.1167 32.1556H97.818V34.6491H99.1167C100.104 34.6491 100.623 34.1816 100.623 33.4024ZM106.338 32.1556H104.623V31.6881H108.623V32.1556H106.857V36.6751H106.338V32.1556ZM112.883 35.3245H110.13L109.506 36.6232H108.987L111.221 31.6881H111.74L114.026 36.6232H113.454L112.883 35.3245ZM112.727 34.9089L111.532 32.2595L110.338 34.9089H112.727ZM118.857 34.1816H119.377V36.0517C118.909 36.4673 118.234 36.7271 117.558 36.7271C116.052 36.7271 114.909 35.6361 114.909 34.1816C114.909 32.7271 116.052 31.6881 117.558 31.6881C118.286 31.6881 118.961 31.8959 119.377 32.3634L119.065 32.7271C118.649 32.3115 118.13 32.1556 117.558 32.1556C116.364 32.1556 115.429 32.9868 115.429 34.1816C115.429 35.3764 116.364 36.2595 117.558 36.2595C118.026 36.2595 118.493 36.1556 118.857 35.8439V34.1816ZM121.403 31.74H121.922V36.2076H124.727V36.6751H121.403V31.74ZM126.13 31.74H126.701V36.6751H126.13V31.74ZM132.987 31.74V36.7271H132.571L129.403 32.6751V36.7271H128.831V31.74H129.299L132.467 35.792V31.74H132.987ZM138.701 36.2595V36.7271H135.169V31.74H138.597V32.2076H135.688V33.9738H138.286V34.4413H135.688V36.2595H138.701ZM147.065 31.74V36.7271H146.545V34.4413H143.48V36.7271H142.961V31.74H143.48V33.9738H146.545V31.74H147.065ZM152.779 36.2595V36.7271H149.247V31.74H152.675V32.2076H149.818V33.9738H152.364V34.4413H149.818V36.2595H152.779ZM157.922 36.7271L156.779 35.1167C156.675 35.1513 156.554 35.1686 156.416 35.1686H155.065V36.7271H154.545V31.74H156.416C157.662 31.74 158.441 32.4154 158.441 33.4543C158.441 34.2336 158.026 34.805 157.299 35.0128L158.493 36.7271H157.922ZM157.922 33.4543C157.922 32.6751 157.403 32.2076 156.416 32.2076H155.065V34.7011H156.416C157.403 34.7011 157.922 34.2336 157.922 33.4543ZM163.74 36.2595V36.7271H160.26V31.74H163.636V32.2076H160.779V33.9738H163.325V34.4413H160.779V36.2595H163.74Z" fill="#BF930F"/>
<path fill-rule="evenodd" clip-rule="evenodd" d="M34.1366 34.1366H25.848L19.9847 40L14.152 34.1366H5.86339V25.8787L0 20.0154L5.86339 14.152V5.86339H14.152L19.9847 0L25.848 5.86339H34.1366V14.152L40 20.0154L34.1366 25.8787V34.1366ZM34.1366 14.9501V24.9885L39.1711 19.9847L34.1366 14.9501ZM25.6025 33.5226L33.5226 25.5718V14.3668L25.6025 6.41596H14.3668L6.44666 14.3668V25.5718L14.3668 33.5226H18.2348L19.1558 21.581H20.8135L21.7345 33.5226H25.6025ZM26.4313 6.41596L33.5226 13.5073V6.41596H26.4313ZM14.9808 5.83269H25.0192L19.9847 0.798158L14.9808 5.83269ZM6.47736 13.538L13.5687 6.41596H6.47736V13.538ZM5.86339 25.0192V14.9808L0.859556 20.0154L5.86339 25.0192ZM13.538 33.5226L6.44666 26.4313V33.5226H13.538ZM25.0192 34.1366H14.9501L19.9847 39.1404L25.0192 34.1366ZM33.5533 33.5533V26.462L26.4313 33.5533H33.5533ZM28.3039 28.1197L20.0153 20.0767L11.7268 28.1197C11.7882 23.515 15.472 20.2302 18.4497 19.7084H8.07368C11.6347 17.3139 14.7045 16.4543 17.5902 17.4981L11.3891 10.9593C16.6078 11.0821 20.0153 15.5641 20.0153 18.3883C20.0153 15.5641 23.4229 11.0821 28.6416 10.9593L22.4405 17.4981C25.3262 16.4543 28.396 17.3139 31.957 19.7084H21.581C24.5587 20.2302 28.2425 23.515 28.3039 28.1197Z" fill="#BF930F"/>
</g>
<defs>
<clipPath id="clip0_147_11030">
<rect width="195" height="40" fill="white"/>
</clipPath>
</defs>
</svg>
