<svg width="180" height="41" viewBox="0 0 180 41" fill="none" xmlns="http://www.w3.org/2000/svg">
<path fill-rule="evenodd" clip-rule="evenodd" d="M16.236 21.507C18.9326 21.6933 20.9363 22.3081 22.2472 23.3513C23.5205 24.3946 24.1573 25.624 24.1573 27.0399C24.1573 28.9774 23.3895 30.4864 21.854 31.5669C20.3183 32.6101 18.1835 33.1317 15.4494 33.1317C14.8501 33.1317 14.3446 33.1131 13.9325 33.0758C12.5467 33.0386 11.1797 33.02 9.83143 33.02C7.69658 33.02 6.0861 33.0573 5 33.1317V32.517C5.71162 32.4797 6.21714 32.3865 6.5168 32.2375C6.85393 32.1258 7.07864 31.8836 7.19094 31.511C7.30336 31.1757 7.35945 30.6168 7.35945 29.8343V14.2974C7.35945 13.5151 7.30336 12.9375 7.19094 12.5649C7.07864 12.2296 6.85393 11.9874 6.5168 11.8384C6.21714 11.7266 5.71162 11.6521 5 11.6148V11C6.0861 11.0373 7.67785 11.0559 9.77523 11.0559H13.3146C13.7265 11.0186 14.1947 11 14.7191 11C17.2284 11 19.1573 11.4471 20.5056 12.3414C21.854 13.2356 22.5281 14.4279 22.5281 15.9182C22.5281 17.1105 21.985 18.2282 20.8989 19.2715C19.8502 20.3147 18.2959 21.0413 16.236 21.4511V21.507ZM14.3258 11.6148C13.764 11.6148 13.352 11.6893 13.0899 11.8384C12.8277 11.9501 12.6404 12.2109 12.528 12.6208C12.4157 12.9934 12.3595 13.5522 12.3595 14.2974V21.3394H13.7078C15.0936 21.3394 16.0486 20.8923 16.573 19.9981C17.1348 19.0293 17.4157 17.7811 17.4157 16.2535C17.4157 14.6887 17.1536 13.5151 16.6292 12.7326C16.1798 11.9874 15.412 11.6148 14.3258 11.6148ZM14.5506 32.4052C17.4719 32.4052 18.9326 30.5795 18.9326 26.9282C18.9326 25.2888 18.5019 24.0406 17.6405 23.1837C16.8165 22.3267 15.5056 21.8983 13.7078 21.8983H12.3595V29.8343C12.3595 30.5795 12.4157 31.1198 12.528 31.4551C12.6404 31.8277 12.8464 32.0885 13.1461 32.2375C13.4456 32.3494 13.9138 32.4052 14.5506 32.4052ZM38.5955 13.6827C40.7304 13.6827 42.5843 14.0552 44.1573 14.8004C45.7678 15.5456 47.0225 16.6634 47.9214 18.1538C48.7828 19.6068 49.2136 21.358 49.2136 23.4072C49.2136 25.4191 48.764 27.189 47.8652 28.7166C46.9663 30.2442 45.7117 31.4365 44.1011 32.2934C42.4906 33.1504 40.6554 33.5788 38.5955 33.5788C36.4607 33.5788 34.6068 33.2063 33.0338 32.4611C31.4233 31.6786 30.1873 30.5609 29.3259 29.1079C28.4269 27.6175 27.9775 25.8477 27.9775 23.7984C27.9775 21.7865 28.4269 20.0167 29.3259 18.489C30.2248 16.9615 31.4794 15.7878 33.0898 14.9681C34.7004 14.1111 36.5356 13.6827 38.5955 13.6827ZM38.4831 14.2415C37.397 14.2415 36.4419 14.6328 35.618 15.4152C34.794 16.2349 34.1386 17.3527 33.6517 18.7685C33.2397 20.1843 33.0338 21.8237 33.0338 23.6867C33.0338 25.5496 33.2772 27.189 33.7641 28.6048C34.2884 30.0207 34.9625 31.1011 35.7865 31.8463C36.6854 32.6287 37.6592 33.02 38.7078 33.02C39.7941 33.02 40.7491 32.6101 41.573 31.7904C42.3971 31.008 43.0337 29.8902 43.4832 28.4371C43.9326 27.0213 44.1573 25.4005 44.1573 23.5748C44.1573 21.7119 43.9139 20.0725 43.427 18.6567C42.9401 17.2409 42.2472 16.1417 41.3483 15.3594C40.4869 14.6142 39.5319 14.2415 38.4831 14.2415ZM72.5282 14.0739V14.7445C71.7791 14.8191 71.236 14.9867 70.899 15.2475C70.5244 15.5084 70.2809 15.8995 70.1686 16.4212C70.0562 16.9801 70.0001 17.7997 70.0001 18.8802V24.6368C70.0001 26.0899 69.8877 27.3194 69.663 28.3254C69.4757 29.3314 69.1574 30.207 68.7079 30.9522C68.1836 31.7718 67.4158 32.4052 66.4046 32.8523C65.4308 33.3366 64.3072 33.5788 63.0337 33.5788C60.6743 33.5788 58.839 33.1131 57.5282 32.1816C56.7791 31.6601 56.2173 31.0825 55.8427 30.4491C55.4682 29.8157 55.2061 29.0519 55.0563 28.1577C54.9064 27.2634 54.8316 26.1271 54.8316 24.7485V17.4272C54.8316 16.6075 54.7566 16.03 54.6067 15.6946C54.5319 15.3221 54.3259 15.0799 53.9888 14.9681C53.6518 14.8563 53.1462 14.7818 52.472 14.7445V14.0739C53.5206 14.1484 55.1124 14.1857 57.2472 14.1857C59.2698 14.1857 60.8428 14.1484 61.9664 14.0739V14.7445C61.2547 14.7818 60.7491 14.8563 60.4496 14.9681C60.1499 15.0799 59.9252 15.3221 59.7753 15.6946C59.663 16.03 59.6068 16.6075 59.6068 17.4272V25.2515C59.6068 26.7792 59.7005 28.0273 59.8877 28.996C60.1124 29.9648 60.5431 30.7658 61.1798 31.3992C61.8539 31.9953 62.8278 32.2934 64.1012 32.2934C66.0113 32.2934 67.3409 31.6601 68.09 30.3932C68.8764 29.0892 69.2698 27.2821 69.2698 24.972V19.2156C69.2698 18.0233 69.1948 17.1291 69.0451 16.533C68.8952 15.9368 68.6144 15.527 68.2023 15.3034C67.7903 15.0053 67.1162 14.8191 66.1799 14.7445V14.0739C67.0038 14.1484 68.1462 14.1857 69.6068 14.1857C70.8802 14.1857 71.8541 14.1484 72.5282 14.0739ZM93.9889 14.0739C93.8766 15.676 93.8204 17.1105 93.8204 18.3773C93.8204 19.5323 93.8391 20.4452 93.8766 21.1158H93.1462C92.8841 19.5137 92.5282 18.2655 92.0788 17.3713C91.7043 16.4771 91.1799 15.8251 90.5058 15.4152C89.9066 15.0053 89.1013 14.8004 88.09 14.8004H87.0788V29.499C87.0788 30.3559 87.1724 30.9893 87.3596 31.3992C87.5095 31.8091 87.7904 32.0885 88.2024 32.2375C88.6518 32.3865 89.3447 32.4797 90.281 32.517V33.1317C89.1575 33.0573 87.2661 33.02 84.6068 33.02C81.9477 33.02 80.1124 33.0573 79.1013 33.1317V32.517C80.0376 32.4797 80.7117 32.3865 81.1237 32.2375C81.5731 32.0885 81.8728 31.8091 82.0226 31.3992C82.2098 30.9893 82.3035 30.3559 82.3035 29.499V14.8004H81.2922C80.281 14.8004 79.457 15.0053 78.8203 15.4152C78.1837 15.8251 77.6593 16.4771 77.2473 17.3713C76.8353 18.2655 76.4982 19.5137 76.2361 21.1158H75.5057C75.5432 20.4452 75.5619 19.5323 75.5619 18.3773C75.5619 17.1105 75.487 15.676 75.3372 14.0739C77.1724 14.1484 80.2623 14.1857 84.6068 14.1857C89.0263 14.1857 92.1537 14.1484 93.9889 14.0739ZM107.079 14.0739V14.7445C106.368 14.7818 105.843 14.8563 105.505 14.9681C105.206 15.0799 105 15.3221 104.888 15.6946C104.775 16.03 104.72 16.6075 104.72 17.4272V29.8343C104.72 30.6168 104.775 31.1757 104.888 31.511C105 31.8836 105.206 32.1258 105.505 32.2375C105.843 32.3865 106.368 32.4797 107.079 32.517V33.1317C105.993 33.0573 104.439 33.02 102.416 33.02C100.206 33.02 98.577 33.0573 97.5282 33.1317V32.517C98.2399 32.4797 98.7642 32.3865 99.1012 32.2375C99.4009 32.1258 99.6069 31.8836 99.7193 31.511C99.8316 31.1757 99.8878 30.6168 99.8878 29.8343V17.4272C99.8878 16.6075 99.8316 16.03 99.7193 15.6946C99.6069 15.3221 99.3822 15.0799 99.045 14.9681C98.7455 14.8563 98.2399 14.7818 97.5282 14.7445V14.0739C98.577 14.1484 100.206 14.1857 102.416 14.1857C104.439 14.1857 105.993 14.1484 107.079 14.0739ZM135.337 34.0818L135.842 34.3054C135.43 35.833 134.645 37.0067 133.484 37.8263C132.359 38.6088 130.918 39 129.157 39C127.66 39 126.199 38.8137 124.776 38.4411C123.39 38.0312 121.629 37.4165 119.495 36.5968C118.221 36.1124 117.191 35.7399 116.405 35.479C115.993 35.6653 115.544 35.833 115.056 35.982C114.607 36.0939 114.176 36.1497 113.764 36.1497C113.315 36.1497 112.959 36.0752 112.697 35.9261C112.397 35.7771 112.247 35.5722 112.247 35.3114C112.247 34.7525 112.828 34.473 113.989 34.473C114.775 34.473 115.581 34.6221 116.405 34.9202C117.004 34.7338 117.791 34.4358 118.765 34.0259C119.326 33.7652 119.757 33.5975 120.056 33.523C117.172 33.2622 114.907 32.2934 113.258 30.6168C111.61 28.9401 110.786 26.6673 110.786 23.7984C110.786 21.7865 111.237 20.0167 112.135 18.489C113.033 16.9615 114.289 15.7878 115.899 14.9681C117.51 14.1111 119.345 13.6827 121.405 13.6827C123.539 13.6827 125.393 14.0552 126.967 14.8004C128.577 15.5456 129.813 16.6634 130.674 18.1538C131.573 19.6068 132.023 21.358 132.023 23.4072C132.023 25.3074 131.611 27.0027 130.787 28.493C129.963 29.9834 128.82 31.1571 127.359 32.014C125.899 32.9082 124.214 33.4112 122.303 33.523C121.817 33.5602 121.367 33.6534 120.956 33.8024C120.581 33.9515 120.094 34.1377 119.495 34.3613C118.633 34.7338 117.902 34.9947 117.303 35.1438C117.453 35.1438 117.754 35.1438 118.203 35.1438C118.577 35.1438 119.27 35.1251 120.281 35.0878C121.03 35.0133 121.779 34.976 122.529 34.976C123.765 34.976 125.356 35.1438 127.303 35.479C128.839 35.7771 130.038 35.9261 130.899 35.9261C132.172 35.9261 133.128 35.7771 133.765 35.479C134.438 35.2182 134.963 34.7525 135.337 34.0818ZM115.843 23.6867C115.843 25.5496 116.086 27.189 116.573 28.6048C117.061 30.0207 117.734 31.1011 118.595 31.8463C119.495 32.6287 120.468 33.02 121.518 33.02C122.603 33.02 123.558 32.6101 124.382 31.7904C125.206 31.008 125.843 29.8902 126.292 28.4371C126.742 27.0213 126.967 25.4005 126.967 23.5748C126.967 21.7119 126.723 20.0725 126.236 18.6567C125.712 17.2409 125.019 16.1417 124.158 15.3594C123.296 14.6142 122.341 14.2415 121.292 14.2415C120.206 14.2415 119.232 14.6328 118.371 15.4152C117.584 16.2349 116.948 17.3527 116.461 18.7685C116.049 20.1843 115.843 21.8237 115.843 23.6867ZM155.338 14.0739V14.7445C154.588 14.8191 154.045 14.9867 153.708 15.2475C153.333 15.5084 153.091 15.8995 152.978 16.4212C152.866 16.9801 152.81 17.7997 152.81 18.8802V24.6368C152.81 26.0899 152.697 27.3194 152.472 28.3254C152.285 29.3314 151.966 30.207 151.517 30.9522C150.992 31.7718 150.225 32.4052 149.214 32.8523C148.24 33.3366 147.117 33.5788 145.843 33.5788C143.483 33.5788 141.648 33.1131 140.337 32.1816C139.588 31.6601 139.026 31.0825 138.652 30.4491C138.277 29.8157 138.015 29.0519 137.865 28.1577C137.716 27.2634 137.64 26.1271 137.64 24.7485V17.4272C137.64 16.6075 137.566 16.03 137.416 15.6946C137.304 15.3221 137.098 15.0799 136.798 14.9681C136.461 14.8563 135.955 14.7818 135.282 14.7445V14.0739C136.33 14.1484 137.921 14.1857 140.057 14.1857C142.079 14.1857 143.652 14.1484 144.776 14.0739V14.7445C144.064 14.7818 143.558 14.8563 143.259 14.9681C142.921 15.0799 142.697 15.3221 142.585 15.6946C142.472 16.03 142.416 16.6075 142.416 17.4272V25.2515C142.416 26.7792 142.509 28.0273 142.697 28.996C142.921 29.9648 143.353 30.7658 143.989 31.3992C144.663 31.9953 145.637 32.2934 146.91 32.2934C148.821 32.2934 150.15 31.6601 150.899 30.3932C151.685 29.0892 152.079 27.2821 152.079 24.972V19.2156C152.079 18.0233 152.004 17.1291 151.855 16.533C151.705 15.9368 151.424 15.527 151.012 15.3034C150.562 15.0053 149.887 14.8191 148.989 14.7445V14.0739C149.813 14.1484 150.955 14.1857 152.416 14.1857C153.652 14.1857 154.626 14.1484 155.338 14.0739ZM174.775 29.0519C174.775 30.2442 174.851 31.6042 175 33.1317C173.652 33.0573 171.349 33.02 168.09 33.02C163.783 33.02 160.543 33.0573 158.372 33.1317V32.517C159.083 32.4797 159.588 32.3865 159.888 32.2375C160.225 32.1258 160.431 31.8836 160.506 31.511C160.656 31.1757 160.73 30.6168 160.73 29.8343V17.4272C160.73 16.6075 160.656 16.03 160.506 15.6946C160.431 15.3221 160.225 15.0799 159.888 14.9681C159.551 14.8563 159.045 14.7818 158.372 14.7445V14.0739C160.543 14.1484 163.783 14.1857 168.09 14.1857C171.049 14.1857 173.147 14.1484 174.383 14.0739C174.233 15.4897 174.158 16.7566 174.158 17.8743C174.158 18.6567 174.176 19.2901 174.213 19.7745H173.54C173.202 17.986 172.641 16.7193 171.854 15.9741C171.105 15.1916 170.037 14.8004 168.652 14.8004H167.528C166.966 14.8004 166.554 14.8563 166.292 14.9681C166.031 15.0426 165.824 15.2289 165.674 15.527C165.562 15.7878 165.506 16.2349 165.506 16.8683V23.2396H167.023C167.959 23.2396 168.671 22.9042 169.158 22.2335C169.682 21.5629 170.019 20.7618 170.169 19.8303H170.9C170.824 20.5382 170.787 21.358 170.787 22.2895V23.5748C170.787 24.5063 170.861 25.7359 171.011 27.2634H170.281C170.131 26.2575 169.795 25.4378 169.27 24.8044C168.783 24.171 168.034 23.8543 167.023 23.8543H165.506V30.3932C165.506 30.9893 165.562 31.4365 165.674 31.7345C165.824 31.9953 166.031 32.1816 166.292 32.2934C166.554 32.368 166.966 32.4052 167.528 32.4052H168.877C170.338 32.4052 171.499 31.9767 172.36 31.1198C173.221 30.2629 173.821 28.8284 174.158 26.8163H174.888C174.813 27.3753 174.775 28.1205 174.775 29.0519Z" fill="#BF930F"/>
</svg>
