<svg width="197" height="41" viewBox="0 0 197 41" fill="none" xmlns="http://www.w3.org/2000/svg">
<g clip-path="url(#clip0_147_11022)">
<path fill-rule="evenodd" clip-rule="evenodd" d="M50.3894 22.0529V4.28662H56.3635C57.3332 4.28662 58.1816 4.42515 58.9089 4.70221C59.6362 4.97927 60.2422 5.37753 60.7271 5.89701C61.2119 6.34722 61.5756 6.90134 61.818 7.55935C62.0604 8.21736 62.1816 8.89268 62.1816 9.58532C62.1816 10.3472 62.0431 11.0572 61.7661 11.7152C61.489 12.3732 61.0907 12.9446 60.5712 13.4295C60.0171 13.9143 59.3418 14.3126 58.5453 14.6243C57.7487 14.9014 56.8483 15.0399 55.844 15.0399C55.2206 15.0399 54.6492 15.0053 54.1297 14.936C53.6448 14.8667 53.1773 14.7628 52.7271 14.6243V22.0529H50.3894ZM53.8699 13.897C54.3202 13.9317 54.805 13.949 55.3245 13.949C56.0864 13.949 56.7444 13.8105 57.2985 13.5334C57.8526 13.291 58.3028 12.962 58.6492 12.5464C58.9955 12.1308 59.2552 11.6806 59.4284 11.1957C59.5669 10.7109 59.6362 10.2087 59.6362 9.68922C59.6362 9.20437 59.5496 8.70221 59.3764 8.18273C59.2033 7.66325 58.9435 7.19572 58.5972 6.78013C58.2509 6.36455 57.8007 6.03554 57.2466 5.79311C56.6925 5.51606 56.0691 5.37753 55.3764 5.37753H52.6751V13.5853C53.0561 13.7239 53.4544 13.8278 53.8699 13.897ZM64.831 22.0529H63.6881L71.1687 4.28662H72.4674L80.7271 22.0529H78.2855L75.844 16.8061H67.0648L64.831 22.0529ZM71.2206 7.14377L67.5323 15.7152H75.3245L71.3245 7.14377H71.2206ZM95.9998 22.0529H84.5712V4.28662H86.857V20.6503H95.9998V22.0529ZM109.818 19.5594L118.026 4.28662H119.792V22.0529H117.506V7.66325H117.403L109.351 22.3646H108.883L101.039 7.55935H100.935V22.0529H99.844V4.28662H101.558L109.714 19.5594H109.818ZM139.065 5.68922H132.26V4.28662H148.156V5.68922H141.351V22.0529H139.065V5.68922ZM160.312 4.8061C161.039 5.11779 161.628 5.49874 162.078 5.94896C162.493 6.39918 162.788 6.90134 162.961 7.45545C163.169 8.00956 163.273 8.51173 163.273 8.96195C163.273 9.48143 163.186 10.0009 163.013 10.5204C162.84 11.0399 162.563 11.5421 162.182 12.0269C161.801 12.4771 161.316 12.8581 160.727 13.1698C160.173 13.4468 159.48 13.62 158.649 13.6892V13.7931L158.909 13.897C159.117 14.0009 159.29 14.1395 159.428 14.3126C159.567 14.4511 159.758 14.6936 160 15.0399C160.208 15.3862 160.519 15.8711 160.935 16.4944C161.316 17.0832 161.853 17.897 162.545 18.936C162.788 19.2823 163.03 19.6113 163.273 19.923C163.48 20.2001 163.706 20.4252 163.948 20.5983C164.19 20.8061 164.45 20.962 164.727 21.0659C164.97 21.1698 165.281 21.2217 165.662 21.2217C165.732 21.2217 165.818 21.2217 165.922 21.2217C165.991 21.1871 166.061 21.1698 166.13 21.1698V22.1048C165.922 22.2434 165.697 22.3299 165.454 22.3646C165.212 22.3992 164.9 22.4165 164.519 22.4165C164 22.4165 163.567 22.3472 163.221 22.2087C162.84 22.0702 162.511 21.8797 162.234 21.6373C161.957 21.4295 161.68 21.1524 161.403 20.8061C161.195 20.4944 160.952 20.1481 160.675 19.7672L158.701 16.8061C158.39 16.3213 158.13 15.923 157.922 15.6113C157.68 15.265 157.437 14.9879 157.195 14.7801C156.918 14.607 156.623 14.4685 156.312 14.3646C156 14.2953 155.619 14.2607 155.169 14.2607H154.026V22.1048H151.74V4.33857H157.506C158.615 4.33857 159.55 4.49442 160.312 4.8061ZM156.675 13.1178C157.333 13.1178 157.922 12.9966 158.441 12.7542C158.961 12.5118 159.394 12.2001 159.74 11.8191C160.087 11.4382 160.346 11.0226 160.519 10.5724C160.727 10.0875 160.831 9.61995 160.831 9.16974C160.831 8.61562 160.727 8.11346 160.519 7.66325C160.312 7.21303 160.035 6.83208 159.688 6.52039C159.307 6.17407 158.857 5.89701 158.338 5.68922C157.818 5.51606 157.247 5.42948 156.623 5.42948H154.026V13.1178H156.675ZM181.454 5.68922H172.312V12.0789H180.156V13.2737H172.312V20.7022H181.454V22.1048H169.974V4.33857H181.454V5.68922ZM196.779 5.68922H187.584V12.0269H195.48V13.2217H187.584V20.6503H196.779V22.0529H185.299V4.28662H196.779V5.68922Z" fill="#BF930F"/>
<path fill-rule="evenodd" clip-rule="evenodd" d="M52.831 34.4166V36.0789H52.3115V34.4166L50.3894 31.2477H50.9089L52.5712 33.949L54.2336 31.2477H54.7531L52.831 34.4166ZM55.4803 33.6374C55.4803 32.2348 56.5712 31.1958 58.0258 31.1958C59.4803 31.1958 60.5712 32.2348 60.5712 33.6374C60.5712 35.0919 59.4803 36.1309 58.0258 36.1309C56.5712 36.1309 55.4803 35.0919 55.4803 33.6374ZM60.0518 33.6374C60.0518 32.4945 59.1686 31.6633 58.0258 31.6633C56.8829 31.6633 55.9998 32.4945 55.9998 33.6374C55.9998 34.8322 56.8829 35.6633 58.0258 35.6633C59.1686 35.6633 60.0518 34.8322 60.0518 33.6374ZM62.2336 34.001V31.2477H62.7531V34.001C62.7531 35.1439 63.2725 35.6633 64.2076 35.6633C65.1946 35.6633 65.7141 35.1439 65.7141 34.001V31.2477H66.2336V34.001C66.2336 35.4036 65.4544 36.1309 64.2076 36.1309C62.9609 36.1309 62.2336 35.4036 62.2336 34.001ZM71.6362 36.0789L70.4933 34.5205C70.3894 34.5205 70.2682 34.5205 70.1297 34.5205H68.831V36.0789H68.3115V31.2477H70.1297C71.3764 31.2477 72.1037 31.8711 72.1037 32.9101C72.1037 33.6374 71.6881 34.2088 71.0128 34.4166L72.1557 36.0789H71.6362ZM71.6362 32.9101C71.6362 32.1309 71.1167 31.6633 70.1297 31.6633H68.8829V34.1049H70.1297C71.1167 34.1049 71.6362 33.6374 71.6362 32.9101ZM77.1946 31.6633H75.5323V31.2477H79.4284V31.6633H77.7141V36.0789H77.1946V31.6633ZM83.5842 34.7802H80.8829L80.3115 36.0789H79.792L82.0258 31.1958H82.4933L84.7271 36.0789H84.2076L83.5842 34.7802ZM83.3764 34.3646L82.2336 31.7672L81.0388 34.3646H83.3764ZM89.4024 33.6374H89.8699V35.5075C89.4024 35.8711 88.779 36.0789 88.1037 36.0789C86.6492 36.0789 85.5583 35.04 85.5583 33.6374C85.5583 32.2348 86.6492 31.1958 88.1037 31.1958C88.831 31.1958 89.5063 31.4036 89.9219 31.8711L89.6102 32.1828C89.1946 31.8192 88.6751 31.6114 88.1557 31.6114C86.9609 31.6114 86.0777 32.4945 86.0777 33.6374C86.0777 34.7802 86.9609 35.6633 88.1037 35.6633C88.5713 35.6633 89.0388 35.5594 89.4024 35.2477V33.6374ZM91.8959 31.2477H92.4154V35.6633H95.1167V36.0789H91.8959V31.2477ZM96.5193 31.2477H97.0388V36.0789H96.5193V31.2477ZM103.221 31.2477V36.1309H102.805L99.6881 32.1828V36.1309H99.1687V31.2477H99.5842L102.701 35.1958V31.2477H103.221ZM108.779 35.6633V36.1309H105.351V31.2477H108.675V31.7153H105.87V33.4296H108.364V33.8451H105.87V35.6633H108.779ZM116.935 31.2477V36.1309H116.467V33.8971H113.403V36.1309H112.883V31.2477H113.403V33.4296H116.467V31.2477H116.935ZM122.493 35.6633V36.1309H119.065V31.2477H122.39V31.7153H119.584V33.4296H122.078V33.8451H119.584V35.6633H122.493ZM127.532 36.1309L126.441 34.5724C126.303 34.5724 126.164 34.5724 126.026 34.5724H124.727V36.1309H124.208V31.2477H126.026C127.273 31.2477 128 31.8711 128 32.9101C128 33.6893 127.636 34.2088 126.909 34.4685L128.104 36.1309H127.532ZM127.48 32.9101C127.48 32.1309 127.013 31.7153 126.026 31.7153H124.727V34.1568H126.026C127.013 34.1568 127.48 33.6893 127.48 32.9101ZM133.195 35.6633V36.1309H129.766V31.2477H133.091V31.7153H130.286V33.4296H132.779V33.8451H130.286V35.6633H133.195Z" fill="#BF930F"/>
<path fill-rule="evenodd" clip-rule="evenodd" d="M21.8244 40.1308L20.7917 18.3909L21.1015 18.5632C23.2014 19.5968 28.537 25.1437 29.9484 26.6597C29.7074 24.5925 26.4028 18.9766 22.7539 17.3918L22.0998 17.1162L22.7883 16.9784C22.8571 16.9784 28.3993 16.1515 33.4596 16.9095C32.3236 15.8414 28.778 13.3608 21.9966 15.5313L21.4114 15.7381L21.79 15.2213C21.9621 15.0145 25.4733 10.2945 29.3976 8.36514C26.0929 8.60631 21.5146 10.5356 20.2065 14.0154L20 14.5322L19.7935 14.0154C18.4854 10.5356 13.9071 8.60631 10.6024 8.36514C14.5267 10.2945 18.0379 15.0145 18.21 15.2213L18.5886 15.7381L18.0034 15.5313C11.1876 13.3608 7.67642 15.8414 6.54045 16.9095C11.6007 16.1515 17.1429 16.9784 17.2117 16.9784L17.9002 17.1162L17.2461 17.3918C13.5972 18.9766 10.2926 24.5925 10.0516 26.6597C11.463 25.1437 16.7986 19.5968 18.8985 18.5632L19.2083 18.3909L18.1756 40.1308L17.9346 40.0964C7.71084 39.0628 0 30.484 0 20.1825C0 9.12311 8.95009 0.130859 20 0.130859C31.0499 0.130859 40 9.12311 40 20.1825C40 30.484 32.2892 39.0628 22.0654 40.0964L21.8244 40.1308ZM21.2048 19.1145L22.2031 39.6829C32.117 38.546 39.5869 30.2083 39.5869 20.1825C39.5869 9.36428 30.7745 0.578749 19.9656 0.578749C9.15662 0.578749 0.378657 9.36428 0.378657 20.1825C0.378657 30.2083 7.81411 38.546 17.7281 39.6829L18.7263 19.1145C16.179 20.6648 10.0172 27.2454 9.94837 27.3143L9.7074 27.5899L9.60413 27.2109C9.22547 25.4883 12.6678 19.4245 16.4544 17.3229C14.7676 17.1162 10.1205 16.6683 5.98967 17.3918L5.50775 17.4952L5.78313 17.0817C5.81755 17.0473 9.2599 12.6028 17.4527 14.9801C16.3167 13.5675 12.8744 9.60545 9.50086 8.36514L8.50258 8.02061L9.53528 7.9517C11.3941 7.8828 13.6317 8.39959 15.5594 9.32983C17.074 10.0533 19.0017 11.3625 19.9656 13.4297C21.7556 9.67436 27.1601 7.81389 30.3959 7.9517L31.4286 8.02061L30.4647 8.36514C27.0568 9.60545 23.6489 13.5675 22.4785 14.9801C26.6781 13.7742 29.5353 14.3255 31.2565 15.049C33.2186 15.8759 34.1136 17.0473 34.148 17.0817L34.4578 17.4952L33.9415 17.3918C29.8107 16.6683 25.1979 17.1162 23.4768 17.3229C27.2978 19.4245 30.7057 25.4883 30.327 27.2109L30.2582 27.5899L29.9828 27.3143C29.9139 27.2454 23.7522 20.6648 21.2048 19.1145Z" fill="#BF930F"/>
<mask id="mask0_147_11022" style="mask-type:luminance" maskUnits="userSpaceOnUse" x="0" y="0" width="40" height="41">
<path fill-rule="evenodd" clip-rule="evenodd" d="M21.8244 40.1308L20.7917 18.3909L21.1015 18.5632C23.2014 19.5968 28.537 25.1437 29.9484 26.6597C29.7074 24.5925 26.4028 18.9766 22.7539 17.3918L22.0998 17.1162L22.7883 16.9784C22.8571 16.9784 28.3993 16.1515 33.4596 16.9095C32.3236 15.8414 28.778 13.3608 21.9966 15.5313L21.4114 15.7381L21.79 15.2213C21.9621 15.0145 25.4733 10.2945 29.3976 8.36514C26.0929 8.60631 21.5146 10.5356 20.2065 14.0154L20 14.5322L19.7935 14.0154C18.4854 10.5356 13.9071 8.60631 10.6024 8.36514C14.5267 10.2945 18.0379 15.0145 18.21 15.2213L18.5886 15.7381L18.0034 15.5313C11.1876 13.3608 7.67642 15.8414 6.54045 16.9095C11.6007 16.1515 17.1429 16.9784 17.2117 16.9784L17.9002 17.1162L17.2461 17.3918C13.5972 18.9766 10.2926 24.5925 10.0516 26.6597C11.463 25.1437 16.7986 19.5968 18.8985 18.5632L19.2083 18.3909L18.1756 40.1308L17.9346 40.0964C7.71084 39.0628 0 30.484 0 20.1825C0 9.12311 8.95009 0.130859 20 0.130859C31.0499 0.130859 40 9.12311 40 20.1825C40 30.484 32.2892 39.0628 22.0654 40.0964L21.8244 40.1308ZM21.2048 19.1145L22.2031 39.6829C32.117 38.546 39.5869 30.2083 39.5869 20.1825C39.5869 9.36428 30.7745 0.578749 19.9656 0.578749C9.15662 0.578749 0.378657 9.36428 0.378657 20.1825C0.378657 30.2083 7.81411 38.546 17.7281 39.6829L18.7263 19.1145C16.179 20.6648 10.0172 27.2454 9.94837 27.3143L9.7074 27.5899L9.60413 27.2109C9.22547 25.4883 12.6678 19.4245 16.4544 17.3229C14.7676 17.1162 10.1205 16.6683 5.98967 17.3918L5.50775 17.4952L5.78313 17.0817C5.81755 17.0473 9.2599 12.6028 17.4527 14.9801C16.3167 13.5675 12.8744 9.60545 9.50086 8.36514L8.50258 8.02061L9.53528 7.9517C11.3941 7.8828 13.6317 8.39959 15.5594 9.32983C17.074 10.0533 19.0017 11.3625 19.9656 13.4297C21.7556 9.67436 27.1601 7.81389 30.3959 7.9517L31.4286 8.02061L30.4647 8.36514C27.0568 9.60545 23.6489 13.5675 22.4785 14.9801C26.6781 13.7742 29.5353 14.3255 31.2565 15.049C33.2186 15.8759 34.1136 17.0473 34.148 17.0817L34.4578 17.4952L33.9415 17.3918C29.8107 16.6683 25.1979 17.1162 23.4768 17.3229C27.2978 19.4245 30.7057 25.4883 30.327 27.2109L30.2582 27.5899L29.9828 27.3143C29.9139 27.2454 23.7522 20.6648 21.2048 19.1145Z" fill="white"/>
</mask>
<g mask="url(#mask0_147_11022)">
<path d="M21.8244 40.1308L12.8346 40.5579L13.304 50.4406L23.0983 49.0402L21.8244 40.1308ZM20.7917 18.3909L25.1654 10.5251L11.0347 2.66796L11.8019 18.818L20.7917 18.3909ZM21.1015 18.5632L16.7279 26.429L16.9248 26.5385L17.1269 26.638L21.1015 18.5632ZM29.9484 26.6597L23.3613 32.7924L42.0661 52.8831L38.8878 25.6176L29.9484 26.6597ZM22.7539 17.3918L26.3393 9.13687L26.2942 9.11729L26.2489 9.0982L22.7539 17.3918ZM22.0998 17.1162L20.3333 8.29129L-8.3786 14.0386L18.6048 25.4098L22.0998 17.1162ZM22.7883 16.9784V7.97841H21.8964L21.0218 8.15347L22.7883 16.9784ZM33.4596 16.9095L32.1263 25.8102L60.6018 30.0755L39.6245 10.3525L33.4596 16.9095ZM21.9966 15.5313L19.253 6.95974L19.1253 7.00062L18.9989 7.04528L21.9966 15.5313ZM21.4114 15.7381L14.1515 10.4188L-3.07788 33.9338L24.4091 24.2242L21.4114 15.7381ZM21.79 15.2213L14.8736 9.46257L14.6951 9.67698L14.5302 9.90204L21.79 15.2213ZM29.3976 8.36514L33.3685 16.4417L28.7425 -0.610988L29.3976 8.36514ZM20.2065 14.0154L28.5638 17.3555L28.5983 17.2692L28.631 17.1823L20.2065 14.0154ZM20 14.5322L11.6427 17.8723L20 38.7832L28.3573 17.8723L20 14.5322ZM19.7935 14.0154L11.369 17.1823L11.4017 17.2692L11.4362 17.3555L19.7935 14.0154ZM10.6024 8.36514L11.2575 -0.610988L6.63151 16.4417L10.6024 8.36514ZM18.21 15.2213L25.4698 9.90204L25.3049 9.67698L25.1264 9.46257L18.21 15.2213ZM18.5886 15.7381L15.5909 24.2242L43.0779 33.9338L25.8485 10.4188L18.5886 15.7381ZM18.0034 15.5313L21.0011 7.04528L20.8685 6.99842L20.7344 6.95573L18.0034 15.5313ZM6.54044 16.9095L0.375546 10.3525L-20.6018 30.0755L7.87366 25.8102L6.54044 16.9095ZM17.2117 16.9784L18.9782 8.15347L18.1036 7.97841H17.2117V16.9784ZM17.9002 17.1162L21.3952 25.4098L48.3786 14.0386L19.6667 8.29129L17.9002 17.1162ZM17.2461 17.3918L13.7511 9.0982L13.7058 9.11729L13.6607 9.13687L17.2461 17.3918ZM10.0516 26.6597L1.11215 25.6176L-2.06608 52.8831L16.6387 32.7924L10.0516 26.6597ZM18.8985 18.5632L22.8731 26.638L23.0752 26.5385L23.2721 26.429L18.8985 18.5632ZM19.2083 18.3909L28.1981 18.818L28.9653 2.66796L14.8346 10.5251L19.2083 18.3909ZM18.1756 40.1308L16.9017 49.0402L26.696 50.4406L27.1654 40.5579L18.1756 40.1308ZM17.9346 40.0964L19.2084 31.187L19.0246 31.1607L18.8399 31.142L17.9346 40.0964ZM22.0654 40.0964L21.1601 31.142L20.9754 31.1607L20.7916 31.187L22.0654 40.0964ZM21.2048 19.1145L25.884 11.4265L11.393 2.60684L12.2154 19.5508L21.2048 19.1145ZM22.2031 39.6829L13.2137 40.1192L13.6796 49.7194L23.2285 48.6243L22.2031 39.6829ZM17.7281 39.6829L16.7026 48.6243L26.2515 49.7194L26.7175 40.1192L17.7281 39.6829ZM18.7263 19.1145L27.7158 19.5508L28.5381 2.60684L14.0472 11.4265L18.7263 19.1145ZM9.94836 27.3143L3.58167 20.9531L3.36987 21.165L3.17266 21.3906L9.94836 27.3143ZM9.70739 27.5899L1.02399 29.956L5.43641 46.1492L16.4831 33.5136L9.70739 27.5899ZM9.60412 27.2109L0.813976 29.1431L0.861959 29.3614L0.920721 29.577L9.60412 27.2109ZM16.4544 17.3229L20.822 25.1921L45.0277 11.7573L17.5492 8.38977L16.4544 17.3229ZM5.98966 17.3918L4.43694 8.5268L4.26904 8.55621L4.10236 8.59195L5.98966 17.3918ZM5.50774 17.4952L-1.98271 12.5059L-14.2613 30.9397L7.39504 26.2951L5.50774 17.4952ZM5.78312 17.0817L-0.583574 10.7205L-1.21337 11.3508L-1.70732 12.0924L5.78312 17.0817ZM17.4527 14.9801L14.9446 23.6236L42.3471 31.5748L24.4661 9.33999L17.4527 14.9801ZM9.50085 8.36514L12.6066 -0.0820227L12.5221 -0.113078L12.437 -0.142438L9.50085 8.36514ZM8.50257 8.02061L7.90339 -0.959422L5.5664 16.5281L8.50257 8.02061ZM9.53527 7.9517L9.20189 -1.04212L9.06888 -1.03719L8.93609 -1.02833L9.53527 7.9517ZM15.5594 9.32983L11.648 17.4354L11.664 17.4431L11.6801 17.4508L15.5594 9.32983ZM19.9656 13.4297L11.8087 17.233L19.8759 34.5348L28.0899 17.3022L19.9656 13.4297ZM30.3959 7.9517L30.9951 -1.02833L30.887 -1.03554L30.7788 -1.04014L30.3959 7.9517ZM31.4286 8.02061L34.4579 16.4954L32.0278 -0.959422L31.4286 8.02061ZM30.4647 8.36514L27.4354 -0.109712L27.411 -0.101001L27.3867 -0.0921497L30.4647 8.36514ZM22.4785 14.9801L15.5482 9.23804L-3.03827 31.6704L24.9623 23.6306L22.4785 14.9801ZM31.2565 15.049L34.7515 6.75539L34.7441 6.75227L31.2565 15.049ZM34.148 17.0817L41.3503 11.6847L40.9668 11.1729L40.5147 10.7205L34.148 17.0817ZM34.4578 17.4952L32.6913 26.3201L55.7806 30.9419L41.6601 12.0982L34.4578 17.4952ZM33.9415 17.3918L35.708 8.56691L35.6013 8.54556L35.4942 8.5268L33.9415 17.3918ZM23.4768 17.3229L22.4035 8.38715L-5.37784 11.7238L19.1394 25.2088L23.4768 17.3229ZM30.327 27.2109L21.5369 25.2788L21.5014 25.4399L21.4719 25.6023L30.327 27.2109ZM30.2582 27.5899L23.8915 33.9511L36.041 46.1111L39.1133 29.1985L30.2582 27.5899ZM30.8143 39.7038L29.7816 17.9639L11.8019 18.818L12.8346 40.5579L30.8143 39.7038ZM16.4181 26.2567L16.7279 26.429L25.4752 10.6974L25.1654 10.5251L16.4181 26.2567ZM17.1269 26.638C16.7325 26.4439 16.5766 26.3108 16.7428 26.4313C16.8608 26.5169 17.0682 26.6776 17.3711 26.9329C17.9782 27.4446 18.7289 28.1329 19.5436 28.9166C21.1661 30.4774 22.7341 32.1188 23.3613 32.7924L36.5355 20.527C35.7512 19.6846 33.9458 17.7946 32.0226 15.9445C31.0645 15.0228 29.9994 14.0358 28.9714 13.1694C28.1345 12.464 26.6778 11.2768 25.0762 10.4884L17.1269 26.638ZM38.8878 25.6176C38.6559 23.6279 37.902 21.8288 37.3622 20.6947C36.7278 19.3617 35.9143 17.9766 34.9834 16.657C33.3237 14.3041 30.4135 10.9064 26.3393 9.13687L19.1684 25.6468C18.824 25.4972 18.8549 25.431 19.2002 25.7574C19.5109 26.0513 19.8915 26.4895 20.2747 27.0327C20.6563 27.5735 20.9421 28.0791 21.1091 28.43C21.1915 28.6031 21.2126 28.6707 21.1989 28.6306C21.1909 28.607 21.1639 28.5255 21.1309 28.392C21.0996 28.2655 21.0469 28.028 21.0089 27.7017L38.8878 25.6176ZM26.2489 9.0982L25.5949 8.82258L18.6048 25.4098L19.2588 25.6854L26.2489 9.0982ZM23.8663 25.9411L24.5548 25.8033L21.0218 8.15347L20.3333 8.29129L23.8663 25.9411ZM22.7883 25.9784C23.1933 25.9784 23.5173 25.9489 23.5348 25.9474C23.6316 25.9394 23.7082 25.9314 23.7433 25.9277C23.8176 25.9199 23.8777 25.9126 23.8984 25.91C23.9466 25.9042 23.9947 25.898 24.013 25.8956C24.0678 25.8886 24.1149 25.8824 24.182 25.874C24.3099 25.8579 24.4983 25.835 24.7392 25.809C25.2247 25.7566 25.9224 25.6916 26.7486 25.646C28.4746 25.5506 30.4466 25.5586 32.1263 25.8102L34.7928 8.0088C31.4123 7.50244 28.0831 7.54483 25.7557 7.67342C24.5553 7.73974 23.5382 7.83411 22.8071 7.91305C22.4397 7.95272 22.1442 7.98852 21.9361 8.01469C21.8352 8.02738 21.7512 8.03827 21.7148 8.04296C21.6875 8.04648 21.6999 8.04482 21.7228 8.04203C21.7308 8.04106 21.7808 8.03494 21.8477 8.02786C21.8791 8.02453 21.9526 8.01688 22.047 8.00905C22.0621 8.0078 22.3844 7.97841 22.7883 7.97841V25.9784ZM39.6245 10.3525C36.4097 7.32996 29.5275 3.67115 19.253 6.95974L24.7401 24.103C26.6849 23.4805 27.5336 23.7043 27.6041 23.7225C27.727 23.7541 27.5963 23.7501 27.2947 23.4664L39.6245 10.3525ZM18.9989 7.04528L18.4137 7.252L24.4091 24.2242L24.9942 24.0174L18.9989 7.04528ZM28.6712 21.0573L29.0499 20.5405L14.5302 9.90204L14.1515 10.4188L28.6712 21.0573ZM28.7064 20.98C29.1216 20.4814 29.5812 19.8151 30.6777 18.6736C31.8274 17.4765 32.8193 16.7117 33.3685 16.4417L25.4267 0.288504C22.0516 1.9479 19.3258 4.5078 17.6958 6.2048C16.0126 7.95731 14.6306 9.75444 14.8736 9.46257L28.7064 20.98ZM28.7425 -0.610988C25.819 -0.397632 22.5885 0.508692 19.7132 2.09146C16.903 3.63838 13.458 6.39048 11.7821 10.8485L28.631 17.1823C28.4407 17.6884 28.1991 17.9559 28.1373 18.0186C28.0843 18.0723 28.1466 17.996 28.3935 17.8601C28.6333 17.7282 28.9459 17.5962 29.2928 17.4941C29.6448 17.3905 29.918 17.3511 30.0527 17.3412L28.7425 -0.610988ZM11.8493 10.6753L11.6427 11.1921L28.3573 17.8723L28.5638 17.3555L11.8493 10.6753ZM28.3573 11.1921L28.1507 10.6753L11.4362 17.3555L11.6427 17.8723L28.3573 11.1921ZM28.2179 10.8485C26.542 6.39048 23.0969 3.63838 20.2868 2.09146C17.4115 0.508692 14.181 -0.397632 11.2575 -0.610988L9.94733 17.3412C10.082 17.3511 10.3552 17.3905 10.7072 17.4941C11.0541 17.5962 11.3667 17.7282 11.6065 17.8601C11.8534 17.996 11.9157 18.0723 11.8627 18.0186C11.8009 17.9559 11.5593 17.6884 11.369 17.1823L28.2179 10.8485ZM6.63151 16.4417C7.18064 16.7117 8.17257 17.4765 9.32232 18.6736C10.4188 19.8151 10.8784 20.4814 11.2936 20.98L25.1264 9.46257C25.3694 9.75444 23.9874 7.95731 22.3042 6.2048C20.6742 4.5078 17.9484 1.9479 14.5733 0.288504L6.63151 16.4417ZM10.9501 20.5405L11.3288 21.0573L25.8485 10.4188L25.4698 9.90204L10.9501 20.5405ZM21.5863 7.252L21.0011 7.04528L15.0058 24.0174L15.5909 24.2242L21.5863 7.252ZM20.7344 6.95573C15.8945 5.41442 11.5815 5.341 7.89612 6.29069C4.25496 7.22899 1.79519 9.01776 0.375546 10.3525L12.7053 23.4664C12.4217 23.7332 12.2855 23.7476 12.3879 23.7212C12.446 23.7062 13.2966 23.4778 15.2725 24.107L20.7344 6.95573ZM7.87366 25.8102C9.55341 25.5586 11.5254 25.5506 13.2514 25.646C14.0776 25.6916 14.7753 25.7566 15.2608 25.809C15.5017 25.835 15.6901 25.8579 15.818 25.874C15.8851 25.8824 15.9322 25.8886 15.987 25.8956C16.0053 25.898 16.0534 25.9042 16.1016 25.91C16.1223 25.9126 16.1824 25.9199 16.2567 25.9277C16.2918 25.9314 16.3684 25.9394 16.4652 25.9474C16.4827 25.9489 16.8067 25.9784 17.2117 25.9784V7.97841C17.6156 7.97841 17.9379 8.0078 17.953 8.00905C18.0474 8.01688 18.1209 8.02453 18.1523 8.02786C18.2191 8.03494 18.2692 8.04106 18.2772 8.04203C18.3001 8.04482 18.3125 8.04648 18.2852 8.04296C18.2488 8.03827 18.1648 8.02738 18.0639 8.01469C17.8558 7.98852 17.5603 7.95272 17.1929 7.91305C16.4618 7.83411 15.4447 7.73974 14.2443 7.67342C11.9169 7.54483 8.58772 7.50244 5.20721 8.0088L7.87366 25.8102ZM15.4452 25.8033L16.1337 25.9411L19.6667 8.29129L18.9782 8.15347L15.4452 25.8033ZM14.4051 8.82258L13.7511 9.0982L20.7412 25.6854L21.3952 25.4098L14.4051 8.82258ZM13.6607 9.13687C9.58644 10.9064 6.67633 14.3041 5.01656 16.657C4.08568 17.9766 3.27217 19.3617 2.63774 20.6946C2.09794 21.8288 1.34408 23.6279 1.11215 25.6176L18.9911 27.7017C18.9531 28.028 18.9004 28.2655 18.8691 28.392C18.8361 28.5255 18.8091 28.607 18.8011 28.6306C18.7874 28.6707 18.8085 28.6031 18.8909 28.43C19.0579 28.0791 19.3437 27.5735 19.7253 27.0327C20.1085 26.4895 20.4891 26.0513 20.7998 25.7575C21.1451 25.431 21.176 25.4972 20.8316 25.6468L13.6607 9.13687ZM16.6387 32.7924C17.2659 32.1188 18.8339 30.4774 20.4564 28.9166C21.2711 28.1329 22.0218 27.4446 22.6289 26.9329C22.9317 26.6776 23.1392 26.5169 23.2572 26.4313C23.4234 26.3108 23.2675 26.4439 22.8731 26.638L14.9238 10.4884C13.3222 11.2768 11.8655 12.464 11.0286 13.1694C10.0006 14.0358 8.93547 15.0228 7.97735 15.9445C6.05419 17.7946 4.24875 19.6846 3.46452 20.527L16.6387 32.7924ZM23.2721 26.429L23.5819 26.2567L14.8346 10.5251L14.5248 10.6974L23.2721 26.429ZM10.2184 17.9639L9.18568 39.7038L27.1654 40.5579L28.1981 18.818L10.2184 17.9639ZM19.4494 31.2214L19.2084 31.187L16.6607 49.0058L16.9017 49.0402L19.4494 31.2214ZM18.8399 31.142C13.2475 30.5766 8.99999 25.899 8.99999 20.1825H-9.00001C-9.00001 35.0689 2.17417 47.5489 17.0293 49.0507L18.8399 31.142ZM8.99999 20.1825C8.99999 14.0661 13.9481 9.13086 20 9.13086V-8.86914C3.95207 -8.86914 -9.00001 4.18003 -9.00001 20.1825H8.99999ZM20 9.13086C26.0519 9.13086 31 14.0662 31 20.1825H49C49 4.18003 36.0479 -8.86914 20 -8.86914V9.13086ZM31 20.1825C31 25.899 26.7525 30.5766 21.1601 31.142L22.9707 49.0507C37.8258 47.5489 49 35.0689 49 20.1825H31ZM20.7916 31.187L20.5506 31.2214L23.0983 49.0402L23.3393 49.0058L20.7916 31.187ZM12.2154 19.5508L13.2137 40.1192L31.1925 39.2466L30.1942 18.6782L12.2154 19.5508ZM23.2285 48.6243C37.6783 46.9672 48.5869 34.7904 48.5869 20.1825H30.5869C30.5869 25.6263 26.5558 30.1248 21.1777 30.7415L23.2285 48.6243ZM48.5869 20.1825C48.5869 4.38046 35.7318 -8.42125 19.9656 -8.42125V9.57875C25.8172 9.57875 30.5869 14.3481 30.5869 20.1825H48.5869ZM19.9656 -8.42125C4.17875 -8.42125 -8.62135 4.40103 -8.62135 20.1825H9.37865C9.37865 14.3275 14.1345 9.57875 19.9656 9.57875V-8.42125ZM-8.62135 20.1825C-8.62135 34.7683 2.23085 46.9647 16.7026 48.6243L18.7535 30.7415C13.3974 30.1273 9.37865 25.6484 9.37865 20.1825H-8.62135ZM26.7175 40.1192L27.7158 19.5508L9.73692 18.6782L8.73862 39.2466L26.7175 40.1192ZM14.0472 11.4265C12.6537 12.2746 11.268 13.459 10.2978 14.3247C9.20027 15.304 8.06788 16.3928 7.07817 17.3719C6.07846 18.361 5.16962 19.2925 4.50993 19.9771C3.66398 20.855 3.5463 20.9885 3.58167 20.9531L16.3151 33.6755C16.4296 33.5609 16.7254 33.247 16.7663 33.2039C16.9346 33.0268 17.1757 32.7739 17.4716 32.4669C18.0662 31.8499 18.8699 31.0264 19.7377 30.1679C20.6154 29.2995 21.5054 28.4482 22.2818 27.7555C23.1855 26.9491 23.5253 26.7295 23.4055 26.8025L14.0472 11.4265ZM3.17266 21.3906L2.93168 21.6662L16.4831 33.5136L16.7241 33.2379L3.17266 21.3906ZM18.3908 25.2238L18.2875 24.8448L0.920721 29.577L1.02399 29.956L18.3908 25.2238ZM18.3943 25.2788C18.5762 26.1063 18.586 26.7784 18.5705 27.183C18.5544 27.6047 18.503 27.9209 18.4681 28.1003C18.4013 28.4425 18.3343 28.589 18.3683 28.5018C18.433 28.3357 18.641 27.891 19.0297 27.2886C19.4061 26.7052 19.8364 26.1536 20.2477 25.7222C20.689 25.2592 20.9079 25.1444 20.822 25.1921L12.0868 9.45374C8.35198 11.5266 5.56794 14.952 3.90487 17.5295C3.00702 18.921 2.18872 20.4467 1.59616 21.9677C1.30152 22.724 0.998152 23.6432 0.800844 24.655C0.631607 25.5229 0.386465 27.1982 0.813976 29.1431L18.3943 25.2788ZM17.5492 8.38977C15.6972 8.16281 9.94522 7.56202 4.43694 8.5268L7.54239 26.2569C8.80701 26.0353 10.3541 25.9666 11.9129 26.0057C13.4298 26.0437 14.7105 26.1765 15.3596 26.2561L17.5492 8.38977ZM4.10236 8.59195L3.62043 8.69531L7.39504 26.2951L7.87697 26.1917L4.10236 8.59195ZM12.9982 22.4845L13.2736 22.071L-1.70732 12.0924L-1.98271 12.5059L12.9982 22.4845ZM12.1498 23.4429C12.3415 23.2511 12.4826 23.0917 12.5118 23.0588C12.5652 22.9987 12.6066 22.9504 12.6262 22.9276C12.6655 22.8815 12.6965 22.8443 12.7017 22.8381C12.7071 22.8316 12.7115 22.8263 12.7138 22.8235C12.716 22.8208 12.7182 22.8182 12.7186 22.8177C12.7203 22.8156 12.7186 22.8177 12.7164 22.8204C12.7034 22.8359 12.6818 22.8618 12.6555 22.8924C12.6033 22.9531 12.5526 23.0095 12.5038 23.0613C12.4076 23.1632 12.3306 23.2343 12.2726 23.2833C12.1568 23.3809 12.1082 23.397 12.1359 23.385C12.1488 23.3794 12.3109 23.3074 12.6827 23.2865C13.0597 23.2654 13.7921 23.2892 14.9446 23.6236L19.9607 6.33665C13.94 4.58966 8.87371 5.18192 4.98116 6.86807C3.11987 7.67434 1.69211 8.6594 0.665264 9.52576C-0.0926361 10.1652 -1.49982 11.6375 -0.583574 10.7205L12.1498 23.4429ZM24.4661 9.33999C23.7296 8.42414 22.2855 6.72611 20.4389 5.01197C18.7413 3.43606 15.9847 1.15999 12.6066 -0.0820227L6.39515 16.8123C6.29718 16.7762 6.45284 16.8227 6.86063 17.1069C7.24495 17.3747 7.69857 17.7453 8.19276 18.2041C9.19474 19.1342 10.0397 20.1235 10.4392 20.6202L24.4661 9.33999ZM12.437 -0.142438L11.4388 -0.486969L5.5664 16.5281L6.56468 16.8727L12.437 -0.142438ZM9.10176 17.0006L10.1345 16.9317L8.93609 -1.02833L7.90339 -0.959422L9.10176 17.0006ZM9.86866 16.9455C9.85711 16.9459 9.91358 16.9434 10.0382 16.9567C10.1604 16.9697 10.3202 16.9948 10.5095 17.0383C10.902 17.1283 11.3048 17.2698 11.648 17.4354L19.4708 1.22423C16.4437 -0.236547 12.7549 -1.17382 9.20189 -1.04212L9.86866 16.9455ZM11.6801 17.4508C11.7801 17.4986 11.8778 17.5519 11.9639 17.606C12.0508 17.6606 12.1028 17.7014 12.1243 17.7198C12.1458 17.7382 12.1156 17.7159 12.0568 17.6424C11.9957 17.5661 11.9008 17.4305 11.8087 17.233L28.1225 9.62646C25.8806 4.81822 21.769 2.32194 19.4387 1.2088L11.6801 17.4508ZM28.0899 17.3022C27.9033 17.6935 27.7233 17.8289 27.7863 17.7743C27.8525 17.717 28.0546 17.5671 28.4229 17.3964C28.7845 17.2289 29.1848 17.098 29.5525 17.0186C29.945 16.9338 30.1115 16.9477 30.0129 16.9435L30.7788 -1.04014C27.5237 -1.17878 23.94 -0.36502 20.8542 1.06507C17.811 2.47542 13.9693 5.09287 11.8413 9.55727L28.0899 17.3022ZM29.7967 16.9317L30.8294 17.0006L32.0278 -0.959422L30.9951 -1.02833L29.7967 16.9317ZM28.3992 -0.454243L27.4354 -0.109712L33.494 16.84L34.4579 16.4954L28.3992 -0.454243ZM27.3867 -0.0921497C23.9757 1.14927 21.2102 3.4332 19.5095 5.01197C17.6605 6.72838 16.2257 8.42041 15.5482 9.23804L29.4087 20.7222C29.9017 20.1272 30.7561 19.1319 31.7556 18.2041C32.2498 17.7453 32.7001 17.3778 33.0807 17.1132C33.4833 16.8334 33.6376 16.7879 33.5427 16.8224L27.3867 -0.0921497ZM24.9623 23.6306C26.1793 23.2811 26.942 23.2582 27.3179 23.2783C27.6875 23.298 27.817 23.366 27.7688 23.3458L34.7441 6.75227C31.0622 5.20455 26.094 4.57834 19.9947 6.32966L24.9623 23.6306ZM27.7614 23.3426C27.7754 23.3485 27.7672 23.3464 27.7399 23.3292C27.7133 23.3125 27.6704 23.2827 27.6115 23.2329C27.5521 23.1826 27.4772 23.1126 27.3866 23.0157C27.3403 22.9663 27.2959 22.9162 27.2551 22.8685C27.2361 22.8463 27.2212 22.8285 27.2271 22.8355C27.228 22.8366 27.2347 22.8446 27.2416 22.8529C27.2481 22.8606 27.2638 22.8793 27.2834 22.9024C27.2937 22.9145 27.3079 22.9312 27.3249 22.9509C27.3415 22.9702 27.3653 22.9977 27.3942 23.0304C27.409 23.0472 27.4266 23.0671 27.4467 23.0895C27.4666 23.1116 27.4909 23.1386 27.519 23.1691C27.5467 23.1992 27.5817 23.237 27.6228 23.2802C27.6631 23.3226 27.7169 23.3784 27.7813 23.4429L40.5147 10.7205C40.7222 10.9281 40.8742 11.1019 40.8974 11.1281C40.9487 11.1864 40.9876 11.2321 41.0012 11.2481C41.0267 11.2781 41.0499 11.306 41.0358 11.2891C41.0238 11.2748 40.9843 11.2274 40.9337 11.1683C40.8297 11.0467 40.6943 10.893 40.5287 10.716C40.1992 10.3639 39.7714 9.94295 39.2387 9.49217C38.1732 8.59056 36.6901 7.57234 34.7515 6.75539L27.7614 23.3426ZM26.9458 22.4787L27.2556 22.8922L41.6601 12.0982L41.3503 11.6847L26.9458 22.4787ZM36.2243 8.67027L35.708 8.56691L32.175 26.2167L32.6913 26.3201L36.2243 8.67027ZM35.4942 8.5268C29.9842 7.56172 24.2615 8.16401 22.4035 8.38715L24.55 26.2587C26.1344 26.0684 29.6371 25.7749 32.3888 26.2569L35.4942 8.5268ZM19.1394 25.2088C19.0531 25.1613 19.2687 25.2727 19.7039 25.7283C20.11 26.1536 20.5351 26.6988 20.9069 27.277C21.2907 27.8739 21.4954 28.3149 21.5586 28.4785C21.5918 28.5644 21.5257 28.4185 21.4602 28.078C21.4259 27.8996 21.3757 27.5858 21.3605 27.1673C21.3458 26.7659 21.3565 26.0995 21.5369 25.2788L39.1172 29.1431C39.5419 27.2106 39.3029 25.5448 39.136 24.6773C38.9417 23.6673 38.6416 22.7486 38.3488 21.9909C37.7602 20.4674 36.9451 18.9381 36.0466 17.541C34.3814 14.9516 31.5873 11.5123 27.8142 9.43707L19.1394 25.2088ZM21.4719 25.6023L21.4031 25.9813L39.1133 29.1985L39.1821 28.8195L21.4719 25.6023ZM36.6249 21.2287L36.3495 20.9531L23.6161 33.6755L23.8915 33.9511L36.6249 21.2287ZM36.3495 20.9531C36.3848 20.9885 36.2672 20.855 35.4212 19.9771C34.7615 19.2925 33.8527 18.361 32.853 17.3719C31.8633 16.3928 30.7309 15.304 29.6333 14.3247C28.6631 13.459 27.2775 12.2746 25.884 11.4265L16.5257 26.8025C16.4058 26.7295 16.7457 26.9491 17.6494 27.7555C18.4258 28.4482 19.3157 29.2995 20.1935 30.1679C21.0613 31.0264 21.865 31.8499 22.4596 32.4669C22.7554 32.7739 22.9965 33.0268 23.1648 33.2039C23.2057 33.247 23.5016 33.5609 23.6161 33.6755L36.3495 20.9531Z" fill="#BF930F"/>
</g>
</g>
<defs>
<clipPath id="clip0_147_11022">
<rect width="197" height="41" fill="white"/>
</clipPath>
</defs>
</svg>
