<svg width="116" height="41" viewBox="0 0 116 41" fill="none" xmlns="http://www.w3.org/2000/svg">
<g clip-path="url(#clip0_147_11034)">
<path fill-rule="evenodd" clip-rule="evenodd" d="M52.9797 14.4093V1.67725H57.2237C57.931 1.67725 58.5441 1.78336 59.0628 1.99556C59.5815 2.20776 60.0177 2.4907 60.3714 2.84436C60.725 3.17446 60.9844 3.57528 61.1494 4.04684C61.3145 4.5184 61.397 5.00175 61.397 5.49689C61.397 6.03918 61.3027 6.54611 61.1141 7.01767C60.9019 7.46565 60.6071 7.87826 60.2299 8.25551C59.8527 8.60918 59.3811 8.88032 58.8152 9.06894C58.2493 9.28115 57.5892 9.38725 56.8347 9.38725C56.4103 9.38725 56.0212 9.36367 55.6676 9.31652C55.2903 9.26936 54.9484 9.19863 54.6419 9.10431V14.4093H52.9797ZM55.4907 8.57381C55.7972 8.59739 56.1391 8.60918 56.5164 8.60918C57.0587 8.60918 57.5302 8.51487 57.931 8.32624C58.3083 8.13762 58.6266 7.90184 58.886 7.6189C59.1453 7.33597 59.3221 7.01767 59.4165 6.664C59.5343 6.28675 59.5933 5.92129 59.5933 5.56762C59.5933 5.21395 59.5343 4.86028 59.4165 4.50661C59.2986 4.12936 59.1099 3.78748 58.8506 3.48097C58.5912 3.17445 58.2729 2.93867 57.8957 2.77363C57.4949 2.58501 57.0469 2.4907 56.5517 2.4907H54.6419V8.36161C54.8777 8.45592 55.1606 8.52665 55.4907 8.57381ZM63.3068 14.4093H62.458L67.8692 1.67725H68.7533L74.695 14.4093H72.9266L71.1937 10.6604H64.8983L63.3068 14.4093ZM67.8692 3.72854L65.252 9.84702H70.8046L67.9399 3.72854H67.8692ZM85.6234 14.4093H77.4182V1.71262H79.0805V13.4191H85.6234V14.4093ZM95.4908 12.6056L101.362 1.67725H102.635V14.4093H100.973V4.11757H100.902L95.1725 14.6215H94.8541L89.2308 4.04684H89.1601V14.4093H88.3466V1.67725H89.5845L95.42 12.6056H95.4908ZM48.0283 19.007C48.547 19.2192 48.9596 19.5022 49.2661 19.8558C49.5962 20.1859 49.8202 20.5396 49.9381 20.9168C50.056 21.3177 50.115 21.6713 50.115 21.9779C50.115 22.3551 50.056 22.7324 49.9381 23.1096C49.8202 23.4868 49.6316 23.8405 49.3722 24.1706C49.1129 24.5007 48.771 24.7718 48.3466 24.984C47.9222 25.1962 47.4153 25.3259 46.8258 25.3731V25.4438L47.038 25.5499C47.1795 25.6207 47.2974 25.7032 47.3917 25.7975C47.486 25.9154 47.6157 26.0922 47.7807 26.328C47.9458 26.5638 48.1698 26.9057 48.4527 27.3536C48.7356 27.8016 49.1365 28.3911 49.6552 29.122C49.8202 29.3813 49.9735 29.6171 50.115 29.8293C50.28 30.0179 50.445 30.183 50.6101 30.3245C50.7751 30.4659 50.9638 30.572 51.176 30.6428C51.3646 30.7135 51.5886 30.7489 51.8479 30.7489C51.8951 30.7489 51.954 30.7489 52.0248 30.7489C52.0719 30.7253 52.1309 30.7135 52.2016 30.7135V31.3855C52.0366 31.4798 51.8715 31.5387 51.7065 31.5623C51.5178 31.5859 51.2938 31.5977 51.0345 31.5977C50.6808 31.5977 50.3625 31.5505 50.0796 31.4562C49.8438 31.3619 49.6198 31.2322 49.4076 31.0672C49.1954 30.9021 48.995 30.7017 48.8064 30.4659C48.6413 30.2301 48.4763 29.9826 48.3112 29.7232L46.8612 27.6012C46.649 27.2475 46.4604 26.9528 46.2953 26.717C46.1303 26.5048 45.9652 26.328 45.8002 26.1865C45.6116 26.0215 45.3994 25.9154 45.1636 25.8682C44.9514 25.7975 44.6802 25.7621 44.3501 25.7621H43.5367V31.3855H41.8745V18.6534H46.0124C46.814 18.6534 47.486 18.7713 48.0283 19.007ZM45.4111 24.9487C45.8827 24.9487 46.3071 24.8662 46.6844 24.7011C47.0616 24.5361 47.3681 24.3121 47.6039 24.0291C47.8633 23.7698 48.0519 23.4751 48.1698 23.145C48.3112 22.7913 48.382 22.4494 48.382 22.1193C48.382 21.7421 48.3112 21.3884 48.1698 21.0583C48.0283 20.7282 47.8279 20.4571 47.5685 20.2449C47.3092 19.9855 46.9909 19.7969 46.6136 19.679C46.2364 19.5375 45.8238 19.4668 45.3758 19.4668H43.5367V24.9487H45.4111ZM63.13 19.679H56.5871V24.2413H62.2104V25.0548H56.5871V30.3952H63.13V31.3855H54.9249V18.6534H63.13V19.679ZM65.7471 28.9451C65.8179 29.2517 65.9829 29.5346 66.2423 29.794C66.4781 30.0769 66.8199 30.3245 67.2679 30.5367C67.7395 30.7253 68.3525 30.8196 69.107 30.8196C70.0737 30.8196 70.84 30.6428 71.4059 30.2891C71.9953 29.9118 72.29 29.3342 72.29 28.5561C72.29 27.9195 72.1014 27.4126 71.7242 27.0353C71.3705 26.6581 70.9107 26.3516 70.3448 26.1158C69.8026 25.8329 69.2131 25.5971 68.5765 25.4085C67.9399 25.1962 67.3387 24.9487 66.7728 24.6657C66.2305 24.3592 65.7707 23.9938 65.3935 23.5694C65.0398 23.1214 64.863 22.5437 64.863 21.8364C64.863 21.2941 64.9691 20.8107 65.1813 20.3863C65.4171 19.9619 65.7236 19.6083 66.1008 19.3253C66.4781 19.0424 66.9143 18.8302 67.4094 18.6887C67.9281 18.5473 68.4704 18.4765 69.0363 18.4765C69.555 18.4765 70.0619 18.5473 70.557 18.6887C71.0522 18.8066 71.4884 18.9952 71.8656 19.2546C72.2665 19.4904 72.5965 19.7851 72.8559 20.1388C73.0917 20.4924 73.2449 20.8933 73.3157 21.3413H72.0778C71.9835 20.6339 71.6652 20.1152 71.1229 19.7851C70.5806 19.455 69.9087 19.29 69.107 19.29C68.6354 19.29 68.2228 19.3489 67.8692 19.4668C67.4919 19.5611 67.1854 19.7144 66.9496 19.9266C66.6903 20.0916 66.5016 20.3038 66.3837 20.5632C66.2659 20.8225 66.2069 21.0937 66.2069 21.3766C66.2069 21.8953 66.3837 22.3197 66.7374 22.6498C67.1147 22.9563 67.5862 23.2275 68.1521 23.4633C68.718 23.699 69.331 23.9348 69.9912 24.1706C70.6514 24.3828 71.2644 24.654 71.8303 24.984C72.3961 25.2906 72.8677 25.6914 73.2449 26.1865C73.6222 26.6581 73.8108 27.2711 73.8108 28.0256C73.8108 28.5679 73.7047 29.063 73.4925 29.511C73.2567 29.959 72.9384 30.3362 72.5376 30.6428C72.1368 30.9493 71.6534 31.1968 71.0876 31.3855C70.5453 31.5505 69.9204 31.633 69.2131 31.633C68.5293 31.633 67.8927 31.5505 67.3033 31.3855C66.7138 31.2204 66.2069 30.9964 65.7825 30.7135C65.3581 30.407 65.0162 30.0415 64.7569 29.6171C64.5211 29.1927 64.3914 28.7212 64.3678 28.2024H65.6057C65.6057 28.3911 65.6528 28.6386 65.7471 28.9451ZM76.3219 22.862C76.5812 22.084 76.9938 21.3766 77.5597 20.74C78.1256 20.0798 78.8329 19.5375 79.6817 19.1131C80.5541 18.6887 81.5915 18.4765 82.794 18.4765C83.9965 18.4765 85.0339 18.6887 85.9063 19.1131C86.8023 19.5375 87.545 20.0798 88.1344 20.74C88.7239 21.4002 89.1601 22.1193 89.443 22.8974C89.7024 23.6519 89.832 24.371 89.832 25.0548C89.832 25.5028 89.7731 25.9743 89.6552 26.4695C89.5373 26.9646 89.3487 27.4597 89.0893 27.9549C88.83 28.45 88.5117 28.9216 88.1344 29.3695C87.7572 29.794 87.2974 30.183 86.7551 30.5367C86.2364 30.8668 85.6469 31.1379 84.9868 31.3501C84.3266 31.5387 83.5957 31.633 82.794 31.633C81.5915 31.633 80.5541 31.4208 79.6817 30.9964C78.8329 30.5484 78.1256 30.0062 77.5597 29.3695C76.9938 28.7094 76.5812 28.002 76.3219 27.2475C76.0625 26.4695 75.9328 25.7385 75.9328 25.0548C75.9328 24.371 76.0625 23.6401 76.3219 22.862ZM78.1256 27.389C78.3849 28.0963 78.7386 28.7094 79.1866 29.2281C79.6346 29.7232 80.1769 30.1123 80.8135 30.3952C81.4265 30.6781 82.0985 30.8196 82.8294 30.8196C83.5367 30.8196 84.2087 30.6781 84.8453 30.3952C85.4819 30.1123 86.036 29.7232 86.5075 29.2281C86.9791 28.7094 87.3564 28.0963 87.6393 27.389C87.9222 26.6817 88.0637 25.9036 88.0637 25.0548C88.0637 24.206 87.9222 23.4279 87.6393 22.7206C87.3564 22.0132 86.9791 21.4002 86.5075 20.8815C86.036 20.3863 85.4819 19.9973 84.8453 19.7144C84.2087 19.4314 83.5367 19.29 82.8294 19.29C82.0985 19.29 81.4265 19.4314 80.8135 19.7144C80.1769 19.9973 79.6346 20.3863 79.1866 20.8815C78.7386 21.4002 78.3849 22.0132 78.1256 22.7206C77.8662 23.4279 77.7365 24.206 77.7365 25.0548C77.7365 25.9036 77.8662 26.6817 78.1256 27.389ZM99.0628 19.0424C99.6051 19.2546 100.03 19.5375 100.336 19.8912C100.643 20.1977 100.855 20.5514 100.973 20.9522C101.114 21.3295 101.185 21.6831 101.185 22.0132C101.185 22.3905 101.126 22.7677 101.008 23.145C100.89 23.5222 100.69 23.8759 100.407 24.206C100.147 24.5361 99.8055 24.8072 99.3811 25.0194C98.9803 25.2316 98.4852 25.3613 97.8957 25.4085V25.4792L98.0725 25.5499C98.214 25.6207 98.3319 25.715 98.4262 25.8329C98.5441 25.9507 98.6856 26.1276 98.8506 26.3634C99.0157 26.5991 99.2396 26.941 99.5226 27.389C99.7819 27.837 100.171 28.4264 100.69 29.1573C100.855 29.4167 101.02 29.6525 101.185 29.8647C101.35 30.0533 101.515 30.2184 101.68 30.3598C101.845 30.5013 102.022 30.6074 102.21 30.6781C102.399 30.7489 102.623 30.7842 102.882 30.7842C102.953 30.7842 103.012 30.7842 103.059 30.7842C103.13 30.7606 103.189 30.7489 103.236 30.7489V31.4208C103.071 31.5151 102.906 31.5741 102.741 31.5977C102.576 31.6212 102.364 31.633 102.104 31.633C101.727 31.633 101.409 31.5859 101.149 31.4916C100.89 31.3973 100.654 31.2676 100.442 31.1025C100.254 30.9375 100.065 30.7371 99.8763 30.5013C99.7112 30.2655 99.5344 30.0062 99.3457 29.7232L97.8957 27.6012C97.6835 27.2711 97.4949 26.9882 97.3298 26.7524C97.1884 26.5166 97.0233 26.328 96.8347 26.1865C96.6461 26.0451 96.4457 25.9507 96.2335 25.9036C95.9977 25.8329 95.7147 25.7975 95.3847 25.7975H94.5712V31.4208H92.9443V18.6887H97.0469C97.8721 18.6887 98.5441 18.8066 99.0628 19.0424ZM96.4457 24.984C96.9408 24.984 97.3652 24.9015 97.7189 24.7365C98.0961 24.5479 98.4144 24.3239 98.6738 24.0645C98.9331 23.7816 99.1218 23.4751 99.2397 23.145C99.3811 22.8149 99.4519 22.4848 99.4519 22.1547C99.4519 21.7774 99.3693 21.4238 99.2043 21.0937C99.0864 20.7636 98.886 20.4807 98.603 20.2449C98.3437 20.0091 98.0254 19.8205 97.6481 19.679C97.2945 19.5611 96.8819 19.5022 96.4103 19.5022H94.5712V24.984H96.4457ZM109.036 19.679H104.156V18.6887H115.544V19.679H110.699V31.4208H109.036V19.679Z" fill="#BF930F"/>
<path fill-rule="evenodd" clip-rule="evenodd" d="M51.0345 39.3785V40.5809H50.6808V39.3785L49.3015 37.115H49.6906L50.893 39.0602L52.0601 37.115H52.4492L51.0345 39.3785ZM52.9089 38.848C52.9089 37.8223 53.687 37.0796 54.748 37.0796C55.7737 37.0796 56.5517 37.8223 56.5517 38.848C56.5517 39.8736 55.7737 40.6163 54.748 40.6163C53.687 40.6163 52.9089 39.8382 52.9089 38.848ZM56.1981 38.848C56.1981 37.9991 55.5615 37.3979 54.748 37.3979C53.8992 37.3979 53.298 37.9991 53.298 38.848C53.298 39.6614 53.8992 40.2626 54.748 40.2626C55.5615 40.2626 56.1981 39.6614 56.1981 38.848ZM57.7542 39.0955V37.115H58.1079V39.0955C58.1079 39.909 58.4969 40.2626 59.1689 40.2626C59.8409 40.2626 60.2299 39.909 60.2299 39.0955V37.115H60.5836V39.0955C60.5836 40.0858 60.0531 40.6163 59.1689 40.6163C58.2847 40.6163 57.7542 40.0858 57.7542 39.0955ZM64.4739 40.5809L63.6605 39.4492C63.5898 39.4728 63.4955 39.4846 63.3776 39.4846H62.458V40.5809H62.1044V37.115H63.3776C64.2617 37.115 64.7922 37.5394 64.7922 38.2821C64.7922 38.848 64.5093 39.237 64.0142 39.3785L64.863 40.5809H64.4739ZM64.4386 38.2821C64.4386 37.7516 64.0849 37.4333 63.3776 37.4333H62.458V39.1663H63.3776C64.0849 39.1663 64.4386 38.848 64.4386 38.2821ZM68.435 37.4333H67.2326V37.115H70.0265V37.4333H68.8241V40.5809H68.435V37.4333ZM73.0327 39.6614H71.0876L70.6632 40.5809H70.2741L71.8656 37.115H72.2193L73.8108 40.5809H73.4218L73.0327 39.6614ZM72.8913 39.3785L72.0778 37.504L71.229 39.3785H72.8913ZM77.206 38.848H77.5597V40.1565C77.2414 40.4748 76.7816 40.6163 76.2865 40.6163C75.2255 40.6163 74.4474 39.8736 74.4474 38.848C74.4474 37.8223 75.2255 37.0796 76.2865 37.0796C76.817 37.0796 77.2768 37.2564 77.5597 37.5747L77.3475 37.8223C77.0646 37.5394 76.7109 37.3979 76.3219 37.3979C75.4377 37.3979 74.8011 38.0345 74.8011 38.848C74.8011 39.6614 75.4377 40.298 76.2865 40.298C76.6402 40.298 76.9231 40.2273 77.206 40.0151V38.848ZM78.9744 37.115H79.3634V40.2626H81.3086V40.5809H78.9744V37.115ZM82.2989 37.115H82.6525V40.5809H82.2989V37.115ZM87.0734 37.115V40.5809H86.7905L84.5624 37.7869V40.5809H84.2087V37.115H84.4916L86.7197 39.9443V37.115H87.0734ZM91.0699 40.2626V40.5809H88.5942V37.115H90.9991V37.4333H88.9832V38.6711H90.7516V38.9894H88.9832V40.2626H91.0699ZM96.9054 37.115V40.5809H96.5518V38.9894H94.3944V40.5809H94.0053V37.115H94.3944V38.6711H96.5518V37.115H96.9054ZM100.867 40.2626V40.5809H98.4262V37.115H100.796V37.4333H98.7799V38.6711H100.584V38.9894H98.7799V40.2626H100.867ZM104.509 40.5809L103.696 39.4846C103.625 39.4846 103.543 39.4846 103.448 39.4846H102.493V40.5809H102.14V37.115H103.448C104.332 37.115 104.863 37.5747 104.863 38.3175C104.863 38.848 104.58 39.237 104.05 39.4138L104.898 40.5809H104.509ZM104.509 38.3175C104.509 37.7516 104.12 37.4333 103.448 37.4333H102.529V39.1663H103.448C104.12 39.1663 104.509 38.848 104.509 38.3175ZM108.577 40.2626V40.5809H106.136V37.115H108.506V37.4333H106.49V38.6711H108.294V38.9894H106.49V40.2626H108.577Z" fill="#BF930F"/>
<path d="M23.519 29.6464C22.7056 29.7171 20.0884 29.8232 18.9567 27.2414C17.6127 24.1291 18.0018 13.5898 18.0018 13.5898L18.0725 12.8471C18.3201 11.2202 19.4872 11.5385 20.5836 11.8922C21.2202 12.3873 21.786 12.6702 21.786 12.6702L21.9629 12.1044C21.9275 12.741 22.8824 13.9435 22.8824 13.9435L23.2361 13.3069C23.0239 14.191 24.1203 15.9594 24.1203 15.9594L24.4386 15.2167C24.1556 16.313 24.7922 17.3387 24.7922 17.3387L25.0752 16.8082C24.7922 17.7631 25.1459 18.7534 25.1459 18.7534L25.4642 18.2582C25.1459 18.7534 25.5349 20.2741 25.8532 20.84C27.374 18.3997 27.5509 13.7313 22.5288 10.619C23.0946 10.6543 23.519 10.6543 23.519 10.6543L23.4129 10.0531C23.6959 10.6543 25.1105 11.2202 25.1105 11.2202V10.5129C25.3581 11.397 27.1618 12.4227 27.1618 12.4227L27.0911 11.6446C27.3387 12.741 28.3997 13.3069 28.3997 13.3069V12.741C28.6119 13.6959 29.3899 14.4032 29.3899 14.4032L29.4253 13.802C29.3899 14.4032 30.4509 15.5703 30.9814 15.8886C31.1937 12.8117 28.7533 8.14324 21.6092 8.46154C22.458 8.14324 23.0593 7.71883 23.0593 7.71883L22.6702 7.25906C23.2007 7.61273 24.7215 7.3298 24.7215 7.3298L24.3325 6.72856C25.0044 7.3298 27.0911 7.22369 27.0911 7.22369L26.5959 6.58709C27.4094 7.36516 28.6119 7.29443 28.6119 7.29443L28.2936 6.79929C29.0009 7.47126 30.0265 7.6481 30.0265 7.6481L29.7436 7.15296C30.0265 7.6481 31.5473 8.03714 32.1839 8.03714C30.7339 5.45535 26.4545 2.97966 20.9726 6.44562C21.5031 5.84438 21.8214 5.31388 21.8214 5.31388L21.2555 5.10168C21.8921 5.20778 23.13 4.28824 23.13 4.28824L22.5288 3.8992C23.3776 4.18214 25.2166 3.19186 25.2166 3.19186L24.5093 2.83819C25.6057 3.19186 26.6313 2.59062 26.6313 2.59062L26.1715 2.27232C27.0911 2.62599 28.0814 2.34305 28.0814 2.34305L27.5862 1.98939C28.0814 2.34305 29.6375 2.06012 30.2034 1.77718C27.5862 -0.0972631 22.0336 -0.450933 18.5323 6.55172L18.4616 6.48099L17.4005 1.67108L16.3395 6.48099L16.2688 6.55172C12.7675 -0.450933 7.21486 -0.0972631 4.59771 1.77718C5.16358 2.06012 6.71972 2.34305 7.21486 1.98939L6.71972 2.34305C6.71972 2.34305 7.71 2.62599 8.66491 2.27232L8.16977 2.59062C8.16977 2.59062 9.19541 3.19186 10.2918 2.83819L9.58445 3.19186C9.58445 3.19186 11.4235 4.18214 12.2723 3.8992L11.6711 4.28824C11.6711 4.28824 12.9089 5.20778 13.5455 5.10168L12.9797 5.31388C12.9797 5.31388 13.298 5.84438 13.8285 6.44562C8.3466 2.97966 4.0672 5.45535 2.61716 8.03714C3.25376 8.03714 4.77454 7.6481 5.05747 7.15296L4.77454 7.6481C4.77454 7.6481 5.80018 7.47126 6.50752 6.79929L6.18922 7.29443C6.18922 7.29443 7.39169 7.36516 8.20513 6.58709L7.71 7.22369C7.71 7.22369 9.79665 7.3298 10.4686 6.72856L10.0796 7.3298C10.0796 7.3298 11.6004 7.61273 12.1309 7.25906L11.7418 7.71883C11.7418 7.71883 12.3431 8.14324 13.1919 8.46154C6.04775 8.14324 3.60743 12.8117 3.81963 15.8886C4.35014 15.5703 5.41114 14.4032 5.37578 13.802L5.41114 14.4032C5.41114 14.4032 6.18922 13.6959 6.40142 12.741V13.3069C6.40142 13.3069 7.46243 12.741 7.71 11.6446L7.63926 12.4227C7.63926 12.4227 9.44298 11.397 9.69055 10.5129V11.2202C9.69055 11.2202 11.1052 10.6543 11.3882 10.0531L11.2821 10.6543C11.2821 10.6543 11.7065 10.6543 12.2723 10.619C7.25023 13.7313 7.42706 18.3997 8.94784 20.84C9.26614 20.2741 9.65518 18.7534 9.33687 18.2582L9.65518 18.7534C9.65518 18.7534 10.0089 17.7631 9.72591 16.8082L10.0088 17.3387C10.0088 17.3387 10.6455 16.313 10.3625 15.2167L10.6808 15.9594C10.6808 15.9594 11.7772 14.191 11.565 13.3069L11.9187 13.9435C11.9187 13.9435 12.8736 12.741 12.8382 12.1044L13.015 12.6702C13.015 12.6702 13.5809 12.3873 14.2175 11.8922C15.3139 11.5385 16.481 11.2202 16.7286 12.8471L16.7993 13.5898C16.7993 13.5898 17.1883 24.1291 15.8444 27.2414C14.7127 29.8232 12.0955 29.7171 11.2821 29.6464L0 24.8365L17.4005 33.9258L34.8011 24.8365L23.519 29.6464Z" fill="#BF930F"/>
</g>
<defs>
<clipPath id="clip0_147_11034">
<rect width="116" height="41" fill="white"/>
</clipPath>
</defs>
</svg>
