<svg width="117" height="72" viewBox="0 0 117 72" fill="none" xmlns="http://www.w3.org/2000/svg">
<path d="M109.445 59.6895H7.74609V60.0183H109.445V59.6895Z" fill="#BF930F"/>
<path d="M11.582 61.7716H21.7373V65.7168C24.0386 65.7168 25.9017 67.5799 25.9017 69.8812H91.1802C91.1802 67.5799 93.0432 65.7168 95.3446 65.7168V61.7716H105.5V61.4429H11.582V61.7716Z" fill="#BF930F"/>
<path d="M35.7285 72H81.4637L82.6326 70.8311H34.5596L35.7285 72Z" fill="#BF930F"/>
<path d="M71.4905 22.9771C71.4905 23.0867 71.6001 23.1963 71.7097 23.1963C71.8192 23.1963 71.9288 23.0867 71.9288 22.9771C71.9288 22.8675 71.8192 22.7579 71.7097 22.7945C71.5635 22.7579 71.4539 22.8675 71.4905 22.9771Z" fill="white"/>
<path d="M71.7104 23.5617C71.6008 23.5617 71.4912 23.6713 71.4912 23.7809C71.4912 23.8905 71.6008 24.0001 71.7104 24.0001C71.82 24.0001 71.9296 23.8905 71.9296 23.7809C71.9296 23.6713 71.82 23.5617 71.7104 23.5617Z" fill="white"/>
<path d="M71.3809 22.137C71.3809 22.2466 71.4904 22.3197 71.6 22.3197C71.6 22.3197 71.6 22.3197 71.6366 22.3197C71.7461 22.3197 71.8557 22.2101 71.8192 22.064C71.8192 21.9544 71.7096 21.8448 71.5635 21.8813C71.4539 21.8813 71.3809 21.9909 71.3809 22.137Z" fill="white"/>
<path d="M71.271 21.2602C71.3076 21.3698 71.3806 21.4429 71.4902 21.4429H71.5267C71.6363 21.4063 71.7094 21.2968 71.7094 21.1872C71.6729 21.0776 71.5633 21.0045 71.4537 21.0045C71.3076 21.041 71.2345 21.1506 71.271 21.2602Z" fill="white"/>
<path d="M71.0527 20.4566C71.0893 20.5662 71.1623 20.6027 71.2719 20.6027C71.2719 20.6027 71.3084 20.6027 71.345 20.6027C71.4546 20.5662 71.5276 20.4566 71.4911 20.347C71.4546 20.2374 71.345 20.1644 71.2354 20.2009C71.0893 20.2009 71.0527 20.347 71.0527 20.4566Z" fill="white"/>
<path d="M70.7962 28.6392C70.6866 28.6027 70.5405 28.6392 70.5039 28.7488C70.4674 28.8584 70.5039 29.0045 70.6135 29.0411C70.6501 29.0411 70.6866 29.0411 70.6866 29.0411C70.7596 29.0411 70.8692 29.0045 70.9058 28.895C70.9423 28.8219 70.9058 28.7123 70.7962 28.6392Z" fill="white"/>
<path d="M71.0888 27.8356C70.9793 27.7991 70.8331 27.8721 70.7966 27.9817C70.7601 28.0913 70.8331 28.2374 70.9427 28.274C70.9793 28.274 70.9793 28.274 71.0158 28.274C71.0889 28.274 71.1984 28.2009 71.235 28.1279C71.235 28.0183 71.1984 27.8721 71.0888 27.8356Z" fill="white"/>
<path d="M71.6369 25.2786C71.5273 25.2786 71.4177 25.3516 71.3812 25.4612C71.3447 25.5708 71.4542 25.6804 71.5638 25.7169H71.6004C71.7099 25.7169 71.783 25.6439 71.8195 25.5343C71.8195 25.4247 71.7465 25.3151 71.6369 25.2786Z" fill="white"/>
<path d="M71.3082 26.9955C71.1986 26.9589 71.089 27.032 71.0525 27.1416C71.0159 27.2512 71.089 27.3608 71.1986 27.3973C71.2351 27.3973 71.2351 27.3973 71.2717 27.3973C71.3812 27.3973 71.4543 27.3242 71.4908 27.2512C71.4908 27.1416 71.4178 27.032 71.3082 26.9955Z" fill="white"/>
<path d="M71.4906 26.1552C71.381 26.1187 71.2714 26.1917 71.2349 26.3378C71.1984 26.4474 71.2714 26.557 71.4175 26.5935H71.4541C71.5637 26.5935 71.6367 26.5205 71.6733 26.4109C71.7098 26.3013 71.6367 26.1917 71.4906 26.1552Z" fill="white"/>
<path d="M71.7104 24.4383C71.6008 24.4383 71.4912 24.5114 71.4912 24.6209C71.4912 24.7305 71.5643 24.8401 71.7104 24.8401C71.82 24.8401 71.9296 24.7671 71.9296 24.6209C71.9296 24.5479 71.82 24.4383 71.7104 24.4383Z" fill="white"/>
<path d="M70.8335 19.6164C70.87 19.6895 70.9431 19.7625 71.0527 19.7625C71.0892 19.7625 71.0892 19.7625 71.1257 19.7625C71.2353 19.726 71.3084 19.6164 71.2718 19.5068C71.2353 19.3972 71.0892 19.3242 70.9796 19.3607C70.8335 19.3972 70.797 19.5068 70.8335 19.6164Z" fill="white"/>
<path d="M68.9334 32.0731C69.0064 32.0731 69.043 32.0365 69.116 32C69.1891 31.8904 69.1891 31.7808 69.0795 31.7078C68.9699 31.6347 68.8603 31.6347 68.7872 31.7443C68.7142 31.8539 68.7142 31.9635 68.8238 32.0365C68.8603 32.0731 68.8968 32.0731 68.9334 32.0731Z" fill="white"/>
<path d="M69.4453 31.379C69.5183 31.379 69.5914 31.3425 69.6279 31.2695C69.701 31.1599 69.6645 31.0503 69.5549 30.9772C69.4453 30.9042 69.3357 30.9407 69.2626 31.0503C69.1896 31.1599 69.2261 31.2695 69.3357 31.3425C69.3722 31.3425 69.4087 31.379 69.4453 31.379Z" fill="white"/>
<path d="M68.3851 32.7306C68.4581 32.7306 68.4947 32.6941 68.5677 32.6576C68.6408 32.5845 68.6408 32.4384 68.5677 32.3653C68.4947 32.2923 68.3486 32.2923 68.2755 32.3653C68.2024 32.4384 68.2024 32.5845 68.2755 32.6576C68.2755 32.7306 68.3486 32.7306 68.3851 32.7306Z" fill="white"/>
<path d="M68.2762 15.2328C68.3127 15.2694 68.3858 15.3059 68.4223 15.3059C68.4588 15.3059 68.5319 15.3059 68.5684 15.2694C68.6415 15.1963 68.678 15.0502 68.5684 14.9771C68.4954 14.9041 68.3493 14.8675 68.2762 14.9771C68.2031 14.9771 68.1666 15.1232 68.2762 15.2328Z" fill="white"/>
<path d="M68.9695 15.9635C69.006 15.9635 69.0426 15.9635 69.1156 15.9269C69.2252 15.8539 69.2252 15.7077 69.1521 15.6347C69.0791 15.5251 68.933 15.5251 68.8599 15.5982C68.7503 15.6712 68.7503 15.8173 68.8234 15.8904C68.8599 15.9269 68.8964 15.9635 68.9695 15.9635Z" fill="white"/>
<path d="M70.5041 18.8127C70.5406 18.8858 70.6137 18.9588 70.6867 18.9588C70.7233 18.9588 70.7598 18.9588 70.7598 18.9588C70.8694 18.9223 70.9425 18.7762 70.8694 18.6666C70.8329 18.557 70.6867 18.4839 70.5772 18.557C70.5406 18.5935 70.4676 18.7031 70.5041 18.8127Z" fill="white"/>
<path d="M70.1759 18.0457C70.2124 18.1187 70.2855 18.1552 70.3585 18.1552C70.3951 18.1552 70.4316 18.1552 70.4681 18.1187C70.5777 18.0822 70.6143 17.9361 70.5777 17.8265C70.5412 17.7169 70.3951 17.6804 70.2855 17.7169C70.1759 17.8265 70.1028 17.9361 70.1759 18.0457Z" fill="white"/>
<path d="M69.957 17.4247C69.9935 17.4247 70.0301 17.4247 70.0666 17.3882C70.1762 17.3151 70.2127 17.2055 70.1396 17.0959C70.0666 16.9863 69.957 16.9498 69.8474 17.0229C69.7378 17.0959 69.7013 17.2055 69.7743 17.3151C69.8109 17.3516 69.8839 17.4247 69.957 17.4247Z" fill="white"/>
<path d="M69.4818 16.6574C69.5184 16.6574 69.5549 16.6574 69.5914 16.6209C69.701 16.5478 69.701 16.4017 69.6645 16.3287C69.5914 16.2191 69.4818 16.2191 69.3723 16.2556C69.2627 16.3287 69.2627 16.4383 69.2992 16.5479C69.3357 16.6209 69.4088 16.6574 69.4818 16.6574Z" fill="white"/>
<path d="M69.8103 30.6119C69.8468 30.6484 69.8833 30.6484 69.9199 30.6484C69.9929 30.6484 70.066 30.6119 70.1025 30.5388C70.1756 30.4292 70.1391 30.2831 70.0295 30.2466C69.9199 30.1735 69.7738 30.21 69.7372 30.3196C69.6642 30.3927 69.7007 30.5388 69.8103 30.6119Z" fill="white"/>
<path d="M47.1614 17.3151C47.0518 17.2421 46.9057 17.3151 46.8691 17.3882C46.7961 17.4978 46.8691 17.6074 46.9422 17.6804C46.9787 17.6804 47.0152 17.7169 47.0518 17.7169C47.1248 17.7169 47.1979 17.6804 47.2344 17.6073C47.3075 17.4978 47.2344 17.3516 47.1614 17.3151Z" fill="white"/>
<path d="M45.4448 23.5252C45.5543 23.5252 45.6639 23.4521 45.6639 23.306C45.6639 23.1964 45.5543 23.0868 45.4448 23.0868C45.3352 23.0868 45.2256 23.1599 45.2256 23.306C45.2256 23.4156 45.3352 23.5252 45.4448 23.5252Z" fill="white"/>
<path d="M45.4818 22.685C45.5183 22.685 45.5183 22.685 45.4818 22.685C45.6279 22.685 45.701 22.6119 45.7375 22.5023C45.7375 22.3928 45.6644 22.2832 45.5549 22.2466C45.4453 22.2466 45.3357 22.3197 45.3357 22.4293C45.2991 22.5389 45.3722 22.6485 45.4818 22.685Z" fill="white"/>
<path d="M45.4448 24.4019C45.5543 24.4019 45.6639 24.2923 45.6639 24.1827C45.6639 24.0731 45.5543 23.9636 45.4448 23.9636C45.3352 23.9636 45.2256 24.0731 45.2256 24.1827C45.2256 24.3289 45.3352 24.4019 45.4448 24.4019Z" fill="white"/>
<path d="M45.6639 26.1187C45.7735 26.1187 45.8466 25.9726 45.8466 25.863C45.8466 25.7534 45.7004 25.6804 45.5909 25.6804C45.4813 25.6804 45.4082 25.8265 45.4082 25.9361C45.4082 26.0457 45.5178 26.1187 45.6639 26.1187C45.6274 26.1187 45.6274 26.1187 45.6639 26.1187Z" fill="white"/>
<path d="M45.5183 25.2785C45.6279 25.2785 45.7375 25.1689 45.701 25.0593C45.701 24.9497 45.5914 24.8401 45.4818 24.8767C45.3722 24.8767 45.2626 24.9863 45.2992 25.1324C45.2992 25.1689 45.4087 25.2785 45.5183 25.2785Z" fill="white"/>
<path d="M48.9151 32.6575C48.8421 32.7306 48.8421 32.8767 48.9151 32.9497C48.9517 32.9863 49.0247 33.0228 49.0613 33.0228C49.0978 33.0228 49.1709 32.9863 49.2074 32.9497C49.2804 32.8767 49.2804 32.7306 49.2074 32.6575C49.1343 32.5845 48.9882 32.5845 48.9151 32.6575Z" fill="white"/>
<path d="M46.2484 19.2877C46.2849 19.2877 46.2849 19.2877 46.3214 19.2877C46.3945 19.2877 46.5041 19.2512 46.5406 19.1416C46.5771 19.032 46.5406 18.8859 46.431 18.8493C46.3214 18.8128 46.2118 18.8493 46.1388 18.9589C46.0657 19.105 46.1388 19.2512 46.2484 19.2877Z" fill="white"/>
<path d="M46.5775 18.484C46.614 18.484 46.6505 18.484 46.6871 18.484C46.7601 18.484 46.8332 18.4475 46.8697 18.3744C46.9062 18.2648 46.8697 18.1552 46.7601 18.0822C46.6505 18.0457 46.5409 18.0822 46.4679 18.1918C46.3948 18.3014 46.4679 18.4109 46.5775 18.484Z" fill="white"/>
<path d="M45.5909 21.8083C45.737 21.8083 45.81 21.7352 45.8466 21.6256C45.8831 21.516 45.7735 21.4064 45.6639 21.3699C45.5543 21.3334 45.4447 21.443 45.4082 21.5525C45.4082 21.6621 45.4813 21.7717 45.5909 21.8083Z" fill="white"/>
<path d="M45.7367 20.968H45.7732C45.8828 20.968 45.9559 20.8949 45.9924 20.7854C46.0289 20.6758 45.9559 20.5662 45.8463 20.5296C45.7367 20.4931 45.6271 20.5662 45.5906 20.6758C45.554 20.7854 45.6271 20.9315 45.7367 20.968Z" fill="white"/>
<path d="M45.9564 20.0913C45.9929 20.0913 45.9929 20.0913 46.0294 20.0913C46.1025 20.0913 46.2121 20.0182 46.2486 19.9451C46.2851 19.8356 46.2121 19.6894 46.1025 19.6894C45.9929 19.6529 45.8468 19.726 45.8468 19.8356C45.7737 19.9451 45.8468 20.0547 45.9564 20.0913Z" fill="white"/>
<path d="M45.9924 26.7032C45.9559 26.5936 45.8463 26.5205 45.7367 26.5205C45.6271 26.557 45.554 26.6666 45.5906 26.7762C45.6271 26.8858 45.7001 26.9589 45.8097 26.9589H45.8463C45.9559 26.9589 46.0289 26.8493 45.9924 26.7032Z" fill="white"/>
<path d="M47.783 15.8904C47.7099 16 47.7465 16.1096 47.8195 16.1826C47.856 16.2191 47.8926 16.2191 47.9291 16.2191C48.0022 16.2191 48.0752 16.1826 48.1118 16.1461C48.1848 16.0365 48.1483 15.9269 48.0752 15.8539C48.0022 15.7808 47.856 15.8173 47.783 15.8904Z" fill="white"/>
<path d="M47.8189 31.306C47.7093 31.3791 47.7093 31.5252 47.7824 31.5982C47.8189 31.6713 47.892 31.6713 47.965 31.6713C48.0015 31.6713 48.0381 31.6713 48.0746 31.6348C48.1842 31.5617 48.1842 31.4156 48.1111 31.3425C48.0381 31.2695 47.9285 31.2329 47.8189 31.306Z" fill="white"/>
<path d="M48.3306 32C48.221 32.073 48.221 32.2191 48.2941 32.2922C48.3306 32.3287 48.4037 32.3653 48.4767 32.3653C48.5133 32.3653 48.5863 32.3652 48.6228 32.3287C48.6959 32.2557 48.7324 32.1095 48.6594 32.0365C48.5498 31.9269 48.4402 31.9269 48.3306 32Z" fill="white"/>
<path d="M48.3312 15.1963C48.2581 15.2693 48.2581 15.4155 48.3677 15.4885C48.4042 15.5251 48.4408 15.5251 48.5138 15.5251C48.5869 15.5251 48.6234 15.4885 48.6965 15.452C48.7695 15.3789 48.7695 15.2328 48.66 15.1598C48.5504 15.0867 48.4408 15.1232 48.3312 15.1963Z" fill="white"/>
<path d="M46.2121 27.5434C46.1756 27.4338 46.066 27.3607 45.9564 27.3973C45.8468 27.4338 45.7738 27.5434 45.8103 27.653C45.8468 27.726 45.9199 27.7991 46.0295 27.7991C46.066 27.7991 46.066 27.7991 46.1025 27.7991C46.2121 27.7991 46.2486 27.653 46.2121 27.5434Z" fill="white"/>
<path d="M47.5998 16.548C47.4902 16.4749 47.3806 16.5114 47.3075 16.621C47.2345 16.7306 47.271 16.8767 47.3806 16.9133C47.4171 16.9498 47.4537 16.9498 47.4902 16.9498C47.5632 16.9498 47.6363 16.9133 47.6728 16.8402C47.7459 16.7671 47.7094 16.621 47.5998 16.548Z" fill="white"/>
<path d="M46.5045 28.3471C46.4679 28.2375 46.3218 28.1644 46.2122 28.2375C46.1027 28.274 46.0296 28.4201 46.1027 28.5297C46.1392 28.6028 46.2122 28.6758 46.3218 28.6758C46.3584 28.6758 46.3584 28.6758 46.3949 28.6758C46.5045 28.6028 46.541 28.4567 46.5045 28.3471Z" fill="white"/>
<path d="M46.8335 29.1508C46.797 29.0412 46.6508 29.0046 46.5413 29.0412C46.4317 29.0777 46.3951 29.2238 46.4317 29.3334C46.4682 29.4065 46.5413 29.443 46.6143 29.443C46.6508 29.443 46.6874 29.443 46.6874 29.443C46.8335 29.3699 46.87 29.2603 46.8335 29.1508Z" fill="white"/>
<path d="M67.8376 14.6484C67.9107 14.6484 67.9472 14.6119 67.9837 14.5754C68.0568 14.5023 68.0568 14.3562 67.9837 14.2831C67.9107 14.2101 67.7646 14.2101 67.6915 14.2831C67.6185 14.3562 67.6185 14.5023 67.6915 14.5754C67.728 14.6484 67.7646 14.6484 67.8376 14.6484Z" fill="white"/>
<path d="M46.906 29.8082C46.7964 29.8813 46.7599 29.9909 46.8329 30.1005C46.8695 30.1735 46.9425 30.21 47.0156 30.21C47.0521 30.21 47.0886 30.21 47.1252 30.1735C47.2348 30.1005 47.2713 29.9909 47.1982 29.8813C47.1617 29.8082 47.0156 29.7717 46.906 29.8082Z" fill="white"/>
<path d="M47.3445 30.5754C47.2349 30.6485 47.1983 30.7581 47.2714 30.8677C47.3079 30.9407 47.381 30.9773 47.4541 30.9773C47.4906 30.9773 47.5271 30.9772 47.5636 30.9407C47.6732 30.8677 47.7098 30.7581 47.6367 30.6485C47.5636 30.5389 47.4541 30.5024 47.3445 30.5754Z" fill="white"/>
<path d="M70.4309 29.4429C70.3214 29.3698 70.1752 29.4429 70.1387 29.5525C70.1022 29.662 70.1387 29.8082 70.2483 29.8447C70.2848 29.8447 70.3213 29.8812 70.3579 29.8812C70.4309 29.8812 70.504 29.8447 70.5405 29.7716C70.5771 29.6255 70.5405 29.5159 70.4309 29.4429Z" fill="white"/>
<path d="M54.8695 36.6027C54.8695 36.6027 54.906 36.6027 54.9425 36.6027C55.0521 36.6027 55.1252 36.5297 55.1617 36.4566C55.1982 36.347 55.1252 36.2374 55.0156 36.2009C54.906 36.1644 54.7964 36.2374 54.7599 36.347C54.6868 36.4566 54.7599 36.5662 54.8695 36.6027Z" fill="white"/>
<path d="M53.1891 35.9817C53.2256 35.9817 53.2621 36.0182 53.2621 36.0182C53.3352 36.0182 53.4083 35.9817 53.4448 35.8721C53.4813 35.7625 53.4448 35.6164 53.3352 35.5799C53.2256 35.5433 53.0795 35.5799 53.043 35.6894C53.043 35.8356 53.0795 35.9452 53.1891 35.9817Z" fill="white"/>
<path d="M55.71 36.8219H55.7465C55.8561 36.8219 55.9292 36.7488 55.9657 36.6392C56.0022 36.5296 55.9292 36.42 55.7831 36.3835C55.6735 36.347 55.5639 36.42 55.5273 36.5662C55.5273 36.6758 55.6004 36.7853 55.71 36.8219Z" fill="white"/>
<path d="M54.9793 11.3607C54.9793 11.3607 55.0158 11.3607 55.0523 11.3607C55.1619 11.3242 55.235 11.2146 55.1984 11.105C55.1619 10.9954 55.0523 10.9224 54.9427 10.9589C54.8331 10.9954 54.7601 11.105 54.7966 11.2146C54.7966 11.2877 54.8697 11.3607 54.9793 11.3607Z" fill="white"/>
<path d="M54.0296 36.347C54.0662 36.347 54.0662 36.347 54.1027 36.347C54.1758 36.347 54.2853 36.274 54.2853 36.2009C54.3219 36.0913 54.2854 35.9817 54.1758 35.9087C54.0662 35.8722 53.9566 35.9087 53.8835 36.0548C53.847 36.1644 53.9201 36.274 54.0296 36.347Z" fill="white"/>
<path d="M53.3354 11.9452C53.3719 11.9452 53.4085 11.9452 53.4085 11.9452C53.5181 11.9087 53.5546 11.7625 53.5181 11.653C53.4815 11.5434 53.3354 11.5068 53.2258 11.5434C53.1162 11.5799 53.0797 11.726 53.1162 11.8356C53.1893 11.9087 53.2624 11.9452 53.3354 11.9452Z" fill="white"/>
<path d="M54.1388 11.6164C54.1754 11.6164 54.1754 11.6164 54.2119 11.6164C54.3215 11.5798 54.3945 11.4337 54.358 11.3241C54.3215 11.2145 54.1754 11.1415 54.0658 11.178C53.9562 11.2146 53.8831 11.3607 53.9197 11.4703C53.9927 11.5798 54.0658 11.6164 54.1388 11.6164Z" fill="white"/>
<path d="M55.8188 11.1416H55.8553C55.9649 11.1051 56.038 10.9955 56.038 10.8859C56.0014 10.7763 55.8918 10.7032 55.7823 10.7032C55.6727 10.7398 55.5996 10.8494 55.5996 10.959C55.6361 11.0685 55.7092 11.1416 55.8188 11.1416Z" fill="white"/>
<path d="M57.5365 10.8859C57.6826 10.8859 57.7557 10.7763 57.7557 10.6667C57.7557 10.5571 57.6461 10.4475 57.5365 10.484C57.4269 10.484 57.3173 10.5936 57.3538 10.7032C57.3173 10.8128 57.4269 10.8859 57.5365 10.8859Z" fill="white"/>
<path d="M57.4633 37.0776C57.6094 37.0776 57.6824 37.0045 57.6824 36.895C57.6824 36.7854 57.6094 36.6758 57.4998 36.6758C57.3902 36.6758 57.2806 36.7488 57.2806 36.8584C57.2441 36.968 57.3537 37.0776 57.4633 37.0776Z" fill="white"/>
<path d="M56.5869 36.9681C56.7331 36.9681 56.8061 36.895 56.8427 36.7854C56.8427 36.6758 56.7696 36.5663 56.66 36.5297C56.5504 36.5297 56.4408 36.6028 56.4043 36.7124C56.4043 36.8585 56.4774 36.9681 56.5869 36.9681Z" fill="white"/>
<path d="M56.6596 10.9954C56.6961 10.9954 56.6961 10.9954 56.6596 10.9954C56.8057 10.9589 56.8788 10.8493 56.8788 10.7397C56.8788 10.6302 56.7327 10.5206 56.6231 10.5571C56.5135 10.5571 56.4404 10.7032 56.4404 10.8128C56.477 10.9224 56.55 10.9954 56.6596 10.9954Z" fill="white"/>
<path d="M52.4222 35.6164C52.4587 35.6164 52.4953 35.6529 52.5318 35.6529C52.6048 35.6529 52.6779 35.6164 52.7144 35.5433C52.751 35.4337 52.7144 35.2876 52.6414 35.2511C52.5318 35.2145 52.3857 35.2511 52.3491 35.3607C52.2395 35.4337 52.3126 35.5433 52.4222 35.6164Z" fill="white"/>
<path d="M50.3396 34.2283C50.4127 34.2283 50.4492 34.1918 50.5223 34.1552C50.5953 34.0822 50.5953 33.936 50.4857 33.863C50.3761 33.7899 50.2666 33.7899 50.1935 33.8995C50.1204 34.0091 50.1204 34.1187 50.23 34.1918C50.23 34.1918 50.2666 34.2283 50.3396 34.2283Z" fill="white"/>
<path d="M49.7192 14.3197C49.7557 14.3197 49.8288 14.2831 49.8653 14.2466C49.9384 14.1735 49.9749 14.0274 49.8653 13.9544C49.7923 13.8813 49.6461 13.8448 49.5731 13.9544C49.5 14.0274 49.4635 14.1735 49.5731 14.2466C49.6096 14.2831 49.6461 14.3197 49.7192 14.3197Z" fill="white"/>
<path d="M50.3764 13.7352C50.4129 13.7352 50.486 13.7352 50.5225 13.6987C50.6321 13.6256 50.6321 13.4795 50.559 13.4064C50.486 13.2968 50.3398 13.2968 50.2668 13.3699C50.1937 13.4429 50.1572 13.5891 50.2303 13.6621C50.2303 13.6987 50.3033 13.7352 50.3764 13.7352Z" fill="white"/>
<path d="M49.6824 33.6438C49.7554 33.6438 49.7919 33.6073 49.8285 33.5708C49.9015 33.4977 49.9015 33.3516 49.8285 33.2785C49.7554 33.2055 49.6093 33.2055 49.5362 33.2785C49.4632 33.3516 49.4632 33.4977 49.5362 33.5708C49.5728 33.6073 49.6093 33.6438 49.6824 33.6438Z" fill="white"/>
<path d="M49.0974 14.9041C49.1705 14.9041 49.207 14.8676 49.2435 14.831C49.3166 14.758 49.3166 14.6119 49.2435 14.5388C49.1705 14.4657 49.0243 14.4657 48.9513 14.5388C48.8782 14.6119 48.8782 14.758 48.9513 14.831C48.9878 14.9041 49.0243 14.9041 49.0974 14.9041Z" fill="white"/>
<path d="M51.8007 12.749C51.8373 12.749 51.8738 12.749 51.9103 12.7124C52.0199 12.6394 52.0564 12.5298 51.9834 12.4202C51.9103 12.3106 51.8007 12.2741 51.6911 12.3472C51.5816 12.4202 51.545 12.5298 51.6181 12.6394C51.6546 12.7125 51.7277 12.749 51.8007 12.749Z" fill="white"/>
<path d="M52.5688 12.3106C52.6053 12.3106 52.6419 12.3106 52.6784 12.274C52.788 12.201 52.8245 12.0914 52.7515 11.9818C52.6784 11.8722 52.5688 11.8357 52.4592 11.9087C52.3496 11.9818 52.3131 12.0914 52.3496 12.201C52.3862 12.274 52.4592 12.3106 52.5688 12.3106Z" fill="white"/>
<path d="M58.3403 37.1141C58.4499 37.1141 58.5595 37.0045 58.5595 36.895C58.5595 36.7854 58.4499 36.6758 58.3403 36.6758C58.2307 36.6758 58.1211 36.7854 58.1211 36.895C58.1211 37.0411 58.2307 37.1141 58.3403 37.1141Z" fill="white"/>
<path d="M51.0701 13.2236C51.1066 13.2236 51.1431 13.2237 51.1797 13.1871C51.2893 13.1141 51.2893 12.9679 51.2527 12.8949C51.1797 12.7853 51.0336 12.7853 50.9605 12.8584C50.8509 12.9314 50.8509 13.0775 50.924 13.1506C50.924 13.1871 50.997 13.2236 51.0701 13.2236Z" fill="white"/>
<path d="M51.6186 35.1781C51.6552 35.2147 51.6917 35.2147 51.7282 35.2147C51.8013 35.2147 51.8743 35.1781 51.9109 35.1051C51.9839 34.9955 51.9474 34.8859 51.8378 34.8129C51.7282 34.7398 51.6186 34.7763 51.5456 34.8859C51.5091 34.9955 51.5456 35.1051 51.6186 35.1781Z" fill="white"/>
<path d="M51.0336 34.7397C51.1067 34.7397 51.1797 34.7032 51.2162 34.6302C51.2893 34.5206 51.2528 34.411 51.1797 34.3379C51.0701 34.2649 50.9605 34.3014 50.8875 34.3745C50.8144 34.484 50.8509 34.5936 50.924 34.6667C50.924 34.7032 50.9605 34.7397 51.0336 34.7397Z" fill="white"/>
<path d="M65.7558 34.9955C65.7923 34.9955 65.8289 34.9954 65.8654 34.9589C65.975 34.8859 66.0115 34.7397 65.9385 34.6667C65.8654 34.5571 65.7558 34.5571 65.6462 34.5936C65.5366 34.6667 65.5001 34.7763 65.5732 34.8859C65.6097 34.9589 65.6828 34.9955 65.7558 34.9955Z" fill="white"/>
<path d="M67.8015 33.3517C67.838 33.3517 67.9111 33.3151 67.9476 33.2786C68.0207 33.2056 68.0207 33.0594 67.9476 32.9864C67.8746 32.9133 67.7284 32.9133 67.6554 32.9864C67.5823 33.0594 67.5823 33.2056 67.6554 33.2786C67.6919 33.3517 67.7284 33.3517 67.8015 33.3517Z" fill="white"/>
<path d="M64.9519 12.5296C64.9884 12.5662 65.0249 12.5662 65.0615 12.5662C65.1345 12.5662 65.2076 12.5297 65.2441 12.4566C65.3172 12.347 65.2807 12.2009 65.1711 12.1644C65.0615 12.0913 64.9519 12.1278 64.8788 12.2374C64.8058 12.347 64.8423 12.4931 64.9519 12.5296Z" fill="white"/>
<path d="M65.0253 35.4338C65.0619 35.4338 65.0984 35.4338 65.1349 35.3973C65.2445 35.3242 65.2811 35.2146 65.208 35.105C65.1349 34.9954 65.0253 34.9589 64.9158 35.032C64.8062 35.105 64.7696 35.2146 64.8427 35.3242C64.8792 35.3973 64.9523 35.4338 65.0253 35.4338Z" fill="white"/>
<path d="M64.2579 35.8356C64.2944 35.8356 64.3309 35.8356 64.3675 35.7991C64.477 35.7625 64.5136 35.6164 64.477 35.5068C64.4405 35.3972 64.2944 35.3607 64.1848 35.3972C64.0752 35.4338 64.0387 35.5799 64.0752 35.6895C64.0752 35.7991 64.1483 35.8356 64.2579 35.8356Z" fill="white"/>
<path d="M64.1848 12.1278C64.2213 12.1278 64.2579 12.1644 64.2944 12.1644C64.3675 12.1644 64.4405 12.1278 64.477 12.0548C64.5136 11.9452 64.477 11.8356 64.3675 11.7625C64.2579 11.726 64.1118 11.7625 64.0752 11.8721C64.0387 11.9452 64.0752 12.0913 64.1848 12.1278Z" fill="white"/>
<path d="M66.4861 34.4841C66.5226 34.4841 66.5592 34.4841 66.6322 34.4476C66.7418 34.3745 66.7418 34.2284 66.6687 34.1553C66.5957 34.0457 66.4496 34.0457 66.3765 34.1188C66.2669 34.1918 66.2669 34.338 66.34 34.411C66.34 34.4841 66.413 34.4841 66.4861 34.4841Z" fill="white"/>
<path d="M67.1804 14.064C67.2535 14.064 67.29 14.0275 67.3631 13.9909C67.4362 13.9179 67.4361 13.7717 67.3266 13.6987C67.2535 13.6256 67.1074 13.6256 67.0343 13.7352C66.9613 13.8083 66.9613 13.9544 67.0708 14.0275C67.0708 14.064 67.1439 14.064 67.1804 14.064Z" fill="white"/>
<path d="M65.6828 12.9681C65.7193 13.0046 65.7559 13.0046 65.7924 13.0046C65.8654 13.0046 65.9385 12.9681 65.975 12.895C66.0481 12.7854 66.0116 12.6758 65.902 12.6028C65.7924 12.5297 65.6463 12.5662 65.6097 12.6758C65.5732 12.7854 65.5732 12.9315 65.6828 12.9681Z" fill="white"/>
<path d="M67.144 33.9726C67.1805 33.9726 67.2535 33.9726 67.2901 33.8995C67.3631 33.8265 67.3997 33.6804 67.3266 33.6073C67.2535 33.5342 67.1074 33.4977 67.0344 33.5708C66.9613 33.6438 66.9248 33.7899 66.9978 33.863C67.0344 33.9361 67.0709 33.9726 67.144 33.9726Z" fill="white"/>
<path d="M66.5229 13.516C66.5959 13.516 66.669 13.4794 66.7055 13.4429C66.7786 13.3333 66.742 13.2237 66.669 13.1507C66.5594 13.0776 66.4498 13.1141 66.3767 13.1872C66.3037 13.2968 66.3402 13.4064 66.4133 13.4794C66.4133 13.516 66.4863 13.516 66.5229 13.516Z" fill="white"/>
<path d="M63.4172 11.7992C63.4538 11.7992 63.4538 11.7992 63.4903 11.7992C63.5634 11.7992 63.6729 11.7626 63.7095 11.653C63.746 11.5435 63.7095 11.4339 63.5999 11.3608C63.4903 11.3243 63.3442 11.3608 63.3076 11.4704C63.2711 11.6165 63.3076 11.7626 63.4172 11.7992Z" fill="white"/>
<path d="M62.6136 11.5069C62.6501 11.5069 62.6501 11.5069 62.6867 11.5069C62.7597 11.5069 62.8693 11.4338 62.9058 11.3608C62.9424 11.2512 62.8693 11.1051 62.7597 11.1051C62.6501 11.0686 62.504 11.1416 62.504 11.2512C62.431 11.3243 62.504 11.4704 62.6136 11.5069Z" fill="white"/>
<path d="M60.1295 10.9589C60.2756 10.9589 60.3486 10.8858 60.3852 10.7762C60.3852 10.6666 60.3121 10.557 60.2025 10.5205C60.0929 10.5205 59.9833 10.5936 59.9468 10.7032C59.9103 10.8127 59.9833 10.9223 60.1295 10.9589Z" fill="white"/>
<path d="M60.0935 37.041C60.2397 37.041 60.3127 36.9315 60.3127 36.7853C60.3127 36.6757 60.2031 36.5662 60.057 36.6027C59.9474 36.6027 59.8378 36.7123 59.8744 36.8584C59.8744 36.968 59.9839 37.041 60.0935 37.041Z" fill="white"/>
<path d="M60.933 36.9315H60.9696C61.0792 36.895 61.1522 36.7854 61.1522 36.6758C61.1157 36.5662 61.0061 36.4932 60.8965 36.4932C60.7869 36.5297 60.7139 36.6393 60.7139 36.7489C60.7504 36.8585 60.86 36.9315 60.933 36.9315Z" fill="white"/>
<path d="M59.2162 37.1141C59.3624 37.1141 59.4354 37.0045 59.4354 36.895C59.4354 36.7854 59.3258 36.6758 59.2162 36.6758C59.1067 36.6758 58.9971 36.7854 58.9971 36.895C58.9971 37.0045 59.1067 37.1141 59.2162 37.1141Z" fill="white"/>
<path d="M59.2524 10.8859C59.362 10.8859 59.4716 10.8128 59.4716 10.6667C59.4716 10.5571 59.3985 10.4475 59.2524 10.4475C59.1428 10.4475 59.0332 10.5206 59.0332 10.6667C59.0332 10.7763 59.1428 10.8859 59.2524 10.8859Z" fill="white"/>
<path d="M62.614 36.4931C62.6506 36.4931 62.6505 36.4931 62.6871 36.4931C62.7967 36.4566 62.8697 36.347 62.8332 36.2374C62.7967 36.1278 62.6871 36.0548 62.5775 36.0913C62.4679 36.1278 62.3948 36.2374 62.4314 36.347C62.4679 36.4201 62.541 36.4931 62.614 36.4931Z" fill="white"/>
<path d="M60.9703 11.0685H61.0068C61.1164 11.0685 61.1895 10.9954 61.226 10.8859C61.2625 10.7763 61.1895 10.6667 61.0433 10.6302C60.9337 10.5936 60.8242 10.7032 60.7876 10.8128C60.7511 10.9589 60.8242 11.0685 60.9703 11.0685Z" fill="white"/>
<path d="M63.4537 36.2009C63.4902 36.2009 63.5267 36.2009 63.5267 36.2009C63.6363 36.1644 63.7094 36.0182 63.6363 35.9087C63.5998 35.7991 63.4537 35.726 63.3441 35.7991C63.2345 35.8356 63.1614 35.9817 63.2345 36.0913C63.271 36.1644 63.3441 36.2009 63.4537 36.2009Z" fill="white"/>
<path d="M58.4125 10.8492C58.5221 10.8492 58.6317 10.7397 58.6317 10.6301C58.6317 10.5205 58.5221 10.4109 58.4125 10.4109C58.3029 10.4109 58.1934 10.5205 58.1934 10.6301C58.1934 10.7762 58.2664 10.8492 58.4125 10.8492Z" fill="white"/>
<path d="M61.8097 36.7488H61.8463C61.9559 36.7123 62.0289 36.6027 61.9924 36.4931C61.9559 36.3835 61.8463 36.3104 61.7367 36.347C61.6271 36.3835 61.554 36.4931 61.5906 36.6027C61.6271 36.6757 61.7001 36.7488 61.8097 36.7488Z" fill="white"/>
<path d="M61.8105 11.2511H61.8471C61.9566 11.2511 62.0297 11.178 62.0662 11.0684C62.1028 10.9588 62.0297 10.8493 61.9201 10.8127C61.8105 10.7762 61.7009 10.8493 61.6644 10.9588C61.5913 11.105 61.6644 11.2511 61.8105 11.2511Z" fill="white"/>
<path d="M56.0018 5.95436H61.1525L62.7598 2.04569L60.8603 3.72605L58.5954 1.13245L56.2941 3.72605L54.3945 2.04569L56.0018 5.95436Z" fill="#BF930F"/>
<path d="M58.5956 0.876713C58.8377 0.876713 59.0339 0.680455 59.0339 0.438358C59.0339 0.19626 58.8377 0 58.5956 0C58.3535 0 58.1572 0.19626 58.1572 0.438358C58.1572 0.680455 58.3535 0.876713 58.5956 0.876713Z" fill="#BF930F"/>
<path d="M54.285 1.9726C54.4262 1.9726 54.5407 1.85811 54.5407 1.71689C54.5407 1.57567 54.4262 1.46118 54.285 1.46118C54.1438 1.46118 54.0293 1.57567 54.0293 1.71689C54.0293 1.85811 54.1438 1.9726 54.285 1.9726Z" fill="#BF930F"/>
<path d="M62.87 1.9726C63.0112 1.9726 63.1257 1.85811 63.1257 1.71689C63.1257 1.57567 63.0112 1.46118 62.87 1.46118C62.7287 1.46118 62.6143 1.57567 62.6143 1.71689C62.6143 1.85811 62.7287 1.9726 62.87 1.9726Z" fill="#BF930F"/>
<path d="M59.6547 8.32874C59.7758 8.32874 59.8739 8.2306 59.8739 8.10956C59.8739 7.98851 59.7758 7.89038 59.6547 7.89038C59.5337 7.89038 59.4355 7.98851 59.4355 8.10956C59.4355 8.2306 59.5337 8.32874 59.6547 8.32874Z" fill="#BF930F"/>
<path d="M58.5961 8.32874C58.7172 8.32874 58.8153 8.2306 58.8153 8.10956C58.8153 7.98851 58.7172 7.89038 58.5961 7.89038C58.4751 7.89038 58.377 7.98851 58.377 8.10956C58.377 8.2306 58.4751 8.32874 58.5961 8.32874Z" fill="#BF930F"/>
<path d="M57.5366 8.32874C57.6576 8.32874 57.7557 8.2306 57.7557 8.10956C57.7557 7.98851 57.6576 7.89038 57.5366 7.89038C57.4155 7.89038 57.3174 7.98851 57.3174 8.10956C57.3174 8.2306 57.4155 8.32874 57.5366 8.32874Z" fill="#BF930F"/>
<path d="M50.4132 7.78083C50.7158 7.78083 50.9611 7.5355 50.9611 7.23288C50.9611 6.93026 50.7158 6.68494 50.4132 6.68494C50.1106 6.68494 49.8652 6.93026 49.8652 7.23288C49.8652 7.5355 50.1106 7.78083 50.4132 7.78083Z" fill="#BF930F"/>
<path d="M66.7423 7.78083C67.0449 7.78083 67.2902 7.5355 67.2902 7.23288C67.2902 6.93026 67.0449 6.68494 66.7423 6.68494C66.4397 6.68494 66.1943 6.93026 66.1943 7.23288C66.1943 7.5355 66.4397 7.78083 66.7423 7.78083Z" fill="#BF930F"/>
<path d="M61.7735 39.2694C63.1981 38.9771 64.5132 38.5023 65.7552 37.8447H105.5V37.516H81.8283C82.3397 37.1872 82.6685 36.6027 82.6685 35.9452C82.6685 34.6666 81.6456 33.6438 80.3671 33.6438C80.3306 33.6438 80.2575 33.6438 80.221 33.6438C79.8191 32 78.6867 30.6484 77.1525 29.9908C77.7004 29.0411 77.5178 27.7991 76.6411 27.0685C75.947 26.484 74.9972 26.2648 74.1205 26.484C74.2666 25.6073 74.3762 24.694 74.3762 23.7443C74.3762 19.0319 72.294 14.6119 68.6776 11.6164C68.8602 11.3242 68.9698 10.9589 68.9698 10.5936C68.9698 9.27852 67.8739 8.18263 66.5589 8.18263C66.157 8.18263 65.7917 8.25569 65.463 8.40181C65.9013 7.45204 65.5726 6.31962 64.6593 5.77167C64.0748 5.44291 63.4173 5.33332 62.7598 5.51597C62.1388 5.66209 61.6274 6.06391 61.2621 6.61186L61.116 6.21003H55.9287L55.7826 6.61186C55.4538 6.06391 54.9059 5.69862 54.2849 5.51597C53.6274 5.33332 52.9698 5.44291 52.3854 5.77167C51.4721 6.31962 51.1433 7.45204 51.5817 8.40181C51.2529 8.25569 50.8876 8.18263 50.4858 8.18263C49.1342 8.18263 48.0749 9.27852 48.0749 10.5936C48.0749 10.9589 48.1844 11.3242 48.3671 11.6164C44.7507 14.6484 42.6685 19.0319 42.6685 23.7443C42.6685 24.694 42.7415 25.6073 42.9242 26.484C42.0475 26.2648 41.1342 26.484 40.4036 27.0685C39.5269 27.7991 39.3443 29.0411 39.8922 29.9908C38.3214 30.6484 37.189 32 36.8237 33.6438C36.7872 33.6438 36.7141 33.6438 36.6776 33.6438C35.3991 33.6438 34.3762 34.6666 34.3762 35.9452C34.3762 36.6027 34.705 37.1507 35.2164 37.516H11.5452V37.8447H51.3991C52.6411 38.5023 53.9927 38.9771 55.3808 39.2694H7.74609V39.5982H109.445V39.2694H61.7735ZM66.3762 37.516C68.3854 36.3835 70.1022 34.8128 71.4173 32.9863C72.2575 31.7443 73.6822 31.0137 75.1799 31.0137C77.189 31.0137 78.7963 32.6575 78.7963 34.6301C78.7963 36.2009 77.5178 37.516 75.9105 37.516C74.6685 37.516 73.6456 36.4931 73.6456 35.2511C73.6456 34.2648 74.4493 33.4612 75.4356 33.4612C76.2027 33.4612 76.8237 34.0822 76.8237 34.8493C76.8237 35.4338 76.3488 35.9452 75.7278 35.9452C75.6548 35.9452 75.5817 36.0182 75.5817 36.0913C75.5817 36.1644 75.6548 36.2374 75.7278 36.2374C76.4949 36.2374 77.1525 35.6164 77.1525 34.8128C77.1525 33.863 76.3853 33.0959 75.4356 33.0959C74.2666 33.0959 73.3169 34.0456 73.3169 35.2146C73.3169 36.2009 73.8648 37.0411 74.6685 37.4794H66.3762V37.516ZM82.3762 35.9817C82.3762 36.8219 81.6822 37.5525 80.8054 37.5525C80.1479 37.5525 79.6 37.0045 79.6 36.347C79.6 35.8356 80.0018 35.3972 80.5497 35.3972C80.9516 35.3972 81.2803 35.726 81.2803 36.1278C81.2803 36.4201 81.0246 36.6758 80.7324 36.6758C80.6593 36.6758 80.5863 36.7488 80.5863 36.8219C80.5863 36.895 80.6593 36.968 80.7324 36.968C81.2073 36.968 81.6091 36.5662 81.6091 36.0913C81.6091 35.5068 81.1342 35.0319 80.5497 35.0319C79.8557 35.0319 79.2712 35.6164 79.2712 36.3105C79.2712 36.8219 79.5269 37.2237 79.8557 37.516H77.2986C78.358 37.0045 79.0885 35.9087 79.0885 34.6301C79.0885 34.5205 79.0885 34.4109 79.0885 34.3014C79.4538 34.0822 79.8922 33.9726 80.3671 33.9726C81.4995 33.9726 82.3762 34.8858 82.3762 35.9817ZM79.9287 33.7169C79.6365 33.7534 79.3443 33.863 79.0885 34.0091C78.8328 32.5114 77.737 31.2694 76.2758 30.8676C76.5315 30.758 76.7506 30.5753 76.9333 30.3561C76.9333 30.3196 76.9698 30.3196 76.9698 30.2831C78.4675 30.9041 79.5269 32.1461 79.9287 33.7169ZM76.4584 27.3607C77.2986 28.0548 77.4082 29.3333 76.7141 30.1735C76.1662 30.831 75.1799 30.9041 74.5223 30.3561C74.2666 30.137 74.1205 29.8447 74.084 29.516C74.0475 29.1872 74.157 28.895 74.3762 28.6393C74.5223 28.4566 74.7781 28.347 75.0338 28.3105C75.2895 28.274 75.5086 28.3835 75.7278 28.5297C75.8739 28.6392 75.9835 28.8219 75.9835 29.0045C75.9835 29.1872 75.947 29.3698 75.8009 29.516C75.6913 29.6256 75.5817 29.6986 75.4356 29.6986C75.2895 29.6986 75.1433 29.6621 75.0338 29.589C74.9607 29.516 74.8511 29.5525 74.8146 29.6256C74.7415 29.6986 74.778 29.8082 74.8146 29.8447C74.9972 29.9908 75.2164 30.0639 75.4356 30.0639C75.6548 30.0274 75.8739 29.9178 76.0201 29.7717C76.2027 29.5525 76.2758 29.2968 76.2758 29.0045C76.2392 28.7123 76.1296 28.4566 75.9105 28.3105C75.6548 28.0913 75.326 27.9817 74.9972 28.0182C74.6685 28.0548 74.3397 28.2009 74.1205 28.4566C73.8648 28.7854 73.7187 29.1507 73.7552 29.589C73.7917 29.9908 73.9744 30.3561 74.3032 30.6484C74.3762 30.7214 74.4493 30.758 74.5223 30.831C73.7187 30.9406 72.9516 31.2694 72.294 31.7443C73.1342 30.2831 73.7552 28.6758 74.084 26.9589C74.9242 26.6301 75.8009 26.7762 76.4584 27.3607ZM68.6776 10.5936C68.6776 11.5068 67.947 12.2374 67.0338 12.2374C66.8511 12.2374 66.6319 12.2009 66.4493 12.0913H66.4128C66.3397 12.0548 66.3032 12.0182 66.2666 11.9817C66.2301 11.9452 66.2301 11.9452 66.2301 11.9452C65.9379 11.6895 65.7552 11.3242 65.7552 10.9589C65.7552 10.4109 66.1936 9.97259 66.7415 9.97259C67.1433 9.97259 67.5086 10.3014 67.5086 10.7397C67.5086 10.8128 67.5817 10.8858 67.6548 10.8858C67.7278 10.8858 67.8009 10.8128 67.8009 10.7397C67.8009 10.1552 67.326 9.64382 66.705 9.64382C65.9744 9.64382 65.3899 10.2283 65.3899 10.9589C65.3899 11.1781 65.4265 11.3607 65.4995 11.5434C64.9881 11.2511 64.4767 10.9954 63.9287 10.7762C64.1114 9.4977 65.2073 8.5114 66.5589 8.5114C67.7643 8.5114 68.6776 9.46117 68.6776 10.5936ZM58.5954 10.0091C66.1936 10.0091 72.3306 16.1826 72.3306 23.7443C72.3306 31.3424 66.157 37.4794 58.5954 37.4794C50.9972 37.4794 44.8602 31.3059 44.8602 23.7443C44.8237 16.1826 50.9972 10.0091 58.5954 10.0091ZM60.8602 7.96345C60.8237 7.92692 60.7872 7.8904 60.7141 7.8904C60.6045 7.8904 60.4949 7.99998 60.4949 8.10957C60.4949 8.21916 60.6045 8.32875 60.7141 8.32875C60.7506 8.32875 60.8237 8.29222 60.8602 8.29222C60.8602 8.47487 60.8968 8.65752 60.9333 8.8767H56.294C56.3306 8.69405 56.3671 8.5114 56.3671 8.29222C56.4036 8.32875 56.4401 8.32875 56.5132 8.32875C56.6228 8.32875 56.7324 8.21916 56.7324 8.10957C56.7324 7.99998 56.6228 7.8904 56.5132 7.8904C56.4401 7.8904 56.4036 7.92692 56.3671 7.96345C56.3671 7.78081 56.294 7.56163 56.2575 7.37898H61.0064C60.8968 7.59815 60.8602 7.78081 60.8602 7.96345ZM56.1844 9.16893H60.9698C61.0429 9.46117 61.189 9.71688 61.3351 9.97259C60.4219 9.78994 59.5086 9.68035 58.5589 9.68035C57.6091 9.68035 56.6959 9.78994 55.7826 9.97259C55.9653 9.71688 56.1114 9.46117 56.1844 9.16893ZM62.8694 5.84473C63.4173 5.69861 64.0018 5.77167 64.5132 6.06391C65.3169 6.5388 65.6091 7.59816 65.1342 8.40181C64.9516 8.69405 64.6593 8.91322 64.3306 9.02281C64.0018 9.09587 63.6365 9.05934 63.3077 8.8767C63.052 8.73058 62.9059 8.5114 62.8328 8.25569C62.7598 7.99998 62.7963 7.70775 62.9424 7.45204C63.052 7.26939 63.2347 7.12327 63.4173 7.08674C63.6365 7.05021 63.8191 7.05021 64.0018 7.1598C64.1479 7.23286 64.221 7.37898 64.294 7.5251C64.3306 7.67122 64.294 7.85387 64.221 7.99999C64.1844 8.07305 64.1844 8.18263 64.294 8.21916C64.3671 8.25569 64.4767 8.25569 64.5132 8.1461C64.6228 7.92692 64.6593 7.67122 64.6228 7.45204C64.5497 7.19633 64.4036 7.01368 64.1844 6.86756C63.9287 6.72144 63.6365 6.68491 63.3443 6.75797C63.052 6.83103 62.7963 7.01368 62.6502 7.26939C62.4675 7.59816 62.3945 7.96345 62.5041 8.29222C62.5771 8.65752 62.8328 8.94975 63.1251 9.1324C63.4538 9.31505 63.8191 9.38811 64.221 9.35158C63.9287 9.71688 63.7461 10.1552 63.673 10.6301C63.0886 10.4109 62.5041 10.2283 61.8831 10.0822C61.0794 9.20546 60.9333 7.85386 61.5543 6.83103C61.8465 6.31962 62.3214 5.99085 62.8694 5.84473ZM61.189 6.79451C61.1525 6.90409 61.0794 6.97715 61.0429 7.08674H56.0749C56.0383 6.97715 56.0018 6.90409 55.9287 6.79451H61.189ZM52.6411 6.06391C53.1525 5.77167 53.7369 5.69861 54.2849 5.84473C54.8328 5.99085 55.3443 6.35615 55.6365 6.86756C56.2575 7.89039 56.1114 9.24199 55.3077 10.1187C54.6867 10.2648 54.1023 10.4475 53.5178 10.6666C53.4447 10.1918 53.2255 9.75341 52.9698 9.38811C53.3351 9.42464 53.7004 9.38811 54.0657 9.16893C54.3945 8.98629 54.6137 8.69405 54.6867 8.32875C54.7963 7.96345 54.7233 7.59816 54.5406 7.30592C54.3945 7.05021 54.1388 6.86756 53.8465 6.79451C53.5543 6.72145 53.2621 6.75798 53.0064 6.9041C52.7872 7.01368 52.6411 7.23286 52.568 7.48857C52.4949 7.74427 52.5315 7.99999 52.6776 8.18263C52.7141 8.25569 52.8237 8.29222 52.8968 8.25569C52.9698 8.21916 53.0064 8.10957 52.9698 8.03651C52.8968 7.89039 52.8602 7.74427 52.8968 7.56163C52.9333 7.41551 53.0429 7.26939 53.189 7.19633C53.3717 7.08674 53.5908 7.05021 53.7735 7.12327C53.9927 7.1598 54.1388 7.30592 54.2484 7.48857C54.3945 7.74427 54.431 7.99998 54.358 8.29222C54.2849 8.54793 54.1022 8.76711 53.8831 8.91323C53.2621 9.27852 52.4219 9.09587 52.0566 8.43834C51.5452 7.59816 51.8374 6.5388 52.6411 6.06391ZM50.5589 8.5114C51.8739 8.5114 52.9698 9.46117 53.189 10.7762C52.6411 10.9954 52.1296 11.2511 51.6182 11.5434C51.6913 11.3607 51.7278 11.1415 51.7278 10.9589C51.7278 10.2283 51.1433 9.64382 50.4128 9.64382C49.8283 9.64382 49.3169 10.1187 49.3169 10.7397C49.3169 10.8128 49.3899 10.8858 49.463 10.8858C49.536 10.8858 49.6091 10.8128 49.6091 10.7397C49.6091 10.3379 49.9379 9.97259 50.3762 9.97259C50.9242 9.97259 51.3625 10.4109 51.3625 10.9589C51.3625 11.3242 51.1799 11.6895 50.9242 11.9452C50.8876 11.9452 50.8876 11.9817 50.8876 11.9817C50.8511 12.0182 50.7781 12.0548 50.705 12.0913H50.6685C50.4858 12.1644 50.3032 12.2374 50.084 12.2374C49.1707 12.2374 48.4401 11.5068 48.4401 10.5936C48.4767 9.46117 49.4265 8.5114 50.5589 8.5114ZM40.6959 27.3607C41.3534 26.8128 42.2301 26.6301 43.0703 26.8858C43.3991 28.6027 44.0201 30.21 44.8602 31.6712C44.2027 31.1963 43.4356 30.8676 42.6319 30.758C42.705 30.7214 42.7781 30.6484 42.8511 30.5753C43.1799 30.3196 43.3625 29.9543 43.3991 29.516C43.4356 29.1141 43.326 28.7123 43.0338 28.3835C42.8146 28.1278 42.5223 27.9817 42.157 27.9452C41.8283 27.9087 41.4995 28.0182 41.2438 28.2374C41.0246 28.4201 40.915 28.6758 40.8785 28.9315C40.842 29.2237 40.9516 29.4794 41.1342 29.6986C41.2803 29.8813 41.4995 29.9908 41.7187 29.9908C41.9379 30.0274 42.157 29.9543 42.3397 29.7717C42.4128 29.6986 42.4128 29.6256 42.3762 29.5525C42.3032 29.4794 42.2301 29.4794 42.157 29.5525C42.0475 29.6621 41.9013 29.6986 41.7552 29.6621C41.6091 29.6621 41.463 29.589 41.3899 29.4794C41.2803 29.3333 41.2073 29.1507 41.2073 28.968C41.2073 28.7854 41.3169 28.6027 41.463 28.4931C41.6456 28.347 41.9013 28.274 42.157 28.274C42.4128 28.3105 42.6319 28.4201 42.8146 28.6027C43.0338 28.8584 43.1068 29.1507 43.1068 29.4794C43.0703 29.8082 42.9242 30.1004 42.6685 30.3196C42.0109 30.8676 41.0246 30.7945 40.4767 30.137C39.7826 29.2968 39.8922 28.0548 40.6959 27.3607ZM40.1844 30.2831C40.1844 30.3196 40.221 30.3196 40.221 30.3561C40.4036 30.5753 40.6228 30.7214 40.8785 30.8676C39.4173 31.2694 38.3214 32.5114 38.0657 34.0091C37.81 33.863 37.5178 33.7899 37.2255 33.7169C37.6274 32.1461 38.6867 30.9041 40.1844 30.2831ZM37.2621 37.516C37.6274 37.2237 37.8465 36.7854 37.8465 36.3105C37.8465 35.6164 37.2621 35.0319 36.568 35.0319C35.9835 35.0319 35.5086 35.5068 35.5086 36.0913C35.5086 36.5662 35.9105 36.968 36.3854 36.968C36.4584 36.968 36.5315 36.895 36.5315 36.8219C36.5315 36.7488 36.4584 36.6758 36.3854 36.6758C36.0931 36.6758 35.8374 36.4201 35.8374 36.1278C35.8374 35.726 36.1662 35.3972 36.568 35.3972C37.0794 35.3972 37.5178 35.7991 37.5178 36.347C37.5178 37.0045 36.9698 37.5525 36.3123 37.5525C35.4721 37.5525 34.7415 36.8584 34.7415 35.9817C34.7415 34.8858 35.6182 34.0091 36.7141 34.0091C37.1525 34.0091 37.5908 34.1187 37.9927 34.3379C37.9927 34.4475 37.9927 34.5571 37.9927 34.6666C37.9927 35.9452 38.7233 37.0045 39.7826 37.5525H37.2621V37.516ZM42.4858 37.516C43.2895 37.0776 43.8374 36.2374 43.8374 35.2511C43.8374 34.0822 42.8876 33.1324 41.7187 33.1324C40.7689 33.1324 40.0018 33.8995 40.0018 34.8493C40.0018 35.6164 40.6228 36.274 41.4265 36.274C41.4995 36.274 41.5726 36.2009 41.5726 36.1278C41.5726 36.0548 41.4995 35.9817 41.4265 35.9817C40.842 35.9817 40.3306 35.5068 40.3306 34.8858C40.3306 34.1187 40.9516 33.4977 41.7187 33.4977C42.705 33.4977 43.5086 34.3013 43.5086 35.2877C43.5086 36.5297 42.4858 37.5525 41.2438 37.5525C39.673 37.5525 38.358 36.274 38.358 34.6666C38.358 32.6575 40.0018 31.0502 41.9744 31.0502C43.4721 31.0502 44.8602 31.7808 45.737 33.0228C47.052 34.8858 48.8054 36.4201 50.778 37.5525H42.4858V37.516ZM43.1068 23.7808C43.1068 19.1781 45.116 14.8676 48.6593 11.9087C49.0246 12.3105 49.4995 12.5662 50.084 12.5662C46.6867 15.1233 44.4949 19.2146 44.4949 23.7808C44.4949 31.5251 50.8146 37.8447 58.5589 37.8447C66.3032 37.8447 72.6228 31.5251 72.6228 23.7808C72.6228 19.2146 70.431 15.1598 67.0338 12.5662C67.6182 12.5662 68.0931 12.3105 68.4584 11.9087C72.0018 14.8676 74.0109 19.1781 74.0109 23.7808C74.0109 32.3287 67.0703 39.2694 58.5223 39.2694C49.9744 39.2694 43.1068 32.3287 43.1068 23.7808Z" fill="#BF930F"/>
<path d="M85.5548 36.4932C85.8574 36.4932 86.1027 36.2478 86.1027 35.9452C86.1027 35.6426 85.8574 35.3973 85.5548 35.3973C85.2522 35.3973 85.0068 35.6426 85.0068 35.9452C85.0068 36.2478 85.2522 36.4932 85.5548 36.4932Z" fill="#BF930F"/>
<path d="M83.838 36.4932C84.1406 36.4932 84.3859 36.2478 84.3859 35.9452C84.3859 35.6426 84.1406 35.3973 83.838 35.3973C83.5354 35.3973 83.29 35.6426 83.29 35.9452C83.29 36.2478 83.5354 36.4932 83.838 36.4932Z" fill="#BF930F"/>
<path d="M99.3988 36.5297L101.298 35.9453L99.3988 35.3608V35.7991H86.6865V36.1279H99.3988V36.5297Z" fill="#BF930F"/>
<path d="M31.6368 36.4932C31.9394 36.4932 32.1848 36.2478 32.1848 35.9452C32.1848 35.6426 31.9394 35.3973 31.6368 35.3973C31.3342 35.3973 31.0889 35.6426 31.0889 35.9452C31.0889 36.2478 31.3342 36.4932 31.6368 36.4932Z" fill="#BF930F"/>
<path d="M33.3175 36.4932C33.6201 36.4932 33.8654 36.2478 33.8654 35.9452C33.8654 35.6426 33.6201 35.3973 33.3175 35.3973C33.0149 35.3973 32.7695 35.6426 32.7695 35.9452C32.7695 36.2478 33.0149 36.4932 33.3175 36.4932Z" fill="#BF930F"/>
<path d="M17.756 36.1279H30.4683V35.7991H17.756V35.3608L15.8564 35.9453L17.756 36.5297V36.1279Z" fill="#BF930F"/>
<path d="M53.5594 30.3088V29.3908L56.0254 29.1748H56.6194L59.0674 29.3908V30.3088H53.5594ZM55.0894 30.3088C55.1134 29.6968 55.1254 29.0848 55.1254 28.4728C55.1374 27.8608 55.1434 27.2428 55.1434 26.6188C55.1434 25.9948 55.1434 25.3708 55.1434 24.7468V23.9188C55.1434 23.3068 55.1434 22.6888 55.1434 22.0648C55.1434 21.4408 55.1374 20.8228 55.1254 20.2108C55.1254 19.5868 55.1134 18.9688 55.0894 18.3568H57.5374C57.5254 18.9688 57.5134 19.5868 57.5014 20.2108C57.4894 20.8348 57.4834 21.4648 57.4834 22.1008C57.4834 22.7248 57.4834 23.3728 57.4834 24.0448V24.6208C57.4834 25.2808 57.4834 25.9288 57.4834 26.5648C57.4834 27.2008 57.4894 27.8308 57.5014 28.4548C57.5134 29.0668 57.5254 29.6848 57.5374 30.3088H55.0894ZM63.2614 30.5248C62.5894 30.5248 62.0674 30.4108 61.6954 30.1828C61.3234 29.9548 61.0834 29.5528 60.9754 28.9768L60.4534 26.5468C60.3574 26.1028 60.2254 25.7548 60.0574 25.5028C59.8894 25.2508 59.6674 25.0768 59.3914 24.9808C59.1274 24.8728 58.7854 24.8188 58.3654 24.8188H56.3494V23.8828H58.5994C59.2234 23.8828 59.7274 23.7808 60.1114 23.5768C60.4954 23.3608 60.7714 23.0788 60.9394 22.7308C61.1194 22.3708 61.2094 21.9748 61.2094 21.5428C61.2094 20.8108 61.0054 20.2588 60.5974 19.8868C60.1894 19.5148 59.5654 19.3288 58.7254 19.3288H56.4214V18.3568H59.0854C60.5134 18.3568 61.6174 18.6268 62.3974 19.1668C63.1774 19.7068 63.5674 20.4568 63.5674 21.4168C63.5674 21.9208 63.4234 22.3888 63.1354 22.8208C62.8594 23.2528 62.4334 23.6128 61.8574 23.9008C61.2814 24.1768 60.5434 24.3448 59.6434 24.4048V24.3328C60.1714 24.3448 60.6214 24.4048 60.9934 24.5128C61.3654 24.6208 61.6714 24.7768 61.9114 24.9808C62.1634 25.1848 62.3674 25.4488 62.5234 25.7728C62.6794 26.0848 62.8114 26.4628 62.9194 26.9068L63.6214 29.8408L62.5954 29.1748L64.9174 29.4088V30.3088C64.7374 30.3568 64.5634 30.3928 64.3954 30.4168C64.2274 30.4528 64.0534 30.4768 63.8734 30.4888C63.6934 30.5128 63.4894 30.5248 63.2614 30.5248ZM53.5594 19.2748V18.3568H56.2234V19.4908H55.9714L53.5594 19.2748Z" fill="white"/>
<path d="M1.06038 55.8565V54.9925L3.23638 54.8325H3.87638L6.03638 54.9925V55.8565H1.06038ZM2.45238 55.8565C2.46304 55.3125 2.46838 54.7685 2.46838 54.2245C2.47904 53.6805 2.48438 53.1365 2.48438 52.5925C2.48438 52.0378 2.48438 51.4831 2.48438 50.9285V50.1605C2.48438 49.6058 2.48438 49.0565 2.48438 48.5125C2.48438 47.9685 2.47904 47.4245 2.46838 46.8805C2.46838 46.3258 2.46304 45.7765 2.45238 45.2325H4.64438C4.63371 45.7765 4.62304 46.3258 4.61238 46.8805C4.61238 47.4351 4.61238 47.9951 4.61238 48.5605C4.61238 49.1151 4.61238 49.6911 4.61238 50.2885V50.8325C4.61238 51.4085 4.61238 51.9791 4.61238 52.5445C4.61238 53.0991 4.61238 53.6538 4.61238 54.2085C4.62304 54.7525 4.63371 55.3018 4.64438 55.8565H2.45238ZM9.86038 56.0325C9.24171 56.0325 8.76704 55.9258 8.43638 55.7125C8.10571 55.4991 7.88704 55.1258 7.78038 54.5925L7.31638 52.5285C7.23104 52.1338 7.11371 51.8245 6.96438 51.6005C6.81504 51.3765 6.62304 51.2218 6.38838 51.1365C6.15371 51.0405 5.84971 50.9925 5.47638 50.9925H3.58838V50.1285H5.65238C6.19638 50.1285 6.63904 50.0431 6.98038 49.8725C7.33238 49.6911 7.58838 49.4458 7.74838 49.1365C7.90838 48.8165 7.98838 48.4591 7.98838 48.0645C7.98838 47.4138 7.80171 46.9285 7.42838 46.6085C7.06571 46.2885 6.50038 46.1285 5.73238 46.1285H3.73238V45.2325H6.03638C7.34838 45.2325 8.35638 45.4725 9.06038 45.9525C9.77504 46.4218 10.1324 47.0831 10.1324 47.9365C10.1324 48.4058 9.99904 48.8325 9.73238 49.2165C9.46571 49.5898 9.07104 49.8938 8.54838 50.1285C8.02571 50.3525 7.37504 50.4858 6.59638 50.5285V50.5605C7.06571 50.5711 7.46571 50.6191 7.79638 50.7045C8.12704 50.7898 8.40438 50.9231 8.62838 51.1045C8.85238 51.2751 9.03371 51.4991 9.17238 51.7765C9.31104 52.0538 9.42838 52.3951 9.52437 52.8005L10.1804 55.4245L9.23638 54.8005L11.3644 55.0085V55.8565C11.2044 55.8885 11.0497 55.9151 10.9004 55.9365C10.751 55.9685 10.591 55.9898 10.4204 56.0005C10.2604 56.0218 10.0737 56.0325 9.86038 56.0325ZM1.06038 46.0965V45.2325H3.36438V46.2565H3.14038L1.06038 46.0965ZM17.09 56.1125C16.4073 56.1125 15.7567 55.9951 15.138 55.7605C14.5193 55.5258 13.9647 55.1738 13.474 54.7045C12.994 54.2351 12.6153 53.6538 12.338 52.9605C12.0713 52.2671 11.938 51.4671 11.938 50.5605C11.938 49.6645 12.0767 48.8698 12.354 48.1765C12.6313 47.4831 13.01 46.9018 13.49 46.4325C13.97 45.9525 14.5193 45.5898 15.138 45.3445C15.7567 45.0991 16.4073 44.9765 17.09 44.9765C17.7727 44.9765 18.4233 45.0938 19.042 45.3285C19.6607 45.5631 20.2047 45.9151 20.674 46.3845C21.154 46.8538 21.5327 47.4351 21.81 48.1285C22.098 48.8111 22.242 49.6111 22.242 50.5285C22.242 51.4138 22.1033 52.2031 21.826 52.8965C21.5487 53.5898 21.17 54.1765 20.69 54.6565C20.21 55.1365 19.6607 55.4991 19.042 55.7445C18.4233 55.9898 17.7727 56.1125 17.09 56.1125ZM17.09 55.1845C17.5913 55.1845 18.018 55.0618 18.37 54.8165C18.7327 54.5711 19.026 54.2405 19.25 53.8245C19.4847 53.3978 19.6553 52.9071 19.762 52.3525C19.8793 51.7871 19.938 51.1845 19.938 50.5445C19.938 49.9045 19.8793 49.3071 19.762 48.7525C19.6553 48.1978 19.4847 47.7071 19.25 47.2805C19.026 46.8538 18.7327 46.5178 18.37 46.2725C18.018 46.0271 17.5913 45.9045 17.09 45.9045C16.5993 45.9045 16.1727 46.0271 15.81 46.2725C15.4473 46.5071 15.1487 46.8378 14.914 47.2645C14.6793 47.6911 14.5033 48.1871 14.386 48.7525C14.2793 49.3071 14.226 49.9045 14.226 50.5445C14.226 51.1738 14.2793 51.7711 14.386 52.3365C14.5033 52.8911 14.6793 53.3818 14.914 53.8085C15.1487 54.2351 15.4473 54.5711 15.81 54.8165C16.1727 55.0618 16.5993 55.1845 17.09 55.1845ZM25.1511 55.8565V54.9925L27.4551 54.8325H28.1591L30.4791 54.9925V55.8565H25.1511ZM26.7191 55.8565C26.7298 55.3125 26.7351 54.7738 26.7351 54.2405C26.7458 53.6965 26.7511 53.1471 26.7511 52.5925C26.7511 52.0378 26.7511 51.4885 26.7511 50.9445V50.1445C26.7511 49.6005 26.7511 49.0565 26.7511 48.5125C26.7511 47.9578 26.7458 47.4085 26.7351 46.8645C26.7351 46.3205 26.7298 45.7765 26.7191 45.2325H28.9111C28.9111 45.7658 28.9058 46.3098 28.8951 46.8645C28.8845 47.4085 28.8791 47.9525 28.8791 48.4965C28.8791 49.0405 28.8791 49.5951 28.8791 50.1605V50.9285C28.8791 51.4725 28.8791 52.0218 28.8791 52.5765C28.8791 53.1205 28.8845 53.6645 28.8951 54.2085C28.9058 54.7525 28.9111 55.3018 28.9111 55.8565H26.7191ZM23.0391 48.2085L23.1511 45.2325H32.4951L32.5911 48.2085H31.4711L30.9591 45.3605L31.8391 46.1605H23.8071L24.6711 45.3605L24.1591 48.2085H23.0391ZM31.8006 55.8565V54.9925L33.4326 54.8325H33.7686L35.4806 54.9925V55.8565H31.8006ZM32.7446 55.8565L36.4566 45.1845H38.0246L41.7366 55.8565H39.5286L36.5046 46.7685H36.6326L36.3606 47.9205L33.7206 55.8565H32.7446ZM34.5046 52.6245V51.7285H39.3206V52.6245H34.5046ZM37.7366 55.8565V54.9925L39.7366 54.8325H40.5366L42.5846 54.9925V55.8565H37.7366ZM43.2951 55.8565V54.9925L45.4391 54.8325H45.6631V55.8565H43.2951ZM44.6871 55.8565C44.6978 55.3125 44.7031 54.7685 44.7031 54.2245C44.7138 53.6805 44.7191 53.1418 44.7191 52.6085C44.7191 52.0751 44.7191 51.5525 44.7191 51.0405V50.1605C44.7191 49.5951 44.7191 49.0405 44.7191 48.4965C44.7191 47.9525 44.7138 47.4085 44.7031 46.8645C44.7031 46.3098 44.6978 45.7658 44.6871 45.2325H46.8951C46.8845 45.7765 46.8738 46.3205 46.8631 46.8645C46.8631 47.4085 46.8631 47.9578 46.8631 48.5125C46.8631 49.0565 46.8631 49.6058 46.8631 50.1605V51.1205C46.8631 51.6111 46.8631 52.1178 46.8631 52.6405C46.8631 53.1631 46.8631 53.6965 46.8631 54.2405C46.8738 54.7738 46.8845 55.3125 46.8951 55.8565H44.6871ZM45.8071 55.8565V54.9285H50.7991L50.1751 55.4565L50.7671 52.6885H51.8871L51.7271 55.8565H45.8071ZM43.2951 46.0965V45.2325H48.4151V46.0965L46.1591 46.2565H45.4391L43.2951 46.0965ZM56.6229 55.8565V54.9925L58.7989 54.8325H59.5189L61.7749 54.9925V55.8565H56.6229ZM58.0149 55.8565C58.0255 55.3125 58.0309 54.7738 58.0309 54.2405C58.0415 53.6965 58.0469 53.1471 58.0469 52.5925C58.0469 52.0378 58.0469 51.4831 58.0469 50.9285V50.1605C58.0469 49.6058 58.0469 49.0565 58.0469 48.5125C58.0469 47.9578 58.0415 47.4085 58.0309 46.8645C58.0309 46.3205 58.0255 45.7765 58.0149 45.2325H60.2229C60.2122 45.7658 60.2015 46.3098 60.1909 46.8645C60.1909 47.4085 60.1909 47.9525 60.1909 48.4965C60.1909 49.0405 60.1909 49.5951 60.1909 50.1605V51.1845C60.1909 51.6751 60.1909 52.1765 60.1909 52.6885C60.1909 53.1898 60.1909 53.7071 60.1909 54.2405C60.2015 54.7631 60.2122 55.3018 60.2229 55.8565H58.0149ZM59.2149 51.7445V50.8645H60.9269C61.5349 50.8645 62.0255 50.7685 62.3989 50.5765C62.7829 50.3738 63.0602 50.0911 63.2309 49.7285C63.4122 49.3551 63.5029 48.9231 63.5029 48.4325C63.5029 47.6751 63.2949 47.1045 62.8789 46.7205C62.4735 46.3258 61.8335 46.1285 60.9589 46.1285H59.2949V45.2325H61.1029C62.1375 45.2325 62.9855 45.3658 63.6469 45.6325C64.3189 45.8885 64.8149 46.2565 65.1349 46.7365C65.4549 47.2058 65.6149 47.7658 65.6149 48.4165C65.6149 49.0351 65.4549 49.6005 65.1349 50.1125C64.8255 50.6138 64.3242 51.0138 63.6309 51.3125C62.9375 51.6005 62.0255 51.7445 60.8949 51.7445H59.2149ZM56.6229 46.0965V45.2325H58.9269V46.2565H58.7029L56.6229 46.0965ZM64.8788 55.8565V54.9925L66.5108 54.8325H66.8468L68.5588 54.9925V55.8565H64.8788ZM65.8228 55.8565L69.5348 45.1845H71.1028L74.8148 55.8565H72.6068L69.5828 46.7685H69.7108L69.4388 47.9205L66.7988 55.8565H65.8228ZM67.5828 52.6245V51.7285H72.3988V52.6245H67.5828ZM70.8148 55.8565V54.9925L72.8148 54.8325H73.6148L75.6628 54.9925V55.8565H70.8148ZM76.3733 55.8565V54.9925L78.5173 54.8325H78.7413V55.8565H76.3733ZM77.7653 55.8565C77.7759 55.3125 77.7812 54.7685 77.7812 54.2245C77.7919 53.6805 77.7973 53.1418 77.7973 52.6085C77.7973 52.0751 77.7973 51.5525 77.7973 51.0405V50.1605C77.7973 49.5951 77.7973 49.0405 77.7973 48.4965C77.7973 47.9525 77.7919 47.4085 77.7812 46.8645C77.7812 46.3098 77.7759 45.7658 77.7653 45.2325H79.9733C79.9626 45.7765 79.9519 46.3205 79.9413 46.8645C79.9413 47.4085 79.9413 47.9578 79.9413 48.5125C79.9413 49.0565 79.9413 49.6058 79.9413 50.1605V51.1205C79.9413 51.6111 79.9413 52.1178 79.9413 52.6405C79.9413 53.1631 79.9413 53.6965 79.9413 54.2405C79.9519 54.7738 79.9626 55.3125 79.9733 55.8565H77.7653ZM78.8853 55.8565V54.9285H83.8773L83.2533 55.4565L83.8453 52.6885H84.9653L84.8053 55.8565H78.8853ZM76.3733 46.0965V45.2325H81.4933V46.0965L79.2373 46.2565H78.5173L76.3733 46.0965ZM85.66 55.8565V54.9925L87.292 54.8325H87.628L89.34 54.9925V55.8565H85.66ZM86.604 55.8565L90.316 45.1845H91.884L95.596 55.8565H93.388L90.364 46.7685H90.492L90.22 47.9205L87.58 55.8565H86.604ZM88.364 52.6245V51.7285H93.18V52.6245H88.364ZM91.596 55.8565V54.9925L93.596 54.8325H94.396L96.444 54.9925V55.8565H91.596ZM102.477 56.1125C101.666 56.1125 100.914 55.9951 100.221 55.7605C99.538 55.5151 98.9406 55.1578 98.4286 54.6885C97.9273 54.2191 97.5326 53.6431 97.2446 52.9605C96.9673 52.2671 96.8286 51.4831 96.8286 50.6085C96.8286 49.7018 96.9726 48.9018 97.2606 48.2085C97.5593 47.5045 97.97 46.9125 98.4926 46.4325C99.0153 45.9525 99.6233 45.5898 100.317 45.3445C101.01 45.0991 101.751 44.9765 102.541 44.9765C103.149 44.9765 103.725 45.0405 104.269 45.1685C104.813 45.2965 105.309 45.4831 105.757 45.7285L105.821 48.1445H104.717L104.189 45.7605L105.277 45.9045V46.8645C104.882 46.5338 104.477 46.2938 104.061 46.1445C103.655 45.9845 103.229 45.9045 102.781 45.9045C102.109 45.9045 101.495 46.0751 100.941 46.4165C100.386 46.7578 99.9433 47.2698 99.6126 47.9525C99.282 48.6351 99.1166 49.4991 99.1166 50.5445C99.1166 51.5791 99.2713 52.4431 99.5806 53.1365C99.9006 53.8191 100.333 54.3311 100.877 54.6725C101.421 55.0138 102.034 55.1845 102.717 55.1845C103.218 55.1845 103.693 55.1098 104.141 54.9605C104.599 54.8005 105.026 54.5658 105.421 54.2565V55.1685L104.333 55.3285L104.845 52.9285H105.965L105.901 55.3445C105.474 55.5791 104.973 55.7658 104.397 55.9045C103.831 56.0431 103.191 56.1125 102.477 56.1125ZM107.155 55.8565V54.9925L109.299 54.8325H109.523V55.8565H107.155ZM108.547 55.8565C108.557 55.3125 108.562 54.7738 108.562 54.2405C108.573 53.6965 108.579 53.1471 108.579 52.5925C108.579 52.0378 108.579 51.4885 108.579 50.9445V50.1445C108.579 49.6005 108.579 49.0565 108.579 48.5125C108.579 47.9578 108.573 47.4085 108.562 46.8645C108.562 46.3205 108.557 45.7765 108.547 45.2325H110.755C110.744 45.7658 110.733 46.3098 110.723 46.8645C110.723 47.4085 110.723 47.9525 110.723 48.4965C110.723 49.0405 110.723 49.5951 110.723 50.1605V50.8485C110.723 51.4245 110.723 51.9951 110.723 52.5605C110.723 53.1151 110.723 53.6645 110.723 54.2085C110.733 54.7525 110.744 55.3018 110.755 55.8565H108.547ZM109.667 55.8565V54.9285H114.963L114.355 55.4725L114.835 52.9765H115.955L115.843 55.8565H109.667ZM109.651 50.8805V49.9685H113.347V50.8805H109.651ZM113.027 52.2245L112.755 50.5605V50.2085L113.027 48.6085H113.939V52.2245H113.027ZM107.155 46.0965V45.2325H109.523V46.2565H109.299L107.155 46.0965ZM114.515 48.0485L114.035 45.6165L114.659 46.1605H109.667V45.2325H115.523L115.635 48.0485H114.515Z" fill="white"/>
<path d="M34.0841 66.786C34.2101 67.014 34.3511 67.212 34.5071 67.38C34.6691 67.548 34.8431 67.677 35.0291 67.767C35.2211 67.857 35.4221 67.902 35.6321 67.902C35.8541 67.902 36.0371 67.848 36.1811 67.74C36.3251 67.626 36.3971 67.473 36.3971 67.281C36.3971 67.119 36.3551 66.99 36.2711 66.894C36.1871 66.792 36.0521 66.696 35.8661 66.606C35.6801 66.516 35.4341 66.414 35.1281 66.3C34.9781 66.246 34.8041 66.171 34.6061 66.075C34.4141 65.979 34.2311 65.856 34.0571 65.706C33.8831 65.55 33.7391 65.364 33.6251 65.148C33.5111 64.926 33.4541 64.659 33.4541 64.347C33.4541 63.975 33.5501 63.654 33.7421 63.384C33.9401 63.114 34.2041 62.91 34.5341 62.772C34.8701 62.628 35.2421 62.556 35.6501 62.556C36.0701 62.556 36.4331 62.625 36.7391 62.763C37.0511 62.901 37.3091 63.075 37.5131 63.285C37.7171 63.495 37.8731 63.708 37.9811 63.924L36.8201 64.572C36.7301 64.422 36.6251 64.293 36.5051 64.185C36.3911 64.071 36.2621 63.984 36.1181 63.924C35.9801 63.858 35.8301 63.825 35.6681 63.825C35.4521 63.825 35.2871 63.873 35.1731 63.969C35.0591 64.059 35.0021 64.173 35.0021 64.311C35.0021 64.455 35.0561 64.581 35.1641 64.689C35.2781 64.797 35.4371 64.896 35.6411 64.986C35.8511 65.076 36.1031 65.172 36.3971 65.274C36.6191 65.358 36.8261 65.457 37.0181 65.571C37.2101 65.679 37.3781 65.811 37.5221 65.967C37.6721 66.123 37.7891 66.303 37.8731 66.507C37.9571 66.711 37.9991 66.945 37.9991 67.209C37.9991 67.527 37.9331 67.812 37.8011 68.064C37.6751 68.31 37.5011 68.517 37.2791 68.685C37.0631 68.853 36.8141 68.979 36.5321 69.063C36.2561 69.153 35.9711 69.198 35.6771 69.198C35.2691 69.198 34.8881 69.126 34.5341 68.982C34.1861 68.832 33.8831 68.631 33.6251 68.379C33.3671 68.127 33.1661 67.851 33.0221 67.551L34.0841 66.786ZM39.0161 62.7H40.5641V69H39.0161V62.7ZM46.2459 62.7H47.7129V69.315L43.3569 65.454V69H41.8989V62.385L46.2459 66.246V62.7ZM50.3404 65.85C50.3404 66.234 50.4274 66.567 50.6014 66.849C50.7754 67.125 51.0034 67.335 51.2854 67.479C51.5734 67.623 51.8884 67.695 52.2304 67.695C52.5304 67.695 52.7944 67.656 53.0224 67.578C53.2504 67.5 53.4544 67.398 53.6344 67.272C53.8144 67.146 53.9734 67.011 54.1114 66.867V68.505C53.8594 68.703 53.5834 68.859 53.2834 68.973C52.9834 69.087 52.6024 69.144 52.1404 69.144C51.6364 69.144 51.1714 69.066 50.7454 68.91C50.3194 68.754 49.9534 68.529 49.6474 68.235C49.3414 67.941 49.1044 67.593 48.9364 67.191C48.7684 66.789 48.6844 66.342 48.6844 65.85C48.6844 65.358 48.7684 64.911 48.9364 64.509C49.1044 64.107 49.3414 63.759 49.6474 63.465C49.9534 63.171 50.3194 62.946 50.7454 62.79C51.1714 62.634 51.6364 62.556 52.1404 62.556C52.6024 62.556 52.9834 62.613 53.2834 62.727C53.5834 62.841 53.8594 62.997 54.1114 63.195V64.833C53.9734 64.689 53.8144 64.554 53.6344 64.428C53.4544 64.296 53.2504 64.194 53.0224 64.122C52.7944 64.044 52.5304 64.005 52.2304 64.005C51.8884 64.005 51.5734 64.077 51.2854 64.221C51.0034 64.365 50.7754 64.575 50.6014 64.851C50.4274 65.127 50.3404 65.46 50.3404 65.85ZM56.363 69V67.749H59.54V69H56.363ZM56.363 63.951V62.7H59.54V63.951H56.363ZM56.363 66.3V65.076H59.36V66.3H56.363ZM55.355 62.7H56.813V69H55.355V62.7ZM63.4221 64.518V63.195L66.4461 62.583V69H64.9791V64.131L63.4221 64.518ZM71.4572 64.914C71.4572 64.698 71.4092 64.512 71.3132 64.356C71.2232 64.194 71.0972 64.071 70.9352 63.987C70.7792 63.897 70.6022 63.852 70.4042 63.852C70.2002 63.852 70.0172 63.897 69.8552 63.987C69.6992 64.071 69.5732 64.194 69.4772 64.356C69.3872 64.512 69.3422 64.698 69.3422 64.914C69.3422 65.124 69.3872 65.31 69.4772 65.472C69.5732 65.634 69.6992 65.76 69.8552 65.85C70.0172 65.94 70.2002 65.985 70.4042 65.985C70.6022 65.985 70.7792 65.94 70.9352 65.85C71.0972 65.76 71.2232 65.634 71.3132 65.472C71.4092 65.31 71.4572 65.124 71.4572 64.914ZM70.4132 68.973H68.4872L70.5302 66.696L70.8362 66.561C70.6682 66.723 70.5062 66.831 70.3502 66.885C70.2002 66.933 70.0112 66.957 69.7832 66.957C69.5492 66.957 69.3152 66.912 69.0812 66.822C68.8532 66.726 68.6462 66.591 68.4602 66.417C68.2742 66.237 68.1242 66.021 68.0102 65.769C67.8962 65.517 67.8392 65.232 67.8392 64.914C67.8392 64.392 67.9532 63.957 68.1812 63.609C68.4152 63.261 68.7242 63 69.1082 62.826C69.4982 62.646 69.9302 62.556 70.4042 62.556C70.8722 62.556 71.2982 62.646 71.6822 62.826C72.0722 63 72.3812 63.261 72.6092 63.609C72.8432 63.957 72.9602 64.392 72.9602 64.914C72.9602 65.25 72.8882 65.562 72.7442 65.85C72.6062 66.138 72.4352 66.408 72.2312 66.66L70.4132 68.973ZM77.4777 64.914C77.4777 64.698 77.4297 64.512 77.3337 64.356C77.2437 64.194 77.1177 64.071 76.9557 63.987C76.7997 63.897 76.6227 63.852 76.4247 63.852C76.2207 63.852 76.0377 63.897 75.8757 63.987C75.7197 64.071 75.5937 64.194 75.4977 64.356C75.4077 64.512 75.3627 64.698 75.3627 64.914C75.3627 65.124 75.4077 65.31 75.4977 65.472C75.5937 65.634 75.7197 65.76 75.8757 65.85C76.0377 65.94 76.2207 65.985 76.4247 65.985C76.6227 65.985 76.7997 65.94 76.9557 65.85C77.1177 65.76 77.2437 65.634 77.3337 65.472C77.4297 65.31 77.4777 65.124 77.4777 64.914ZM76.4337 68.973H74.5077L76.5507 66.696L76.8567 66.561C76.6887 66.723 76.5267 66.831 76.3707 66.885C76.2207 66.933 76.0317 66.957 75.8037 66.957C75.5697 66.957 75.3357 66.912 75.1017 66.822C74.8737 66.726 74.6667 66.591 74.4807 66.417C74.2947 66.237 74.1447 66.021 74.0307 65.769C73.9167 65.517 73.8597 65.232 73.8597 64.914C73.8597 64.392 73.9737 63.957 74.2017 63.609C74.4357 63.261 74.7447 63 75.1287 62.826C75.5187 62.646 75.9507 62.556 76.4247 62.556C76.8927 62.556 77.3187 62.646 77.7027 62.826C78.0927 63 78.4017 63.261 78.6297 63.609C78.8637 63.957 78.9807 64.392 78.9807 64.914C78.9807 65.25 78.9087 65.562 78.7647 65.85C78.6267 66.138 78.4557 66.408 78.2517 66.66L76.4337 68.973ZM83.4982 64.914C83.4982 64.698 83.4502 64.512 83.3542 64.356C83.2642 64.194 83.1382 64.071 82.9762 63.987C82.8202 63.897 82.6432 63.852 82.4452 63.852C82.2412 63.852 82.0582 63.897 81.8962 63.987C81.7402 64.071 81.6142 64.194 81.5182 64.356C81.4282 64.512 81.3832 64.698 81.3832 64.914C81.3832 65.124 81.4282 65.31 81.5182 65.472C81.6142 65.634 81.7402 65.76 81.8962 65.85C82.0582 65.94 82.2412 65.985 82.4452 65.985C82.6432 65.985 82.8202 65.94 82.9762 65.85C83.1382 65.76 83.2642 65.634 83.3542 65.472C83.4502 65.31 83.4982 65.124 83.4982 64.914ZM82.4542 68.973H80.5282L82.5712 66.696L82.8772 66.561C82.7092 66.723 82.5472 66.831 82.3912 66.885C82.2412 66.933 82.0522 66.957 81.8242 66.957C81.5902 66.957 81.3562 66.912 81.1222 66.822C80.8942 66.726 80.6872 66.591 80.5012 66.417C80.3152 66.237 80.1652 66.021 80.0512 65.769C79.9372 65.517 79.8802 65.232 79.8802 64.914C79.8802 64.392 79.9942 63.957 80.2222 63.609C80.4562 63.261 80.7652 63 81.1492 62.826C81.5392 62.646 81.9712 62.556 82.4452 62.556C82.9132 62.556 83.3392 62.646 83.7232 62.826C84.1132 63 84.4222 63.261 84.6502 63.609C84.8842 63.957 85.0012 64.392 85.0012 64.914C85.0012 65.25 84.9292 65.562 84.7852 65.85C84.6472 66.138 84.4762 66.408 84.2722 66.66L82.4542 68.973Z" fill="#0B0B0C"/>
</svg>
