<svg width="169" height="118" viewBox="0 0 169 118" fill="none" xmlns="http://www.w3.org/2000/svg">
<path d="M105.878 37.6499C105.878 37.8295 106.058 38.009 106.237 38.009C106.417 38.009 106.597 37.8295 106.597 37.6499C106.597 37.4703 106.417 37.2908 106.237 37.3506C105.998 37.2908 105.818 37.4703 105.878 37.6499Z" fill="white"/>
<path d="M106.239 38.6074C106.059 38.6074 105.879 38.787 105.879 38.9666C105.879 39.1461 106.059 39.3257 106.239 39.3257C106.418 39.3257 106.598 39.1461 106.598 38.9666C106.598 38.787 106.418 38.6074 106.239 38.6074Z" fill="white"/>
<path d="M105.699 36.2725C105.699 36.4521 105.879 36.5718 106.058 36.5718C106.058 36.5718 106.058 36.5718 106.118 36.5718C106.298 36.5718 106.477 36.3922 106.417 36.1528C106.417 35.9732 106.238 35.7937 105.998 35.8535C105.819 35.8535 105.699 36.0331 105.699 36.2725Z" fill="white"/>
<path d="M105.52 34.835C105.58 35.0146 105.699 35.1343 105.879 35.1343H105.939C106.118 35.0744 106.238 34.8949 106.238 34.7153C106.178 34.5357 105.998 34.416 105.819 34.416C105.58 34.4759 105.46 34.6554 105.52 34.835Z" fill="white"/>
<path d="M105.161 33.5195C105.221 33.6991 105.34 33.7589 105.52 33.7589C105.52 33.7589 105.58 33.7589 105.64 33.7589C105.819 33.6991 105.939 33.5195 105.879 33.34C105.819 33.1604 105.639 33.0407 105.46 33.1005C105.221 33.1005 105.161 33.34 105.161 33.5195Z" fill="white"/>
<path d="M104.742 46.9267C104.562 46.8669 104.323 46.9267 104.263 47.1063C104.203 47.2859 104.263 47.5253 104.442 47.5852C104.502 47.5852 104.562 47.5852 104.562 47.5852C104.682 47.5852 104.861 47.5253 104.921 47.3457C104.981 47.226 104.921 47.0465 104.742 46.9267Z" fill="white"/>
<path d="M105.22 45.6103C105.04 45.5504 104.801 45.6702 104.741 45.8497C104.681 46.0293 104.801 46.2687 104.981 46.3286C105.04 46.3286 105.04 46.3286 105.1 46.3286C105.22 46.3286 105.4 46.2089 105.459 46.0891C105.459 45.9096 105.4 45.6702 105.22 45.6103Z" fill="white"/>
<path d="M106.118 41.4199C105.939 41.4199 105.759 41.5396 105.699 41.7192C105.639 41.8988 105.819 42.0783 105.999 42.1382H106.058C106.238 42.1382 106.358 42.0185 106.417 41.8389C106.417 41.6594 106.298 41.4798 106.118 41.4199Z" fill="white"/>
<path d="M105.58 44.2333C105.401 44.1735 105.221 44.2932 105.161 44.4728C105.101 44.6523 105.221 44.8319 105.401 44.8918C105.46 44.8918 105.46 44.8918 105.52 44.8918C105.7 44.8918 105.819 44.772 105.879 44.6523C105.879 44.4728 105.76 44.2932 105.58 44.2333Z" fill="white"/>
<path d="M105.879 42.8571C105.699 42.7972 105.519 42.9169 105.46 43.1563C105.4 43.3359 105.519 43.5155 105.759 43.5753H105.819C105.998 43.5753 106.118 43.4556 106.178 43.276C106.238 43.0965 106.118 42.9169 105.879 42.8571Z" fill="white"/>
<path d="M106.239 40.043C106.059 40.043 105.879 40.1627 105.879 40.3422C105.879 40.5218 105.999 40.7014 106.239 40.7014C106.418 40.7014 106.598 40.5817 106.598 40.3422C106.598 40.2225 106.418 40.043 106.239 40.043Z" fill="white"/>
<path d="M104.801 32.1426C104.861 32.2623 104.981 32.382 105.16 32.382C105.22 32.382 105.22 32.382 105.28 32.382C105.46 32.3221 105.579 32.1426 105.52 31.963C105.46 31.7834 105.22 31.6637 105.041 31.7236C104.801 31.7834 104.742 31.963 104.801 32.1426Z" fill="white"/>
<path d="M101.689 52.5531C101.809 52.5531 101.869 52.4932 101.988 52.4334C102.108 52.2538 102.108 52.0742 101.928 51.9545C101.749 51.8348 101.569 51.8348 101.45 52.0144C101.33 52.194 101.33 52.3735 101.51 52.4932C101.569 52.5531 101.629 52.5531 101.689 52.5531Z" fill="white"/>
<path d="M102.527 51.416C102.646 51.416 102.766 51.3562 102.826 51.2364C102.946 51.0569 102.886 50.8773 102.706 50.7576C102.527 50.6379 102.347 50.6977 102.227 50.8773C102.108 51.0569 102.167 51.2364 102.347 51.3562C102.407 51.3562 102.467 51.416 102.527 51.416Z" fill="white"/>
<path d="M100.791 53.6307C100.911 53.6307 100.97 53.5709 101.09 53.511C101.21 53.3913 101.21 53.1519 101.09 53.0322C100.97 52.9125 100.731 52.9125 100.611 53.0322C100.492 53.1519 100.492 53.3913 100.611 53.511C100.611 53.6307 100.731 53.6307 100.791 53.6307Z" fill="white"/>
<path d="M100.611 24.9601C100.671 25.0199 100.791 25.0798 100.851 25.0798C100.911 25.0798 101.03 25.0798 101.09 25.0199C101.21 24.9002 101.27 24.6608 101.09 24.5411C100.971 24.4214 100.731 24.3615 100.611 24.5411C100.492 24.5411 100.432 24.7805 100.611 24.9601Z" fill="white"/>
<path d="M101.748 26.1566C101.808 26.1566 101.868 26.1566 101.988 26.0967C102.167 25.977 102.167 25.7376 102.047 25.6179C101.928 25.4383 101.688 25.4383 101.569 25.558C101.389 25.6778 101.389 25.9172 101.509 26.0369C101.569 26.0967 101.628 26.1566 101.748 26.1566Z" fill="white"/>
<path d="M104.263 30.8256C104.323 30.9453 104.442 31.065 104.562 31.065C104.622 31.065 104.682 31.065 104.682 31.065C104.861 31.0051 104.981 30.7657 104.861 30.5862C104.802 30.4066 104.562 30.2869 104.383 30.4066C104.323 30.4664 104.203 30.646 104.263 30.8256Z" fill="white"/>
<path d="M103.724 29.569C103.784 29.6887 103.904 29.7485 104.024 29.7485C104.084 29.7485 104.143 29.7485 104.203 29.6887C104.383 29.6288 104.443 29.3894 104.383 29.2098C104.323 29.0303 104.084 28.9704 103.904 29.0303C103.724 29.2098 103.605 29.3894 103.724 29.569Z" fill="white"/>
<path d="M103.365 28.5508C103.425 28.5508 103.485 28.5508 103.545 28.4909C103.725 28.3712 103.784 28.1916 103.665 28.0121C103.545 27.8325 103.365 27.7726 103.186 27.8924C103.006 28.0121 102.946 28.1916 103.066 28.3712C103.126 28.4311 103.246 28.5508 103.365 28.5508Z" fill="white"/>
<path d="M102.587 27.2938C102.646 27.2938 102.706 27.2938 102.766 27.234C102.946 27.1143 102.946 26.8748 102.886 26.7551C102.766 26.5756 102.587 26.5756 102.407 26.6354C102.227 26.7551 102.227 26.9347 102.287 27.1143C102.347 27.234 102.467 27.2938 102.587 27.2938Z" fill="white"/>
<path d="M103.125 50.1589C103.185 50.2187 103.245 50.2187 103.304 50.2187C103.424 50.2187 103.544 50.1589 103.604 50.0392C103.723 49.8596 103.664 49.6202 103.484 49.5603C103.304 49.4406 103.065 49.5005 103.005 49.68C102.885 49.7997 102.945 50.0392 103.125 50.1589Z" fill="white"/>
<path d="M66.0148 28.3719C65.8352 28.2521 65.5958 28.3719 65.5359 28.4916C65.4162 28.6711 65.5359 28.8507 65.6556 28.9704C65.7155 28.9704 65.7753 29.0303 65.8352 29.0303C65.9549 29.0303 66.0746 28.9704 66.1345 28.8507C66.2542 28.6711 66.1345 28.4317 66.0148 28.3719Z" fill="white"/>
<path d="M63.2014 38.5474C63.381 38.5474 63.5606 38.4277 63.5606 38.1882C63.5606 38.0087 63.381 37.8291 63.2014 37.8291C63.0218 37.8291 62.8423 37.9488 62.8423 38.1882C62.8423 38.3678 63.0218 38.5474 63.2014 38.5474Z" fill="white"/>
<path d="M63.2613 37.1704C63.3212 37.1704 63.3212 37.1704 63.2613 37.1704C63.5008 37.1704 63.6205 37.0507 63.6803 36.8711C63.6803 36.6916 63.5606 36.512 63.3811 36.4521C63.2015 36.4521 63.0219 36.5719 63.0219 36.7514C62.9621 36.931 63.0818 37.1106 63.2613 37.1704Z" fill="white"/>
<path d="M63.2014 39.9829C63.381 39.9829 63.5606 39.8033 63.5606 39.6238C63.5606 39.4442 63.381 39.2646 63.2014 39.2646C63.0218 39.2646 62.8423 39.4442 62.8423 39.6238C62.8423 39.8632 63.0218 39.9829 63.2014 39.9829Z" fill="white"/>
<path d="M63.5611 42.7974C63.7406 42.7974 63.8604 42.5579 63.8604 42.3784C63.8604 42.1988 63.6209 42.0791 63.4414 42.0791C63.2618 42.0791 63.1421 42.3185 63.1421 42.4981C63.1421 42.6777 63.3217 42.7974 63.5611 42.7974C63.5012 42.7974 63.5012 42.7974 63.5611 42.7974Z" fill="white"/>
<path d="M63.3216 41.4201C63.5011 41.4201 63.6807 41.2406 63.6208 41.061C63.6208 40.8815 63.4413 40.7019 63.2617 40.7617C63.0821 40.7617 62.9026 40.9413 62.9624 41.1807C62.9624 41.2406 63.142 41.4201 63.3216 41.4201Z" fill="white"/>
<path d="M68.8876 53.5107C68.7679 53.6304 68.7679 53.8698 68.8876 53.9895C68.9475 54.0494 69.0672 54.1092 69.1271 54.1092C69.1869 54.1092 69.3066 54.0494 69.3665 53.9895C69.4862 53.8698 69.4862 53.6304 69.3665 53.5107C69.2468 53.391 69.0073 53.391 68.8876 53.5107Z" fill="white"/>
<path d="M64.5188 31.603C64.5786 31.603 64.5786 31.603 64.6385 31.603C64.7582 31.603 64.9378 31.5432 64.9976 31.3636C65.0575 31.184 64.9976 30.9446 64.818 30.8848C64.6385 30.8249 64.4589 30.8848 64.3392 31.0643C64.2195 31.3037 64.3392 31.5432 64.5188 31.603Z" fill="white"/>
<path d="M65.0573 30.2863C65.1172 30.2863 65.1771 30.2863 65.2369 30.2863C65.3566 30.2863 65.4763 30.2265 65.5362 30.1068C65.596 29.9272 65.5362 29.7476 65.3566 29.6279C65.1771 29.5681 64.9975 29.6279 64.8778 29.8075C64.7581 29.9871 64.8778 30.1666 65.0573 30.2863Z" fill="white"/>
<path d="M63.4414 35.7339C63.6808 35.7339 63.8005 35.6142 63.8604 35.4346C63.9202 35.2551 63.7406 35.0755 63.5611 35.0156C63.3815 34.9558 63.2019 35.1354 63.1421 35.3149C63.1421 35.4945 63.2618 35.6741 63.4414 35.7339Z" fill="white"/>
<path d="M63.6803 34.3579H63.7401C63.9197 34.3579 64.0394 34.2382 64.0993 34.0586C64.1591 33.879 64.0394 33.6994 63.8599 33.6396C63.6803 33.5797 63.5007 33.6995 63.4409 33.879C63.381 34.0586 63.5007 34.298 63.6803 34.3579Z" fill="white"/>
<path d="M64.0398 32.921C64.0996 32.921 64.0996 32.921 64.1595 32.921C64.2792 32.921 64.4588 32.8013 64.5186 32.6816C64.5785 32.5021 64.4588 32.2626 64.2792 32.2626C64.0996 32.2028 63.8602 32.3225 63.8602 32.5021C63.7405 32.6816 63.8602 32.8612 64.0398 32.921Z" fill="white"/>
<path d="M64.0993 43.7553C64.0394 43.5758 63.8598 43.4561 63.6803 43.4561C63.5007 43.5159 63.381 43.6955 63.4409 43.875C63.5007 44.0546 63.6204 44.1743 63.8 44.1743H63.8599C64.0394 44.1743 64.1591 43.9948 64.0993 43.7553Z" fill="white"/>
<path d="M67.0325 26.0362C66.9128 26.2158 66.9727 26.3954 67.0924 26.5151C67.1522 26.5749 67.2121 26.5749 67.272 26.5749C67.3917 26.5749 67.5114 26.5151 67.5712 26.4552C67.6909 26.2757 67.6311 26.0961 67.5114 25.9764C67.3917 25.8567 67.1523 25.9165 67.0325 26.0362Z" fill="white"/>
<path d="M67.0925 51.2967C66.9129 51.4164 66.9129 51.6558 67.0327 51.7755C67.0925 51.8953 67.2122 51.8953 67.3319 51.8953C67.3918 51.8953 67.4516 51.8953 67.5115 51.8354C67.6911 51.7157 67.6911 51.4763 67.5714 51.3566C67.4516 51.2368 67.2721 51.177 67.0925 51.2967Z" fill="white"/>
<path d="M67.9304 52.434C67.7508 52.5537 67.7508 52.7932 67.8705 52.9129C67.9304 52.9727 68.0501 53.0326 68.1698 53.0326C68.2297 53.0326 68.3494 53.0326 68.4092 52.9727C68.5289 52.853 68.5888 52.6136 68.4691 52.4939C68.2895 52.3143 68.11 52.3143 67.9304 52.434Z" fill="white"/>
<path d="M67.9306 24.8995C67.8109 25.0192 67.8109 25.2587 67.9905 25.3784C68.0503 25.4382 68.1102 25.4382 68.2299 25.4382C68.3496 25.4382 68.4094 25.3784 68.5292 25.3185C68.6489 25.1988 68.6489 24.9594 68.4693 24.8397C68.2897 24.72 68.1102 24.7798 67.9306 24.8995Z" fill="white"/>
<path d="M64.4582 45.132C64.3983 44.9524 64.2187 44.8327 64.0392 44.8925C63.8596 44.9524 63.7399 45.1319 63.7997 45.3115C63.8596 45.4312 63.9793 45.5509 64.1589 45.5509C64.2187 45.5509 64.2187 45.5509 64.2786 45.5509C64.4582 45.5509 64.518 45.3115 64.4582 45.132Z" fill="white"/>
<path d="M66.733 27.115C66.5535 26.9953 66.3739 27.0552 66.2542 27.2347C66.1345 27.4143 66.1943 27.6537 66.3739 27.7136C66.4337 27.7734 66.4936 27.7734 66.5535 27.7734C66.6732 27.7734 66.7929 27.7136 66.8527 27.5939C66.9724 27.4742 66.9126 27.2347 66.733 27.115Z" fill="white"/>
<path d="M64.9376 46.4475C64.8777 46.2679 64.6383 46.1482 64.4587 46.2679C64.2791 46.3278 64.1594 46.5672 64.2791 46.7468C64.339 46.8665 64.4587 46.9862 64.6383 46.9862C64.6981 46.9862 64.6981 46.9862 64.758 46.9862C64.9376 46.8665 64.9974 46.627 64.9376 46.4475Z" fill="white"/>
<path d="M65.4768 47.7655C65.4169 47.5859 65.1775 47.5261 64.9979 47.5859C64.8183 47.6458 64.7585 47.8852 64.8183 48.0648C64.8782 48.1845 64.9979 48.2443 65.1176 48.2443C65.1775 48.2443 65.2373 48.2443 65.2373 48.2443C65.4768 48.1246 65.5366 47.9451 65.4768 47.7655Z" fill="white"/>
<path d="M99.8937 24.0028C100.013 24.0028 100.073 23.9429 100.133 23.8831C100.253 23.7634 100.253 23.5239 100.133 23.4042C100.013 23.2845 99.7739 23.2845 99.6542 23.4042C99.5345 23.5239 99.5345 23.7634 99.6542 23.8831C99.7141 24.0028 99.7739 24.0028 99.8937 24.0028Z" fill="white"/>
<path d="M65.5961 48.8418C65.4165 48.9616 65.3566 49.1411 65.4763 49.3207C65.5362 49.4404 65.6559 49.5002 65.7756 49.5002C65.8355 49.5002 65.8953 49.5003 65.9552 49.4404C66.1348 49.3207 66.1946 49.1411 66.0749 48.9616C66.015 48.8418 65.7756 48.782 65.5961 48.8418Z" fill="white"/>
<path d="M66.3143 50.0994C66.1347 50.2191 66.0749 50.3987 66.1946 50.5782C66.2545 50.6979 66.3742 50.7578 66.4939 50.7578C66.5537 50.7578 66.6136 50.7578 66.6735 50.6979C66.853 50.5782 66.9129 50.3987 66.7932 50.2191C66.6735 50.0395 66.4939 49.9797 66.3143 50.0994Z" fill="white"/>
<path d="M104.143 48.2445C103.963 48.1248 103.724 48.2445 103.664 48.424C103.604 48.6036 103.664 48.843 103.844 48.9029C103.903 48.9029 103.963 48.9627 104.023 48.9627C104.143 48.9627 104.263 48.9029 104.322 48.7832C104.382 48.5438 104.322 48.3642 104.143 48.2445Z" fill="white"/>
<path d="M78.6443 59.9748C78.6443 59.9748 78.7041 59.9748 78.764 59.9748C78.9435 59.9748 79.0633 59.8551 79.1231 59.7353C79.183 59.5558 79.0632 59.3762 78.8837 59.3164C78.7041 59.2565 78.5245 59.3762 78.4647 59.5558C78.345 59.7353 78.4647 59.9149 78.6443 59.9748Z" fill="white"/>
<path d="M75.8913 58.9582C75.9511 58.9582 76.011 59.0181 76.011 59.0181C76.1307 59.0181 76.2504 58.9582 76.3103 58.7786C76.3701 58.5991 76.3103 58.3596 76.1307 58.2998C75.9511 58.2399 75.7117 58.2998 75.6519 58.4794C75.6519 58.7188 75.7117 58.8983 75.8913 58.9582Z" fill="white"/>
<path d="M80.021 60.3351H80.0808C80.2604 60.3351 80.3801 60.2154 80.4399 60.0358C80.4998 59.8562 80.3801 59.6767 80.1407 59.6168C79.9611 59.557 79.7815 59.6767 79.7217 59.9161C79.7217 60.0957 79.8414 60.2752 80.021 60.3351Z" fill="white"/>
<path d="M78.8236 18.6154C78.8236 18.6154 78.8835 18.6154 78.9433 18.6154C79.1229 18.5555 79.2426 18.376 79.1828 18.1964C79.1229 18.0168 78.9433 17.8971 78.7638 17.957C78.5842 18.0168 78.4645 18.1964 78.5244 18.376C78.5244 18.4957 78.6441 18.6154 78.8236 18.6154Z" fill="white"/>
<path d="M77.2682 59.5563C77.328 59.5563 77.328 59.5563 77.3879 59.5563C77.5076 59.5563 77.6872 59.4366 77.6872 59.3168C77.747 59.1373 77.6872 58.9577 77.5076 58.838C77.328 58.7781 77.1485 58.838 77.0288 59.0774C76.9689 59.257 77.0886 59.4366 77.2682 59.5563Z" fill="white"/>
<path d="M76.1306 19.5725C76.1905 19.5725 76.2503 19.5725 76.2503 19.5725C76.4299 19.5126 76.4897 19.2732 76.4299 19.0936C76.37 18.914 76.1306 18.8542 75.951 18.914C75.7715 18.9739 75.7116 19.2133 75.7715 19.3929C75.8912 19.5126 76.0109 19.5725 76.1306 19.5725Z" fill="white"/>
<path d="M77.4475 19.0336C77.5073 19.0336 77.5073 19.0336 77.5672 19.0336C77.7467 18.9738 77.8665 18.7344 77.8066 18.5548C77.7467 18.3752 77.5073 18.2555 77.3278 18.3154C77.1482 18.3752 77.0285 18.6147 77.0883 18.7942C77.208 18.9738 77.3278 19.0336 77.4475 19.0336Z" fill="white"/>
<path d="M80.2009 18.2564H80.2608C80.4404 18.1965 80.5601 18.0169 80.5601 17.8374C80.5002 17.6578 80.3206 17.5381 80.1411 17.5381C79.9615 17.5979 79.8418 17.7775 79.8418 17.9571C79.9017 18.1366 80.0214 18.2564 80.2009 18.2564Z" fill="white"/>
<path d="M83.0137 17.8362C83.2531 17.8362 83.3728 17.6566 83.3728 17.477C83.3728 17.2975 83.1932 17.1179 83.0137 17.1778C82.8341 17.1778 82.6545 17.3573 82.7144 17.5369C82.6545 17.7165 82.8341 17.8362 83.0137 17.8362Z" fill="white"/>
<path d="M82.894 60.7531C83.1334 60.7531 83.2532 60.6334 83.2532 60.4539C83.2532 60.2743 83.1334 60.0947 82.9539 60.0947C82.7743 60.0947 82.5947 60.2144 82.5947 60.394C82.5349 60.5736 82.7145 60.7531 82.894 60.7531Z" fill="white"/>
<path d="M81.458 60.5747C81.6974 60.5747 81.8171 60.455 81.877 60.2754C81.877 60.0959 81.7572 59.9163 81.5777 59.8564C81.3981 59.8564 81.2185 59.9762 81.1587 60.1557C81.1587 60.3951 81.2784 60.5747 81.458 60.5747Z" fill="white"/>
<path d="M81.5769 18.0161C81.6368 18.0161 81.6368 18.0161 81.5769 18.0161C81.8163 17.9563 81.936 17.7767 81.936 17.5972C81.936 17.4176 81.6966 17.238 81.5171 17.2979C81.3375 17.2979 81.2178 17.5373 81.2178 17.7169C81.2776 17.8964 81.3973 18.0161 81.5769 18.0161Z" fill="white"/>
<path d="M74.6343 58.3593C74.6942 58.3593 74.754 58.4191 74.8139 58.4191C74.9336 58.4191 75.0533 58.3593 75.1132 58.2396C75.173 58.06 75.1132 57.8206 74.9934 57.7607C74.8139 57.7009 74.5745 57.7607 74.5146 57.9403C74.335 58.06 74.4548 58.2396 74.6343 58.3593Z" fill="white"/>
<path d="M71.2228 56.0853C71.3425 56.0853 71.4023 56.0255 71.522 55.9656C71.6418 55.8459 71.6417 55.6065 71.4622 55.4868C71.2826 55.367 71.103 55.367 70.9833 55.5466C70.8636 55.7262 70.8636 55.9057 71.0432 56.0255C71.0432 56.0255 71.103 56.0853 71.2228 56.0853Z" fill="white"/>
<path d="M70.2053 23.4638C70.2651 23.4638 70.3849 23.404 70.4447 23.3441C70.5644 23.2244 70.6243 22.985 70.4447 22.8653C70.325 22.7456 70.0856 22.6857 69.9659 22.8653C69.8462 22.985 69.7863 23.2244 69.9659 23.3441C70.0257 23.404 70.0856 23.4638 70.2053 23.4638Z" fill="white"/>
<path d="M71.2822 22.5052C71.3421 22.5052 71.4618 22.5052 71.5216 22.4454C71.7012 22.3257 71.7012 22.0862 71.5815 21.9665C71.4618 21.787 71.2224 21.787 71.1026 21.9067C70.9829 22.0264 70.9231 22.2658 71.0428 22.3855C71.0428 22.4454 71.1625 22.5052 71.2822 22.5052Z" fill="white"/>
<path d="M70.1451 55.1278C70.2648 55.1278 70.3247 55.0679 70.3845 55.0081C70.5043 54.8884 70.5043 54.6489 70.3845 54.5292C70.2648 54.4095 70.0254 54.4095 69.9057 54.5292C69.786 54.6489 69.786 54.8884 69.9057 55.0081C69.9656 55.0679 70.0254 55.1278 70.1451 55.1278Z" fill="white"/>
<path d="M69.1876 24.4217C69.3073 24.4217 69.3672 24.3619 69.427 24.302C69.5467 24.1823 69.5467 23.9429 69.427 23.8232C69.3073 23.7035 69.0679 23.7035 68.9482 23.8232C68.8285 23.9429 68.8285 24.1823 68.9482 24.302C69.008 24.4217 69.0679 24.4217 69.1876 24.4217Z" fill="white"/>
<path d="M73.6169 20.8896C73.6768 20.8896 73.7366 20.8896 73.7965 20.8298C73.9761 20.7101 74.0359 20.5305 73.9162 20.3509C73.7965 20.1714 73.6169 20.1115 73.4374 20.2312C73.2578 20.3509 73.1979 20.5305 73.3177 20.7101C73.3775 20.8298 73.4972 20.8896 73.6169 20.8896Z" fill="white"/>
<path d="M74.8738 20.1709C74.9336 20.1709 74.9935 20.1709 75.0533 20.111C75.2329 19.9913 75.2928 19.8118 75.173 19.6322C75.0533 19.4526 74.8738 19.3928 74.6942 19.5125C74.5146 19.6322 74.4548 19.8118 74.5146 19.9913C74.5745 20.111 74.6942 20.1709 74.8738 20.1709Z" fill="white"/>
<path d="M84.3308 60.813C84.5104 60.813 84.69 60.6334 84.69 60.4539C84.69 60.2743 84.5104 60.0947 84.3308 60.0947C84.1513 60.0947 83.9717 60.2743 83.9717 60.4539C83.9717 60.6933 84.1513 60.813 84.3308 60.813Z" fill="white"/>
<path d="M72.4195 21.6673C72.4794 21.6673 72.5392 21.6673 72.5991 21.6075C72.7787 21.4878 72.7787 21.2484 72.7188 21.1286C72.5991 20.9491 72.3597 20.9491 72.24 21.0688C72.0604 21.1885 72.0604 21.4279 72.1801 21.5476C72.1801 21.6075 72.2998 21.6673 72.4195 21.6673Z" fill="white"/>
<path d="M73.317 57.6413C73.3769 57.7012 73.4367 57.7012 73.4966 57.7012C73.6163 57.7012 73.736 57.6413 73.7959 57.5216C73.9156 57.342 73.8557 57.1625 73.6762 57.0428C73.4966 56.923 73.317 56.9829 73.1973 57.1625C73.1375 57.342 73.1973 57.5216 73.317 57.6413Z" fill="white"/>
<path d="M72.3594 56.9239C72.4791 56.9239 72.5988 56.864 72.6586 56.7443C72.7784 56.5647 72.7185 56.3852 72.5988 56.2654C72.4192 56.1457 72.2397 56.2056 72.1199 56.3253C72.0002 56.5049 72.0601 56.6844 72.1798 56.8042C72.1798 56.864 72.2396 56.9239 72.3594 56.9239Z" fill="white"/>
<path d="M96.4822 57.3426C96.542 57.3426 96.6019 57.3426 96.6617 57.2828C96.8413 57.1631 96.9012 56.9237 96.7814 56.804C96.6617 56.6244 96.4822 56.6244 96.3026 56.6842C96.123 56.8039 96.0632 56.9835 96.1829 57.1631C96.2427 57.2828 96.3625 57.3426 96.4822 57.3426Z" fill="white"/>
<path d="M99.8336 54.6483C99.8935 54.6483 100.013 54.5884 100.073 54.5286C100.193 54.4089 100.193 54.1695 100.073 54.0497C99.9533 53.93 99.7139 53.93 99.5942 54.0497C99.4745 54.1695 99.4745 54.4089 99.5942 54.5286C99.654 54.6483 99.7139 54.6483 99.8336 54.6483Z" fill="white"/>
<path d="M95.1644 20.53C95.2243 20.5898 95.2841 20.5898 95.344 20.5898C95.4637 20.5898 95.5834 20.53 95.6433 20.4103C95.763 20.2307 95.7031 19.9913 95.5236 19.9314C95.344 19.8117 95.1644 19.8716 95.0447 20.0511C94.925 20.2307 94.9849 20.4701 95.1644 20.53Z" fill="white"/>
<path d="M95.2844 58.0605C95.3443 58.0605 95.4041 58.0605 95.464 58.0007C95.6436 57.881 95.7034 57.7014 95.5837 57.5218C95.464 57.3423 95.2844 57.2824 95.1048 57.4021C94.9253 57.5218 94.8654 57.7014 94.9851 57.881C95.045 58.0007 95.1647 58.0605 95.2844 58.0605Z" fill="white"/>
<path d="M94.0273 58.7192C94.0871 58.7192 94.147 58.7192 94.2069 58.6594C94.3864 58.5995 94.4463 58.3601 94.3864 58.1805C94.3266 58.001 94.0871 57.9411 93.9076 58.001C93.728 58.0608 93.6682 58.3002 93.728 58.4798C93.728 58.6594 93.8477 58.7192 94.0273 58.7192Z" fill="white"/>
<path d="M93.9076 19.872C93.9674 19.872 94.0273 19.9318 94.0871 19.9318C94.2068 19.9318 94.3266 19.872 94.3864 19.7523C94.4463 19.5727 94.3864 19.3931 94.2069 19.2734C94.0273 19.2136 93.7879 19.2734 93.728 19.453C93.6682 19.5727 93.728 19.8121 93.9076 19.872Z" fill="white"/>
<path d="M97.6783 56.5043C97.7382 56.5043 97.798 56.5043 97.9178 56.4444C98.0973 56.3247 98.0973 56.0853 97.9776 55.9655C97.8579 55.786 97.6185 55.786 97.4988 55.9057C97.3192 56.0254 97.3192 56.2648 97.4389 56.3845C97.4389 56.5042 97.5586 56.5043 97.6783 56.5043Z" fill="white"/>
<path d="M98.8165 23.0443C98.9362 23.0443 98.9961 22.9844 99.1158 22.9246C99.2355 22.8049 99.2355 22.5654 99.0559 22.4457C98.9362 22.326 98.6968 22.326 98.5771 22.5056C98.4574 22.6253 98.4574 22.8647 98.6369 22.9844C98.6369 23.0443 98.7567 23.0443 98.8165 23.0443Z" fill="white"/>
<path d="M96.3616 21.2487C96.4214 21.3086 96.4813 21.3086 96.5411 21.3086C96.6608 21.3086 96.7806 21.2487 96.8404 21.129C96.9601 20.9495 96.9003 20.7699 96.7207 20.6502C96.5411 20.5305 96.3017 20.5903 96.2419 20.7699C96.182 20.9494 96.182 21.1889 96.3616 21.2487Z" fill="white"/>
<path d="M98.7558 55.6651C98.8157 55.6651 98.9354 55.6651 98.9953 55.5454C99.115 55.4256 99.1748 55.1862 99.0551 55.0665C98.9354 54.9468 98.696 54.8869 98.5763 55.0067C98.4566 55.1264 98.3967 55.3658 98.5164 55.4855C98.5763 55.6052 98.6361 55.6651 98.7558 55.6651Z" fill="white"/>
<path d="M97.7383 22.1472C97.858 22.1472 97.9777 22.0874 98.0375 22.0275C98.1573 21.8479 98.0974 21.6684 97.9777 21.5487C97.7981 21.4289 97.6186 21.4888 97.4988 21.6085C97.3791 21.7881 97.439 21.9676 97.5587 22.0874C97.5587 22.1472 97.6784 22.1472 97.7383 22.1472Z" fill="white"/>
<path d="M92.6507 19.3335C92.7106 19.3335 92.7106 19.3335 92.7705 19.3335C92.8902 19.3335 93.0697 19.2736 93.1296 19.0941C93.1894 18.9145 93.1296 18.7349 92.95 18.6152C92.7704 18.5554 92.531 18.6152 92.4712 18.7948C92.4113 19.0342 92.4712 19.2736 92.6507 19.3335Z" fill="white"/>
<path d="M91.3342 18.8537C91.3941 18.8537 91.3941 18.8537 91.4539 18.8537C91.5736 18.8537 91.7532 18.734 91.813 18.6142C91.8729 18.4347 91.7532 18.1953 91.5736 18.1953C91.3941 18.1354 91.1546 18.2551 91.1546 18.4347C91.0349 18.5544 91.1546 18.7938 91.3342 18.8537Z" fill="white"/>
<path d="M87.2638 17.9565C87.5032 17.9565 87.6229 17.8368 87.6827 17.6573C87.6827 17.4777 87.563 17.2981 87.3835 17.2383C87.2039 17.2383 87.0243 17.358 86.9645 17.5376C86.9046 17.7171 87.0243 17.8967 87.2638 17.9565Z" fill="white"/>
<path d="M87.2034 60.6929C87.4428 60.6929 87.5625 60.5133 87.5625 60.2739C87.5625 60.0943 87.383 59.9148 87.1435 59.9746C86.964 59.9746 86.7844 60.1542 86.8443 60.3936C86.8443 60.5732 87.0238 60.6929 87.2034 60.6929Z" fill="white"/>
<path d="M88.5803 60.5142H88.6402C88.8197 60.4543 88.9395 60.2747 88.9395 60.0952C88.8796 59.9156 88.7 59.7959 88.5205 59.7959C88.3409 59.8558 88.2212 60.0353 88.2212 60.2149C88.281 60.3945 88.4606 60.5142 88.5803 60.5142Z" fill="white"/>
<path d="M85.7673 60.813C86.0068 60.813 86.1265 60.6334 86.1265 60.4539C86.1265 60.2743 85.9469 60.0947 85.7673 60.0947C85.5878 60.0947 85.4082 60.2743 85.4082 60.4539C85.4082 60.6334 85.5878 60.813 85.7673 60.813Z" fill="white"/>
<path d="M85.8274 17.8364C86.007 17.8364 86.1865 17.7167 86.1865 17.4773C86.1865 17.2977 86.0668 17.1182 85.8274 17.1182C85.6478 17.1182 85.4683 17.2379 85.4683 17.4773C85.4683 17.6569 85.6478 17.8364 85.8274 17.8364Z" fill="white"/>
<path d="M91.3334 59.7961C91.3933 59.7961 91.3932 59.7961 91.4531 59.7961C91.6327 59.7362 91.7524 59.5566 91.6925 59.3771C91.6327 59.1975 91.4531 59.0778 91.2735 59.1376C91.094 59.1975 90.9743 59.3771 91.0341 59.5566C91.094 59.6763 91.2137 59.7961 91.3334 59.7961Z" fill="white"/>
<path d="M88.6407 18.1363H88.7006C88.8801 18.1363 88.9998 18.0165 89.0597 17.837C89.1195 17.6574 88.9998 17.4778 88.7604 17.418C88.5808 17.3581 88.4013 17.5377 88.3414 17.7173C88.2816 17.9567 88.4013 18.1363 88.6407 18.1363Z" fill="white"/>
<path d="M92.7105 59.3179C92.7704 59.3179 92.8303 59.3179 92.8303 59.3179C93.0098 59.2581 93.1295 59.0187 93.0098 58.8391C92.95 58.6595 92.7106 58.5398 92.531 58.6595C92.3514 58.7194 92.2317 58.9588 92.3514 59.1384C92.4113 59.2581 92.531 59.3179 92.7105 59.3179Z" fill="white"/>
<path d="M84.4504 17.7778C84.63 17.7778 84.8096 17.5983 84.8096 17.4187C84.8096 17.2391 84.63 17.0596 84.4504 17.0596C84.2709 17.0596 84.0913 17.2391 84.0913 17.4187C84.0913 17.6581 84.211 17.7778 84.4504 17.7778Z" fill="white"/>
<path d="M90.0168 60.215H90.0767C90.2562 60.1551 90.3759 59.9756 90.3161 59.796C90.2562 59.6164 90.0766 59.4967 89.8971 59.5566C89.7175 59.6164 89.5978 59.796 89.6577 59.9756C89.7175 60.0953 89.8372 60.215 90.0168 60.215Z" fill="white"/>
<path d="M90.0173 18.435H90.0772C90.2568 18.435 90.3765 18.3153 90.4363 18.1357C90.4962 17.9562 90.3765 17.7766 90.1969 17.7167C90.0173 17.6569 89.8378 17.7766 89.7779 17.9562C89.6582 18.1956 89.7779 18.435 90.0173 18.435Z" fill="white"/>
<path d="M80.4994 9.75642H88.939L91.5727 3.35186L88.4602 6.10522L84.7491 1.85547L80.9782 6.10522L77.8657 3.35186L80.4994 9.75642Z" fill="#BF930F"/>
<path d="M84.7495 1.43654C85.1462 1.43654 85.4678 1.11496 85.4678 0.718271C85.4678 0.321582 85.1462 0 84.7495 0C84.3528 0 84.0312 0.321582 84.0312 0.718271C84.0312 1.11496 84.3528 1.43654 84.7495 1.43654Z" fill="#BF930F"/>
<path d="M77.6871 3.23154C77.9185 3.23154 78.1061 3.04395 78.1061 2.81255C78.1061 2.58115 77.9185 2.39355 77.6871 2.39355C77.4557 2.39355 77.2681 2.58115 77.2681 2.81255C77.2681 3.04395 77.4557 3.23154 77.6871 3.23154Z" fill="#BF930F"/>
<path d="M91.753 3.23154C91.9844 3.23154 92.172 3.04395 92.172 2.81255C92.172 2.58115 91.9844 2.39355 91.753 2.39355C91.5216 2.39355 91.334 2.58115 91.334 2.81255C91.334 3.04395 91.5216 3.23154 91.753 3.23154Z" fill="#BF930F"/>
<path d="M86.4856 13.647C86.6839 13.647 86.8447 13.4862 86.8447 13.2878C86.8447 13.0895 86.6839 12.9287 86.4856 12.9287C86.2873 12.9287 86.1265 13.0895 86.1265 13.2878C86.1265 13.4862 86.2873 13.647 86.4856 13.647Z" fill="#BF930F"/>
<path d="M84.7498 13.647C84.9481 13.647 85.1089 13.4862 85.1089 13.2878C85.1089 13.0895 84.9481 12.9287 84.7498 12.9287C84.5514 12.9287 84.3906 13.0895 84.3906 13.2878C84.3906 13.4862 84.5514 13.647 84.7498 13.647Z" fill="#BF930F"/>
<path d="M83.0139 13.647C83.2123 13.647 83.3731 13.4862 83.3731 13.2878C83.3731 13.0895 83.2123 12.9287 83.0139 12.9287C82.8156 12.9287 82.6548 13.0895 82.6548 13.2878C82.6548 13.4862 82.8156 13.647 83.0139 13.647Z" fill="#BF930F"/>
<path d="M71.3422 12.7498C71.838 12.7498 72.24 12.3478 72.24 11.8519C72.24 11.3561 71.838 10.9541 71.3422 10.9541C70.8463 10.9541 70.4443 11.3561 70.4443 11.8519C70.4443 12.3478 70.8463 12.7498 71.3422 12.7498Z" fill="#BF930F"/>
<path d="M98.098 12.7498C98.5939 12.7498 98.9959 12.3478 98.9959 11.8519C98.9959 11.3561 98.5939 10.9541 98.098 10.9541C97.6022 10.9541 97.2002 11.3561 97.2002 11.8519C97.2002 12.3478 97.6022 12.7498 98.098 12.7498Z" fill="#BF930F"/>
<path d="M89.9572 64.3454C92.2916 63.8665 94.4464 63.0884 96.4815 62.011H161.605V61.4723H122.818C123.656 60.9336 124.195 59.9759 124.195 58.8985C124.195 56.8035 122.519 55.1276 120.424 55.1276C120.364 55.1276 120.244 55.1276 120.184 55.1276C119.526 52.4341 117.67 50.2194 115.156 49.142C116.054 47.5858 115.755 45.5507 114.318 44.3536C113.181 43.3959 111.625 43.0367 110.188 43.3959C110.428 41.9593 110.607 40.4629 110.607 38.9067C110.607 31.1853 107.196 23.9428 101.27 19.0346C101.569 18.5558 101.749 17.9572 101.749 17.3586C101.749 15.2038 99.9531 13.4082 97.7983 13.4082C97.1399 13.4082 96.5414 13.5279 96.0027 13.7673C96.7209 12.2111 96.1822 10.3555 94.6858 9.45769C93.7281 8.91899 92.6507 8.73943 91.5733 9.0387C90.5558 9.27813 89.7178 9.93654 89.1193 10.8344L88.8798 10.176H80.3803L80.1409 10.8344C79.6022 9.93654 78.7044 9.33798 77.6868 9.0387C76.6094 8.73943 75.532 8.91899 74.5743 9.45769C73.0779 10.3555 72.5392 12.2111 73.2575 13.7673C72.7188 13.5279 72.1202 13.4082 71.4618 13.4082C69.2472 13.4082 67.5113 15.2038 67.5113 17.3586C67.5113 17.9572 67.6909 18.5558 67.9902 19.0346C62.0645 24.0026 58.6527 31.1853 58.6527 38.9067C58.6527 40.4629 58.7724 41.9593 59.0717 43.3959C57.6352 43.0367 56.1388 43.3959 54.9417 44.3536C53.5051 45.5507 53.2058 47.5858 54.1037 49.142C51.5299 50.2194 49.6744 52.4341 49.0758 55.1276C49.0159 55.1276 48.8962 55.1276 48.8364 55.1276C46.7414 55.1276 45.0655 56.8035 45.0655 58.8985C45.0655 59.9759 45.6042 60.8737 46.4421 61.4723H7.65565V62.011H72.9582C74.9933 63.0884 77.208 63.8665 79.4825 64.3454H1.43066V64.8841H168.069V64.3454H89.9572ZM97.499 61.4723C100.791 59.6168 103.604 57.043 105.759 54.0502C107.136 52.0151 109.47 50.818 111.924 50.818C115.216 50.818 117.85 53.5115 117.85 56.7437C117.85 59.3175 115.755 61.4723 113.121 61.4723C111.086 61.4723 109.41 59.7963 109.41 57.7612C109.41 56.1451 110.727 54.8283 112.343 54.8283C113.6 54.8283 114.618 55.8459 114.618 57.1028C114.618 58.0605 113.84 58.8985 112.822 58.8985C112.702 58.8985 112.583 59.0182 112.583 59.1379C112.583 59.2576 112.702 59.3773 112.822 59.3773C114.079 59.3773 115.156 58.3598 115.156 57.043C115.156 55.4867 113.9 54.2297 112.343 54.2297C110.428 54.2297 108.872 55.786 108.872 57.7014C108.872 59.3175 109.769 60.6942 111.086 61.4124H97.499V61.4723ZM123.716 58.9583C123.716 60.335 122.579 61.5321 121.142 61.5321C120.065 61.5321 119.167 60.6343 119.167 59.5569C119.167 58.7189 119.825 58.0007 120.723 58.0007C121.381 58.0007 121.92 58.5394 121.92 59.1978C121.92 59.6766 121.501 60.0956 121.022 60.0956C120.903 60.0956 120.783 60.2153 120.783 60.335C120.783 60.4547 120.903 60.5744 121.022 60.5744C121.8 60.5744 122.459 59.916 122.459 59.1379C122.459 58.1802 121.681 57.4021 120.723 57.4021C119.586 57.4021 118.628 58.3598 118.628 59.4971C118.628 60.335 119.047 60.9934 119.586 61.4723H115.396C117.132 60.6343 118.329 58.8386 118.329 56.7437C118.329 56.5641 118.329 56.3846 118.329 56.205C118.927 55.8459 119.646 55.6663 120.424 55.6663C122.279 55.6663 123.716 57.1627 123.716 58.9583ZM119.706 55.2473C119.227 55.3071 118.748 55.4867 118.329 55.7261C117.91 53.2721 116.114 51.237 113.72 50.5785C114.139 50.399 114.498 50.0997 114.797 49.7406C114.797 49.6807 114.857 49.6807 114.857 49.6209C117.311 50.6384 119.047 52.6735 119.706 55.2473ZM114.019 44.8324C115.396 45.9697 115.575 48.0646 114.438 49.4413C113.54 50.5187 111.924 50.6384 110.847 49.7406C110.428 49.3814 110.188 48.9026 110.129 48.3639C110.069 47.8252 110.248 47.3463 110.607 46.9274C110.847 46.6281 111.266 46.4485 111.685 46.3886C112.104 46.3288 112.463 46.5084 112.822 46.7478C113.062 46.9274 113.241 47.2266 113.241 47.5259C113.241 47.8252 113.181 48.1245 112.942 48.3639C112.762 48.5435 112.583 48.6632 112.343 48.6632C112.104 48.6632 111.864 48.6033 111.685 48.4836C111.565 48.3639 111.386 48.4237 111.326 48.5435C111.206 48.6632 111.266 48.8427 111.326 48.9026C111.625 49.142 111.984 49.2617 112.343 49.2617C112.702 49.2019 113.062 49.0223 113.301 48.7829C113.6 48.4237 113.72 48.0048 113.72 47.5259C113.66 47.0471 113.481 46.6281 113.121 46.3886C112.702 46.0295 112.164 45.8499 111.625 45.9098C111.086 45.9697 110.548 46.2091 110.188 46.6281C109.769 47.1668 109.53 47.7653 109.59 48.4836C109.65 49.142 109.949 49.7406 110.488 50.2194C110.607 50.3391 110.727 50.399 110.847 50.5187C109.53 50.6983 108.273 51.237 107.196 52.0151C108.572 49.6209 109.59 46.9872 110.129 44.174C111.505 43.6353 112.942 43.8747 114.019 44.8324ZM101.27 17.3586C101.27 18.855 100.073 20.0521 98.5764 20.0521C98.2772 20.0521 97.9181 19.9923 97.6188 19.8127H97.5589C97.4392 19.7529 97.3793 19.693 97.3195 19.6332C97.2596 19.5733 97.2596 19.5733 97.2596 19.5733C96.7808 19.1543 96.4815 18.5558 96.4815 17.9572C96.4815 17.0594 97.1998 16.3411 98.0976 16.3411C98.756 16.3411 99.3546 16.8798 99.3546 17.5981C99.3546 17.7178 99.4743 17.8375 99.594 17.8375C99.7137 17.8375 99.8334 17.7178 99.8334 17.5981C99.8334 16.6404 99.0553 15.8024 98.0377 15.8024C96.8406 15.8024 95.8829 16.7601 95.8829 17.9572C95.8829 18.3163 95.9428 18.6156 96.0625 18.9149C95.2245 18.436 94.3865 18.0171 93.4887 17.6579C93.788 15.563 95.5837 13.9469 97.7983 13.9469C99.7736 13.9469 101.27 15.5031 101.27 17.3586ZM84.7498 16.401C97.1998 16.401 107.256 26.5166 107.256 38.9067C107.256 51.3567 97.1399 61.4124 84.7498 61.4124C72.2998 61.4124 62.244 51.2968 62.244 38.9067C62.1842 26.5166 72.2998 16.401 84.7498 16.401ZM88.4608 13.049C88.401 12.9892 88.3411 12.9293 88.2214 12.9293C88.0418 12.9293 87.8623 13.1089 87.8623 13.2885C87.8623 13.468 88.0418 13.6476 88.2214 13.6476C88.2813 13.6476 88.401 13.5877 88.4608 13.5877C88.4608 13.887 88.5207 14.1863 88.5806 14.5454H80.9789C81.0387 14.2461 81.0986 13.9469 81.0986 13.5877C81.1585 13.6476 81.2183 13.6476 81.338 13.6476C81.5176 13.6476 81.6972 13.468 81.6972 13.2885C81.6972 13.1089 81.5176 12.9293 81.338 12.9293C81.2183 12.9293 81.1585 12.9892 81.0986 13.049C81.0986 12.7498 80.9789 12.3906 80.919 12.0913H88.7003C88.5207 12.4505 88.4608 12.7498 88.4608 13.049ZM80.7993 15.0243H88.6404C88.7601 15.5031 88.9995 15.9221 89.239 16.3411C87.7426 16.0418 86.2462 15.8622 84.6899 15.8622C83.1337 15.8622 81.6373 16.0418 80.1409 16.3411C80.4402 15.9221 80.6796 15.5031 80.7993 15.0243ZM91.7529 9.5774C92.6507 9.33798 93.6084 9.45769 94.4464 9.93654C95.7632 10.7147 96.2421 12.4505 95.464 13.7673C95.1647 14.2461 94.6858 14.6053 94.1471 14.7848C93.6084 14.9046 93.0099 14.8447 92.4712 14.5454C92.0522 14.306 91.8128 13.9469 91.693 13.5279C91.5733 13.1089 91.6332 12.63 91.8726 12.2111C92.0522 11.9118 92.3514 11.6724 92.6507 11.6125C93.0099 11.5526 93.3092 11.5526 93.6084 11.7322C93.8479 11.8519 93.9676 12.0913 94.0873 12.3308C94.1471 12.5702 94.0873 12.8695 93.9676 13.1089C93.9077 13.2286 93.9077 13.4082 94.0873 13.468C94.207 13.5279 94.3866 13.5279 94.4464 13.3483C94.626 12.9892 94.6858 12.5702 94.626 12.2111C94.5063 11.7921 94.2668 11.4928 93.9077 11.2534C93.4887 11.0139 93.0099 10.9541 92.531 11.0738C92.0522 11.1935 91.6332 11.4928 91.3938 11.9118C91.0945 12.4505 90.9748 13.049 91.1543 13.5877C91.2741 14.1863 91.6931 14.6651 92.1719 14.9644C92.7106 15.2637 93.3092 15.3834 93.9676 15.3236C93.4887 15.9221 93.1894 16.6404 93.0697 17.4185C92.112 17.0594 91.1543 16.7601 90.1368 16.5207C88.82 15.0841 88.5806 12.8695 89.5981 11.1935C90.0769 10.3555 90.8551 9.81682 91.7529 9.5774ZM88.9995 11.1337C88.9397 11.3132 88.82 11.4329 88.7601 11.6125H80.6197C80.5599 11.4329 80.5 11.3132 80.3803 11.1337H88.9995ZM74.9933 9.93654C75.8313 9.45769 76.789 9.33798 77.6868 9.5774C78.5846 9.81682 79.4226 10.4154 79.9015 11.2534C80.919 12.9293 80.6796 15.144 79.3628 16.5805C78.3452 16.8199 77.3875 17.1192 76.4298 17.4784C76.3101 16.7002 75.951 15.982 75.532 15.3834C76.1306 15.4433 76.7291 15.3834 77.3277 15.0243C77.8664 14.725 78.2255 14.2461 78.3452 13.6476C78.5248 13.049 78.4051 12.4505 78.1058 11.9716C77.8664 11.5526 77.4474 11.2534 76.9685 11.1337C76.4897 11.0139 76.0109 11.0738 75.5919 11.3132C75.2327 11.4928 74.9933 11.8519 74.8736 12.2709C74.7539 12.6899 74.8137 13.1089 75.0532 13.4082C75.113 13.5279 75.2926 13.5877 75.4123 13.5279C75.532 13.468 75.5919 13.2885 75.532 13.1687C75.4123 12.9293 75.3524 12.6899 75.4123 12.3906C75.4722 12.1512 75.6517 11.9118 75.8911 11.7921C76.1904 11.6125 76.5496 11.5526 76.8488 11.6724C77.208 11.7322 77.4474 11.9716 77.627 12.2709C77.8664 12.6899 77.9262 13.1089 77.8065 13.5877C77.6868 14.0067 77.3875 14.3659 77.0284 14.6053C76.0109 15.2038 74.6342 14.9046 74.0356 13.8272C73.1976 12.4505 73.6765 10.7147 74.9933 9.93654ZM71.5815 13.9469C73.7363 13.9469 75.532 15.5031 75.8911 17.6579C74.9933 18.0171 74.1553 18.436 73.3174 18.9149C73.4371 18.6156 73.4969 18.2565 73.4969 17.9572C73.4969 16.7601 72.5392 15.8024 71.3421 15.8024C70.3844 15.8024 69.5464 16.5805 69.5464 17.5981C69.5464 17.7178 69.6662 17.8375 69.7859 17.8375C69.9056 17.8375 70.0253 17.7178 70.0253 17.5981C70.0253 16.9397 70.564 16.3411 71.2822 16.3411C72.1801 16.3411 72.8984 17.0594 72.8984 17.9572C72.8984 18.5558 72.5991 19.1543 72.1801 19.5733C72.1202 19.5733 72.1202 19.6332 72.1202 19.6332C72.0604 19.693 71.9407 19.7529 71.821 19.8127H71.7611C71.4618 19.9324 71.1625 20.0521 70.8034 20.0521C69.307 20.0521 68.1099 18.855 68.1099 17.3586C68.1698 15.5031 69.726 13.9469 71.5815 13.9469ZM55.4205 44.8324C56.4979 43.9346 57.9344 43.6353 59.3111 44.0543C59.8498 46.8675 60.8674 49.5011 62.244 51.8954C61.1666 51.1172 59.9097 50.5785 58.5928 50.399C58.7126 50.3391 58.8323 50.2194 58.952 50.0997C59.4907 49.6807 59.79 49.0822 59.8498 48.3639C59.9097 47.7055 59.7301 47.0471 59.2513 46.5084C58.8921 46.0894 58.4133 45.8499 57.8147 45.7901C57.276 45.7302 56.7373 45.9098 56.3183 46.2689C55.9592 46.5682 55.7796 46.9872 55.7198 47.4062C55.6599 47.885 55.8395 48.304 56.1388 48.6632C56.3782 48.9624 56.7373 49.142 57.0965 49.142C57.4556 49.2019 57.8147 49.0822 58.114 48.7829C58.2337 48.6632 58.2337 48.5435 58.1739 48.4237C58.0541 48.304 57.9344 48.304 57.8147 48.4237C57.6352 48.6033 57.3957 48.6632 57.1563 48.6033C56.9169 48.6033 56.6775 48.4836 56.5578 48.304C56.3782 48.0646 56.2585 47.7653 56.2585 47.4661C56.2585 47.1668 56.438 46.8675 56.6775 46.6879C56.9767 46.4485 57.3957 46.3288 57.8147 46.3288C58.2337 46.3887 58.5928 46.5682 58.8921 46.8675C59.2513 47.2865 59.371 47.7653 59.371 48.304C59.3111 48.8427 59.0717 49.3216 58.6527 49.6807C57.5753 50.5785 55.9592 50.4588 55.0614 49.3814C53.9241 48.0048 54.1037 45.9697 55.4205 44.8324ZM54.5825 49.6209C54.5825 49.6807 54.6424 49.6807 54.6424 49.7406C54.9416 50.0997 55.3008 50.3391 55.7198 50.5785C53.3255 51.237 51.5299 53.2721 51.1109 55.7261C50.6919 55.4867 50.2131 55.367 49.7342 55.2473C50.3926 52.6735 52.1284 50.6384 54.5825 49.6209ZM49.7941 61.4723C50.3926 60.9934 50.7517 60.2752 50.7517 59.4971C50.7517 58.3598 49.7941 57.4021 48.6568 57.4021C47.6991 57.4021 46.921 58.1802 46.921 59.1379C46.921 59.916 47.5794 60.5744 48.3575 60.5744C48.4772 60.5744 48.597 60.4547 48.597 60.335C48.597 60.2153 48.4772 60.0956 48.3575 60.0956C47.8787 60.0956 47.4597 59.6766 47.4597 59.1978C47.4597 58.5394 47.9984 58.0007 48.6568 58.0007C49.4948 58.0007 50.2131 58.6591 50.2131 59.5569C50.2131 60.6343 49.3152 61.5321 48.2378 61.5321C46.8611 61.5321 45.664 60.3949 45.664 58.9583C45.664 57.1627 47.1006 55.7261 48.8962 55.7261C49.6145 55.7261 50.3328 55.9057 50.9912 56.2648C50.9912 56.4444 50.9912 56.624 50.9912 56.8035C50.9912 58.8985 52.1883 60.6343 53.9241 61.5321H49.7941V61.4723ZM58.3534 61.4723C59.6703 60.754 60.5681 59.3773 60.5681 57.7612C60.5681 55.8458 59.0118 54.2896 57.0965 54.2896C55.5402 54.2896 54.2832 55.5466 54.2832 57.1028C54.2832 58.3598 55.3008 59.4372 56.6176 59.4372C56.7373 59.4372 56.857 59.3175 56.857 59.1978C56.857 59.0781 56.7373 58.9583 56.6176 58.9583C55.6599 58.9583 54.8219 58.1802 54.8219 57.1627C54.8219 55.9057 55.8395 54.8882 57.0965 54.8882C58.7126 54.8882 60.0294 56.205 60.0294 57.8211C60.0294 59.8562 58.3534 61.5321 56.3183 61.5321C53.7445 61.5321 51.5897 59.4372 51.5897 56.8035C51.5897 53.5115 54.2832 50.8778 57.5154 50.8778C59.9695 50.8778 62.244 52.0749 63.6806 54.11C65.8354 57.1627 68.7085 59.6766 71.9407 61.5321H58.3534V61.4723ZM59.371 38.9665C59.371 31.4247 62.663 24.3618 68.469 19.5134C69.0676 20.1719 69.8457 20.5909 70.8034 20.5909C65.2368 24.7808 61.6455 31.4846 61.6455 38.9665C61.6455 51.656 72.0005 62.011 84.6899 62.011C97.3793 62.011 107.734 51.656 107.734 38.9665C107.734 31.4846 104.143 24.8406 98.5764 20.5909C99.5341 20.5909 100.312 20.1719 100.911 19.5134C106.717 24.3618 110.009 31.4247 110.009 38.9665C110.009 52.9728 98.6363 64.3454 84.6301 64.3454C70.6238 64.3454 59.371 52.9728 59.371 38.9665Z" fill="#BF930F"/>
<path d="M168.069 97.8037H1.43066V98.3424H168.069V97.8037Z" fill="#BF930F"/>
<path d="M7.71533 101.215H24.3552V107.68C28.1261 107.68 31.1788 110.733 31.1788 114.503H138.141C138.141 110.733 141.194 107.68 144.964 107.68V101.215H161.604V100.677H7.71533V101.215Z" fill="#BF930F"/>
<path d="M47.2801 117.976H122.219L124.135 116.061H45.3647L47.2801 117.976Z" fill="#BF930F"/>
<path d="M128.923 59.7957C129.419 59.7957 129.821 59.3937 129.821 58.8978C129.821 58.402 129.419 58 128.923 58C128.427 58 128.025 58.402 128.025 58.8978C128.025 59.3937 128.427 59.7957 128.923 59.7957Z" fill="#BF930F"/>
<path d="M126.11 59.7957C126.606 59.7957 127.008 59.3937 127.008 58.8978C127.008 58.402 126.606 58 126.11 58C125.614 58 125.212 58.402 125.212 58.8978C125.212 59.3937 125.614 59.7957 126.11 59.7957Z" fill="#BF930F"/>
<path d="M151.608 59.8558L154.721 58.8981L151.608 57.9404V58.6587H130.778V59.1974H151.608V59.8558Z" fill="#BF930F"/>
<path d="M40.5761 59.7957C41.0719 59.7957 41.4739 59.3937 41.4739 58.8978C41.4739 58.402 41.0719 58 40.5761 58C40.0802 58 39.6782 58.402 39.6782 58.8978C39.6782 59.3937 40.0802 59.7957 40.5761 59.7957Z" fill="#BF930F"/>
<path d="M43.33 59.7957C43.8258 59.7957 44.2278 59.3937 44.2278 58.8978C44.2278 58.402 43.8258 58 43.33 58C42.8341 58 42.4321 58.402 42.4321 58.8978C42.4321 59.3937 42.8341 59.7957 43.33 59.7957Z" fill="#BF930F"/>
<path d="M17.8312 59.1974H38.661V58.6587H17.8312V57.9404L14.7188 58.8981L17.8312 59.8558V59.1974Z" fill="#BF930F"/>
<path d="M2.20985 89.499V88.443L5.42585 88.083H6.12185L9.33785 88.443V89.499H2.20985ZM4.17785 89.499C4.20985 88.699 4.22585 87.891 4.22585 87.075C4.24185 86.259 4.24985 85.427 4.24985 84.579C4.24985 83.731 4.24985 82.891 4.24985 82.059V81.003C4.24985 80.171 4.24985 79.339 4.24985 78.507C4.24985 77.675 4.24185 76.843 4.22585 76.011C4.22585 75.179 4.20985 74.363 4.17785 73.563H7.34585C7.32985 74.363 7.31385 75.179 7.29785 76.011C7.28185 76.827 7.27385 77.659 7.27385 78.507C7.27385 79.355 7.27385 80.235 7.27385 81.147V81.891C7.27385 82.771 7.27385 83.643 7.27385 84.507C7.27385 85.355 7.28185 86.195 7.29785 87.027C7.31385 87.859 7.32985 88.683 7.34585 89.499H4.17785ZM14.7859 89.787C13.9219 89.787 13.2499 89.643 12.7699 89.355C12.3059 89.067 12.0019 88.555 11.8579 87.819L11.0659 84.483C10.9539 83.875 10.7779 83.403 10.5379 83.067C10.3139 82.731 10.0179 82.491 9.64985 82.347C9.29785 82.203 8.83385 82.131 8.25785 82.131H5.78585V81.003H8.66585C9.49785 81.003 10.1619 80.859 10.6579 80.571C11.1699 80.283 11.5379 79.899 11.7619 79.419C12.0019 78.923 12.1219 78.379 12.1219 77.787C12.1219 76.779 11.8579 76.019 11.3299 75.507C10.8019 74.995 9.97785 74.739 8.85785 74.739H5.76185V73.563H9.31385C11.1699 73.563 12.6019 73.923 13.6099 74.643C14.6179 75.363 15.1219 76.363 15.1219 77.643C15.1219 78.299 14.9379 78.931 14.5699 79.539C14.2179 80.131 13.6579 80.627 12.8899 81.027C12.1219 81.427 11.1139 81.667 9.86585 81.747V81.531C10.5699 81.563 11.1699 81.651 11.6659 81.795C12.1779 81.939 12.6019 82.155 12.9379 82.443C13.2739 82.715 13.5459 83.067 13.7539 83.499C13.9619 83.915 14.1379 84.419 14.2819 85.011L15.2899 88.899L13.9699 88.107L16.9459 88.443V89.499C16.6899 89.563 16.4499 89.611 16.2259 89.643C16.0179 89.691 15.8019 89.723 15.5779 89.739C15.3539 89.771 15.0899 89.787 14.7859 89.787ZM2.20985 74.619V73.563H5.83385V74.979H5.42585L2.20985 74.619ZM25.0729 89.907C24.1129 89.907 23.1849 89.731 22.2889 89.379C21.4089 89.027 20.6169 88.499 19.9129 87.795C19.2249 87.091 18.6729 86.219 18.2569 85.179C17.8569 84.139 17.6569 82.923 17.6569 81.531C17.6569 80.187 17.8569 78.995 18.2569 77.955C18.6729 76.915 19.2249 76.043 19.9129 75.339C20.6169 74.619 21.4089 74.075 22.2889 73.707C23.1849 73.339 24.1129 73.155 25.0729 73.155C26.0169 73.155 26.9289 73.331 27.8089 73.683C28.6889 74.035 29.4729 74.563 30.1609 75.267C30.8649 75.971 31.4249 76.851 31.8409 77.907C32.2569 78.947 32.4649 80.155 32.4649 81.531C32.4649 82.875 32.2569 84.067 31.8409 85.107C31.4409 86.147 30.8889 87.027 30.1849 87.747C29.4969 88.451 28.7049 88.987 27.8089 89.355C26.9289 89.723 26.0169 89.907 25.0729 89.907ZM25.0729 88.683C25.7929 88.683 26.4089 88.499 26.9209 88.131C27.4489 87.747 27.8729 87.227 28.1929 86.571C28.5129 85.899 28.7449 85.139 28.8889 84.291C29.0489 83.427 29.1289 82.507 29.1289 81.531C29.1289 80.571 29.0489 79.667 28.8889 78.819C28.7449 77.955 28.5129 77.195 28.1929 76.539C27.8729 75.867 27.4489 75.339 26.9209 74.955C26.4089 74.571 25.7929 74.379 25.0729 74.379C24.3369 74.379 23.7049 74.571 23.1769 74.955C22.6649 75.323 22.2409 75.843 21.9049 76.515C21.5849 77.187 21.3449 77.955 21.1849 78.819C21.0409 79.667 20.9689 80.571 20.9689 81.531C20.9689 82.491 21.0409 83.403 21.1849 84.267C21.3449 85.131 21.5849 85.891 21.9049 86.547C22.2409 87.203 22.6649 87.723 23.1769 88.107C23.7049 88.491 24.3369 88.683 25.0729 88.683ZM36.702 89.499V88.443L40.062 88.083H40.878L44.286 88.443V89.499H36.702ZM38.91 89.499C38.942 88.699 38.958 87.891 38.958 87.075C38.974 86.259 38.982 85.427 38.982 84.579C38.982 83.731 38.982 82.891 38.982 82.059V81.003C38.982 80.171 38.982 79.339 38.982 78.507C38.982 77.675 38.974 76.843 38.958 76.011C38.958 75.179 38.942 74.363 38.91 73.563H42.078C42.062 74.347 42.046 75.155 42.03 75.987C42.014 76.819 42.006 77.651 42.006 78.483C42.006 79.315 42.006 80.155 42.006 81.003V82.035C42.006 82.867 42.006 83.707 42.006 84.555C42.006 85.387 42.014 86.219 42.03 87.051C42.046 87.867 42.062 88.683 42.078 89.499H38.91ZM33.606 77.931L33.774 73.563H47.214L47.358 77.931H45.822L45.03 73.587L46.374 74.763H34.614L35.958 73.587L35.166 77.931H33.606ZM46.2315 89.499V88.443L48.6075 88.083H49.0635L51.4875 88.443V89.499H46.2315ZM47.7195 89.499L53.1675 73.467H55.0635L60.4875 89.499H57.3675L52.9515 75.939H53.4315L53.3115 76.299L48.9195 89.499H47.7195ZM50.1915 84.531V83.331H57.1035V84.531H50.1915ZM54.8475 89.499V88.467L57.7035 88.107H58.7835L61.7115 88.467V89.499H54.8475ZM62.7724 89.499V88.443L65.9884 88.083H66.3964V89.499H62.7724ZM64.7404 89.499C64.7724 88.699 64.7884 87.891 64.7884 87.075C64.8044 86.243 64.8124 85.427 64.8124 84.627C64.8124 83.811 64.8124 83.027 64.8124 82.275V81.003C64.8124 80.171 64.8124 79.339 64.8124 78.507C64.8124 77.659 64.8044 76.819 64.7884 75.987C64.7884 75.155 64.7724 74.347 64.7404 73.563H67.9324C67.9164 74.363 67.9004 75.179 67.8844 76.011C67.8684 76.827 67.8604 77.659 67.8604 78.507C67.8604 79.339 67.8604 80.171 67.8604 81.003V82.443C67.8604 83.147 67.8604 83.891 67.8604 84.675C67.8604 85.459 67.8684 86.259 67.8844 87.075C67.9004 87.891 67.9164 88.699 67.9324 89.499H64.7404ZM66.3244 89.499V88.275H73.4524L72.5884 88.947L73.5004 84.891H75.0604L74.7964 89.499H66.3244ZM62.7724 74.619V73.563H69.9724V74.619L66.7324 74.979H65.9884L62.7724 74.619ZM82.038 89.499V88.443L85.254 88.083H86.118L89.358 88.443V89.499H82.038ZM84.006 89.499C84.038 88.699 84.054 87.891 84.054 87.075C84.07 86.259 84.078 85.427 84.078 84.579C84.078 83.731 84.078 82.891 84.078 82.059V81.003C84.078 80.171 84.078 79.339 84.078 78.507C84.078 77.675 84.07 76.843 84.054 76.011C84.054 75.179 84.038 74.363 84.006 73.563H87.198C87.182 74.347 87.166 75.155 87.15 75.987C87.134 76.819 87.126 77.651 87.126 78.483C87.126 79.315 87.126 80.155 87.126 81.003V82.443C87.126 83.179 87.126 83.939 87.126 84.723C87.126 85.507 87.134 86.299 87.15 87.099C87.166 87.883 87.182 88.683 87.198 89.499H84.006ZM85.566 83.259V82.083H88.278C89.142 82.083 89.838 81.923 90.366 81.603C90.894 81.283 91.278 80.843 91.518 80.283C91.774 79.707 91.902 79.043 91.902 78.291C91.902 77.139 91.598 76.259 90.99 75.651C90.382 75.043 89.446 74.739 88.182 74.739H85.566V73.563H88.446C89.934 73.563 91.15 73.763 92.094 74.163C93.038 74.547 93.734 75.099 94.182 75.819C94.646 76.523 94.878 77.347 94.878 78.291C94.878 79.187 94.662 80.011 94.23 80.763C93.798 81.515 93.086 82.123 92.094 82.587C91.102 83.035 89.766 83.259 88.086 83.259H85.566ZM82.038 74.619V73.563H85.662V74.979H85.254L82.038 74.619ZM93.7393 89.499V88.443L96.1153 88.083H96.5713L98.9953 88.443V89.499H93.7393ZM95.2273 89.499L100.675 73.467H102.571L107.995 89.499H104.875L100.459 75.939H100.939L100.819 76.299L96.4273 89.499H95.2273ZM97.6993 84.531V83.331H104.611V84.531H97.6993ZM102.355 89.499V88.467L105.211 88.107H106.291L109.219 88.467V89.499H102.355ZM110.28 89.499V88.443L113.496 88.083H113.904V89.499H110.28ZM112.248 89.499C112.28 88.699 112.296 87.891 112.296 87.075C112.312 86.243 112.32 85.427 112.32 84.627C112.32 83.811 112.32 83.027 112.32 82.275V81.003C112.32 80.171 112.32 79.339 112.32 78.507C112.32 77.659 112.312 76.819 112.296 75.987C112.296 75.155 112.28 74.347 112.248 73.563H115.44C115.424 74.363 115.408 75.179 115.392 76.011C115.376 76.827 115.368 77.659 115.368 78.507C115.368 79.339 115.368 80.171 115.368 81.003V82.443C115.368 83.147 115.368 83.891 115.368 84.675C115.368 85.459 115.376 86.259 115.392 87.075C115.408 87.891 115.424 88.699 115.44 89.499H112.248ZM113.832 89.499V88.275H120.96L120.096 88.947L121.008 84.891H122.568L122.304 89.499H113.832ZM110.28 74.619V73.563H117.48V74.619L114.24 74.979H113.496L110.28 74.619ZM123.481 89.499V88.443L125.857 88.083H126.313L128.737 88.443V89.499H123.481ZM124.969 89.499L130.417 73.467H132.313L137.737 89.499H134.617L130.201 75.939H130.681L130.561 76.299L126.169 89.499H124.969ZM127.441 84.531V83.331H134.353V84.531H127.441ZM132.097 89.499V88.467L134.953 88.107H136.033L138.961 88.467V89.499H132.097ZM147.551 89.907C146.383 89.907 145.303 89.723 144.311 89.355C143.319 88.971 142.455 88.427 141.719 87.723C140.999 87.003 140.431 86.131 140.015 85.107C139.615 84.083 139.415 82.923 139.415 81.627C139.415 80.283 139.623 79.091 140.039 78.051C140.471 76.995 141.063 76.107 141.815 75.387C142.567 74.667 143.439 74.115 144.431 73.731C145.423 73.347 146.479 73.155 147.599 73.155C148.367 73.155 149.135 73.243 149.903 73.419C150.687 73.595 151.455 73.899 152.207 74.331L152.303 77.931H150.791L149.975 74.235L151.487 74.571L151.511 75.867C150.887 75.323 150.287 74.939 149.711 74.715C149.135 74.475 148.567 74.355 148.007 74.355C147.047 74.355 146.167 74.619 145.367 75.147C144.567 75.675 143.927 76.475 143.447 77.547C142.967 78.603 142.727 79.931 142.727 81.531C142.727 83.147 142.951 84.491 143.399 85.563C143.847 86.619 144.463 87.403 145.247 87.915C146.031 88.427 146.903 88.683 147.863 88.683C148.503 88.683 149.151 88.571 149.807 88.347C150.463 88.123 151.095 87.763 151.703 87.267V88.467L150.191 88.827L150.983 85.107H152.519L152.399 88.731C151.711 89.115 150.959 89.403 150.143 89.595C149.327 89.803 148.463 89.907 147.551 89.907ZM154.249 89.499V88.443L157.465 88.083H157.873V89.499H154.249ZM156.217 89.499C156.249 88.699 156.265 87.891 156.265 87.075C156.281 86.259 156.289 85.427 156.289 84.579C156.289 83.731 156.289 82.891 156.289 82.059V81.003C156.289 80.171 156.289 79.339 156.289 78.507C156.289 77.675 156.281 76.843 156.265 76.011C156.265 75.179 156.249 74.363 156.217 73.563H159.409C159.393 74.347 159.377 75.155 159.361 75.987C159.345 76.819 159.337 77.651 159.337 78.483C159.337 79.315 159.337 80.155 159.337 81.003V81.867C159.337 82.747 159.337 83.619 159.337 84.483C159.337 85.347 159.345 86.195 159.361 87.027C159.377 87.859 159.393 88.683 159.409 89.499H156.217ZM157.801 89.499V88.299H165.433L164.569 88.971L165.313 85.251H166.849L166.657 89.499H157.801ZM157.801 81.939V80.739H163.057V81.939H157.801ZM162.769 84.027L162.361 81.483V81.027L162.769 78.603H163.921V84.027H162.769ZM154.249 74.619V73.563H157.873V74.979H157.465L154.249 74.619ZM164.833 77.763L164.113 74.091L164.953 74.763H157.801V73.563H166.201L166.369 77.763H164.833Z" fill="white"/>
<path d="M79.9789 42V41.082L82.4449 40.866H83.0389L85.4869 41.082V42H79.9789ZM81.5089 42C81.5329 41.388 81.5449 40.776 81.5449 40.164C81.5569 39.552 81.5629 38.934 81.5629 38.31C81.5629 37.686 81.5629 37.062 81.5629 36.438V35.61C81.5629 34.998 81.5629 34.38 81.5629 33.756C81.5629 33.132 81.5569 32.514 81.5449 31.902C81.5449 31.278 81.5329 30.66 81.5089 30.048H83.9569C83.9449 30.66 83.9329 31.278 83.9209 31.902C83.9089 32.526 83.9029 33.156 83.9029 33.792C83.9029 34.416 83.9029 35.064 83.9029 35.736V36.312C83.9029 36.972 83.9029 37.62 83.9029 38.256C83.9029 38.892 83.9089 39.522 83.9209 40.146C83.9329 40.758 83.9449 41.376 83.9569 42H81.5089ZM89.6809 42.216C89.0089 42.216 88.4869 42.102 88.1149 41.874C87.7429 41.646 87.5029 41.244 87.3949 40.668L86.8729 38.238C86.7769 37.794 86.6449 37.446 86.4769 37.194C86.3089 36.942 86.0869 36.768 85.8109 36.672C85.5469 36.564 85.2049 36.51 84.7849 36.51H82.7689V35.574H85.0189C85.6429 35.574 86.1469 35.472 86.5309 35.268C86.9149 35.052 87.1909 34.77 87.3589 34.422C87.5389 34.062 87.6289 33.666 87.6289 33.234C87.6289 32.502 87.4249 31.95 87.0169 31.578C86.6089 31.206 85.9849 31.02 85.1449 31.02H82.8409V30.048H85.5049C86.9329 30.048 88.0369 30.318 88.8169 30.858C89.5969 31.398 89.9869 32.148 89.9869 33.108C89.9869 33.612 89.8429 34.08 89.5549 34.512C89.2789 34.944 88.8529 35.304 88.2769 35.592C87.7009 35.868 86.9629 36.036 86.0629 36.096V36.024C86.5909 36.036 87.0409 36.096 87.4129 36.204C87.7849 36.312 88.0909 36.468 88.3309 36.672C88.5829 36.876 88.7869 37.14 88.9429 37.464C89.0989 37.776 89.2309 38.154 89.3389 38.598L90.0409 41.532L89.0149 40.866L91.3369 41.1V42C91.1569 42.048 90.9829 42.084 90.8149 42.108C90.6469 42.144 90.4729 42.168 90.2929 42.18C90.1129 42.204 89.9089 42.216 89.6809 42.216ZM79.9789 30.966V30.048H82.6429V31.182H82.3909L79.9789 30.966Z" fill="white"/>
<path d="M51.5732 108.277C51.7412 108.581 51.9292 108.845 52.1372 109.069C52.3532 109.293 52.5852 109.465 52.8332 109.585C53.0892 109.705 53.3572 109.765 53.6372 109.765C53.9332 109.765 54.1772 109.693 54.3692 109.549C54.5612 109.397 54.6572 109.193 54.6572 108.937C54.6572 108.721 54.6012 108.549 54.4892 108.421C54.3772 108.285 54.1972 108.157 53.9492 108.037C53.7012 107.917 53.3732 107.781 52.9652 107.629C52.7652 107.557 52.5332 107.457 52.2692 107.329C52.0132 107.201 51.7692 107.037 51.5372 106.837C51.3052 106.629 51.1132 106.381 50.9612 106.093C50.8092 105.797 50.7332 105.441 50.7332 105.025C50.7332 104.529 50.8612 104.101 51.1172 103.741C51.3812 103.381 51.7332 103.109 52.1732 102.925C52.6212 102.733 53.1172 102.637 53.6612 102.637C54.2212 102.637 54.7052 102.729 55.1132 102.913C55.5292 103.097 55.8732 103.329 56.1452 103.609C56.4172 103.889 56.6252 104.173 56.7692 104.461L55.2212 105.325C55.1012 105.125 54.9612 104.953 54.8012 104.809C54.6492 104.657 54.4772 104.541 54.2852 104.461C54.1012 104.373 53.9012 104.329 53.6852 104.329C53.3972 104.329 53.1772 104.393 53.0252 104.521C52.8732 104.641 52.7972 104.793 52.7972 104.977C52.7972 105.169 52.8692 105.337 53.0132 105.481C53.1652 105.625 53.3772 105.757 53.6492 105.877C53.9292 105.997 54.2652 106.125 54.6572 106.261C54.9532 106.373 55.2292 106.505 55.4852 106.657C55.7412 106.801 55.9652 106.977 56.1572 107.185C56.3572 107.393 56.5132 107.633 56.6252 107.905C56.7372 108.177 56.7932 108.489 56.7932 108.841C56.7932 109.265 56.7052 109.645 56.5292 109.981C56.3612 110.309 56.1292 110.585 55.8332 110.809C55.5452 111.033 55.2132 111.201 54.8372 111.313C54.4692 111.433 54.0892 111.493 53.6972 111.493C53.1532 111.493 52.6452 111.397 52.1732 111.205C51.7092 111.005 51.3052 110.737 50.9612 110.401C50.6172 110.065 50.3492 109.697 50.1572 109.297L51.5732 108.277ZM58.1492 102.829H60.2132V111.229H58.1492V102.829ZM67.789 102.829H69.745V111.649L63.937 106.501V111.229H61.993V102.409L67.789 107.557V102.829ZM73.2483 107.029C73.2483 107.541 73.3643 107.985 73.5963 108.361C73.8283 108.729 74.1323 109.009 74.5083 109.201C74.8923 109.393 75.3123 109.489 75.7683 109.489C76.1683 109.489 76.5203 109.437 76.8243 109.333C77.1283 109.229 77.4003 109.093 77.6403 108.925C77.8803 108.757 78.0923 108.577 78.2763 108.385V110.569C77.9403 110.833 77.5723 111.041 77.1723 111.193C76.7723 111.345 76.2643 111.421 75.6483 111.421C74.9763 111.421 74.3563 111.317 73.7883 111.109C73.2203 110.901 72.7323 110.601 72.3243 110.209C71.9163 109.817 71.6003 109.353 71.3763 108.817C71.1523 108.281 71.0403 107.685 71.0403 107.029C71.0403 106.373 71.1523 105.777 71.3763 105.241C71.6003 104.705 71.9163 104.241 72.3243 103.849C72.7323 103.457 73.2203 103.157 73.7883 102.949C74.3563 102.741 74.9763 102.637 75.6483 102.637C76.2643 102.637 76.7723 102.713 77.1723 102.865C77.5723 103.017 77.9403 103.225 78.2763 103.489V105.673C78.0923 105.481 77.8803 105.301 77.6403 105.133C77.4003 104.957 77.1283 104.821 76.8243 104.725C76.5203 104.621 76.1683 104.569 75.7683 104.569C75.3123 104.569 74.8923 104.665 74.5083 104.857C74.1323 105.049 73.8283 105.329 73.5963 105.697C73.3643 106.065 73.2483 106.509 73.2483 107.029ZM81.2784 111.229V109.561H85.5144V111.229H81.2784ZM81.2784 104.497V102.829H85.5144V104.497H81.2784ZM81.2784 107.629V105.997H85.2744V107.629H81.2784ZM79.9344 102.829H81.8784V111.229H79.9344V102.829ZM90.6905 105.253V103.489L94.7225 102.673V111.229H92.7665V104.737L90.6905 105.253ZM101.404 105.781C101.404 105.493 101.34 105.245 101.212 105.037C101.092 104.821 100.924 104.657 100.708 104.545C100.5 104.425 100.264 104.365 100 104.365C99.728 104.365 99.484 104.425 99.268 104.545C99.06 104.657 98.892 104.821 98.764 105.037C98.644 105.245 98.584 105.493 98.584 105.781C98.584 106.061 98.644 106.309 98.764 106.525C98.892 106.741 99.06 106.909 99.268 107.029C99.484 107.149 99.728 107.209 100 107.209C100.264 107.209 100.5 107.149 100.708 107.029C100.924 106.909 101.092 106.741 101.212 106.525C101.34 106.309 101.404 106.061 101.404 105.781ZM100.012 111.193H97.444L100.168 108.157L100.576 107.977C100.352 108.193 100.136 108.337 99.928 108.409C99.728 108.473 99.476 108.505 99.172 108.505C98.86 108.505 98.548 108.445 98.236 108.325C97.932 108.197 97.656 108.017 97.408 107.785C97.16 107.545 96.96 107.257 96.808 106.921C96.656 106.585 96.58 106.205 96.58 105.781C96.58 105.085 96.732 104.505 97.036 104.041C97.348 103.577 97.76 103.229 98.272 102.997C98.792 102.757 99.368 102.637 100 102.637C100.624 102.637 101.192 102.757 101.704 102.997C102.224 103.229 102.636 103.577 102.94 104.041C103.252 104.505 103.408 105.085 103.408 105.781C103.408 106.229 103.312 106.645 103.12 107.029C102.936 107.413 102.708 107.773 102.436 108.109L100.012 111.193ZM109.431 105.781C109.431 105.493 109.367 105.245 109.239 105.037C109.119 104.821 108.951 104.657 108.735 104.545C108.527 104.425 108.291 104.365 108.027 104.365C107.755 104.365 107.511 104.425 107.295 104.545C107.087 104.657 106.919 104.821 106.791 105.037C106.671 105.245 106.611 105.493 106.611 105.781C106.611 106.061 106.671 106.309 106.791 106.525C106.919 106.741 107.087 106.909 107.295 107.029C107.511 107.149 107.755 107.209 108.027 107.209C108.291 107.209 108.527 107.149 108.735 107.029C108.951 106.909 109.119 106.741 109.239 106.525C109.367 106.309 109.431 106.061 109.431 105.781ZM108.039 111.193H105.471L108.195 108.157L108.603 107.977C108.379 108.193 108.163 108.337 107.955 108.409C107.755 108.473 107.503 108.505 107.199 108.505C106.887 108.505 106.575 108.445 106.263 108.325C105.959 108.197 105.683 108.017 105.435 107.785C105.187 107.545 104.987 107.257 104.835 106.921C104.683 106.585 104.607 106.205 104.607 105.781C104.607 105.085 104.759 104.505 105.063 104.041C105.375 103.577 105.787 103.229 106.299 102.997C106.819 102.757 107.395 102.637 108.027 102.637C108.651 102.637 109.219 102.757 109.731 102.997C110.251 103.229 110.663 103.577 110.967 104.041C111.279 104.505 111.435 105.085 111.435 105.781C111.435 106.229 111.339 106.645 111.147 107.029C110.963 107.413 110.735 107.773 110.463 108.109L108.039 111.193ZM117.459 105.781C117.459 105.493 117.395 105.245 117.267 105.037C117.147 104.821 116.979 104.657 116.763 104.545C116.555 104.425 116.319 104.365 116.055 104.365C115.783 104.365 115.539 104.425 115.323 104.545C115.115 104.657 114.947 104.821 114.819 105.037C114.699 105.245 114.639 105.493 114.639 105.781C114.639 106.061 114.699 106.309 114.819 106.525C114.947 106.741 115.115 106.909 115.323 107.029C115.539 107.149 115.783 107.209 116.055 107.209C116.319 107.209 116.555 107.149 116.763 107.029C116.979 106.909 117.147 106.741 117.267 106.525C117.395 106.309 117.459 106.061 117.459 105.781ZM116.067 111.193H113.499L116.223 108.157L116.631 107.977C116.407 108.193 116.191 108.337 115.983 108.409C115.783 108.473 115.531 108.505 115.227 108.505C114.915 108.505 114.603 108.445 114.291 108.325C113.987 108.197 113.711 108.017 113.463 107.785C113.215 107.545 113.015 107.257 112.863 106.921C112.711 106.585 112.635 106.205 112.635 105.781C112.635 105.085 112.787 104.505 113.091 104.041C113.403 103.577 113.815 103.229 114.327 102.997C114.847 102.757 115.423 102.637 116.055 102.637C116.679 102.637 117.247 102.757 117.759 102.997C118.279 103.229 118.691 103.577 118.995 104.041C119.307 104.505 119.463 105.085 119.463 105.781C119.463 106.229 119.367 106.645 119.175 107.029C118.991 107.413 118.763 107.773 118.491 108.109L116.067 111.193Z" fill="#0B0B0C"/>
</svg>
