<svg width="158" height="72" viewBox="0 0 158 72" fill="none" xmlns="http://www.w3.org/2000/svg">
<path d="M82.2197 32.7674C82.2197 32.7674 82.145 32.9168 81.9956 33.141C81.8461 33.3652 81.6219 33.8135 81.323 34.2619C80.7252 35.2333 79.8286 36.7278 78.633 38.5959C78.0352 39.5673 77.2879 40.6135 76.4659 41.6596C76.0176 42.1827 75.5692 42.7805 75.1209 43.3783C74.8967 43.6772 74.5978 43.9761 74.2989 44.2003C74.1495 44.3497 74 44.4992 73.7759 44.5739C73.5517 44.7233 73.2528 44.798 72.9539 44.7233C72.7297 44.5739 72.5803 44.3497 72.5055 44.0508C72.4308 43.8266 72.4308 43.6025 72.4308 43.3783C72.4308 42.9299 72.5803 42.4816 72.655 42.0332C72.8792 41.1365 73.1781 40.3146 73.477 39.4179C74.1495 37.6245 74.9715 35.8311 75.9429 33.963L76.4659 34.2619C75.4945 35.7564 74.4484 37.2509 73.2528 38.8201C72.0572 40.3893 70.8616 42.0332 69.3671 43.5277C68.9935 43.9014 68.5451 44.275 68.0968 44.5739C67.7979 44.7233 67.5737 44.8728 67.1254 44.9475C66.677 45.0222 66.3034 44.5739 66.1539 44.2003C65.9298 43.5277 66.0045 42.9299 66.1539 42.3321C66.3034 41.7343 66.4528 41.2113 66.6023 40.6882C67.3495 38.5212 68.4704 36.4289 69.666 34.2619L70.4133 34.7102C69.1429 36.5783 67.7979 38.4465 66.3034 40.3893C65.5562 41.3607 64.8089 42.2574 63.9122 43.1541C63.4638 43.6025 63.0155 44.0508 62.4924 44.4244C62.2683 44.6486 61.9694 44.798 61.6705 45.0222L61.4463 45.1717C61.3716 45.1717 61.2221 45.2464 61.1474 45.2464C61.0727 45.2464 60.9232 45.2464 60.7738 45.2464C60.6243 45.2464 60.4749 45.1717 60.4001 45.0969C60.0265 44.8728 59.8771 44.4992 59.8023 44.2003C59.7276 43.9014 59.7276 43.6025 59.7276 43.3783C59.7276 42.8552 59.8771 42.4069 59.9518 41.8838C60.176 40.9124 60.5496 40.0157 60.9232 39.119C61.6705 37.3256 62.4924 35.4575 63.4639 33.6641L64.3605 34.1871C63.3891 35.8311 62.2683 37.5498 61.2221 39.1937C60.1012 40.8376 58.9804 42.5563 57.5606 44.1255C57.187 44.4992 56.8134 44.8728 56.2903 45.2464C56.1408 45.3211 56.0661 45.3958 55.8419 45.4706C55.6925 45.5453 55.6178 45.5453 55.4683 45.5453C55.3189 45.5453 55.2441 45.5453 55.0947 45.4706C54.6464 45.3211 54.3475 44.7233 54.3475 44.4992C54.198 43.8266 54.2727 43.3036 54.3475 42.7805C54.4222 42.2574 54.4969 41.7343 54.6463 41.2113C55.1694 39.119 55.8419 37.1014 56.5892 35.0838L56.8881 34.3366L56.9628 34.1871C57.8595 34.5608 57.3364 34.3366 57.4859 34.3366C57.4859 34.4113 57.4859 34.4113 57.5606 34.4113C57.6353 34.486 57.7101 34.5608 57.7848 34.6355C57.8595 34.7102 57.9342 34.7102 57.8595 34.7102L57.6353 35.0091L56.7386 36.3542C56.1408 37.2509 55.543 38.1476 54.8705 39.0443C53.6002 40.8376 52.2552 42.631 50.6859 44.275C50.2376 44.6486 49.864 45.0969 49.2662 45.3958C49.1167 45.4706 48.9673 45.5453 48.7431 45.62C48.5189 45.6947 48.22 45.6947 47.9959 45.5453C47.4728 45.2464 47.3233 44.798 47.2486 44.4244C47.1739 43.6772 47.3233 43.0794 47.5475 42.4816C47.6969 41.8838 47.9211 41.3607 48.22 40.8376C49.1914 38.6706 50.387 36.7278 51.6574 34.7102L52.6288 35.3827C51.3585 37.1014 50.0134 38.8948 48.5936 40.6882C47.8464 41.5849 47.0992 42.4816 46.2772 43.3036C45.8288 43.7519 45.4552 44.1255 44.9321 44.5739C44.708 44.798 44.4091 44.9475 44.1102 45.0969L43.8113 45.2464C43.7365 45.3211 43.5124 45.3211 43.4376 45.3211C43.2882 45.3211 43.1387 45.3211 42.9893 45.3211C42.8398 45.3211 42.7651 45.2464 42.6157 45.1717C42.541 45.0969 42.4662 45.0222 42.3915 44.9475L42.2421 44.6486C42.1673 44.5739 42.1673 44.4244 42.1673 44.3497C42.1673 44.275 42.1673 44.2003 42.1673 44.1255C42.1673 43.8266 42.2421 43.6025 42.2421 43.3783C42.3168 42.9299 42.5409 42.4816 42.6904 42.0332C43.064 41.2113 43.4376 40.3893 43.886 39.5673C44.7827 37.9234 45.7541 36.3542 46.8003 34.7849L47.7717 35.5322C45.9036 37.7739 43.886 40.0157 41.6443 42.108C41.0465 42.631 40.4487 43.1541 39.7761 43.6025C39.4025 43.8266 39.1036 44.0508 38.6553 44.2003C38.4311 44.275 38.2069 44.3497 37.908 44.4244C37.7586 44.4244 37.6091 44.4244 37.4597 44.4244C37.3102 44.3497 37.0861 44.3497 36.9366 44.2003C36.6377 43.9761 36.4883 43.6772 36.4135 43.3783C36.4135 43.2288 36.4135 43.0794 36.4135 42.9299C36.4135 42.7805 36.4135 42.7058 36.4883 42.5563C36.563 42.108 36.7872 41.7343 36.9366 41.286C37.3102 40.5387 37.8333 39.8662 38.2816 39.2684C39.9256 37.1761 41.7937 35.3827 43.5871 33.6641L44.1849 34.6355C33.7234 38.9695 24.1587 44.7233 15.7148 51.2991C13.6225 52.943 11.6049 54.6617 9.66211 56.4551C7.79399 58.2485 5.92587 60.0419 4.35665 62.0594C3.6094 63.0309 2.86216 64.077 2.33909 65.1979C1.81601 66.244 1.29294 67.4396 1.21822 68.5605C1.21822 69.0836 1.36767 69.6066 1.66656 69.8308C1.96546 70.1297 2.48854 70.2044 3.01161 70.2044C4.13248 70.2044 5.25335 69.7561 6.37422 69.3077C7.49509 68.7847 8.54123 68.2616 9.51265 67.5891C10.4841 66.9165 11.5302 66.3187 12.4269 65.5715C12.8753 65.1979 13.3236 64.8243 13.772 64.4506C14.1456 64.0023 14.5939 63.6287 14.9676 63.1803C15.7895 62.3583 16.5368 61.4616 17.284 60.565C20.1983 56.9782 22.44 53.0925 24.4576 49.2815C26.4751 45.4706 28.1938 41.5849 29.5389 37.8487C30.8839 34.1124 32.0048 30.3762 32.3784 26.7894C32.6773 23.2026 31.2575 19.7653 28.8663 17.5983C27.6707 16.5521 26.251 15.7302 24.8312 15.3565C24.084 15.2071 23.3367 14.9829 22.6642 14.9829C21.9169 14.9082 21.2444 14.9829 20.4972 15.0576C20.1236 15.0576 19.8247 15.2071 19.451 15.2818C19.0774 15.3565 18.7785 15.4313 18.4049 15.506C17.7324 15.7302 17.1346 15.9543 16.5368 16.2532C15.939 16.5521 15.3412 16.851 14.8181 17.2247C14.295 17.5983 13.772 17.9719 13.2489 18.3455C11.306 19.84 9.6621 21.4092 8.31706 23.0532C5.77642 26.2663 4.73028 29.4048 4.5061 31.4971C4.35665 32.5432 4.35666 33.3652 4.43138 33.963C4.5061 34.486 4.5061 34.7849 4.5061 34.7849C4.5061 34.7849 4.43138 34.486 4.28193 33.963C4.2072 33.4399 4.13248 32.5432 4.28193 31.4971C4.43138 29.33 5.4028 26.1169 7.94344 22.829C9.21376 21.1851 10.8577 19.5411 12.8753 17.9719C13.3983 17.5983 13.9214 17.2247 14.4445 16.851C15.0423 16.5521 15.6401 16.1785 16.2379 15.8796C16.8357 15.5807 17.5082 15.3565 18.1807 15.0576C18.5543 14.9829 18.8532 14.9082 19.2269 14.7587C19.6005 14.684 19.9741 14.5346 20.3477 14.5346C21.095 14.4598 21.8422 14.3104 22.6642 14.3851C23.4862 14.3851 24.2334 14.5346 25.0554 14.7587C26.6246 15.2071 28.1191 16.0291 29.3894 17.1499C31.93 19.4664 33.4993 23.1279 33.2004 26.9389C32.8267 30.6751 31.7059 34.486 30.3608 38.297C29.0158 42.108 27.2971 45.9936 25.2796 49.8793C23.262 53.765 20.9455 57.6507 18.0313 61.3869C17.284 62.2836 16.5368 63.255 15.7148 64.077C15.2665 64.5254 14.8928 64.9737 14.4445 65.3473C13.9961 65.7209 13.4731 66.0946 13.0247 66.5429C12.0533 67.3649 11.0819 67.9627 10.0357 68.6352C8.98958 69.3077 7.94344 69.9055 6.74784 70.4286C5.62697 70.9517 4.35665 71.4 3.01161 71.4747C2.33909 71.4747 1.51712 71.4 0.919318 70.8022C0.321521 70.2044 0.0973467 69.3825 0.172071 68.6352C0.246796 67.2154 0.769867 65.9451 1.36766 64.8243C1.96546 63.6287 2.71271 62.5825 3.53468 61.5364C5.1039 59.4441 6.97202 57.576 8.91486 55.7826C10.8577 53.9892 12.8753 52.2705 15.0423 50.5518C23.5609 43.9761 33.2004 38.1476 43.8113 33.7388L44.4091 34.7102C42.6904 36.3542 40.8223 38.1476 39.2531 40.1651C38.8047 40.7629 38.3564 41.3607 37.9827 42.0332C37.8333 42.3321 37.6838 42.631 37.6091 42.9299C37.5344 43.2288 37.6091 43.3783 37.6091 43.3783C37.5344 43.3783 37.8333 43.3783 38.1322 43.3036C38.4311 43.1541 38.73 43.0047 39.0289 42.7805C39.6267 42.4069 40.2245 41.8838 40.7476 41.3607C42.9146 39.3431 44.9321 37.1014 46.7255 34.9344L47.6969 35.6816C46.6508 37.1761 45.6794 38.7453 44.8574 40.3146C44.4091 41.0618 44.0354 41.8838 43.7365 42.631C43.5871 43.0047 43.4376 43.3783 43.3629 43.7519C43.2882 43.9014 43.2882 44.1255 43.2882 44.275V44.3497L43.4376 44.275C43.6618 44.1255 43.886 44.0508 44.0354 43.8266C44.4838 43.453 44.8574 43.0794 45.231 42.7058C46.053 41.8838 46.7255 41.0618 47.4728 40.1651C48.8925 38.4465 50.2376 36.6531 51.5079 34.9344L52.4793 35.6069C51.209 37.5498 50.0134 39.4926 49.1167 41.5102C48.8926 42.0332 48.6684 42.5563 48.5189 43.0047C48.3695 43.5277 48.22 44.0508 48.2948 44.4244C48.2948 44.5739 48.3695 44.7233 48.3695 44.6486C48.3695 44.6486 48.3695 44.6486 48.4442 44.6486C48.5189 44.6486 48.5936 44.5739 48.6684 44.5739C49.042 44.3497 49.4903 43.9761 49.864 43.6025C51.3585 42.0332 52.7035 40.2398 53.9738 38.5212C54.6464 37.6245 55.2441 36.7278 55.8419 35.8311L56.7386 34.486L56.9628 34.1124C56.9628 34.1124 56.9628 34.0377 57.0375 33.963C57.1123 33.8882 57.4112 33.7388 57.5606 33.8135C57.7848 33.6641 58.1584 34.486 58.009 34.5608V34.6355L57.9342 34.8597L57.6353 35.6069C56.8881 37.6245 56.2156 39.642 55.6925 41.5849C55.543 42.108 55.4683 42.5563 55.3936 43.0794C55.3189 43.5277 55.3189 44.0508 55.3936 44.4244C55.4683 44.6486 55.4683 44.5739 55.4683 44.6486C55.4683 44.6486 55.4683 44.6486 55.543 44.6486C55.543 44.6486 55.6925 44.5739 55.7672 44.5739C56.1408 44.3497 56.5145 43.9761 56.8134 43.6025C58.1584 42.108 59.2793 40.464 60.4001 38.8201C61.521 37.1761 62.5672 35.5322 63.5386 33.8882L64.4353 34.4113C63.4639 36.2047 62.6419 37.9981 61.8946 39.7915C61.521 40.6882 61.2221 41.5849 60.9979 42.4816C60.9232 42.9299 60.7738 43.3783 60.7738 43.7519C60.7738 43.9761 60.7738 44.1255 60.7738 44.275C60.7738 44.4244 60.8485 44.4992 60.9232 44.5739C60.9232 44.5739 61.1474 44.5739 61.3716 44.4992C61.5957 44.3497 61.8199 44.2002 62.0441 44.0508C62.4924 43.6772 62.9408 43.3036 63.3144 42.8552C64.1364 41.9585 64.8836 41.0618 65.6309 40.1651C67.1254 38.297 68.4704 36.4289 69.7407 34.5608L70.488 35.0091C69.2924 37.1014 68.2462 39.1937 67.499 41.2113C67.3495 41.7343 67.1254 42.2574 67.0506 42.7805C66.9759 43.3036 66.9012 43.8266 67.0506 44.2003C67.1254 44.4244 67.2001 44.4244 67.2748 44.4244C67.3495 44.4244 67.6484 44.3497 67.7979 44.2003C68.1715 43.9761 68.6199 43.6025 68.9935 43.2288C70.488 41.8091 71.6836 40.1651 72.8792 38.6706C74.0748 37.1014 75.1209 35.6069 76.0923 34.1871L76.6154 34.486C75.644 36.3542 74.822 38.1476 74.1495 39.8662C73.7759 40.7629 73.477 41.5849 73.2528 42.4069C73.1781 42.8552 73.0286 43.2288 73.0286 43.6025C73.0286 43.8266 73.0286 43.9761 73.0286 44.1255C73.0286 44.275 73.1033 44.3497 73.1781 44.4244C73.3275 44.4991 73.4022 44.4244 73.5517 44.3497C73.7011 44.275 73.8506 44.1255 74 44.0508C74.2989 43.8266 74.5231 43.5277 74.822 43.3036C75.3451 42.7805 75.7934 42.1827 76.167 41.6596C76.989 40.5387 77.7363 39.5673 78.3341 38.5959C79.6044 36.7278 80.5011 35.308 81.1736 34.3366C81.4725 33.8882 81.6967 33.5146 81.9208 33.2157C82.145 32.8421 82.2197 32.7674 82.2197 32.7674Z" fill="white"/>
<path d="M157.617 48.6841C157.617 48.6841 157.767 48.3105 157.468 47.7127C157.169 47.1149 156.272 46.5171 155.002 46.0688C153.732 45.6204 152.162 45.1721 150.219 45.0973C149.696 45.0973 149.248 45.0226 148.725 45.0226C148.202 45.0226 147.679 45.0226 147.081 45.0226C145.96 45.0226 144.765 45.0973 143.494 45.0973C138.413 45.3215 132.136 45.8446 124.963 46.6666C117.789 47.4885 109.569 48.6841 100.602 50.4028C99.4814 50.627 98.3606 50.8512 97.2397 51.0753C96.1188 51.2995 94.9232 51.5237 93.8024 51.8226C92.6068 52.1215 91.4859 52.4204 90.2903 52.7193C89.0947 53.0182 87.8991 53.3171 86.7035 53.616C81.8464 54.8116 76.7651 56.0072 71.4597 56.8291C68.7696 57.2775 66.0795 57.5764 63.24 57.6511C60.4752 57.7258 57.4862 57.5016 54.7214 56.5302C53.3016 56.0072 51.9565 55.2599 50.8357 54.2138C49.7148 53.1676 48.8928 51.8226 48.3698 50.3281C47.9214 48.8336 47.772 47.2644 47.772 45.7699C47.8467 44.2007 47.9961 42.7062 48.3698 41.2117C49.0423 38.2227 50.0884 35.2337 51.3588 32.3942C52.6291 29.5546 54.273 26.7898 55.9917 24.1744C57.7851 21.4844 59.8026 19.0184 62.0444 16.6273C64.2861 14.2361 66.752 11.9943 69.3674 10.0515C72.0575 8.10865 74.897 6.31526 77.9607 4.89549C80.9497 3.401 84.1629 2.13068 87.4508 1.23398C90.7386 0.337286 94.2507 -0.260511 97.8375 0.113112L99.1825 0.262559C99.6309 0.337284 100.079 0.486734 100.528 0.561459C101.424 0.710908 102.246 1.15926 103.068 1.45816C104.712 2.28013 106.132 3.47572 107.253 4.89549C108.299 6.38998 108.971 8.18337 109.345 9.90204C109.644 11.6954 109.644 13.4888 109.42 15.2822C108.897 18.7943 107.626 22.1569 105.833 25.0711C104.04 28.0601 101.798 30.6755 99.332 32.992C96.8661 35.3084 94.176 37.326 91.3364 39.0447C85.6574 42.482 79.9036 45.3963 74.2245 48.2358C71.385 49.6556 68.6201 51.0753 65.8553 52.4951C63.1652 53.9896 60.4752 55.4841 58.084 57.2027C56.8884 58.0994 55.6928 58.9961 54.6466 59.9676C53.6005 60.939 52.7038 62.0598 51.9565 63.3302C51.284 64.5258 50.6862 65.8708 50.6862 67.2158C50.6115 68.5609 51.1346 69.8312 52.1807 70.429C53.3016 71.0268 54.6466 70.9521 55.9917 70.6532C57.262 70.2796 58.5323 69.7565 59.6532 69.0092C61.9697 67.5895 63.9872 65.7214 65.7806 63.8532C69.5168 60.0423 72.73 55.9324 75.6443 51.8973C78.5585 47.8622 81.1739 43.9018 83.4904 39.9413C84.686 37.9985 85.7321 36.0557 86.6288 34.1128C87.5255 32.17 88.3475 30.2271 89.0947 28.2843C90.6639 24.4733 92.0837 20.8866 93.5035 17.524C94.2507 15.88 94.9232 14.2361 95.7452 12.7416C95.9694 12.368 96.1935 11.9943 96.4177 11.6207C96.4924 11.546 96.5672 11.3965 96.7166 11.3218C96.8661 11.2471 96.9408 11.0976 97.0902 11.0976C97.165 11.0976 97.2397 11.0976 97.3144 11.0229C97.3891 11.0229 97.4639 11.0976 97.5386 11.0976C97.688 11.1724 97.7628 11.2471 97.9122 11.3218C97.9869 11.3965 98.0617 11.546 98.1364 11.6954C98.2111 11.8449 98.2111 11.9943 98.2111 12.0691C98.2111 12.2932 98.2111 12.5174 98.1364 12.7416C98.0617 13.1899 97.9122 13.5635 97.7628 13.9372C97.0902 15.4317 96.1936 16.6273 95.2221 17.6734C94.2507 18.7195 93.2793 19.691 92.3079 20.5129C90.2903 22.0822 88.2727 23.2778 86.5541 24.1744C84.8354 25.1459 83.3409 25.8184 82.0706 26.4162C80.875 26.9393 79.9036 27.3876 79.231 27.6118C78.9321 27.7612 78.6332 27.836 78.4838 27.9107C78.3344 27.9854 78.2596 27.9854 78.2596 27.9854C78.2596 27.9854 78.5585 27.836 79.231 27.5371C79.8288 27.2382 80.8003 26.7898 81.9959 26.2667C83.1915 25.6689 84.686 24.9217 86.4046 23.9503C88.1233 22.9789 90.0661 21.858 92.009 20.214C92.9804 19.3921 93.9518 18.4954 94.8485 17.3745C95.7452 16.3284 96.6419 15.1328 97.2397 13.713C97.3891 13.3394 97.5386 13.0405 97.5386 12.6669C97.5386 12.5174 97.6133 12.2932 97.5386 12.1438C97.5386 12.0691 97.5386 11.9943 97.5386 11.9196C97.5386 11.8449 97.5386 11.8449 97.4639 11.7702C97.3891 11.6954 97.3144 11.6207 97.165 11.6954C97.0902 11.6954 97.0902 11.7702 97.0155 11.7702L96.8661 11.9196C96.6419 12.2185 96.4177 12.5921 96.2683 12.9657C95.521 14.4602 94.8485 16.0295 94.1013 17.7481C92.6815 21.1107 91.3364 24.6975 89.7672 28.5832C89.02 30.526 88.2727 32.4689 87.3013 34.4865C86.3299 36.4293 85.2837 38.4469 84.1629 40.3897C81.8464 44.3501 79.2311 48.3852 76.3168 52.4204C73.4025 56.4555 70.1894 60.6401 66.4531 64.5258C64.585 66.4686 62.5675 68.4114 60.1015 69.9059C59.5037 70.2796 58.8312 70.6532 58.2334 70.9521C57.5609 71.251 56.8884 71.4752 56.1411 71.6993C54.7214 72.073 53.0774 72.2224 51.5829 71.4004C50.8357 71.0268 50.2379 70.3543 49.939 69.607C49.5654 68.8598 49.4906 68.0378 49.5654 67.2158C49.6401 65.6466 50.2379 64.1521 50.9851 62.8071C51.8071 61.4621 52.7038 60.2665 53.8247 59.2203C54.9455 58.1742 56.1411 57.2027 57.3367 56.306C59.8026 54.5127 62.4927 53.0182 65.2575 51.5237C68.0224 50.0292 70.7872 48.6094 73.6267 47.1896C79.3058 44.3501 85.0596 41.4358 90.6639 38.0732C93.4287 36.3546 96.1188 34.4117 98.51 32.17C100.901 29.9282 103.068 27.3876 104.787 24.5481C106.506 21.7085 107.776 18.4954 108.224 15.2075C108.374 13.5635 108.448 11.8449 108.149 10.2009C107.851 8.557 107.253 6.98778 106.281 5.64273C105.31 4.29769 103.965 3.32627 102.545 2.57902C101.798 2.28013 101.051 1.9065 100.229 1.75705C99.8551 1.68233 99.4067 1.53288 99.0331 1.45816L97.7628 1.30871C94.4002 0.935082 91.0375 1.53288 87.8244 2.42957C84.6112 3.32627 81.4728 4.52186 78.4838 6.01636C75.4948 7.43613 72.6553 9.08007 70.0399 11.0229C67.4246 12.9658 65.0334 15.1328 62.8664 17.4492C60.6993 19.7657 58.6818 22.2316 56.9631 24.847C55.2444 27.4623 53.6752 30.1524 52.4049 32.9172C51.1346 35.682 50.0884 38.5963 49.4906 41.4358C49.1917 42.8556 48.9676 44.3501 48.9676 45.7699C48.8928 47.1896 49.0423 48.6841 49.4906 49.9545C49.939 51.2995 50.6862 52.4951 51.6577 53.4665C52.6291 54.4379 53.8247 55.1105 55.1697 55.5588C57.7851 56.5302 60.5499 56.6797 63.3147 56.6797C66.0795 56.6049 68.7696 56.306 71.385 55.9324C76.6904 55.1105 81.697 53.9149 86.5541 52.794C87.7497 52.4951 88.9453 52.1962 90.1409 51.8973C91.3364 51.5984 92.532 51.2995 93.6529 51.0753C94.8485 50.7764 95.9694 50.5522 97.165 50.3281C98.2858 50.1039 99.4814 49.8797 100.602 49.6556C109.569 47.9369 117.789 46.816 125.037 46.0688C132.286 45.3215 138.488 44.7985 143.644 44.649C144.914 44.649 146.11 44.5743 147.305 44.5743C147.903 44.5743 148.426 44.5743 148.949 44.5743C149.472 44.5743 149.995 44.649 150.518 44.649C152.536 44.7985 154.105 45.2468 155.375 45.7699C156.646 46.2929 157.542 46.9655 157.841 47.638C157.841 48.3105 157.617 48.6841 157.617 48.6841Z" fill="white"/>
</svg>
