<svg width="88" height="41" viewBox="0 0 88 41" fill="none" xmlns="http://www.w3.org/2000/svg">
<path d="M45.5897 18.7042C45.5897 18.7042 45.5482 18.7872 45.4652 18.9117C45.3822 19.0363 45.2576 19.2853 45.0916 19.5344C44.7595 20.0741 44.2613 20.9044 43.5971 21.9422C43.265 22.4819 42.8498 23.0631 42.3932 23.6443C42.1441 23.9349 41.895 24.267 41.6459 24.5991C41.5214 24.7652 41.3553 24.9312 41.1893 25.0557C41.1063 25.1388 41.0232 25.2218 40.8987 25.2633C40.7742 25.3463 40.6081 25.3879 40.442 25.3463C40.3175 25.2633 40.2345 25.1388 40.193 24.9727C40.1514 24.8482 40.1515 24.7236 40.1515 24.5991C40.1515 24.35 40.2345 24.1009 40.276 23.8519C40.4005 23.3537 40.5666 22.897 40.7326 22.3989C41.1063 21.4025 41.5629 20.4062 42.1026 19.3684L42.3932 19.5344C41.8535 20.3647 41.2723 21.195 40.6081 22.0668C39.9439 22.9385 39.2797 23.8519 38.4494 24.6821C38.2418 24.8897 37.9927 25.0973 37.7437 25.2633C37.5776 25.3463 37.4531 25.4294 37.204 25.4709C36.9549 25.5124 36.7473 25.2633 36.6643 25.0557C36.5398 24.6821 36.5813 24.35 36.6643 24.0179C36.7473 23.6858 36.8304 23.3952 36.9134 23.1046C37.3285 21.9007 37.9512 20.7383 38.6154 19.5344L39.0306 19.7835C38.3248 20.8213 37.5776 21.8592 36.7473 22.9386C36.3322 23.4782 35.917 23.9764 35.4189 24.4746C35.1698 24.7236 34.9207 24.9727 34.6301 25.1803C34.5056 25.3048 34.3395 25.3879 34.1735 25.5124L34.0489 25.5954C34.0074 25.5954 33.9244 25.6369 33.8829 25.6369C33.8414 25.6369 33.7583 25.6369 33.6753 25.6369C33.5923 25.6369 33.5093 25.5954 33.4677 25.5539C33.2602 25.4294 33.1771 25.2218 33.1356 25.0557C33.0941 24.8897 33.0941 24.7236 33.0941 24.5991C33.0941 24.3085 33.1772 24.0594 33.2187 23.7688C33.3432 23.2291 33.5508 22.731 33.7583 22.2328C34.1735 21.2365 34.6301 20.1986 35.1698 19.2023L35.668 19.4929C35.1283 20.4062 34.5056 21.361 33.9244 22.2743C33.3017 23.1876 32.679 24.1424 31.8902 25.0142C31.6827 25.2218 31.4751 25.4294 31.1845 25.6369C31.1015 25.6785 31.06 25.72 30.9354 25.7615C30.8524 25.803 30.8109 25.803 30.7278 25.803C30.6448 25.803 30.6033 25.803 30.5203 25.7615C30.2712 25.6785 30.1051 25.3463 30.1051 25.2218C30.0221 24.8482 30.0636 24.5576 30.1051 24.267C30.1467 23.9764 30.1882 23.6858 30.2712 23.3952C30.5618 22.2328 30.9354 21.1119 31.3505 19.9911L31.5166 19.5759L31.5581 19.4929C32.0563 19.7005 31.7657 19.5759 31.8487 19.5759C31.8487 19.6175 31.8487 19.6175 31.8902 19.6175C31.9317 19.659 31.9732 19.7005 32.0148 19.742C32.0563 19.7835 32.0978 19.7835 32.0563 19.7835L31.9317 19.9496L31.4336 20.6968C31.1015 21.195 30.7694 21.6931 30.3957 22.1913C29.69 23.1876 28.9427 24.184 28.071 25.0973C27.8219 25.3048 27.6143 25.5539 27.2822 25.72C27.1992 25.7615 27.1161 25.803 26.9916 25.8445C26.8671 25.886 26.701 25.886 26.5765 25.803C26.2859 25.6369 26.2028 25.3879 26.1613 25.1803C26.1198 24.7652 26.2028 24.433 26.3274 24.1009C26.4104 23.7688 26.535 23.4782 26.701 23.1876C27.2407 21.9837 27.9049 20.9044 28.6106 19.7835L29.1503 20.1571C28.4446 21.1119 27.6973 22.1083 26.9086 23.1046C26.4934 23.6028 26.0783 24.1009 25.6217 24.5576C25.3726 24.8067 25.165 25.0142 24.8744 25.2633C24.7499 25.3879 24.5838 25.4709 24.4178 25.5539L24.2517 25.6369C24.2102 25.6785 24.0856 25.6785 24.0441 25.6785C23.9611 25.6785 23.8781 25.6785 23.7951 25.6785C23.712 25.6785 23.6705 25.6369 23.5875 25.5954C23.546 25.5539 23.5045 25.5124 23.4629 25.4709L23.3799 25.3048C23.3384 25.2633 23.3384 25.1803 23.3384 25.1388C23.3384 25.0973 23.3384 25.0557 23.3384 25.0142C23.3384 24.8482 23.3799 24.7236 23.3799 24.5991C23.4214 24.35 23.546 24.1009 23.629 23.8519C23.8366 23.3952 24.0441 22.9385 24.2932 22.4819C24.7914 21.5686 25.3311 20.6968 25.9123 19.825L26.4519 20.2402C25.4141 21.4856 24.2932 22.731 23.0478 23.8934C22.7157 24.184 22.3836 24.4746 22.01 24.7236C21.8024 24.8482 21.6363 24.9727 21.3873 25.0557C21.2627 25.0973 21.1382 25.1388 20.9721 25.1803C20.8891 25.1803 20.8061 25.1803 20.723 25.1803C20.64 25.1388 20.5155 25.1388 20.4324 25.0557C20.2664 24.9312 20.1834 24.7652 20.1418 24.5991C20.1418 24.5161 20.1418 24.433 20.1418 24.35C20.1418 24.267 20.1418 24.2255 20.1834 24.1424C20.2249 23.8934 20.3494 23.6858 20.4324 23.4367C20.64 23.0216 20.9306 22.648 21.1797 22.3158C22.093 21.1535 23.1308 20.1571 24.1272 19.2023L24.4593 19.742C18.6474 22.1498 13.3336 25.3463 8.64255 28.9995C7.48017 29.9129 6.3593 30.8677 5.27995 31.864C4.2421 32.8603 3.20426 33.8567 2.33247 34.9775C1.91733 35.5172 1.5022 36.0984 1.2116 36.7211C0.921007 37.3023 0.630411 37.9665 0.588897 38.5892C0.588897 38.8798 0.671924 39.1704 0.837978 39.2949C1.00403 39.461 1.29463 39.5025 1.58523 39.5025C2.20793 39.5025 2.83064 39.2534 3.45334 39.0043C4.07605 38.7138 4.65724 38.4232 5.19692 38.0495C5.73659 37.6759 6.31779 37.3438 6.81595 36.9287C7.06503 36.7211 7.31412 36.5135 7.5632 36.306C7.77077 36.0569 8.01985 35.8493 8.22742 35.6002C8.68407 35.1436 9.0992 34.6454 9.51434 34.1472C11.1334 32.1546 12.3788 29.9959 13.4997 27.8787C14.6205 25.7615 15.5753 23.6028 16.3226 21.5271C17.0698 19.4514 17.6925 17.3757 17.9001 15.3831C18.0662 13.3904 17.2774 11.4808 15.949 10.2769C15.2847 9.69568 14.496 9.23903 13.7072 9.03146C13.2921 8.94843 12.8769 8.82389 12.5033 8.82389C12.0882 8.78238 11.7146 8.82389 11.2994 8.86541C11.0919 8.86541 10.9258 8.94843 10.7182 8.98995C10.5107 9.03146 10.3446 9.07297 10.137 9.11449C9.76342 9.23903 9.43131 9.36357 9.0992 9.52963C8.76709 9.69568 8.43498 9.86174 8.14439 10.0693C7.85379 10.2769 7.5632 10.4844 7.2726 10.692C6.19324 11.5223 5.27994 12.3941 4.5327 13.3074C3.12123 15.0925 2.54004 16.836 2.4155 17.9984C2.33247 18.5796 2.33247 19.0363 2.37399 19.3684C2.4155 19.659 2.4155 19.825 2.4155 19.825C2.4155 19.825 2.37399 19.659 2.29096 19.3684C2.24944 19.0778 2.20793 18.5796 2.29096 17.9984C2.37399 16.7945 2.91366 15.0094 4.32513 13.1828C5.03086 12.2695 5.94416 11.3562 7.06503 10.4844C7.35563 10.2769 7.64622 10.0693 7.93682 9.86174C8.26893 9.69568 8.60104 9.48811 8.93315 9.32206C9.26526 9.156 9.63888 9.03146 10.0125 8.86541C10.2201 8.82389 10.3861 8.78238 10.5937 8.69935C10.8013 8.65784 11.0088 8.57481 11.2164 8.57481C11.6315 8.5333 12.0467 8.45027 12.5033 8.49178C12.96 8.49178 13.3751 8.57481 13.8318 8.69935C14.7036 8.94843 15.5338 9.40508 16.2396 10.0278C17.651 11.3147 18.5228 13.3489 18.3568 15.4661C18.1492 17.5418 17.5265 19.659 16.7792 21.7762C16.032 23.8934 15.0772 26.0521 13.9563 28.2108C12.8354 30.3695 11.5485 32.5282 9.92948 34.6039C9.51434 35.1021 9.0992 35.6417 8.64255 36.0984C8.39347 36.3475 8.1859 36.5966 7.93682 36.8041C7.68774 37.0117 7.39714 37.2193 7.14806 37.4683C6.60838 37.925 6.06871 38.2571 5.48751 38.6307C4.90632 39.0044 4.32513 39.3365 3.66091 39.6271C3.03821 39.9177 2.33247 40.1667 1.58523 40.2082C1.2116 40.2082 0.754951 40.1667 0.422841 39.8346C0.0907319 39.5025 -0.0338091 39.0459 0.00770458 38.6307C0.0492183 37.842 0.339813 37.1362 0.671923 36.5135C1.00403 35.8493 1.41917 35.2681 1.87582 34.6869C2.74761 33.5245 3.78545 32.4867 4.86481 31.4904C5.94416 30.494 7.06503 29.5392 8.26893 28.5844C13.0015 24.9312 18.3568 21.6931 24.2517 19.2438L24.5838 19.7835C23.629 20.6968 22.5912 21.6931 21.7194 22.814C21.4703 23.1461 21.2212 23.4782 21.0136 23.8519C20.9306 24.0179 20.8476 24.184 20.8061 24.35C20.7646 24.5161 20.8061 24.5991 20.8061 24.5991C20.7646 24.5991 20.9306 24.5991 21.0967 24.5576C21.2627 24.4746 21.4288 24.3915 21.5948 24.267C21.9269 24.0594 22.259 23.7688 22.5496 23.4782C23.7535 22.3574 24.8744 21.1119 25.8707 19.908L26.4104 20.3232C25.8292 21.1535 25.2895 22.0252 24.8329 22.897C24.5838 23.3122 24.3762 23.7688 24.2102 24.184C24.1272 24.3915 24.0441 24.5991 24.0026 24.8067C23.9611 24.8897 23.9611 25.0142 23.9611 25.0973V25.1388L24.0441 25.0973C24.1687 25.0142 24.2932 24.9727 24.3762 24.8482C24.6253 24.6406 24.8329 24.433 25.0405 24.2255C25.4971 23.7688 25.8707 23.3122 26.2859 22.814C27.0746 21.8592 27.8219 20.8629 28.5276 19.908L29.0673 20.2817C28.3616 21.361 27.6973 22.4404 27.1992 23.5613C27.0746 23.8519 26.9501 24.1424 26.8671 24.3915C26.784 24.6821 26.701 24.9727 26.7425 25.1803C26.7425 25.2633 26.784 25.3463 26.784 25.3048C26.784 25.3048 26.784 25.3048 26.8256 25.3048C26.8671 25.3048 26.9086 25.2633 26.9501 25.2633C27.1577 25.1388 27.4067 24.9312 27.6143 24.7236C28.4446 23.8519 29.1918 22.8555 29.8976 21.9007C30.2712 21.4025 30.6033 20.9044 30.9354 20.4062L31.4336 19.659L31.5581 19.4514C31.5581 19.4514 31.5581 19.4099 31.5996 19.3684C31.6411 19.3269 31.8072 19.2438 31.8902 19.2853C32.0148 19.2023 32.2223 19.659 32.1393 19.7005V19.742L32.0978 19.8665L31.9317 20.2817C31.5166 21.4025 31.143 22.5234 30.8524 23.6028C30.7694 23.8934 30.7278 24.1424 30.6863 24.433C30.6448 24.6821 30.6448 24.9727 30.6863 25.1803C30.7278 25.3048 30.7278 25.2633 30.7278 25.3048C30.7278 25.3048 30.7278 25.3048 30.7694 25.3048C30.7694 25.3048 30.8524 25.2633 30.8939 25.2633C31.1015 25.1388 31.309 24.9312 31.4751 24.7236C32.2223 23.8934 32.845 22.9801 33.4677 22.0668C34.0904 21.1535 34.6716 20.2402 35.2113 19.3269L35.7095 19.6175C35.1698 20.6138 34.7132 21.6101 34.298 22.6064C34.0904 23.1046 33.9244 23.6028 33.7999 24.1009C33.7583 24.35 33.6753 24.5991 33.6753 24.8067C33.6753 24.9312 33.6753 25.0142 33.6753 25.0973C33.6753 25.1803 33.7168 25.2218 33.7583 25.2633C33.7583 25.2633 33.8829 25.2633 34.0074 25.2218C34.132 25.1388 34.2565 25.0557 34.381 24.9727C34.6301 24.7652 34.8792 24.5576 35.0868 24.3085C35.5434 23.8103 35.9586 23.3122 36.3737 22.814C37.204 21.7762 37.9512 20.7383 38.657 19.7005L39.0721 19.9496C38.4079 21.1119 37.8267 22.2743 37.4115 23.3952C37.3285 23.6858 37.204 23.9764 37.1625 24.267C37.121 24.5576 37.0794 24.8482 37.1625 25.0557C37.204 25.1803 37.2455 25.1803 37.287 25.1803C37.3285 25.1803 37.4946 25.1388 37.5776 25.0557C37.7852 24.9312 38.0342 24.7236 38.2418 24.5161C39.0721 23.7273 39.7363 22.814 40.4005 21.9837C41.0647 21.1119 41.6459 20.2817 42.1856 19.4929L42.4762 19.659C41.9365 20.6968 41.4799 21.6931 41.1063 22.648C40.8987 23.1461 40.7326 23.6028 40.6081 24.0594C40.5666 24.3085 40.4836 24.5161 40.4836 24.7236C40.4836 24.8482 40.4836 24.9312 40.4836 25.0142C40.4836 25.0973 40.5251 25.1388 40.5666 25.1803C40.6496 25.2218 40.6911 25.1803 40.7742 25.1388C40.8572 25.0973 40.9402 25.0142 41.0232 24.9727C41.1893 24.8482 41.3138 24.6821 41.4799 24.5576C41.7705 24.267 42.0196 23.9349 42.2271 23.6443C42.6838 23.0216 43.0989 22.4819 43.431 21.9422C44.1368 20.9044 44.6349 20.1156 45.0085 19.5759C45.1746 19.3269 45.2991 19.1193 45.4237 18.9532C45.5482 18.7457 45.5897 18.7042 45.5897 18.7042Z" fill="white"/>
<path d="M87.4773 27.5467C87.4773 27.5467 87.5603 27.3392 87.3943 27.0071C87.2282 26.675 86.73 26.3428 86.0243 26.0938C85.3186 25.8447 84.4468 25.5956 83.3674 25.5541C83.0768 25.5541 82.8277 25.5126 82.5371 25.5126C82.2466 25.5126 81.956 25.5126 81.6239 25.5126C81.0011 25.5126 80.3369 25.5541 79.6312 25.5541C76.8083 25.6786 73.3211 25.9692 69.3358 26.4259C65.3505 26.8825 60.784 27.5467 55.8023 28.5016C55.1796 28.6261 54.5569 28.7506 53.9342 28.8752C53.3115 28.9997 52.6473 29.1243 52.0246 29.2903C51.3604 29.4564 50.7377 29.6224 50.0734 29.7885C49.4092 29.9545 48.745 30.1206 48.0808 30.2866C45.3824 30.9509 42.5595 31.6151 39.612 32.0717C38.1175 32.3208 36.623 32.4869 35.0455 32.5284C33.5095 32.5699 31.8489 32.4454 30.3129 31.9057C29.5242 31.6151 28.7769 31.1999 28.1542 30.6188C27.5315 30.0376 27.0749 29.2903 26.7843 28.46C26.5352 27.6298 26.4521 26.758 26.4521 25.9277C26.4937 25.0559 26.5767 24.2256 26.7843 23.3954C27.1579 21.7348 27.7391 20.0743 28.4448 18.4968C29.1505 16.9192 30.0638 15.3832 31.0187 13.9302C32.015 12.4358 33.1358 11.0658 34.3813 9.73737C35.6267 8.40893 36.9966 7.16352 38.4496 6.08416C39.9441 5.00481 41.5216 4.00848 43.2237 3.21972C44.8842 2.38944 46.6693 1.68371 48.4959 1.18555C50.3225 0.687381 52.2737 0.355272 54.2663 0.56284L55.0136 0.645866C55.2627 0.68738 55.5117 0.770408 55.7608 0.811922C56.259 0.894949 56.7156 1.14403 57.1723 1.31009C58.0856 1.76674 58.8743 2.43096 59.497 3.21972C60.0782 4.04999 60.4519 5.04632 60.6594 6.00113C60.8255 6.99746 60.8255 7.99379 60.7009 8.99012C60.4104 10.9413 59.7046 12.8094 58.7083 14.4284C57.712 16.089 56.4666 17.5419 55.0966 18.8289C53.7266 20.1158 52.2322 21.2367 50.6546 22.1915C47.4996 24.1011 44.303 25.7201 41.148 27.2977C39.5705 28.0864 38.0345 28.8752 36.4985 29.6639C35.004 30.4942 33.5095 31.3245 32.181 32.2793C31.5168 32.7775 30.8526 33.2756 30.2714 33.8153C29.6902 34.355 29.192 34.9777 28.7769 35.6834C28.4033 36.3476 28.0712 37.0949 28.0712 37.8421C28.0297 38.5894 28.3203 39.2951 28.9015 39.6272C29.5242 39.9593 30.2714 39.9178 31.0187 39.7518C31.7244 39.5442 32.4301 39.2536 33.0528 38.8385C34.3397 38.0497 35.4606 37.0119 36.4569 35.974C38.5326 33.8568 40.3177 31.5736 41.9368 29.3318C43.5558 27.0901 45.0088 24.8899 46.2957 22.6896C46.9599 21.6103 47.5411 20.5309 48.0393 19.4516C48.5374 18.3722 48.9941 17.2929 49.4092 16.2135C50.281 14.0963 51.0698 12.1036 51.8585 10.2355C52.2737 9.32223 52.6473 8.40893 53.1039 7.57865C53.2285 7.37109 53.353 7.16352 53.4776 6.95595C53.5191 6.91443 53.5606 6.83141 53.6436 6.78989C53.7266 6.74838 53.7682 6.66535 53.8512 6.66535C53.8927 6.66535 53.9342 6.66535 53.9757 6.62384C54.0172 6.62384 54.0588 6.66535 54.1003 6.66535C54.1833 6.70687 54.2248 6.74838 54.3078 6.78989C54.3493 6.83141 54.3909 6.91444 54.4324 6.99746C54.4739 7.08049 54.4739 7.16352 54.4739 7.20503C54.4739 7.32957 54.4739 7.45411 54.4324 7.57865C54.3909 7.82774 54.3078 8.03531 54.2248 8.24287C53.8512 9.07315 53.353 9.73737 52.8133 10.3186C52.2737 10.8997 51.734 11.4394 51.1943 11.8961C50.0734 12.7679 48.9526 13.4321 47.9978 13.9302C47.0429 14.4699 46.2127 14.8435 45.5069 15.1757C44.8427 15.4663 44.303 15.7153 43.9294 15.8399C43.7634 15.9229 43.5973 15.9644 43.5143 16.0059C43.4312 16.0474 43.3897 16.0474 43.3897 16.0474C43.3897 16.0474 43.5558 15.9644 43.9294 15.7984C44.2615 15.6323 44.8012 15.3832 45.4654 15.0926C46.1296 14.7605 46.9599 14.3454 47.9147 13.8057C48.8695 13.266 49.9489 12.6433 51.0283 11.73C51.5679 11.2734 52.1076 10.7752 52.6058 10.1525C53.1039 9.57131 53.6021 8.90709 53.9342 8.11833C54.0172 7.91076 54.1003 7.74471 54.1003 7.53714C54.1003 7.45411 54.1418 7.32957 54.1003 7.24654C54.1003 7.20503 54.1003 7.16352 54.1003 7.122C54.1003 7.08049 54.1003 7.08049 54.0588 7.03898C54.0172 6.99746 53.9757 6.95595 53.8927 6.99746C53.8512 6.99746 53.8512 7.03898 53.8097 7.03898L53.7266 7.122C53.6021 7.28806 53.4776 7.49563 53.3945 7.70319C52.9794 8.53347 52.6058 9.40526 52.1906 10.3601C51.4019 12.2282 50.6546 14.2208 49.7828 16.3796C49.3677 17.4589 48.9526 18.5383 48.4129 19.6591C47.8732 20.7385 47.292 21.8594 46.6693 22.9387C45.3824 25.1389 43.9294 27.3807 42.3104 29.6224C40.6913 31.8642 38.9063 34.1889 36.8306 36.3476C35.7927 37.427 34.6719 38.5064 33.3019 39.3366C32.9698 39.5442 32.5962 39.7518 32.2641 39.9178C31.8904 40.0839 31.5168 40.2084 31.1017 40.333C30.3129 40.5405 29.3996 40.6236 28.5693 40.1669C28.1542 39.9593 27.8221 39.5857 27.656 39.1706C27.4485 38.7554 27.407 38.2988 27.4485 37.8421C27.49 36.9704 27.8221 36.1401 28.2372 35.3928C28.6939 34.6456 29.192 33.9814 29.8148 33.4002C30.4375 32.819 31.1017 32.2793 31.7659 31.7811C33.1359 30.7848 34.6303 29.9545 36.1664 29.1243C37.7024 28.294 39.2384 27.5052 40.8159 26.7165C43.9709 25.1389 47.1675 23.5199 50.281 21.6518C51.817 20.697 53.3115 19.6176 54.6399 18.3722C55.9684 17.1268 57.1723 15.7153 58.1271 14.1378C59.0819 12.5603 59.7876 10.7752 60.0367 8.94861C60.1198 8.0353 60.1613 7.08049 59.9952 6.16719C59.8292 5.25389 59.4971 4.3821 58.9574 3.63485C58.4177 2.88761 57.6705 2.34793 56.8817 1.93279C56.4666 1.76674 56.0514 1.55917 55.5948 1.47614C55.3872 1.43463 55.1381 1.3516 54.9305 1.31009L54.2248 1.22706C52.3567 1.01949 50.4886 1.3516 48.7035 1.84976C46.9184 2.34793 45.1748 3.01215 43.5143 3.84242C41.8537 4.63118 40.2762 5.54448 38.8232 6.62384C37.3703 7.7032 36.0418 8.90709 34.8379 10.194C33.634 11.4809 32.5131 12.8509 31.5583 14.3039C30.6035 15.7569 29.7317 17.2513 29.026 18.7874C28.3203 20.3234 27.7391 21.9424 27.407 23.5199C27.2409 24.3087 27.1164 25.1389 27.1164 25.9277C27.0749 26.7165 27.1579 27.5467 27.407 28.2525C27.656 28.9997 28.0712 29.6639 28.6109 30.2036C29.1505 30.7433 29.8148 31.1169 30.562 31.366C32.015 31.9057 33.551 31.9887 35.087 31.9887C36.623 31.9472 38.1175 31.7811 39.5705 31.5736C42.5179 31.1169 45.2994 30.4527 47.9978 29.83C48.662 29.6639 49.3262 29.4979 49.9904 29.3318C50.6546 29.1658 51.3188 28.9997 51.9416 28.8752C52.6058 28.7091 53.2285 28.5846 53.8927 28.46C54.5154 28.3355 55.1796 28.211 55.8023 28.0864C60.784 27.1316 65.3505 26.5089 69.3773 26.0938C73.4041 25.6786 76.8498 25.388 79.7142 25.305C80.42 25.305 81.0842 25.2635 81.7484 25.2635C82.0805 25.2635 82.3711 25.2635 82.6617 25.2635C82.9523 25.2635 83.2429 25.305 83.5335 25.305C84.6543 25.388 85.5261 25.6371 86.2319 25.9277C86.9376 26.2183 87.4358 26.5919 87.6018 26.9655C87.6018 27.3392 87.4773 27.5467 87.4773 27.5467Z" fill="white"/>
</svg>
